<?xml version="1.0" encoding="UTF-8" standalone="no"?>
<!DOCTYPE svg PUBLIC "-//W3C//DTD SVG 1.1//EN"
 "http://www.w3.org/Graphics/SVG/1.1/DTD/svg11.dtd">
<!-- Generated by graphviz version 2.43.0 (0)
 -->
<!-- Title: include/ccf/actors.h Pages: 1 -->
<svg width="2359pt" height="688pt"
 viewBox="0.00 0.00 2359.08 688.00" xmlns="http://www.w3.org/2000/svg" xmlns:xlink="http://www.w3.org/1999/xlink">
<g id="graph0" class="graph" transform="scale(1 1) rotate(0) translate(4 684)">
<title>include/ccf/actors.h</title>
<polygon fill="white" stroke="transparent" points="-4,4 -4,-684 2355.08,-684 2355.08,4 -4,4"/>
<!-- Node1 -->
<g id="node1" class="node">
<title>Node1</title>
<g id="a_node1"><a xlink:title=" ">
<polygon fill="#bfbfbf" stroke="black" points="1423.58,-660.5 1423.58,-679.5 1534.58,-679.5 1534.58,-660.5 1423.58,-660.5"/>
<text text-anchor="middle" x="1479.08" y="-667.5" font-family="Helvetica,sans-Serif" font-size="10.00">include/ccf/actors.h</text>
</a>
</g>
</g>
<!-- Node2 -->
<g id="node2" class="node">
<title>Node2</title>
<g id="a_node2"><a xlink:href="app__interface_8h.html" target="_top" xlink:title=" ">
<polygon fill="white" stroke="black" points="582.08,-375 582.08,-394 730.08,-394 730.08,-375 582.08,-375"/>
<text text-anchor="middle" x="656.08" y="-382" font-family="Helvetica,sans-Serif" font-size="10.00">include/ccf/app_interface.h</text>
</a>
</g>
</g>
<!-- Node1&#45;&gt;Node2 -->
<g id="edge1" class="edge">
<title>Node1&#45;&gt;Node2</title>
<path fill="none" stroke="midnightblue" d="M1413.1,-669.67C1265.62,-669.38 922.08,-658.09 922.08,-559 922.08,-559 922.08,-559 922.08,-501 922.08,-416.92 808.88,-393.39 730.17,-387.19"/>
<polygon fill="midnightblue" stroke="midnightblue" points="1413.37,-673.17 1423.37,-669.67 1413.38,-666.17 1413.37,-673.17"/>
</g>
<!-- Node17 -->
<g id="node17" class="node">
<title>Node17</title>
<g id="a_node17"><a xlink:href="rpc__map_8h.html" target="_top" xlink:title=" ">
<polygon fill="white" stroke="black" points="1416.08,-604.5 1416.08,-623.5 1542.08,-623.5 1542.08,-604.5 1416.08,-604.5"/>
<text text-anchor="middle" x="1479.08" y="-611.5" font-family="Helvetica,sans-Serif" font-size="10.00">src/enclave/rpc_map.h</text>
</a>
</g>
</g>
<!-- Node1&#45;&gt;Node17 -->
<g id="edge19" class="edge">
<title>Node1&#45;&gt;Node17</title>
<path fill="none" stroke="midnightblue" d="M1479.08,-649.8C1479.08,-640.91 1479.08,-630.78 1479.08,-623.75"/>
<polygon fill="midnightblue" stroke="midnightblue" points="1475.58,-650.08 1479.08,-660.08 1482.58,-650.08 1475.58,-650.08"/>
</g>
<!-- Node33 -->
<g id="node33" class="node">
<title>Node33</title>
<g id="a_node33"><a xlink:href="acme__challenge__frontend_8h.html" target="_top" xlink:title=" ">
<polygon fill="white" stroke="black" points="2211.08,-302.5 2211.08,-332.5 2351.08,-332.5 2351.08,-302.5 2211.08,-302.5"/>
<text text-anchor="start" x="2219.08" y="-320.5" font-family="Helvetica,sans-Serif" font-size="10.00">src/node/acme_challenge</text>
<text text-anchor="middle" x="2281.08" y="-309.5" font-family="Helvetica,sans-Serif" font-size="10.00">_frontend.h</text>
</a>
</g>
</g>
<!-- Node1&#45;&gt;Node33 -->
<g id="edge56" class="edge">
<title>Node1&#45;&gt;Node33</title>
<path fill="none" stroke="midnightblue" d="M1545.06,-666.86C1736.92,-659.76 2281.08,-633.09 2281.08,-559 2281.08,-559 2281.08,-559 2281.08,-445 2281.08,-404.15 2281.08,-355.88 2281.08,-332.54"/>
<polygon fill="midnightblue" stroke="midnightblue" points="1544.7,-663.37 1534.83,-667.23 1544.95,-670.36 1544.7,-663.37"/>
</g>
<!-- Node3 -->
<g id="node3" class="node">
<title>Node3</title>
<g id="a_node3"><a xlink:href="logging_8cpp.html" target="_top" xlink:title=" ">
<polygon fill="white" stroke="black" points="921.58,-302.5 921.58,-332.5 1044.58,-332.5 1044.58,-302.5 921.58,-302.5"/>
<text text-anchor="start" x="929.58" y="-320.5" font-family="Helvetica,sans-Serif" font-size="10.00">samples/apps/logging</text>
<text text-anchor="middle" x="983.08" y="-309.5" font-family="Helvetica,sans-Serif" font-size="10.00">/logging.cpp</text>
</a>
</g>
</g>
<!-- Node2&#45;&gt;Node3 -->
<g id="edge2" class="edge">
<title>Node2&#45;&gt;Node3</title>
<path fill="none" stroke="midnightblue" d="M710,-372.97C761.83,-362.83 842.33,-347 912.08,-333 915.16,-332.38 918.32,-331.74 921.51,-331.1"/>
<polygon fill="midnightblue" stroke="midnightblue" points="709.17,-369.57 700.03,-374.92 710.52,-376.44 709.17,-369.57"/>
</g>
<!-- Node4 -->
<g id="node4" class="node">
<title>Node4</title>
<g id="a_node4"><a xlink:href="nobuiltins_8cpp.html" target="_top" xlink:title=" ">
<polygon fill="white" stroke="black" points="1062.58,-302.5 1062.58,-332.5 1197.58,-332.5 1197.58,-302.5 1062.58,-302.5"/>
<text text-anchor="start" x="1070.58" y="-320.5" font-family="Helvetica,sans-Serif" font-size="10.00">samples/apps/nobuiltins</text>
<text text-anchor="middle" x="1130.08" y="-309.5" font-family="Helvetica,sans-Serif" font-size="10.00">/nobuiltins.cpp</text>
</a>
</g>
</g>
<!-- Node2&#45;&gt;Node4 -->
<g id="edge3" class="edge">
<title>Node2&#45;&gt;Node4</title>
<path fill="none" stroke="midnightblue" d="M740.47,-374.34C821.18,-365.21 946.22,-350.12 1054.08,-333 1056.86,-332.56 1059.7,-332.09 1062.57,-331.61"/>
<polygon fill="midnightblue" stroke="midnightblue" points="739.9,-370.88 730.36,-375.48 740.69,-377.83 739.9,-370.88"/>
</g>
<!-- Node5 -->
<g id="node5" class="node">
<title>Node5</title>
<g id="a_node5"><a xlink:href="js__generic_8cpp.html" target="_top" xlink:title=" ">
<polygon fill="white" stroke="black" points="84.08,-235.5 84.08,-265.5 194.08,-265.5 194.08,-235.5 84.08,-235.5"/>
<text text-anchor="start" x="92.08" y="-253.5" font-family="Helvetica,sans-Serif" font-size="10.00">src/apps/js_generic</text>
<text text-anchor="middle" x="139.08" y="-242.5" font-family="Helvetica,sans-Serif" font-size="10.00">/js_generic.cpp</text>
</a>
</g>
</g>
<!-- Node2&#45;&gt;Node5 -->
<g id="edge4" class="edge">
<title>Node2&#45;&gt;Node5</title>
<path fill="none" stroke="midnightblue" d="M571.59,-383.16C404.7,-381.61 45.58,-373.54 8.08,-333 -20.75,-301.84 36.33,-278.02 84,-264.4"/>
<polygon fill="midnightblue" stroke="midnightblue" points="571.78,-386.66 581.81,-383.25 571.85,-379.66 571.78,-386.66"/>
</g>
<!-- Node6 -->
<g id="node6" class="node">
<title>Node6</title>
<g id="a_node6"><a xlink:href="js__generic__base_8cpp.html" target="_top" xlink:title=" ">
<polygon fill="white" stroke="black" points="17.08,-302.5 17.08,-332.5 135.08,-332.5 135.08,-302.5 17.08,-302.5"/>
<text text-anchor="start" x="25.08" y="-320.5" font-family="Helvetica,sans-Serif" font-size="10.00">src/apps/js_generic</text>
<text text-anchor="middle" x="76.08" y="-309.5" font-family="Helvetica,sans-Serif" font-size="10.00">/js_generic_base.cpp</text>
</a>
</g>
</g>
<!-- Node2&#45;&gt;Node6 -->
<g id="edge5" class="edge">
<title>Node2&#45;&gt;Node6</title>
<path fill="none" stroke="midnightblue" d="M571.76,-378.09C469.99,-370.88 293.83,-356.28 144.08,-333 141.21,-332.56 138.29,-332.07 135.34,-331.55"/>
<polygon fill="midnightblue" stroke="midnightblue" points="571.76,-381.59 581.98,-378.8 572.25,-374.61 571.76,-381.59"/>
</g>
<!-- Node7 -->
<g id="node7" class="node">
<title>Node7</title>
<g id="a_node7"><a xlink:href="js__generic__base_8h.html" target="_top" xlink:title=" ">
<polygon fill="white" stroke="black" points="153.08,-302.5 153.08,-332.5 263.08,-332.5 263.08,-302.5 153.08,-302.5"/>
<text text-anchor="start" x="161.08" y="-320.5" font-family="Helvetica,sans-Serif" font-size="10.00">src/apps/js_generic</text>
<text text-anchor="middle" x="208.08" y="-309.5" font-family="Helvetica,sans-Serif" font-size="10.00">/js_generic_base.h</text>
</a>
</g>
</g>
<!-- Node2&#45;&gt;Node7 -->
<g id="edge6" class="edge">
<title>Node2&#45;&gt;Node7</title>
<path fill="none" stroke="midnightblue" d="M571.63,-374.08C494.64,-365.06 377.88,-350.28 277.08,-333 272.61,-332.23 268,-331.39 263.37,-330.5"/>
<polygon fill="midnightblue" stroke="midnightblue" points="571.41,-377.58 581.75,-375.26 572.22,-370.62 571.41,-377.58"/>
</g>
<!-- Node8 -->
<g id="node8" class="node">
<title>Node8</title>
<g id="a_node8"><a xlink:href="js__v8_8cpp.html" target="_top" xlink:title=" ">
<polygon fill="white" stroke="black" points="293.08,-241 293.08,-260 427.08,-260 427.08,-241 293.08,-241"/>
<text text-anchor="middle" x="360.08" y="-248" font-family="Helvetica,sans-Serif" font-size="10.00">src/apps/js_v8/js_v8.cpp</text>
</a>
</g>
</g>
<!-- Node2&#45;&gt;Node8 -->
<g id="edge8" class="edge">
<title>Node2&#45;&gt;Node8</title>
<path fill="none" stroke="midnightblue" d="M571.7,-383.34C480.35,-381.15 343.23,-371.34 310.08,-333 289.45,-309.14 326.98,-275.8 347.71,-260.2"/>
<polygon fill="midnightblue" stroke="midnightblue" points="571.7,-386.84 581.77,-383.55 571.85,-379.84 571.7,-386.84"/>
</g>
<!-- Node9 -->
<g id="node9" class="node">
<title>Node9</title>
<g id="a_node9"><a xlink:href="js__v8__base_8cpp.html" target="_top" xlink:title=" ">
<polygon fill="white" stroke="black" points="319.08,-302.5 319.08,-332.5 433.08,-332.5 433.08,-302.5 319.08,-302.5"/>
<text text-anchor="start" x="327.08" y="-320.5" font-family="Helvetica,sans-Serif" font-size="10.00">src/apps/js_v8/js_v8</text>
<text text-anchor="middle" x="376.08" y="-309.5" font-family="Helvetica,sans-Serif" font-size="10.00">_base.cpp</text>
</a>
</g>
</g>
<!-- Node2&#45;&gt;Node9 -->
<g id="edge9" class="edge">
<title>Node2&#45;&gt;Node9</title>
<path fill="none" stroke="midnightblue" d="M609.28,-372.64C560.85,-361.39 485.14,-343.82 433.21,-331.76"/>
<polygon fill="midnightblue" stroke="midnightblue" points="608.65,-376.08 619.18,-374.94 610.23,-369.26 608.65,-376.08"/>
</g>
<!-- Node10 -->
<g id="node10" class="node">
<title>Node10</title>
<g id="a_node10"><a xlink:href="js__v8__base_8h.html" target="_top" xlink:title=" ">
<polygon fill="white" stroke="black" points="451.08,-302.5 451.08,-332.5 565.08,-332.5 565.08,-302.5 451.08,-302.5"/>
<text text-anchor="start" x="459.08" y="-320.5" font-family="Helvetica,sans-Serif" font-size="10.00">src/apps/js_v8/js_v8</text>
<text text-anchor="middle" x="508.08" y="-309.5" font-family="Helvetica,sans-Serif" font-size="10.00">_base.h</text>
</a>
</g>
</g>
<!-- Node2&#45;&gt;Node10 -->
<g id="edge10" class="edge">
<title>Node2&#45;&gt;Node10</title>
<path fill="none" stroke="midnightblue" d="M627.08,-370.77C602.03,-359.77 565.89,-343.89 540.02,-332.53"/>
<polygon fill="midnightblue" stroke="midnightblue" points="625.86,-374.05 636.42,-374.87 628.67,-367.64 625.86,-374.05"/>
</g>
<!-- Node11 -->
<g id="node11" class="node">
<title>Node11</title>
<g id="a_node11"><a xlink:href="tpcc_8cpp.html" target="_top" xlink:title=" ">
<polygon fill="white" stroke="black" points="583.58,-308 583.58,-327 728.58,-327 728.58,-308 583.58,-308"/>
<text text-anchor="middle" x="656.08" y="-315" font-family="Helvetica,sans-Serif" font-size="10.00">src/apps/tpcc/app/tpcc.cpp</text>
</a>
</g>
</g>
<!-- Node2&#45;&gt;Node11 -->
<g id="edge12" class="edge">
<title>Node2&#45;&gt;Node11</title>
<path fill="none" stroke="midnightblue" d="M656.08,-364.54C656.08,-352.17 656.08,-336.62 656.08,-327.13"/>
<polygon fill="midnightblue" stroke="midnightblue" points="652.58,-364.73 656.08,-374.73 659.58,-364.73 652.58,-364.73"/>
</g>
<!-- Node12 -->
<g id="node12" class="node">
<title>Node12</title>
<g id="a_node12"><a xlink:href="enclave_2enclave_8h.html" target="_top" xlink:title=" ">
<polygon fill="white" stroke="black" points="1531.08,-56.5 1531.08,-75.5 1653.08,-75.5 1653.08,-56.5 1531.08,-56.5"/>
<text text-anchor="middle" x="1592.08" y="-63.5" font-family="Helvetica,sans-Serif" font-size="10.00">src/enclave/enclave.h</text>
</a>
</g>
</g>
<!-- Node2&#45;&gt;Node12 -->
<g id="edge13" class="edge">
<title>Node2&#45;&gt;Node12</title>
<path fill="none" stroke="midnightblue" d="M688.98,-370.66C706.07,-362.37 725.88,-349.94 738.08,-333 759.8,-302.81 757.08,-288.69 757.08,-251.5 757.08,-251.5 757.08,-251.5 757.08,-182.5 757.08,-104.34 1338.52,-76.2 1531.01,-69.02"/>
<polygon fill="midnightblue" stroke="midnightblue" points="687.47,-367.5 679.83,-374.84 690.38,-373.87 687.47,-367.5"/>
</g>
<!-- Node14 -->
<g id="node14" class="node">
<title>Node14</title>
<g id="a_node14"><a xlink:href="no__plugins_8cpp.html" target="_top" xlink:title=" ">
<polygon fill="white" stroke="black" points="785.08,-308 785.08,-327 903.08,-327 903.08,-308 785.08,-308"/>
<text text-anchor="middle" x="844.08" y="-315" font-family="Helvetica,sans-Serif" font-size="10.00">src/js/no_plugins.cpp</text>
</a>
</g>
</g>
<!-- Node2&#45;&gt;Node14 -->
<g id="edge15" class="edge">
<title>Node2&#45;&gt;Node14</title>
<path fill="none" stroke="midnightblue" d="M690.97,-371.44C728.26,-358.54 786.45,-338.42 819.31,-327.06"/>
<polygon fill="midnightblue" stroke="midnightblue" points="689.35,-368.29 681.04,-374.87 691.63,-374.91 689.35,-368.29"/>
</g>
<!-- Node16 -->
<g id="node16" class="node">
<title>Node16</title>
<g id="a_node16"><a xlink:href="user__frontend_8h.html" target="_top" xlink:title=" ">
<polygon fill="white" stroke="black" points="1254.58,-308 1254.58,-327 1409.58,-327 1409.58,-308 1254.58,-308"/>
<text text-anchor="middle" x="1332.08" y="-315" font-family="Helvetica,sans-Serif" font-size="10.00">src/node/rpc/user_frontend.h</text>
</a>
</g>
</g>
<!-- Node2&#45;&gt;Node16 -->
<g id="edge17" class="edge">
<title>Node2&#45;&gt;Node16</title>
<path fill="none" stroke="midnightblue" d="M740.3,-376.42C848.43,-367.17 1041.85,-350.15 1207.08,-333 1224.68,-331.17 1243.65,-329.05 1261.37,-327"/>
<polygon fill="midnightblue" stroke="midnightblue" points="739.77,-372.95 730.1,-377.29 740.36,-379.92 739.77,-372.95"/>
</g>
<!-- Node7&#45;&gt;Node5 -->
<g id="edge7" class="edge">
<title>Node7&#45;&gt;Node5</title>
<path fill="none" stroke="midnightblue" d="M185.58,-295.31C175.23,-285.56 163.23,-274.26 154.02,-265.58"/>
<polygon fill="midnightblue" stroke="midnightblue" points="183.42,-298.09 193.1,-302.4 188.22,-292.99 183.42,-298.09"/>
</g>
<!-- Node10&#45;&gt;Node8 -->
<g id="edge11" class="edge">
<title>Node10&#45;&gt;Node8</title>
<path fill="none" stroke="midnightblue" d="M466.62,-298.3C438.08,-285.76 401.47,-269.68 379.45,-260.01"/>
<polygon fill="midnightblue" stroke="midnightblue" points="465.4,-301.58 475.96,-302.4 468.21,-295.17 465.4,-301.58"/>
</g>
<!-- Node13 -->
<g id="node13" class="node">
<title>Node13</title>
<g id="a_node13"><a xlink:href="enclave_2main_8cpp.html" target="_top" xlink:title=" ">
<polygon fill="white" stroke="black" points="1532.08,-0.5 1532.08,-19.5 1652.08,-19.5 1652.08,-0.5 1532.08,-0.5"/>
<text text-anchor="middle" x="1592.08" y="-7.5" font-family="Helvetica,sans-Serif" font-size="10.00">src/enclave/main.cpp</text>
</a>
</g>
</g>
<!-- Node12&#45;&gt;Node13 -->
<g id="edge14" class="edge">
<title>Node12&#45;&gt;Node13</title>
<path fill="none" stroke="midnightblue" d="M1592.08,-45.8C1592.08,-36.91 1592.08,-26.78 1592.08,-19.75"/>
<polygon fill="midnightblue" stroke="midnightblue" points="1588.58,-46.08 1592.08,-56.08 1595.58,-46.08 1588.58,-46.08"/>
</g>
<!-- Node15 -->
<g id="node15" class="node">
<title>Node15</title>
<g id="a_node15"><a xlink:href="wrap_8cpp.html" target="_top" xlink:title=" ">
<polygon fill="white" stroke="black" points="799.58,-241 799.58,-260 888.58,-260 888.58,-241 799.58,-241"/>
<text text-anchor="middle" x="844.08" y="-248" font-family="Helvetica,sans-Serif" font-size="10.00">src/js/wrap.cpp</text>
</a>
</g>
</g>
<!-- Node14&#45;&gt;Node15 -->
<g id="edge16" class="edge">
<title>Node14&#45;&gt;Node15</title>
<path fill="none" stroke="midnightblue" d="M844.08,-297.54C844.08,-285.17 844.08,-269.62 844.08,-260.13"/>
<polygon fill="midnightblue" stroke="midnightblue" points="840.58,-297.73 844.08,-307.73 847.58,-297.73 840.58,-297.73"/>
</g>
<!-- Node16&#45;&gt;Node12 -->
<g id="edge18" class="edge">
<title>Node16&#45;&gt;Node12</title>
<path fill="none" stroke="midnightblue" d="M1334.97,-297.97C1342.24,-257.77 1365.11,-162.16 1424.08,-112 1453.74,-86.76 1496.17,-75.53 1530.96,-70.6"/>
<polygon fill="midnightblue" stroke="midnightblue" points="1331.5,-297.51 1333.28,-307.95 1338.4,-298.68 1331.5,-297.51"/>
</g>
<!-- Node17&#45;&gt;Node12 -->
<g id="edge20" class="edge">
<title>Node17&#45;&gt;Node12</title>
<path fill="none" stroke="midnightblue" d="M1405.56,-611.11C1330.86,-604.81 1226.08,-581.91 1226.08,-503 1226.08,-503 1226.08,-503 1226.08,-182.5 1226.08,-119.37 1426.62,-86.41 1530.82,-73.55"/>
<polygon fill="midnightblue" stroke="midnightblue" points="1405.65,-614.63 1415.89,-611.9 1406.18,-607.65 1405.65,-614.63"/>
</g>
<!-- Node18 -->
<g id="node18" class="node">
<title>Node18</title>
<g id="a_node18"><a xlink:href="http__endpoint_8h.html" target="_top" xlink:title=" ">
<polygon fill="white" stroke="black" points="1686.58,-548.5 1686.58,-567.5 1819.58,-567.5 1819.58,-548.5 1686.58,-548.5"/>
<text text-anchor="middle" x="1753.08" y="-555.5" font-family="Helvetica,sans-Serif" font-size="10.00">src/http/http_endpoint.h</text>
</a>
</g>
</g>
<!-- Node17&#45;&gt;Node18 -->
<g id="edge21" class="edge">
<title>Node17&#45;&gt;Node18</title>
<path fill="none" stroke="midnightblue" d="M1532.49,-602.47C1584.27,-592.27 1661.85,-576.98 1709.86,-567.52"/>
<polygon fill="midnightblue" stroke="midnightblue" points="1531.63,-599.08 1522.49,-604.44 1532.98,-605.94 1531.63,-599.08"/>
</g>
<!-- Node31 -->
<g id="node31" class="node">
<title>Node31</title>
<g id="a_node31"><a xlink:href="forwarder_8h.html" target="_top" xlink:title=" ">
<polygon fill="white" stroke="black" points="1412.08,-436.5 1412.08,-455.5 1546.08,-455.5 1546.08,-436.5 1412.08,-436.5"/>
<text text-anchor="middle" x="1479.08" y="-443.5" font-family="Helvetica,sans-Serif" font-size="10.00">src/node/rpc/forwarder.h</text>
</a>
</g>
</g>
<!-- Node17&#45;&gt;Node31 -->
<g id="edge45" class="edge">
<title>Node17&#45;&gt;Node31</title>
<path fill="none" stroke="midnightblue" d="M1479.08,-593.93C1479.08,-557.92 1479.08,-481.23 1479.08,-455.57"/>
<polygon fill="midnightblue" stroke="midnightblue" points="1475.58,-594.08 1479.08,-604.08 1482.58,-594.08 1475.58,-594.08"/>
</g>
<!-- Node19 -->
<g id="node19" class="node">
<title>Node19</title>
<g id="a_node19"><a xlink:href="rpc__sessions_8h.html" target="_top" xlink:title=" ">
<polygon fill="white" stroke="black" points="1699.08,-492.5 1699.08,-511.5 1845.08,-511.5 1845.08,-492.5 1699.08,-492.5"/>
<text text-anchor="middle" x="1772.08" y="-499.5" font-family="Helvetica,sans-Serif" font-size="10.00">src/enclave/rpc_sessions.h</text>
</a>
</g>
</g>
<!-- Node18&#45;&gt;Node19 -->
<g id="edge22" class="edge">
<title>Node18&#45;&gt;Node19</title>
<path fill="none" stroke="midnightblue" d="M1759.62,-538.4C1762.8,-529.36 1766.47,-518.94 1769,-511.75"/>
<polygon fill="midnightblue" stroke="midnightblue" points="1756.23,-537.49 1756.21,-548.08 1762.83,-539.81 1756.23,-537.49"/>
</g>
<!-- Node19&#45;&gt;Node12 -->
<g id="edge23" class="edge">
<title>Node19&#45;&gt;Node12</title>
<path fill="none" stroke="midnightblue" d="M1733.5,-488.56C1716.42,-481.37 1697.25,-470.78 1684.08,-456 1630.74,-396.16 1598.75,-127.58 1593.01,-75.69"/>
<polygon fill="midnightblue" stroke="midnightblue" points="1732.68,-491.99 1743.26,-492.4 1735.24,-485.48 1732.68,-491.99"/>
</g>
<!-- Node20 -->
<g id="node20" class="node">
<title>Node20</title>
<g id="a_node20"><a xlink:href="ccf__acme__client_8h.html" target="_top" xlink:title=" ">
<polygon fill="white" stroke="black" points="2120.58,-241 2120.58,-260 2269.58,-260 2269.58,-241 2120.58,-241"/>
<text text-anchor="middle" x="2195.08" y="-248" font-family="Helvetica,sans-Serif" font-size="10.00">src/node/ccf_acme_client.h</text>
</a>
</g>
</g>
<!-- Node19&#45;&gt;Node20 -->
<g id="edge24" class="edge">
<title>Node19&#45;&gt;Node20</title>
<path fill="none" stroke="midnightblue" d="M1855.75,-497.44C1934.44,-489.85 2051.08,-467.07 2126.08,-400 2170.57,-360.2 2188.5,-285.77 2193.5,-260.31"/>
<polygon fill="midnightblue" stroke="midnightblue" points="1855.03,-493.99 1845.39,-498.38 1855.66,-500.96 1855.03,-493.99"/>
</g>
<!-- Node21 -->
<g id="node21" class="node">
<title>Node21</title>
<g id="a_node21"><a xlink:href="node__state_8h.html" target="_top" xlink:title=" ">
<polygon fill="white" stroke="black" points="1810.08,-174 1810.08,-193 1934.08,-193 1934.08,-174 1810.08,-174"/>
<text text-anchor="middle" x="1872.08" y="-181" font-family="Helvetica,sans-Serif" font-size="10.00">src/node/node_state.h</text>
</a>
</g>
</g>
<!-- Node19&#45;&gt;Node21 -->
<g id="edge42" class="edge">
<title>Node19&#45;&gt;Node21</title>
<path fill="none" stroke="midnightblue" d="M1748.43,-486.75C1710.81,-462.3 1644.73,-410.94 1677.08,-369 1715.52,-319.15 1763.97,-371.12 1814.08,-333 1860.78,-297.48 1869.9,-218.95 1871.66,-193"/>
<polygon fill="midnightblue" stroke="midnightblue" points="1746.98,-489.97 1757.3,-492.36 1750.72,-484.06 1746.98,-489.97"/>
</g>
<!-- Node23 -->
<g id="node23" class="node">
<title>Node23</title>
<g id="a_node23"><a xlink:href="node__client_8h.html" target="_top" xlink:title=" ">
<polygon fill="white" stroke="black" points="1824.08,-436.5 1824.08,-455.5 1950.08,-455.5 1950.08,-436.5 1824.08,-436.5"/>
<text text-anchor="middle" x="1887.08" y="-443.5" font-family="Helvetica,sans-Serif" font-size="10.00">src/node/node_client.h</text>
</a>
</g>
</g>
<!-- Node19&#45;&gt;Node23 -->
<g id="edge29" class="edge">
<title>Node19&#45;&gt;Node23</title>
<path fill="none" stroke="midnightblue" d="M1799.56,-488.1C1821.04,-478.01 1850.3,-464.27 1868.94,-455.52"/>
<polygon fill="midnightblue" stroke="midnightblue" points="1797.86,-485.02 1790.3,-492.44 1800.84,-491.36 1797.86,-485.02"/>
</g>
<!-- Node30 -->
<g id="node30" class="node">
<title>Node30</title>
<g id="a_node30"><a xlink:href="resharing_8h.html" target="_top" xlink:title=" ">
<polygon fill="white" stroke="black" points="2137.08,-436.5 2137.08,-455.5 2253.08,-455.5 2253.08,-436.5 2137.08,-436.5"/>
<text text-anchor="middle" x="2195.08" y="-443.5" font-family="Helvetica,sans-Serif" font-size="10.00">src/node/resharing.h</text>
</a>
</g>
</g>
<!-- Node19&#45;&gt;Node30 -->
<g id="edge43" class="edge">
<title>Node19&#45;&gt;Node30</title>
<path fill="none" stroke="midnightblue" d="M1849.22,-491.15C1932.16,-480.56 2062.11,-463.97 2136.87,-454.43"/>
<polygon fill="midnightblue" stroke="midnightblue" points="1848.58,-487.71 1839.1,-492.44 1849.46,-494.65 1848.58,-487.71"/>
</g>
<!-- Node20&#45;&gt;Node21 -->
<g id="edge25" class="edge">
<title>Node20&#45;&gt;Node21</title>
<path fill="none" stroke="midnightblue" d="M2142.69,-238.96C2079.12,-226.16 1973.17,-204.84 1914.47,-193.03"/>
<polygon fill="midnightblue" stroke="midnightblue" points="2142.02,-242.39 2152.52,-240.94 2143.4,-235.53 2142.02,-242.39"/>
</g>
<!-- Node21&#45;&gt;Node12 -->
<g id="edge26" class="edge">
<title>Node21&#45;&gt;Node12</title>
<path fill="none" stroke="midnightblue" d="M1842.73,-170.03C1809.24,-155.83 1752.81,-132.01 1704.08,-112 1672.67,-99.1 1636.16,-84.51 1613.59,-75.53"/>
<polygon fill="midnightblue" stroke="midnightblue" points="1841.37,-173.25 1851.95,-173.94 1844.11,-166.81 1841.37,-173.25"/>
</g>
<!-- Node22 -->
<g id="node22" class="node">
<title>Node22</title>
<g id="a_node22"><a xlink:href="gov__effects_8h.html" target="_top" xlink:title=" ">
<polygon fill="white" stroke="black" points="1778.08,-112.5 1778.08,-131.5 1922.08,-131.5 1922.08,-112.5 1778.08,-112.5"/>
<text text-anchor="middle" x="1850.08" y="-119.5" font-family="Helvetica,sans-Serif" font-size="10.00">src/node/rpc/gov_effects.h</text>
</a>
</g>
</g>
<!-- Node21&#45;&gt;Node22 -->
<g id="edge27" class="edge">
<title>Node21&#45;&gt;Node22</title>
<path fill="none" stroke="midnightblue" d="M1865.42,-164.5C1861.37,-153.55 1856.39,-140.07 1853.22,-131.51"/>
<polygon fill="midnightblue" stroke="midnightblue" points="1862.17,-165.81 1868.92,-173.98 1868.74,-163.38 1862.17,-165.81"/>
</g>
<!-- Node22&#45;&gt;Node12 -->
<g id="edge28" class="edge">
<title>Node22&#45;&gt;Node12</title>
<path fill="none" stroke="midnightblue" d="M1799.17,-110.35C1750.41,-100.14 1677.79,-84.94 1632.76,-75.52"/>
<polygon fill="midnightblue" stroke="midnightblue" points="1798.69,-113.82 1809.19,-112.44 1800.12,-106.97 1798.69,-113.82"/>
</g>
<!-- Node24 -->
<g id="node24" class="node">
<title>Node24</title>
<g id="a_node24"><a xlink:href="orc__requests_8h.html" target="_top" xlink:title=" ">
<polygon fill="white" stroke="black" points="1685.58,-369.5 1685.58,-399.5 1804.58,-399.5 1804.58,-369.5 1685.58,-369.5"/>
<text text-anchor="start" x="1693.58" y="-387.5" font-family="Helvetica,sans-Serif" font-size="10.00">src/consensus/aft/orc</text>
<text text-anchor="middle" x="1745.08" y="-376.5" font-family="Helvetica,sans-Serif" font-size="10.00">_requests.h</text>
</a>
</g>
</g>
<!-- Node23&#45;&gt;Node24 -->
<g id="edge30" class="edge">
<title>Node23&#45;&gt;Node24</title>
<path fill="none" stroke="midnightblue" d="M1857.46,-432.59C1834.43,-422.94 1802.49,-409.56 1778.54,-399.52"/>
<polygon fill="midnightblue" stroke="midnightblue" points="1856.15,-435.84 1866.73,-436.48 1858.86,-429.38 1856.15,-435.84"/>
</g>
<!-- Node25 -->
<g id="node25" class="node">
<title>Node25</title>
<g id="a_node25"><a xlink:href="raft_8h.html" target="_top" xlink:title=" ">
<polygon fill="white" stroke="black" points="1861.58,-308 1861.58,-327 1990.58,-327 1990.58,-308 1861.58,-308"/>
<text text-anchor="middle" x="1926.08" y="-315" font-family="Helvetica,sans-Serif" font-size="10.00">src/consensus/aft/raft.h</text>
</a>
</g>
</g>
<!-- Node23&#45;&gt;Node25 -->
<g id="edge37" class="edge">
<title>Node23&#45;&gt;Node25</title>
<path fill="none" stroke="midnightblue" d="M1922.52,-432.2C1936.86,-425.06 1951.92,-414.61 1960.08,-400 1974.13,-374.83 1949.2,-342.68 1934.97,-327.37"/>
<polygon fill="midnightblue" stroke="midnightblue" points="1920.93,-429.08 1913.29,-436.41 1923.84,-435.44 1920.93,-429.08"/>
</g>
<!-- Node28 -->
<g id="node28" class="node">
<title>Node28</title>
<g id="a_node28"><a xlink:href="http__node__client_8h.html" target="_top" xlink:title=" ">
<polygon fill="white" stroke="black" points="2007.08,-369.5 2007.08,-399.5 2117.08,-399.5 2117.08,-369.5 2007.08,-369.5"/>
<text text-anchor="start" x="2015.08" y="-387.5" font-family="Helvetica,sans-Serif" font-size="10.00">src/node/http_node</text>
<text text-anchor="middle" x="2062.08" y="-376.5" font-family="Helvetica,sans-Serif" font-size="10.00">_client.h</text>
</a>
</g>
</g>
<!-- Node23&#45;&gt;Node28 -->
<g id="edge38" class="edge">
<title>Node23&#45;&gt;Node28</title>
<path fill="none" stroke="midnightblue" d="M1921.69,-433.23C1950.19,-423.54 1990.66,-409.78 2020.83,-399.52"/>
<polygon fill="midnightblue" stroke="midnightblue" points="1920.49,-429.94 1912.15,-436.48 1922.74,-436.57 1920.49,-429.94"/>
</g>
<!-- Node29 -->
<g id="node29" class="node">
<title>Node29</title>
<g id="a_node29"><a xlink:href="retired__nodes__cleanup_8h.html" target="_top" xlink:title=" ">
<polygon fill="white" stroke="black" points="1823.08,-369.5 1823.08,-399.5 1951.08,-399.5 1951.08,-369.5 1823.08,-369.5"/>
<text text-anchor="start" x="1831.08" y="-387.5" font-family="Helvetica,sans-Serif" font-size="10.00">src/node/retired_nodes</text>
<text text-anchor="middle" x="1887.08" y="-376.5" font-family="Helvetica,sans-Serif" font-size="10.00">_cleanup.h</text>
</a>
</g>
</g>
<!-- Node23&#45;&gt;Node29 -->
<g id="edge40" class="edge">
<title>Node23&#45;&gt;Node29</title>
<path fill="none" stroke="midnightblue" d="M1887.08,-426.23C1887.08,-417.59 1887.08,-407.5 1887.08,-399.52"/>
<polygon fill="midnightblue" stroke="midnightblue" points="1883.58,-426.48 1887.08,-436.48 1890.58,-426.48 1883.58,-426.48"/>
</g>
<!-- Node24&#45;&gt;Node25 -->
<g id="edge31" class="edge">
<title>Node24&#45;&gt;Node25</title>
<path fill="none" stroke="midnightblue" d="M1793.96,-365.95C1829.11,-353.32 1874.98,-336.85 1902.39,-327.01"/>
<polygon fill="midnightblue" stroke="midnightblue" points="1792.58,-362.72 1784.35,-369.4 1794.94,-369.31 1792.58,-362.72"/>
</g>
<!-- Node26 -->
<g id="node26" class="node">
<title>Node26</title>
<g id="a_node26"><a xlink:href="node__frontend_8h.html" target="_top" xlink:title=" ">
<polygon fill="white" stroke="black" points="1647.08,-308 1647.08,-327 1805.08,-327 1805.08,-308 1647.08,-308"/>
<text text-anchor="middle" x="1726.08" y="-315" font-family="Helvetica,sans-Serif" font-size="10.00">src/node/rpc/node_frontend.h</text>
</a>
</g>
</g>
<!-- Node24&#45;&gt;Node26 -->
<g id="edge33" class="edge">
<title>Node24&#45;&gt;Node26</title>
<path fill="none" stroke="midnightblue" d="M1738.09,-359.6C1734.78,-348.28 1731.03,-335.46 1728.62,-327.19"/>
<polygon fill="midnightblue" stroke="midnightblue" points="1734.79,-360.78 1740.95,-369.4 1741.51,-358.82 1734.79,-360.78"/>
</g>
<!-- Node25&#45;&gt;Node21 -->
<g id="edge32" class="edge">
<title>Node25&#45;&gt;Node21</title>
<path fill="none" stroke="midnightblue" d="M1918.73,-298.54C1906.94,-269.72 1884.24,-214.22 1875.56,-193.02"/>
<polygon fill="midnightblue" stroke="midnightblue" points="1915.51,-299.91 1922.53,-307.84 1921.99,-297.26 1915.51,-299.91"/>
</g>
<!-- Node26&#45;&gt;Node12 -->
<g id="edge34" class="edge">
<title>Node26&#45;&gt;Node12</title>
<path fill="none" stroke="midnightblue" d="M1718.95,-298.19C1704.34,-261.5 1668.87,-176.96 1628.08,-112 1619.56,-98.44 1607.63,-84.26 1599.87,-75.52"/>
<polygon fill="midnightblue" stroke="midnightblue" points="1715.88,-299.94 1722.8,-307.96 1722.4,-297.37 1715.88,-299.94"/>
</g>
<!-- Node27 -->
<g id="node27" class="node">
<title>Node27</title>
<g id="a_node27"><a xlink:href="jwt__key__auto__refresh_8h.html" target="_top" xlink:title=" ">
<polygon fill="white" stroke="black" points="1718.58,-235.5 1718.58,-265.5 1843.58,-265.5 1843.58,-235.5 1718.58,-235.5"/>
<text text-anchor="start" x="1726.58" y="-253.5" font-family="Helvetica,sans-Serif" font-size="10.00">src/node/jwt_key_auto</text>
<text text-anchor="middle" x="1781.08" y="-242.5" font-family="Helvetica,sans-Serif" font-size="10.00">_refresh.h</text>
</a>
</g>
</g>
<!-- Node26&#45;&gt;Node27 -->
<g id="edge35" class="edge">
<title>Node26&#45;&gt;Node27</title>
<path fill="none" stroke="midnightblue" d="M1740.05,-299.99C1749.04,-289.36 1760.6,-275.7 1769.15,-265.59"/>
<polygon fill="midnightblue" stroke="midnightblue" points="1737.28,-297.84 1733.49,-307.73 1742.62,-302.36 1737.28,-297.84"/>
</g>
<!-- Node27&#45;&gt;Node21 -->
<g id="edge36" class="edge">
<title>Node27&#45;&gt;Node21</title>
<path fill="none" stroke="midnightblue" d="M1809.35,-229.31C1826.44,-217.1 1847.33,-202.18 1860.17,-193.01"/>
<polygon fill="midnightblue" stroke="midnightblue" points="1806.92,-226.74 1800.82,-235.4 1810.99,-232.43 1806.92,-226.74"/>
</g>
<!-- Node28&#45;&gt;Node21 -->
<g id="edge39" class="edge">
<title>Node28&#45;&gt;Node21</title>
<path fill="none" stroke="midnightblue" d="M2046.41,-360.72C2034.44,-343.88 2017.15,-320.73 2000.08,-302 1959.84,-257.86 1905.27,-211.71 1882.61,-193.06"/>
<polygon fill="midnightblue" stroke="midnightblue" points="2043.86,-363.18 2052.47,-369.35 2049.59,-359.16 2043.86,-363.18"/>
</g>
<!-- Node29&#45;&gt;Node25 -->
<g id="edge41" class="edge">
<title>Node29&#45;&gt;Node25</title>
<path fill="none" stroke="midnightblue" d="M1900.8,-360.63C1907.73,-349.07 1915.75,-335.71 1920.86,-327.19"/>
<polygon fill="midnightblue" stroke="midnightblue" points="1897.68,-359.02 1895.54,-369.4 1903.68,-362.62 1897.68,-359.02"/>
</g>
<!-- Node30&#45;&gt;Node21 -->
<g id="edge44" class="edge">
<title>Node30&#45;&gt;Node21</title>
<path fill="none" stroke="midnightblue" d="M2181.19,-428.32C2167.71,-412.46 2146.36,-388.25 2126.08,-369 2057.81,-304.2 2039.86,-288.01 1962.08,-235 1937.94,-218.55 1908.05,-202.58 1889.52,-193.14"/>
<polygon fill="midnightblue" stroke="midnightblue" points="2178.69,-430.79 2187.81,-436.18 2184.05,-426.28 2178.69,-430.79"/>
</g>
<!-- Node31&#45;&gt;Node12 -->
<g id="edge46" class="edge">
<title>Node31&#45;&gt;Node12</title>
<path fill="none" stroke="midnightblue" d="M1466.81,-427.77C1461.69,-419.71 1456.22,-409.75 1453.08,-400 1432.69,-336.87 1438.08,-317.84 1438.08,-251.5 1438.08,-251.5 1438.08,-251.5 1438.08,-182.5 1438.08,-122.34 1514.21,-89.68 1559.42,-75.59"/>
<polygon fill="midnightblue" stroke="midnightblue" points="1464.01,-429.88 1472.49,-436.23 1469.82,-425.98 1464.01,-429.88"/>
</g>
<!-- Node32 -->
<g id="node32" class="node">
<title>Node32</title>
<g id="a_node32"><a xlink:href="frontend_8h.html" target="_top" xlink:title=" ">
<polygon fill="white" stroke="black" points="1461.58,-375 1461.58,-394 1590.58,-394 1590.58,-375 1461.58,-375"/>
<text text-anchor="middle" x="1526.08" y="-382" font-family="Helvetica,sans-Serif" font-size="10.00">src/node/rpc/frontend.h</text>
</a>
</g>
</g>
<!-- Node31&#45;&gt;Node32 -->
<g id="edge47" class="edge">
<title>Node31&#45;&gt;Node32</title>
<path fill="none" stroke="midnightblue" d="M1492.24,-428.34C1501.06,-417.17 1512.31,-402.93 1519.35,-394.01"/>
<polygon fill="midnightblue" stroke="midnightblue" points="1489.26,-426.46 1485.81,-436.48 1494.75,-430.8 1489.26,-426.46"/>
</g>
<!-- Node32&#45;&gt;Node16 -->
<g id="edge55" class="edge">
<title>Node32&#45;&gt;Node16</title>
<path fill="none" stroke="midnightblue" d="M1490.56,-371.6C1452.1,-358.71 1391.69,-338.47 1357.63,-327.06"/>
<polygon fill="midnightblue" stroke="midnightblue" points="1489.72,-375.01 1500.31,-374.87 1491.94,-368.37 1489.72,-375.01"/>
</g>
<!-- Node32&#45;&gt;Node21 -->
<g id="edge51" class="edge">
<title>Node32&#45;&gt;Node21</title>
<path fill="none" stroke="midnightblue" d="M1541.43,-367.62C1571.26,-337.62 1640.28,-272.28 1710.08,-235 1748.27,-214.6 1796.02,-200.97 1829.75,-193.07"/>
<polygon fill="midnightblue" stroke="midnightblue" points="1538.91,-365.19 1534.4,-374.77 1543.9,-370.1 1538.91,-365.19"/>
</g>
<!-- Node32&#45;&gt;Node26 -->
<g id="edge54" class="edge">
<title>Node32&#45;&gt;Node26</title>
<path fill="none" stroke="midnightblue" d="M1562.18,-371.77C1601.81,-358.89 1664.47,-338.52 1699.73,-327.06"/>
<polygon fill="midnightblue" stroke="midnightblue" points="1561.06,-368.45 1552.63,-374.87 1563.23,-375.11 1561.06,-368.45"/>
</g>
<!-- Node32&#45;&gt;Node33 -->
<g id="edge48" class="edge">
<title>Node32&#45;&gt;Node33</title>
<path fill="none" stroke="midnightblue" d="M1600.94,-376.13C1625.22,-373.78 1652.29,-371.23 1677.08,-369 1870.18,-351.66 2098.19,-333.12 2210.84,-324.09"/>
<polygon fill="midnightblue" stroke="midnightblue" points="1600.34,-372.67 1590.72,-377.12 1601.01,-379.64 1600.34,-372.67"/>
</g>
<!-- Node34 -->
<g id="node34" class="node">
<title>Node34</title>
<g id="a_node34"><a xlink:href="member__frontend_8h.html" target="_top" xlink:title=" ">
<polygon fill="white" stroke="black" points="1466.08,-168.5 1466.08,-198.5 1586.08,-198.5 1586.08,-168.5 1466.08,-168.5"/>
<text text-anchor="start" x="1474.08" y="-186.5" font-family="Helvetica,sans-Serif" font-size="10.00">src/node/rpc/member</text>
<text text-anchor="middle" x="1526.08" y="-175.5" font-family="Helvetica,sans-Serif" font-size="10.00">_frontend.h</text>
</a>
</g>
</g>
<!-- Node32&#45;&gt;Node34 -->
<g id="edge52" class="edge">
<title>Node32&#45;&gt;Node34</title>
<path fill="none" stroke="midnightblue" d="M1526.08,-364.86C1526.08,-325.28 1526.08,-233.64 1526.08,-198.53"/>
<polygon fill="midnightblue" stroke="midnightblue" points="1522.58,-364.95 1526.08,-374.95 1529.58,-364.95 1522.58,-364.95"/>
</g>
<!-- Node33&#45;&gt;Node12 -->
<g id="edge49" class="edge">
<title>Node33&#45;&gt;Node12</title>
<path fill="none" stroke="midnightblue" d="M2287.23,-292.25C2290.2,-274.71 2290.92,-251.32 2279.08,-235 2182.72,-102.24 2090.58,-150.33 1931.08,-112 1835.39,-89 1721.5,-76.92 1653.09,-71.26"/>
<polygon fill="midnightblue" stroke="midnightblue" points="2283.75,-291.8 2285.19,-302.3 2290.61,-293.2 2283.75,-291.8"/>
</g>
<!-- Node33&#45;&gt;Node20 -->
<g id="edge50" class="edge">
<title>Node33&#45;&gt;Node20</title>
<path fill="none" stroke="midnightblue" d="M2254.41,-296.34C2238.36,-284.21 2218.74,-269.39 2206.58,-260.19"/>
<polygon fill="midnightblue" stroke="midnightblue" points="2252.33,-299.16 2262.41,-302.4 2256.55,-293.57 2252.33,-299.16"/>
</g>
<!-- Node34&#45;&gt;Node12 -->
<g id="edge53" class="edge">
<title>Node34&#45;&gt;Node12</title>
<path fill="none" stroke="midnightblue" d="M1539.17,-159.58C1553.89,-133.82 1577.05,-93.3 1587.12,-75.67"/>
<polygon fill="midnightblue" stroke="midnightblue" points="1536.09,-157.92 1534.17,-168.34 1542.17,-161.39 1536.09,-157.92"/>
</g>
</g>
</svg>
