<?xml version="1.0" encoding="UTF-8" standalone="no"?>
<!DOCTYPE svg PUBLIC "-//W3C//DTD SVG 1.1//EN"
 "http://www.w3.org/Graphics/SVG/1.1/DTD/svg11.dtd">
<!-- Generated by graphviz version 2.43.0 (0)
 -->
<!-- Title: src/common/configuration.h Pages: 1 -->
<svg width="1939pt" height="609pt"
 viewBox="0.00 0.00 1938.77 609.00" xmlns="http://www.w3.org/2000/svg" xmlns:xlink="http://www.w3.org/1999/xlink">
<g id="graph0" class="graph" transform="scale(1 1) rotate(0) translate(4 605)">
<title>src/common/configuration.h</title>
<polygon fill="white" stroke="transparent" points="-4,4 -4,-605 1934.77,-605 1934.77,4 -4,4"/>
<!-- Node1 -->
<g id="node1" class="node">
<title>Node1</title>
<g id="a_node1"><a xlink:title=" ">
<polygon fill="#bfbfbf" stroke="black" points="407.5,-581.5 407.5,-600.5 559.5,-600.5 559.5,-581.5 407.5,-581.5"/>
<text text-anchor="middle" x="483.5" y="-588.5" font-family="Helvetica,sans-Serif" font-size="10.00">src/common/configuration.h</text>
</a>
</g>
</g>
<!-- Node2 -->
<g id="node2" class="node">
<title>Node2</title>
<g id="a_node2"><a xlink:href="host_2configuration_8h.html" target="_top" xlink:title=" ">
<polygon fill="white" stroke="black" points="209,-520 209,-539 340,-539 340,-520 209,-520"/>
<text text-anchor="middle" x="274.5" y="-527" font-family="Helvetica,sans-Serif" font-size="10.00">src/host/configuration.h</text>
</a>
</g>
</g>
<!-- Node1&#45;&gt;Node2 -->
<g id="edge1" class="edge">
<title>Node1&#45;&gt;Node2</title>
<path fill="none" stroke="midnightblue" d="M443.72,-578.68C403.11,-567.11 340.99,-549.43 304.39,-539.01"/>
<polygon fill="midnightblue" stroke="midnightblue" points="442.98,-582.1 453.56,-581.48 444.9,-575.37 442.98,-582.1"/>
</g>
<!-- Node4 -->
<g id="node4" class="node">
<title>Node4</title>
<g id="a_node4"><a xlink:href="frontend_8h.html" target="_top" xlink:title=" ">
<polygon fill="white" stroke="black" points="567,-386 567,-405 696,-405 696,-386 567,-386"/>
<text text-anchor="middle" x="631.5" y="-393" font-family="Helvetica,sans-Serif" font-size="10.00">src/node/rpc/frontend.h</text>
</a>
</g>
</g>
<!-- Node1&#45;&gt;Node4 -->
<g id="edge3" class="edge">
<title>Node1&#45;&gt;Node4</title>
<path fill="none" stroke="midnightblue" d="M493.85,-572.73C498.73,-564.42 504.56,-554.27 509.5,-545 532.31,-502.2 525.75,-483.66 557.5,-447 573.49,-428.54 597.7,-413.73 614.03,-405.03"/>
<polygon fill="midnightblue" stroke="midnightblue" points="490.75,-571.09 488.66,-581.47 496.77,-574.66 490.75,-571.09"/>
</g>
<!-- Node15 -->
<g id="node15" class="node">
<title>Node15</title>
<g id="a_node15"><a xlink:href="node__call__types_8h.html" target="_top" xlink:title=" ">
<polygon fill="white" stroke="black" points="376,-514.5 376,-544.5 501,-544.5 501,-514.5 376,-514.5"/>
<text text-anchor="start" x="384" y="-532.5" font-family="Helvetica,sans-Serif" font-size="10.00">src/node/rpc/node_call</text>
<text text-anchor="middle" x="438.5" y="-521.5" font-family="Helvetica,sans-Serif" font-size="10.00">_types.h</text>
</a>
</g>
</g>
<!-- Node1&#45;&gt;Node15 -->
<g id="edge21" class="edge">
<title>Node1&#45;&gt;Node15</title>
<path fill="none" stroke="midnightblue" d="M470.83,-573.25C463.98,-564.19 455.61,-553.12 449.11,-544.52"/>
<polygon fill="midnightblue" stroke="midnightblue" points="468.23,-575.61 477.05,-581.48 473.81,-571.39 468.23,-575.61"/>
</g>
<!-- Node22 -->
<g id="node22" class="node">
<title>Node22</title>
<g id="a_node22"><a xlink:href="node__interface_8h.html" target="_top" xlink:title=" ">
<polygon fill="white" stroke="black" points="1117,-520 1117,-539 1278,-539 1278,-520 1117,-520"/>
<text text-anchor="middle" x="1197.5" y="-527" font-family="Helvetica,sans-Serif" font-size="10.00">src/node/rpc/node_interface.h</text>
</a>
</g>
</g>
<!-- Node1&#45;&gt;Node22 -->
<g id="edge36" class="edge">
<title>Node1&#45;&gt;Node22</title>
<path fill="none" stroke="midnightblue" d="M569.77,-582.81C709.03,-571.21 981.39,-548.51 1116.92,-537.22"/>
<polygon fill="midnightblue" stroke="midnightblue" points="569.25,-579.34 559.57,-583.66 569.83,-586.32 569.25,-579.34"/>
</g>
<!-- Node3 -->
<g id="node3" class="node">
<title>Node3</title>
<g id="a_node3"><a xlink:href="host_2main_8cpp.html" target="_top" xlink:title=" ">
<polygon fill="white" stroke="black" points="214,-453 214,-472 317,-472 317,-453 214,-453"/>
<text text-anchor="middle" x="265.5" y="-460" font-family="Helvetica,sans-Serif" font-size="10.00">src/host/main.cpp</text>
</a>
</g>
</g>
<!-- Node2&#45;&gt;Node3 -->
<g id="edge2" class="edge">
<title>Node2&#45;&gt;Node3</title>
<path fill="none" stroke="midnightblue" d="M271.87,-509.54C270.16,-497.17 268.01,-481.62 266.69,-472.13"/>
<polygon fill="midnightblue" stroke="midnightblue" points="268.45,-510.31 273.29,-519.73 275.38,-509.35 268.45,-510.31"/>
</g>
<!-- Node5 -->
<g id="node5" class="node">
<title>Node5</title>
<g id="a_node5"><a xlink:href="acme__challenge__frontend_8h.html" target="_top" xlink:title=" ">
<polygon fill="white" stroke="black" points="865.5,-313.5 865.5,-343.5 1005.5,-343.5 1005.5,-313.5 865.5,-313.5"/>
<text text-anchor="start" x="873.5" y="-331.5" font-family="Helvetica,sans-Serif" font-size="10.00">src/node/acme_challenge</text>
<text text-anchor="middle" x="935.5" y="-320.5" font-family="Helvetica,sans-Serif" font-size="10.00">_frontend.h</text>
</a>
</g>
</g>
<!-- Node4&#45;&gt;Node5 -->
<g id="edge4" class="edge">
<title>Node4&#45;&gt;Node5</title>
<path fill="none" stroke="midnightblue" d="M681.43,-383.82C732.84,-372.83 813.2,-355.65 869.75,-343.56"/>
<polygon fill="midnightblue" stroke="midnightblue" points="680.6,-380.42 671.56,-385.94 682.07,-387.27 680.6,-380.42"/>
</g>
<!-- Node9 -->
<g id="node9" class="node">
<title>Node9</title>
<g id="a_node9"><a xlink:href="node__state_8h.html" target="_top" xlink:title=" ">
<polygon fill="white" stroke="black" points="784.5,-185 784.5,-204 908.5,-204 908.5,-185 784.5,-185"/>
<text text-anchor="middle" x="846.5" y="-192" font-family="Helvetica,sans-Serif" font-size="10.00">src/node/node_state.h</text>
</a>
</g>
</g>
<!-- Node4&#45;&gt;Node9 -->
<g id="edge12" class="edge">
<title>Node4&#45;&gt;Node9</title>
<path fill="none" stroke="midnightblue" d="M695.31,-384.11C741.3,-375.33 798.05,-361.41 814.5,-344 852.53,-303.74 849.7,-229.6 847.46,-204.26"/>
<polygon fill="midnightblue" stroke="midnightblue" points="694.57,-380.69 685.37,-385.96 695.85,-387.57 694.57,-380.69"/>
</g>
<!-- Node11 -->
<g id="node11" class="node">
<title>Node11</title>
<g id="a_node11"><a xlink:href="member__frontend_8h.html" target="_top" xlink:title=" ">
<polygon fill="white" stroke="black" points="471.5,-313.5 471.5,-343.5 591.5,-343.5 591.5,-313.5 471.5,-313.5"/>
<text text-anchor="start" x="479.5" y="-331.5" font-family="Helvetica,sans-Serif" font-size="10.00">src/node/rpc/member</text>
<text text-anchor="middle" x="531.5" y="-320.5" font-family="Helvetica,sans-Serif" font-size="10.00">_frontend.h</text>
</a>
</g>
</g>
<!-- Node4&#45;&gt;Node11 -->
<g id="edge13" class="edge">
<title>Node4&#45;&gt;Node11</title>
<path fill="none" stroke="midnightblue" d="M609.43,-380.15C592.69,-369.27 569.81,-354.4 553.18,-343.59"/>
<polygon fill="midnightblue" stroke="midnightblue" points="607.72,-383.22 618.01,-385.73 611.54,-377.35 607.72,-383.22"/>
</g>
<!-- Node12 -->
<g id="node12" class="node">
<title>Node12</title>
<g id="a_node12"><a xlink:href="node__frontend_8h.html" target="_top" xlink:title=" ">
<polygon fill="white" stroke="black" points="647.5,-319 647.5,-338 805.5,-338 805.5,-319 647.5,-319"/>
<text text-anchor="middle" x="726.5" y="-326" font-family="Helvetica,sans-Serif" font-size="10.00">src/node/rpc/node_frontend.h</text>
</a>
</g>
</g>
<!-- Node4&#45;&gt;Node12 -->
<g id="edge15" class="edge">
<title>Node4&#45;&gt;Node12</title>
<path fill="none" stroke="midnightblue" d="M652.81,-379.92C671.59,-367.07 698.32,-348.78 713.89,-338.13"/>
<polygon fill="midnightblue" stroke="midnightblue" points="650.59,-377.2 644.31,-385.73 654.54,-382.98 650.59,-377.2"/>
</g>
<!-- Node14 -->
<g id="node14" class="node">
<title>Node14</title>
<g id="a_node14"><a xlink:href="user__frontend_8h.html" target="_top" xlink:title=" ">
<polygon fill="white" stroke="black" points="468,-185 468,-204 623,-204 623,-185 468,-185"/>
<text text-anchor="middle" x="545.5" y="-192" font-family="Helvetica,sans-Serif" font-size="10.00">src/node/rpc/user_frontend.h</text>
</a>
</g>
</g>
<!-- Node4&#45;&gt;Node14 -->
<g id="edge19" class="edge">
<title>Node4&#45;&gt;Node14</title>
<path fill="none" stroke="midnightblue" d="M625.01,-376.29C618.99,-359.67 609.6,-334.5 600.5,-313 583.02,-271.73 559.48,-223.62 549.87,-204.24"/>
<polygon fill="midnightblue" stroke="midnightblue" points="621.77,-377.62 628.45,-385.85 628.36,-375.26 621.77,-377.62"/>
</g>
<!-- Node6 -->
<g id="node6" class="node">
<title>Node6</title>
<g id="a_node6"><a xlink:href="enclave_2enclave_8h.html" target="_top" xlink:title=" ">
<polygon fill="white" stroke="black" points="1014.5,-56.5 1014.5,-75.5 1136.5,-75.5 1136.5,-56.5 1014.5,-56.5"/>
<text text-anchor="middle" x="1075.5" y="-63.5" font-family="Helvetica,sans-Serif" font-size="10.00">src/enclave/enclave.h</text>
</a>
</g>
</g>
<!-- Node5&#45;&gt;Node6 -->
<g id="edge5" class="edge">
<title>Node5&#45;&gt;Node6</title>
<path fill="none" stroke="midnightblue" d="M980.71,-308.67C994.93,-300.77 1009.51,-290.27 1019.5,-277 1068.73,-211.57 1074.74,-106.18 1075.42,-75.58"/>
<polygon fill="midnightblue" stroke="midnightblue" points="978.71,-305.76 971.46,-313.49 981.95,-311.97 978.71,-305.76"/>
</g>
<!-- Node8 -->
<g id="node8" class="node">
<title>Node8</title>
<g id="a_node8"><a xlink:href="ccf__acme__client_8h.html" target="_top" xlink:title=" ">
<polygon fill="white" stroke="black" points="861,-252 861,-271 1010,-271 1010,-252 861,-252"/>
<text text-anchor="middle" x="935.5" y="-259" font-family="Helvetica,sans-Serif" font-size="10.00">src/node/ccf_acme_client.h</text>
</a>
</g>
</g>
<!-- Node5&#45;&gt;Node8 -->
<g id="edge7" class="edge">
<title>Node5&#45;&gt;Node8</title>
<path fill="none" stroke="midnightblue" d="M935.5,-303.25C935.5,-292.02 935.5,-279.38 935.5,-271.19"/>
<polygon fill="midnightblue" stroke="midnightblue" points="932,-303.4 935.5,-313.4 939,-303.4 932,-303.4"/>
</g>
<!-- Node7 -->
<g id="node7" class="node">
<title>Node7</title>
<g id="a_node7"><a xlink:href="enclave_2main_8cpp.html" target="_top" xlink:title=" ">
<polygon fill="white" stroke="black" points="1015.5,-0.5 1015.5,-19.5 1135.5,-19.5 1135.5,-0.5 1015.5,-0.5"/>
<text text-anchor="middle" x="1075.5" y="-7.5" font-family="Helvetica,sans-Serif" font-size="10.00">src/enclave/main.cpp</text>
</a>
</g>
</g>
<!-- Node6&#45;&gt;Node7 -->
<g id="edge6" class="edge">
<title>Node6&#45;&gt;Node7</title>
<path fill="none" stroke="midnightblue" d="M1075.5,-45.8C1075.5,-36.91 1075.5,-26.78 1075.5,-19.75"/>
<polygon fill="midnightblue" stroke="midnightblue" points="1072,-46.08 1075.5,-56.08 1079,-46.08 1072,-46.08"/>
</g>
<!-- Node8&#45;&gt;Node9 -->
<g id="edge8" class="edge">
<title>Node8&#45;&gt;Node9</title>
<path fill="none" stroke="midnightblue" d="M915.05,-245.57C897.49,-232.74 872.77,-214.69 858.31,-204.13"/>
<polygon fill="midnightblue" stroke="midnightblue" points="913.36,-248.66 923.5,-251.73 917.49,-243.01 913.36,-248.66"/>
</g>
<!-- Node9&#45;&gt;Node6 -->
<g id="edge9" class="edge">
<title>Node9&#45;&gt;Node6</title>
<path fill="none" stroke="midnightblue" d="M875.92,-180.73C897.68,-171.01 927.85,-156.98 953.5,-143 994.47,-120.67 1040.68,-90.41 1062.62,-75.72"/>
<polygon fill="midnightblue" stroke="midnightblue" points="874.29,-177.62 866.56,-184.87 877.13,-184.02 874.29,-177.62"/>
</g>
<!-- Node10 -->
<g id="node10" class="node">
<title>Node10</title>
<g id="a_node10"><a xlink:href="gov__effects_8h.html" target="_top" xlink:title=" ">
<polygon fill="white" stroke="black" points="800.5,-118 800.5,-137 944.5,-137 944.5,-118 800.5,-118"/>
<text text-anchor="middle" x="872.5" y="-125" font-family="Helvetica,sans-Serif" font-size="10.00">src/node/rpc/gov_effects.h</text>
</a>
</g>
</g>
<!-- Node9&#45;&gt;Node10 -->
<g id="edge10" class="edge">
<title>Node9&#45;&gt;Node10</title>
<path fill="none" stroke="midnightblue" d="M853.78,-175.29C858.78,-162.81 865.17,-146.81 869.05,-137.13"/>
<polygon fill="midnightblue" stroke="midnightblue" points="850.47,-174.15 850.01,-184.73 856.97,-176.75 850.47,-174.15"/>
</g>
<!-- Node10&#45;&gt;Node6 -->
<g id="edge11" class="edge">
<title>Node10&#45;&gt;Node6</title>
<path fill="none" stroke="midnightblue" d="M911.39,-115.1C950.84,-103.54 1010.99,-85.91 1046.47,-75.51"/>
<polygon fill="midnightblue" stroke="midnightblue" points="910.2,-111.8 901.58,-117.98 912.17,-118.52 910.2,-111.8"/>
</g>
<!-- Node11&#45;&gt;Node6 -->
<g id="edge14" class="edge">
<title>Node11&#45;&gt;Node6</title>
<path fill="none" stroke="midnightblue" d="M507.37,-306.21C477.06,-276.79 432.03,-222.42 458.5,-179 492.33,-123.5 526.1,-130.21 588.5,-112 666.75,-89.16 901.56,-75.27 1014.08,-69.75"/>
<polygon fill="midnightblue" stroke="midnightblue" points="505.03,-308.81 514.71,-313.13 509.84,-303.72 505.03,-308.81"/>
</g>
<!-- Node12&#45;&gt;Node6 -->
<g id="edge16" class="edge">
<title>Node12&#45;&gt;Node6</title>
<path fill="none" stroke="midnightblue" d="M703.31,-313.13C691.4,-304.33 678.05,-291.9 671.5,-277 665.96,-264.39 666.58,-258.87 671.5,-246 700.05,-171.33 721.3,-150.24 791.5,-112 828.93,-91.61 942.77,-78.4 1014.44,-71.86"/>
<polygon fill="midnightblue" stroke="midnightblue" points="701.39,-316.06 711.6,-318.88 705.38,-310.31 701.39,-316.06"/>
</g>
<!-- Node13 -->
<g id="node13" class="node">
<title>Node13</title>
<g id="a_node13"><a xlink:href="jwt__key__auto__refresh_8h.html" target="_top" xlink:title=" ">
<polygon fill="white" stroke="black" points="680,-246.5 680,-276.5 805,-276.5 805,-246.5 680,-246.5"/>
<text text-anchor="start" x="688" y="-264.5" font-family="Helvetica,sans-Serif" font-size="10.00">src/node/jwt_key_auto</text>
<text text-anchor="middle" x="742.5" y="-253.5" font-family="Helvetica,sans-Serif" font-size="10.00">_refresh.h</text>
</a>
</g>
</g>
<!-- Node12&#45;&gt;Node13 -->
<g id="edge17" class="edge">
<title>Node12&#45;&gt;Node13</title>
<path fill="none" stroke="midnightblue" d="M731.12,-308.74C733.64,-298.49 736.72,-286 739.03,-276.59"/>
<polygon fill="midnightblue" stroke="midnightblue" points="727.65,-308.19 728.66,-318.73 734.45,-309.86 727.65,-308.19"/>
</g>
<!-- Node13&#45;&gt;Node9 -->
<g id="edge18" class="edge">
<title>Node13&#45;&gt;Node9</title>
<path fill="none" stroke="midnightblue" d="M773.74,-240.97C793.46,-228.65 817.95,-213.35 832.89,-204.01"/>
<polygon fill="midnightblue" stroke="midnightblue" points="771.69,-238.13 765.07,-246.4 775.4,-244.06 771.69,-238.13"/>
</g>
<!-- Node14&#45;&gt;Node6 -->
<g id="edge20" class="edge">
<title>Node14&#45;&gt;Node6</title>
<path fill="none" stroke="midnightblue" d="M558.44,-177.01C574.62,-157.73 604.29,-126.58 637.5,-112 703.56,-83 910.31,-72.3 1014.38,-68.68"/>
<polygon fill="midnightblue" stroke="midnightblue" points="555.58,-174.97 551.98,-184.94 561.01,-179.39 555.58,-174.97"/>
</g>
<!-- Node16 -->
<g id="node16" class="node">
<title>Node16</title>
<g id="a_node16"><a xlink:href="call__types_8h.html" target="_top" xlink:title=" ">
<polygon fill="white" stroke="black" points="335,-453 335,-472 472,-472 472,-453 335,-453"/>
<text text-anchor="middle" x="403.5" y="-460" font-family="Helvetica,sans-Serif" font-size="10.00">src/node/rpc/call_types.h</text>
</a>
</g>
</g>
<!-- Node15&#45;&gt;Node16 -->
<g id="edge22" class="edge">
<title>Node15&#45;&gt;Node16</title>
<path fill="none" stroke="midnightblue" d="M426,-505.29C419.82,-493.8 412.72,-480.63 408.18,-472.19"/>
<polygon fill="midnightblue" stroke="midnightblue" points="423.08,-507.25 430.91,-514.4 429.25,-503.93 423.08,-507.25"/>
</g>
<!-- Node16&#45;&gt;Node11 -->
<g id="edge28" class="edge">
<title>Node16&#45;&gt;Node11</title>
<path fill="none" stroke="midnightblue" d="M418.86,-445.66C444,-419.74 493.53,-368.66 517.65,-343.78"/>
<polygon fill="midnightblue" stroke="midnightblue" points="416.35,-443.22 411.9,-452.84 421.37,-448.1 416.35,-443.22"/>
</g>
<!-- Node17 -->
<g id="node17" class="node">
<title>Node17</title>
<g id="a_node17"><a xlink:href="nobuiltins_8cpp.html" target="_top" xlink:title=" ">
<polygon fill="white" stroke="black" points="0,-313.5 0,-343.5 135,-343.5 135,-313.5 0,-313.5"/>
<text text-anchor="start" x="8" y="-331.5" font-family="Helvetica,sans-Serif" font-size="10.00">samples/apps/nobuiltins</text>
<text text-anchor="middle" x="67.5" y="-320.5" font-family="Helvetica,sans-Serif" font-size="10.00">/nobuiltins.cpp</text>
</a>
</g>
</g>
<!-- Node16&#45;&gt;Node17 -->
<g id="edge23" class="edge">
<title>Node16&#45;&gt;Node17</title>
<path fill="none" stroke="midnightblue" d="M351.42,-450.78C313.54,-442.17 261.4,-428.61 217.5,-411 169.91,-391.91 118.14,-361.4 89.57,-343.63"/>
<polygon fill="midnightblue" stroke="midnightblue" points="350.7,-454.21 361.22,-452.97 352.23,-447.38 350.7,-454.21"/>
</g>
<!-- Node18 -->
<g id="node18" class="node">
<title>Node18</title>
<g id="a_node18"><a xlink:href="common__endpoint__registry_8cpp.html" target="_top" xlink:title=" ">
<polygon fill="white" stroke="black" points="153.5,-313.5 153.5,-343.5 281.5,-343.5 281.5,-313.5 153.5,-313.5"/>
<text text-anchor="start" x="161.5" y="-331.5" font-family="Helvetica,sans-Serif" font-size="10.00">src/endpoints/common</text>
<text text-anchor="middle" x="217.5" y="-320.5" font-family="Helvetica,sans-Serif" font-size="10.00">_endpoint_registry.cpp</text>
</a>
</g>
</g>
<!-- Node16&#45;&gt;Node18 -->
<g id="edge24" class="edge">
<title>Node16&#45;&gt;Node18</title>
<path fill="none" stroke="midnightblue" d="M347.7,-450.87C305.34,-441.7 251.84,-427.37 236.5,-411 219.21,-392.56 216.65,-361.53 216.78,-343.55"/>
<polygon fill="midnightblue" stroke="midnightblue" points="347.14,-454.33 357.65,-452.98 348.59,-447.49 347.14,-454.33"/>
</g>
<!-- Node19 -->
<g id="node19" class="node">
<title>Node19</title>
<g id="a_node19"><a xlink:href="wrap_8cpp.html" target="_top" xlink:title=" ">
<polygon fill="white" stroke="black" points="1208,-319 1208,-338 1297,-338 1297,-319 1208,-319"/>
<text text-anchor="middle" x="1252.5" y="-326" font-family="Helvetica,sans-Serif" font-size="10.00">src/js/wrap.cpp</text>
</a>
</g>
</g>
<!-- Node16&#45;&gt;Node19 -->
<g id="edge25" class="edge">
<title>Node16&#45;&gt;Node19</title>
<path fill="none" stroke="midnightblue" d="M475.43,-451.54C536.86,-442.54 627.41,-428.1 705.5,-411 756.79,-399.77 767.95,-389.96 819.5,-380 959.95,-352.87 1129.02,-338.27 1207.91,-332.49"/>
<polygon fill="midnightblue" stroke="midnightblue" points="474.84,-448.09 465.44,-452.99 475.84,-455.01 474.84,-448.09"/>
</g>
<!-- Node20 -->
<g id="node20" class="node">
<title>Node20</title>
<g id="a_node20"><a xlink:href="resharing_8h.html" target="_top" xlink:title=" ">
<polygon fill="white" stroke="black" points="337.5,-319 337.5,-338 453.5,-338 453.5,-319 337.5,-319"/>
<text text-anchor="middle" x="395.5" y="-326" font-family="Helvetica,sans-Serif" font-size="10.00">src/node/resharing.h</text>
</a>
</g>
</g>
<!-- Node16&#45;&gt;Node20 -->
<g id="edge26" class="edge">
<title>Node16&#45;&gt;Node20</title>
<path fill="none" stroke="midnightblue" d="M403.94,-442.46C404.16,-425.92 404.1,-401.35 402.5,-380 401.39,-365.17 398.72,-348.06 397.02,-338.04"/>
<polygon fill="midnightblue" stroke="midnightblue" points="400.43,-442.86 403.75,-452.92 407.43,-442.99 400.43,-442.86"/>
</g>
<!-- Node21 -->
<g id="node21" class="node">
<title>Node21</title>
<g id="a_node21"><a xlink:href="serialization_8h.html" target="_top" xlink:title=" ">
<polygon fill="white" stroke="black" points="245.5,-386 245.5,-405 393.5,-405 393.5,-386 245.5,-386"/>
<text text-anchor="middle" x="319.5" y="-393" font-family="Helvetica,sans-Serif" font-size="10.00">src/node/rpc/serialization.h</text>
</a>
</g>
</g>
<!-- Node16&#45;&gt;Node21 -->
<g id="edge29" class="edge">
<title>Node16&#45;&gt;Node21</title>
<path fill="none" stroke="midnightblue" d="M384.2,-446.57C367.62,-433.74 344.29,-415.69 330.65,-405.13"/>
<polygon fill="midnightblue" stroke="midnightblue" points="382.12,-449.38 392.17,-452.73 386.4,-443.85 382.12,-449.38"/>
</g>
<!-- Node20&#45;&gt;Node9 -->
<g id="edge27" class="edge">
<title>Node20&#45;&gt;Node9</title>
<path fill="none" stroke="midnightblue" d="M442.92,-316.65C482.45,-307.26 540.08,-292.73 589.5,-277 626.63,-265.19 634.53,-258.3 671.5,-246 720.71,-229.63 778.69,-213.51 814.01,-204.04"/>
<polygon fill="midnightblue" stroke="midnightblue" points="441.96,-313.29 433.03,-318.99 443.57,-320.1 441.96,-313.29"/>
</g>
<!-- Node21&#45;&gt;Node9 -->
<g id="edge32" class="edge">
<title>Node21&#45;&gt;Node9</title>
<path fill="none" stroke="midnightblue" d="M316.01,-375.63C313.79,-357.39 313.66,-330.09 328.5,-313 387.73,-244.75 659.91,-212.13 784.24,-200.59"/>
<polygon fill="midnightblue" stroke="midnightblue" points="312.57,-376.28 317.55,-385.64 319.49,-375.22 312.57,-376.28"/>
</g>
<!-- Node21&#45;&gt;Node11 -->
<g id="edge34" class="edge">
<title>Node21&#45;&gt;Node11</title>
<path fill="none" stroke="midnightblue" d="M357.28,-382.92C393.23,-371.9 447.37,-355.29 485.75,-343.53"/>
<polygon fill="midnightblue" stroke="midnightblue" points="356.19,-379.59 347.65,-385.87 358.24,-386.28 356.19,-379.59"/>
</g>
<!-- Node21&#45;&gt;Node12 -->
<g id="edge35" class="edge">
<title>Node21&#45;&gt;Node12</title>
<path fill="none" stroke="midnightblue" d="M383.05,-384.35C462.86,-371.6 598.36,-349.96 673.08,-338.03"/>
<polygon fill="midnightblue" stroke="midnightblue" points="382.45,-380.9 373.13,-385.94 383.55,-387.81 382.45,-380.9"/>
</g>
<!-- Node21&#45;&gt;Node17 -->
<g id="edge30" class="edge">
<title>Node21&#45;&gt;Node17</title>
<path fill="none" stroke="midnightblue" d="M276.5,-383.41C233.83,-372.4 168.3,-355.5 122.01,-343.56"/>
<polygon fill="midnightblue" stroke="midnightblue" points="275.74,-386.83 286.3,-385.94 277.49,-380.05 275.74,-386.83"/>
</g>
<!-- Node21&#45;&gt;Node18 -->
<g id="edge31" class="edge">
<title>Node21&#45;&gt;Node18</title>
<path fill="none" stroke="midnightblue" d="M296.99,-380.15C279.92,-369.27 256.58,-354.4 239.61,-343.59"/>
<polygon fill="midnightblue" stroke="midnightblue" points="295.43,-383.31 305.74,-385.73 299.19,-377.41 295.43,-383.31"/>
</g>
<!-- Node21&#45;&gt;Node20 -->
<g id="edge33" class="edge">
<title>Node21&#45;&gt;Node20</title>
<path fill="none" stroke="midnightblue" d="M337.37,-379.21C352.35,-366.41 373.18,-348.59 385.41,-338.13"/>
<polygon fill="midnightblue" stroke="midnightblue" points="335.07,-376.57 329.75,-385.73 339.62,-381.89 335.07,-376.57"/>
</g>
<!-- Node22&#45;&gt;Node11 -->
<g id="edge59" class="edge">
<title>Node22&#45;&gt;Node11</title>
<path fill="none" stroke="midnightblue" d="M1106.65,-526.78C940.3,-522.85 599.89,-510.86 557.5,-478 516.33,-446.09 523.46,-374.06 528.67,-343.56"/>
<polygon fill="midnightblue" stroke="midnightblue" points="1106.79,-530.29 1116.87,-527.02 1106.95,-523.29 1106.79,-530.29"/>
</g>
<!-- Node22&#45;&gt;Node12 -->
<g id="edge63" class="edge">
<title>Node22&#45;&gt;Node12</title>
<path fill="none" stroke="midnightblue" d="M1125.11,-518.49C1012.14,-501.45 801.38,-463.48 748.5,-411 728.32,-390.97 726.09,-354.5 726.19,-338"/>
<polygon fill="midnightblue" stroke="midnightblue" points="1124.65,-521.96 1135.06,-519.98 1125.69,-515.04 1124.65,-521.96"/>
</g>
<!-- Node22&#45;&gt;Node19 -->
<g id="edge37" class="edge">
<title>Node22&#45;&gt;Node19</title>
<path fill="none" stroke="midnightblue" d="M1267.1,-518.34C1371.43,-501.53 1560.45,-464.39 1600.5,-411 1608.77,-399.98 1609.52,-390.42 1600.5,-380 1561.75,-335.22 1381.88,-329.31 1297.03,-329.07"/>
<polygon fill="midnightblue" stroke="midnightblue" points="1266.29,-514.92 1256.97,-519.95 1267.39,-521.84 1266.29,-514.92"/>
</g>
<!-- Node23 -->
<g id="node23" class="node">
<title>Node23</title>
<g id="a_node23"><a xlink:href="wrap_8h.html" target="_top" xlink:title=" ">
<polygon fill="white" stroke="black" points="1158.5,-453 1158.5,-472 1236.5,-472 1236.5,-453 1158.5,-453"/>
<text text-anchor="middle" x="1197.5" y="-460" font-family="Helvetica,sans-Serif" font-size="10.00">src/js/wrap.h</text>
</a>
</g>
</g>
<!-- Node22&#45;&gt;Node23 -->
<g id="edge38" class="edge">
<title>Node22&#45;&gt;Node23</title>
<path fill="none" stroke="midnightblue" d="M1197.5,-509.54C1197.5,-497.17 1197.5,-481.62 1197.5,-472.13"/>
<polygon fill="midnightblue" stroke="midnightblue" points="1194,-509.73 1197.5,-519.73 1201,-509.73 1194,-509.73"/>
</g>
<!-- Node30 -->
<g id="node30" class="node">
<title>Node30</title>
<g id="a_node30"><a xlink:href="historical__queries_8h.html" target="_top" xlink:title=" ">
<polygon fill="white" stroke="black" points="1701.5,-179.5 1701.5,-209.5 1807.5,-209.5 1807.5,-179.5 1701.5,-179.5"/>
<text text-anchor="start" x="1709.5" y="-197.5" font-family="Helvetica,sans-Serif" font-size="10.00">src/node/historical</text>
<text text-anchor="middle" x="1754.5" y="-186.5" font-family="Helvetica,sans-Serif" font-size="10.00">_queries.h</text>
</a>
</g>
</g>
<!-- Node22&#45;&gt;Node30 -->
<g id="edge53" class="edge">
<title>Node22&#45;&gt;Node30</title>
<path fill="none" stroke="midnightblue" d="M1288.37,-525.58C1446.25,-518.02 1754.5,-491.13 1754.5,-396.5 1754.5,-396.5 1754.5,-396.5 1754.5,-327.5 1754.5,-284.65 1754.5,-233.97 1754.5,-209.76"/>
<polygon fill="midnightblue" stroke="midnightblue" points="1288.02,-522.09 1278.19,-526.05 1288.35,-529.09 1288.02,-522.09"/>
</g>
<!-- Node32 -->
<g id="node32" class="node">
<title>Node32</title>
<g id="a_node32"><a xlink:href="node__configuration__subsystem_8h.html" target="_top" xlink:title=" ">
<polygon fill="white" stroke="black" points="566.5,-447.5 566.5,-477.5 720.5,-477.5 720.5,-447.5 566.5,-447.5"/>
<text text-anchor="start" x="574.5" y="-465.5" font-family="Helvetica,sans-Serif" font-size="10.00">src/node/node_configuration</text>
<text text-anchor="middle" x="643.5" y="-454.5" font-family="Helvetica,sans-Serif" font-size="10.00">_subsystem.h</text>
</a>
</g>
</g>
<!-- Node22&#45;&gt;Node32 -->
<g id="edge57" class="edge">
<title>Node22&#45;&gt;Node32</title>
<path fill="none" stroke="midnightblue" d="M1106.65,-519.93C1013.18,-510.8 863.44,-495.29 734.5,-478 730.06,-477.4 725.5,-476.77 720.91,-476.1"/>
<polygon fill="midnightblue" stroke="midnightblue" points="1106.35,-523.42 1116.64,-520.9 1107.03,-516.45 1106.35,-523.42"/>
</g>
<!-- Node33 -->
<g id="node33" class="node">
<title>Node33</title>
<g id="a_node33"><a xlink:href="network__identity__subsystem_8h.html" target="_top" xlink:title=" ">
<polygon fill="white" stroke="black" points="1783,-447.5 1783,-477.5 1910,-477.5 1910,-447.5 1783,-447.5"/>
<text text-anchor="start" x="1791" y="-465.5" font-family="Helvetica,sans-Serif" font-size="10.00">src/node/rpc/network</text>
<text text-anchor="middle" x="1846.5" y="-454.5" font-family="Helvetica,sans-Serif" font-size="10.00">_identity_subsystem.h</text>
</a>
</g>
</g>
<!-- Node22&#45;&gt;Node33 -->
<g id="edge60" class="edge">
<title>Node22&#45;&gt;Node33</title>
<path fill="none" stroke="midnightblue" d="M1288.13,-523.17C1401,-515.91 1599.57,-501.12 1768.5,-478 1773.14,-477.37 1777.92,-476.64 1782.73,-475.87"/>
<polygon fill="midnightblue" stroke="midnightblue" points="1287.91,-519.68 1278.15,-523.8 1288.35,-526.66 1287.91,-519.68"/>
</g>
<!-- Node35 -->
<g id="node35" class="node">
<title>Node35</title>
<g id="a_node35"><a xlink:href="node__operation_8h.html" target="_top" xlink:title=" ">
<polygon fill="white" stroke="black" points="1562.5,-252 1562.5,-271 1726.5,-271 1726.5,-252 1562.5,-252"/>
<text text-anchor="middle" x="1644.5" y="-259" font-family="Helvetica,sans-Serif" font-size="10.00">src/node/rpc/node_operation.h</text>
</a>
</g>
</g>
<!-- Node22&#45;&gt;Node35 -->
<g id="edge64" class="edge">
<title>Node22&#45;&gt;Node35</title>
<path fill="none" stroke="midnightblue" d="M1288.08,-521.16C1418.15,-508.4 1647.22,-476.96 1692.5,-411 1724.4,-364.54 1672.77,-295.54 1652.29,-271.3"/>
<polygon fill="midnightblue" stroke="midnightblue" points="1287.74,-517.67 1278.12,-522.11 1288.41,-524.64 1287.74,-517.67"/>
</g>
<!-- Node23&#45;&gt;Node6 -->
<g id="edge40" class="edge">
<title>Node23&#45;&gt;Node6</title>
<path fill="none" stroke="midnightblue" d="M1246.7,-458.92C1349.07,-453.06 1577.41,-437.16 1600.5,-411 1609.62,-400.67 1607.31,-391.98 1600.5,-380 1491.35,-187.85 1212.37,-101.19 1112.09,-75.55"/>
<polygon fill="midnightblue" stroke="midnightblue" points="1246.4,-455.43 1236.62,-459.49 1246.8,-462.42 1246.4,-455.43"/>
</g>
<!-- Node23&#45;&gt;Node9 -->
<g id="edge51" class="edge">
<title>Node23&#45;&gt;Node9</title>
<path fill="none" stroke="midnightblue" d="M1148.26,-458.49C1050.8,-452.02 840.85,-435.39 819.5,-411 810.43,-400.63 810.69,-390.59 819.5,-380 875.88,-312.26 955.64,-409.59 1014.5,-344 1043.63,-311.54 1045.66,-280.89 1019.5,-246 1005.09,-226.79 945.76,-212.46 900.56,-204.06"/>
<polygon fill="midnightblue" stroke="midnightblue" points="1148.24,-461.99 1158.45,-459.15 1148.7,-455.01 1148.24,-461.99"/>
</g>
<!-- Node23&#45;&gt;Node11 -->
<g id="edge52" class="edge">
<title>Node23&#45;&gt;Node11</title>
<path fill="none" stroke="midnightblue" d="M1147.96,-460.7C1005.93,-457.96 604.53,-447.09 558.5,-411 537.85,-394.81 532.83,-362.36 531.71,-343.66"/>
<polygon fill="midnightblue" stroke="midnightblue" points="1148.06,-464.2 1158.12,-460.89 1148.19,-457.2 1148.06,-464.2"/>
</g>
<!-- Node23&#45;&gt;Node19 -->
<g id="edge50" class="edge">
<title>Node23&#45;&gt;Node19</title>
<path fill="none" stroke="midnightblue" d="M1246.75,-458.63C1345.8,-452.36 1561.59,-435.96 1583.5,-411 1592.59,-400.64 1592.48,-390.45 1583.5,-380 1547.09,-337.61 1378.69,-330.41 1297.08,-329.45"/>
<polygon fill="midnightblue" stroke="midnightblue" points="1246.44,-455.14 1236.68,-459.26 1246.88,-462.13 1246.44,-455.14"/>
</g>
<!-- Node24 -->
<g id="node24" class="node">
<title>Node24</title>
<g id="a_node24"><a xlink:href="js__generic__base_8cpp.html" target="_top" xlink:title=" ">
<polygon fill="white" stroke="black" points="828.5,-380.5 828.5,-410.5 946.5,-410.5 946.5,-380.5 828.5,-380.5"/>
<text text-anchor="start" x="836.5" y="-398.5" font-family="Helvetica,sans-Serif" font-size="10.00">src/apps/js_generic</text>
<text text-anchor="middle" x="887.5" y="-387.5" font-family="Helvetica,sans-Serif" font-size="10.00">/js_generic_base.cpp</text>
</a>
</g>
</g>
<!-- Node23&#45;&gt;Node24 -->
<g id="edge39" class="edge">
<title>Node23&#45;&gt;Node24</title>
<path fill="none" stroke="midnightblue" d="M1148.09,-451.25C1099.17,-441.1 1022.15,-425.06 955.5,-411 952.67,-410.4 949.76,-409.79 946.83,-409.17"/>
<polygon fill="midnightblue" stroke="midnightblue" points="1147.58,-454.72 1158.09,-453.33 1149.01,-447.87 1147.58,-454.72"/>
</g>
<!-- Node25 -->
<g id="node25" class="node">
<title>Node25</title>
<g id="a_node25"><a xlink:href="js_2consensus_8cpp.html" target="_top" xlink:title=" ">
<polygon fill="white" stroke="black" points="964.5,-386 964.5,-405 1080.5,-405 1080.5,-386 964.5,-386"/>
<text text-anchor="middle" x="1022.5" y="-393" font-family="Helvetica,sans-Serif" font-size="10.00">src/js/consensus.cpp</text>
</a>
</g>
</g>
<!-- Node23&#45;&gt;Node25 -->
<g id="edge41" class="edge">
<title>Node23&#45;&gt;Node25</title>
<path fill="none" stroke="midnightblue" d="M1164.57,-449.27C1129.84,-436.37 1076.01,-416.38 1045.56,-405.06"/>
<polygon fill="midnightblue" stroke="midnightblue" points="1163.67,-452.67 1174.26,-452.87 1166.11,-446.11 1163.67,-452.67"/>
</g>
<!-- Node26 -->
<g id="node26" class="node">
<title>Node26</title>
<g id="a_node26"><a xlink:href="conv_8cpp.html" target="_top" xlink:title=" ">
<polygon fill="white" stroke="black" points="1098.5,-386 1098.5,-405 1186.5,-405 1186.5,-386 1098.5,-386"/>
<text text-anchor="middle" x="1142.5" y="-393" font-family="Helvetica,sans-Serif" font-size="10.00">src/js/conv.cpp</text>
</a>
</g>
</g>
<!-- Node23&#45;&gt;Node26 -->
<g id="edge43" class="edge">
<title>Node23&#45;&gt;Node26</title>
<path fill="none" stroke="midnightblue" d="M1183.34,-444.77C1172.62,-432.1 1158.32,-415.2 1149.8,-405.13"/>
<polygon fill="midnightblue" stroke="midnightblue" points="1180.95,-447.36 1190.08,-452.73 1186.29,-442.84 1180.95,-447.36"/>
</g>
<!-- Node27 -->
<g id="node27" class="node">
<title>Node27</title>
<g id="a_node27"><a xlink:href="js_2crypto_8cpp.html" target="_top" xlink:title=" ">
<polygon fill="white" stroke="black" points="1204.5,-386 1204.5,-405 1300.5,-405 1300.5,-386 1204.5,-386"/>
<text text-anchor="middle" x="1252.5" y="-393" font-family="Helvetica,sans-Serif" font-size="10.00">src/js/crypto.cpp</text>
</a>
</g>
</g>
<!-- Node23&#45;&gt;Node27 -->
<g id="edge45" class="edge">
<title>Node23&#45;&gt;Node27</title>
<path fill="none" stroke="midnightblue" d="M1211.66,-444.77C1222.38,-432.1 1236.68,-415.2 1245.2,-405.13"/>
<polygon fill="midnightblue" stroke="midnightblue" points="1208.71,-442.84 1204.92,-452.73 1214.05,-447.36 1208.71,-442.84"/>
</g>
<!-- Node28 -->
<g id="node28" class="node">
<title>Node28</title>
<g id="a_node28"><a xlink:href="js_2historical_8cpp.html" target="_top" xlink:title=" ">
<polygon fill="white" stroke="black" points="1464.5,-386 1464.5,-405 1574.5,-405 1574.5,-386 1464.5,-386"/>
<text text-anchor="middle" x="1519.5" y="-393" font-family="Helvetica,sans-Serif" font-size="10.00">src/js/historical.cpp</text>
</a>
</g>
</g>
<!-- Node23&#45;&gt;Node28 -->
<g id="edge47" class="edge">
<title>Node23&#45;&gt;Node28</title>
<path fill="none" stroke="midnightblue" d="M1246.87,-452.29C1298.86,-442.48 1383.07,-426.29 1455.5,-411 1464.31,-409.14 1473.77,-407.05 1482.65,-405.04"/>
<polygon fill="midnightblue" stroke="midnightblue" points="1246.09,-448.87 1236.91,-454.16 1247.39,-455.75 1246.09,-448.87"/>
</g>
<!-- Node29 -->
<g id="node29" class="node">
<title>Node29</title>
<g id="a_node29"><a xlink:href="openenclave_8cpp.html" target="_top" xlink:title=" ">
<polygon fill="white" stroke="black" points="1318.5,-386 1318.5,-405 1446.5,-405 1446.5,-386 1318.5,-386"/>
<text text-anchor="middle" x="1382.5" y="-393" font-family="Helvetica,sans-Serif" font-size="10.00">src/js/openenclave.cpp</text>
</a>
</g>
</g>
<!-- Node23&#45;&gt;Node29 -->
<g id="edge49" class="edge">
<title>Node23&#45;&gt;Node29</title>
<path fill="none" stroke="midnightblue" d="M1231.84,-449.44C1268.54,-436.54 1325.79,-416.42 1358.13,-405.06"/>
<polygon fill="midnightblue" stroke="midnightblue" points="1230.34,-446.25 1222.07,-452.87 1232.66,-452.86 1230.34,-446.25"/>
</g>
<!-- Node25&#45;&gt;Node19 -->
<g id="edge42" class="edge">
<title>Node25&#45;&gt;Node19</title>
<path fill="none" stroke="midnightblue" d="M1062.87,-383.09C1108.37,-370.23 1181.31,-349.62 1222.2,-338.06"/>
<polygon fill="midnightblue" stroke="midnightblue" points="1061.71,-379.78 1053.04,-385.87 1063.62,-386.52 1061.71,-379.78"/>
</g>
<!-- Node26&#45;&gt;Node19 -->
<g id="edge44" class="edge">
<title>Node26&#45;&gt;Node19</title>
<path fill="none" stroke="midnightblue" d="M1166,-380.62C1187.79,-367.74 1219.54,-348.98 1237.9,-338.13"/>
<polygon fill="midnightblue" stroke="midnightblue" points="1164.16,-377.63 1157.34,-385.73 1167.72,-383.66 1164.16,-377.63"/>
</g>
<!-- Node27&#45;&gt;Node19 -->
<g id="edge46" class="edge">
<title>Node27&#45;&gt;Node19</title>
<path fill="none" stroke="midnightblue" d="M1252.5,-375.54C1252.5,-363.17 1252.5,-347.62 1252.5,-338.13"/>
<polygon fill="midnightblue" stroke="midnightblue" points="1249,-375.73 1252.5,-385.73 1256,-375.73 1249,-375.73"/>
</g>
<!-- Node28&#45;&gt;Node19 -->
<g id="edge48" class="edge">
<title>Node28&#45;&gt;Node19</title>
<path fill="none" stroke="midnightblue" d="M1474.58,-383.56C1421.94,-370.75 1335.82,-349.78 1287.76,-338.08"/>
<polygon fill="midnightblue" stroke="midnightblue" points="1473.78,-386.97 1484.32,-385.94 1475.43,-380.17 1473.78,-386.97"/>
</g>
<!-- Node30&#45;&gt;Node6 -->
<g id="edge54" class="edge">
<title>Node30&#45;&gt;Node6</title>
<path fill="none" stroke="midnightblue" d="M1755.95,-169.33C1755.62,-150.7 1751.78,-125.85 1735.5,-112 1690.5,-73.72 1291.51,-67.9 1136.6,-67.1"/>
<polygon fill="midnightblue" stroke="midnightblue" points="1752.45,-169.4 1755.8,-179.45 1759.45,-169.5 1752.45,-169.4"/>
</g>
<!-- Node31 -->
<g id="node31" class="node">
<title>Node31</title>
<g id="a_node31"><a xlink:href="historical__transaction__fetcher_8h.html" target="_top" xlink:title=" ">
<polygon fill="white" stroke="black" points="1601,-112.5 1601,-142.5 1726,-142.5 1726,-112.5 1601,-112.5"/>
<text text-anchor="start" x="1609" y="-130.5" font-family="Helvetica,sans-Serif" font-size="10.00">src/indexing/historical</text>
<text text-anchor="middle" x="1663.5" y="-119.5" font-family="Helvetica,sans-Serif" font-size="10.00">_transaction_fetcher.h</text>
</a>
</g>
</g>
<!-- Node30&#45;&gt;Node31 -->
<g id="edge55" class="edge">
<title>Node30&#45;&gt;Node31</title>
<path fill="none" stroke="midnightblue" d="M1726.43,-173.45C1712.43,-163.45 1695.84,-151.6 1683.21,-142.58"/>
<polygon fill="midnightblue" stroke="midnightblue" points="1724.58,-176.43 1734.75,-179.4 1728.65,-170.74 1724.58,-176.43"/>
</g>
<!-- Node31&#45;&gt;Node6 -->
<g id="edge56" class="edge">
<title>Node31&#45;&gt;Node6</title>
<path fill="none" stroke="midnightblue" d="M1590.96,-112.64C1589.46,-112.42 1587.97,-112.2 1586.5,-112 1424.83,-89.71 1232.78,-76.28 1136.68,-70.44"/>
<polygon fill="midnightblue" stroke="midnightblue" points="1590.55,-116.11 1600.97,-114.19 1591.63,-109.2 1590.55,-116.11"/>
</g>
<!-- Node32&#45;&gt;Node4 -->
<g id="edge58" class="edge">
<title>Node32&#45;&gt;Node4</title>
<path fill="none" stroke="midnightblue" d="M639.02,-437.25C636.95,-426.02 634.62,-413.38 633.11,-405.19"/>
<polygon fill="midnightblue" stroke="midnightblue" points="635.64,-438.2 640.9,-447.4 642.52,-436.93 635.64,-438.2"/>
</g>
<!-- Node33&#45;&gt;Node6 -->
<g id="edge61" class="edge">
<title>Node33&#45;&gt;Node6</title>
<path fill="none" stroke="midnightblue" d="M1880.77,-441.6C1892.09,-433.46 1903.76,-423.08 1911.5,-411 1931.56,-379.68 1930.5,-366.69 1930.5,-329.5 1930.5,-329.5 1930.5,-329.5 1930.5,-193.5 1930.5,-108.51 1839.79,-133.28 1757.5,-112 1641.04,-81.88 1281.27,-71.24 1136.63,-68.12"/>
<polygon fill="midnightblue" stroke="midnightblue" points="1878.56,-438.87 1872.25,-447.39 1882.49,-444.67 1878.56,-438.87"/>
</g>
<!-- Node34 -->
<g id="node34" class="node">
<title>Node34</title>
<g id="a_node34"><a xlink:href="historical__queries__adapter_8cpp.html" target="_top" xlink:title=" ">
<polygon fill="white" stroke="black" points="1782.5,-380.5 1782.5,-410.5 1902.5,-410.5 1902.5,-380.5 1782.5,-380.5"/>
<text text-anchor="start" x="1790.5" y="-398.5" font-family="Helvetica,sans-Serif" font-size="10.00">src/node/historical</text>
<text text-anchor="middle" x="1842.5" y="-387.5" font-family="Helvetica,sans-Serif" font-size="10.00">_queries_adapter.cpp</text>
</a>
</g>
</g>
<!-- Node33&#45;&gt;Node34 -->
<g id="edge62" class="edge">
<title>Node33&#45;&gt;Node34</title>
<path fill="none" stroke="midnightblue" d="M1845.02,-437.4C1844.46,-428.37 1843.85,-418.41 1843.37,-410.58"/>
<polygon fill="midnightblue" stroke="midnightblue" points="1841.52,-437.63 1845.63,-447.4 1848.51,-437.2 1841.52,-437.63"/>
</g>
<!-- Node35&#45;&gt;Node6 -->
<g id="edge65" class="edge">
<title>Node35&#45;&gt;Node6</title>
<path fill="none" stroke="midnightblue" d="M1638.67,-242.26C1627.23,-209.75 1598.47,-142.36 1548.5,-112 1480.82,-70.89 1248.6,-66.13 1136.72,-66.32"/>
<polygon fill="midnightblue" stroke="midnightblue" points="1635.39,-243.48 1641.9,-251.84 1642.03,-241.25 1635.39,-243.48"/>
</g>
</g>
</svg>
