<?xml version="1.0" encoding="UTF-8" standalone="no"?>
<!DOCTYPE svg PUBLIC "-//W3C//DTD SVG 1.1//EN"
 "http://www.w3.org/Graphics/SVG/1.1/DTD/svg11.dtd">
<!-- Generated by graphviz version 2.43.0 (0)
 -->
<!-- Title: src/common/enclave_interface_types.h Pages: 1 -->
<!--zoomable 687 -->
<svg id="main" version="1.1" xmlns="http://www.w3.org/2000/svg" xmlns:xlink="http://www.w3.org/1999/xlink" xml:space="preserve" onload="init(evt)">
<style type="text/css"><![CDATA[
.edge:hover path { stroke: red; }
.edge:hover polygon { stroke: red; fill: red; }
]]></style>
<script type="text/javascript"><![CDATA[
var edges = document.getElementsByTagName('g');
if (edges && edges.length) {
  for (var i=0;i<edges.length;i++) {
    if (edges[i].id.substr(0,4)=='edge') {
      edges[i].setAttribute('class','edge');
    }
  }
}
]]></script>
        <defs>
                <circle id="rim" cx="0" cy="0" r="7"/>
                <circle id="rim2" cx="0" cy="0" r="3.5"/>
                <g id="zoomPlus">
                        <use xlink:href="#rim" fill="#404040">
                                <set attributeName="fill" to="#808080" begin="zoomplus.mouseover" end="zoomplus.mouseout"/>
                        </use>
                        <path d="M-4,0h8M0,-4v8" fill="none" stroke="white" stroke-width="1.5" pointer-events="none"/>
                </g>
                <g id="zoomMin">
                        <use xlink:href="#rim" fill="#404040">
                                <set attributeName="fill" to="#808080" begin="zoomminus.mouseover" end="zoomminus.mouseout"/>
                        </use>
                        <path d="M-4,0h8" fill="none" stroke="white" stroke-width="1.5" pointer-events="none"/>
                </g>
                <g id="dirArrow">
                        <path fill="none" stroke="white" stroke-width="1.5" d="M0,-3.0v7 M-2.5,-0.5L0,-3.0L2.5,-0.5"/>
                </g>
               <g id="resetDef">
                       <use xlink:href="#rim2" fill="#404040">
                               <set attributeName="fill" to="#808080" begin="reset.mouseover" end="reset.mouseout"/>
                       </use>
               </g>
        </defs>

<script type="text/javascript">
var viewWidth = 2281;
var viewHeight = 687;
var sectionId = 'dynsection-0';
</script>
<script xlink:href="svgpan.js"/>
<svg id="graph" class="graph">
<g id="viewport">
<title>src/common/enclave_interface_types.h</title>
<polygon fill="white" stroke="transparent" points="-4,4 -4,-683 2277,-683 2277,4 -4,4"/>
<!-- Node1 -->
<g id="node1" class="node">
<title>Node1</title>
<g id="a_node1"><a xlink:title=" ">
<polygon fill="#bfbfbf" stroke="black" points="644,-648.5 644,-678.5 762,-678.5 762,-648.5 644,-648.5"/>
<text text-anchor="start" x="652" y="-666.5" font-family="Helvetica,sans-Serif" font-size="10.00">src/common/enclave</text>
<text text-anchor="middle" x="703" y="-655.5" font-family="Helvetica,sans-Serif" font-size="10.00">_interface_types.h</text>
</a>
</g>
</g>
<!-- Node2 -->
<g id="node2" class="node">
<title>Node2</title>
<g id="a_node2"><a xlink:href="common_2configuration_8h.html" target="_top" xlink:title=" ">
<polygon fill="white" stroke="black" points="627,-587 627,-606 779,-606 779,-587 627,-587"/>
<text text-anchor="middle" x="703" y="-594" font-family="Helvetica,sans-Serif" font-size="10.00">src/common/configuration.h</text>
</a>
</g>
</g>
<!-- Node1&#45;&gt;Node2 -->
<g id="edge1" class="edge">
<title>Node1&#45;&gt;Node2</title>
<path fill="none" stroke="midnightblue" d="M703,-638.25C703,-627.02 703,-614.38 703,-606.19"/>
<polygon fill="midnightblue" stroke="midnightblue" points="699.5,-638.4 703,-648.4 706.5,-638.4 699.5,-638.4"/>
</g>
<!-- Node8 -->
<g id="node8" class="node">
<title>Node8</title>
<g id="a_node8"><a xlink:href="enclave_2main_8cpp.html" target="_top" xlink:title=" ">
<polygon fill="white" stroke="black" points="382,-0.5 382,-19.5 502,-19.5 502,-0.5 382,-0.5"/>
<text text-anchor="middle" x="442" y="-7.5" font-family="Helvetica,sans-Serif" font-size="10.00">src/enclave/main.cpp</text>
</a>
</g>
</g>
<!-- Node1&#45;&gt;Node8 -->
<g id="edge67" class="edge">
<title>Node1&#45;&gt;Node8</title>
<path fill="none" stroke="midnightblue" d="M633.98,-656.76C456.84,-641.12 0,-594.57 0,-530.5 0,-530.5 0,-530.5 0,-126.5 0,-48.48 261.08,-22.16 381.93,-14.16"/>
<polygon fill="midnightblue" stroke="midnightblue" points="633.7,-660.25 643.97,-657.64 634.31,-653.28 633.7,-660.25"/>
</g>
<!-- Node37 -->
<g id="node37" class="node">
<title>Node37</title>
<g id="a_node37"><a xlink:href="virtual__enclave_8h.html" target="_top" xlink:title=" ">
<polygon fill="white" stroke="black" points="797.5,-581.5 797.5,-611.5 904.5,-611.5 904.5,-581.5 797.5,-581.5"/>
<text text-anchor="start" x="805.5" y="-599.5" font-family="Helvetica,sans-Serif" font-size="10.00">src/enclave/virtual</text>
<text text-anchor="middle" x="851" y="-588.5" font-family="Helvetica,sans-Serif" font-size="10.00">_enclave.h</text>
</a>
</g>
</g>
<!-- Node1&#45;&gt;Node37 -->
<g id="edge68" class="edge">
<title>Node1&#45;&gt;Node37</title>
<path fill="none" stroke="midnightblue" d="M744.51,-644.27C768.08,-633.92 797.14,-621.15 818.95,-611.58"/>
<polygon fill="midnightblue" stroke="midnightblue" points="742.86,-641.17 735.11,-648.4 745.68,-647.58 742.86,-641.17"/>
</g>
<!-- Node3 -->
<g id="node3" class="node">
<title>Node3</title>
<g id="a_node3"><a xlink:href="host_2configuration_8h.html" target="_top" xlink:title=" ">
<polygon fill="white" stroke="black" points="1780.5,-520 1780.5,-539 1911.5,-539 1911.5,-520 1780.5,-520"/>
<text text-anchor="middle" x="1846" y="-527" font-family="Helvetica,sans-Serif" font-size="10.00">src/host/configuration.h</text>
</a>
</g>
</g>
<!-- Node2&#45;&gt;Node3 -->
<g id="edge2" class="edge">
<title>Node2&#45;&gt;Node3</title>
<path fill="none" stroke="midnightblue" d="M757.36,-585.33C767.83,-583.65 778.73,-582.11 789,-581 982.62,-560.13 1580.44,-539.19 1780.22,-532.61"/>
<polygon fill="midnightblue" stroke="midnightblue" points="756.79,-581.87 747.5,-586.96 757.93,-588.78 756.79,-581.87"/>
</g>
<!-- Node5 -->
<g id="node5" class="node">
<title>Node5</title>
<g id="a_node5"><a xlink:href="frontend_8h.html" target="_top" xlink:title=" ">
<polygon fill="white" stroke="black" points="681.5,-386 681.5,-405 810.5,-405 810.5,-386 681.5,-386"/>
<text text-anchor="middle" x="746" y="-393" font-family="Helvetica,sans-Serif" font-size="10.00">src/node/rpc/frontend.h</text>
</a>
</g>
</g>
<!-- Node2&#45;&gt;Node5 -->
<g id="edge4" class="edge">
<title>Node2&#45;&gt;Node5</title>
<path fill="none" stroke="midnightblue" d="M703.51,-576.8C704.7,-548.26 708.68,-492.37 722,-447 726.54,-431.54 735.28,-414.89 740.87,-405.1"/>
<polygon fill="midnightblue" stroke="midnightblue" points="700,-576.82 703.16,-586.94 707,-577.06 700,-576.82"/>
</g>
<!-- Node16 -->
<g id="node16" class="node">
<title>Node16</title>
<g id="a_node16"><a xlink:href="node__call__types_8h.html" target="_top" xlink:title=" ">
<polygon fill="white" stroke="black" points="477.5,-514.5 477.5,-544.5 602.5,-544.5 602.5,-514.5 477.5,-514.5"/>
<text text-anchor="start" x="485.5" y="-532.5" font-family="Helvetica,sans-Serif" font-size="10.00">src/node/rpc/node_call</text>
<text text-anchor="middle" x="540" y="-521.5" font-family="Helvetica,sans-Serif" font-size="10.00">_types.h</text>
</a>
</g>
</g>
<!-- Node2&#45;&gt;Node16 -->
<g id="edge22" class="edge">
<title>Node2&#45;&gt;Node16</title>
<path fill="none" stroke="midnightblue" d="M671.8,-583.06C644.19,-572.05 603.93,-555.99 575.18,-544.53"/>
<polygon fill="midnightblue" stroke="midnightblue" points="670.77,-586.42 681.35,-586.87 673.36,-579.91 670.77,-586.42"/>
</g>
<!-- Node23 -->
<g id="node23" class="node">
<title>Node23</title>
<g id="a_node23"><a xlink:href="node__interface_8h.html" target="_top" xlink:title=" ">
<polygon fill="white" stroke="black" points="1188.5,-520 1188.5,-539 1349.5,-539 1349.5,-520 1188.5,-520"/>
<text text-anchor="middle" x="1269" y="-527" font-family="Helvetica,sans-Serif" font-size="10.00">src/node/rpc/node_interface.h</text>
</a>
</g>
</g>
<!-- Node2&#45;&gt;Node23 -->
<g id="edge37" class="edge">
<title>Node2&#45;&gt;Node23</title>
<path fill="none" stroke="midnightblue" d="M760.13,-585.36C769.75,-583.8 779.65,-582.28 789,-581 928.89,-561.87 1092.58,-546.04 1188.13,-537.46"/>
<polygon fill="midnightblue" stroke="midnightblue" points="759.53,-581.91 750.23,-586.99 760.67,-588.81 759.53,-581.91"/>
</g>
<!-- Node4 -->
<g id="node4" class="node">
<title>Node4</title>
<g id="a_node4"><a xlink:href="host_2main_8cpp.html" target="_top" xlink:title=" ">
<polygon fill="white" stroke="black" points="2147.5,-453 2147.5,-472 2250.5,-472 2250.5,-453 2147.5,-453"/>
<text text-anchor="middle" x="2199" y="-460" font-family="Helvetica,sans-Serif" font-size="10.00">src/host/main.cpp</text>
</a>
</g>
</g>
<!-- Node3&#45;&gt;Node4 -->
<g id="edge3" class="edge">
<title>Node3&#45;&gt;Node4</title>
<path fill="none" stroke="midnightblue" d="M1908.38,-518.3C1966.61,-508.6 2055.86,-493.25 2133,-478 2142.21,-476.18 2152.1,-474.08 2161.36,-472.06"/>
<polygon fill="midnightblue" stroke="midnightblue" points="1907.52,-514.9 1898.23,-519.99 1908.67,-521.8 1907.52,-514.9"/>
</g>
<!-- Node6 -->
<g id="node6" class="node">
<title>Node6</title>
<g id="a_node6"><a xlink:href="acme__challenge__frontend_8h.html" target="_top" xlink:title=" ">
<polygon fill="white" stroke="black" points="676,-313.5 676,-343.5 816,-343.5 816,-313.5 676,-313.5"/>
<text text-anchor="start" x="684" y="-331.5" font-family="Helvetica,sans-Serif" font-size="10.00">src/node/acme_challenge</text>
<text text-anchor="middle" x="746" y="-320.5" font-family="Helvetica,sans-Serif" font-size="10.00">_frontend.h</text>
</a>
</g>
</g>
<!-- Node5&#45;&gt;Node6 -->
<g id="edge5" class="edge">
<title>Node5&#45;&gt;Node6</title>
<path fill="none" stroke="midnightblue" d="M746,-375.41C746,-365.22 746,-352.9 746,-343.59"/>
<polygon fill="midnightblue" stroke="midnightblue" points="742.5,-375.73 746,-385.73 749.5,-375.73 742.5,-375.73"/>
</g>
<!-- Node10 -->
<g id="node10" class="node">
<title>Node10</title>
<g id="a_node10"><a xlink:href="node__state_8h.html" target="_top" xlink:title=" ">
<polygon fill="white" stroke="black" points="618,-185 618,-204 742,-204 742,-185 618,-185"/>
<text text-anchor="middle" x="680" y="-192" font-family="Helvetica,sans-Serif" font-size="10.00">src/node/node_state.h</text>
</a>
</g>
</g>
<!-- Node5&#45;&gt;Node10 -->
<g id="edge13" class="edge">
<title>Node5&#45;&gt;Node10</title>
<path fill="none" stroke="midnightblue" d="M718.3,-380.96C684.97,-362.76 631.33,-326.85 614,-277 609.48,-263.99 607.9,-258.35 614,-246 623.65,-226.47 644.88,-212.41 660.67,-204.16"/>
<polygon fill="midnightblue" stroke="midnightblue" points="717.04,-384.25 727.52,-385.82 720.31,-378.06 717.04,-384.25"/>
</g>
<!-- Node12 -->
<g id="node12" class="node">
<title>Node12</title>
<g id="a_node12"><a xlink:href="member__frontend_8h.html" target="_top" xlink:title=" ">
<polygon fill="white" stroke="black" points="500,-313.5 500,-343.5 620,-343.5 620,-313.5 500,-313.5"/>
<text text-anchor="start" x="508" y="-331.5" font-family="Helvetica,sans-Serif" font-size="10.00">src/node/rpc/member</text>
<text text-anchor="middle" x="560" y="-320.5" font-family="Helvetica,sans-Serif" font-size="10.00">_frontend.h</text>
</a>
</g>
</g>
<!-- Node5&#45;&gt;Node12 -->
<g id="edge14" class="edge">
<title>Node5&#45;&gt;Node12</title>
<path fill="none" stroke="midnightblue" d="M711.63,-382.49C680.1,-371.47 633.38,-355.14 600.14,-343.53"/>
<polygon fill="midnightblue" stroke="midnightblue" points="710.71,-385.87 721.3,-385.87 713.02,-379.27 710.71,-385.87"/>
</g>
<!-- Node13 -->
<g id="node13" class="node">
<title>Node13</title>
<g id="a_node13"><a xlink:href="node__frontend_8h.html" target="_top" xlink:title=" ">
<polygon fill="white" stroke="black" points="834,-319 834,-338 992,-338 992,-319 834,-319"/>
<text text-anchor="middle" x="913" y="-326" font-family="Helvetica,sans-Serif" font-size="10.00">src/node/rpc/node_frontend.h</text>
</a>
</g>
</g>
<!-- Node5&#45;&gt;Node13 -->
<g id="edge16" class="edge">
<title>Node5&#45;&gt;Node13</title>
<path fill="none" stroke="midnightblue" d="M777.85,-382.1C811.01,-369.2 862.06,-349.33 891,-338.06"/>
<polygon fill="midnightblue" stroke="midnightblue" points="776.23,-378.98 768.18,-385.87 778.76,-385.5 776.23,-378.98"/>
</g>
<!-- Node15 -->
<g id="node15" class="node">
<title>Node15</title>
<g id="a_node15"><a xlink:href="user__frontend_8h.html" target="_top" xlink:title=" ">
<polygon fill="white" stroke="black" points="912.5,-185 912.5,-204 1067.5,-204 1067.5,-185 912.5,-185"/>
<text text-anchor="middle" x="990" y="-192" font-family="Helvetica,sans-Serif" font-size="10.00">src/node/rpc/user_frontend.h</text>
</a>
</g>
</g>
<!-- Node5&#45;&gt;Node15 -->
<g id="edge20" class="edge">
<title>Node5&#45;&gt;Node15</title>
<path fill="none" stroke="midnightblue" d="M820.9,-389.96C887.76,-384.16 978.52,-371.37 1001,-344 1035.46,-302.05 1005.98,-229 994.28,-204.1"/>
<polygon fill="midnightblue" stroke="midnightblue" points="820.47,-386.48 810.8,-390.8 821.05,-393.46 820.47,-386.48"/>
</g>
<!-- Node7 -->
<g id="node7" class="node">
<title>Node7</title>
<g id="a_node7"><a xlink:href="enclave_2enclave_8h.html" target="_top" xlink:title=" ">
<polygon fill="white" stroke="black" points="859,-56.5 859,-75.5 981,-75.5 981,-56.5 859,-56.5"/>
<text text-anchor="middle" x="920" y="-63.5" font-family="Helvetica,sans-Serif" font-size="10.00">src/enclave/enclave.h</text>
</a>
</g>
</g>
<!-- Node6&#45;&gt;Node7 -->
<g id="edge6" class="edge">
<title>Node6&#45;&gt;Node7</title>
<path fill="none" stroke="midnightblue" d="M761.61,-305.2C767.7,-296.44 774.72,-286.27 781,-277 833.47,-199.54 895.35,-104.84 914.24,-75.85"/>
<polygon fill="midnightblue" stroke="midnightblue" points="758.73,-303.2 755.89,-313.41 764.48,-307.2 758.73,-303.2"/>
</g>
<!-- Node9 -->
<g id="node9" class="node">
<title>Node9</title>
<g id="a_node9"><a xlink:href="ccf__acme__client_8h.html" target="_top" xlink:title=" ">
<polygon fill="white" stroke="black" points="623.5,-252 623.5,-271 772.5,-271 772.5,-252 623.5,-252"/>
<text text-anchor="middle" x="698" y="-259" font-family="Helvetica,sans-Serif" font-size="10.00">src/node/ccf_acme_client.h</text>
</a>
</g>
</g>
<!-- Node6&#45;&gt;Node9 -->
<g id="edge8" class="edge">
<title>Node6&#45;&gt;Node9</title>
<path fill="none" stroke="midnightblue" d="M729.62,-305.32C720.96,-293.6 710.84,-279.88 704.42,-271.19"/>
<polygon fill="midnightblue" stroke="midnightblue" points="726.83,-307.43 735.58,-313.4 732.46,-303.27 726.83,-307.43"/>
</g>
<!-- Node7&#45;&gt;Node8 -->
<g id="edge7" class="edge">
<title>Node7&#45;&gt;Node8</title>
<path fill="none" stroke="midnightblue" d="M848.98,-56.98C754.91,-46.35 590.62,-27.79 502.29,-17.81"/>
<polygon fill="midnightblue" stroke="midnightblue" points="848.65,-60.46 858.98,-58.11 849.43,-53.51 848.65,-60.46"/>
</g>
<!-- Node9&#45;&gt;Node10 -->
<g id="edge9" class="edge">
<title>Node9&#45;&gt;Node10</title>
<path fill="none" stroke="midnightblue" d="M692.85,-241.91C689.41,-229.49 685.04,-213.72 682.39,-204.13"/>
<polygon fill="midnightblue" stroke="midnightblue" points="689.53,-243.03 695.57,-251.73 696.28,-241.16 689.53,-243.03"/>
</g>
<!-- Node10&#45;&gt;Node7 -->
<g id="edge10" class="edge">
<title>Node10&#45;&gt;Node7</title>
<path fill="none" stroke="midnightblue" d="M698.63,-178.64C726.45,-156.52 776.62,-117 786,-112 817.51,-95.2 856.49,-82.96 884.27,-75.53"/>
<polygon fill="midnightblue" stroke="midnightblue" points="696.42,-175.92 690.78,-184.89 700.78,-181.4 696.42,-175.92"/>
</g>
<!-- Node11 -->
<g id="node11" class="node">
<title>Node11</title>
<g id="a_node11"><a xlink:href="gov__effects_8h.html" target="_top" xlink:title=" ">
<polygon fill="white" stroke="black" points="590,-118 590,-137 734,-137 734,-118 590,-118"/>
<text text-anchor="middle" x="662" y="-125" font-family="Helvetica,sans-Serif" font-size="10.00">src/node/rpc/gov_effects.h</text>
</a>
</g>
</g>
<!-- Node10&#45;&gt;Node11 -->
<g id="edge11" class="edge">
<title>Node10&#45;&gt;Node11</title>
<path fill="none" stroke="midnightblue" d="M674.85,-174.91C671.41,-162.49 667.04,-146.72 664.39,-137.13"/>
<polygon fill="midnightblue" stroke="midnightblue" points="671.53,-176.03 677.57,-184.73 678.28,-174.16 671.53,-176.03"/>
</g>
<!-- Node11&#45;&gt;Node7 -->
<g id="edge12" class="edge">
<title>Node11&#45;&gt;Node7</title>
<path fill="none" stroke="midnightblue" d="M708.89,-115.69C758.95,-104.14 837.25,-86.08 883.1,-75.51"/>
<polygon fill="midnightblue" stroke="midnightblue" points="707.92,-112.32 698.97,-117.98 709.5,-119.14 707.92,-112.32"/>
</g>
<!-- Node12&#45;&gt;Node7 -->
<g id="edge15" class="edge">
<title>Node12&#45;&gt;Node7</title>
<path fill="none" stroke="midnightblue" d="M553.83,-303.35C544.08,-258.87 530.94,-163.83 581,-112 618.22,-73.46 771.48,-66.9 858.65,-66.38"/>
<polygon fill="midnightblue" stroke="midnightblue" points="550.47,-304.32 556.14,-313.27 557.28,-302.73 550.47,-304.32"/>
</g>
<!-- Node13&#45;&gt;Node7 -->
<g id="edge17" class="edge">
<title>Node13&#45;&gt;Node7</title>
<path fill="none" stroke="midnightblue" d="M934.04,-312.76C944.9,-303.82 957.09,-291.37 963,-277 968.24,-264.26 969.74,-258.01 963,-246 947.96,-219.21 919.04,-236.79 904,-210 878.69,-164.91 904.77,-99.24 915.68,-75.76"/>
<polygon fill="midnightblue" stroke="midnightblue" points="931.88,-310 926.11,-318.89 936.16,-315.54 931.88,-310"/>
</g>
<!-- Node14 -->
<g id="node14" class="node">
<title>Node14</title>
<g id="a_node14"><a xlink:href="jwt__key__auto__refresh_8h.html" target="_top" xlink:title=" ">
<polygon fill="white" stroke="black" points="828.5,-246.5 828.5,-276.5 953.5,-276.5 953.5,-246.5 828.5,-246.5"/>
<text text-anchor="start" x="836.5" y="-264.5" font-family="Helvetica,sans-Serif" font-size="10.00">src/node/jwt_key_auto</text>
<text text-anchor="middle" x="891" y="-253.5" font-family="Helvetica,sans-Serif" font-size="10.00">_refresh.h</text>
</a>
</g>
</g>
<!-- Node13&#45;&gt;Node14 -->
<g id="edge18" class="edge">
<title>Node13&#45;&gt;Node14</title>
<path fill="none" stroke="midnightblue" d="M906.76,-309.06C903.27,-298.75 898.99,-286.1 895.77,-276.59"/>
<polygon fill="midnightblue" stroke="midnightblue" points="903.51,-310.38 910.03,-318.73 910.14,-308.14 903.51,-310.38"/>
</g>
<!-- Node14&#45;&gt;Node10 -->
<g id="edge19" class="edge">
<title>Node14&#45;&gt;Node10</title>
<path fill="none" stroke="midnightblue" d="M835.85,-243.51C794.67,-230.83 740.12,-214.02 707.69,-204.03"/>
<polygon fill="midnightblue" stroke="midnightblue" points="834.89,-246.88 845.48,-246.48 836.95,-240.19 834.89,-246.88"/>
</g>
<!-- Node15&#45;&gt;Node7 -->
<g id="edge21" class="edge">
<title>Node15&#45;&gt;Node7</title>
<path fill="none" stroke="midnightblue" d="M980.26,-175.9C965.07,-148.44 936.27,-96.4 924.85,-75.76"/>
<polygon fill="midnightblue" stroke="midnightblue" points="977.28,-177.75 985.19,-184.81 983.41,-174.36 977.28,-177.75"/>
</g>
<!-- Node17 -->
<g id="node17" class="node">
<title>Node17</title>
<g id="a_node17"><a xlink:href="call__types_8h.html" target="_top" xlink:title=" ">
<polygon fill="white" stroke="black" points="400.5,-453 400.5,-472 537.5,-472 537.5,-453 400.5,-453"/>
<text text-anchor="middle" x="469" y="-460" font-family="Helvetica,sans-Serif" font-size="10.00">src/node/rpc/call_types.h</text>
</a>
</g>
</g>
<!-- Node16&#45;&gt;Node17 -->
<g id="edge23" class="edge">
<title>Node16&#45;&gt;Node17</title>
<path fill="none" stroke="midnightblue" d="M516.88,-507.34C503.85,-495.4 488.26,-481.14 478.5,-472.19"/>
<polygon fill="midnightblue" stroke="midnightblue" points="514.85,-510.22 524.59,-514.4 519.58,-505.06 514.85,-510.22"/>
</g>
<!-- Node17&#45;&gt;Node12 -->
<g id="edge29" class="edge">
<title>Node17&#45;&gt;Node12</title>
<path fill="none" stroke="midnightblue" d="M480.86,-444.3C499,-417.98 533.3,-368.23 550.15,-343.78"/>
<polygon fill="midnightblue" stroke="midnightblue" points="477.77,-442.62 474.97,-452.84 483.53,-446.59 477.77,-442.62"/>
</g>
<!-- Node18 -->
<g id="node18" class="node">
<title>Node18</title>
<g id="a_node18"><a xlink:href="nobuiltins_8cpp.html" target="_top" xlink:title=" ">
<polygon fill="white" stroke="black" points="174.5,-313.5 174.5,-343.5 309.5,-343.5 309.5,-313.5 174.5,-313.5"/>
<text text-anchor="start" x="182.5" y="-331.5" font-family="Helvetica,sans-Serif" font-size="10.00">samples/apps/nobuiltins</text>
<text text-anchor="middle" x="242" y="-320.5" font-family="Helvetica,sans-Serif" font-size="10.00">/nobuiltins.cpp</text>
</a>
</g>
</g>
<!-- Node17&#45;&gt;Node18 -->
<g id="edge24" class="edge">
<title>Node17&#45;&gt;Node18</title>
<path fill="none" stroke="midnightblue" d="M390.54,-454.53C354.87,-447.97 314.03,-435.32 284,-411 262.35,-393.47 250.67,-361.82 245.45,-343.55"/>
<polygon fill="midnightblue" stroke="midnightblue" points="390,-457.99 400.45,-456.22 391.18,-451.09 390,-457.99"/>
</g>
<!-- Node19 -->
<g id="node19" class="node">
<title>Node19</title>
<g id="a_node19"><a xlink:href="common__endpoint__registry_8cpp.html" target="_top" xlink:title=" ">
<polygon fill="white" stroke="black" points="28,-313.5 28,-343.5 156,-343.5 156,-313.5 28,-313.5"/>
<text text-anchor="start" x="36" y="-331.5" font-family="Helvetica,sans-Serif" font-size="10.00">src/endpoints/common</text>
<text text-anchor="middle" x="92" y="-320.5" font-family="Helvetica,sans-Serif" font-size="10.00">_endpoint_registry.cpp</text>
</a>
</g>
</g>
<!-- Node17&#45;&gt;Node19 -->
<g id="edge25" class="edge">
<title>Node17&#45;&gt;Node19</title>
<path fill="none" stroke="midnightblue" d="M409.21,-451C366.16,-442.54 307.08,-429.07 257,-411 204.86,-392.18 147.6,-361.44 116.12,-343.57"/>
<polygon fill="midnightblue" stroke="midnightblue" points="408.76,-454.47 419.25,-452.93 410.09,-447.6 408.76,-454.47"/>
</g>
<!-- Node20 -->
<g id="node20" class="node">
<title>Node20</title>
<g id="a_node20"><a xlink:href="wrap_8cpp.html" target="_top" xlink:title=" ">
<polygon fill="white" stroke="black" points="1285.5,-319 1285.5,-338 1374.5,-338 1374.5,-319 1285.5,-319"/>
<text text-anchor="middle" x="1330" y="-326" font-family="Helvetica,sans-Serif" font-size="10.00">src/js/wrap.cpp</text>
</a>
</g>
</g>
<!-- Node17&#45;&gt;Node20 -->
<g id="edge26" class="edge">
<title>Node17&#45;&gt;Node20</title>
<path fill="none" stroke="midnightblue" d="M540.4,-451.56C611.35,-441.6 723.26,-425.69 820,-411 992.2,-384.85 1196.71,-351.46 1285.35,-336.87"/>
<polygon fill="midnightblue" stroke="midnightblue" points="539.65,-448.13 530.23,-452.98 540.62,-455.06 539.65,-448.13"/>
</g>
<!-- Node21 -->
<g id="node21" class="node">
<title>Node21</title>
<g id="a_node21"><a xlink:href="resharing_8h.html" target="_top" xlink:title=" ">
<polygon fill="white" stroke="black" points="366,-319 366,-338 482,-338 482,-319 366,-319"/>
<text text-anchor="middle" x="424" y="-326" font-family="Helvetica,sans-Serif" font-size="10.00">src/node/resharing.h</text>
</a>
</g>
</g>
<!-- Node17&#45;&gt;Node21 -->
<g id="edge27" class="edge">
<title>Node17&#45;&gt;Node21</title>
<path fill="none" stroke="midnightblue" d="M465.96,-442.59C462.94,-425.82 457.66,-400.83 450,-380 444.35,-364.64 435.1,-347.96 429.29,-338.14"/>
<polygon fill="midnightblue" stroke="midnightblue" points="462.56,-443.46 467.69,-452.73 469.46,-442.28 462.56,-443.46"/>
</g>
<!-- Node22 -->
<g id="node22" class="node">
<title>Node22</title>
<g id="a_node22"><a xlink:href="serialization_8h.html" target="_top" xlink:title=" ">
<polygon fill="white" stroke="black" points="293,-386 293,-405 441,-405 441,-386 293,-386"/>
<text text-anchor="middle" x="367" y="-393" font-family="Helvetica,sans-Serif" font-size="10.00">src/node/rpc/serialization.h</text>
</a>
</g>
</g>
<!-- Node17&#45;&gt;Node22 -->
<g id="edge30" class="edge">
<title>Node17&#45;&gt;Node22</title>
<path fill="none" stroke="midnightblue" d="M446.67,-447.27C426.48,-434.4 397.41,-415.88 380.54,-405.13"/>
<polygon fill="midnightblue" stroke="midnightblue" points="444.93,-450.31 455.24,-452.73 448.69,-444.41 444.93,-450.31"/>
</g>
<!-- Node21&#45;&gt;Node10 -->
<g id="edge28" class="edge">
<title>Node21&#45;&gt;Node10</title>
<path fill="none" stroke="midnightblue" d="M449.52,-314.33C480.75,-298.22 535.26,-270.1 582,-246 610.58,-231.27 643.85,-214.12 663.35,-204.08"/>
<polygon fill="midnightblue" stroke="midnightblue" points="447.89,-311.24 440.6,-318.93 451.1,-317.46 447.89,-311.24"/>
</g>
<!-- Node22&#45;&gt;Node10 -->
<g id="edge33" class="edge">
<title>Node22&#45;&gt;Node10</title>
<path fill="none" stroke="midnightblue" d="M358.42,-376.58C351.32,-358.91 344.29,-331.88 357,-313 414.49,-227.61 541.16,-203.95 617.67,-197.59"/>
<polygon fill="midnightblue" stroke="midnightblue" points="355.23,-378.02 362.45,-385.77 361.64,-375.21 355.23,-378.02"/>
</g>
<!-- Node22&#45;&gt;Node12 -->
<g id="edge35" class="edge">
<title>Node22&#45;&gt;Node12</title>
<path fill="none" stroke="midnightblue" d="M402.24,-382.63C434.96,-371.61 483.71,-355.19 518.35,-343.53"/>
<polygon fill="midnightblue" stroke="midnightblue" points="400.99,-379.36 392.63,-385.87 403.22,-385.99 400.99,-379.36"/>
</g>
<!-- Node22&#45;&gt;Node13 -->
<g id="edge36" class="edge">
<title>Node22&#45;&gt;Node13</title>
<path fill="none" stroke="midnightblue" d="M451.41,-386.56C543.44,-377.58 694.95,-361.87 825,-344 837.73,-342.25 851.46,-340.11 864.2,-338.02"/>
<polygon fill="midnightblue" stroke="midnightblue" points="450.94,-383.09 441.32,-387.54 451.61,-390.05 450.94,-383.09"/>
</g>
<!-- Node22&#45;&gt;Node18 -->
<g id="edge31" class="edge">
<title>Node22&#45;&gt;Node18</title>
<path fill="none" stroke="midnightblue" d="M341.41,-381.19C320.39,-370.26 290.67,-354.81 269.21,-343.65"/>
<polygon fill="midnightblue" stroke="midnightblue" points="339.91,-384.36 350.4,-385.87 343.14,-378.15 339.91,-384.36"/>
</g>
<!-- Node22&#45;&gt;Node19 -->
<g id="edge32" class="edge">
<title>Node22&#45;&gt;Node19</title>
<path fill="none" stroke="midnightblue" d="M320.95,-383.62C274.42,-372.62 202.32,-355.58 151.48,-343.56"/>
<polygon fill="midnightblue" stroke="midnightblue" points="320.23,-387.04 330.77,-385.94 321.84,-380.23 320.23,-387.04"/>
</g>
<!-- Node22&#45;&gt;Node21 -->
<g id="edge34" class="edge">
<title>Node22&#45;&gt;Node21</title>
<path fill="none" stroke="midnightblue" d="M381.35,-378.13C392.5,-365.42 407.52,-348.3 416.43,-338.13"/>
<polygon fill="midnightblue" stroke="midnightblue" points="378.65,-375.91 374.69,-385.73 383.91,-380.52 378.65,-375.91"/>
</g>
<!-- Node23&#45;&gt;Node12 -->
<g id="edge60" class="edge">
<title>Node23&#45;&gt;Node12</title>
<path fill="none" stroke="midnightblue" d="M1178.12,-525.25C1045.02,-519.63 804,-505.89 722,-478 669.24,-460.05 656.16,-449.65 616,-411 594.85,-390.64 576.97,-361.12 567.43,-343.76"/>
<polygon fill="midnightblue" stroke="midnightblue" points="1178.16,-528.76 1188.3,-525.68 1178.45,-521.76 1178.16,-528.76"/>
</g>
<!-- Node23&#45;&gt;Node13 -->
<g id="edge64" class="edge">
<title>Node23&#45;&gt;Node13</title>
<path fill="none" stroke="midnightblue" d="M1178.1,-519.03C1103.48,-506.54 1000.16,-477.65 937,-411 917.52,-390.44 913.76,-354.88 913.1,-338.38"/>
<polygon fill="midnightblue" stroke="midnightblue" points="1178,-522.56 1188.43,-520.69 1179.11,-515.65 1178,-522.56"/>
</g>
<!-- Node23&#45;&gt;Node20 -->
<g id="edge38" class="edge">
<title>Node23&#45;&gt;Node20</title>
<path fill="none" stroke="midnightblue" d="M1360.12,-523.62C1507.4,-513.61 1787.42,-485.11 1848,-411 1856.72,-400.33 1857.26,-390.2 1848,-380 1816.47,-345.24 1494.97,-333.64 1374.91,-330.5"/>
<polygon fill="midnightblue" stroke="midnightblue" points="1359.5,-520.15 1349.75,-524.31 1359.96,-527.14 1359.5,-520.15"/>
</g>
<!-- Node24 -->
<g id="node24" class="node">
<title>Node24</title>
<g id="a_node24"><a xlink:href="wrap_8h.html" target="_top" xlink:title=" ">
<polygon fill="white" stroke="black" points="1230,-453 1230,-472 1308,-472 1308,-453 1230,-453"/>
<text text-anchor="middle" x="1269" y="-460" font-family="Helvetica,sans-Serif" font-size="10.00">src/js/wrap.h</text>
</a>
</g>
</g>
<!-- Node23&#45;&gt;Node24 -->
<g id="edge39" class="edge">
<title>Node23&#45;&gt;Node24</title>
<path fill="none" stroke="midnightblue" d="M1269,-509.54C1269,-497.17 1269,-481.62 1269,-472.13"/>
<polygon fill="midnightblue" stroke="midnightblue" points="1265.5,-509.73 1269,-519.73 1272.5,-509.73 1265.5,-509.73"/>
</g>
<!-- Node31 -->
<g id="node31" class="node">
<title>Node31</title>
<g id="a_node31"><a xlink:href="historical__queries_8h.html" target="_top" xlink:title=" ">
<polygon fill="white" stroke="black" points="1172,-179.5 1172,-209.5 1278,-209.5 1278,-179.5 1172,-179.5"/>
<text text-anchor="start" x="1180" y="-197.5" font-family="Helvetica,sans-Serif" font-size="10.00">src/node/historical</text>
<text text-anchor="middle" x="1225" y="-186.5" font-family="Helvetica,sans-Serif" font-size="10.00">_queries.h</text>
</a>
</g>
</g>
<!-- Node23&#45;&gt;Node31 -->
<g id="edge54" class="edge">
<title>Node23&#45;&gt;Node31</title>
<path fill="none" stroke="midnightblue" d="M1359.55,-528.33C1535.19,-525.53 1905,-506.57 1905,-396.5 1905,-396.5 1905,-396.5 1905,-327.5 1905,-263.73 1438.11,-215.01 1278.08,-200.18"/>
<polygon fill="midnightblue" stroke="midnightblue" points="1359.5,-524.83 1349.55,-528.47 1359.6,-531.82 1359.5,-524.83"/>
</g>
<!-- Node33 -->
<g id="node33" class="node">
<title>Node33</title>
<g id="a_node33"><a xlink:href="node__configuration__subsystem_8h.html" target="_top" xlink:title=" ">
<polygon fill="white" stroke="black" points="731,-447.5 731,-477.5 885,-477.5 885,-447.5 731,-447.5"/>
<text text-anchor="start" x="739" y="-465.5" font-family="Helvetica,sans-Serif" font-size="10.00">src/node/node_configuration</text>
<text text-anchor="middle" x="808" y="-454.5" font-family="Helvetica,sans-Serif" font-size="10.00">_subsystem.h</text>
</a>
</g>
</g>
<!-- Node23&#45;&gt;Node33 -->
<g id="edge58" class="edge">
<title>Node23&#45;&gt;Node33</title>
<path fill="none" stroke="midnightblue" d="M1192.83,-518.61C1117.97,-508.77 1000.53,-493.02 899,-478 894.57,-477.34 890.02,-476.66 885.43,-475.96"/>
<polygon fill="midnightblue" stroke="midnightblue" points="1192.73,-522.13 1203.1,-519.96 1193.64,-515.19 1192.73,-522.13"/>
</g>
<!-- Node34 -->
<g id="node34" class="node">
<title>Node34</title>
<g id="a_node34"><a xlink:href="network__identity__subsystem_8h.html" target="_top" xlink:title=" ">
<polygon fill="white" stroke="black" points="1933.5,-447.5 1933.5,-477.5 2060.5,-477.5 2060.5,-447.5 1933.5,-447.5"/>
<text text-anchor="start" x="1941.5" y="-465.5" font-family="Helvetica,sans-Serif" font-size="10.00">src/node/rpc/network</text>
<text text-anchor="middle" x="1997" y="-454.5" font-family="Helvetica,sans-Serif" font-size="10.00">_identity_subsystem.h</text>
</a>
</g>
</g>
<!-- Node23&#45;&gt;Node34 -->
<g id="edge61" class="edge">
<title>Node23&#45;&gt;Node34</title>
<path fill="none" stroke="midnightblue" d="M1359.96,-524.49C1485.94,-518.24 1720.48,-504.09 1919,-478 1923.64,-477.39 1928.43,-476.69 1933.24,-475.92"/>
<polygon fill="midnightblue" stroke="midnightblue" points="1359.41,-521.01 1349.59,-525 1359.75,-528 1359.41,-521.01"/>
</g>
<!-- Node36 -->
<g id="node36" class="node">
<title>Node36</title>
<g id="a_node36"><a xlink:href="node__operation_8h.html" target="_top" xlink:title=" ">
<polygon fill="white" stroke="black" points="2109,-252 2109,-271 2273,-271 2273,-252 2109,-252"/>
<text text-anchor="middle" x="2191" y="-259" font-family="Helvetica,sans-Serif" font-size="10.00">src/node/rpc/node_operation.h</text>
</a>
</g>
</g>
<!-- Node23&#45;&gt;Node36 -->
<g id="edge65" class="edge">
<title>Node23&#45;&gt;Node36</title>
<path fill="none" stroke="midnightblue" d="M1359.61,-525.1C1562.97,-517.16 2040.34,-496.64 2070,-478 2149.92,-427.77 2181.84,-304.72 2189.24,-271.11"/>
<polygon fill="midnightblue" stroke="midnightblue" points="1359.4,-521.61 1349.55,-525.49 1359.67,-528.6 1359.4,-521.61"/>
</g>
<!-- Node24&#45;&gt;Node7 -->
<g id="edge41" class="edge">
<title>Node24&#45;&gt;Node7</title>
<path fill="none" stroke="midnightblue" d="M1219.78,-457.39C1160.83,-451.33 1067.33,-437.7 1046,-411 1037.4,-400.24 1043.25,-393.5 1046,-380 1057.34,-324.39 1096,-319.25 1096,-262.5 1096,-262.5 1096,-262.5 1096,-193.5 1096,-125.2 1007.53,-90.16 956.04,-75.55"/>
<polygon fill="midnightblue" stroke="midnightblue" points="1219.7,-460.9 1230,-458.4 1220.39,-453.93 1219.7,-460.9"/>
</g>
<!-- Node24&#45;&gt;Node10 -->
<g id="edge52" class="edge">
<title>Node24&#45;&gt;Node10</title>
<path fill="none" stroke="midnightblue" d="M1219.71,-460.41C1144.29,-457.59 1005.72,-447.45 975,-411 966.12,-400.47 970.76,-393.11 975,-380 981.07,-361.22 994.93,-362.78 1001,-344 1015.37,-299.55 1001.14,-272.98 963,-246 928.32,-221.46 814.6,-207.23 742.31,-200.44"/>
<polygon fill="midnightblue" stroke="midnightblue" points="1219.8,-463.92 1229.92,-460.76 1220.04,-456.92 1219.8,-463.92"/>
</g>
<!-- Node24&#45;&gt;Node12 -->
<g id="edge53" class="edge">
<title>Node24&#45;&gt;Node12</title>
<path fill="none" stroke="midnightblue" d="M1219.67,-460.73C1095.36,-458.24 772.02,-448.27 672,-411 632.12,-396.14 593.84,-362.87 574.02,-343.75"/>
<polygon fill="midnightblue" stroke="midnightblue" points="1219.61,-464.23 1229.68,-460.92 1219.75,-457.23 1219.61,-464.23"/>
</g>
<!-- Node24&#45;&gt;Node20 -->
<g id="edge51" class="edge">
<title>Node24&#45;&gt;Node20</title>
<path fill="none" stroke="midnightblue" d="M1318.31,-458.98C1421.5,-453.21 1652.64,-437.44 1676,-411 1685.12,-400.68 1685.01,-390.42 1676,-380 1637.54,-335.51 1459.1,-329.44 1374.6,-329.11"/>
<polygon fill="midnightblue" stroke="midnightblue" points="1317.94,-455.5 1308.15,-459.54 1318.32,-462.49 1317.94,-455.5"/>
</g>
<!-- Node25 -->
<g id="node25" class="node">
<title>Node25</title>
<g id="a_node25"><a xlink:href="js__generic__base_8cpp.html" target="_top" xlink:title=" ">
<polygon fill="white" stroke="black" points="1403,-380.5 1403,-410.5 1521,-410.5 1521,-380.5 1403,-380.5"/>
<text text-anchor="start" x="1411" y="-398.5" font-family="Helvetica,sans-Serif" font-size="10.00">src/apps/js_generic</text>
<text text-anchor="middle" x="1462" y="-387.5" font-family="Helvetica,sans-Serif" font-size="10.00">/js_generic_base.cpp</text>
</a>
</g>
</g>
<!-- Node24&#45;&gt;Node25 -->
<g id="edge40" class="edge">
<title>Node24&#45;&gt;Node25</title>
<path fill="none" stroke="midnightblue" d="M1304.24,-449.63C1336.96,-438.61 1385.71,-422.19 1420.35,-410.53"/>
<polygon fill="midnightblue" stroke="midnightblue" points="1302.99,-446.36 1294.63,-452.87 1305.22,-452.99 1302.99,-446.36"/>
</g>
<!-- Node26 -->
<g id="node26" class="node">
<title>Node26</title>
<g id="a_node26"><a xlink:href="js_2consensus_8cpp.html" target="_top" xlink:title=" ">
<polygon fill="white" stroke="black" points="1723,-386 1723,-405 1839,-405 1839,-386 1723,-386"/>
<text text-anchor="middle" x="1781" y="-393" font-family="Helvetica,sans-Serif" font-size="10.00">src/js/consensus.cpp</text>
</a>
</g>
</g>
<!-- Node24&#45;&gt;Node26 -->
<g id="edge42" class="edge">
<title>Node24&#45;&gt;Node26</title>
<path fill="none" stroke="midnightblue" d="M1318.27,-457.21C1399.83,-449.81 1567.88,-433.27 1709,-411 1719.71,-409.31 1731.24,-407.14 1741.87,-405"/>
<polygon fill="midnightblue" stroke="midnightblue" points="1317.94,-453.73 1308.29,-458.11 1318.57,-460.7 1317.94,-453.73"/>
</g>
<!-- Node27 -->
<g id="node27" class="node">
<title>Node27</title>
<g id="a_node27"><a xlink:href="conv_8cpp.html" target="_top" xlink:title=" ">
<polygon fill="white" stroke="black" points="1055,-386 1055,-405 1143,-405 1143,-386 1055,-386"/>
<text text-anchor="middle" x="1099" y="-393" font-family="Helvetica,sans-Serif" font-size="10.00">src/js/conv.cpp</text>
</a>
</g>
</g>
<!-- Node24&#45;&gt;Node27 -->
<g id="edge44" class="edge">
<title>Node24&#45;&gt;Node27</title>
<path fill="none" stroke="midnightblue" d="M1237.02,-449.27C1203.28,-436.37 1150.98,-416.38 1121.4,-405.06"/>
<polygon fill="midnightblue" stroke="midnightblue" points="1235.83,-452.57 1246.43,-452.87 1238.33,-446.03 1235.83,-452.57"/>
</g>
<!-- Node28 -->
<g id="node28" class="node">
<title>Node28</title>
<g id="a_node28"><a xlink:href="js_2crypto_8cpp.html" target="_top" xlink:title=" ">
<polygon fill="white" stroke="black" points="1161,-386 1161,-405 1257,-405 1257,-386 1161,-386"/>
<text text-anchor="middle" x="1209" y="-393" font-family="Helvetica,sans-Serif" font-size="10.00">src/js/crypto.cpp</text>
</a>
</g>
</g>
<!-- Node24&#45;&gt;Node28 -->
<g id="edge46" class="edge">
<title>Node24&#45;&gt;Node28</title>
<path fill="none" stroke="midnightblue" d="M1253.89,-445.13C1242.16,-432.42 1226.35,-415.3 1216.96,-405.13"/>
<polygon fill="midnightblue" stroke="midnightblue" points="1251.55,-447.76 1260.91,-452.73 1256.7,-443.01 1251.55,-447.76"/>
</g>
<!-- Node29 -->
<g id="node29" class="node">
<title>Node29</title>
<g id="a_node29"><a xlink:href="js_2historical_8cpp.html" target="_top" xlink:title=" ">
<polygon fill="white" stroke="black" points="1275,-386 1275,-405 1385,-405 1385,-386 1275,-386"/>
<text text-anchor="middle" x="1330" y="-393" font-family="Helvetica,sans-Serif" font-size="10.00">src/js/historical.cpp</text>
</a>
</g>
</g>
<!-- Node24&#45;&gt;Node29 -->
<g id="edge48" class="edge">
<title>Node24&#45;&gt;Node29</title>
<path fill="none" stroke="midnightblue" d="M1284.36,-445.13C1296.29,-432.42 1312.36,-415.3 1321.9,-405.13"/>
<polygon fill="midnightblue" stroke="midnightblue" points="1281.52,-443.05 1277.23,-452.73 1286.62,-447.84 1281.52,-443.05"/>
</g>
<!-- Node30 -->
<g id="node30" class="node">
<title>Node30</title>
<g id="a_node30"><a xlink:href="openenclave_8cpp.html" target="_top" xlink:title=" ">
<polygon fill="white" stroke="black" points="1539,-386 1539,-405 1667,-405 1667,-386 1539,-386"/>
<text text-anchor="middle" x="1603" y="-393" font-family="Helvetica,sans-Serif" font-size="10.00">src/js/openenclave.cpp</text>
</a>
</g>
</g>
<!-- Node24&#45;&gt;Node30 -->
<g id="edge50" class="edge">
<title>Node24&#45;&gt;Node30</title>
<path fill="none" stroke="midnightblue" d="M1318.41,-452.01C1370.91,-441.92 1456.33,-425.44 1530,-411 1539.76,-409.09 1550.26,-407.01 1560.16,-405.05"/>
<polygon fill="midnightblue" stroke="midnightblue" points="1317.52,-448.62 1308.37,-453.95 1318.85,-455.5 1317.52,-448.62"/>
</g>
<!-- Node26&#45;&gt;Node20 -->
<g id="edge43" class="edge">
<title>Node26&#45;&gt;Node20</title>
<path fill="none" stroke="midnightblue" d="M1731.14,-384.01C1723.73,-382.58 1716.18,-381.2 1709,-380 1588.7,-359.89 1445.83,-342.63 1374.78,-334.49"/>
<polygon fill="midnightblue" stroke="midnightblue" points="1730.61,-387.48 1741.1,-385.97 1731.96,-380.61 1730.61,-387.48"/>
</g>
<!-- Node27&#45;&gt;Node20 -->
<g id="edge45" class="edge">
<title>Node27&#45;&gt;Node20</title>
<path fill="none" stroke="midnightblue" d="M1139.55,-383.09C1185.24,-370.23 1258.5,-349.62 1299.57,-338.06"/>
<polygon fill="midnightblue" stroke="midnightblue" points="1138.35,-379.79 1129.68,-385.87 1140.25,-386.53 1138.35,-379.79"/>
</g>
<!-- Node28&#45;&gt;Node20 -->
<g id="edge47" class="edge">
<title>Node28&#45;&gt;Node20</title>
<path fill="none" stroke="midnightblue" d="M1234.21,-380.96C1258.2,-368.07 1293.56,-349.07 1313.94,-338.13"/>
<polygon fill="midnightblue" stroke="midnightblue" points="1232.47,-377.92 1225.32,-385.73 1235.78,-384.08 1232.47,-377.92"/>
</g>
<!-- Node29&#45;&gt;Node20 -->
<g id="edge49" class="edge">
<title>Node29&#45;&gt;Node20</title>
<path fill="none" stroke="midnightblue" d="M1330,-375.54C1330,-363.17 1330,-347.62 1330,-338.13"/>
<polygon fill="midnightblue" stroke="midnightblue" points="1326.5,-375.73 1330,-385.73 1333.5,-375.73 1326.5,-375.73"/>
</g>
<!-- Node31&#45;&gt;Node7 -->
<g id="edge55" class="edge">
<title>Node31&#45;&gt;Node7</title>
<path fill="none" stroke="midnightblue" d="M1196.71,-173.35C1163.05,-149.39 1111.2,-112.54 1110,-112 1069.07,-93.5 1019.61,-82.09 981.42,-75.4"/>
<polygon fill="midnightblue" stroke="midnightblue" points="1195.07,-176.48 1205.25,-179.43 1199.13,-170.78 1195.07,-176.48"/>
</g>
<!-- Node32 -->
<g id="node32" class="node">
<title>Node32</title>
<g id="a_node32"><a xlink:href="historical__transaction__fetcher_8h.html" target="_top" xlink:title=" ">
<polygon fill="white" stroke="black" points="1162.5,-112.5 1162.5,-142.5 1287.5,-142.5 1287.5,-112.5 1162.5,-112.5"/>
<text text-anchor="start" x="1170.5" y="-130.5" font-family="Helvetica,sans-Serif" font-size="10.00">src/indexing/historical</text>
<text text-anchor="middle" x="1225" y="-119.5" font-family="Helvetica,sans-Serif" font-size="10.00">_transaction_fetcher.h</text>
</a>
</g>
</g>
<!-- Node31&#45;&gt;Node32 -->
<g id="edge56" class="edge">
<title>Node31&#45;&gt;Node32</title>
<path fill="none" stroke="midnightblue" d="M1225,-169.11C1225,-160.15 1225,-150.32 1225,-142.58"/>
<polygon fill="midnightblue" stroke="midnightblue" points="1221.5,-169.4 1225,-179.4 1228.5,-169.4 1221.5,-169.4"/>
</g>
<!-- Node32&#45;&gt;Node7 -->
<g id="edge57" class="edge">
<title>Node32&#45;&gt;Node7</title>
<path fill="none" stroke="midnightblue" d="M1152.23,-112.3C1093.65,-100.88 1013.21,-85.18 964.01,-75.59"/>
<polygon fill="midnightblue" stroke="midnightblue" points="1151.69,-115.76 1162.17,-114.24 1153.03,-108.89 1151.69,-115.76"/>
</g>
<!-- Node33&#45;&gt;Node5 -->
<g id="edge59" class="edge">
<title>Node33&#45;&gt;Node5</title>
<path fill="none" stroke="midnightblue" d="M787.49,-440C776.17,-428.13 762.74,-414.05 754.29,-405.19"/>
<polygon fill="midnightblue" stroke="midnightblue" points="785.11,-442.58 794.55,-447.4 790.18,-437.74 785.11,-442.58"/>
</g>
<!-- Node34&#45;&gt;Node7 -->
<g id="edge62" class="edge">
<title>Node34&#45;&gt;Node7</title>
<path fill="none" stroke="midnightblue" d="M2031.27,-441.6C2042.59,-433.46 2054.26,-423.08 2062,-411 2082.06,-379.68 2081,-366.69 2081,-329.5 2081,-329.5 2081,-329.5 2081,-193.5 2081,-81.79 1220.65,-68.67 981.19,-67.18"/>
<polygon fill="midnightblue" stroke="midnightblue" points="2029.06,-438.87 2022.75,-447.39 2032.99,-444.67 2029.06,-438.87"/>
</g>
<!-- Node35 -->
<g id="node35" class="node">
<title>Node35</title>
<g id="a_node35"><a xlink:href="historical__queries__adapter_8cpp.html" target="_top" xlink:title=" ">
<polygon fill="white" stroke="black" points="1933,-380.5 1933,-410.5 2053,-410.5 2053,-380.5 1933,-380.5"/>
<text text-anchor="start" x="1941" y="-398.5" font-family="Helvetica,sans-Serif" font-size="10.00">src/node/historical</text>
<text text-anchor="middle" x="1993" y="-387.5" font-family="Helvetica,sans-Serif" font-size="10.00">_queries_adapter.cpp</text>
</a>
</g>
</g>
<!-- Node34&#45;&gt;Node35 -->
<g id="edge63" class="edge">
<title>Node34&#45;&gt;Node35</title>
<path fill="none" stroke="midnightblue" d="M1995.52,-437.4C1994.96,-428.37 1994.35,-418.41 1993.87,-410.58"/>
<polygon fill="midnightblue" stroke="midnightblue" points="1992.02,-437.63 1996.13,-447.4 1999.01,-437.2 1992.02,-437.63"/>
</g>
<!-- Node36&#45;&gt;Node7 -->
<g id="edge66" class="edge">
<title>Node36&#45;&gt;Node7</title>
<path fill="none" stroke="midnightblue" d="M2185.34,-241.98C2174.16,-209.02 2145.81,-140.93 2095,-112 2046.27,-84.25 1215.4,-70.98 981.08,-67.78"/>
<polygon fill="midnightblue" stroke="midnightblue" points="2182.07,-243.26 2188.48,-251.7 2188.74,-241.11 2182.07,-243.26"/>
</g>
</g>
</svg>
        <g id="navigator" transform="translate(0 0)" fill="#404254">
                <rect fill="#f2f5e9" fill-opacity="0.5" stroke="#606060" stroke-width=".5" x="0" y="0" width="60" height="60"/>
                <use id="zoomplus" xlink:href="#zoomPlus" x="17" y="9" onmousedown="handleZoom(evt,'in')"/>
                <use id="zoomminus" xlink:href="#zoomMin" x="42" y="9" onmousedown="handleZoom(evt,'out')"/>
                <use id="reset" xlink:href="#resetDef" x="30" y="36" onmousedown="handleReset()"/>
                <g id="arrowUp" xlink:href="#dirArrow" transform="translate(30 24)" onmousedown="handlePan(0,-1)">
                  <use xlink:href="#rim" fill="#404040">
                        <set attributeName="fill" to="#808080" begin="arrowUp.mouseover" end="arrowUp.mouseout"/>
                  </use>
                  <path fill="none" stroke="white" stroke-width="1.5" d="M0,-3.0v7 M-2.5,-0.5L0,-3.0L2.5,-0.5"/>
                </g>
                <g id="arrowRight" xlink:href="#dirArrow" transform="rotate(90) translate(36 -43)" onmousedown="handlePan(1,0)">
                  <use xlink:href="#rim" fill="#404040">
                        <set attributeName="fill" to="#808080" begin="arrowRight.mouseover" end="arrowRight.mouseout"/>
                  </use>
                  <path fill="none" stroke="white" stroke-width="1.5" d="M0,-3.0v7 M-2.5,-0.5L0,-3.0L2.5,-0.5"/>
                </g>
                <g id="arrowDown" xlink:href="#dirArrow" transform="rotate(180) translate(-30 -48)" onmousedown="handlePan(0,1)">
                  <use xlink:href="#rim" fill="#404040">
                        <set attributeName="fill" to="#808080" begin="arrowDown.mouseover" end="arrowDown.mouseout"/>
                  </use>
                  <path fill="none" stroke="white" stroke-width="1.5" d="M0,-3.0v7 M-2.5,-0.5L0,-3.0L2.5,-0.5"/>
                </g>
                <g id="arrowLeft" xlink:href="#dirArrow" transform="rotate(270) translate(-36 17)" onmousedown="handlePan(-1,0)">
                  <use xlink:href="#rim" fill="#404040">
                        <set attributeName="fill" to="#808080" begin="arrowLeft.mouseover" end="arrowLeft.mouseout"/>
                  </use>
                  <path fill="none" stroke="white" stroke-width="1.5" d="M0,-3.0v7 M-2.5,-0.5L0,-3.0L2.5,-0.5"/>
                </g>
        </g>
        <svg viewBox="0 0 15 15" width="100%" height="30px" preserveAspectRatio="xMaxYMin meet">
         <g id="arrow_out" transform="scale(0.3 0.3)">
          <a xlink:href="enclave__interface__types_8h__dep__incl_org.svg" target="_base">
           <rect id="button" ry="5" rx="5" y="6" x="6" height="38" width="38"
                fill="#f2f5e9" fill-opacity="0.5" stroke="#606060" stroke-width="1.0"/>
           <path id="arrow"
             d="M 11.500037,31.436501 C 11.940474,20.09759 22.043105,11.32322 32.158766,21.979434 L 37.068811,17.246167 C 37.068811,17.246167 37.088388,32 37.088388,32 L 22.160133,31.978069 C 22.160133,31.978069 26.997745,27.140456 26.997745,27.140456 C 18.528582,18.264221 13.291696,25.230495 11.500037,31.436501 z"
             style="fill:#404040;"/>
          </a>
         </g>
        </svg>
</svg>
