<?xml version="1.0" encoding="UTF-8" standalone="no"?>
<!DOCTYPE svg PUBLIC "-//W3C//DTD SVG 1.1//EN"
 "http://www.w3.org/Graphics/SVG/1.1/DTD/svg11.dtd">
<!-- Generated by graphviz version 2.43.0 (0)
 -->
<!-- Title: src/node/ledger_secret.h Pages: 1 -->
<svg width="2367pt" height="654pt"
 viewBox="0.00 0.00 2366.71 654.00" xmlns="http://www.w3.org/2000/svg" xmlns:xlink="http://www.w3.org/1999/xlink">
<g id="graph0" class="graph" transform="scale(1 1) rotate(0) translate(4 650)">
<title>src/node/ledger_secret.h</title>
<polygon fill="white" stroke="transparent" points="-4,4 -4,-650 2362.71,-650 2362.71,4 -4,4"/>
<!-- Node1 -->
<g id="node1" class="node">
<title>Node1</title>
<g id="a_node1"><a xlink:title=" ">
<polygon fill="#bfbfbf" stroke="black" points="1180,-626.5 1180,-645.5 1316,-645.5 1316,-626.5 1180,-626.5"/>
<text text-anchor="middle" x="1248" y="-633.5" font-family="Helvetica,sans-Serif" font-size="10.00">src/node/ledger_secret.h</text>
</a>
</g>
</g>
<!-- Node2 -->
<g id="node2" class="node">
<title>Node2</title>
<g id="a_node2"><a xlink:href="ledger__secrets_8h.html" target="_top" xlink:title=" ">
<polygon fill="white" stroke="black" points="1177.5,-570.5 1177.5,-589.5 1318.5,-589.5 1318.5,-570.5 1177.5,-570.5"/>
<text text-anchor="middle" x="1248" y="-577.5" font-family="Helvetica,sans-Serif" font-size="10.00">src/node/ledger_secrets.h</text>
</a>
</g>
</g>
<!-- Node1&#45;&gt;Node2 -->
<g id="edge1" class="edge">
<title>Node1&#45;&gt;Node2</title>
<path fill="none" stroke="midnightblue" d="M1248,-615.8C1248,-606.91 1248,-596.78 1248,-589.75"/>
<polygon fill="midnightblue" stroke="midnightblue" points="1244.5,-616.08 1248,-626.08 1251.5,-616.08 1244.5,-616.08"/>
</g>
<!-- Node3 -->
<g id="node3" class="node">
<title>Node3</title>
<g id="a_node3"><a xlink:href="node_2encryptor_8h.html" target="_top" xlink:title=" ">
<polygon fill="white" stroke="black" points="41,-252 41,-271 157,-271 157,-252 41,-252"/>
<text text-anchor="middle" x="99" y="-259" font-family="Helvetica,sans-Serif" font-size="10.00">src/node/encryptor.h</text>
</a>
</g>
</g>
<!-- Node2&#45;&gt;Node3 -->
<g id="edge2" class="edge">
<title>Node2&#45;&gt;Node3</title>
<path fill="none" stroke="midnightblue" d="M1167.15,-578.78C909.26,-577.04 123,-563.1 123,-458 123,-458 123,-458 123,-394.5 123,-347.22 107.91,-291.92 101.66,-271.05"/>
<polygon fill="midnightblue" stroke="midnightblue" points="1167.18,-582.28 1177.2,-578.85 1167.22,-575.29 1167.18,-582.28"/>
</g>
<!-- Node4 -->
<g id="node4" class="node">
<title>Node4</title>
<g id="a_node4"><a xlink:href="historical__queries_8h.html" target="_top" xlink:title=" ">
<polygon fill="white" stroke="black" points="0,-179.5 0,-209.5 106,-209.5 106,-179.5 0,-179.5"/>
<text text-anchor="start" x="8" y="-197.5" font-family="Helvetica,sans-Serif" font-size="10.00">src/node/historical</text>
<text text-anchor="middle" x="53" y="-186.5" font-family="Helvetica,sans-Serif" font-size="10.00">_queries.h</text>
</a>
</g>
</g>
<!-- Node2&#45;&gt;Node4 -->
<g id="edge12" class="edge">
<title>Node2&#45;&gt;Node4</title>
<path fill="none" stroke="midnightblue" d="M1167.07,-579.64C951.2,-580.71 365.38,-579.23 178,-534 99.52,-515.06 13,-538.74 13,-458 13,-458 13,-458 13,-327.5 13,-282.96 34.12,-233.46 45.66,-209.72"/>
<polygon fill="midnightblue" stroke="midnightblue" points="1167.4,-583.14 1177.38,-579.59 1167.36,-576.14 1167.4,-583.14"/>
</g>
<!-- Node10 -->
<g id="node10" class="node">
<title>Node10</title>
<g id="a_node10"><a xlink:href="network__state_8h.html" target="_top" xlink:title=" ">
<polygon fill="white" stroke="black" points="1061,-386 1061,-405 1201,-405 1201,-386 1061,-386"/>
<text text-anchor="middle" x="1131" y="-393" font-family="Helvetica,sans-Serif" font-size="10.00">src/node/network_state.h</text>
</a>
</g>
</g>
<!-- Node2&#45;&gt;Node10 -->
<g id="edge13" class="edge">
<title>Node2&#45;&gt;Node10</title>
<path fill="none" stroke="midnightblue" d="M1235.04,-562.04C1228.81,-553.71 1221.34,-543.46 1215,-534 1183.07,-486.37 1148.41,-426.85 1135.87,-405.03"/>
<polygon fill="midnightblue" stroke="midnightblue" points="1232.38,-564.32 1241.2,-570.19 1237.96,-560.1 1232.38,-564.32"/>
</g>
<!-- Node25 -->
<g id="node25" class="node">
<title>Node25</title>
<g id="a_node25"><a xlink:href="secret__broadcast_8h.html" target="_top" xlink:title=" ">
<polygon fill="white" stroke="black" points="1251.5,-319 1251.5,-338 1404.5,-338 1404.5,-319 1251.5,-319"/>
<text text-anchor="middle" x="1328" y="-326" font-family="Helvetica,sans-Serif" font-size="10.00">src/node/secret_broadcast.h</text>
</a>
</g>
</g>
<!-- Node2&#45;&gt;Node25 -->
<g id="edge65" class="edge">
<title>Node2&#45;&gt;Node25</title>
<path fill="none" stroke="midnightblue" d="M1243.18,-560.46C1234.63,-523.49 1220.62,-439.04 1253,-380 1264.17,-359.63 1287.49,-345.93 1305.18,-338"/>
<polygon fill="midnightblue" stroke="midnightblue" points="1239.82,-561.46 1245.59,-570.34 1246.61,-559.79 1239.82,-561.46"/>
</g>
<!-- Node26 -->
<g id="node26" class="node">
<title>Node26</title>
<g id="a_node26"><a xlink:href="share__manager_8h.html" target="_top" xlink:title=" ">
<polygon fill="white" stroke="black" points="1422.5,-319 1422.5,-338 1567.5,-338 1567.5,-319 1422.5,-319"/>
<text text-anchor="middle" x="1495" y="-326" font-family="Helvetica,sans-Serif" font-size="10.00">src/node/share_manager.h</text>
</a>
</g>
</g>
<!-- Node2&#45;&gt;Node26 -->
<g id="edge66" class="edge">
<title>Node2&#45;&gt;Node26</title>
<path fill="none" stroke="midnightblue" d="M1262.79,-562.79C1277.02,-547.28 1299.23,-523.3 1319,-503 1381.85,-438.44 1460.02,-363.05 1486.08,-338.04"/>
<polygon fill="midnightblue" stroke="midnightblue" points="1259.94,-560.72 1255.77,-570.46 1265.1,-565.44 1259.94,-560.72"/>
</g>
<!-- Node28 -->
<g id="node28" class="node">
<title>Node28</title>
<g id="a_node28"><a xlink:href="call__types_8h.html" target="_top" xlink:title=" ">
<polygon fill="white" stroke="black" points="1878.5,-447.5 1878.5,-466.5 2015.5,-466.5 2015.5,-447.5 1878.5,-447.5"/>
<text text-anchor="middle" x="1947" y="-454.5" font-family="Helvetica,sans-Serif" font-size="10.00">src/node/rpc/call_types.h</text>
</a>
</g>
</g>
<!-- Node2&#45;&gt;Node28 -->
<g id="edge49" class="edge">
<title>Node2&#45;&gt;Node28</title>
<path fill="none" stroke="midnightblue" d="M1329.16,-578.33C1428.43,-575.98 1601.04,-566.96 1745,-534 1815.49,-517.86 1894.51,-482.86 1929.13,-466.61"/>
<polygon fill="midnightblue" stroke="midnightblue" points="1328.82,-574.83 1318.9,-578.55 1328.97,-581.83 1328.82,-574.83"/>
</g>
<!-- Node33 -->
<g id="node33" class="node">
<title>Node33</title>
<g id="a_node33"><a xlink:href="node__call__types_8h.html" target="_top" xlink:title=" ">
<polygon fill="white" stroke="black" points="1610.5,-503.5 1610.5,-533.5 1735.5,-533.5 1735.5,-503.5 1610.5,-503.5"/>
<text text-anchor="start" x="1618.5" y="-521.5" font-family="Helvetica,sans-Serif" font-size="10.00">src/node/rpc/node_call</text>
<text text-anchor="middle" x="1673" y="-510.5" font-family="Helvetica,sans-Serif" font-size="10.00">_types.h</text>
</a>
</g>
</g>
<!-- Node2&#45;&gt;Node33 -->
<g id="edge63" class="edge">
<title>Node2&#45;&gt;Node33</title>
<path fill="none" stroke="midnightblue" d="M1319.06,-569.05C1400.53,-557.65 1532.8,-539.13 1610.49,-528.25"/>
<polygon fill="midnightblue" stroke="midnightblue" points="1318.31,-565.62 1308.89,-570.48 1319.28,-572.55 1318.31,-565.62"/>
</g>
<!-- Node34 -->
<g id="node34" class="node">
<title>Node34</title>
<g id="a_node34"><a xlink:href="genesis__gen_8h.html" target="_top" xlink:title=" ">
<polygon fill="white" stroke="black" points="1491,-380.5 1491,-410.5 1601,-410.5 1601,-380.5 1491,-380.5"/>
<text text-anchor="start" x="1499" y="-398.5" font-family="Helvetica,sans-Serif" font-size="10.00">src/service/genesis</text>
<text text-anchor="middle" x="1546" y="-387.5" font-family="Helvetica,sans-Serif" font-size="10.00">_gen.h</text>
</a>
</g>
</g>
<!-- Node2&#45;&gt;Node34 -->
<g id="edge67" class="edge">
<title>Node2&#45;&gt;Node34</title>
<path fill="none" stroke="midnightblue" d="M1270.66,-565.12C1325.87,-531.31 1466.88,-444.95 1522.72,-410.75"/>
<polygon fill="midnightblue" stroke="midnightblue" points="1268.67,-562.24 1261.97,-570.44 1272.33,-568.2 1268.67,-562.24"/>
</g>
<!-- Node3&#45;&gt;Node4 -->
<g id="edge3" class="edge">
<title>Node3&#45;&gt;Node4</title>
<path fill="none" stroke="midnightblue" d="M86.87,-243.35C79.41,-232.82 69.99,-219.5 62.97,-209.59"/>
<polygon fill="midnightblue" stroke="midnightblue" points="84.16,-245.59 92.8,-251.73 89.88,-241.55 84.16,-245.59"/>
</g>
<!-- Node8 -->
<g id="node8" class="node">
<title>Node8</title>
<g id="a_node8"><a xlink:href="node__state_8h.html" target="_top" xlink:title=" ">
<polygon fill="white" stroke="black" points="1357,-185 1357,-204 1481,-204 1481,-185 1357,-185"/>
<text text-anchor="middle" x="1419" y="-192" font-family="Helvetica,sans-Serif" font-size="10.00">src/node/node_state.h</text>
</a>
</g>
</g>
<!-- Node3&#45;&gt;Node8 -->
<g id="edge8" class="edge">
<title>Node3&#45;&gt;Node8</title>
<path fill="none" stroke="midnightblue" d="M167.49,-254.43C201.33,-251.59 242.79,-248.31 280,-246 690.67,-220.45 1185.42,-203.1 1356.92,-197.47"/>
<polygon fill="midnightblue" stroke="midnightblue" points="166.91,-250.97 157.25,-255.3 167.51,-257.95 166.91,-250.97"/>
</g>
<!-- Node5 -->
<g id="node5" class="node">
<title>Node5</title>
<g id="a_node5"><a xlink:href="enclave_2enclave_8h.html" target="_top" xlink:title=" ">
<polygon fill="white" stroke="black" points="630,-56.5 630,-75.5 752,-75.5 752,-56.5 630,-56.5"/>
<text text-anchor="middle" x="691" y="-63.5" font-family="Helvetica,sans-Serif" font-size="10.00">src/enclave/enclave.h</text>
</a>
</g>
</g>
<!-- Node4&#45;&gt;Node5 -->
<g id="edge4" class="edge">
<title>Node4&#45;&gt;Node5</title>
<path fill="none" stroke="midnightblue" d="M33.12,-171.2C19.57,-153.27 6.63,-128.44 22,-112 63.02,-68.13 472.67,-65.75 629.95,-66.47"/>
<polygon fill="midnightblue" stroke="midnightblue" points="30.7,-173.79 39.7,-179.39 36.16,-169.4 30.7,-173.79"/>
</g>
<!-- Node7 -->
<g id="node7" class="node">
<title>Node7</title>
<g id="a_node7"><a xlink:href="historical__transaction__fetcher_8h.html" target="_top" xlink:title=" ">
<polygon fill="white" stroke="black" points="31.5,-112.5 31.5,-142.5 156.5,-142.5 156.5,-112.5 31.5,-112.5"/>
<text text-anchor="start" x="39.5" y="-130.5" font-family="Helvetica,sans-Serif" font-size="10.00">src/indexing/historical</text>
<text text-anchor="middle" x="94" y="-119.5" font-family="Helvetica,sans-Serif" font-size="10.00">_transaction_fetcher.h</text>
</a>
</g>
</g>
<!-- Node4&#45;&gt;Node7 -->
<g id="edge6" class="edge">
<title>Node4&#45;&gt;Node7</title>
<path fill="none" stroke="midnightblue" d="M67.28,-170.87C73.21,-161.46 79.91,-150.83 85.12,-142.58"/>
<polygon fill="midnightblue" stroke="midnightblue" points="64.27,-169.07 61.9,-179.4 70.19,-172.81 64.27,-169.07"/>
</g>
<!-- Node6 -->
<g id="node6" class="node">
<title>Node6</title>
<g id="a_node6"><a xlink:href="enclave_2main_8cpp.html" target="_top" xlink:title=" ">
<polygon fill="white" stroke="black" points="631,-0.5 631,-19.5 751,-19.5 751,-0.5 631,-0.5"/>
<text text-anchor="middle" x="691" y="-7.5" font-family="Helvetica,sans-Serif" font-size="10.00">src/enclave/main.cpp</text>
</a>
</g>
</g>
<!-- Node5&#45;&gt;Node6 -->
<g id="edge5" class="edge">
<title>Node5&#45;&gt;Node6</title>
<path fill="none" stroke="midnightblue" d="M691,-45.8C691,-36.91 691,-26.78 691,-19.75"/>
<polygon fill="midnightblue" stroke="midnightblue" points="687.5,-46.08 691,-56.08 694.5,-46.08 687.5,-46.08"/>
</g>
<!-- Node7&#45;&gt;Node5 -->
<g id="edge7" class="edge">
<title>Node7&#45;&gt;Node5</title>
<path fill="none" stroke="midnightblue" d="M166.54,-112.63C168.04,-112.41 169.53,-112.2 171,-112 336.19,-89.36 532.55,-76.02 629.94,-70.3"/>
<polygon fill="midnightblue" stroke="midnightblue" points="165.88,-109.19 156.53,-114.18 166.95,-116.11 165.88,-109.19"/>
</g>
<!-- Node8&#45;&gt;Node5 -->
<g id="edge9" class="edge">
<title>Node8&#45;&gt;Node5</title>
<path fill="none" stroke="midnightblue" d="M1368.13,-182.84C1289.28,-166.48 1132.68,-134.72 999,-112 913.63,-97.49 814.45,-83.51 752.2,-75.09"/>
<polygon fill="midnightblue" stroke="midnightblue" points="1367.77,-186.33 1378.28,-184.94 1369.2,-179.48 1367.77,-186.33"/>
</g>
<!-- Node9 -->
<g id="node9" class="node">
<title>Node9</title>
<g id="a_node9"><a xlink:href="gov__effects_8h.html" target="_top" xlink:title=" ">
<polygon fill="white" stroke="black" points="1273,-118 1273,-137 1417,-137 1417,-118 1273,-118"/>
<text text-anchor="middle" x="1345" y="-125" font-family="Helvetica,sans-Serif" font-size="10.00">src/node/rpc/gov_effects.h</text>
</a>
</g>
</g>
<!-- Node8&#45;&gt;Node9 -->
<g id="edge10" class="edge">
<title>Node8&#45;&gt;Node9</title>
<path fill="none" stroke="midnightblue" d="M1401.19,-177.86C1386.64,-165.08 1366.62,-147.49 1354.82,-137.13"/>
<polygon fill="midnightblue" stroke="midnightblue" points="1399.2,-180.76 1409.02,-184.73 1403.82,-175.5 1399.2,-180.76"/>
</g>
<!-- Node9&#45;&gt;Node5 -->
<g id="edge11" class="edge">
<title>Node9&#45;&gt;Node5</title>
<path fill="none" stroke="midnightblue" d="M1262.69,-119.01C1129.67,-106.91 870.42,-83.32 752.29,-72.58"/>
<polygon fill="midnightblue" stroke="midnightblue" points="1262.55,-122.51 1272.83,-119.93 1263.18,-115.54 1262.55,-122.51"/>
</g>
<!-- Node10&#45;&gt;Node5 -->
<g id="edge14" class="edge">
<title>Node10&#45;&gt;Node5</title>
<path fill="none" stroke="midnightblue" d="M1050.74,-393.02C880.45,-389.25 487.99,-377.17 359,-344 276.29,-322.73 185,-347.9 185,-262.5 185,-262.5 185,-262.5 185,-193.5 185,-156.2 176.75,-136.35 205,-112 236.53,-84.83 506,-72.86 629.55,-68.76"/>
<polygon fill="midnightblue" stroke="midnightblue" points="1050.82,-396.52 1060.9,-393.24 1050.97,-389.52 1050.82,-396.52"/>
</g>
<!-- Node10&#45;&gt;Node8 -->
<g id="edge35" class="edge">
<title>Node10&#45;&gt;Node8</title>
<path fill="none" stroke="midnightblue" d="M1152.25,-380.34C1166.96,-370.42 1186.89,-356.7 1204,-344 1221.78,-330.81 1223.15,-322.81 1243,-313 1301.75,-283.96 1336.57,-320.03 1386,-277 1408.34,-257.55 1415.77,-220.78 1418.06,-204.1"/>
<polygon fill="midnightblue" stroke="midnightblue" points="1150.19,-377.51 1143.84,-385.99 1154.09,-383.32 1150.19,-377.51"/>
</g>
<!-- Node11 -->
<g id="node11" class="node">
<title>Node11</title>
<g id="a_node11"><a xlink:href="wrap_8h.html" target="_top" xlink:title=" ">
<polygon fill="white" stroke="black" points="933,-319 933,-338 1011,-338 1011,-319 933,-319"/>
<text text-anchor="middle" x="972" y="-326" font-family="Helvetica,sans-Serif" font-size="10.00">src/js/wrap.h</text>
</a>
</g>
</g>
<!-- Node10&#45;&gt;Node11 -->
<g id="edge15" class="edge">
<title>Node10&#45;&gt;Node11</title>
<path fill="none" stroke="midnightblue" d="M1100.27,-381.94C1068.69,-369.03 1020.38,-349.28 992.95,-338.06"/>
<polygon fill="midnightblue" stroke="midnightblue" points="1099.31,-385.32 1109.89,-385.87 1101.95,-378.84 1099.31,-385.32"/>
</g>
<!-- Node20 -->
<g id="node20" class="node">
<title>Node20</title>
<g id="a_node20"><a xlink:href="acme__challenge__frontend_8h.html" target="_top" xlink:title=" ">
<polygon fill="white" stroke="black" points="775,-313.5 775,-343.5 915,-343.5 915,-313.5 775,-313.5"/>
<text text-anchor="start" x="783" y="-331.5" font-family="Helvetica,sans-Serif" font-size="10.00">src/node/acme_challenge</text>
<text text-anchor="middle" x="845" y="-320.5" font-family="Helvetica,sans-Serif" font-size="10.00">_frontend.h</text>
</a>
</g>
</g>
<!-- Node10&#45;&gt;Node20 -->
<g id="edge31" class="edge">
<title>Node10&#45;&gt;Node20</title>
<path fill="none" stroke="midnightblue" d="M1083.42,-383.69C1035.03,-372.69 959.84,-355.6 906.86,-343.56"/>
<polygon fill="midnightblue" stroke="midnightblue" points="1082.79,-387.13 1093.32,-385.94 1084.34,-380.31 1082.79,-387.13"/>
</g>
<!-- Node22 -->
<g id="node22" class="node">
<title>Node22</title>
<g id="a_node22"><a xlink:href="node__frontend_8h.html" target="_top" xlink:title=" ">
<polygon fill="white" stroke="black" points="1624,-319 1624,-338 1782,-338 1782,-319 1624,-319"/>
<text text-anchor="middle" x="1703" y="-326" font-family="Helvetica,sans-Serif" font-size="10.00">src/node/rpc/node_frontend.h</text>
</a>
</g>
</g>
<!-- Node10&#45;&gt;Node22 -->
<g id="edge36" class="edge">
<title>Node10&#45;&gt;Node22</title>
<path fill="none" stroke="midnightblue" d="M1211.36,-385.45C1300.66,-375.37 1449.15,-358.59 1577,-344 1593.85,-342.08 1611.96,-340 1629.05,-338.03"/>
<polygon fill="midnightblue" stroke="midnightblue" points="1210.84,-381.98 1201.3,-386.58 1211.63,-388.94 1210.84,-381.98"/>
</g>
<!-- Node24 -->
<g id="node24" class="node">
<title>Node24</title>
<g id="a_node24"><a xlink:href="user__frontend_8h.html" target="_top" xlink:title=" ">
<polygon fill="white" stroke="black" points="213.5,-118 213.5,-137 368.5,-137 368.5,-118 213.5,-118"/>
<text text-anchor="middle" x="291" y="-125" font-family="Helvetica,sans-Serif" font-size="10.00">src/node/rpc/user_frontend.h</text>
</a>
</g>
</g>
<!-- Node10&#45;&gt;Node24 -->
<g id="edge40" class="edge">
<title>Node10&#45;&gt;Node24</title>
<path fill="none" stroke="midnightblue" d="M1050.75,-389.49C846.63,-375.93 320.13,-335.57 269,-277 233.01,-235.77 270.87,-162.25 285.64,-137.17"/>
<polygon fill="midnightblue" stroke="midnightblue" points="1050.6,-392.99 1060.81,-390.15 1051.06,-386 1050.6,-392.99"/>
</g>
<!-- Node10&#45;&gt;Node25 -->
<g id="edge42" class="edge">
<title>Node10&#45;&gt;Node25</title>
<path fill="none" stroke="midnightblue" d="M1167.06,-382.6C1206.12,-369.71 1267.47,-349.47 1302.05,-338.06"/>
<polygon fill="midnightblue" stroke="midnightblue" points="1165.56,-379.41 1157.16,-385.87 1167.75,-386.06 1165.56,-379.41"/>
</g>
<!-- Node10&#45;&gt;Node26 -->
<g id="edge44" class="edge">
<title>Node10&#45;&gt;Node26</title>
<path fill="none" stroke="midnightblue" d="M1189.01,-384.16C1246.22,-373.96 1336.14,-357.92 1414,-344 1424.83,-342.06 1436.47,-339.98 1447.46,-338.02"/>
<polygon fill="midnightblue" stroke="midnightblue" points="1188.3,-380.73 1179.07,-385.93 1189.53,-387.62 1188.3,-380.73"/>
</g>
<!-- Node27 -->
<g id="node27" class="node">
<title>Node27</title>
<g id="a_node27"><a xlink:href="snapshotter_8h.html" target="_top" xlink:title=" ">
<polygon fill="white" stroke="black" points="1067.5,-319 1067.5,-338 1194.5,-338 1194.5,-319 1067.5,-319"/>
<text text-anchor="middle" x="1131" y="-326" font-family="Helvetica,sans-Serif" font-size="10.00">src/node/snapshotter.h</text>
</a>
</g>
</g>
<!-- Node10&#45;&gt;Node27 -->
<g id="edge47" class="edge">
<title>Node10&#45;&gt;Node27</title>
<path fill="none" stroke="midnightblue" d="M1131,-375.54C1131,-363.17 1131,-347.62 1131,-338.13"/>
<polygon fill="midnightblue" stroke="midnightblue" points="1127.5,-375.73 1131,-385.73 1134.5,-375.73 1127.5,-375.73"/>
</g>
<!-- Node11&#45;&gt;Node5 -->
<g id="edge17" class="edge">
<title>Node11&#45;&gt;Node5</title>
<path fill="none" stroke="midnightblue" d="M975.38,-308.88C977.56,-291.41 978.2,-265.18 967,-246 910.14,-148.59 776.74,-94.94 718.74,-75.51"/>
<polygon fill="midnightblue" stroke="midnightblue" points="971.9,-308.51 973.84,-318.93 978.82,-309.58 971.9,-308.51"/>
</g>
<!-- Node11&#45;&gt;Node8 -->
<g id="edge28" class="edge">
<title>Node11&#45;&gt;Node8</title>
<path fill="none" stroke="midnightblue" d="M1021.46,-319.19C1033.73,-317.14 1046.84,-314.98 1059,-313 1159.83,-296.6 1190.17,-312.36 1286,-277 1335.54,-258.72 1386.78,-221 1408.38,-204.06"/>
<polygon fill="midnightblue" stroke="midnightblue" points="1020.69,-315.77 1011.4,-320.87 1021.84,-322.67 1020.69,-315.77"/>
</g>
<!-- Node12 -->
<g id="node12" class="node">
<title>Node12</title>
<g id="a_node12"><a xlink:href="js__generic__base_8cpp.html" target="_top" xlink:title=" ">
<polygon fill="white" stroke="black" points="1013,-246.5 1013,-276.5 1131,-276.5 1131,-246.5 1013,-246.5"/>
<text text-anchor="start" x="1021" y="-264.5" font-family="Helvetica,sans-Serif" font-size="10.00">src/apps/js_generic</text>
<text text-anchor="middle" x="1072" y="-253.5" font-family="Helvetica,sans-Serif" font-size="10.00">/js_generic_base.cpp</text>
</a>
</g>
</g>
<!-- Node11&#45;&gt;Node12 -->
<g id="edge16" class="edge">
<title>Node11&#45;&gt;Node12</title>
<path fill="none" stroke="midnightblue" d="M994.07,-313.15C1010.81,-302.27 1033.69,-287.4 1050.32,-276.59"/>
<polygon fill="midnightblue" stroke="midnightblue" points="991.96,-310.35 985.49,-318.73 995.78,-316.22 991.96,-310.35"/>
</g>
<!-- Node13 -->
<g id="node13" class="node">
<title>Node13</title>
<g id="a_node13"><a xlink:href="js_2consensus_8cpp.html" target="_top" xlink:title=" ">
<polygon fill="white" stroke="black" points="509,-252 509,-271 625,-271 625,-252 509,-252"/>
<text text-anchor="middle" x="567" y="-259" font-family="Helvetica,sans-Serif" font-size="10.00">src/js/consensus.cpp</text>
</a>
</g>
</g>
<!-- Node11&#45;&gt;Node13 -->
<g id="edge18" class="edge">
<title>Node11&#45;&gt;Node13</title>
<path fill="none" stroke="midnightblue" d="M936.77,-316.12C932.5,-314.96 928.17,-313.88 924,-313 796.93,-286.12 762.04,-298.76 634,-277 624.14,-275.33 613.54,-273.19 603.75,-271.07"/>
<polygon fill="midnightblue" stroke="midnightblue" points="935.97,-319.53 946.55,-318.93 937.91,-312.8 935.97,-319.53"/>
</g>
<!-- Node14 -->
<g id="node14" class="node">
<title>Node14</title>
<g id="a_node14"><a xlink:href="wrap_8cpp.html" target="_top" xlink:title=" ">
<polygon fill="white" stroke="black" points="588.5,-185 588.5,-204 677.5,-204 677.5,-185 588.5,-185"/>
<text text-anchor="middle" x="633" y="-192" font-family="Helvetica,sans-Serif" font-size="10.00">src/js/wrap.cpp</text>
</a>
</g>
</g>
<!-- Node11&#45;&gt;Node14 -->
<g id="edge27" class="edge">
<title>Node11&#45;&gt;Node14</title>
<path fill="none" stroke="midnightblue" d="M934.2,-316.04C930.75,-315.01 927.31,-313.98 924,-313 868.98,-296.7 850.81,-303.67 800,-277 780.7,-266.87 780.82,-256.99 762,-246 729.71,-227.14 689.05,-212.56 662.1,-204.02"/>
<polygon fill="midnightblue" stroke="midnightblue" points="933.26,-319.41 943.84,-318.94 935.27,-312.71 933.26,-319.41"/>
</g>
<!-- Node15 -->
<g id="node15" class="node">
<title>Node15</title>
<g id="a_node15"><a xlink:href="conv_8cpp.html" target="_top" xlink:title=" ">
<polygon fill="white" stroke="black" points="289,-252 289,-271 377,-271 377,-252 289,-252"/>
<text text-anchor="middle" x="333" y="-259" font-family="Helvetica,sans-Serif" font-size="10.00">src/js/conv.cpp</text>
</a>
</g>
</g>
<!-- Node11&#45;&gt;Node15 -->
<g id="edge20" class="edge">
<title>Node11&#45;&gt;Node15</title>
<path fill="none" stroke="midnightblue" d="M937.63,-316.1C933.08,-314.89 928.46,-313.81 924,-313 688.23,-270.07 622.31,-316.82 386,-277 377.44,-275.56 368.27,-273.31 360,-271.01"/>
<polygon fill="midnightblue" stroke="midnightblue" points="936.77,-319.49 947.35,-318.89 938.7,-312.77 936.77,-319.49"/>
</g>
<!-- Node16 -->
<g id="node16" class="node">
<title>Node16</title>
<g id="a_node16"><a xlink:href="js_2crypto_8cpp.html" target="_top" xlink:title=" ">
<polygon fill="white" stroke="black" points="395,-252 395,-271 491,-271 491,-252 395,-252"/>
<text text-anchor="middle" x="443" y="-259" font-family="Helvetica,sans-Serif" font-size="10.00">src/js/crypto.cpp</text>
</a>
</g>
</g>
<!-- Node11&#45;&gt;Node16 -->
<g id="edge22" class="edge">
<title>Node11&#45;&gt;Node16</title>
<path fill="none" stroke="midnightblue" d="M937.61,-316.17C933.07,-314.96 928.45,-313.85 924,-313 738.25,-277.46 686.49,-308.42 500,-277 491.04,-275.49 481.42,-273.28 472.68,-271.03"/>
<polygon fill="midnightblue" stroke="midnightblue" points="936.76,-319.57 947.33,-318.97 938.69,-312.84 936.76,-319.57"/>
</g>
<!-- Node17 -->
<g id="node17" class="node">
<title>Node17</title>
<g id="a_node17"><a xlink:href="js_2historical_8cpp.html" target="_top" xlink:title=" ">
<polygon fill="white" stroke="black" points="643,-252 643,-271 753,-271 753,-252 643,-252"/>
<text text-anchor="middle" x="698" y="-259" font-family="Helvetica,sans-Serif" font-size="10.00">src/js/historical.cpp</text>
</a>
</g>
</g>
<!-- Node11&#45;&gt;Node17 -->
<g id="edge24" class="edge">
<title>Node11&#45;&gt;Node17</title>
<path fill="none" stroke="midnightblue" d="M935.14,-316.07C931.38,-314.99 927.62,-313.95 924,-313 889.29,-303.89 793.11,-282.93 738.05,-271.08"/>
<polygon fill="midnightblue" stroke="midnightblue" points="934.36,-319.48 944.94,-318.95 936.33,-312.77 934.36,-319.48"/>
</g>
<!-- Node18 -->
<g id="node18" class="node">
<title>Node18</title>
<g id="a_node18"><a xlink:href="openenclave_8cpp.html" target="_top" xlink:title=" ">
<polygon fill="white" stroke="black" points="1149,-252 1149,-271 1277,-271 1277,-252 1149,-252"/>
<text text-anchor="middle" x="1213" y="-259" font-family="Helvetica,sans-Serif" font-size="10.00">src/js/openenclave.cpp</text>
</a>
</g>
</g>
<!-- Node11&#45;&gt;Node18 -->
<g id="edge26" class="edge">
<title>Node11&#45;&gt;Node18</title>
<path fill="none" stroke="midnightblue" d="M1013.05,-316.25C1017.09,-315.15 1021.12,-314.05 1025,-313 1079.8,-298.14 1143.64,-281.04 1181.05,-271.03"/>
<polygon fill="midnightblue" stroke="midnightblue" points="1011.83,-312.96 1003.1,-318.97 1013.67,-319.71 1011.83,-312.96"/>
</g>
<!-- Node19 -->
<g id="node19" class="node">
<title>Node19</title>
<g id="a_node19"><a xlink:href="member__frontend_8h.html" target="_top" xlink:title=" ">
<polygon fill="white" stroke="black" points="1781,-246.5 1781,-276.5 1901,-276.5 1901,-246.5 1781,-246.5"/>
<text text-anchor="start" x="1789" y="-264.5" font-family="Helvetica,sans-Serif" font-size="10.00">src/node/rpc/member</text>
<text text-anchor="middle" x="1841" y="-253.5" font-family="Helvetica,sans-Serif" font-size="10.00">_frontend.h</text>
</a>
</g>
</g>
<!-- Node11&#45;&gt;Node19 -->
<g id="edge29" class="edge">
<title>Node11&#45;&gt;Node19</title>
<path fill="none" stroke="midnightblue" d="M1021.34,-318.32C1033.61,-316.3 1046.75,-314.36 1059,-313 1340.82,-281.64 1413.3,-299.11 1696,-277 1723.87,-274.82 1754.7,-271.82 1780.73,-269.11"/>
<polygon fill="midnightblue" stroke="midnightblue" points="1020.56,-314.9 1011.28,-320.02 1021.73,-321.8 1020.56,-314.9"/>
</g>
<!-- Node13&#45;&gt;Node14 -->
<g id="edge19" class="edge">
<title>Node13&#45;&gt;Node14</title>
<path fill="none" stroke="midnightblue" d="M583.25,-244.5C596.19,-231.75 613.81,-214.39 624.24,-204.13"/>
<polygon fill="midnightblue" stroke="midnightblue" points="580.57,-242.22 575.9,-251.73 585.48,-247.21 580.57,-242.22"/>
</g>
<!-- Node15&#45;&gt;Node14 -->
<g id="edge21" class="edge">
<title>Node15&#45;&gt;Node14</title>
<path fill="none" stroke="midnightblue" d="M372.63,-249.36C377.13,-248.18 381.65,-247.04 386,-246 456.24,-229.23 538.55,-213.1 588.19,-203.75"/>
<polygon fill="midnightblue" stroke="midnightblue" points="371.66,-245.99 362.9,-251.95 373.47,-252.75 371.66,-245.99"/>
</g>
<!-- Node16&#45;&gt;Node14 -->
<g id="edge23" class="edge">
<title>Node16&#45;&gt;Node14</title>
<path fill="none" stroke="midnightblue" d="M477.78,-248.6C515.45,-235.71 574.62,-215.47 607.97,-204.06"/>
<polygon fill="midnightblue" stroke="midnightblue" points="476.56,-245.32 468.23,-251.87 478.83,-251.94 476.56,-245.32"/>
</g>
<!-- Node17&#45;&gt;Node14 -->
<g id="edge25" class="edge">
<title>Node17&#45;&gt;Node14</title>
<path fill="none" stroke="midnightblue" d="M682,-244.5C669.25,-231.75 651.89,-214.39 641.63,-204.13"/>
<polygon fill="midnightblue" stroke="midnightblue" points="679.69,-247.14 689.23,-251.73 684.64,-242.19 679.69,-247.14"/>
</g>
<!-- Node19&#45;&gt;Node5 -->
<g id="edge30" class="edge">
<title>Node19&#45;&gt;Node5</title>
<path fill="none" stroke="midnightblue" d="M1831.15,-236.8C1815.35,-202.25 1780.77,-139.21 1729,-112 1642.68,-66.63 961.52,-65.8 752.06,-66.64"/>
<polygon fill="midnightblue" stroke="midnightblue" points="1828.03,-238.41 1835.27,-246.14 1834.43,-235.58 1828.03,-238.41"/>
</g>
<!-- Node20&#45;&gt;Node5 -->
<g id="edge32" class="edge">
<title>Node20&#45;&gt;Node5</title>
<path fill="none" stroke="midnightblue" d="M764.44,-326.19C616.12,-322.93 312.03,-312.02 280,-277 221.26,-212.77 558.21,-106.32 661.56,-75.56"/>
<polygon fill="midnightblue" stroke="midnightblue" points="764.77,-329.7 774.84,-326.41 764.92,-322.7 764.77,-329.7"/>
</g>
<!-- Node21 -->
<g id="node21" class="node">
<title>Node21</title>
<g id="a_node21"><a xlink:href="ccf__acme__client_8h.html" target="_top" xlink:title=" ">
<polygon fill="white" stroke="black" points="808.5,-252 808.5,-271 957.5,-271 957.5,-252 808.5,-252"/>
<text text-anchor="middle" x="883" y="-259" font-family="Helvetica,sans-Serif" font-size="10.00">src/node/ccf_acme_client.h</text>
</a>
</g>
</g>
<!-- Node20&#45;&gt;Node21 -->
<g id="edge33" class="edge">
<title>Node20&#45;&gt;Node21</title>
<path fill="none" stroke="midnightblue" d="M858.37,-304.63C865.13,-293.07 872.94,-279.71 877.92,-271.19"/>
<polygon fill="midnightblue" stroke="midnightblue" points="855.27,-303 853.25,-313.4 861.31,-306.53 855.27,-303"/>
</g>
<!-- Node21&#45;&gt;Node8 -->
<g id="edge34" class="edge">
<title>Node21&#45;&gt;Node8</title>
<path fill="none" stroke="midnightblue" d="M963.5,-250.74C1071.11,-237.69 1259.55,-214.84 1356.89,-203.03"/>
<polygon fill="midnightblue" stroke="midnightblue" points="962.85,-247.29 953.35,-251.97 963.7,-254.24 962.85,-247.29"/>
</g>
<!-- Node22&#45;&gt;Node5 -->
<g id="edge37" class="edge">
<title>Node22&#45;&gt;Node5</title>
<path fill="none" stroke="midnightblue" d="M1706.25,-309.05C1708.34,-291.33 1708.65,-264.57 1696,-246 1620.59,-135.27 1555.43,-146.56 1426,-112 1299.47,-78.22 904.72,-69.69 752.09,-67.63"/>
<polygon fill="midnightblue" stroke="midnightblue" points="1702.78,-308.59 1704.78,-318.99 1709.71,-309.61 1702.78,-308.59"/>
</g>
<!-- Node23 -->
<g id="node23" class="node">
<title>Node23</title>
<g id="a_node23"><a xlink:href="jwt__key__auto__refresh_8h.html" target="_top" xlink:title=" ">
<polygon fill="white" stroke="black" points="1561.5,-246.5 1561.5,-276.5 1686.5,-276.5 1686.5,-246.5 1561.5,-246.5"/>
<text text-anchor="start" x="1569.5" y="-264.5" font-family="Helvetica,sans-Serif" font-size="10.00">src/node/jwt_key_auto</text>
<text text-anchor="middle" x="1624" y="-253.5" font-family="Helvetica,sans-Serif" font-size="10.00">_refresh.h</text>
</a>
</g>
</g>
<!-- Node22&#45;&gt;Node23 -->
<g id="edge38" class="edge">
<title>Node22&#45;&gt;Node23</title>
<path fill="none" stroke="midnightblue" d="M1684.45,-312.24C1671.34,-301.45 1653.9,-287.1 1641.12,-276.59"/>
<polygon fill="midnightblue" stroke="midnightblue" points="1682.4,-315.08 1692.35,-318.73 1686.85,-309.68 1682.4,-315.08"/>
</g>
<!-- Node23&#45;&gt;Node8 -->
<g id="edge39" class="edge">
<title>Node23&#45;&gt;Node8</title>
<path fill="none" stroke="midnightblue" d="M1570.16,-243.43C1530.19,-230.75 1477.35,-214 1445.9,-204.03"/>
<polygon fill="midnightblue" stroke="midnightblue" points="1569.18,-246.79 1579.77,-246.48 1571.3,-240.12 1569.18,-246.79"/>
</g>
<!-- Node24&#45;&gt;Node5 -->
<g id="edge41" class="edge">
<title>Node24&#45;&gt;Node5</title>
<path fill="none" stroke="midnightblue" d="M354.39,-116.41C363.97,-114.92 373.75,-113.41 383,-112 469.29,-98.9 569.28,-84.42 631.35,-75.51"/>
<polygon fill="midnightblue" stroke="midnightblue" points="353.83,-112.96 344.5,-117.96 354.92,-119.87 353.83,-112.96"/>
</g>
<!-- Node25&#45;&gt;Node8 -->
<g id="edge43" class="edge">
<title>Node25&#45;&gt;Node8</title>
<path fill="none" stroke="midnightblue" d="M1378.96,-315.7C1399.42,-308.2 1420.96,-296.14 1433,-277 1447.59,-253.79 1432.62,-219.84 1424.07,-204.1"/>
<polygon fill="midnightblue" stroke="midnightblue" points="1377.72,-312.43 1369.36,-318.94 1379.96,-319.06 1377.72,-312.43"/>
</g>
<!-- Node26&#45;&gt;Node8 -->
<g id="edge45" class="edge">
<title>Node26&#45;&gt;Node8</title>
<path fill="none" stroke="midnightblue" d="M1492.31,-308.88C1489.19,-291.61 1482.88,-265.68 1471,-246 1460.59,-228.76 1442.88,-213.35 1431.06,-204.21"/>
<polygon fill="midnightblue" stroke="midnightblue" points="1488.87,-309.52 1493.93,-318.83 1495.78,-308.39 1488.87,-309.52"/>
</g>
<!-- Node26&#45;&gt;Node19 -->
<g id="edge46" class="edge">
<title>Node26&#45;&gt;Node19</title>
<path fill="none" stroke="midnightblue" d="M1550.73,-317.03C1613.74,-305.19 1715.96,-285.99 1780.77,-273.82"/>
<polygon fill="midnightblue" stroke="midnightblue" points="1549.77,-313.65 1540.59,-318.94 1551.06,-320.53 1549.77,-313.65"/>
</g>
<!-- Node27&#45;&gt;Node8 -->
<g id="edge48" class="edge">
<title>Node27&#45;&gt;Node8</title>
<path fill="none" stroke="midnightblue" d="M1187.04,-317.06C1249.22,-305.15 1342.73,-286.15 1357,-277 1386.03,-258.38 1406.67,-221.18 1414.96,-204.25"/>
<polygon fill="midnightblue" stroke="midnightblue" points="1186.13,-313.67 1176.96,-318.98 1187.44,-320.55 1186.13,-313.67"/>
</g>
<!-- Node28&#45;&gt;Node14 -->
<g id="edge52" class="edge">
<title>Node28&#45;&gt;Node14</title>
<path fill="none" stroke="midnightblue" d="M1868.17,-449.84C1775.55,-442.26 1617.32,-428.25 1482,-411 1458.4,-407.99 1074.45,-362.09 1059,-344 987.63,-260.44 1360.65,-326.64 1286,-246 1244.77,-201.46 818.13,-196.09 677.61,-195.53"/>
<polygon fill="midnightblue" stroke="midnightblue" points="1868.06,-453.34 1878.31,-450.66 1868.63,-446.36 1868.06,-453.34"/>
</g>
<!-- Node28&#45;&gt;Node19 -->
<g id="edge55" class="edge">
<title>Node28&#45;&gt;Node19</title>
<path fill="none" stroke="midnightblue" d="M2025.85,-453C2165.28,-445.02 2432.23,-416.16 2339,-313 2310.12,-281.05 2027.31,-268.3 1901.19,-264.17"/>
<polygon fill="midnightblue" stroke="midnightblue" points="2025.43,-449.52 2015.63,-453.56 2025.81,-456.51 2025.43,-449.52"/>
</g>
<!-- Node29 -->
<g id="node29" class="node">
<title>Node29</title>
<g id="a_node29"><a xlink:href="nobuiltins_8cpp.html" target="_top" xlink:title=" ">
<polygon fill="white" stroke="black" points="2048.5,-313.5 2048.5,-343.5 2183.5,-343.5 2183.5,-313.5 2048.5,-313.5"/>
<text text-anchor="start" x="2056.5" y="-331.5" font-family="Helvetica,sans-Serif" font-size="10.00">samples/apps/nobuiltins</text>
<text text-anchor="middle" x="2116" y="-320.5" font-family="Helvetica,sans-Serif" font-size="10.00">/nobuiltins.cpp</text>
</a>
</g>
</g>
<!-- Node28&#45;&gt;Node29 -->
<g id="edge50" class="edge">
<title>Node28&#45;&gt;Node29</title>
<path fill="none" stroke="midnightblue" d="M2015.1,-444.89C2038.25,-438.27 2062.84,-427.73 2081,-411 2100.7,-392.84 2109.79,-361.72 2113.59,-343.64"/>
<polygon fill="midnightblue" stroke="midnightblue" points="2014.05,-441.54 2005.28,-447.49 2015.85,-448.31 2014.05,-441.54"/>
</g>
<!-- Node30 -->
<g id="node30" class="node">
<title>Node30</title>
<g id="a_node30"><a xlink:href="common__endpoint__registry_8cpp.html" target="_top" xlink:title=" ">
<polygon fill="white" stroke="black" points="2202,-313.5 2202,-343.5 2330,-343.5 2330,-313.5 2202,-313.5"/>
<text text-anchor="start" x="2210" y="-331.5" font-family="Helvetica,sans-Serif" font-size="10.00">src/endpoints/common</text>
<text text-anchor="middle" x="2266" y="-320.5" font-family="Helvetica,sans-Serif" font-size="10.00">_endpoint_registry.cpp</text>
</a>
</g>
</g>
<!-- Node28&#45;&gt;Node30 -->
<g id="edge51" class="edge">
<title>Node28&#45;&gt;Node30</title>
<path fill="none" stroke="midnightblue" d="M1994.3,-445.05C2026.11,-437.08 2068.69,-425.21 2105,-411 2155.33,-391.3 2210.93,-361.15 2241.85,-343.57"/>
<polygon fill="midnightblue" stroke="midnightblue" points="1993.24,-441.7 1984.37,-447.5 1994.92,-448.5 1993.24,-441.7"/>
</g>
<!-- Node31 -->
<g id="node31" class="node">
<title>Node31</title>
<g id="a_node31"><a xlink:href="resharing_8h.html" target="_top" xlink:title=" ">
<polygon fill="white" stroke="black" points="1838,-319 1838,-338 1954,-338 1954,-319 1838,-319"/>
<text text-anchor="middle" x="1896" y="-326" font-family="Helvetica,sans-Serif" font-size="10.00">src/node/resharing.h</text>
</a>
</g>
</g>
<!-- Node28&#45;&gt;Node31 -->
<g id="edge53" class="edge">
<title>Node28&#45;&gt;Node31</title>
<path fill="none" stroke="midnightblue" d="M1932.86,-439.45C1926.57,-431.33 1919.57,-421.14 1915,-411 1903.77,-386.1 1898.79,-353.82 1896.93,-338.43"/>
<polygon fill="midnightblue" stroke="midnightblue" points="1930.24,-441.77 1939.26,-447.34 1935.68,-437.36 1930.24,-441.77"/>
</g>
<!-- Node32 -->
<g id="node32" class="node">
<title>Node32</title>
<g id="a_node32"><a xlink:href="serialization_8h.html" target="_top" xlink:title=" ">
<polygon fill="white" stroke="black" points="1924,-386 1924,-405 2072,-405 2072,-386 1924,-386"/>
<text text-anchor="middle" x="1998" y="-393" font-family="Helvetica,sans-Serif" font-size="10.00">src/node/rpc/serialization.h</text>
</a>
</g>
</g>
<!-- Node28&#45;&gt;Node32 -->
<g id="edge56" class="edge">
<title>Node28&#45;&gt;Node32</title>
<path fill="none" stroke="midnightblue" d="M1961,-439.67C1970.61,-428.45 1982.99,-414.02 1990.71,-405.01"/>
<polygon fill="midnightblue" stroke="midnightblue" points="1958.16,-437.6 1954.31,-447.48 1963.47,-442.16 1958.16,-437.6"/>
</g>
<!-- Node31&#45;&gt;Node8 -->
<g id="edge54" class="edge">
<title>Node31&#45;&gt;Node8</title>
<path fill="none" stroke="midnightblue" d="M1865.58,-315.12C1840.48,-304.9 1803.92,-290.01 1772,-277 1738.22,-263.23 1731.02,-256.21 1696,-246 1623.61,-224.89 1537.89,-210.88 1481.19,-203.09"/>
<polygon fill="midnightblue" stroke="midnightblue" points="1864.35,-318.4 1874.94,-318.93 1866.99,-311.91 1864.35,-318.4"/>
</g>
<!-- Node32&#45;&gt;Node8 -->
<g id="edge59" class="edge">
<title>Node32&#45;&gt;Node8</title>
<path fill="none" stroke="midnightblue" d="M1998.81,-375.34C1998.72,-358.04 1996.53,-332.41 1986,-313 1964.52,-273.42 1951.25,-264.05 1910,-246 1834.54,-212.98 1595.51,-201.07 1481.14,-197.19"/>
<polygon fill="midnightblue" stroke="midnightblue" points="1995.3,-375.74 1998.6,-385.8 2002.3,-375.87 1995.3,-375.74"/>
</g>
<!-- Node32&#45;&gt;Node19 -->
<g id="edge61" class="edge">
<title>Node32&#45;&gt;Node19</title>
<path fill="none" stroke="midnightblue" d="M1994.24,-375.67C1989.71,-357.47 1980.43,-330.2 1963,-313 1945.62,-295.85 1921.59,-284.23 1899.45,-276.51"/>
<polygon fill="midnightblue" stroke="midnightblue" points="1990.88,-376.67 1996.48,-385.66 1997.71,-375.14 1990.88,-376.67"/>
</g>
<!-- Node32&#45;&gt;Node22 -->
<g id="edge62" class="edge">
<title>Node32&#45;&gt;Node22</title>
<path fill="none" stroke="midnightblue" d="M1949.09,-383.72C1891,-370.92 1795.28,-349.83 1741.96,-338.08"/>
<polygon fill="midnightblue" stroke="midnightblue" points="1948.61,-387.2 1959.13,-385.94 1950.12,-380.37 1948.61,-387.2"/>
</g>
<!-- Node32&#45;&gt;Node29 -->
<g id="edge57" class="edge">
<title>Node32&#45;&gt;Node29</title>
<path fill="none" stroke="midnightblue" d="M2022.69,-380.9C2042.54,-369.97 2070.34,-354.65 2090.42,-343.59"/>
<polygon fill="midnightblue" stroke="midnightblue" points="2020.98,-377.84 2013.91,-385.73 2024.36,-383.97 2020.98,-377.84"/>
</g>
<!-- Node32&#45;&gt;Node30 -->
<g id="edge58" class="edge">
<title>Node32&#45;&gt;Node30</title>
<path fill="none" stroke="midnightblue" d="M2043.16,-383.55C2088.52,-372.55 2158.59,-355.55 2208.03,-343.56"/>
<polygon fill="midnightblue" stroke="midnightblue" points="2042.21,-380.18 2033.31,-385.94 2043.86,-386.98 2042.21,-380.18"/>
</g>
<!-- Node32&#45;&gt;Node31 -->
<g id="edge60" class="edge">
<title>Node32&#45;&gt;Node31</title>
<path fill="none" stroke="midnightblue" d="M1975.67,-380.27C1955.48,-367.4 1926.41,-348.88 1909.54,-338.13"/>
<polygon fill="midnightblue" stroke="midnightblue" points="1973.93,-383.31 1984.24,-385.73 1977.69,-377.41 1973.93,-383.31"/>
</g>
<!-- Node33&#45;&gt;Node28 -->
<g id="edge64" class="edge">
<title>Node33&#45;&gt;Node28</title>
<path fill="none" stroke="midnightblue" d="M1745.35,-501.79C1797.31,-490.51 1865.36,-475.73 1907.62,-466.55"/>
<polygon fill="midnightblue" stroke="midnightblue" points="1744.55,-498.38 1735.52,-503.92 1746.03,-505.22 1744.55,-498.38"/>
</g>
<!-- Node34&#45;&gt;Node8 -->
<g id="edge68" class="edge">
<title>Node34&#45;&gt;Node8</title>
<path fill="none" stroke="midnightblue" d="M1564.64,-371.81C1575.9,-355.2 1586.42,-332.28 1577,-313 1549.01,-255.72 1477.95,-219.54 1441.42,-204.11"/>
<polygon fill="midnightblue" stroke="midnightblue" points="1561.49,-370.19 1558.43,-380.33 1567.15,-374.31 1561.49,-370.19"/>
</g>
<!-- Node34&#45;&gt;Node19 -->
<g id="edge69" class="edge">
<title>Node34&#45;&gt;Node19</title>
<path fill="none" stroke="midnightblue" d="M1611.42,-386.95C1673.87,-378.71 1762.54,-363.97 1791,-344 1814.78,-327.31 1829.41,-295.36 1836.29,-276.8"/>
<polygon fill="midnightblue" stroke="midnightblue" points="1610.72,-383.52 1601.25,-388.27 1611.61,-390.46 1610.72,-383.52"/>
</g>
<!-- Node34&#45;&gt;Node22 -->
<g id="edge70" class="edge">
<title>Node34&#45;&gt;Node22</title>
<path fill="none" stroke="midnightblue" d="M1589.58,-376.46C1619.91,-363.9 1658.98,-347.72 1682.45,-338.01"/>
<polygon fill="midnightblue" stroke="midnightblue" points="1587.97,-373.34 1580.07,-380.4 1590.64,-379.8 1587.97,-373.34"/>
</g>
<!-- Node34&#45;&gt;Node25 -->
<g id="edge71" class="edge">
<title>Node34&#45;&gt;Node25</title>
<path fill="none" stroke="midnightblue" d="M1489.29,-377.59C1446.71,-364.9 1390.19,-348.04 1356.6,-338.03"/>
<polygon fill="midnightblue" stroke="midnightblue" points="1488.38,-380.97 1498.97,-380.48 1490.38,-374.26 1488.38,-380.97"/>
</g>
<!-- Node34&#45;&gt;Node26 -->
<g id="edge72" class="edge">
<title>Node34&#45;&gt;Node26</title>
<path fill="none" stroke="midnightblue" d="M1528.59,-372.32C1519.4,-360.6 1508.64,-346.88 1501.82,-338.19"/>
<polygon fill="midnightblue" stroke="midnightblue" points="1526.01,-374.69 1534.93,-380.4 1531.51,-370.37 1526.01,-374.69"/>
</g>
</g>
</svg>
