<?xml version="1.0" encoding="UTF-8" standalone="no"?>
<!DOCTYPE svg PUBLIC "-//W3C//DTD SVG 1.1//EN"
 "http://www.w3.org/Graphics/SVG/1.1/DTD/svg11.dtd">
<!-- Generated by graphviz version 2.43.0 (0)
 -->
<!-- Title: src/ds/oversized.h Pages: 1 -->
<svg width="2432pt" height="665pt"
 viewBox="0.00 0.00 2432.00 665.00" xmlns="http://www.w3.org/2000/svg" xmlns:xlink="http://www.w3.org/1999/xlink">
<g id="graph0" class="graph" transform="scale(1 1) rotate(0) translate(4 661)">
<title>src/ds/oversized.h</title>
<polygon fill="white" stroke="transparent" points="-4,4 -4,-661 2428,-661 2428,4 -4,4"/>
<!-- Node1 -->
<g id="node1" class="node">
<title>Node1</title>
<g id="a_node1"><a xlink:title=" ">
<polygon fill="#bfbfbf" stroke="black" points="2187,-637.5 2187,-656.5 2291,-656.5 2291,-637.5 2187,-637.5"/>
<text text-anchor="middle" x="2239" y="-644.5" font-family="Helvetica,sans-Serif" font-size="10.00">src/ds/oversized.h</text>
</a>
</g>
</g>
<!-- Node2 -->
<g id="node2" class="node">
<title>Node2</title>
<g id="a_node2"><a xlink:href="common_2configuration_8h.html" target="_top" xlink:title=" ">
<polygon fill="white" stroke="black" points="1568,-581.5 1568,-600.5 1720,-600.5 1720,-581.5 1568,-581.5"/>
<text text-anchor="middle" x="1644" y="-588.5" font-family="Helvetica,sans-Serif" font-size="10.00">src/common/configuration.h</text>
</a>
</g>
</g>
<!-- Node1&#45;&gt;Node2 -->
<g id="edge1" class="edge">
<title>Node1&#45;&gt;Node2</title>
<path fill="none" stroke="midnightblue" d="M2176.73,-640.35C2067,-630.39 1839.54,-609.75 1720.46,-598.94"/>
<polygon fill="midnightblue" stroke="midnightblue" points="2176.7,-643.86 2186.98,-641.28 2177.34,-636.89 2176.7,-643.86"/>
</g>
<!-- Node4 -->
<g id="node4" class="node">
<title>Node4</title>
<g id="a_node4"><a xlink:href="host_2main_8cpp.html" target="_top" xlink:title=" ">
<polygon fill="white" stroke="black" points="2073.5,-386 2073.5,-405 2176.5,-405 2176.5,-386 2073.5,-386"/>
<text text-anchor="middle" x="2125" y="-393" font-family="Helvetica,sans-Serif" font-size="10.00">src/host/main.cpp</text>
</a>
</g>
</g>
<!-- Node1&#45;&gt;Node4 -->
<g id="edge82" class="edge">
<title>Node1&#45;&gt;Node4</title>
<path fill="none" stroke="midnightblue" d="M2261.45,-631.68C2295.57,-608.03 2354.01,-558.94 2329,-514 2293.83,-450.78 2209.77,-418.81 2161.24,-405.1"/>
<polygon fill="midnightblue" stroke="midnightblue" points="2259.3,-628.91 2252.96,-637.39 2263.21,-634.72 2259.3,-628.91"/>
</g>
<!-- Node7 -->
<g id="node7" class="node">
<title>Node7</title>
<g id="a_node7"><a xlink:href="enclave_2enclave_8h.html" target="_top" xlink:title=" ">
<polygon fill="white" stroke="black" points="1197,-56.5 1197,-75.5 1319,-75.5 1319,-56.5 1197,-56.5"/>
<text text-anchor="middle" x="1258" y="-63.5" font-family="Helvetica,sans-Serif" font-size="10.00">src/enclave/enclave.h</text>
</a>
</g>
</g>
<!-- Node1&#45;&gt;Node7 -->
<g id="edge67" class="edge">
<title>Node1&#45;&gt;Node7</title>
<path fill="none" stroke="midnightblue" d="M2297.5,-635.02C2351.7,-621.07 2424,-591.1 2424,-530.5 2424,-530.5 2424,-530.5 2424,-193.5 2424,-81.26 1558.96,-68.52 1319.05,-67.15"/>
<polygon fill="midnightblue" stroke="midnightblue" points="2296.49,-631.67 2287.61,-637.45 2298.15,-638.47 2296.49,-631.67"/>
</g>
<!-- Node37 -->
<g id="node37" class="node">
<title>Node37</title>
<g id="a_node37"><a xlink:href="interface_8h.html" target="_top" xlink:title=" ">
<polygon fill="white" stroke="black" points="2029,-581.5 2029,-600.5 2157,-600.5 2157,-581.5 2029,-581.5"/>
<text text-anchor="middle" x="2093" y="-588.5" font-family="Helvetica,sans-Serif" font-size="10.00">src/enclave/interface.h</text>
</a>
</g>
</g>
<!-- Node1&#45;&gt;Node37 -->
<g id="edge68" class="edge">
<title>Node1&#45;&gt;Node37</title>
<path fill="none" stroke="midnightblue" d="M2206.3,-633.91C2178.85,-623.75 2140.33,-609.51 2116.03,-600.52"/>
<polygon fill="midnightblue" stroke="midnightblue" points="2205.27,-637.26 2215.87,-637.44 2207.7,-630.69 2205.27,-637.26"/>
</g>
<!-- Node3 -->
<g id="node3" class="node">
<title>Node3</title>
<g id="a_node3"><a xlink:href="host_2configuration_8h.html" target="_top" xlink:title=" ">
<polygon fill="white" stroke="black" points="1724.5,-520 1724.5,-539 1855.5,-539 1855.5,-520 1724.5,-520"/>
<text text-anchor="middle" x="1790" y="-527" font-family="Helvetica,sans-Serif" font-size="10.00">src/host/configuration.h</text>
</a>
</g>
</g>
<!-- Node2&#45;&gt;Node3 -->
<g id="edge2" class="edge">
<title>Node2&#45;&gt;Node3</title>
<path fill="none" stroke="midnightblue" d="M1674.35,-577.63C1702.71,-566.07 1744.31,-549.12 1769.12,-539.01"/>
<polygon fill="midnightblue" stroke="midnightblue" points="1672.86,-574.46 1664.92,-581.48 1675.5,-580.94 1672.86,-574.46"/>
</g>
<!-- Node5 -->
<g id="node5" class="node">
<title>Node5</title>
<g id="a_node5"><a xlink:href="frontend_8h.html" target="_top" xlink:title=" ">
<polygon fill="white" stroke="black" points="1464.5,-386 1464.5,-405 1593.5,-405 1593.5,-386 1464.5,-386"/>
<text text-anchor="middle" x="1529" y="-393" font-family="Helvetica,sans-Serif" font-size="10.00">src/node/rpc/frontend.h</text>
</a>
</g>
</g>
<!-- Node2&#45;&gt;Node5 -->
<g id="edge4" class="edge">
<title>Node2&#45;&gt;Node5</title>
<path fill="none" stroke="midnightblue" d="M1612.98,-576.99C1598.64,-569.55 1582.5,-558.89 1572,-545 1538.18,-500.24 1530.92,-429.59 1529.4,-405.15"/>
<polygon fill="midnightblue" stroke="midnightblue" points="1611.54,-580.18 1622.06,-581.42 1614.61,-573.89 1611.54,-580.18"/>
</g>
<!-- Node16 -->
<g id="node16" class="node">
<title>Node16</title>
<g id="a_node16"><a xlink:href="node__call__types_8h.html" target="_top" xlink:title=" ">
<polygon fill="white" stroke="black" points="1581.5,-514.5 1581.5,-544.5 1706.5,-544.5 1706.5,-514.5 1581.5,-514.5"/>
<text text-anchor="start" x="1589.5" y="-532.5" font-family="Helvetica,sans-Serif" font-size="10.00">src/node/rpc/node_call</text>
<text text-anchor="middle" x="1644" y="-521.5" font-family="Helvetica,sans-Serif" font-size="10.00">_types.h</text>
</a>
</g>
</g>
<!-- Node2&#45;&gt;Node16 -->
<g id="edge22" class="edge">
<title>Node2&#45;&gt;Node16</title>
<path fill="none" stroke="midnightblue" d="M1644,-571.23C1644,-562.59 1644,-552.5 1644,-544.52"/>
<polygon fill="midnightblue" stroke="midnightblue" points="1640.5,-571.48 1644,-581.48 1647.5,-571.48 1640.5,-571.48"/>
</g>
<!-- Node23 -->
<g id="node23" class="node">
<title>Node23</title>
<g id="a_node23"><a xlink:href="node__interface_8h.html" target="_top" xlink:title=" ">
<polygon fill="white" stroke="black" points="847.5,-520 847.5,-539 1008.5,-539 1008.5,-520 847.5,-520"/>
<text text-anchor="middle" x="928" y="-527" font-family="Helvetica,sans-Serif" font-size="10.00">src/node/rpc/node_interface.h</text>
</a>
</g>
</g>
<!-- Node2&#45;&gt;Node23 -->
<g id="edge37" class="edge">
<title>Node2&#45;&gt;Node23</title>
<path fill="none" stroke="midnightblue" d="M1557.48,-582.81C1417.74,-571.2 1144.34,-548.48 1008.53,-537.19"/>
<polygon fill="midnightblue" stroke="midnightblue" points="1557.46,-586.32 1567.71,-583.66 1558.04,-579.34 1557.46,-586.32"/>
</g>
<!-- Node3&#45;&gt;Node4 -->
<g id="edge3" class="edge">
<title>Node3&#45;&gt;Node4</title>
<path fill="none" stroke="midnightblue" d="M1810.58,-514.08C1837.09,-496.1 1885.1,-465.47 1930,-447 1978.51,-427.04 2037.12,-413.13 2077.34,-405.04"/>
<polygon fill="midnightblue" stroke="midnightblue" points="1808.41,-511.33 1802.14,-519.87 1812.37,-517.1 1808.41,-511.33"/>
</g>
<!-- Node6 -->
<g id="node6" class="node">
<title>Node6</title>
<g id="a_node6"><a xlink:href="acme__challenge__frontend_8h.html" target="_top" xlink:title=" ">
<polygon fill="white" stroke="black" points="1438,-313.5 1438,-343.5 1578,-343.5 1578,-313.5 1438,-313.5"/>
<text text-anchor="start" x="1446" y="-331.5" font-family="Helvetica,sans-Serif" font-size="10.00">src/node/acme_challenge</text>
<text text-anchor="middle" x="1508" y="-320.5" font-family="Helvetica,sans-Serif" font-size="10.00">_frontend.h</text>
</a>
</g>
</g>
<!-- Node5&#45;&gt;Node6 -->
<g id="edge5" class="edge">
<title>Node5&#45;&gt;Node6</title>
<path fill="none" stroke="midnightblue" d="M1523.04,-376.06C1519.71,-365.75 1515.63,-353.1 1512.55,-343.59"/>
<polygon fill="midnightblue" stroke="midnightblue" points="1519.76,-377.29 1526.17,-385.73 1526.42,-375.14 1519.76,-377.29"/>
</g>
<!-- Node10 -->
<g id="node10" class="node">
<title>Node10</title>
<g id="a_node10"><a xlink:href="node__state_8h.html" target="_top" xlink:title=" ">
<polygon fill="white" stroke="black" points="1518,-185 1518,-204 1642,-204 1642,-185 1518,-185"/>
<text text-anchor="middle" x="1580" y="-192" font-family="Helvetica,sans-Serif" font-size="10.00">src/node/node_state.h</text>
</a>
</g>
</g>
<!-- Node5&#45;&gt;Node10 -->
<g id="edge13" class="edge">
<title>Node5&#45;&gt;Node10</title>
<path fill="none" stroke="midnightblue" d="M1553.67,-380.24C1566.16,-371.53 1580.1,-359.16 1587,-344 1609.24,-295.14 1590.72,-227.64 1582.99,-204.05"/>
<polygon fill="midnightblue" stroke="midnightblue" points="1551.42,-377.52 1544.96,-385.92 1555.25,-383.39 1551.42,-377.52"/>
</g>
<!-- Node12 -->
<g id="node12" class="node">
<title>Node12</title>
<g id="a_node12"><a xlink:href="member__frontend_8h.html" target="_top" xlink:title=" ">
<polygon fill="white" stroke="black" points="1262,-313.5 1262,-343.5 1382,-343.5 1382,-313.5 1262,-313.5"/>
<text text-anchor="start" x="1270" y="-331.5" font-family="Helvetica,sans-Serif" font-size="10.00">src/node/rpc/member</text>
<text text-anchor="middle" x="1322" y="-320.5" font-family="Helvetica,sans-Serif" font-size="10.00">_frontend.h</text>
</a>
</g>
</g>
<!-- Node5&#45;&gt;Node12 -->
<g id="edge14" class="edge">
<title>Node5&#45;&gt;Node12</title>
<path fill="none" stroke="midnightblue" d="M1491.66,-382.77C1456.56,-371.75 1403.98,-355.24 1366.67,-343.53"/>
<polygon fill="midnightblue" stroke="midnightblue" points="1490.92,-386.21 1501.51,-385.87 1493.02,-379.53 1490.92,-386.21"/>
</g>
<!-- Node13 -->
<g id="node13" class="node">
<title>Node13</title>
<g id="a_node13"><a xlink:href="node__frontend_8h.html" target="_top" xlink:title=" ">
<polygon fill="white" stroke="black" points="1634,-319 1634,-338 1792,-338 1792,-319 1634,-319"/>
<text text-anchor="middle" x="1713" y="-326" font-family="Helvetica,sans-Serif" font-size="10.00">src/node/rpc/node_frontend.h</text>
</a>
</g>
</g>
<!-- Node5&#45;&gt;Node13 -->
<g id="edge16" class="edge">
<title>Node5&#45;&gt;Node13</title>
<path fill="none" stroke="midnightblue" d="M1563.15,-382.44C1599.65,-369.54 1656.6,-349.42 1688.76,-338.06"/>
<polygon fill="midnightblue" stroke="midnightblue" points="1561.7,-379.24 1553.43,-385.87 1564.03,-385.84 1561.7,-379.24"/>
</g>
<!-- Node15 -->
<g id="node15" class="node">
<title>Node15</title>
<g id="a_node15"><a xlink:href="user__frontend_8h.html" target="_top" xlink:title=" ">
<polygon fill="white" stroke="black" points="1180.5,-185 1180.5,-204 1335.5,-204 1335.5,-185 1180.5,-185"/>
<text text-anchor="middle" x="1258" y="-192" font-family="Helvetica,sans-Serif" font-size="10.00">src/node/rpc/user_frontend.h</text>
</a>
</g>
</g>
<!-- Node5&#45;&gt;Node15 -->
<g id="edge20" class="edge">
<title>Node5&#45;&gt;Node15</title>
<path fill="none" stroke="midnightblue" d="M1499.54,-381.86C1479.07,-372.54 1451.53,-358.94 1429,-344 1411.3,-332.27 1301.73,-234.61 1267.92,-204.38"/>
<polygon fill="midnightblue" stroke="midnightblue" points="1498.13,-385.06 1508.69,-385.95 1500.99,-378.67 1498.13,-385.06"/>
</g>
<!-- Node6&#45;&gt;Node7 -->
<g id="edge6" class="edge">
<title>Node6&#45;&gt;Node7</title>
<path fill="none" stroke="midnightblue" d="M1467.7,-308.68C1451.91,-300.25 1434.2,-289.39 1420,-277 1417.57,-274.88 1294.82,-114.98 1264.64,-75.66"/>
<polygon fill="midnightblue" stroke="midnightblue" points="1466.25,-311.87 1476.74,-313.37 1469.47,-305.66 1466.25,-311.87"/>
</g>
<!-- Node9 -->
<g id="node9" class="node">
<title>Node9</title>
<g id="a_node9"><a xlink:href="ccf__acme__client_8h.html" target="_top" xlink:title=" ">
<polygon fill="white" stroke="black" points="1429.5,-252 1429.5,-271 1578.5,-271 1578.5,-252 1429.5,-252"/>
<text text-anchor="middle" x="1504" y="-259" font-family="Helvetica,sans-Serif" font-size="10.00">src/node/ccf_acme_client.h</text>
</a>
</g>
</g>
<!-- Node6&#45;&gt;Node9 -->
<g id="edge8" class="edge">
<title>Node6&#45;&gt;Node9</title>
<path fill="none" stroke="midnightblue" d="M1506.51,-303.25C1505.82,-292.02 1505.04,-279.38 1504.54,-271.19"/>
<polygon fill="midnightblue" stroke="midnightblue" points="1503.02,-303.63 1507.13,-313.4 1510.01,-303.2 1503.02,-303.63"/>
</g>
<!-- Node8 -->
<g id="node8" class="node">
<title>Node8</title>
<g id="a_node8"><a xlink:href="enclave_2main_8cpp.html" target="_top" xlink:title=" ">
<polygon fill="white" stroke="black" points="1198,-0.5 1198,-19.5 1318,-19.5 1318,-0.5 1198,-0.5"/>
<text text-anchor="middle" x="1258" y="-7.5" font-family="Helvetica,sans-Serif" font-size="10.00">src/enclave/main.cpp</text>
</a>
</g>
</g>
<!-- Node7&#45;&gt;Node8 -->
<g id="edge7" class="edge">
<title>Node7&#45;&gt;Node8</title>
<path fill="none" stroke="midnightblue" d="M1258,-45.8C1258,-36.91 1258,-26.78 1258,-19.75"/>
<polygon fill="midnightblue" stroke="midnightblue" points="1254.5,-46.08 1258,-56.08 1261.5,-46.08 1254.5,-46.08"/>
</g>
<!-- Node9&#45;&gt;Node10 -->
<g id="edge9" class="edge">
<title>Node9&#45;&gt;Node10</title>
<path fill="none" stroke="midnightblue" d="M1521.87,-245.21C1536.85,-232.41 1557.68,-214.59 1569.91,-204.13"/>
<polygon fill="midnightblue" stroke="midnightblue" points="1519.57,-242.57 1514.25,-251.73 1524.12,-247.89 1519.57,-242.57"/>
</g>
<!-- Node10&#45;&gt;Node7 -->
<g id="edge10" class="edge">
<title>Node10&#45;&gt;Node7</title>
<path fill="none" stroke="midnightblue" d="M1546.55,-181.42C1519.52,-171.52 1480.59,-156.91 1447,-143 1415.94,-130.14 1409.09,-124.8 1378,-112 1345.08,-98.45 1306.44,-84.26 1282.08,-75.52"/>
<polygon fill="midnightblue" stroke="midnightblue" points="1545.7,-184.84 1556.29,-184.98 1548.1,-178.26 1545.7,-184.84"/>
</g>
<!-- Node11 -->
<g id="node11" class="node">
<title>Node11</title>
<g id="a_node11"><a xlink:href="gov__effects_8h.html" target="_top" xlink:title=" ">
<polygon fill="white" stroke="black" points="1456,-118 1456,-137 1600,-137 1600,-118 1456,-118"/>
<text text-anchor="middle" x="1528" y="-125" font-family="Helvetica,sans-Serif" font-size="10.00">src/node/rpc/gov_effects.h</text>
</a>
</g>
</g>
<!-- Node10&#45;&gt;Node11 -->
<g id="edge11" class="edge">
<title>Node10&#45;&gt;Node11</title>
<path fill="none" stroke="midnightblue" d="M1566.62,-176.77C1556.48,-164.1 1542.96,-147.2 1534.9,-137.13"/>
<polygon fill="midnightblue" stroke="midnightblue" points="1564.01,-179.11 1572.99,-184.73 1569.47,-174.74 1564.01,-179.11"/>
</g>
<!-- Node11&#45;&gt;Node7 -->
<g id="edge12" class="edge">
<title>Node11&#45;&gt;Node7</title>
<path fill="none" stroke="midnightblue" d="M1479.26,-115.76C1426.88,-104.22 1344.7,-86.11 1296.61,-75.51"/>
<polygon fill="midnightblue" stroke="midnightblue" points="1478.8,-119.24 1489.32,-117.98 1480.3,-112.4 1478.8,-119.24"/>
</g>
<!-- Node12&#45;&gt;Node7 -->
<g id="edge15" class="edge">
<title>Node12&#45;&gt;Node7</title>
<path fill="none" stroke="midnightblue" d="M1281.16,-308.96C1244.72,-289.91 1193.73,-256.49 1171,-210 1144.96,-156.74 1215.67,-97.56 1245.47,-75.71"/>
<polygon fill="midnightblue" stroke="midnightblue" points="1279.58,-312.08 1290.08,-313.49 1282.75,-305.84 1279.58,-312.08"/>
</g>
<!-- Node13&#45;&gt;Node7 -->
<g id="edge17" class="edge">
<title>Node13&#45;&gt;Node7</title>
<path fill="none" stroke="midnightblue" d="M1736.19,-313.13C1748.1,-304.33 1761.45,-291.9 1768,-277 1773.54,-264.39 1773.81,-258.49 1768,-246 1729.03,-162.2 1693.61,-149.17 1609,-112 1558.38,-89.76 1405.41,-76.55 1319.05,-70.66"/>
<polygon fill="midnightblue" stroke="midnightblue" points="1734.12,-310.31 1727.9,-318.88 1738.11,-316.06 1734.12,-310.31"/>
</g>
<!-- Node14 -->
<g id="node14" class="node">
<title>Node14</title>
<g id="a_node14"><a xlink:href="jwt__key__auto__refresh_8h.html" target="_top" xlink:title=" ">
<polygon fill="white" stroke="black" points="1634.5,-246.5 1634.5,-276.5 1759.5,-276.5 1759.5,-246.5 1634.5,-246.5"/>
<text text-anchor="start" x="1642.5" y="-264.5" font-family="Helvetica,sans-Serif" font-size="10.00">src/node/jwt_key_auto</text>
<text text-anchor="middle" x="1697" y="-253.5" font-family="Helvetica,sans-Serif" font-size="10.00">_refresh.h</text>
</a>
</g>
</g>
<!-- Node13&#45;&gt;Node14 -->
<g id="edge18" class="edge">
<title>Node13&#45;&gt;Node14</title>
<path fill="none" stroke="midnightblue" d="M1708.38,-308.74C1705.86,-298.49 1702.78,-286 1700.47,-276.59"/>
<polygon fill="midnightblue" stroke="midnightblue" points="1705.05,-309.86 1710.84,-318.73 1711.85,-308.19 1705.05,-309.86"/>
</g>
<!-- Node14&#45;&gt;Node10 -->
<g id="edge19" class="edge">
<title>Node14&#45;&gt;Node10</title>
<path fill="none" stroke="midnightblue" d="M1662.75,-241.47C1640.42,-229.06 1612.35,-213.47 1595.31,-204.01"/>
<polygon fill="midnightblue" stroke="midnightblue" points="1661.17,-244.6 1671.61,-246.4 1664.57,-238.48 1661.17,-244.6"/>
</g>
<!-- Node15&#45;&gt;Node7 -->
<g id="edge21" class="edge">
<title>Node15&#45;&gt;Node7</title>
<path fill="none" stroke="midnightblue" d="M1258,-174.44C1258,-146.62 1258,-96.04 1258,-75.76"/>
<polygon fill="midnightblue" stroke="midnightblue" points="1254.5,-174.81 1258,-184.81 1261.5,-174.81 1254.5,-174.81"/>
</g>
<!-- Node17 -->
<g id="node17" class="node">
<title>Node17</title>
<g id="a_node17"><a xlink:href="call__types_8h.html" target="_top" xlink:title=" ">
<polygon fill="white" stroke="black" points="1680.5,-453 1680.5,-472 1817.5,-472 1817.5,-453 1680.5,-453"/>
<text text-anchor="middle" x="1749" y="-460" font-family="Helvetica,sans-Serif" font-size="10.00">src/node/rpc/call_types.h</text>
</a>
</g>
</g>
<!-- Node16&#45;&gt;Node17 -->
<g id="edge23" class="edge">
<title>Node16&#45;&gt;Node17</title>
<path fill="none" stroke="midnightblue" d="M1675.54,-508.97C1695.45,-496.65 1720.17,-481.35 1735.26,-472.01"/>
<polygon fill="midnightblue" stroke="midnightblue" points="1673.44,-506.16 1666.78,-514.4 1677.13,-512.11 1673.44,-506.16"/>
</g>
<!-- Node17&#45;&gt;Node12 -->
<g id="edge29" class="edge">
<title>Node17&#45;&gt;Node12</title>
<path fill="none" stroke="midnightblue" d="M1670,-457.63C1609.21,-452.38 1524.18,-440.04 1455,-411 1433.28,-401.88 1431.86,-392.67 1412,-380 1391.31,-366.8 1366.99,-353.26 1348.85,-343.53"/>
<polygon fill="midnightblue" stroke="midnightblue" points="1670.05,-461.14 1680.3,-458.47 1670.62,-454.17 1670.05,-461.14"/>
</g>
<!-- Node18 -->
<g id="node18" class="node">
<title>Node18</title>
<g id="a_node18"><a xlink:href="nobuiltins_8cpp.html" target="_top" xlink:title=" ">
<polygon fill="white" stroke="black" points="2128.5,-313.5 2128.5,-343.5 2263.5,-343.5 2263.5,-313.5 2128.5,-313.5"/>
<text text-anchor="start" x="2136.5" y="-331.5" font-family="Helvetica,sans-Serif" font-size="10.00">samples/apps/nobuiltins</text>
<text text-anchor="middle" x="2196" y="-320.5" font-family="Helvetica,sans-Serif" font-size="10.00">/nobuiltins.cpp</text>
</a>
</g>
</g>
<!-- Node17&#45;&gt;Node18 -->
<g id="edge24" class="edge">
<title>Node17&#45;&gt;Node18</title>
<path fill="none" stroke="midnightblue" d="M1810.91,-451.18C1859.14,-442.46 1927.51,-428.58 1986,-411 2022.12,-400.14 2029.85,-393.67 2065,-380 2096.8,-367.63 2133,-353.69 2159.27,-343.59"/>
<polygon fill="midnightblue" stroke="midnightblue" points="1810.16,-447.76 1800.93,-452.97 1811.39,-454.65 1810.16,-447.76"/>
</g>
<!-- Node19 -->
<g id="node19" class="node">
<title>Node19</title>
<g id="a_node19"><a xlink:href="common__endpoint__registry_8cpp.html" target="_top" xlink:title=" ">
<polygon fill="white" stroke="black" points="1982,-313.5 1982,-343.5 2110,-343.5 2110,-313.5 1982,-313.5"/>
<text text-anchor="start" x="1990" y="-331.5" font-family="Helvetica,sans-Serif" font-size="10.00">src/endpoints/common</text>
<text text-anchor="middle" x="2046" y="-320.5" font-family="Helvetica,sans-Serif" font-size="10.00">_endpoint_registry.cpp</text>
</a>
</g>
</g>
<!-- Node17&#45;&gt;Node19 -->
<g id="edge25" class="edge">
<title>Node17&#45;&gt;Node19</title>
<path fill="none" stroke="midnightblue" d="M1803.12,-450.91C1853.81,-440.46 1925.48,-424.19 1951,-411 1984.78,-393.54 2016.77,-361.87 2033.63,-343.57"/>
<polygon fill="midnightblue" stroke="midnightblue" points="1802.38,-447.49 1793.28,-452.92 1803.78,-454.35 1802.38,-447.49"/>
</g>
<!-- Node20 -->
<g id="node20" class="node">
<title>Node20</title>
<g id="a_node20"><a xlink:href="wrap_8cpp.html" target="_top" xlink:title=" ">
<polygon fill="white" stroke="black" points="730.5,-319 730.5,-338 819.5,-338 819.5,-319 730.5,-319"/>
<text text-anchor="middle" x="775" y="-326" font-family="Helvetica,sans-Serif" font-size="10.00">src/js/wrap.cpp</text>
</a>
</g>
</g>
<!-- Node17&#45;&gt;Node20 -->
<g id="edge26" class="edge">
<title>Node17&#45;&gt;Node20</title>
<path fill="none" stroke="midnightblue" d="M1674.27,-451.59C1605.84,-442.21 1501.85,-427.19 1412,-411 1346.29,-399.16 1330.97,-390.33 1265,-380 1101.93,-354.48 906.24,-338.73 819.79,-332.53"/>
<polygon fill="midnightblue" stroke="midnightblue" points="1674.14,-455.11 1684.52,-452.99 1675.09,-448.17 1674.14,-455.11"/>
</g>
<!-- Node21 -->
<g id="node21" class="node">
<title>Node21</title>
<g id="a_node21"><a xlink:href="resharing_8h.html" target="_top" xlink:title=" ">
<polygon fill="white" stroke="black" points="1810,-319 1810,-338 1926,-338 1926,-319 1810,-319"/>
<text text-anchor="middle" x="1868" y="-326" font-family="Helvetica,sans-Serif" font-size="10.00">src/node/resharing.h</text>
</a>
</g>
</g>
<!-- Node17&#45;&gt;Node21 -->
<g id="edge27" class="edge">
<title>Node17&#45;&gt;Node21</title>
<path fill="none" stroke="midnightblue" d="M1753.6,-443.23C1758.82,-425.45 1768.78,-398.49 1785,-380 1802.02,-360.6 1828.34,-346.35 1846.77,-338.02"/>
<polygon fill="midnightblue" stroke="midnightblue" points="1750.21,-442.38 1750.95,-452.95 1756.96,-444.22 1750.21,-442.38"/>
</g>
<!-- Node22 -->
<g id="node22" class="node">
<title>Node22</title>
<g id="a_node22"><a xlink:href="serialization_8h.html" target="_top" xlink:title=" ">
<polygon fill="white" stroke="black" points="1794,-386 1794,-405 1942,-405 1942,-386 1794,-386"/>
<text text-anchor="middle" x="1868" y="-393" font-family="Helvetica,sans-Serif" font-size="10.00">src/node/rpc/serialization.h</text>
</a>
</g>
</g>
<!-- Node17&#45;&gt;Node22 -->
<g id="edge30" class="edge">
<title>Node17&#45;&gt;Node22</title>
<path fill="none" stroke="midnightblue" d="M1774.11,-447.79C1797.69,-434.9 1832.26,-416.02 1852.21,-405.13"/>
<polygon fill="midnightblue" stroke="midnightblue" points="1772.15,-444.87 1765.05,-452.73 1775.5,-451.01 1772.15,-444.87"/>
</g>
<!-- Node21&#45;&gt;Node10 -->
<g id="edge28" class="edge">
<title>Node21&#45;&gt;Node10</title>
<path fill="none" stroke="midnightblue" d="M1852.87,-311.63C1834.48,-293.24 1801.69,-263.25 1768,-246 1726.03,-224.52 1673.98,-211.45 1635.29,-204.01"/>
<polygon fill="midnightblue" stroke="midnightblue" points="1850.55,-314.26 1860.05,-318.96 1855.55,-309.37 1850.55,-314.26"/>
</g>
<!-- Node22&#45;&gt;Node10 -->
<g id="edge33" class="edge">
<title>Node22&#45;&gt;Node10</title>
<path fill="none" stroke="midnightblue" d="M1896.69,-380.93C1911,-372.49 1926.95,-360.15 1935,-344 1941.15,-331.67 1942.19,-324.75 1935,-313 1902.56,-259.97 1720.01,-220.53 1630.07,-204.02"/>
<polygon fill="midnightblue" stroke="midnightblue" points="1894.69,-378.03 1887.62,-385.92 1898.07,-384.17 1894.69,-378.03"/>
</g>
<!-- Node22&#45;&gt;Node12 -->
<g id="edge35" class="edge">
<title>Node22&#45;&gt;Node12</title>
<path fill="none" stroke="midnightblue" d="M1783.79,-385.32C1695.37,-375.57 1552.32,-359.45 1429,-344 1413.84,-342.1 1397.49,-339.94 1382.24,-337.88"/>
<polygon fill="midnightblue" stroke="midnightblue" points="1783.44,-388.81 1793.77,-386.42 1784.21,-381.85 1783.44,-388.81"/>
</g>
<!-- Node22&#45;&gt;Node13 -->
<g id="edge36" class="edge">
<title>Node22&#45;&gt;Node13</title>
<path fill="none" stroke="midnightblue" d="M1838.07,-381.95C1807.38,-369.08 1760.46,-349.4 1733.67,-338.17"/>
<polygon fill="midnightblue" stroke="midnightblue" points="1836.84,-385.23 1847.42,-385.87 1839.55,-378.77 1836.84,-385.23"/>
</g>
<!-- Node22&#45;&gt;Node18 -->
<g id="edge31" class="edge">
<title>Node22&#45;&gt;Node18</title>
<path fill="none" stroke="midnightblue" d="M1921.37,-383.92C1977.84,-372.73 2067.12,-355.04 2128.46,-342.88"/>
<polygon fill="midnightblue" stroke="midnightblue" points="1920.35,-380.56 1911.22,-385.94 1921.71,-387.42 1920.35,-380.56"/>
</g>
<!-- Node22&#45;&gt;Node19 -->
<g id="edge32" class="edge">
<title>Node22&#45;&gt;Node19</title>
<path fill="none" stroke="midnightblue" d="M1901.28,-382.35C1931.45,-371.33 1975.92,-355.09 2007.58,-343.53"/>
<polygon fill="midnightblue" stroke="midnightblue" points="1899.83,-379.15 1891.64,-385.87 1902.23,-385.73 1899.83,-379.15"/>
</g>
<!-- Node22&#45;&gt;Node21 -->
<g id="edge34" class="edge">
<title>Node22&#45;&gt;Node21</title>
<path fill="none" stroke="midnightblue" d="M1868,-375.54C1868,-363.17 1868,-347.62 1868,-338.13"/>
<polygon fill="midnightblue" stroke="midnightblue" points="1864.5,-375.73 1868,-385.73 1871.5,-375.73 1864.5,-375.73"/>
</g>
<!-- Node23&#45;&gt;Node12 -->
<g id="edge60" class="edge">
<title>Node23&#45;&gt;Node12</title>
<path fill="none" stroke="midnightblue" d="M994.86,-518.31C1096.63,-501.27 1282.78,-463.62 1322,-411 1336.54,-391.49 1331.54,-361.4 1326.7,-343.76"/>
<polygon fill="midnightblue" stroke="midnightblue" points="994.28,-514.85 984.98,-519.94 995.42,-521.76 994.28,-514.85"/>
</g>
<!-- Node23&#45;&gt;Node13 -->
<g id="edge64" class="edge">
<title>Node23&#45;&gt;Node13</title>
<path fill="none" stroke="midnightblue" d="M1018.97,-527.56C1164.65,-524.96 1443.15,-515.11 1534,-478 1613.24,-445.63 1684,-365.03 1705.98,-338.28"/>
<polygon fill="midnightblue" stroke="midnightblue" points="1018.65,-524.07 1008.71,-527.74 1018.77,-531.07 1018.65,-524.07"/>
</g>
<!-- Node23&#45;&gt;Node20 -->
<g id="edge38" class="edge">
<title>Node23&#45;&gt;Node20</title>
<path fill="none" stroke="midnightblue" d="M837.47,-518.71C715.55,-503.43 508.53,-469.47 463,-411 454.53,-400.13 454.07,-390.49 463,-380 496.79,-340.3 652.28,-331.71 730.22,-329.92"/>
<polygon fill="midnightblue" stroke="midnightblue" points="837.2,-522.2 847.55,-519.95 838.05,-515.25 837.2,-522.2"/>
</g>
<!-- Node24 -->
<g id="node24" class="node">
<title>Node24</title>
<g id="a_node24"><a xlink:href="wrap_8h.html" target="_top" xlink:title=" ">
<polygon fill="white" stroke="black" points="889,-453 889,-472 967,-472 967,-453 889,-453"/>
<text text-anchor="middle" x="928" y="-460" font-family="Helvetica,sans-Serif" font-size="10.00">src/js/wrap.h</text>
</a>
</g>
</g>
<!-- Node23&#45;&gt;Node24 -->
<g id="edge39" class="edge">
<title>Node23&#45;&gt;Node24</title>
<path fill="none" stroke="midnightblue" d="M928,-509.54C928,-497.17 928,-481.62 928,-472.13"/>
<polygon fill="midnightblue" stroke="midnightblue" points="924.5,-509.73 928,-519.73 931.5,-509.73 924.5,-509.73"/>
</g>
<!-- Node31 -->
<g id="node31" class="node">
<title>Node31</title>
<g id="a_node31"><a xlink:href="historical__queries_8h.html" target="_top" xlink:title=" ">
<polygon fill="white" stroke="black" points="139,-179.5 139,-209.5 245,-209.5 245,-179.5 139,-179.5"/>
<text text-anchor="start" x="147" y="-197.5" font-family="Helvetica,sans-Serif" font-size="10.00">src/node/historical</text>
<text text-anchor="middle" x="192" y="-186.5" font-family="Helvetica,sans-Serif" font-size="10.00">_queries.h</text>
</a>
</g>
</g>
<!-- Node23&#45;&gt;Node31 -->
<g id="edge54" class="edge">
<title>Node23&#45;&gt;Node31</title>
<path fill="none" stroke="midnightblue" d="M837.3,-526.25C663.17,-521.29 294.77,-507.43 245,-478 207.81,-456.01 192,-439.71 192,-396.5 192,-396.5 192,-396.5 192,-327.5 192,-284.65 192,-233.97 192,-209.76"/>
<polygon fill="midnightblue" stroke="midnightblue" points="837.38,-529.76 847.47,-526.54 837.58,-522.76 837.38,-529.76"/>
</g>
<!-- Node33 -->
<g id="node33" class="node">
<title>Node33</title>
<g id="a_node33"><a xlink:href="node__configuration__subsystem_8h.html" target="_top" xlink:title=" ">
<polygon fill="white" stroke="black" points="1371,-447.5 1371,-477.5 1525,-477.5 1525,-447.5 1371,-447.5"/>
<text text-anchor="start" x="1379" y="-465.5" font-family="Helvetica,sans-Serif" font-size="10.00">src/node/node_configuration</text>
<text text-anchor="middle" x="1448" y="-454.5" font-family="Helvetica,sans-Serif" font-size="10.00">_subsystem.h</text>
</a>
</g>
</g>
<!-- Node23&#45;&gt;Node33 -->
<g id="edge58" class="edge">
<title>Node23&#45;&gt;Node33</title>
<path fill="none" stroke="midnightblue" d="M1018.87,-518.89C1105.8,-509.44 1240.53,-494.13 1357,-478 1361.44,-477.39 1365.99,-476.73 1370.59,-476.06"/>
<polygon fill="midnightblue" stroke="midnightblue" points="1018.34,-515.43 1008.77,-519.99 1019.09,-522.39 1018.34,-515.43"/>
</g>
<!-- Node34 -->
<g id="node34" class="node">
<title>Node34</title>
<g id="a_node34"><a xlink:href="network__identity__subsystem_8h.html" target="_top" xlink:title=" ">
<polygon fill="white" stroke="black" points="254.5,-447.5 254.5,-477.5 381.5,-477.5 381.5,-447.5 254.5,-447.5"/>
<text text-anchor="start" x="262.5" y="-465.5" font-family="Helvetica,sans-Serif" font-size="10.00">src/node/rpc/network</text>
<text text-anchor="middle" x="318" y="-454.5" font-family="Helvetica,sans-Serif" font-size="10.00">_identity_subsystem.h</text>
</a>
</g>
</g>
<!-- Node23&#45;&gt;Node34 -->
<g id="edge61" class="edge">
<title>Node23&#45;&gt;Node34</title>
<path fill="none" stroke="midnightblue" d="M837.22,-520.06C737.34,-510.59 572.09,-494.4 430,-478 414.32,-476.19 397.43,-474.09 381.63,-472.05"/>
<polygon fill="midnightblue" stroke="midnightblue" points="836.99,-523.55 847.28,-521.01 837.65,-516.58 836.99,-523.55"/>
</g>
<!-- Node36 -->
<g id="node36" class="node">
<title>Node36</title>
<g id="a_node36"><a xlink:href="node__operation_8h.html" target="_top" xlink:title=" ">
<polygon fill="white" stroke="black" points="0,-252 0,-271 164,-271 164,-252 0,-252"/>
<text text-anchor="middle" x="82" y="-259" font-family="Helvetica,sans-Serif" font-size="10.00">src/node/rpc/node_operation.h</text>
</a>
</g>
</g>
<!-- Node23&#45;&gt;Node36 -->
<g id="edge65" class="edge">
<title>Node23&#45;&gt;Node36</title>
<path fill="none" stroke="midnightblue" d="M837.36,-527.58C649.54,-524.94 230.9,-514.93 178,-478 104.12,-426.42 86.32,-304.34 82.78,-271.03"/>
<polygon fill="midnightblue" stroke="midnightblue" points="837.44,-531.08 847.49,-527.72 837.54,-524.08 837.44,-531.08"/>
</g>
<!-- Node24&#45;&gt;Node7 -->
<g id="edge41" class="edge">
<title>Node24&#45;&gt;Node7</title>
<path fill="none" stroke="midnightblue" d="M878.87,-461.22C774.06,-459.81 532.41,-452.07 463,-411 424.96,-388.49 406,-373.7 406,-329.5 406,-329.5 406,-329.5 406,-193.5 406,-113.5 1001.37,-78.85 1196.73,-69.64"/>
<polygon fill="midnightblue" stroke="midnightblue" points="878.84,-464.72 888.88,-461.34 878.92,-457.72 878.84,-464.72"/>
</g>
<!-- Node24&#45;&gt;Node10 -->
<g id="edge52" class="edge">
<title>Node24&#45;&gt;Node10</title>
<path fill="none" stroke="midnightblue" d="M977.2,-461.64C1061.6,-460.73 1228.45,-453.44 1265,-411 1293.64,-377.75 1228.42,-349.35 1253,-313 1311.55,-226.43 1440.62,-203.22 1517.94,-197.26"/>
<polygon fill="midnightblue" stroke="midnightblue" points="977.05,-458.14 967.08,-461.73 977.11,-465.14 977.05,-458.14"/>
</g>
<!-- Node24&#45;&gt;Node12 -->
<g id="edge53" class="edge">
<title>Node24&#45;&gt;Node12</title>
<path fill="none" stroke="midnightblue" d="M977.44,-461.21C1066.93,-459.66 1250.89,-451.5 1298,-411 1317.57,-394.17 1321.6,-362.27 1322.19,-343.76"/>
<polygon fill="midnightblue" stroke="midnightblue" points="977.21,-457.71 967.27,-461.36 977.32,-464.71 977.21,-457.71"/>
</g>
<!-- Node24&#45;&gt;Node20 -->
<g id="edge51" class="edge">
<title>Node24&#45;&gt;Node20</title>
<path fill="none" stroke="midnightblue" d="M938.86,-444.2C948.48,-426.42 959,-398.77 945,-380 929.95,-359.83 864.78,-344.82 819.65,-336.61"/>
<polygon fill="midnightblue" stroke="midnightblue" points="935.77,-442.53 933.77,-452.94 941.82,-446.05 935.77,-442.53"/>
</g>
<!-- Node25 -->
<g id="node25" class="node">
<title>Node25</title>
<g id="a_node25"><a xlink:href="js__generic__base_8cpp.html" target="_top" xlink:title=" ">
<polygon fill="white" stroke="black" points="992,-380.5 992,-410.5 1110,-410.5 1110,-380.5 992,-380.5"/>
<text text-anchor="start" x="1000" y="-398.5" font-family="Helvetica,sans-Serif" font-size="10.00">src/apps/js_generic</text>
<text text-anchor="middle" x="1051" y="-387.5" font-family="Helvetica,sans-Serif" font-size="10.00">/js_generic_base.cpp</text>
</a>
</g>
</g>
<!-- Node24&#45;&gt;Node25 -->
<g id="edge40" class="edge">
<title>Node24&#45;&gt;Node25</title>
<path fill="none" stroke="midnightblue" d="M953.18,-448.19C973.87,-437.26 1003.11,-421.81 1024.22,-410.65"/>
<polygon fill="midnightblue" stroke="midnightblue" points="951.54,-445.1 944.33,-452.87 954.81,-451.29 951.54,-445.1"/>
</g>
<!-- Node26 -->
<g id="node26" class="node">
<title>Node26</title>
<g id="a_node26"><a xlink:href="js_2consensus_8cpp.html" target="_top" xlink:title=" ">
<polygon fill="white" stroke="black" points="472,-386 472,-405 588,-405 588,-386 472,-386"/>
<text text-anchor="middle" x="530" y="-393" font-family="Helvetica,sans-Serif" font-size="10.00">src/js/consensus.cpp</text>
</a>
</g>
</g>
<!-- Node24&#45;&gt;Node26 -->
<g id="edge42" class="edge">
<title>Node24&#45;&gt;Node26</title>
<path fill="none" stroke="midnightblue" d="M878.96,-454.98C814.2,-446.16 696.71,-429.38 597,-411 587.4,-409.23 577.08,-407.11 567.48,-405.04"/>
<polygon fill="midnightblue" stroke="midnightblue" points="878.51,-458.45 888.89,-456.33 879.45,-451.52 878.51,-458.45"/>
</g>
<!-- Node27 -->
<g id="node27" class="node">
<title>Node27</title>
<g id="a_node27"><a xlink:href="conv_8cpp.html" target="_top" xlink:title=" ">
<polygon fill="white" stroke="black" points="848,-386 848,-405 936,-405 936,-386 848,-386"/>
<text text-anchor="middle" x="892" y="-393" font-family="Helvetica,sans-Serif" font-size="10.00">src/js/conv.cpp</text>
</a>
</g>
</g>
<!-- Node24&#45;&gt;Node27 -->
<g id="edge44" class="edge">
<title>Node24&#45;&gt;Node27</title>
<path fill="none" stroke="midnightblue" d="M918.12,-443.66C911.18,-431.13 902.2,-414.91 896.78,-405.13"/>
<polygon fill="midnightblue" stroke="midnightblue" points="915.24,-445.68 923.14,-452.73 921.36,-442.29 915.24,-445.68"/>
</g>
<!-- Node28 -->
<g id="node28" class="node">
<title>Node28</title>
<g id="a_node28"><a xlink:href="js_2crypto_8cpp.html" target="_top" xlink:title=" ">
<polygon fill="white" stroke="black" points="606,-386 606,-405 702,-405 702,-386 606,-386"/>
<text text-anchor="middle" x="654" y="-393" font-family="Helvetica,sans-Serif" font-size="10.00">src/js/crypto.cpp</text>
</a>
</g>
</g>
<!-- Node24&#45;&gt;Node28 -->
<g id="edge46" class="edge">
<title>Node24&#45;&gt;Node28</title>
<path fill="none" stroke="midnightblue" d="M880.46,-450.73C836.46,-440.69 769.23,-425.18 711,-411 703.26,-409.12 694.95,-407.03 687.13,-405.05"/>
<polygon fill="midnightblue" stroke="midnightblue" points="879.78,-454.17 890.31,-452.97 881.34,-447.34 879.78,-454.17"/>
</g>
<!-- Node29 -->
<g id="node29" class="node">
<title>Node29</title>
<g id="a_node29"><a xlink:href="js_2historical_8cpp.html" target="_top" xlink:title=" ">
<polygon fill="white" stroke="black" points="720,-386 720,-405 830,-405 830,-386 720,-386"/>
<text text-anchor="middle" x="775" y="-393" font-family="Helvetica,sans-Serif" font-size="10.00">src/js/historical.cpp</text>
</a>
</g>
</g>
<!-- Node24&#45;&gt;Node29 -->
<g id="edge48" class="edge">
<title>Node24&#45;&gt;Node29</title>
<path fill="none" stroke="midnightblue" d="M898.46,-448.95C868.16,-436.08 821.85,-416.4 795.4,-405.17"/>
<polygon fill="midnightblue" stroke="midnightblue" points="897.11,-452.18 907.68,-452.87 899.85,-445.74 897.11,-452.18"/>
</g>
<!-- Node30 -->
<g id="node30" class="node">
<title>Node30</title>
<g id="a_node30"><a xlink:href="openenclave_8cpp.html" target="_top" xlink:title=" ">
<polygon fill="white" stroke="black" points="1128,-386 1128,-405 1256,-405 1256,-386 1128,-386"/>
<text text-anchor="middle" x="1192" y="-393" font-family="Helvetica,sans-Serif" font-size="10.00">src/js/openenclave.cpp</text>
</a>
</g>
</g>
<!-- Node24&#45;&gt;Node30 -->
<g id="edge50" class="edge">
<title>Node24&#45;&gt;Node30</title>
<path fill="none" stroke="midnightblue" d="M972.74,-450.48C1024.82,-437.66 1109.71,-416.76 1157.14,-405.08"/>
<polygon fill="midnightblue" stroke="midnightblue" points="971.66,-447.15 962.78,-452.94 973.33,-453.94 971.66,-447.15"/>
</g>
<!-- Node26&#45;&gt;Node20 -->
<g id="edge43" class="edge">
<title>Node26&#45;&gt;Node20</title>
<path fill="none" stroke="midnightblue" d="M572.13,-383.32C620.5,-370.49 698.82,-349.71 742.65,-338.08"/>
<polygon fill="midnightblue" stroke="midnightblue" points="571.05,-379.99 562.28,-385.94 572.84,-386.75 571.05,-379.99"/>
</g>
<!-- Node27&#45;&gt;Node20 -->
<g id="edge45" class="edge">
<title>Node27&#45;&gt;Node20</title>
<path fill="none" stroke="midnightblue" d="M867.32,-380.79C844.13,-367.9 810.14,-349.02 790.53,-338.13"/>
<polygon fill="midnightblue" stroke="midnightblue" points="865.78,-383.94 876.22,-385.73 869.18,-377.82 865.78,-383.94"/>
</g>
<!-- Node28&#45;&gt;Node20 -->
<g id="edge47" class="edge">
<title>Node28&#45;&gt;Node20</title>
<path fill="none" stroke="midnightblue" d="M679.21,-380.96C703.2,-368.07 738.56,-349.07 758.94,-338.13"/>
<polygon fill="midnightblue" stroke="midnightblue" points="677.47,-377.92 670.32,-385.73 680.78,-384.08 677.47,-377.92"/>
</g>
<!-- Node29&#45;&gt;Node20 -->
<g id="edge49" class="edge">
<title>Node29&#45;&gt;Node20</title>
<path fill="none" stroke="midnightblue" d="M775,-375.54C775,-363.17 775,-347.62 775,-338.13"/>
<polygon fill="midnightblue" stroke="midnightblue" points="771.5,-375.73 775,-385.73 778.5,-375.73 771.5,-375.73"/>
</g>
<!-- Node31&#45;&gt;Node7 -->
<g id="edge55" class="edge">
<title>Node31&#45;&gt;Node7</title>
<path fill="none" stroke="midnightblue" d="M163.91,-173.11C143.14,-155.64 121.27,-130.46 139,-112 175.87,-73.62 968.57,-67.97 1196.94,-67.14"/>
<polygon fill="midnightblue" stroke="midnightblue" points="161.75,-175.86 171.74,-179.4 166.14,-170.4 161.75,-175.86"/>
</g>
<!-- Node32 -->
<g id="node32" class="node">
<title>Node32</title>
<g id="a_node32"><a xlink:href="historical__transaction__fetcher_8h.html" target="_top" xlink:title=" ">
<polygon fill="white" stroke="black" points="148.5,-112.5 148.5,-142.5 273.5,-142.5 273.5,-112.5 148.5,-112.5"/>
<text text-anchor="start" x="156.5" y="-130.5" font-family="Helvetica,sans-Serif" font-size="10.00">src/indexing/historical</text>
<text text-anchor="middle" x="211" y="-119.5" font-family="Helvetica,sans-Serif" font-size="10.00">_transaction_fetcher.h</text>
</a>
</g>
</g>
<!-- Node31&#45;&gt;Node32 -->
<g id="edge56" class="edge">
<title>Node31&#45;&gt;Node32</title>
<path fill="none" stroke="midnightblue" d="M198.96,-169.7C201.62,-160.59 204.57,-150.49 206.89,-142.58"/>
<polygon fill="midnightblue" stroke="midnightblue" points="195.57,-168.82 196.12,-179.4 202.29,-170.78 195.57,-168.82"/>
</g>
<!-- Node32&#45;&gt;Node7 -->
<g id="edge57" class="edge">
<title>Node32&#45;&gt;Node7</title>
<path fill="none" stroke="midnightblue" d="M283.53,-112.55C285.03,-112.36 286.52,-112.17 288,-112 629.8,-72.09 1043.24,-67.21 1196.76,-66.88"/>
<polygon fill="midnightblue" stroke="midnightblue" points="282.91,-109.1 273.5,-113.97 283.9,-116.03 282.91,-109.1"/>
</g>
<!-- Node33&#45;&gt;Node5 -->
<g id="edge59" class="edge">
<title>Node33&#45;&gt;Node5</title>
<path fill="none" stroke="midnightblue" d="M1473.54,-441.01C1488.57,-428.94 1506.81,-414.3 1518.17,-405.19"/>
<polygon fill="midnightblue" stroke="midnightblue" points="1471.18,-438.41 1465.58,-447.4 1475.57,-443.87 1471.18,-438.41"/>
</g>
<!-- Node34&#45;&gt;Node7 -->
<g id="edge62" class="edge">
<title>Node34&#45;&gt;Node7</title>
<path fill="none" stroke="midnightblue" d="M278.59,-442.01C266.9,-434.11 255.49,-423.78 249,-411 242.77,-398.71 244.81,-393.12 249,-380 299.4,-222.21 349.36,-159.66 508,-112 636.36,-73.44 1041.93,-67.79 1196.94,-67.06"/>
<polygon fill="midnightblue" stroke="midnightblue" points="276.76,-444.99 287.09,-447.34 280.48,-439.06 276.76,-444.99"/>
</g>
<!-- Node35 -->
<g id="node35" class="node">
<title>Node35</title>
<g id="a_node35"><a xlink:href="historical__queries__adapter_8cpp.html" target="_top" xlink:title=" ">
<polygon fill="white" stroke="black" points="258,-380.5 258,-410.5 378,-410.5 378,-380.5 258,-380.5"/>
<text text-anchor="start" x="266" y="-398.5" font-family="Helvetica,sans-Serif" font-size="10.00">src/node/historical</text>
<text text-anchor="middle" x="318" y="-387.5" font-family="Helvetica,sans-Serif" font-size="10.00">_queries_adapter.cpp</text>
</a>
</g>
</g>
<!-- Node34&#45;&gt;Node35 -->
<g id="edge63" class="edge">
<title>Node34&#45;&gt;Node35</title>
<path fill="none" stroke="midnightblue" d="M318,-437.11C318,-428.15 318,-418.32 318,-410.58"/>
<polygon fill="midnightblue" stroke="midnightblue" points="314.5,-437.4 318,-447.4 321.5,-437.4 314.5,-437.4"/>
</g>
<!-- Node36&#45;&gt;Node7 -->
<g id="edge66" class="edge">
<title>Node36&#45;&gt;Node7</title>
<path fill="none" stroke="midnightblue" d="M81.63,-241.59C82.13,-209.04 88.42,-142.98 129,-112 171.68,-79.41 967.57,-69.65 1196.74,-67.51"/>
<polygon fill="midnightblue" stroke="midnightblue" points="78.13,-241.94 81.65,-251.93 85.13,-241.92 78.13,-241.94"/>
</g>
<!-- Node37&#45;&gt;Node7 -->
<g id="edge69" class="edge">
<title>Node37&#45;&gt;Node7</title>
<path fill="none" stroke="midnightblue" d="M2167.49,-584.56C2227.75,-578.62 2306.21,-566.88 2329,-545 2355.83,-519.24 2348,-500.69 2348,-463.5 2348,-463.5 2348,-463.5 2348,-193.5 2348,-89.14 1549.4,-70.75 1319.33,-67.62"/>
<polygon fill="midnightblue" stroke="midnightblue" points="2166.86,-581.11 2157.23,-585.54 2167.52,-588.08 2166.86,-581.11"/>
</g>
<!-- Node37&#45;&gt;Node16 -->
<g id="edge80" class="edge">
<title>Node37&#45;&gt;Node16</title>
<path fill="none" stroke="midnightblue" d="M2018.9,-583.01C1942.5,-575.38 1820.06,-561.95 1715,-545 1712.27,-544.56 1709.48,-544.09 1706.67,-543.59"/>
<polygon fill="midnightblue" stroke="midnightblue" points="2018.61,-586.5 2028.9,-584.01 2019.3,-579.54 2018.61,-586.5"/>
</g>
<!-- Node37&#45;&gt;Node22 -->
<g id="edge81" class="edge">
<title>Node37&#45;&gt;Node22</title>
<path fill="none" stroke="midnightblue" d="M2019.01,-580.43C1973.31,-573.04 1920.37,-561.3 1904,-545 1864.53,-505.69 1865.59,-430.94 1867.25,-405.35"/>
<polygon fill="midnightblue" stroke="midnightblue" points="2018.52,-583.9 2028.94,-581.99 2019.6,-576.98 2018.52,-583.9"/>
</g>
<!-- Node38 -->
<g id="node38" class="node">
<title>Node38</title>
<g id="a_node38"><a xlink:href="host_2enclave_8h.html" target="_top" xlink:title=" ">
<polygon fill="white" stroke="black" points="1912.5,-520 1912.5,-539 2017.5,-539 2017.5,-520 1912.5,-520"/>
<text text-anchor="middle" x="1965" y="-527" font-family="Helvetica,sans-Serif" font-size="10.00">src/host/enclave.h</text>
</a>
</g>
</g>
<!-- Node37&#45;&gt;Node38 -->
<g id="edge70" class="edge">
<title>Node37&#45;&gt;Node38</title>
<path fill="none" stroke="midnightblue" d="M2065.41,-577.17C2040.57,-565.63 2004.77,-548.99 1983.31,-539.01"/>
<polygon fill="midnightblue" stroke="midnightblue" points="2064.12,-580.43 2074.66,-581.48 2067.07,-574.09 2064.12,-580.43"/>
</g>
<!-- Node41 -->
<g id="node41" class="node">
<title>Node41</title>
<g id="a_node41"><a xlink:href="handle__ring__buffer_8h.html" target="_top" xlink:title=" ">
<polygon fill="white" stroke="black" points="2035.5,-514.5 2035.5,-544.5 2150.5,-544.5 2150.5,-514.5 2035.5,-514.5"/>
<text text-anchor="start" x="2043.5" y="-532.5" font-family="Helvetica,sans-Serif" font-size="10.00">src/host/handle_ring</text>
<text text-anchor="middle" x="2093" y="-521.5" font-family="Helvetica,sans-Serif" font-size="10.00">_buffer.h</text>
</a>
</g>
</g>
<!-- Node37&#45;&gt;Node41 -->
<g id="edge76" class="edge">
<title>Node37&#45;&gt;Node41</title>
<path fill="none" stroke="midnightblue" d="M2093,-571.23C2093,-562.59 2093,-552.5 2093,-544.52"/>
<polygon fill="midnightblue" stroke="midnightblue" points="2089.5,-571.48 2093,-581.48 2096.5,-571.48 2089.5,-571.48"/>
</g>
<!-- Node42 -->
<g id="node42" class="node">
<title>Node42</title>
<g id="a_node42"><a xlink:href="process__launcher_8h.html" target="_top" xlink:title=" ">
<polygon fill="white" stroke="black" points="2168.5,-520 2168.5,-539 2319.5,-539 2319.5,-520 2168.5,-520"/>
<text text-anchor="middle" x="2244" y="-527" font-family="Helvetica,sans-Serif" font-size="10.00">src/host/process_launcher.h</text>
</a>
</g>
</g>
<!-- Node37&#45;&gt;Node42 -->
<g id="edge78" class="edge">
<title>Node37&#45;&gt;Node42</title>
<path fill="none" stroke="midnightblue" d="M2124.01,-577.78C2153.35,-566.22 2196.63,-549.16 2222.41,-539.01"/>
<polygon fill="midnightblue" stroke="midnightblue" points="2122.66,-574.55 2114.63,-581.48 2125.22,-581.07 2122.66,-574.55"/>
</g>
<!-- Node38&#45;&gt;Node4 -->
<g id="edge71" class="edge">
<title>Node38&#45;&gt;Node4</title>
<path fill="none" stroke="midnightblue" d="M1952.14,-511.78C1940.22,-494.1 1926.38,-466.18 1941,-447 1949.79,-435.48 2032.54,-416.11 2084.03,-405.01"/>
<polygon fill="midnightblue" stroke="midnightblue" points="1949.36,-513.91 1958.03,-519.99 1955.04,-509.82 1949.36,-513.91"/>
</g>
<!-- Node39 -->
<g id="node39" class="node">
<title>Node39</title>
<g id="a_node39"><a xlink:href="sig__term_8h.html" target="_top" xlink:title=" ">
<polygon fill="white" stroke="black" points="1950,-453 1950,-472 2060,-472 2060,-453 1950,-453"/>
<text text-anchor="middle" x="2005" y="-460" font-family="Helvetica,sans-Serif" font-size="10.00">src/host/sig_term.h</text>
</a>
</g>
</g>
<!-- Node38&#45;&gt;Node39 -->
<g id="edge72" class="edge">
<title>Node38&#45;&gt;Node39</title>
<path fill="none" stroke="midnightblue" d="M1975.75,-511.03C1983.49,-498.45 1993.61,-482.01 1999.69,-472.13"/>
<polygon fill="midnightblue" stroke="midnightblue" points="1972.65,-509.38 1970.39,-519.73 1978.62,-513.05 1972.65,-509.38"/>
</g>
<!-- Node40 -->
<g id="node40" class="node">
<title>Node40</title>
<g id="a_node40"><a xlink:href="ticker_8h.html" target="_top" xlink:title=" ">
<polygon fill="white" stroke="black" points="2078.5,-453 2078.5,-472 2171.5,-472 2171.5,-453 2078.5,-453"/>
<text text-anchor="middle" x="2125" y="-460" font-family="Helvetica,sans-Serif" font-size="10.00">src/host/ticker.h</text>
</a>
</g>
</g>
<!-- Node38&#45;&gt;Node40 -->
<g id="edge74" class="edge">
<title>Node38&#45;&gt;Node40</title>
<path fill="none" stroke="midnightblue" d="M1995.51,-516.1C2027.28,-503.2 2076.19,-483.33 2103.92,-472.06"/>
<polygon fill="midnightblue" stroke="midnightblue" points="1994.19,-512.86 1986.25,-519.87 1996.83,-519.35 1994.19,-512.86"/>
</g>
<!-- Node39&#45;&gt;Node4 -->
<g id="edge73" class="edge">
<title>Node39&#45;&gt;Node4</title>
<path fill="none" stroke="midnightblue" d="M2030,-447.96C2053.79,-435.07 2088.87,-416.07 2109.07,-405.13"/>
<polygon fill="midnightblue" stroke="midnightblue" points="2028.31,-444.89 2021.18,-452.73 2031.64,-451.05 2028.31,-444.89"/>
</g>
<!-- Node40&#45;&gt;Node4 -->
<g id="edge75" class="edge">
<title>Node40&#45;&gt;Node4</title>
<path fill="none" stroke="midnightblue" d="M2125,-442.54C2125,-430.17 2125,-414.62 2125,-405.13"/>
<polygon fill="midnightblue" stroke="midnightblue" points="2121.5,-442.73 2125,-452.73 2128.5,-442.73 2121.5,-442.73"/>
</g>
<!-- Node41&#45;&gt;Node4 -->
<g id="edge77" class="edge">
<title>Node41&#45;&gt;Node4</title>
<path fill="none" stroke="midnightblue" d="M2145.89,-509.7C2159.75,-502.09 2173.03,-491.75 2181,-478 2187.9,-466.08 2186.6,-459.59 2181,-447 2172.7,-428.34 2153.72,-413.67 2140.16,-405.05"/>
<polygon fill="midnightblue" stroke="midnightblue" points="2144.09,-506.69 2136.75,-514.32 2147.25,-512.93 2144.09,-506.69"/>
</g>
<!-- Node42&#45;&gt;Node4 -->
<g id="edge79" class="edge">
<title>Node42&#45;&gt;Node4</title>
<path fill="none" stroke="midnightblue" d="M2236.3,-510.24C2228.27,-492.68 2214.44,-466.06 2197,-447 2180.61,-429.09 2156.81,-413.95 2141.12,-405.04"/>
<polygon fill="midnightblue" stroke="midnightblue" points="2233.29,-512.11 2240.52,-519.86 2239.7,-509.29 2233.29,-512.11"/>
</g>
</g>
</svg>
