<?xml version="1.0" encoding="UTF-8" standalone="no"?>
<!DOCTYPE svg PUBLIC "-//W3C//DTD SVG 1.1//EN"
 "http://www.w3.org/Graphics/SVG/1.1/DTD/svg11.dtd">
<!-- Generated by graphviz version 2.43.0 (0)
 -->
<!-- Title: src/node/rpc/rpc_context_impl.h Pages: 1 -->
<svg width="1025pt" height="710pt"
 viewBox="0.00 0.00 1025.00 710.00" xmlns="http://www.w3.org/2000/svg" xmlns:xlink="http://www.w3.org/1999/xlink">
<g id="graph0" class="graph" transform="scale(1 1) rotate(0) translate(4 706)">
<title>src/node/rpc/rpc_context_impl.h</title>
<polygon fill="white" stroke="transparent" points="-4,4 -4,-706 1021,-706 1021,4 -4,4"/>
<!-- Node1 -->
<g id="node1" class="node">
<title>Node1</title>
<g id="a_node1"><a xlink:title=" ">
<polygon fill="#bfbfbf" stroke="black" points="311,-671.5 311,-701.5 447,-701.5 447,-671.5 311,-671.5"/>
<text text-anchor="start" x="319" y="-689.5" font-family="Helvetica,sans-Serif" font-size="10.00">src/node/rpc/rpc_context</text>
<text text-anchor="middle" x="379" y="-678.5" font-family="Helvetica,sans-Serif" font-size="10.00">_impl.h</text>
</a>
</g>
</g>
<!-- Node2 -->
<g id="node2" class="node">
<title>Node2</title>
<g id="a_node2"><a xlink:href="js__generic__base_8cpp.html" target="_top" xlink:title=" ">
<polygon fill="white" stroke="black" points="117,-604.5 117,-634.5 235,-634.5 235,-604.5 117,-604.5"/>
<text text-anchor="start" x="125" y="-622.5" font-family="Helvetica,sans-Serif" font-size="10.00">src/apps/js_generic</text>
<text text-anchor="middle" x="176" y="-611.5" font-family="Helvetica,sans-Serif" font-size="10.00">/js_generic_base.cpp</text>
</a>
</g>
</g>
<!-- Node1&#45;&gt;Node2 -->
<g id="edge1" class="edge">
<title>Node1&#45;&gt;Node2</title>
<path fill="none" stroke="midnightblue" d="M325.06,-668.23C292.22,-657.71 250.8,-644.45 219.96,-634.58"/>
<polygon fill="midnightblue" stroke="midnightblue" points="324.36,-671.68 334.95,-671.4 326.5,-665.01 324.36,-671.68"/>
</g>
<!-- Node3 -->
<g id="node3" class="node">
<title>Node3</title>
<g id="a_node3"><a xlink:href="js__v8__base_8cpp.html" target="_top" xlink:title=" ">
<polygon fill="white" stroke="black" points="253,-604.5 253,-634.5 367,-634.5 367,-604.5 253,-604.5"/>
<text text-anchor="start" x="261" y="-622.5" font-family="Helvetica,sans-Serif" font-size="10.00">src/apps/js_v8/js_v8</text>
<text text-anchor="middle" x="310" y="-611.5" font-family="Helvetica,sans-Serif" font-size="10.00">_base.cpp</text>
</a>
</g>
</g>
<!-- Node1&#45;&gt;Node3 -->
<g id="edge2" class="edge">
<title>Node1&#45;&gt;Node3</title>
<path fill="none" stroke="midnightblue" d="M356.51,-664.31C346.16,-654.56 334.16,-643.26 324.94,-634.58"/>
<polygon fill="midnightblue" stroke="midnightblue" points="354.35,-667.09 364.03,-671.4 359.15,-661.99 354.35,-667.09"/>
</g>
<!-- Node4 -->
<g id="node4" class="node">
<title>Node4</title>
<g id="a_node4"><a xlink:href="endpoint__registry_8cpp.html" target="_top" xlink:title=" ">
<polygon fill="white" stroke="black" points="385,-604.5 385,-634.5 513,-634.5 513,-604.5 385,-604.5"/>
<text text-anchor="start" x="393" y="-622.5" font-family="Helvetica,sans-Serif" font-size="10.00">src/endpoints/endpoint</text>
<text text-anchor="middle" x="449" y="-611.5" font-family="Helvetica,sans-Serif" font-size="10.00">_registry.cpp</text>
</a>
</g>
</g>
<!-- Node1&#45;&gt;Node4 -->
<g id="edge3" class="edge">
<title>Node1&#45;&gt;Node4</title>
<path fill="none" stroke="midnightblue" d="M401.82,-664.31C412.32,-654.56 424.49,-643.26 433.84,-634.58"/>
<polygon fill="midnightblue" stroke="midnightblue" points="399.14,-662.03 394.19,-671.4 403.9,-667.16 399.14,-662.03"/>
</g>
<!-- Node5 -->
<g id="node5" class="node">
<title>Node5</title>
<g id="a_node5"><a xlink:href="http__rpc__context_8h.html" target="_top" xlink:title=" ">
<polygon fill="white" stroke="black" points="531.5,-610 531.5,-629 678.5,-629 678.5,-610 531.5,-610"/>
<text text-anchor="middle" x="605" y="-617" font-family="Helvetica,sans-Serif" font-size="10.00">src/http/http_rpc_context.h</text>
</a>
</g>
</g>
<!-- Node1&#45;&gt;Node5 -->
<g id="edge4" class="edge">
<title>Node1&#45;&gt;Node5</title>
<path fill="none" stroke="midnightblue" d="M437.51,-668.67C481.68,-655.97 540.45,-639.06 575.35,-629.03"/>
<polygon fill="midnightblue" stroke="midnightblue" points="436.4,-665.35 427.76,-671.48 438.34,-672.08 436.4,-665.35"/>
</g>
<!-- Node6 -->
<g id="node6" class="node">
<title>Node6</title>
<g id="a_node6"><a xlink:href="http__endpoint_8h.html" target="_top" xlink:title=" ">
<polygon fill="white" stroke="black" points="292.5,-548.5 292.5,-567.5 425.5,-567.5 425.5,-548.5 292.5,-548.5"/>
<text text-anchor="middle" x="359" y="-555.5" font-family="Helvetica,sans-Serif" font-size="10.00">src/http/http_endpoint.h</text>
</a>
</g>
</g>
<!-- Node5&#45;&gt;Node6 -->
<g id="edge5" class="edge">
<title>Node5&#45;&gt;Node6</title>
<path fill="none" stroke="midnightblue" d="M559.99,-607.61C512.24,-596.07 437.81,-578.06 394.18,-567.51"/>
<polygon fill="midnightblue" stroke="midnightblue" points="559.21,-611.03 569.75,-609.98 560.86,-604.22 559.21,-611.03"/>
</g>
<!-- Node17 -->
<g id="node17" class="node">
<title>Node17</title>
<g id="a_node17"><a xlink:href="jwt__key__auto__refresh_8h.html" target="_top" xlink:title=" ">
<polygon fill="white" stroke="black" points="366.5,-235.5 366.5,-265.5 491.5,-265.5 491.5,-235.5 366.5,-235.5"/>
<text text-anchor="start" x="374.5" y="-253.5" font-family="Helvetica,sans-Serif" font-size="10.00">src/node/jwt_key_auto</text>
<text text-anchor="middle" x="429" y="-242.5" font-family="Helvetica,sans-Serif" font-size="10.00">_refresh.h</text>
</a>
</g>
</g>
<!-- Node5&#45;&gt;Node17 -->
<g id="edge30" class="edge">
<title>Node5&#45;&gt;Node17</title>
<path fill="none" stroke="midnightblue" d="M605,-599.79C605,-576.95 605,-537.14 605,-503 605,-503 605,-503 605,-445 605,-410.18 610.45,-393.79 586,-369 542.09,-324.48 494.07,-377.36 450,-333 432.08,-314.96 428.82,-283.79 428.57,-265.68"/>
<polygon fill="midnightblue" stroke="midnightblue" points="601.5,-599.81 605,-609.81 608.5,-599.81 601.5,-599.81"/>
</g>
<!-- Node21 -->
<g id="node21" class="node">
<title>Node21</title>
<g id="a_node21"><a xlink:href="forwarder_8h.html" target="_top" xlink:title=" ">
<polygon fill="white" stroke="black" points="736,-436.5 736,-455.5 870,-455.5 870,-436.5 736,-436.5"/>
<text text-anchor="middle" x="803" y="-443.5" font-family="Helvetica,sans-Serif" font-size="10.00">src/node/rpc/forwarder.h</text>
</a>
</g>
</g>
<!-- Node5&#45;&gt;Node21 -->
<g id="edge31" class="edge">
<title>Node5&#45;&gt;Node21</title>
<path fill="none" stroke="midnightblue" d="M622.51,-603.33C662.9,-568.35 761.57,-482.89 793.12,-455.56"/>
<polygon fill="midnightblue" stroke="midnightblue" points="620.09,-600.8 614.82,-610 624.67,-606.09 620.09,-600.8"/>
</g>
<!-- Node7 -->
<g id="node7" class="node">
<title>Node7</title>
<g id="a_node7"><a xlink:href="rpc__sessions_8h.html" target="_top" xlink:title=" ">
<polygon fill="white" stroke="black" points="115,-492.5 115,-511.5 261,-511.5 261,-492.5 115,-492.5"/>
<text text-anchor="middle" x="188" y="-499.5" font-family="Helvetica,sans-Serif" font-size="10.00">src/enclave/rpc_sessions.h</text>
</a>
</g>
</g>
<!-- Node6&#45;&gt;Node7 -->
<g id="edge6" class="edge">
<title>Node6&#45;&gt;Node7</title>
<path fill="none" stroke="midnightblue" d="M321.96,-545.3C289.74,-535.13 243.81,-520.62 214.97,-511.52"/>
<polygon fill="midnightblue" stroke="midnightblue" points="321.31,-548.77 331.9,-548.44 323.42,-542.09 321.31,-548.77"/>
</g>
<!-- Node8 -->
<g id="node8" class="node">
<title>Node8</title>
<g id="a_node8"><a xlink:href="enclave_2enclave_8h.html" target="_top" xlink:title=" ">
<polygon fill="white" stroke="black" points="682,-56.5 682,-75.5 804,-75.5 804,-56.5 682,-56.5"/>
<text text-anchor="middle" x="743" y="-63.5" font-family="Helvetica,sans-Serif" font-size="10.00">src/enclave/enclave.h</text>
</a>
</g>
</g>
<!-- Node7&#45;&gt;Node8 -->
<g id="edge7" class="edge">
<title>Node7&#45;&gt;Node8</title>
<path fill="none" stroke="midnightblue" d="M127.58,-490.08C72.61,-476.25 0,-446.44 0,-385.5 0,-385.5 0,-385.5 0,-182.5 0,-113.68 504.15,-79.87 681.88,-70.09"/>
<polygon fill="midnightblue" stroke="midnightblue" points="127.08,-493.56 137.62,-492.48 128.71,-486.75 127.08,-493.56"/>
</g>
<!-- Node10 -->
<g id="node10" class="node">
<title>Node10</title>
<g id="a_node10"><a xlink:href="ccf__acme__client_8h.html" target="_top" xlink:title=" ">
<polygon fill="white" stroke="black" points="509.5,-241 509.5,-260 658.5,-260 658.5,-241 509.5,-241"/>
<text text-anchor="middle" x="584" y="-248" font-family="Helvetica,sans-Serif" font-size="10.00">src/node/ccf_acme_client.h</text>
</a>
</g>
</g>
<!-- Node7&#45;&gt;Node10 -->
<g id="edge9" class="edge">
<title>Node7&#45;&gt;Node10</title>
<path fill="none" stroke="midnightblue" d="M189.24,-482.31C192.96,-442.24 207.69,-348.02 265,-302 306.37,-268.79 448.64,-274.57 501,-266 512.4,-264.13 524.67,-262.04 536.19,-260.03"/>
<polygon fill="midnightblue" stroke="midnightblue" points="185.73,-482.24 188.42,-492.49 192.71,-482.8 185.73,-482.24"/>
</g>
<!-- Node11 -->
<g id="node11" class="node">
<title>Node11</title>
<g id="a_node11"><a xlink:href="node__state_8h.html" target="_top" xlink:title=" ">
<polygon fill="white" stroke="black" points="367,-174 367,-193 491,-193 491,-174 367,-174"/>
<text text-anchor="middle" x="429" y="-181" font-family="Helvetica,sans-Serif" font-size="10.00">src/node/node_state.h</text>
</a>
</g>
</g>
<!-- Node7&#45;&gt;Node11 -->
<g id="edge27" class="edge">
<title>Node7&#45;&gt;Node11</title>
<path fill="none" stroke="midnightblue" d="M181.37,-482.9C165.44,-435.89 130.58,-308.46 191,-235 212.94,-208.33 303.93,-195.13 366.83,-189.07"/>
<polygon fill="midnightblue" stroke="midnightblue" points="178.08,-484.09 184.7,-492.36 184.68,-481.77 178.08,-484.09"/>
</g>
<!-- Node13 -->
<g id="node13" class="node">
<title>Node13</title>
<g id="a_node13"><a xlink:href="node__client_8h.html" target="_top" xlink:title=" ">
<polygon fill="white" stroke="black" points="235,-436.5 235,-455.5 361,-455.5 361,-436.5 235,-436.5"/>
<text text-anchor="middle" x="298" y="-443.5" font-family="Helvetica,sans-Serif" font-size="10.00">src/node/node_client.h</text>
</a>
</g>
</g>
<!-- Node7&#45;&gt;Node13 -->
<g id="edge14" class="edge">
<title>Node7&#45;&gt;Node13</title>
<path fill="none" stroke="midnightblue" d="M214.76,-487.86C235.16,-477.85 262.67,-464.35 280.37,-455.65"/>
<polygon fill="midnightblue" stroke="midnightblue" points="213.11,-484.78 205.67,-492.32 216.19,-491.06 213.11,-484.78"/>
</g>
<!-- Node20 -->
<g id="node20" class="node">
<title>Node20</title>
<g id="a_node20"><a xlink:href="resharing_8h.html" target="_top" xlink:title=" ">
<polygon fill="white" stroke="black" points="28,-241 28,-260 144,-260 144,-241 28,-241"/>
<text text-anchor="middle" x="86" y="-248" font-family="Helvetica,sans-Serif" font-size="10.00">src/node/resharing.h</text>
</a>
</g>
</g>
<!-- Node7&#45;&gt;Node20 -->
<g id="edge28" class="edge">
<title>Node7&#45;&gt;Node20</title>
<path fill="none" stroke="midnightblue" d="M173.84,-484.3C167.45,-476.15 160.18,-465.98 155,-456 117.86,-384.51 94.44,-288.86 87.89,-260.05"/>
<polygon fill="midnightblue" stroke="midnightblue" points="171.27,-486.69 180.3,-492.24 176.7,-482.27 171.27,-486.69"/>
</g>
<!-- Node9 -->
<g id="node9" class="node">
<title>Node9</title>
<g id="a_node9"><a xlink:href="enclave_2main_8cpp.html" target="_top" xlink:title=" ">
<polygon fill="white" stroke="black" points="683,-0.5 683,-19.5 803,-19.5 803,-0.5 683,-0.5"/>
<text text-anchor="middle" x="743" y="-7.5" font-family="Helvetica,sans-Serif" font-size="10.00">src/enclave/main.cpp</text>
</a>
</g>
</g>
<!-- Node8&#45;&gt;Node9 -->
<g id="edge8" class="edge">
<title>Node8&#45;&gt;Node9</title>
<path fill="none" stroke="midnightblue" d="M743,-45.8C743,-36.91 743,-26.78 743,-19.75"/>
<polygon fill="midnightblue" stroke="midnightblue" points="739.5,-46.08 743,-56.08 746.5,-46.08 739.5,-46.08"/>
</g>
<!-- Node10&#45;&gt;Node11 -->
<g id="edge10" class="edge">
<title>Node10&#45;&gt;Node11</title>
<path fill="none" stroke="midnightblue" d="M554.07,-236.95C523.38,-224.08 476.46,-204.4 449.67,-193.17"/>
<polygon fill="midnightblue" stroke="midnightblue" points="552.84,-240.23 563.42,-240.87 555.55,-233.77 552.84,-240.23"/>
</g>
<!-- Node11&#45;&gt;Node8 -->
<g id="edge11" class="edge">
<title>Node11&#45;&gt;Node8</title>
<path fill="none" stroke="midnightblue" d="M461.89,-170.4C525.55,-146.99 664.17,-96 719.5,-75.64"/>
<polygon fill="midnightblue" stroke="midnightblue" points="460.52,-167.18 452.34,-173.91 462.94,-173.75 460.52,-167.18"/>
</g>
<!-- Node12 -->
<g id="node12" class="node">
<title>Node12</title>
<g id="a_node12"><a xlink:href="gov__effects_8h.html" target="_top" xlink:title=" ">
<polygon fill="white" stroke="black" points="397,-112.5 397,-131.5 541,-131.5 541,-112.5 397,-112.5"/>
<text text-anchor="middle" x="469" y="-119.5" font-family="Helvetica,sans-Serif" font-size="10.00">src/node/rpc/gov_effects.h</text>
</a>
</g>
</g>
<!-- Node11&#45;&gt;Node12 -->
<g id="edge12" class="edge">
<title>Node11&#45;&gt;Node12</title>
<path fill="none" stroke="midnightblue" d="M440.43,-165.51C447.9,-154.39 457.34,-140.34 463.28,-131.51"/>
<polygon fill="midnightblue" stroke="midnightblue" points="437.41,-163.72 434.73,-173.98 443.21,-167.63 437.41,-163.72"/>
</g>
<!-- Node12&#45;&gt;Node8 -->
<g id="edge13" class="edge">
<title>Node12&#45;&gt;Node8</title>
<path fill="none" stroke="midnightblue" d="M522.41,-110.47C574.2,-100.27 651.77,-84.98 699.79,-75.52"/>
<polygon fill="midnightblue" stroke="midnightblue" points="521.55,-107.08 512.42,-112.44 522.9,-113.94 521.55,-107.08"/>
</g>
<!-- Node14 -->
<g id="node14" class="node">
<title>Node14</title>
<g id="a_node14"><a xlink:href="orc__requests_8h.html" target="_top" xlink:title=" ">
<polygon fill="white" stroke="black" points="457.5,-369.5 457.5,-399.5 576.5,-399.5 576.5,-369.5 457.5,-369.5"/>
<text text-anchor="start" x="465.5" y="-387.5" font-family="Helvetica,sans-Serif" font-size="10.00">src/consensus/aft/orc</text>
<text text-anchor="middle" x="517" y="-376.5" font-family="Helvetica,sans-Serif" font-size="10.00">_requests.h</text>
</a>
</g>
</g>
<!-- Node13&#45;&gt;Node14 -->
<g id="edge15" class="edge">
<title>Node13&#45;&gt;Node14</title>
<path fill="none" stroke="midnightblue" d="M339.47,-433.73C375.21,-424.02 426.97,-409.96 465.39,-399.52"/>
<polygon fill="midnightblue" stroke="midnightblue" points="338.11,-430.48 329.38,-436.48 339.95,-437.23 338.11,-430.48"/>
</g>
<!-- Node15 -->
<g id="node15" class="node">
<title>Node15</title>
<g id="a_node15"><a xlink:href="raft_8h.html" target="_top" xlink:title=" ">
<polygon fill="white" stroke="black" points="273.5,-308 273.5,-327 402.5,-327 402.5,-308 273.5,-308"/>
<text text-anchor="middle" x="338" y="-315" font-family="Helvetica,sans-Serif" font-size="10.00">src/consensus/aft/raft.h</text>
</a>
</g>
</g>
<!-- Node13&#45;&gt;Node15 -->
<g id="edge22" class="edge">
<title>Node13&#45;&gt;Node15</title>
<path fill="none" stroke="midnightblue" d="M296.12,-426.22C295.22,-410.49 295.48,-387.67 302,-369 307.75,-352.53 320.64,-336.68 329.33,-327.27"/>
<polygon fill="midnightblue" stroke="midnightblue" points="292.64,-426.57 296.92,-436.26 299.62,-426.02 292.64,-426.57"/>
</g>
<!-- Node18 -->
<g id="node18" class="node">
<title>Node18</title>
<g id="a_node18"><a xlink:href="http__node__client_8h.html" target="_top" xlink:title=" ">
<polygon fill="white" stroke="black" points="200,-235.5 200,-265.5 310,-265.5 310,-235.5 200,-235.5"/>
<text text-anchor="start" x="208" y="-253.5" font-family="Helvetica,sans-Serif" font-size="10.00">src/node/http_node</text>
<text text-anchor="middle" x="255" y="-242.5" font-family="Helvetica,sans-Serif" font-size="10.00">_client.h</text>
</a>
</g>
</g>
<!-- Node13&#45;&gt;Node18 -->
<g id="edge23" class="edge">
<title>Node13&#45;&gt;Node18</title>
<path fill="none" stroke="midnightblue" d="M291.62,-426.76C284.16,-404.78 271.97,-366.62 265,-333 260.17,-309.69 257.39,-282.11 256.03,-265.75"/>
<polygon fill="midnightblue" stroke="midnightblue" points="288.37,-428.09 294.94,-436.41 294.99,-425.82 288.37,-428.09"/>
</g>
<!-- Node19 -->
<g id="node19" class="node">
<title>Node19</title>
<g id="a_node19"><a xlink:href="retired__nodes__cleanup_8h.html" target="_top" xlink:title=" ">
<polygon fill="white" stroke="black" points="311,-369.5 311,-399.5 439,-399.5 439,-369.5 311,-369.5"/>
<text text-anchor="start" x="319" y="-387.5" font-family="Helvetica,sans-Serif" font-size="10.00">src/node/retired_nodes</text>
<text text-anchor="middle" x="375" y="-376.5" font-family="Helvetica,sans-Serif" font-size="10.00">_cleanup.h</text>
</a>
</g>
</g>
<!-- Node13&#45;&gt;Node19 -->
<g id="edge25" class="edge">
<title>Node13&#45;&gt;Node19</title>
<path fill="none" stroke="midnightblue" d="M317.16,-430.2C329.3,-420.81 344.91,-408.75 356.85,-399.52"/>
<polygon fill="midnightblue" stroke="midnightblue" points="314.81,-427.59 309.03,-436.48 319.09,-433.13 314.81,-427.59"/>
</g>
<!-- Node14&#45;&gt;Node15 -->
<g id="edge16" class="edge">
<title>Node14&#45;&gt;Node15</title>
<path fill="none" stroke="midnightblue" d="M468.66,-365.95C433.89,-353.32 388.53,-336.85 361.43,-327.01"/>
<polygon fill="midnightblue" stroke="midnightblue" points="467.57,-369.27 478.16,-369.4 469.95,-362.69 467.57,-369.27"/>
</g>
<!-- Node16 -->
<g id="node16" class="node">
<title>Node16</title>
<g id="a_node16"><a xlink:href="node__frontend_8h.html" target="_top" xlink:title=" ">
<polygon fill="white" stroke="black" points="459,-308 459,-327 617,-327 617,-308 459,-308"/>
<text text-anchor="middle" x="538" y="-315" font-family="Helvetica,sans-Serif" font-size="10.00">src/node/rpc/node_frontend.h</text>
</a>
</g>
</g>
<!-- Node14&#45;&gt;Node16 -->
<g id="edge18" class="edge">
<title>Node14&#45;&gt;Node16</title>
<path fill="none" stroke="midnightblue" d="M524.72,-359.6C528.38,-348.28 532.52,-335.46 535.19,-327.19"/>
<polygon fill="midnightblue" stroke="midnightblue" points="521.3,-358.8 521.56,-369.4 527.96,-360.96 521.3,-358.8"/>
</g>
<!-- Node15&#45;&gt;Node11 -->
<g id="edge17" class="edge">
<title>Node15&#45;&gt;Node11</title>
<path fill="none" stroke="midnightblue" d="M338.9,-297.74C340.56,-280.18 345.18,-253.88 358,-235 371,-215.85 393.82,-201.56 410.08,-193.15"/>
<polygon fill="midnightblue" stroke="midnightblue" points="335.4,-297.64 338.19,-307.86 342.39,-298.13 335.4,-297.64"/>
</g>
<!-- Node16&#45;&gt;Node8 -->
<g id="edge19" class="edge">
<title>Node16&#45;&gt;Node8</title>
<path fill="none" stroke="midnightblue" d="M595.77,-305.21C620.74,-297.75 648.6,-285.6 668,-266 724.11,-209.32 738.93,-106.62 742.19,-75.91"/>
<polygon fill="midnightblue" stroke="midnightblue" points="594.7,-301.87 586.01,-307.93 596.59,-308.61 594.7,-301.87"/>
</g>
<!-- Node16&#45;&gt;Node17 -->
<g id="edge20" class="edge">
<title>Node16&#45;&gt;Node17</title>
<path fill="none" stroke="midnightblue" d="M514.7,-302.6C496.39,-291.69 471.01,-276.55 452.63,-265.59"/>
<polygon fill="midnightblue" stroke="midnightblue" points="512.92,-305.62 523.3,-307.73 516.5,-299.61 512.92,-305.62"/>
</g>
<!-- Node17&#45;&gt;Node11 -->
<g id="edge21" class="edge">
<title>Node17&#45;&gt;Node11</title>
<path fill="none" stroke="midnightblue" d="M429,-225.25C429,-214.02 429,-201.38 429,-193.19"/>
<polygon fill="midnightblue" stroke="midnightblue" points="425.5,-225.4 429,-235.4 432.5,-225.4 425.5,-225.4"/>
</g>
<!-- Node18&#45;&gt;Node11 -->
<g id="edge24" class="edge">
<title>Node18&#45;&gt;Node11</title>
<path fill="none" stroke="midnightblue" d="M302.42,-231.78C336.16,-219.18 379.99,-202.81 406.23,-193.01"/>
<polygon fill="midnightblue" stroke="midnightblue" points="300.9,-228.62 292.76,-235.4 303.35,-235.18 300.9,-228.62"/>
</g>
<!-- Node19&#45;&gt;Node15 -->
<g id="edge26" class="edge">
<title>Node19&#45;&gt;Node15</title>
<path fill="none" stroke="midnightblue" d="M361.98,-360.63C355.4,-349.07 347.8,-335.71 342.95,-327.19"/>
<polygon fill="midnightblue" stroke="midnightblue" points="358.98,-362.44 366.97,-369.4 365.07,-358.97 358.98,-362.44"/>
</g>
<!-- Node20&#45;&gt;Node11 -->
<g id="edge29" class="edge">
<title>Node20&#45;&gt;Node11</title>
<path fill="none" stroke="midnightblue" d="M137.74,-238.99C144.55,-237.63 151.44,-236.27 158,-235 236.46,-219.79 327.88,-202.93 381.96,-193.05"/>
<polygon fill="midnightblue" stroke="midnightblue" points="136.98,-235.57 127.86,-240.96 138.35,-242.43 136.98,-235.57"/>
</g>
<!-- Node21&#45;&gt;Node8 -->
<g id="edge32" class="edge">
<title>Node21&#45;&gt;Node8</title>
<path fill="none" stroke="midnightblue" d="M869.66,-434.35C932.47,-420.06 1017,-387.94 1017,-318.5 1017,-318.5 1017,-318.5 1017,-182.5 1017,-90.74 884.9,-70.72 804.15,-67.06"/>
<polygon fill="midnightblue" stroke="midnightblue" points="868.82,-430.95 859.79,-436.49 870.3,-437.79 868.82,-430.95"/>
</g>
<!-- Node22 -->
<g id="node22" class="node">
<title>Node22</title>
<g id="a_node22"><a xlink:href="frontend_8h.html" target="_top" xlink:title=" ">
<polygon fill="white" stroke="black" points="738.5,-375 738.5,-394 867.5,-394 867.5,-375 738.5,-375"/>
<text text-anchor="middle" x="803" y="-382" font-family="Helvetica,sans-Serif" font-size="10.00">src/node/rpc/frontend.h</text>
</a>
</g>
</g>
<!-- Node21&#45;&gt;Node22 -->
<g id="edge33" class="edge">
<title>Node21&#45;&gt;Node22</title>
<path fill="none" stroke="midnightblue" d="M803,-426.32C803,-415.5 803,-402.4 803,-394.01"/>
<polygon fill="midnightblue" stroke="midnightblue" points="799.5,-426.48 803,-436.48 806.5,-426.48 799.5,-426.48"/>
</g>
<!-- Node22&#45;&gt;Node11 -->
<g id="edge37" class="edge">
<title>Node22&#45;&gt;Node11</title>
<path fill="none" stroke="midnightblue" d="M802.78,-364.75C801.68,-346.99 797.63,-320.38 784,-302 748.54,-254.18 723.59,-256.31 668,-235 610.08,-212.8 540.34,-199.49 491.18,-192.15"/>
<polygon fill="midnightblue" stroke="midnightblue" points="799.29,-365.1 803.15,-374.97 806.28,-364.85 799.29,-365.1"/>
</g>
<!-- Node22&#45;&gt;Node16 -->
<g id="edge40" class="edge">
<title>Node22&#45;&gt;Node16</title>
<path fill="none" stroke="midnightblue" d="M758.09,-372.48C705.82,-359.66 620.6,-338.76 572.99,-327.08"/>
<polygon fill="midnightblue" stroke="midnightblue" points="757.54,-375.95 768.08,-374.94 759.21,-369.15 757.54,-375.95"/>
</g>
<!-- Node23 -->
<g id="node23" class="node">
<title>Node23</title>
<g id="a_node23"><a xlink:href="acme__challenge__frontend_8h.html" target="_top" xlink:title=" ">
<polygon fill="white" stroke="black" points="635,-302.5 635,-332.5 775,-332.5 775,-302.5 635,-302.5"/>
<text text-anchor="start" x="643" y="-320.5" font-family="Helvetica,sans-Serif" font-size="10.00">src/node/acme_challenge</text>
<text text-anchor="middle" x="705" y="-309.5" font-family="Helvetica,sans-Serif" font-size="10.00">_frontend.h</text>
</a>
</g>
</g>
<!-- Node22&#45;&gt;Node23 -->
<g id="edge34" class="edge">
<title>Node22&#45;&gt;Node23</title>
<path fill="none" stroke="midnightblue" d="M781.37,-369.15C764.97,-358.27 742.55,-343.4 726.24,-332.59"/>
<polygon fill="midnightblue" stroke="midnightblue" points="779.52,-372.12 789.78,-374.73 783.38,-366.29 779.52,-372.12"/>
</g>
<!-- Node24 -->
<g id="node24" class="node">
<title>Node24</title>
<g id="a_node24"><a xlink:href="member__frontend_8h.html" target="_top" xlink:title=" ">
<polygon fill="white" stroke="black" points="869,-168.5 869,-198.5 989,-198.5 989,-168.5 869,-168.5"/>
<text text-anchor="start" x="877" y="-186.5" font-family="Helvetica,sans-Serif" font-size="10.00">src/node/rpc/member</text>
<text text-anchor="middle" x="929" y="-175.5" font-family="Helvetica,sans-Serif" font-size="10.00">_frontend.h</text>
</a>
</g>
</g>
<!-- Node22&#45;&gt;Node24 -->
<g id="edge38" class="edge">
<title>Node22&#45;&gt;Node24</title>
<path fill="none" stroke="midnightblue" d="M821.91,-367.97C832.53,-358.6 845.51,-345.99 855,-333 887.8,-288.12 913.21,-226.51 923.72,-198.9"/>
<polygon fill="midnightblue" stroke="midnightblue" points="819.33,-365.57 814.02,-374.73 823.89,-370.88 819.33,-365.57"/>
</g>
<!-- Node25 -->
<g id="node25" class="node">
<title>Node25</title>
<g id="a_node25"><a xlink:href="user__frontend_8h.html" target="_top" xlink:title=" ">
<polygon fill="white" stroke="black" points="790.5,-112.5 790.5,-131.5 945.5,-131.5 945.5,-112.5 790.5,-112.5"/>
<text text-anchor="middle" x="868" y="-119.5" font-family="Helvetica,sans-Serif" font-size="10.00">src/node/rpc/user_frontend.h</text>
</a>
</g>
</g>
<!-- Node22&#45;&gt;Node25 -->
<g id="edge41" class="edge">
<title>Node22&#45;&gt;Node25</title>
<path fill="none" stroke="midnightblue" d="M807.61,-365.04C820.5,-313.38 856.6,-168.69 865.83,-131.7"/>
<polygon fill="midnightblue" stroke="midnightblue" points="804.19,-364.28 805.16,-374.83 810.98,-365.98 804.19,-364.28"/>
</g>
<!-- Node23&#45;&gt;Node8 -->
<g id="edge35" class="edge">
<title>Node23&#45;&gt;Node8</title>
<path fill="none" stroke="midnightblue" d="M723.45,-294.1C729.23,-285.78 734.9,-275.94 738,-266 759.99,-195.39 748.71,-103.77 744.42,-75.61"/>
<polygon fill="midnightblue" stroke="midnightblue" points="720.63,-292.03 717.5,-302.15 726.26,-296.19 720.63,-292.03"/>
</g>
<!-- Node23&#45;&gt;Node10 -->
<g id="edge36" class="edge">
<title>Node23&#45;&gt;Node10</title>
<path fill="none" stroke="midnightblue" d="M669.89,-297.64C646.74,-285.2 617.53,-269.51 599.84,-260.01"/>
<polygon fill="midnightblue" stroke="midnightblue" points="668.28,-300.75 678.74,-302.4 671.59,-294.58 668.28,-300.75"/>
</g>
<!-- Node24&#45;&gt;Node8 -->
<g id="edge39" class="edge">
<title>Node24&#45;&gt;Node8</title>
<path fill="none" stroke="midnightblue" d="M947.72,-160.27C957.9,-145.36 966.33,-125.98 955,-112 936.29,-88.9 859.92,-77.17 804.19,-71.58"/>
<polygon fill="midnightblue" stroke="midnightblue" points="944.8,-158.33 941.66,-168.45 950.42,-162.5 944.8,-158.33"/>
</g>
<!-- Node25&#45;&gt;Node8 -->
<g id="edge42" class="edge">
<title>Node25&#45;&gt;Node8</title>
<path fill="none" stroke="midnightblue" d="M838.76,-108.37C815.35,-98.26 783.16,-84.35 762.71,-75.52"/>
<polygon fill="midnightblue" stroke="midnightblue" points="837.63,-111.69 848.19,-112.44 840.4,-105.26 837.63,-111.69"/>
</g>
</g>
</svg>
