<?xml version="1.0" encoding="UTF-8" standalone="no"?>
<!DOCTYPE svg PUBLIC "-//W3C//DTD SVG 1.1//EN"
 "http://www.w3.org/Graphics/SVG/1.1/DTD/svg11.dtd">
<!-- Generated by graphviz version 2.43.0 (0)
 -->
<!-- Title: src/enclave/rpc_handler.h Pages: 1 -->
<svg width="1756pt" height="710pt"
 viewBox="0.00 0.00 1755.50 710.00" xmlns="http://www.w3.org/2000/svg" xmlns:xlink="http://www.w3.org/1999/xlink">
<g id="graph0" class="graph" transform="scale(1 1) rotate(0) translate(4 706)">
<title>src/enclave/rpc_handler.h</title>
<polygon fill="white" stroke="transparent" points="-4,4 -4,-706 1751.5,-706 1751.5,4 -4,4"/>
<!-- Node1 -->
<g id="node1" class="node">
<title>Node1</title>
<g id="a_node1"><a xlink:title=" ">
<polygon fill="#bfbfbf" stroke="black" points="1160.5,-682.5 1160.5,-701.5 1300.5,-701.5 1300.5,-682.5 1160.5,-682.5"/>
<text text-anchor="middle" x="1230.5" y="-689.5" font-family="Helvetica,sans-Serif" font-size="10.00">src/enclave/rpc_handler.h</text>
</a>
</g>
</g>
<!-- Node2 -->
<g id="node2" class="node">
<title>Node2</title>
<g id="a_node2"><a xlink:href="raft__types_8h.html" target="_top" xlink:title=" ">
<polygon fill="white" stroke="black" points="357.5,-503.5 357.5,-533.5 477.5,-533.5 477.5,-503.5 357.5,-503.5"/>
<text text-anchor="start" x="365.5" y="-521.5" font-family="Helvetica,sans-Serif" font-size="10.00">src/consensus/aft/raft</text>
<text text-anchor="middle" x="417.5" y="-510.5" font-family="Helvetica,sans-Serif" font-size="10.00">_types.h</text>
</a>
</g>
</g>
<!-- Node1&#45;&gt;Node2 -->
<g id="edge1" class="edge">
<title>Node1&#45;&gt;Node2</title>
<path fill="none" stroke="midnightblue" d="M1180.4,-680.43C1038.04,-650.4 631.53,-564.65 477.58,-532.17"/>
<polygon fill="midnightblue" stroke="midnightblue" points="1179.68,-683.86 1190.18,-682.5 1181.12,-677.01 1179.68,-683.86"/>
</g>
<!-- Node20 -->
<g id="node20" class="node">
<title>Node20</title>
<g id="a_node20"><a xlink:href="rpc__map_8h.html" target="_top" xlink:title=" ">
<polygon fill="white" stroke="black" points="1416.5,-626.5 1416.5,-645.5 1542.5,-645.5 1542.5,-626.5 1416.5,-626.5"/>
<text text-anchor="middle" x="1479.5" y="-633.5" font-family="Helvetica,sans-Serif" font-size="10.00">src/enclave/rpc_map.h</text>
</a>
</g>
</g>
<!-- Node1&#45;&gt;Node20 -->
<g id="edge30" class="edge">
<title>Node1&#45;&gt;Node20</title>
<path fill="none" stroke="midnightblue" d="M1279.92,-680.28C1326.98,-670.08 1396.87,-654.92 1440.23,-645.52"/>
<polygon fill="midnightblue" stroke="midnightblue" points="1278.99,-676.9 1269.95,-682.44 1280.47,-683.74 1278.99,-676.9"/>
</g>
<!-- Node22 -->
<g id="node22" class="node">
<title>Node22</title>
<g id="a_node22"><a xlink:href="rpc__sessions_8h.html" target="_top" xlink:title=" ">
<polygon fill="white" stroke="black" points="1157.5,-509 1157.5,-528 1303.5,-528 1303.5,-509 1157.5,-509"/>
<text text-anchor="middle" x="1230.5" y="-516" font-family="Helvetica,sans-Serif" font-size="10.00">src/enclave/rpc_sessions.h</text>
</a>
</g>
</g>
<!-- Node1&#45;&gt;Node22 -->
<g id="edge52" class="edge">
<title>Node1&#45;&gt;Node22</title>
<path fill="none" stroke="midnightblue" d="M1230.5,-671.85C1230.5,-634.73 1230.5,-554.33 1230.5,-528.02"/>
<polygon fill="midnightblue" stroke="midnightblue" points="1227,-672.26 1230.5,-682.26 1234,-672.26 1227,-672.26"/>
</g>
<!-- Node25 -->
<g id="node25" class="node">
<title>Node25</title>
<g id="a_node25"><a xlink:href="frontend_8h.html" target="_top" xlink:title=" ">
<polygon fill="white" stroke="black" points="1371,-375 1371,-394 1500,-394 1500,-375 1371,-375"/>
<text text-anchor="middle" x="1435.5" y="-382" font-family="Helvetica,sans-Serif" font-size="10.00">src/node/rpc/frontend.h</text>
</a>
</g>
</g>
<!-- Node1&#45;&gt;Node25 -->
<g id="edge59" class="edge">
<title>Node1&#45;&gt;Node25</title>
<path fill="none" stroke="midnightblue" d="M1257.99,-677.77C1289.7,-660.38 1337.5,-626.59 1337.5,-581 1337.5,-581 1337.5,-581 1337.5,-517.5 1337.5,-460.99 1396.12,-412.93 1422.69,-394.05"/>
<polygon fill="midnightblue" stroke="midnightblue" points="1256.35,-674.68 1249.14,-682.44 1259.62,-680.87 1256.35,-674.68"/>
</g>
<!-- Node29 -->
<g id="node29" class="node">
<title>Node29</title>
<g id="a_node29"><a xlink:href="node__to__node_8h.html" target="_top" xlink:title=" ">
<polygon fill="white" stroke="black" points="994.5,-509 994.5,-528 1132.5,-528 1132.5,-509 994.5,-509"/>
<text text-anchor="middle" x="1063.5" y="-516" font-family="Helvetica,sans-Serif" font-size="10.00">src/node/node_to_node.h</text>
</a>
</g>
</g>
<!-- Node1&#45;&gt;Node29 -->
<g id="edge53" class="edge">
<title>Node1&#45;&gt;Node29</title>
<path fill="none" stroke="midnightblue" d="M1214.58,-674.66C1179.81,-638.95 1098.08,-555.01 1071.8,-528.02"/>
<polygon fill="midnightblue" stroke="midnightblue" points="1212.5,-677.54 1221.99,-682.26 1217.52,-672.65 1212.5,-677.54"/>
</g>
<!-- Node3 -->
<g id="node3" class="node">
<title>Node3</title>
<g id="a_node3"><a xlink:href="request__message_8h.html" target="_top" xlink:title=" ">
<polygon fill="white" stroke="black" points="173,-436.5 173,-466.5 298,-466.5 298,-436.5 173,-436.5"/>
<text text-anchor="start" x="181" y="-454.5" font-family="Helvetica,sans-Serif" font-size="10.00">src/consensus/aft/impl</text>
<text text-anchor="middle" x="235.5" y="-443.5" font-family="Helvetica,sans-Serif" font-size="10.00">/request_message.h</text>
</a>
</g>
</g>
<!-- Node2&#45;&gt;Node3 -->
<g id="edge2" class="edge">
<title>Node2&#45;&gt;Node3</title>
<path fill="none" stroke="midnightblue" d="M368.37,-499.96C339.06,-489.48 302.32,-476.37 274.91,-466.58"/>
<polygon fill="midnightblue" stroke="midnightblue" points="367.41,-503.33 378.01,-503.4 369.77,-496.74 367.41,-503.33"/>
</g>
<!-- Node4 -->
<g id="node4" class="node">
<title>Node4</title>
<g id="a_node4"><a xlink:href="state_8h.html" target="_top" xlink:title=" ">
<polygon fill="white" stroke="black" points="355,-436.5 355,-466.5 480,-466.5 480,-436.5 355,-436.5"/>
<text text-anchor="start" x="363" y="-454.5" font-family="Helvetica,sans-Serif" font-size="10.00">src/consensus/aft/impl</text>
<text text-anchor="middle" x="417.5" y="-443.5" font-family="Helvetica,sans-Serif" font-size="10.00">/state.h</text>
</a>
</g>
</g>
<!-- Node2&#45;&gt;Node4 -->
<g id="edge3" class="edge">
<title>Node2&#45;&gt;Node4</title>
<path fill="none" stroke="midnightblue" d="M417.5,-493.11C417.5,-484.15 417.5,-474.32 417.5,-466.58"/>
<polygon fill="midnightblue" stroke="midnightblue" points="414,-493.4 417.5,-503.4 421,-493.4 414,-493.4"/>
</g>
<!-- Node5 -->
<g id="node5" class="node">
<title>Node5</title>
<g id="a_node5"><a xlink:href="raft_8h.html" target="_top" xlink:title=" ">
<polygon fill="white" stroke="black" points="593,-308 593,-327 722,-327 722,-308 593,-308"/>
<text text-anchor="middle" x="657.5" y="-315" font-family="Helvetica,sans-Serif" font-size="10.00">src/consensus/aft/raft.h</text>
</a>
</g>
</g>
<!-- Node2&#45;&gt;Node5 -->
<g id="edge12" class="edge">
<title>Node2&#45;&gt;Node5</title>
<path fill="none" stroke="midnightblue" d="M376.68,-498.04C364.75,-490.18 353.14,-479.87 346.5,-467 321.96,-419.43 369.15,-393.96 416.5,-369 471.71,-339.9 542.34,-327.57 592.83,-322.34"/>
<polygon fill="midnightblue" stroke="midnightblue" points="374.99,-501.12 385.35,-503.34 378.64,-495.14 374.99,-501.12"/>
</g>
<!-- Node11 -->
<g id="node11" class="node">
<title>Node11</title>
<g id="a_node11"><a xlink:href="node__connections_8h.html" target="_top" xlink:title=" ">
<polygon fill="white" stroke="black" points="0,-442 0,-461 155,-461 155,-442 0,-442"/>
<text text-anchor="middle" x="77.5" y="-449" font-family="Helvetica,sans-Serif" font-size="10.00">src/host/node_connections.h</text>
</a>
</g>
</g>
<!-- Node2&#45;&gt;Node11 -->
<g id="edge13" class="edge">
<title>Node2&#45;&gt;Node11</title>
<path fill="none" stroke="midnightblue" d="M347.35,-504.09C279.69,-491.15 179.36,-471.97 122.01,-461.01"/>
<polygon fill="midnightblue" stroke="midnightblue" points="347.02,-507.59 357.5,-506.03 348.33,-500.71 347.02,-507.59"/>
</g>
<!-- Node13 -->
<g id="node13" class="node">
<title>Node13</title>
<g id="a_node13"><a xlink:href="node__client_8h.html" target="_top" xlink:title=" ">
<polygon fill="white" stroke="black" points="768.5,-442 768.5,-461 894.5,-461 894.5,-442 768.5,-442"/>
<text text-anchor="middle" x="831.5" y="-449" font-family="Helvetica,sans-Serif" font-size="10.00">src/node/node_client.h</text>
</a>
</g>
</g>
<!-- Node2&#45;&gt;Node13 -->
<g id="edge15" class="edge">
<title>Node2&#45;&gt;Node13</title>
<path fill="none" stroke="midnightblue" d="M487.66,-506.49C569.44,-493.64 702.86,-472.7 777.17,-461.03"/>
<polygon fill="midnightblue" stroke="midnightblue" points="487.04,-503.04 477.7,-508.05 488.12,-509.95 487.04,-503.04"/>
</g>
<!-- Node19 -->
<g id="node19" class="node">
<title>Node19</title>
<g id="a_node19"><a xlink:href="resharing__tracker_8h.html" target="_top" xlink:title=" ">
<polygon fill="white" stroke="black" points="537,-436.5 537,-466.5 644,-466.5 644,-436.5 537,-436.5"/>
<text text-anchor="start" x="545" y="-454.5" font-family="Helvetica,sans-Serif" font-size="10.00">src/node/resharing</text>
<text text-anchor="middle" x="590.5" y="-443.5" font-family="Helvetica,sans-Serif" font-size="10.00">_tracker.h</text>
</a>
</g>
</g>
<!-- Node2&#45;&gt;Node19 -->
<g id="edge27" class="edge">
<title>Node2&#45;&gt;Node19</title>
<path fill="none" stroke="midnightblue" d="M464.56,-499.82C492.37,-489.37 527.09,-476.32 553.03,-466.58"/>
<polygon fill="midnightblue" stroke="midnightblue" points="463.17,-496.6 455.04,-503.4 465.63,-503.16 463.17,-496.6"/>
</g>
<!-- Node4&#45;&gt;Node5 -->
<g id="edge4" class="edge">
<title>Node4&#45;&gt;Node5</title>
<path fill="none" stroke="midnightblue" d="M416.7,-426.12C417.47,-407.96 421.59,-383.84 436.5,-369 458.29,-347.31 535.81,-333.28 592.91,-325.65"/>
<polygon fill="midnightblue" stroke="midnightblue" points="413.2,-426.22 416.59,-436.26 420.2,-426.3 413.2,-426.22"/>
</g>
<!-- Node10 -->
<g id="node10" class="node">
<title>Node10</title>
<g id="a_node10"><a xlink:href="resharing_8h.html" target="_top" xlink:title=" ">
<polygon fill="white" stroke="black" points="445.5,-375 445.5,-394 561.5,-394 561.5,-375 445.5,-375"/>
<text text-anchor="middle" x="503.5" y="-382" font-family="Helvetica,sans-Serif" font-size="10.00">src/node/resharing.h</text>
</a>
</g>
</g>
<!-- Node4&#45;&gt;Node10 -->
<g id="edge10" class="edge">
<title>Node4&#45;&gt;Node10</title>
<path fill="none" stroke="midnightblue" d="M444.17,-430.34C460.22,-418.21 479.83,-403.39 492,-394.19"/>
<polygon fill="midnightblue" stroke="midnightblue" points="442.03,-427.57 436.16,-436.4 446.25,-433.16 442.03,-427.57"/>
</g>
<!-- Node6 -->
<g id="node6" class="node">
<title>Node6</title>
<g id="a_node6"><a xlink:href="node__state_8h.html" target="_top" xlink:title=" ">
<polygon fill="white" stroke="black" points="996.5,-174 996.5,-193 1120.5,-193 1120.5,-174 996.5,-174"/>
<text text-anchor="middle" x="1058.5" y="-181" font-family="Helvetica,sans-Serif" font-size="10.00">src/node/node_state.h</text>
</a>
</g>
</g>
<!-- Node5&#45;&gt;Node6 -->
<g id="edge5" class="edge">
<title>Node5&#45;&gt;Node6</title>
<path fill="none" stroke="midnightblue" d="M656,-297.82C655.61,-279.08 658.26,-250.81 675.5,-235 721.1,-193.18 899.9,-185.41 996.23,-184.33"/>
<polygon fill="midnightblue" stroke="midnightblue" points="652.5,-298.01 656.51,-307.82 659.49,-297.65 652.5,-298.01"/>
</g>
<!-- Node7 -->
<g id="node7" class="node">
<title>Node7</title>
<g id="a_node7"><a xlink:href="enclave_2enclave_8h.html" target="_top" xlink:title=" ">
<polygon fill="white" stroke="black" points="1370.5,-56.5 1370.5,-75.5 1492.5,-75.5 1492.5,-56.5 1370.5,-56.5"/>
<text text-anchor="middle" x="1431.5" y="-63.5" font-family="Helvetica,sans-Serif" font-size="10.00">src/enclave/enclave.h</text>
</a>
</g>
</g>
<!-- Node6&#45;&gt;Node7 -->
<g id="edge6" class="edge">
<title>Node6&#45;&gt;Node7</title>
<path fill="none" stroke="midnightblue" d="M1100.42,-171.29C1136.81,-161.41 1190.82,-146.39 1237.5,-132 1298.94,-113.05 1370.48,-88.41 1407.12,-75.59"/>
<polygon fill="midnightblue" stroke="midnightblue" points="1099.39,-167.94 1090.65,-173.93 1101.22,-174.7 1099.39,-167.94"/>
</g>
<!-- Node9 -->
<g id="node9" class="node">
<title>Node9</title>
<g id="a_node9"><a xlink:href="gov__effects_8h.html" target="_top" xlink:title=" ">
<polygon fill="white" stroke="black" points="1084.5,-112.5 1084.5,-131.5 1228.5,-131.5 1228.5,-112.5 1084.5,-112.5"/>
<text text-anchor="middle" x="1156.5" y="-119.5" font-family="Helvetica,sans-Serif" font-size="10.00">src/node/rpc/gov_effects.h</text>
</a>
</g>
</g>
<!-- Node6&#45;&gt;Node9 -->
<g id="edge8" class="edge">
<title>Node6&#45;&gt;Node9</title>
<path fill="none" stroke="midnightblue" d="M1081.16,-168.74C1100.09,-157.25 1126.49,-141.22 1142.49,-131.51"/>
<polygon fill="midnightblue" stroke="midnightblue" points="1079.27,-165.79 1072.54,-173.98 1082.91,-171.78 1079.27,-165.79"/>
</g>
<!-- Node8 -->
<g id="node8" class="node">
<title>Node8</title>
<g id="a_node8"><a xlink:href="enclave_2main_8cpp.html" target="_top" xlink:title=" ">
<polygon fill="white" stroke="black" points="1371.5,-0.5 1371.5,-19.5 1491.5,-19.5 1491.5,-0.5 1371.5,-0.5"/>
<text text-anchor="middle" x="1431.5" y="-7.5" font-family="Helvetica,sans-Serif" font-size="10.00">src/enclave/main.cpp</text>
</a>
</g>
</g>
<!-- Node7&#45;&gt;Node8 -->
<g id="edge7" class="edge">
<title>Node7&#45;&gt;Node8</title>
<path fill="none" stroke="midnightblue" d="M1431.5,-45.8C1431.5,-36.91 1431.5,-26.78 1431.5,-19.75"/>
<polygon fill="midnightblue" stroke="midnightblue" points="1428,-46.08 1431.5,-56.08 1435,-46.08 1428,-46.08"/>
</g>
<!-- Node9&#45;&gt;Node7 -->
<g id="edge9" class="edge">
<title>Node9&#45;&gt;Node7</title>
<path fill="none" stroke="midnightblue" d="M1210.11,-110.47C1262.08,-100.27 1339.94,-84.98 1388.13,-75.52"/>
<polygon fill="midnightblue" stroke="midnightblue" points="1209.21,-107.08 1200.07,-112.44 1210.56,-113.95 1209.21,-107.08"/>
</g>
<!-- Node10&#45;&gt;Node6 -->
<g id="edge11" class="edge">
<title>Node10&#45;&gt;Node6</title>
<path fill="none" stroke="midnightblue" d="M514.81,-366.46C537.16,-334.37 590.43,-265.47 654.5,-235 713.55,-206.92 898.23,-193.05 996.14,-187.52"/>
<polygon fill="midnightblue" stroke="midnightblue" points="511.85,-364.58 509.11,-374.81 517.64,-368.52 511.85,-364.58"/>
</g>
<!-- Node12 -->
<g id="node12" class="node">
<title>Node12</title>
<g id="a_node12"><a xlink:href="host_2main_8cpp.html" target="_top" xlink:title=" ">
<polygon fill="white" stroke="black" points="26,-375 26,-394 129,-394 129,-375 26,-375"/>
<text text-anchor="middle" x="77.5" y="-382" font-family="Helvetica,sans-Serif" font-size="10.00">src/host/main.cpp</text>
</a>
</g>
</g>
<!-- Node11&#45;&gt;Node12 -->
<g id="edge14" class="edge">
<title>Node11&#45;&gt;Node12</title>
<path fill="none" stroke="midnightblue" d="M77.5,-431.54C77.5,-419.17 77.5,-403.62 77.5,-394.13"/>
<polygon fill="midnightblue" stroke="midnightblue" points="74,-431.73 77.5,-441.73 81,-431.73 74,-431.73"/>
</g>
<!-- Node13&#45;&gt;Node5 -->
<g id="edge22" class="edge">
<title>Node13&#45;&gt;Node5</title>
<path fill="none" stroke="midnightblue" d="M758.59,-439.37C732.3,-432.07 704.27,-419.99 684.5,-400 664.38,-379.65 659.25,-343.98 657.95,-327.42"/>
<polygon fill="midnightblue" stroke="midnightblue" points="758,-442.84 768.55,-441.95 759.75,-436.06 758,-442.84"/>
</g>
<!-- Node14 -->
<g id="node14" class="node">
<title>Node14</title>
<g id="a_node14"><a xlink:href="orc__requests_8h.html" target="_top" xlink:title=" ">
<polygon fill="white" stroke="black" points="840,-369.5 840,-399.5 959,-399.5 959,-369.5 840,-369.5"/>
<text text-anchor="start" x="848" y="-387.5" font-family="Helvetica,sans-Serif" font-size="10.00">src/consensus/aft/orc</text>
<text text-anchor="middle" x="899.5" y="-376.5" font-family="Helvetica,sans-Serif" font-size="10.00">_requests.h</text>
</a>
</g>
</g>
<!-- Node13&#45;&gt;Node14 -->
<g id="edge16" class="edge">
<title>Node13&#45;&gt;Node14</title>
<path fill="none" stroke="midnightblue" d="M848.12,-434.62C859.32,-423.91 873.97,-409.9 884.76,-399.59"/>
<polygon fill="midnightblue" stroke="midnightblue" points="845.48,-432.29 840.67,-441.73 850.32,-437.35 845.48,-432.29"/>
</g>
<!-- Node17 -->
<g id="node17" class="node">
<title>Node17</title>
<g id="a_node17"><a xlink:href="http__node__client_8h.html" target="_top" xlink:title=" ">
<polygon fill="white" stroke="black" points="827.5,-235.5 827.5,-265.5 937.5,-265.5 937.5,-235.5 827.5,-235.5"/>
<text text-anchor="start" x="835.5" y="-253.5" font-family="Helvetica,sans-Serif" font-size="10.00">src/node/http_node</text>
<text text-anchor="middle" x="882.5" y="-242.5" font-family="Helvetica,sans-Serif" font-size="10.00">_client.h</text>
</a>
</g>
</g>
<!-- Node13&#45;&gt;Node17 -->
<g id="edge23" class="edge">
<title>Node13&#45;&gt;Node17</title>
<path fill="none" stroke="midnightblue" d="M904.24,-440.77C928.76,-433.63 953.65,-421.29 968.5,-400 1001.3,-352.95 936.14,-292.69 901.8,-265.69"/>
<polygon fill="midnightblue" stroke="midnightblue" points="903.29,-437.41 894.52,-443.35 905.08,-444.17 903.29,-437.41"/>
</g>
<!-- Node18 -->
<g id="node18" class="node">
<title>Node18</title>
<g id="a_node18"><a xlink:href="retired__nodes__cleanup_8h.html" target="_top" xlink:title=" ">
<polygon fill="white" stroke="black" points="693.5,-369.5 693.5,-399.5 821.5,-399.5 821.5,-369.5 693.5,-369.5"/>
<text text-anchor="start" x="701.5" y="-387.5" font-family="Helvetica,sans-Serif" font-size="10.00">src/node/retired_nodes</text>
<text text-anchor="middle" x="757.5" y="-376.5" font-family="Helvetica,sans-Serif" font-size="10.00">_cleanup.h</text>
</a>
</g>
</g>
<!-- Node13&#45;&gt;Node18 -->
<g id="edge25" class="edge">
<title>Node13&#45;&gt;Node18</title>
<path fill="none" stroke="midnightblue" d="M813.77,-434.93C801.53,-424.18 785.4,-410 773.54,-399.59"/>
<polygon fill="midnightblue" stroke="midnightblue" points="811.7,-437.76 821.52,-441.73 816.32,-432.5 811.7,-437.76"/>
</g>
<!-- Node14&#45;&gt;Node5 -->
<g id="edge17" class="edge">
<title>Node14&#45;&gt;Node5</title>
<path fill="none" stroke="midnightblue" d="M837.44,-366.83C790.08,-354.11 726.77,-337.11 689.25,-327.03"/>
<polygon fill="midnightblue" stroke="midnightblue" points="836.72,-370.26 847.29,-369.48 838.54,-363.5 836.72,-370.26"/>
</g>
<!-- Node15 -->
<g id="node15" class="node">
<title>Node15</title>
<g id="a_node15"><a xlink:href="node__frontend_8h.html" target="_top" xlink:title=" ">
<polygon fill="white" stroke="black" points="773.5,-308 773.5,-327 931.5,-327 931.5,-308 773.5,-308"/>
<text text-anchor="middle" x="852.5" y="-315" font-family="Helvetica,sans-Serif" font-size="10.00">src/node/rpc/node_frontend.h</text>
</a>
</g>
</g>
<!-- Node14&#45;&gt;Node15 -->
<g id="edge18" class="edge">
<title>Node14&#45;&gt;Node15</title>
<path fill="none" stroke="midnightblue" d="M883.21,-360.97C874.79,-349.33 865.01,-335.8 858.79,-327.19"/>
<polygon fill="midnightblue" stroke="midnightblue" points="880.61,-363.34 889.3,-369.4 886.28,-359.24 880.61,-363.34"/>
</g>
<!-- Node15&#45;&gt;Node7 -->
<g id="edge19" class="edge">
<title>Node15&#45;&gt;Node7</title>
<path fill="none" stroke="midnightblue" d="M765.78,-306.2C707.49,-295.53 646.24,-274.61 675.5,-235 758.58,-122.53 1205.73,-81.92 1370.5,-70.64"/>
<polygon fill="midnightblue" stroke="midnightblue" points="765.4,-309.69 775.85,-307.95 766.6,-302.79 765.4,-309.69"/>
</g>
<!-- Node16 -->
<g id="node16" class="node">
<title>Node16</title>
<g id="a_node16"><a xlink:href="jwt__key__auto__refresh_8h.html" target="_top" xlink:title=" ">
<polygon fill="white" stroke="black" points="684,-235.5 684,-265.5 809,-265.5 809,-235.5 684,-235.5"/>
<text text-anchor="start" x="692" y="-253.5" font-family="Helvetica,sans-Serif" font-size="10.00">src/node/jwt_key_auto</text>
<text text-anchor="middle" x="746.5" y="-242.5" font-family="Helvetica,sans-Serif" font-size="10.00">_refresh.h</text>
</a>
</g>
</g>
<!-- Node15&#45;&gt;Node16 -->
<g id="edge20" class="edge">
<title>Node15&#45;&gt;Node16</title>
<path fill="none" stroke="midnightblue" d="M829.59,-302.45C811.81,-291.55 787.27,-276.5 769.48,-265.59"/>
<polygon fill="midnightblue" stroke="midnightblue" points="827.85,-305.49 838.2,-307.73 831.51,-299.52 827.85,-305.49"/>
</g>
<!-- Node16&#45;&gt;Node6 -->
<g id="edge21" class="edge">
<title>Node16&#45;&gt;Node6</title>
<path fill="none" stroke="midnightblue" d="M819.34,-234.33C881.09,-221.46 967.41,-203.48 1017.68,-193"/>
<polygon fill="midnightblue" stroke="midnightblue" points="818.34,-230.96 809.26,-236.42 819.77,-237.81 818.34,-230.96"/>
</g>
<!-- Node17&#45;&gt;Node6 -->
<g id="edge24" class="edge">
<title>Node17&#45;&gt;Node6</title>
<path fill="none" stroke="midnightblue" d="M930.47,-231.78C964.6,-219.18 1008.93,-202.81 1035.47,-193.01"/>
<polygon fill="midnightblue" stroke="midnightblue" points="928.86,-228.65 920.69,-235.4 931.28,-235.21 928.86,-228.65"/>
</g>
<!-- Node18&#45;&gt;Node5 -->
<g id="edge26" class="edge">
<title>Node18&#45;&gt;Node5</title>
<path fill="none" stroke="midnightblue" d="M727.2,-363.81C708.29,-351.51 684.89,-336.3 670.59,-327.01"/>
<polygon fill="midnightblue" stroke="midnightblue" points="725.51,-366.88 735.8,-369.4 729.32,-361.01 725.51,-366.88"/>
</g>
<!-- Node19&#45;&gt;Node5 -->
<g id="edge28" class="edge">
<title>Node19&#45;&gt;Node5</title>
<path fill="none" stroke="midnightblue" d="M594.46,-426.12C597.86,-409.34 603.8,-386.93 613.5,-369 622.46,-352.43 637.7,-336.61 647.68,-327.22"/>
<polygon fill="midnightblue" stroke="midnightblue" points="590.96,-425.76 592.57,-436.23 597.84,-427.04 590.96,-425.76"/>
</g>
<!-- Node19&#45;&gt;Node10 -->
<g id="edge29" class="edge">
<title>Node19&#45;&gt;Node10</title>
<path fill="none" stroke="midnightblue" d="M563.52,-430.34C547.28,-418.21 527.44,-403.39 515.14,-394.19"/>
<polygon fill="midnightblue" stroke="midnightblue" points="561.52,-433.21 571.62,-436.4 565.71,-427.61 561.52,-433.21"/>
</g>
<!-- Node20&#45;&gt;Node7 -->
<g id="edge31" class="edge">
<title>Node20&#45;&gt;Node7</title>
<path fill="none" stroke="midnightblue" d="M1553.13,-633.58C1632.47,-627.68 1747.5,-604.47 1747.5,-519.5 1747.5,-519.5 1747.5,-519.5 1747.5,-182.5 1747.5,-143.83 1729.34,-132.42 1696.5,-112 1663.31,-91.36 1560.11,-78.46 1492.71,-72.02"/>
<polygon fill="midnightblue" stroke="midnightblue" points="1552.42,-630.12 1542.67,-634.28 1552.88,-637.11 1552.42,-630.12"/>
</g>
<!-- Node21 -->
<g id="node21" class="node">
<title>Node21</title>
<g id="a_node21"><a xlink:href="http__endpoint_8h.html" target="_top" xlink:title=" ">
<polygon fill="white" stroke="black" points="1366,-570.5 1366,-589.5 1499,-589.5 1499,-570.5 1366,-570.5"/>
<text text-anchor="middle" x="1432.5" y="-577.5" font-family="Helvetica,sans-Serif" font-size="10.00">src/http/http_endpoint.h</text>
</a>
</g>
</g>
<!-- Node20&#45;&gt;Node21 -->
<g id="edge32" class="edge">
<title>Node20&#45;&gt;Node21</title>
<path fill="none" stroke="midnightblue" d="M1465.08,-618.43C1456.84,-608.97 1446.85,-597.48 1440.12,-589.75"/>
<polygon fill="midnightblue" stroke="midnightblue" points="1462.53,-620.84 1471.74,-626.08 1467.81,-616.24 1462.53,-620.84"/>
</g>
<!-- Node24 -->
<g id="node24" class="node">
<title>Node24</title>
<g id="a_node24"><a xlink:href="forwarder_8h.html" target="_top" xlink:title=" ">
<polygon fill="white" stroke="black" points="1414.5,-442 1414.5,-461 1548.5,-461 1548.5,-442 1414.5,-442"/>
<text text-anchor="middle" x="1481.5" y="-449" font-family="Helvetica,sans-Serif" font-size="10.00">src/node/rpc/forwarder.h</text>
</a>
</g>
</g>
<!-- Node20&#45;&gt;Node24 -->
<g id="edge40" class="edge">
<title>Node20&#45;&gt;Node24</title>
<path fill="none" stroke="midnightblue" d="M1493.49,-618.37C1499.35,-610.34 1505.49,-600.24 1508.5,-590 1522.58,-542.16 1496.8,-482.77 1485.96,-461"/>
<polygon fill="midnightblue" stroke="midnightblue" points="1490.57,-616.42 1487.17,-626.46 1496.09,-620.73 1490.57,-616.42"/>
</g>
<!-- Node21&#45;&gt;Node22 -->
<g id="edge33" class="edge">
<title>Node21&#45;&gt;Node22</title>
<path fill="none" stroke="midnightblue" d="M1393.81,-567.6C1354.55,-556.04 1294.69,-538.41 1259.39,-528.01"/>
<polygon fill="midnightblue" stroke="midnightblue" points="1392.98,-571.01 1403.56,-570.48 1394.95,-564.29 1392.98,-571.01"/>
</g>
<!-- Node22&#45;&gt;Node6 -->
<g id="edge38" class="edge">
<title>Node22&#45;&gt;Node6</title>
<path fill="none" stroke="midnightblue" d="M1213.32,-501.8C1190.08,-478.75 1151.5,-433.28 1151.5,-385.5 1151.5,-385.5 1151.5,-385.5 1151.5,-316.5 1151.5,-279.31 1153.52,-265.69 1132.5,-235 1119.14,-215.49 1095.56,-201.35 1078.6,-193.07"/>
<polygon fill="midnightblue" stroke="midnightblue" points="1211.17,-504.59 1220.81,-508.98 1216.02,-499.53 1211.17,-504.59"/>
</g>
<!-- Node22&#45;&gt;Node7 -->
<g id="edge34" class="edge">
<title>Node22&#45;&gt;Node7</title>
<path fill="none" stroke="midnightblue" d="M1238.43,-499.72C1272.2,-424.04 1403.35,-130.09 1427.62,-75.69"/>
<polygon fill="midnightblue" stroke="midnightblue" points="1235.21,-498.34 1234.34,-508.9 1241.61,-501.2 1235.21,-498.34"/>
</g>
<!-- Node22&#45;&gt;Node10 -->
<g id="edge39" class="edge">
<title>Node22&#45;&gt;Node10</title>
<path fill="none" stroke="midnightblue" d="M1173.86,-507.38C1163.14,-505.72 1151.99,-504.16 1141.5,-503 1073.68,-495.5 582.15,-509.15 528.5,-467 505.81,-449.17 503.18,-411.22 503.22,-394.14"/>
<polygon fill="midnightblue" stroke="midnightblue" points="1173.54,-510.87 1183.97,-508.99 1174.65,-503.96 1173.54,-510.87"/>
</g>
<!-- Node22&#45;&gt;Node13 -->
<g id="edge37" class="edge">
<title>Node22&#45;&gt;Node13</title>
<path fill="none" stroke="midnightblue" d="M1167.72,-507.27C1089.42,-494.52 956.97,-472.94 883.87,-461.03"/>
<polygon fill="midnightblue" stroke="midnightblue" points="1167.49,-510.78 1177.93,-508.94 1168.62,-503.87 1167.49,-510.78"/>
</g>
<!-- Node23 -->
<g id="node23" class="node">
<title>Node23</title>
<g id="a_node23"><a xlink:href="ccf__acme__client_8h.html" target="_top" xlink:title=" ">
<polygon fill="white" stroke="black" points="1179,-241 1179,-260 1328,-260 1328,-241 1179,-241"/>
<text text-anchor="middle" x="1253.5" y="-248" font-family="Helvetica,sans-Serif" font-size="10.00">src/node/ccf_acme_client.h</text>
</a>
</g>
</g>
<!-- Node22&#45;&gt;Node23 -->
<g id="edge35" class="edge">
<title>Node22&#45;&gt;Node23</title>
<path fill="none" stroke="midnightblue" d="M1232.13,-498.69C1236.69,-445.87 1249.52,-297.56 1252.75,-260.15"/>
<polygon fill="midnightblue" stroke="midnightblue" points="1228.61,-498.69 1231.24,-508.95 1235.59,-499.29 1228.61,-498.69"/>
</g>
<!-- Node23&#45;&gt;Node6 -->
<g id="edge36" class="edge">
<title>Node23&#45;&gt;Node6</title>
<path fill="none" stroke="midnightblue" d="M1217.8,-237.6C1179.14,-224.71 1118.42,-204.47 1084.19,-193.06"/>
<polygon fill="midnightblue" stroke="midnightblue" points="1217.01,-241.03 1227.61,-240.87 1219.23,-234.39 1217.01,-241.03"/>
</g>
<!-- Node24&#45;&gt;Node7 -->
<g id="edge41" class="edge">
<title>Node24&#45;&gt;Node7</title>
<path fill="none" stroke="midnightblue" d="M1552.41,-439.88C1619.34,-425.36 1709.5,-392.13 1709.5,-318.5 1709.5,-318.5 1709.5,-318.5 1709.5,-182.5 1709.5,-89.21 1574.34,-69.86 1492.51,-66.7"/>
<polygon fill="midnightblue" stroke="midnightblue" points="1551.38,-436.51 1542.3,-441.97 1552.8,-443.37 1551.38,-436.51"/>
</g>
<!-- Node24&#45;&gt;Node25 -->
<g id="edge42" class="edge">
<title>Node24&#45;&gt;Node25</title>
<path fill="none" stroke="midnightblue" d="M1469.4,-433.4C1460.46,-420.77 1448.67,-404.1 1441.61,-394.13"/>
<polygon fill="midnightblue" stroke="midnightblue" points="1466.66,-435.59 1475.3,-441.73 1472.38,-431.55 1466.66,-435.59"/>
</g>
<!-- Node25&#45;&gt;Node6 -->
<g id="edge46" class="edge">
<title>Node25&#45;&gt;Node6</title>
<path fill="none" stroke="midnightblue" d="M1403.42,-370.5C1386.9,-362.18 1367.89,-349.77 1356.5,-333 1331.57,-296.3 1369.07,-266.18 1337.5,-235 1307.6,-205.47 1193.46,-192.87 1120.76,-187.75"/>
<polygon fill="midnightblue" stroke="midnightblue" points="1402.24,-373.81 1412.78,-374.92 1405.23,-367.48 1402.24,-373.81"/>
</g>
<!-- Node25&#45;&gt;Node15 -->
<g id="edge49" class="edge">
<title>Node25&#45;&gt;Node15</title>
<path fill="none" stroke="midnightblue" d="M1360.75,-375.17C1249.43,-362.75 1041.2,-339.54 928.92,-327.02"/>
<polygon fill="midnightblue" stroke="midnightblue" points="1360.56,-378.67 1370.88,-376.3 1361.33,-371.71 1360.56,-378.67"/>
</g>
<!-- Node26 -->
<g id="node26" class="node">
<title>Node26</title>
<g id="a_node26"><a xlink:href="acme__challenge__frontend_8h.html" target="_top" xlink:title=" ">
<polygon fill="white" stroke="black" points="1365.5,-302.5 1365.5,-332.5 1505.5,-332.5 1505.5,-302.5 1365.5,-302.5"/>
<text text-anchor="start" x="1373.5" y="-320.5" font-family="Helvetica,sans-Serif" font-size="10.00">src/node/acme_challenge</text>
<text text-anchor="middle" x="1435.5" y="-309.5" font-family="Helvetica,sans-Serif" font-size="10.00">_frontend.h</text>
</a>
</g>
</g>
<!-- Node25&#45;&gt;Node26 -->
<g id="edge43" class="edge">
<title>Node25&#45;&gt;Node26</title>
<path fill="none" stroke="midnightblue" d="M1435.5,-364.41C1435.5,-354.22 1435.5,-341.9 1435.5,-332.59"/>
<polygon fill="midnightblue" stroke="midnightblue" points="1432,-364.73 1435.5,-374.73 1439,-364.73 1432,-364.73"/>
</g>
<!-- Node27 -->
<g id="node27" class="node">
<title>Node27</title>
<g id="a_node27"><a xlink:href="member__frontend_8h.html" target="_top" xlink:title=" ">
<polygon fill="white" stroke="black" points="1561.5,-168.5 1561.5,-198.5 1681.5,-198.5 1681.5,-168.5 1561.5,-168.5"/>
<text text-anchor="start" x="1569.5" y="-186.5" font-family="Helvetica,sans-Serif" font-size="10.00">src/node/rpc/member</text>
<text text-anchor="middle" x="1621.5" y="-175.5" font-family="Helvetica,sans-Serif" font-size="10.00">_frontend.h</text>
</a>
</g>
</g>
<!-- Node25&#45;&gt;Node27 -->
<g id="edge47" class="edge">
<title>Node25&#45;&gt;Node27</title>
<path fill="none" stroke="midnightblue" d="M1478.85,-371.72C1501.51,-363.78 1528.42,-351.36 1547.5,-333 1588.19,-293.86 1609.95,-227.6 1617.92,-198.7"/>
<polygon fill="midnightblue" stroke="midnightblue" points="1477.5,-368.48 1469.11,-374.95 1479.7,-375.12 1477.5,-368.48"/>
</g>
<!-- Node28 -->
<g id="node28" class="node">
<title>Node28</title>
<g id="a_node28"><a xlink:href="user__frontend_8h.html" target="_top" xlink:title=" ">
<polygon fill="white" stroke="black" points="1460,-112.5 1460,-131.5 1615,-131.5 1615,-112.5 1460,-112.5"/>
<text text-anchor="middle" x="1537.5" y="-119.5" font-family="Helvetica,sans-Serif" font-size="10.00">src/node/rpc/user_frontend.h</text>
</a>
</g>
</g>
<!-- Node25&#45;&gt;Node28 -->
<g id="edge50" class="edge">
<title>Node25&#45;&gt;Node28</title>
<path fill="none" stroke="midnightblue" d="M1468.81,-370.52C1485.33,-362.31 1503.95,-349.99 1514.5,-333 1556.28,-265.69 1543.93,-162.46 1539.05,-131.85"/>
<polygon fill="midnightblue" stroke="midnightblue" points="1467,-367.5 1459.41,-374.89 1469.95,-373.85 1467,-367.5"/>
</g>
<!-- Node26&#45;&gt;Node7 -->
<g id="edge44" class="edge">
<title>Node26&#45;&gt;Node7</title>
<path fill="none" stroke="midnightblue" d="M1435.11,-292.36C1434.25,-238.56 1432.2,-110.81 1431.64,-75.93"/>
<polygon fill="midnightblue" stroke="midnightblue" points="1431.61,-292.43 1435.27,-302.37 1438.61,-292.32 1431.61,-292.43"/>
</g>
<!-- Node26&#45;&gt;Node23 -->
<g id="edge45" class="edge">
<title>Node26&#45;&gt;Node23</title>
<path fill="none" stroke="midnightblue" d="M1386.35,-298.95C1351,-286.32 1304.88,-269.85 1277.32,-260.01"/>
<polygon fill="midnightblue" stroke="midnightblue" points="1385.41,-302.33 1396.01,-302.4 1387.77,-295.74 1385.41,-302.33"/>
</g>
<!-- Node27&#45;&gt;Node7 -->
<g id="edge48" class="edge">
<title>Node27&#45;&gt;Node7</title>
<path fill="none" stroke="midnightblue" d="M1629.88,-158.35C1633.41,-143.45 1634.67,-124.82 1624.5,-112 1608.19,-91.45 1542.82,-79.42 1492.63,-73.04"/>
<polygon fill="midnightblue" stroke="midnightblue" points="1626.39,-157.82 1627.04,-168.39 1633.13,-159.72 1626.39,-157.82"/>
</g>
<!-- Node28&#45;&gt;Node7 -->
<g id="edge51" class="edge">
<title>Node28&#45;&gt;Node7</title>
<path fill="none" stroke="midnightblue" d="M1511.44,-107.73C1491.82,-97.73 1465.47,-84.31 1448.49,-75.65"/>
<polygon fill="midnightblue" stroke="midnightblue" points="1509.97,-110.9 1520.47,-112.32 1513.15,-104.67 1509.97,-110.9"/>
</g>
<!-- Node29&#45;&gt;Node5 -->
<g id="edge54" class="edge">
<title>Node29&#45;&gt;Node5</title>
<path fill="none" stroke="midnightblue" d="M984.22,-513.83C921.32,-508.71 832.2,-496.42 759.5,-467 710.93,-447.34 688.25,-445.63 662.5,-400 649.19,-376.42 652.96,-342.66 655.73,-327.03"/>
<polygon fill="midnightblue" stroke="midnightblue" points="984.23,-517.35 994.47,-514.63 984.77,-510.37 984.23,-517.35"/>
</g>
<!-- Node29&#45;&gt;Node6 -->
<g id="edge55" class="edge">
<title>Node29&#45;&gt;Node6</title>
<path fill="none" stroke="midnightblue" d="M1055.7,-499.15C1038.78,-458.23 999.14,-356.04 985.5,-266 983.44,-252.38 979.1,-247.2 985.5,-235 996.09,-214.8 1018.83,-201.08 1036.14,-193.09"/>
<polygon fill="midnightblue" stroke="midnightblue" points="1052.56,-500.72 1059.66,-508.6 1059.02,-498.02 1052.56,-500.72"/>
</g>
<!-- Node29&#45;&gt;Node24 -->
<g id="edge58" class="edge">
<title>Node29&#45;&gt;Node24</title>
<path fill="none" stroke="midnightblue" d="M1122.56,-507.28C1131.26,-505.82 1140.11,-504.35 1148.5,-503 1244.62,-487.51 1356.57,-470.81 1423.1,-461.02"/>
<polygon fill="midnightblue" stroke="midnightblue" points="1121.74,-503.87 1112.47,-508.99 1122.91,-510.77 1121.74,-503.87"/>
</g>
<!-- Node30 -->
<g id="node30" class="node">
<title>Node30</title>
<g id="a_node30"><a xlink:href="node__to__node__channel__manager_8h.html" target="_top" xlink:title=" ">
<polygon fill="white" stroke="black" points="994,-235.5 994,-265.5 1123,-265.5 1123,-235.5 994,-235.5"/>
<text text-anchor="start" x="1002" y="-253.5" font-family="Helvetica,sans-Serif" font-size="10.00">src/node/node_to_node</text>
<text text-anchor="middle" x="1058.5" y="-242.5" font-family="Helvetica,sans-Serif" font-size="10.00">_channel_manager.h</text>
</a>
</g>
</g>
<!-- Node29&#45;&gt;Node30 -->
<g id="edge56" class="edge">
<title>Node29&#45;&gt;Node30</title>
<path fill="none" stroke="midnightblue" d="M1063.15,-498.85C1062.2,-448.43 1059.6,-310.19 1058.76,-265.58"/>
<polygon fill="midnightblue" stroke="midnightblue" points="1059.65,-499.02 1063.34,-508.95 1066.65,-498.89 1059.65,-499.02"/>
</g>
<!-- Node30&#45;&gt;Node6 -->
<g id="edge57" class="edge">
<title>Node30&#45;&gt;Node6</title>
<path fill="none" stroke="midnightblue" d="M1058.5,-225.25C1058.5,-214.02 1058.5,-201.38 1058.5,-193.19"/>
<polygon fill="midnightblue" stroke="midnightblue" points="1055,-225.4 1058.5,-235.4 1062,-225.4 1055,-225.4"/>
</g>
</g>
</svg>
