<?xml version="1.0" encoding="UTF-8" standalone="no"?>
<!DOCTYPE svg PUBLIC "-//W3C//DTD SVG 1.1//EN"
 "http://www.w3.org/Graphics/SVG/1.1/DTD/svg11.dtd">
<!-- Generated by graphviz version 2.43.0 (0)
 -->
<!-- Title: src/tls/msg_types.h Pages: 1 -->
<svg width="1123pt" height="956pt"
 viewBox="0.00 0.00 1122.74 956.00" xmlns="http://www.w3.org/2000/svg" xmlns:xlink="http://www.w3.org/1999/xlink">
<g id="graph0" class="graph" transform="scale(1 1) rotate(0) translate(4 952)">
<title>src/tls/msg_types.h</title>
<polygon fill="white" stroke="transparent" points="-4,4 -4,-952 1118.74,-952 1118.74,4 -4,4"/>
<!-- Node1 -->
<g id="node1" class="node">
<title>Node1</title>
<g id="a_node1"><a xlink:title=" ">
<polygon fill="#bfbfbf" stroke="black" points="726.24,-928.5 726.24,-947.5 837.24,-947.5 837.24,-928.5 726.24,-928.5"/>
<text text-anchor="middle" x="781.74" y="-935.5" font-family="Helvetica,sans-Serif" font-size="10.00">src/tls/msg_types.h</text>
</a>
</g>
</g>
<!-- Node2 -->
<g id="node2" class="node">
<title>Node2</title>
<g id="a_node2"><a xlink:href="client__endpoint_8h.html" target="_top" xlink:title=" ">
<polygon fill="white" stroke="black" points="744.74,-749.5 744.74,-779.5 846.74,-779.5 846.74,-749.5 744.74,-749.5"/>
<text text-anchor="start" x="752.74" y="-767.5" font-family="Helvetica,sans-Serif" font-size="10.00">src/enclave/client</text>
<text text-anchor="middle" x="795.74" y="-756.5" font-family="Helvetica,sans-Serif" font-size="10.00">_endpoint.h</text>
</a>
</g>
</g>
<!-- Node1&#45;&gt;Node2 -->
<g id="edge1" class="edge">
<title>Node1&#45;&gt;Node2</title>
<path fill="none" stroke="midnightblue" d="M783.28,-918.1C786.11,-883.45 792.06,-810.53 794.58,-779.72"/>
<polygon fill="midnightblue" stroke="midnightblue" points="779.78,-918.01 782.45,-928.26 786.76,-918.58 779.78,-918.01"/>
</g>
<!-- Node18 -->
<g id="node18" class="node">
<title>Node18</title>
<g id="a_node18"><a xlink:href="tls__endpoint_8h.html" target="_top" xlink:title=" ">
<polygon fill="white" stroke="black" points="580.74,-872.5 580.74,-891.5 724.74,-891.5 724.74,-872.5 580.74,-872.5"/>
<text text-anchor="middle" x="652.74" y="-879.5" font-family="Helvetica,sans-Serif" font-size="10.00">src/enclave/tls_endpoint.h</text>
</a>
</g>
</g>
<!-- Node1&#45;&gt;Node18 -->
<g id="edge27" class="edge">
<title>Node1&#45;&gt;Node18</title>
<path fill="none" stroke="midnightblue" d="M751.89,-924.5C727.7,-914.38 694.28,-900.39 673.08,-891.52"/>
<polygon fill="midnightblue" stroke="midnightblue" points="750.72,-927.81 761.3,-928.44 753.43,-921.35 750.72,-927.81"/>
</g>
<!-- Node37 -->
<g id="node37" class="node">
<title>Node37</title>
<g id="a_node37"><a xlink:href="rpc__connections_8h.html" target="_top" xlink:title=" ">
<polygon fill="white" stroke="black" points="809.74,-872.5 809.74,-891.5 955.74,-891.5 955.74,-872.5 809.74,-872.5"/>
<text text-anchor="middle" x="882.74" y="-879.5" font-family="Helvetica,sans-Serif" font-size="10.00">src/host/rpc_connections.h</text>
</a>
</g>
</g>
<!-- Node1&#45;&gt;Node37 -->
<g id="edge62" class="edge">
<title>Node1&#45;&gt;Node37</title>
<path fill="none" stroke="midnightblue" d="M806.82,-923.59C825.5,-913.61 850.44,-900.27 866.55,-891.65"/>
<polygon fill="midnightblue" stroke="midnightblue" points="805.14,-920.52 797.97,-928.32 808.44,-926.7 805.14,-920.52"/>
</g>
<!-- Node3 -->
<g id="node3" class="node">
<title>Node3</title>
<g id="a_node3"><a xlink:href="http__endpoint_8h.html" target="_top" xlink:title=" ">
<polygon fill="white" stroke="black" points="740.24,-570.5 740.24,-589.5 873.24,-589.5 873.24,-570.5 740.24,-570.5"/>
<text text-anchor="middle" x="806.74" y="-577.5" font-family="Helvetica,sans-Serif" font-size="10.00">src/http/http_endpoint.h</text>
</a>
</g>
</g>
<!-- Node2&#45;&gt;Node3 -->
<g id="edge2" class="edge">
<title>Node2&#45;&gt;Node3</title>
<path fill="none" stroke="midnightblue" d="M797.2,-739.27C799.68,-698.19 804.59,-616.69 806.21,-589.82"/>
<polygon fill="midnightblue" stroke="midnightblue" points="793.69,-739.29 796.59,-749.48 800.68,-739.71 793.69,-739.29"/>
</g>
<!-- Node4 -->
<g id="node4" class="node">
<title>Node4</title>
<g id="a_node4"><a xlink:href="rpc__sessions_8h.html" target="_top" xlink:title=" ">
<polygon fill="white" stroke="black" points="757.74,-509 757.74,-528 903.74,-528 903.74,-509 757.74,-509"/>
<text text-anchor="middle" x="830.74" y="-516" font-family="Helvetica,sans-Serif" font-size="10.00">src/enclave/rpc_sessions.h</text>
</a>
</g>
</g>
<!-- Node3&#45;&gt;Node4 -->
<g id="edge3" class="edge">
<title>Node3&#45;&gt;Node4</title>
<path fill="none" stroke="midnightblue" d="M814,-561C818.42,-550.05 823.85,-536.57 827.31,-528.01"/>
<polygon fill="midnightblue" stroke="midnightblue" points="810.67,-559.89 810.18,-570.48 817.17,-562.51 810.67,-559.89"/>
</g>
<!-- Node5 -->
<g id="node5" class="node">
<title>Node5</title>
<g id="a_node5"><a xlink:href="enclave_2enclave_8h.html" target="_top" xlink:title=" ">
<polygon fill="white" stroke="black" points="308.74,-56.5 308.74,-75.5 430.74,-75.5 430.74,-56.5 308.74,-56.5"/>
<text text-anchor="middle" x="369.74" y="-63.5" font-family="Helvetica,sans-Serif" font-size="10.00">src/enclave/enclave.h</text>
</a>
</g>
</g>
<!-- Node4&#45;&gt;Node5 -->
<g id="edge4" class="edge">
<title>Node4&#45;&gt;Node5</title>
<path fill="none" stroke="midnightblue" d="M913.92,-513.21C997.73,-503.88 1114.74,-474.84 1114.74,-385.5 1114.74,-385.5 1114.74,-385.5 1114.74,-182.5 1114.74,-113.5 609.23,-79.8 431.02,-70.07"/>
<polygon fill="midnightblue" stroke="midnightblue" points="913.46,-509.74 903.88,-514.26 914.19,-516.7 913.46,-509.74"/>
</g>
<!-- Node7 -->
<g id="node7" class="node">
<title>Node7</title>
<g id="a_node7"><a xlink:href="ccf__acme__client_8h.html" target="_top" xlink:title=" ">
<polygon fill="white" stroke="black" points="560.24,-241 560.24,-260 709.24,-260 709.24,-241 560.24,-241"/>
<text text-anchor="middle" x="634.74" y="-248" font-family="Helvetica,sans-Serif" font-size="10.00">src/node/ccf_acme_client.h</text>
</a>
</g>
</g>
<!-- Node4&#45;&gt;Node7 -->
<g id="edge6" class="edge">
<title>Node4&#45;&gt;Node7</title>
<path fill="none" stroke="midnightblue" d="M747.54,-510.73C717.24,-504.01 685.39,-491.18 664.74,-467 611.26,-404.38 627.11,-292.14 632.99,-260.2"/>
<polygon fill="midnightblue" stroke="midnightblue" points="747.24,-514.24 757.74,-512.78 748.62,-507.38 747.24,-514.24"/>
</g>
<!-- Node8 -->
<g id="node8" class="node">
<title>Node8</title>
<g id="a_node8"><a xlink:href="node__state_8h.html" target="_top" xlink:title=" ">
<polygon fill="white" stroke="black" points="572.74,-174 572.74,-193 696.74,-193 696.74,-174 572.74,-174"/>
<text text-anchor="middle" x="634.74" y="-181" font-family="Helvetica,sans-Serif" font-size="10.00">src/node/node_state.h</text>
</a>
</g>
</g>
<!-- Node4&#45;&gt;Node8 -->
<g id="edge24" class="edge">
<title>Node4&#45;&gt;Node8</title>
<path fill="none" stroke="midnightblue" d="M805.24,-504.05C773.2,-485.52 719.76,-448.83 697.74,-400 667.38,-332.66 753.94,-299.39 717.74,-235 705.92,-213.97 681.41,-200.68 662.07,-193.04"/>
<polygon fill="midnightblue" stroke="midnightblue" points="803.62,-507.15 814.05,-509 807.04,-501.05 803.62,-507.15"/>
</g>
<!-- Node10 -->
<g id="node10" class="node">
<title>Node10</title>
<g id="a_node10"><a xlink:href="node__client_8h.html" target="_top" xlink:title=" ">
<polygon fill="white" stroke="black" points="791.74,-442 791.74,-461 917.74,-461 917.74,-442 791.74,-442"/>
<text text-anchor="middle" x="854.74" y="-449" font-family="Helvetica,sans-Serif" font-size="10.00">src/node/node_client.h</text>
</a>
</g>
</g>
<!-- Node4&#45;&gt;Node10 -->
<g id="edge11" class="edge">
<title>Node4&#45;&gt;Node10</title>
<path fill="none" stroke="midnightblue" d="M837.46,-499.29C842.07,-486.81 847.98,-470.81 851.55,-461.13"/>
<polygon fill="midnightblue" stroke="midnightblue" points="834.16,-498.14 833.98,-508.73 840.72,-500.57 834.16,-498.14"/>
</g>
<!-- Node17 -->
<g id="node17" class="node">
<title>Node17</title>
<g id="a_node17"><a xlink:href="resharing_8h.html" target="_top" xlink:title=" ">
<polygon fill="white" stroke="black" points="964.74,-241 964.74,-260 1080.74,-260 1080.74,-241 964.74,-241"/>
<text text-anchor="middle" x="1022.74" y="-248" font-family="Helvetica,sans-Serif" font-size="10.00">src/node/resharing.h</text>
</a>
</g>
</g>
<!-- Node4&#45;&gt;Node17 -->
<g id="edge25" class="edge">
<title>Node4&#45;&gt;Node17</title>
<path fill="none" stroke="midnightblue" d="M877.18,-506.13C926.96,-491.15 1003.35,-459.44 1036.74,-400 1063.12,-353.04 1037.39,-284.36 1026.81,-260.25"/>
<polygon fill="midnightblue" stroke="midnightblue" points="875.92,-502.85 867.29,-508.99 877.87,-509.57 875.92,-502.85"/>
</g>
<!-- Node6 -->
<g id="node6" class="node">
<title>Node6</title>
<g id="a_node6"><a xlink:href="enclave_2main_8cpp.html" target="_top" xlink:title=" ">
<polygon fill="white" stroke="black" points="309.74,-0.5 309.74,-19.5 429.74,-19.5 429.74,-0.5 309.74,-0.5"/>
<text text-anchor="middle" x="369.74" y="-7.5" font-family="Helvetica,sans-Serif" font-size="10.00">src/enclave/main.cpp</text>
</a>
</g>
</g>
<!-- Node5&#45;&gt;Node6 -->
<g id="edge5" class="edge">
<title>Node5&#45;&gt;Node6</title>
<path fill="none" stroke="midnightblue" d="M369.74,-45.8C369.74,-36.91 369.74,-26.78 369.74,-19.75"/>
<polygon fill="midnightblue" stroke="midnightblue" points="366.24,-46.08 369.74,-56.08 373.24,-46.08 366.24,-46.08"/>
</g>
<!-- Node7&#45;&gt;Node8 -->
<g id="edge7" class="edge">
<title>Node7&#45;&gt;Node8</title>
<path fill="none" stroke="midnightblue" d="M634.74,-230.54C634.74,-218.17 634.74,-202.62 634.74,-193.13"/>
<polygon fill="midnightblue" stroke="midnightblue" points="631.24,-230.73 634.74,-240.73 638.24,-230.73 631.24,-230.73"/>
</g>
<!-- Node8&#45;&gt;Node5 -->
<g id="edge8" class="edge">
<title>Node8&#45;&gt;Node5</title>
<path fill="none" stroke="midnightblue" d="M626.24,-164.93C617.42,-148.62 602.05,-124.95 581.74,-112 536.53,-83.17 475.97,-72.49 431.15,-68.69"/>
<polygon fill="midnightblue" stroke="midnightblue" points="623.2,-166.67 630.88,-173.98 629.43,-163.48 623.2,-166.67"/>
</g>
<!-- Node9 -->
<g id="node9" class="node">
<title>Node9</title>
<g id="a_node9"><a xlink:href="gov__effects_8h.html" target="_top" xlink:title=" ">
<polygon fill="white" stroke="black" points="428.74,-112.5 428.74,-131.5 572.74,-131.5 572.74,-112.5 428.74,-112.5"/>
<text text-anchor="middle" x="500.74" y="-119.5" font-family="Helvetica,sans-Serif" font-size="10.00">src/node/rpc/gov_effects.h</text>
</a>
</g>
</g>
<!-- Node8&#45;&gt;Node9 -->
<g id="edge9" class="edge">
<title>Node8&#45;&gt;Node9</title>
<path fill="none" stroke="midnightblue" d="M606.2,-169.83C580.19,-158.28 542.48,-141.53 519.9,-131.51"/>
<polygon fill="midnightblue" stroke="midnightblue" points="604.98,-173.12 615.54,-173.98 607.82,-166.72 604.98,-173.12"/>
</g>
<!-- Node9&#45;&gt;Node5 -->
<g id="edge10" class="edge">
<title>Node9&#45;&gt;Node5</title>
<path fill="none" stroke="midnightblue" d="M470.42,-108.5C445.86,-98.38 411.92,-84.39 390.4,-75.52"/>
<polygon fill="midnightblue" stroke="midnightblue" points="469.4,-111.87 479.98,-112.44 472.07,-105.4 469.4,-111.87"/>
</g>
<!-- Node11 -->
<g id="node11" class="node">
<title>Node11</title>
<g id="a_node11"><a xlink:href="orc__requests_8h.html" target="_top" xlink:title=" ">
<polygon fill="white" stroke="black" points="707.24,-369.5 707.24,-399.5 826.24,-399.5 826.24,-369.5 707.24,-369.5"/>
<text text-anchor="start" x="715.24" y="-387.5" font-family="Helvetica,sans-Serif" font-size="10.00">src/consensus/aft/orc</text>
<text text-anchor="middle" x="766.74" y="-376.5" font-family="Helvetica,sans-Serif" font-size="10.00">_requests.h</text>
</a>
</g>
</g>
<!-- Node10&#45;&gt;Node11 -->
<g id="edge12" class="edge">
<title>Node10&#45;&gt;Node11</title>
<path fill="none" stroke="midnightblue" d="M834.49,-435.54C819.85,-424.73 800.18,-410.2 785.81,-399.59"/>
<polygon fill="midnightblue" stroke="midnightblue" points="832.75,-438.61 842.87,-441.73 836.91,-432.98 832.75,-438.61"/>
</g>
<!-- Node12 -->
<g id="node12" class="node">
<title>Node12</title>
<g id="a_node12"><a xlink:href="raft_8h.html" target="_top" xlink:title=" ">
<polygon fill="white" stroke="black" points="883.24,-308 883.24,-327 1012.24,-327 1012.24,-308 883.24,-308"/>
<text text-anchor="middle" x="947.74" y="-315" font-family="Helvetica,sans-Serif" font-size="10.00">src/consensus/aft/raft.h</text>
</a>
</g>
</g>
<!-- Node10&#45;&gt;Node12 -->
<g id="edge19" class="edge">
<title>Node10&#45;&gt;Node12</title>
<path fill="none" stroke="midnightblue" d="M928.34,-447.11C961.85,-441.43 998.67,-428.48 1019.74,-400 1027.93,-388.92 1026.1,-381.22 1019.74,-369 1009.24,-348.82 986.57,-335.02 969.46,-327.01"/>
<polygon fill="midnightblue" stroke="midnightblue" points="927.43,-443.71 918.06,-448.65 928.47,-450.63 927.43,-443.71"/>
</g>
<!-- Node15 -->
<g id="node15" class="node">
<title>Node15</title>
<g id="a_node15"><a xlink:href="http__node__client_8h.html" target="_top" xlink:title=" ">
<polygon fill="white" stroke="black" points="781.74,-235.5 781.74,-265.5 891.74,-265.5 891.74,-235.5 781.74,-235.5"/>
<text text-anchor="start" x="789.74" y="-253.5" font-family="Helvetica,sans-Serif" font-size="10.00">src/node/http_node</text>
<text text-anchor="middle" x="836.74" y="-242.5" font-family="Helvetica,sans-Serif" font-size="10.00">_client.h</text>
</a>
</g>
</g>
<!-- Node10&#45;&gt;Node15 -->
<g id="edge20" class="edge">
<title>Node10&#45;&gt;Node15</title>
<path fill="none" stroke="midnightblue" d="M853.05,-431.86C849.47,-392.28 841.19,-300.64 838.01,-265.53"/>
<polygon fill="midnightblue" stroke="midnightblue" points="849.58,-432.31 853.97,-441.95 856.55,-431.67 849.58,-432.31"/>
</g>
<!-- Node16 -->
<g id="node16" class="node">
<title>Node16</title>
<g id="a_node16"><a xlink:href="retired__nodes__cleanup_8h.html" target="_top" xlink:title=" ">
<polygon fill="white" stroke="black" points="882.74,-369.5 882.74,-399.5 1010.74,-399.5 1010.74,-369.5 882.74,-369.5"/>
<text text-anchor="start" x="890.74" y="-387.5" font-family="Helvetica,sans-Serif" font-size="10.00">src/node/retired_nodes</text>
<text text-anchor="middle" x="946.74" y="-376.5" font-family="Helvetica,sans-Serif" font-size="10.00">_cleanup.h</text>
</a>
</g>
</g>
<!-- Node10&#45;&gt;Node16 -->
<g id="edge22" class="edge">
<title>Node10&#45;&gt;Node16</title>
<path fill="none" stroke="midnightblue" d="M875.48,-435.85C890.83,-425 911.63,-410.3 926.8,-399.59"/>
<polygon fill="midnightblue" stroke="midnightblue" points="873.3,-433.1 867.15,-441.73 877.33,-438.82 873.3,-433.1"/>
</g>
<!-- Node11&#45;&gt;Node12 -->
<g id="edge13" class="edge">
<title>Node11&#45;&gt;Node12</title>
<path fill="none" stroke="midnightblue" d="M815.62,-365.95C850.78,-353.32 896.64,-336.85 924.05,-327.01"/>
<polygon fill="midnightblue" stroke="midnightblue" points="814.24,-362.72 806.01,-369.4 816.61,-369.31 814.24,-362.72"/>
</g>
<!-- Node13 -->
<g id="node13" class="node">
<title>Node13</title>
<g id="a_node13"><a xlink:href="node__frontend_8h.html" target="_top" xlink:title=" ">
<polygon fill="white" stroke="black" points="378.74,-308 378.74,-327 536.74,-327 536.74,-308 378.74,-308"/>
<text text-anchor="middle" x="457.74" y="-315" font-family="Helvetica,sans-Serif" font-size="10.00">src/node/rpc/node_frontend.h</text>
</a>
</g>
</g>
<!-- Node11&#45;&gt;Node13 -->
<g id="edge15" class="edge">
<title>Node11&#45;&gt;Node13</title>
<path fill="none" stroke="midnightblue" d="M697.19,-368.87C635.98,-355.99 548.95,-337.69 498.41,-327.06"/>
<polygon fill="midnightblue" stroke="midnightblue" points="696.66,-372.33 707.16,-370.97 698.1,-365.48 696.66,-372.33"/>
</g>
<!-- Node12&#45;&gt;Node8 -->
<g id="edge14" class="edge">
<title>Node12&#45;&gt;Node8</title>
<path fill="none" stroke="midnightblue" d="M942.33,-298.42C935.69,-279.52 922.55,-250.49 900.74,-235 868.69,-212.24 764.98,-197.66 696.93,-190.29"/>
<polygon fill="midnightblue" stroke="midnightblue" points="939.01,-299.54 945.43,-307.96 945.67,-297.37 939.01,-299.54"/>
</g>
<!-- Node13&#45;&gt;Node5 -->
<g id="edge16" class="edge">
<title>Node13&#45;&gt;Node5</title>
<path fill="none" stroke="midnightblue" d="M437.82,-301.35C427.26,-292.25 415,-279.78 407.74,-266 372.51,-199.08 369.65,-104.2 369.64,-75.53"/>
<polygon fill="midnightblue" stroke="midnightblue" points="435.85,-304.26 445.8,-307.89 440.28,-298.85 435.85,-304.26"/>
</g>
<!-- Node14 -->
<g id="node14" class="node">
<title>Node14</title>
<g id="a_node14"><a xlink:href="jwt__key__auto__refresh_8h.html" target="_top" xlink:title=" ">
<polygon fill="white" stroke="black" points="417.24,-235.5 417.24,-265.5 542.24,-265.5 542.24,-235.5 417.24,-235.5"/>
<text text-anchor="start" x="425.24" y="-253.5" font-family="Helvetica,sans-Serif" font-size="10.00">src/node/jwt_key_auto</text>
<text text-anchor="middle" x="479.74" y="-242.5" font-family="Helvetica,sans-Serif" font-size="10.00">_refresh.h</text>
</a>
</g>
</g>
<!-- Node13&#45;&gt;Node14 -->
<g id="edge17" class="edge">
<title>Node13&#45;&gt;Node14</title>
<path fill="none" stroke="midnightblue" d="M463.98,-298.06C467.47,-287.75 471.75,-275.1 474.97,-265.59"/>
<polygon fill="midnightblue" stroke="midnightblue" points="460.6,-297.14 460.71,-307.73 467.23,-299.38 460.6,-297.14"/>
</g>
<!-- Node14&#45;&gt;Node8 -->
<g id="edge18" class="edge">
<title>Node14&#45;&gt;Node8</title>
<path fill="none" stroke="midnightblue" d="M522.76,-231.46C552.71,-218.9 591.28,-202.72 614.45,-193.01"/>
<polygon fill="midnightblue" stroke="midnightblue" points="521.24,-228.3 513.37,-235.4 523.95,-234.76 521.24,-228.3"/>
</g>
<!-- Node15&#45;&gt;Node8 -->
<g id="edge21" class="edge">
<title>Node15&#45;&gt;Node8</title>
<path fill="none" stroke="midnightblue" d="M783.19,-232.27C743.83,-219.6 692.03,-202.93 661.18,-193.01"/>
<polygon fill="midnightblue" stroke="midnightblue" points="782.32,-235.66 792.91,-235.4 784.46,-229 782.32,-235.66"/>
</g>
<!-- Node16&#45;&gt;Node12 -->
<g id="edge23" class="edge">
<title>Node16&#45;&gt;Node12</title>
<path fill="none" stroke="midnightblue" d="M947.11,-359.25C947.29,-348.02 947.48,-335.38 947.61,-327.19"/>
<polygon fill="midnightblue" stroke="midnightblue" points="943.61,-359.34 946.96,-369.4 950.61,-359.45 943.61,-359.34"/>
</g>
<!-- Node17&#45;&gt;Node8 -->
<g id="edge26" class="edge">
<title>Node17&#45;&gt;Node8</title>
<path fill="none" stroke="midnightblue" d="M964.46,-239.25C956.16,-237.81 947.74,-236.36 939.74,-235 851.11,-219.92 747.89,-202.96 687.11,-193.03"/>
<polygon fill="midnightblue" stroke="midnightblue" points="964.02,-242.73 974.47,-240.99 965.22,-235.83 964.02,-242.73"/>
</g>
<!-- Node19 -->
<g id="node19" class="node">
<title>Node19</title>
<g id="a_node19"><a xlink:href="http__parser_8h.html" target="_top" xlink:title=" ">
<polygon fill="white" stroke="black" points="508.74,-755 508.74,-774 628.74,-774 628.74,-755 508.74,-755"/>
<text text-anchor="middle" x="568.74" y="-762" font-family="Helvetica,sans-Serif" font-size="10.00">src/http/http_parser.h</text>
</a>
</g>
</g>
<!-- Node18&#45;&gt;Node19 -->
<g id="edge28" class="edge">
<title>Node18&#45;&gt;Node19</title>
<path fill="none" stroke="midnightblue" d="M650.02,-862.09C647.35,-848.37 642.23,-829.85 632.74,-816 620.18,-797.67 598.96,-782.83 584.42,-774.09"/>
<polygon fill="midnightblue" stroke="midnightblue" points="646.63,-863.01 651.74,-872.29 653.53,-861.85 646.63,-863.01"/>
</g>
<!-- Node36 -->
<g id="node36" class="node">
<title>Node36</title>
<g id="a_node36"><a xlink:href="http__proc_8h.html" target="_top" xlink:title=" ">
<polygon fill="white" stroke="black" points="513.24,-816.5 513.24,-835.5 624.24,-835.5 624.24,-816.5 513.24,-816.5"/>
<text text-anchor="middle" x="568.74" y="-823.5" font-family="Helvetica,sans-Serif" font-size="10.00">src/http/http_proc.h</text>
</a>
</g>
</g>
<!-- Node18&#45;&gt;Node36 -->
<g id="edge60" class="edge">
<title>Node18&#45;&gt;Node36</title>
<path fill="none" stroke="midnightblue" d="M630.81,-866.9C615.4,-857 595.29,-844.07 582.2,-835.65"/>
<polygon fill="midnightblue" stroke="midnightblue" points="628.94,-869.86 639.24,-872.32 632.73,-863.97 628.94,-869.86"/>
</g>
<!-- Node19&#45;&gt;Node3 -->
<g id="edge35" class="edge">
<title>Node19&#45;&gt;Node3</title>
<path fill="none" stroke="midnightblue" d="M589.43,-748.91C603.45,-738.94 622.34,-725.35 638.74,-713 698.89,-667.7 769.28,-611.24 795.85,-589.81"/>
<polygon fill="midnightblue" stroke="midnightblue" points="587.13,-746.25 580.99,-754.89 591.17,-751.96 587.13,-746.25"/>
</g>
<!-- Node20 -->
<g id="node20" class="node">
<title>Node20</title>
<g id="a_node20"><a xlink:href="rpc__tls__client_8h.html" target="_top" xlink:title=" ">
<polygon fill="white" stroke="black" points="203.24,-626.5 203.24,-656.5 304.24,-656.5 304.24,-626.5 203.24,-626.5"/>
<text text-anchor="start" x="211.24" y="-644.5" font-family="Helvetica,sans-Serif" font-size="10.00">src/clients/rpc_tls</text>
<text text-anchor="middle" x="253.74" y="-633.5" font-family="Helvetica,sans-Serif" font-size="10.00">_client.h</text>
</a>
</g>
</g>
<!-- Node19&#45;&gt;Node20 -->
<g id="edge29" class="edge">
<title>Node19&#45;&gt;Node20</title>
<path fill="none" stroke="midnightblue" d="M519.39,-752.59C482.71,-743.78 431.76,-730.05 388.74,-713 347.94,-696.83 303.29,-671.98 276.94,-656.52"/>
<polygon fill="midnightblue" stroke="midnightblue" points="518.81,-756.05 529.35,-754.94 520.42,-749.24 518.81,-756.05"/>
</g>
<!-- Node25 -->
<g id="node25" class="node">
<title>Node25</title>
<g id="a_node25"><a xlink:href="http__jwt_8h.html" target="_top" xlink:title=" ">
<polygon fill="white" stroke="black" points="55.24,-693.5 55.24,-712.5 160.24,-712.5 160.24,-693.5 55.24,-693.5"/>
<text text-anchor="middle" x="107.74" y="-700.5" font-family="Helvetica,sans-Serif" font-size="10.00">src/http/http_jwt.h</text>
</a>
</g>
</g>
<!-- Node19&#45;&gt;Node25 -->
<g id="edge36" class="edge">
<title>Node19&#45;&gt;Node25</title>
<path fill="none" stroke="midnightblue" d="M498.31,-754.41C405.33,-742.41 243.7,-721.55 160.53,-710.81"/>
<polygon fill="midnightblue" stroke="midnightblue" points="498.11,-757.91 508.47,-755.72 499,-750.97 498.11,-757.91"/>
</g>
<!-- Node31 -->
<g id="node31" class="node">
<title>Node31</title>
<g id="a_node31"><a xlink:href="http__rpc__context_8h.html" target="_top" xlink:title=" ">
<polygon fill="white" stroke="black" points="495.24,-632 495.24,-651 642.24,-651 642.24,-632 495.24,-632"/>
<text text-anchor="middle" x="568.74" y="-639" font-family="Helvetica,sans-Serif" font-size="10.00">src/http/http_rpc_context.h</text>
</a>
</g>
</g>
<!-- Node19&#45;&gt;Node31 -->
<g id="edge48" class="edge">
<title>Node19&#45;&gt;Node31</title>
<path fill="none" stroke="midnightblue" d="M568.74,-744.49C568.74,-717.85 568.74,-670.5 568.74,-651.12"/>
<polygon fill="midnightblue" stroke="midnightblue" points="565.24,-744.8 568.74,-754.8 572.24,-744.8 565.24,-744.8"/>
</g>
<!-- Node33 -->
<g id="node33" class="node">
<title>Node33</title>
<g id="a_node33"><a xlink:href="http__sig_8h.html" target="_top" xlink:title=" ">
<polygon fill="white" stroke="black" points="397.74,-693.5 397.74,-712.5 501.74,-712.5 501.74,-693.5 397.74,-693.5"/>
<text text-anchor="middle" x="449.74" y="-700.5" font-family="Helvetica,sans-Serif" font-size="10.00">src/http/http_sig.h</text>
</a>
</g>
</g>
<!-- Node19&#45;&gt;Node33 -->
<g id="edge54" class="edge">
<title>Node19&#45;&gt;Node33</title>
<path fill="none" stroke="midnightblue" d="M542.47,-750.37C519.41,-738.83 486.54,-722.4 466.76,-712.51"/>
<polygon fill="midnightblue" stroke="midnightblue" points="541.18,-753.63 551.69,-754.98 544.31,-747.37 541.18,-753.63"/>
</g>
<!-- Node35 -->
<g id="node35" class="node">
<title>Node35</title>
<g id="a_node35"><a xlink:href="acme__client_8h.html" target="_top" xlink:title=" ">
<polygon fill="white" stroke="black" points="593.24,-570.5 593.24,-589.5 722.24,-589.5 722.24,-570.5 593.24,-570.5"/>
<text text-anchor="middle" x="657.74" y="-577.5" font-family="Helvetica,sans-Serif" font-size="10.00">src/node/acme_client.h</text>
</a>
</g>
</g>
<!-- Node19&#45;&gt;Node35 -->
<g id="edge58" class="edge">
<title>Node19&#45;&gt;Node35</title>
<path fill="none" stroke="midnightblue" d="M585.51,-747.89C604.98,-728.62 636.28,-693.85 650.74,-657 659.74,-634.06 659.36,-604.33 658.48,-589.79"/>
<polygon fill="midnightblue" stroke="midnightblue" points="582.97,-745.48 578.2,-754.94 587.83,-750.51 582.97,-745.48"/>
</g>
<!-- Node21 -->
<g id="node21" class="node">
<title>Node21</title>
<g id="a_node21"><a xlink:href="perf__client_8h.html" target="_top" xlink:title=" ">
<polygon fill="white" stroke="black" points="164.24,-503.5 164.24,-533.5 275.24,-533.5 275.24,-503.5 164.24,-503.5"/>
<text text-anchor="start" x="172.24" y="-521.5" font-family="Helvetica,sans-Serif" font-size="10.00">src/clients/perf/perf</text>
<text text-anchor="middle" x="219.74" y="-510.5" font-family="Helvetica,sans-Serif" font-size="10.00">_client.h</text>
</a>
</g>
</g>
<!-- Node20&#45;&gt;Node21 -->
<g id="edge30" class="edge">
<title>Node20&#45;&gt;Node21</title>
<path fill="none" stroke="midnightblue" d="M268.72,-617.38C275.83,-603.37 281.46,-585.29 274.74,-570 268.12,-554.93 254.53,-542.38 242.52,-533.56"/>
<polygon fill="midnightblue" stroke="midnightblue" points="265.52,-615.92 263.69,-626.36 271.63,-619.34 265.52,-615.92"/>
</g>
<!-- Node24 -->
<g id="node24" class="node">
<title>Node24</title>
<g id="a_node24"><a xlink:href="timing_8h.html" target="_top" xlink:title=" ">
<polygon fill="white" stroke="black" points="133.74,-570.5 133.74,-589.5 265.74,-589.5 265.74,-570.5 133.74,-570.5"/>
<text text-anchor="middle" x="199.74" y="-577.5" font-family="Helvetica,sans-Serif" font-size="10.00">src/clients/perf/timing.h</text>
</a>
</g>
</g>
<!-- Node20&#45;&gt;Node24 -->
<g id="edge33" class="edge">
<title>Node20&#45;&gt;Node24</title>
<path fill="none" stroke="midnightblue" d="M233.96,-618.7C224.82,-608.64 214.49,-597.26 207.6,-589.66"/>
<polygon fill="midnightblue" stroke="midnightblue" points="231.63,-621.35 240.94,-626.4 236.81,-616.64 231.63,-621.35"/>
</g>
<!-- Node22 -->
<g id="node22" class="node">
<title>Node22</title>
<g id="a_node22"><a xlink:href="tpcc__client_8cpp.html" target="_top" xlink:title=" ">
<polygon fill="white" stroke="black" points="181.74,-436.5 181.74,-466.5 297.74,-466.5 297.74,-436.5 181.74,-436.5"/>
<text text-anchor="start" x="189.74" y="-454.5" font-family="Helvetica,sans-Serif" font-size="10.00">src/apps/tpcc/clients</text>
<text text-anchor="middle" x="239.74" y="-443.5" font-family="Helvetica,sans-Serif" font-size="10.00">/tpcc_client.cpp</text>
</a>
</g>
</g>
<!-- Node21&#45;&gt;Node22 -->
<g id="edge31" class="edge">
<title>Node21&#45;&gt;Node22</title>
<path fill="none" stroke="midnightblue" d="M227.06,-493.7C229.87,-484.59 232.97,-474.49 235.41,-466.58"/>
<polygon fill="midnightblue" stroke="midnightblue" points="223.68,-492.81 224.08,-503.4 230.37,-494.87 223.68,-492.81"/>
</g>
<!-- Node23 -->
<g id="node23" class="node">
<title>Node23</title>
<g id="a_node23"><a xlink:href="scenario__perf__client_8cpp.html" target="_top" xlink:title=" ">
<polygon fill="white" stroke="black" points="30.24,-436.5 30.24,-466.5 163.24,-466.5 163.24,-436.5 30.24,-436.5"/>
<text text-anchor="start" x="38.24" y="-454.5" font-family="Helvetica,sans-Serif" font-size="10.00">src/clients/perf/scenario</text>
<text text-anchor="middle" x="96.74" y="-443.5" font-family="Helvetica,sans-Serif" font-size="10.00">_perf_client.cpp</text>
</a>
</g>
</g>
<!-- Node21&#45;&gt;Node23 -->
<g id="edge32" class="edge">
<title>Node21&#45;&gt;Node23</title>
<path fill="none" stroke="midnightblue" d="M184.19,-498.71C164.79,-488.46 141.18,-475.98 123.38,-466.58"/>
<polygon fill="midnightblue" stroke="midnightblue" points="182.57,-501.82 193.05,-503.4 185.84,-495.63 182.57,-501.82"/>
</g>
<!-- Node24&#45;&gt;Node21 -->
<g id="edge34" class="edge">
<title>Node24&#45;&gt;Node21</title>
<path fill="none" stroke="midnightblue" d="M205.85,-560.82C208.8,-552.04 212.29,-541.68 215.03,-533.52"/>
<polygon fill="midnightblue" stroke="midnightblue" points="202.47,-559.88 202.61,-570.48 209.11,-562.11 202.47,-559.88"/>
</g>
<!-- Node26 -->
<g id="node26" class="node">
<title>Node26</title>
<g id="a_node26"><a xlink:href="jwt__auth_8cpp.html" target="_top" xlink:title=" ">
<polygon fill="white" stroke="black" points="30.24,-626.5 30.24,-656.5 185.24,-656.5 185.24,-626.5 30.24,-626.5"/>
<text text-anchor="start" x="38.24" y="-644.5" font-family="Helvetica,sans-Serif" font-size="10.00">src/endpoints/authentication</text>
<text text-anchor="middle" x="107.74" y="-633.5" font-family="Helvetica,sans-Serif" font-size="10.00">/jwt_auth.cpp</text>
</a>
</g>
</g>
<!-- Node25&#45;&gt;Node26 -->
<g id="edge37" class="edge">
<title>Node25&#45;&gt;Node26</title>
<path fill="none" stroke="midnightblue" d="M107.74,-683.23C107.74,-674.59 107.74,-664.5 107.74,-656.52"/>
<polygon fill="midnightblue" stroke="midnightblue" points="104.24,-683.48 107.74,-693.48 111.24,-683.48 104.24,-683.48"/>
</g>
<!-- Node27 -->
<g id="node27" class="node">
<title>Node27</title>
<g id="a_node27"><a xlink:href="frontend_8h.html" target="_top" xlink:title=" ">
<polygon fill="white" stroke="black" points="150.24,-375 150.24,-394 279.24,-394 279.24,-375 150.24,-375"/>
<text text-anchor="middle" x="214.74" y="-382" font-family="Helvetica,sans-Serif" font-size="10.00">src/node/rpc/frontend.h</text>
</a>
</g>
</g>
<!-- Node25&#45;&gt;Node27 -->
<g id="edge38" class="edge">
<title>Node25&#45;&gt;Node27</title>
<path fill="none" stroke="midnightblue" d="M67.72,-689.64C50.96,-682.58 32.65,-672.05 20.74,-657 -0.86,-629.69 1.74,-615.82 1.74,-581 1.74,-581 1.74,-581 1.74,-517.5 1.74,-480.31 -5.22,-462.63 20.74,-436 39.45,-416.81 105.85,-402.43 155.8,-394.02"/>
<polygon fill="midnightblue" stroke="midnightblue" points="66.76,-693.03 77.35,-693.41 69.31,-686.51 66.76,-693.03"/>
</g>
<!-- Node27&#45;&gt;Node8 -->
<g id="edge42" class="edge">
<title>Node27&#45;&gt;Node8</title>
<path fill="none" stroke="midnightblue" d="M238.16,-369.73C254.19,-360.02 275.72,-346.4 293.74,-333 347.35,-293.13 348,-264.93 407.74,-235 459.72,-208.96 525.05,-196.23 572.26,-190.09"/>
<polygon fill="midnightblue" stroke="midnightblue" points="236.2,-366.83 229.42,-374.97 239.8,-372.83 236.2,-366.83"/>
</g>
<!-- Node27&#45;&gt;Node13 -->
<g id="edge45" class="edge">
<title>Node27&#45;&gt;Node13</title>
<path fill="none" stroke="midnightblue" d="M256.52,-372.32C304.51,-359.49 382.18,-338.71 425.65,-327.08"/>
<polygon fill="midnightblue" stroke="midnightblue" points="255.51,-368.97 246.76,-374.94 257.32,-375.73 255.51,-368.97"/>
</g>
<!-- Node28 -->
<g id="node28" class="node">
<title>Node28</title>
<g id="a_node28"><a xlink:href="acme__challenge__frontend_8h.html" target="_top" xlink:title=" ">
<polygon fill="white" stroke="black" points="144.74,-302.5 144.74,-332.5 284.74,-332.5 284.74,-302.5 144.74,-302.5"/>
<text text-anchor="start" x="152.74" y="-320.5" font-family="Helvetica,sans-Serif" font-size="10.00">src/node/acme_challenge</text>
<text text-anchor="middle" x="214.74" y="-309.5" font-family="Helvetica,sans-Serif" font-size="10.00">_frontend.h</text>
</a>
</g>
</g>
<!-- Node27&#45;&gt;Node28 -->
<g id="edge39" class="edge">
<title>Node27&#45;&gt;Node28</title>
<path fill="none" stroke="midnightblue" d="M214.74,-364.41C214.74,-354.22 214.74,-341.9 214.74,-332.59"/>
<polygon fill="midnightblue" stroke="midnightblue" points="211.24,-364.73 214.74,-374.73 218.24,-364.73 211.24,-364.73"/>
</g>
<!-- Node29 -->
<g id="node29" class="node">
<title>Node29</title>
<g id="a_node29"><a xlink:href="member__frontend_8h.html" target="_top" xlink:title=" ">
<polygon fill="white" stroke="black" points="111.74,-168.5 111.74,-198.5 231.74,-198.5 231.74,-168.5 111.74,-168.5"/>
<text text-anchor="start" x="119.74" y="-186.5" font-family="Helvetica,sans-Serif" font-size="10.00">src/node/rpc/member</text>
<text text-anchor="middle" x="171.74" y="-175.5" font-family="Helvetica,sans-Serif" font-size="10.00">_frontend.h</text>
</a>
</g>
</g>
<!-- Node27&#45;&gt;Node29 -->
<g id="edge43" class="edge">
<title>Node27&#45;&gt;Node29</title>
<path fill="none" stroke="midnightblue" d="M179.98,-370.64C163.43,-362.54 145.22,-350.31 135.74,-333 111.15,-288.09 144.1,-226.49 161.8,-198.9"/>
<polygon fill="midnightblue" stroke="midnightblue" points="178.9,-373.99 189.46,-374.93 181.79,-367.61 178.9,-373.99"/>
</g>
<!-- Node30 -->
<g id="node30" class="node">
<title>Node30</title>
<g id="a_node30"><a xlink:href="user__frontend_8h.html" target="_top" xlink:title=" ">
<polygon fill="white" stroke="black" points="12.24,-112.5 12.24,-131.5 167.24,-131.5 167.24,-112.5 12.24,-112.5"/>
<text text-anchor="middle" x="89.74" y="-119.5" font-family="Helvetica,sans-Serif" font-size="10.00">src/node/rpc/user_frontend.h</text>
</a>
</g>
</g>
<!-- Node27&#45;&gt;Node30 -->
<g id="edge46" class="edge">
<title>Node27&#45;&gt;Node30</title>
<path fill="none" stroke="midnightblue" d="M175.96,-371.09C157.3,-363.13 136.3,-350.88 123.74,-333 77.67,-267.42 85.27,-162.13 88.66,-131.57"/>
<polygon fill="midnightblue" stroke="midnightblue" points="174.86,-374.42 185.45,-374.87 177.45,-367.92 174.86,-374.42"/>
</g>
<!-- Node28&#45;&gt;Node5 -->
<g id="edge40" class="edge">
<title>Node28&#45;&gt;Node5</title>
<path fill="none" stroke="midnightblue" d="M227.51,-293.5C249,-255.19 294.21,-176.17 336.74,-112 345.3,-99.08 356.05,-84.73 362.91,-75.79"/>
<polygon fill="midnightblue" stroke="midnightblue" points="224.4,-291.9 222.58,-302.33 230.51,-295.31 224.4,-291.9"/>
</g>
<!-- Node28&#45;&gt;Node7 -->
<g id="edge41" class="edge">
<title>Node28&#45;&gt;Node7</title>
<path fill="none" stroke="midnightblue" d="M295.18,-304.91C363.3,-294.98 463.5,-280.08 550.74,-266 562.28,-264.14 574.7,-262.04 586.35,-260.04"/>
<polygon fill="midnightblue" stroke="midnightblue" points="294.35,-301.5 284.95,-306.4 295.35,-308.42 294.35,-301.5"/>
</g>
<!-- Node29&#45;&gt;Node5 -->
<g id="edge44" class="edge">
<title>Node29&#45;&gt;Node5</title>
<path fill="none" stroke="midnightblue" d="M191.71,-160.85C206.75,-145.56 228.52,-125.47 250.74,-112 278.32,-95.28 313.14,-82.99 337.98,-75.52"/>
<polygon fill="midnightblue" stroke="midnightblue" points="188.91,-158.72 184.49,-168.35 193.95,-163.58 188.91,-158.72"/>
</g>
<!-- Node30&#45;&gt;Node5 -->
<g id="edge47" class="edge">
<title>Node30&#45;&gt;Node5</title>
<path fill="none" stroke="midnightblue" d="M143.99,-110.54C196.91,-100.33 276.41,-85 325.58,-75.52"/>
<polygon fill="midnightblue" stroke="midnightblue" points="143.26,-107.11 134.11,-112.44 144.59,-113.99 143.26,-107.11"/>
</g>
<!-- Node31&#45;&gt;Node3 -->
<g id="edge49" class="edge">
<title>Node31&#45;&gt;Node3</title>
<path fill="none" stroke="midnightblue" d="M612.58,-629.54C658.78,-617.99 730.58,-600.04 772.7,-589.51"/>
<polygon fill="midnightblue" stroke="midnightblue" points="611.69,-626.15 602.84,-631.98 613.39,-632.95 611.69,-626.15"/>
</g>
<!-- Node31&#45;&gt;Node14 -->
<g id="edge50" class="edge">
<title>Node31&#45;&gt;Node14</title>
<path fill="none" stroke="midnightblue" d="M567.75,-621.95C566.56,-598.21 564.74,-555.81 564.74,-519.5 564.74,-519.5 564.74,-519.5 564.74,-383.5 564.74,-346.31 565.92,-333.25 545.74,-302 535.88,-286.73 519.74,-274.26 505.88,-265.53"/>
<polygon fill="midnightblue" stroke="midnightblue" points="564.25,-622.19 568.27,-631.99 571.24,-621.83 564.25,-622.19"/>
</g>
<!-- Node32 -->
<g id="node32" class="node">
<title>Node32</title>
<g id="a_node32"><a xlink:href="forwarder_8h.html" target="_top" xlink:title=" ">
<polygon fill="white" stroke="black" points="315.74,-442 315.74,-461 449.74,-461 449.74,-442 315.74,-442"/>
<text text-anchor="middle" x="382.74" y="-449" font-family="Helvetica,sans-Serif" font-size="10.00">src/node/rpc/forwarder.h</text>
</a>
</g>
</g>
<!-- Node31&#45;&gt;Node32 -->
<g id="edge51" class="edge">
<title>Node31&#45;&gt;Node32</title>
<path fill="none" stroke="midnightblue" d="M553.13,-624.72C515.41,-586.6 420.27,-490.43 391.27,-461.12"/>
<polygon fill="midnightblue" stroke="midnightblue" points="550.74,-627.29 560.26,-631.93 555.72,-622.36 550.74,-627.29"/>
</g>
<!-- Node32&#45;&gt;Node5 -->
<g id="edge52" class="edge">
<title>Node32&#45;&gt;Node5</title>
<path fill="none" stroke="midnightblue" d="M375.44,-432.36C365.99,-407.23 350.74,-360.18 350.74,-318.5 350.74,-318.5 350.74,-318.5 350.74,-182.5 350.74,-142.06 362.22,-94.7 367.33,-75.61"/>
<polygon fill="midnightblue" stroke="midnightblue" points="372.19,-433.66 379.07,-441.72 378.71,-431.13 372.19,-433.66"/>
</g>
<!-- Node32&#45;&gt;Node27 -->
<g id="edge53" class="edge">
<title>Node32&#45;&gt;Node27</title>
<path fill="none" stroke="midnightblue" d="M350.7,-438.1C317.35,-425.2 265.99,-405.33 236.87,-394.06"/>
<polygon fill="midnightblue" stroke="midnightblue" points="349.84,-441.52 360.43,-441.87 352.37,-435 349.84,-441.52"/>
</g>
<!-- Node33&#45;&gt;Node20 -->
<g id="edge55" class="edge">
<title>Node33&#45;&gt;Node20</title>
<path fill="none" stroke="midnightblue" d="M411.8,-690.48C379.85,-680.78 334.02,-666.87 299.93,-656.52"/>
<polygon fill="midnightblue" stroke="midnightblue" points="411.07,-693.92 421.66,-693.48 413.11,-687.22 411.07,-693.92"/>
</g>
<!-- Node33&#45;&gt;Node31 -->
<g id="edge57" class="edge">
<title>Node33&#45;&gt;Node31</title>
<path fill="none" stroke="midnightblue" d="M476.01,-688.87C499.07,-677.33 531.94,-660.9 551.72,-651.01"/>
<polygon fill="midnightblue" stroke="midnightblue" points="474.17,-685.87 466.79,-693.48 477.3,-692.13 474.17,-685.87"/>
</g>
<!-- Node34 -->
<g id="node34" class="node">
<title>Node34</title>
<g id="a_node34"><a xlink:href="sig__auth_8cpp.html" target="_top" xlink:title=" ">
<polygon fill="white" stroke="black" points="322.24,-626.5 322.24,-656.5 477.24,-656.5 477.24,-626.5 322.24,-626.5"/>
<text text-anchor="start" x="330.24" y="-644.5" font-family="Helvetica,sans-Serif" font-size="10.00">src/endpoints/authentication</text>
<text text-anchor="middle" x="399.74" y="-633.5" font-family="Helvetica,sans-Serif" font-size="10.00">/sig_auth.cpp</text>
</a>
</g>
</g>
<!-- Node33&#45;&gt;Node34 -->
<g id="edge56" class="edge">
<title>Node33&#45;&gt;Node34</title>
<path fill="none" stroke="midnightblue" d="M436.14,-685.81C428.44,-676.65 418.9,-665.3 411.52,-656.52"/>
<polygon fill="midnightblue" stroke="midnightblue" points="433.46,-688.07 442.58,-693.48 438.82,-683.57 433.46,-688.07"/>
</g>
<!-- Node35&#45;&gt;Node7 -->
<g id="edge59" class="edge">
<title>Node35&#45;&gt;Node7</title>
<path fill="none" stroke="midnightblue" d="M645.14,-562.23C628.9,-538.91 602.74,-494.78 602.74,-452.5 602.74,-452.5 602.74,-452.5 602.74,-383.5 602.74,-335.87 622.66,-281.22 631.07,-260.28"/>
<polygon fill="midnightblue" stroke="midnightblue" points="642.31,-564.3 651,-570.36 647.99,-560.2 642.31,-564.3"/>
</g>
<!-- Node36&#45;&gt;Node19 -->
<g id="edge61" class="edge">
<title>Node36&#45;&gt;Node19</title>
<path fill="none" stroke="midnightblue" d="M568.74,-806.32C568.74,-795.5 568.74,-782.4 568.74,-774.01"/>
<polygon fill="midnightblue" stroke="midnightblue" points="565.24,-806.48 568.74,-816.48 572.24,-806.48 565.24,-806.48"/>
</g>
<!-- Node38 -->
<g id="node38" class="node">
<title>Node38</title>
<g id="a_node38"><a xlink:href="host_2main_8cpp.html" target="_top" xlink:title=" ">
<polygon fill="white" stroke="black" points="831.24,-816.5 831.24,-835.5 934.24,-835.5 934.24,-816.5 831.24,-816.5"/>
<text text-anchor="middle" x="882.74" y="-823.5" font-family="Helvetica,sans-Serif" font-size="10.00">src/host/main.cpp</text>
</a>
</g>
</g>
<!-- Node37&#45;&gt;Node38 -->
<g id="edge63" class="edge">
<title>Node37&#45;&gt;Node38</title>
<path fill="none" stroke="midnightblue" d="M882.74,-861.8C882.74,-852.91 882.74,-842.78 882.74,-835.75"/>
<polygon fill="midnightblue" stroke="midnightblue" points="879.24,-862.08 882.74,-872.08 886.24,-862.08 879.24,-862.08"/>
</g>
</g>
</svg>
