<?xml version="1.0" encoding="UTF-8" standalone="no"?>
<!DOCTYPE svg PUBLIC "-//W3C//DTD SVG 1.1//EN"
 "http://www.w3.org/Graphics/SVG/1.1/DTD/svg11.dtd">
<!-- Generated by graphviz version 2.43.0 (0)
 -->
<!-- Title: src/enclave/tls_endpoint.h Pages: 1 -->
<!--zoomable 889 -->
<svg id="main" version="1.1" xmlns="http://www.w3.org/2000/svg" xmlns:xlink="http://www.w3.org/1999/xlink" xml:space="preserve" onload="init(evt)">
<style type="text/css"><![CDATA[
.edge:hover path { stroke: red; }
.edge:hover polygon { stroke: red; fill: red; }
]]></style>
<script type="text/javascript"><![CDATA[
var edges = document.getElementsByTagName('g');
if (edges && edges.length) {
  for (var i=0;i<edges.length;i++) {
    if (edges[i].id.substr(0,4)=='edge') {
      edges[i].setAttribute('class','edge');
    }
  }
}
]]></script>
        <defs>
                <circle id="rim" cx="0" cy="0" r="7"/>
                <circle id="rim2" cx="0" cy="0" r="3.5"/>
                <g id="zoomPlus">
                        <use xlink:href="#rim" fill="#404040">
                                <set attributeName="fill" to="#808080" begin="zoomplus.mouseover" end="zoomplus.mouseout"/>
                        </use>
                        <path d="M-4,0h8M0,-4v8" fill="none" stroke="white" stroke-width="1.5" pointer-events="none"/>
                </g>
                <g id="zoomMin">
                        <use xlink:href="#rim" fill="#404040">
                                <set attributeName="fill" to="#808080" begin="zoomminus.mouseover" end="zoomminus.mouseout"/>
                        </use>
                        <path d="M-4,0h8" fill="none" stroke="white" stroke-width="1.5" pointer-events="none"/>
                </g>
                <g id="dirArrow">
                        <path fill="none" stroke="white" stroke-width="1.5" d="M0,-3.0v7 M-2.5,-0.5L0,-3.0L2.5,-0.5"/>
                </g>
               <g id="resetDef">
                       <use xlink:href="#rim2" fill="#404040">
                               <set attributeName="fill" to="#808080" begin="reset.mouseover" end="reset.mouseout"/>
                       </use>
               </g>
        </defs>

<script type="text/javascript">
var viewWidth = 1115;
var viewHeight = 889;
var sectionId = 'dynsection-1';
</script>
<script xlink:href="svgpan.js"/>
<svg id="graph" class="graph">
<g id="viewport">
<title>src/enclave/tls_endpoint.h</title>
<polygon fill="white" stroke="transparent" points="-4,4 -4,-885 1110.5,-885 1110.5,4 -4,4"/>
<!-- Node1 -->
<g id="node1" class="node">
<title>Node1</title>
<g id="a_node1"><a xlink:title=" ">
<polygon fill="#bfbfbf" stroke="black" points="455.5,-861.5 455.5,-880.5 599.5,-880.5 599.5,-861.5 455.5,-861.5"/>
<text text-anchor="middle" x="527.5" y="-868.5" font-family="Helvetica,sans-Serif" font-size="10.00">src/enclave/tls_endpoint.h</text>
</a>
</g>
</g>
<!-- Node2 -->
<g id="node2" class="node">
<title>Node2</title>
<g id="a_node2"><a xlink:href="http__parser_8h.html" target="_top" xlink:title=" ">
<polygon fill="white" stroke="black" points="467.5,-749.5 467.5,-768.5 587.5,-768.5 587.5,-749.5 467.5,-749.5"/>
<text text-anchor="middle" x="527.5" y="-756.5" font-family="Helvetica,sans-Serif" font-size="10.00">src/http/http_parser.h</text>
</a>
</g>
</g>
<!-- Node1&#45;&gt;Node2 -->
<g id="edge1" class="edge">
<title>Node1&#45;&gt;Node2</title>
<path fill="none" stroke="midnightblue" d="M516.08,-852.44C511.52,-844.42 506.81,-834.58 504.5,-825 499.51,-804.28 512.58,-780.95 521.01,-768.66"/>
<polygon fill="midnightblue" stroke="midnightblue" points="513.21,-854.46 521.4,-861.19 519.19,-850.83 513.21,-854.46"/>
</g>
<!-- Node34 -->
<g id="node34" class="node">
<title>Node34</title>
<g id="a_node34"><a xlink:href="http__proc_8h.html" target="_top" xlink:title=" ">
<polygon fill="white" stroke="black" points="514,-805.5 514,-824.5 625,-824.5 625,-805.5 514,-805.5"/>
<text text-anchor="middle" x="569.5" y="-812.5" font-family="Helvetica,sans-Serif" font-size="10.00">src/http/http_proc.h</text>
</a>
</g>
</g>
<!-- Node1&#45;&gt;Node34 -->
<g id="edge57" class="edge">
<title>Node1&#45;&gt;Node34</title>
<path fill="none" stroke="midnightblue" d="M540.61,-853.14C547.93,-843.74 556.74,-832.4 562.69,-824.75"/>
<polygon fill="midnightblue" stroke="midnightblue" points="537.81,-851.04 534.44,-861.08 543.34,-855.34 537.81,-851.04"/>
</g>
<!-- Node3 -->
<g id="node3" class="node">
<title>Node3</title>
<g id="a_node3"><a xlink:href="rpc__tls__client_8h.html" target="_top" xlink:title=" ">
<polygon fill="white" stroke="black" points="101,-626.5 101,-656.5 202,-656.5 202,-626.5 101,-626.5"/>
<text text-anchor="start" x="109" y="-644.5" font-family="Helvetica,sans-Serif" font-size="10.00">src/clients/rpc_tls</text>
<text text-anchor="middle" x="151.5" y="-633.5" font-family="Helvetica,sans-Serif" font-size="10.00">_client.h</text>
</a>
</g>
</g>
<!-- Node2&#45;&gt;Node3 -->
<g id="edge2" class="edge">
<title>Node2&#45;&gt;Node3</title>
<path fill="none" stroke="midnightblue" d="M457.1,-749.15C410.7,-742.13 349.03,-730.55 296.5,-713 252.03,-698.14 203.68,-672.55 175.56,-656.62"/>
<polygon fill="midnightblue" stroke="midnightblue" points="456.65,-752.62 467.05,-750.62 457.67,-745.69 456.65,-752.62"/>
</g>
<!-- Node8 -->
<g id="node8" class="node">
<title>Node8</title>
<g id="a_node8"><a xlink:href="http__endpoint_8h.html" target="_top" xlink:title=" ">
<polygon fill="white" stroke="black" points="714,-570.5 714,-589.5 847,-589.5 847,-570.5 714,-570.5"/>
<text text-anchor="middle" x="780.5" y="-577.5" font-family="Helvetica,sans-Serif" font-size="10.00">src/http/http_endpoint.h</text>
</a>
</g>
</g>
<!-- Node2&#45;&gt;Node8 -->
<g id="edge8" class="edge">
<title>Node2&#45;&gt;Node8</title>
<path fill="none" stroke="midnightblue" d="M589.24,-747.2C642.52,-734.64 717.63,-708.64 761.5,-657 778.23,-637.31 780.59,-604.98 780.7,-589.62"/>
<polygon fill="midnightblue" stroke="midnightblue" points="588.2,-743.84 579.22,-749.46 589.75,-750.67 588.2,-743.84"/>
</g>
<!-- Node23 -->
<g id="node23" class="node">
<title>Node23</title>
<g id="a_node23"><a xlink:href="http__jwt_8h.html" target="_top" xlink:title=" ">
<polygon fill="white" stroke="black" points="516,-693.5 516,-712.5 621,-712.5 621,-693.5 516,-693.5"/>
<text text-anchor="middle" x="568.5" y="-700.5" font-family="Helvetica,sans-Serif" font-size="10.00">src/http/http_jwt.h</text>
</a>
</g>
</g>
<!-- Node2&#45;&gt;Node23 -->
<g id="edge33" class="edge">
<title>Node2&#45;&gt;Node23</title>
<path fill="none" stroke="midnightblue" d="M540.52,-740.86C547.62,-731.5 556.1,-720.33 561.86,-712.75"/>
<polygon fill="midnightblue" stroke="midnightblue" points="537.53,-739 534.27,-749.08 543.11,-743.24 537.53,-739"/>
</g>
<!-- Node29 -->
<g id="node29" class="node">
<title>Node29</title>
<g id="a_node29"><a xlink:href="http__rpc__context_8h.html" target="_top" xlink:title=" ">
<polygon fill="white" stroke="black" points="393,-632 393,-651 540,-651 540,-632 393,-632"/>
<text text-anchor="middle" x="466.5" y="-639" font-family="Helvetica,sans-Serif" font-size="10.00">src/http/http_rpc_context.h</text>
</a>
</g>
</g>
<!-- Node2&#45;&gt;Node29 -->
<g id="edge45" class="edge">
<title>Node2&#45;&gt;Node29</title>
<path fill="none" stroke="midnightblue" d="M518.09,-740.18C504.82,-715.06 481.12,-670.19 471.14,-651.28"/>
<polygon fill="midnightblue" stroke="midnightblue" points="515.15,-742.11 522.92,-749.32 521.34,-738.84 515.15,-742.11"/>
</g>
<!-- Node31 -->
<g id="node31" class="node">
<title>Node31</title>
<g id="a_node31"><a xlink:href="http__sig_8h.html" target="_top" xlink:title=" ">
<polygon fill="white" stroke="black" points="305.5,-693.5 305.5,-712.5 409.5,-712.5 409.5,-693.5 305.5,-693.5"/>
<text text-anchor="middle" x="357.5" y="-700.5" font-family="Helvetica,sans-Serif" font-size="10.00">src/http/http_sig.h</text>
</a>
</g>
</g>
<!-- Node2&#45;&gt;Node31 -->
<g id="edge51" class="edge">
<title>Node2&#45;&gt;Node31</title>
<path fill="none" stroke="midnightblue" d="M490.68,-746.3C458.65,-736.13 412.98,-721.62 384.31,-712.52"/>
<polygon fill="midnightblue" stroke="midnightblue" points="489.97,-749.75 500.56,-749.44 492.09,-743.08 489.97,-749.75"/>
</g>
<!-- Node33 -->
<g id="node33" class="node">
<title>Node33</title>
<g id="a_node33"><a xlink:href="acme__client_8h.html" target="_top" xlink:title=" ">
<polygon fill="white" stroke="black" points="940,-570.5 940,-589.5 1069,-589.5 1069,-570.5 940,-570.5"/>
<text text-anchor="middle" x="1004.5" y="-577.5" font-family="Helvetica,sans-Serif" font-size="10.00">src/node/acme_client.h</text>
</a>
</g>
</g>
<!-- Node2&#45;&gt;Node33 -->
<g id="edge55" class="edge">
<title>Node2&#45;&gt;Node33</title>
<path fill="none" stroke="midnightblue" d="M583.99,-747.46C621.75,-739.69 672.24,-727.9 715.5,-713 823.46,-675.82 945.78,-612.46 988.65,-589.57"/>
<polygon fill="midnightblue" stroke="midnightblue" points="583.29,-744.03 574.18,-749.44 584.68,-750.89 583.29,-744.03"/>
</g>
<!-- Node4 -->
<g id="node4" class="node">
<title>Node4</title>
<g id="a_node4"><a xlink:href="perf__client_8h.html" target="_top" xlink:title=" ">
<polygon fill="white" stroke="black" points="44,-503.5 44,-533.5 155,-533.5 155,-503.5 44,-503.5"/>
<text text-anchor="start" x="52" y="-521.5" font-family="Helvetica,sans-Serif" font-size="10.00">src/clients/perf/perf</text>
<text text-anchor="middle" x="99.5" y="-510.5" font-family="Helvetica,sans-Serif" font-size="10.00">_client.h</text>
</a>
</g>
</g>
<!-- Node3&#45;&gt;Node4 -->
<g id="edge3" class="edge">
<title>Node3&#45;&gt;Node4</title>
<path fill="none" stroke="midnightblue" d="M154.18,-615.99C154.73,-601.98 153.72,-584.38 147.5,-570 141.26,-555.57 128.98,-542.77 118.4,-533.67"/>
<polygon fill="midnightblue" stroke="midnightblue" points="150.66,-616.12 153.47,-626.34 157.64,-616.6 150.66,-616.12"/>
</g>
<!-- Node7 -->
<g id="node7" class="node">
<title>Node7</title>
<g id="a_node7"><a xlink:href="timing_8h.html" target="_top" xlink:title=" ">
<polygon fill="white" stroke="black" points="6.5,-570.5 6.5,-589.5 138.5,-589.5 138.5,-570.5 6.5,-570.5"/>
<text text-anchor="middle" x="72.5" y="-577.5" font-family="Helvetica,sans-Serif" font-size="10.00">src/clients/perf/timing.h</text>
</a>
</g>
</g>
<!-- Node3&#45;&gt;Node7 -->
<g id="edge6" class="edge">
<title>Node3&#45;&gt;Node7</title>
<path fill="none" stroke="midnightblue" d="M124.53,-620.19C110.7,-609.77 94.58,-597.63 84,-589.66"/>
<polygon fill="midnightblue" stroke="midnightblue" points="122.68,-623.18 132.78,-626.4 126.9,-617.59 122.68,-623.18"/>
</g>
<!-- Node5 -->
<g id="node5" class="node">
<title>Node5</title>
<g id="a_node5"><a xlink:href="tpcc__client_8cpp.html" target="_top" xlink:title=" ">
<polygon fill="white" stroke="black" points="151.5,-436.5 151.5,-466.5 267.5,-466.5 267.5,-436.5 151.5,-436.5"/>
<text text-anchor="start" x="159.5" y="-454.5" font-family="Helvetica,sans-Serif" font-size="10.00">src/apps/tpcc/clients</text>
<text text-anchor="middle" x="209.5" y="-443.5" font-family="Helvetica,sans-Serif" font-size="10.00">/tpcc_client.cpp</text>
</a>
</g>
</g>
<!-- Node4&#45;&gt;Node5 -->
<g id="edge4" class="edge">
<title>Node4&#45;&gt;Node5</title>
<path fill="none" stroke="midnightblue" d="M132,-498.3C149.21,-488.12 169.98,-475.85 185.68,-466.58"/>
<polygon fill="midnightblue" stroke="midnightblue" points="130.2,-495.3 123.37,-503.4 133.76,-501.32 130.2,-495.3"/>
</g>
<!-- Node6 -->
<g id="node6" class="node">
<title>Node6</title>
<g id="a_node6"><a xlink:href="scenario__perf__client_8cpp.html" target="_top" xlink:title=" ">
<polygon fill="white" stroke="black" points="0,-436.5 0,-466.5 133,-466.5 133,-436.5 0,-436.5"/>
<text text-anchor="start" x="8" y="-454.5" font-family="Helvetica,sans-Serif" font-size="10.00">src/clients/perf/scenario</text>
<text text-anchor="middle" x="66.5" y="-443.5" font-family="Helvetica,sans-Serif" font-size="10.00">_perf_client.cpp</text>
</a>
</g>
</g>
<!-- Node4&#45;&gt;Node6 -->
<g id="edge5" class="edge">
<title>Node4&#45;&gt;Node6</title>
<path fill="none" stroke="midnightblue" d="M87.71,-494.28C83.01,-485.02 77.75,-474.66 73.65,-466.58"/>
<polygon fill="midnightblue" stroke="midnightblue" points="84.69,-496.06 92.34,-503.4 90.93,-492.89 84.69,-496.06"/>
</g>
<!-- Node7&#45;&gt;Node4 -->
<g id="edge7" class="edge">
<title>Node7&#45;&gt;Node4</title>
<path fill="none" stroke="midnightblue" d="M80.62,-561.1C84.63,-552.27 89.4,-541.77 93.14,-533.52"/>
<polygon fill="midnightblue" stroke="midnightblue" points="77.31,-559.92 76.37,-570.48 83.69,-562.82 77.31,-559.92"/>
</g>
<!-- Node9 -->
<g id="node9" class="node">
<title>Node9</title>
<g id="a_node9"><a xlink:href="rpc__sessions_8h.html" target="_top" xlink:title=" ">
<polygon fill="white" stroke="black" points="828.5,-509 828.5,-528 974.5,-528 974.5,-509 828.5,-509"/>
<text text-anchor="middle" x="901.5" y="-516" font-family="Helvetica,sans-Serif" font-size="10.00">src/enclave/rpc_sessions.h</text>
</a>
</g>
</g>
<!-- Node8&#45;&gt;Node9 -->
<g id="edge9" class="edge">
<title>Node8&#45;&gt;Node9</title>
<path fill="none" stroke="midnightblue" d="M806.89,-566.02C830.36,-554.48 863.99,-537.94 884.2,-528.01"/>
<polygon fill="midnightblue" stroke="midnightblue" points="805.27,-562.92 797.84,-570.48 808.35,-569.2 805.27,-562.92"/>
</g>
<!-- Node10 -->
<g id="node10" class="node">
<title>Node10</title>
<g id="a_node10"><a xlink:href="enclave_2enclave_8h.html" target="_top" xlink:title=" ">
<polygon fill="white" stroke="black" points="280.5,-56.5 280.5,-75.5 402.5,-75.5 402.5,-56.5 280.5,-56.5"/>
<text text-anchor="middle" x="341.5" y="-63.5" font-family="Helvetica,sans-Serif" font-size="10.00">src/enclave/enclave.h</text>
</a>
</g>
</g>
<!-- Node9&#45;&gt;Node10 -->
<g id="edge10" class="edge">
<title>Node9&#45;&gt;Node10</title>
<path fill="none" stroke="midnightblue" d="M938.92,-505.33C959.45,-497.14 984.17,-484.58 1001.5,-467 1076.3,-391.13 1106.5,-358.04 1106.5,-251.5 1106.5,-251.5 1106.5,-251.5 1106.5,-182.5 1106.5,-111.48 584.34,-78.97 402.81,-69.82"/>
<polygon fill="midnightblue" stroke="midnightblue" points="937.64,-502.08 929.53,-508.9 940.12,-508.62 937.64,-502.08"/>
</g>
<!-- Node12 -->
<g id="node12" class="node">
<title>Node12</title>
<g id="a_node12"><a xlink:href="ccf__acme__client_8h.html" target="_top" xlink:title=" ">
<polygon fill="white" stroke="black" points="930,-241 930,-260 1079,-260 1079,-241 930,-241"/>
<text text-anchor="middle" x="1004.5" y="-248" font-family="Helvetica,sans-Serif" font-size="10.00">src/node/ccf_acme_client.h</text>
</a>
</g>
</g>
<!-- Node9&#45;&gt;Node12 -->
<g id="edge12" class="edge">
<title>Node9&#45;&gt;Node12</title>
<path fill="none" stroke="midnightblue" d="M934.8,-504.51C951.31,-496.3 969.93,-483.99 980.5,-467 1023.65,-397.64 1010.89,-291.02 1006,-260.15"/>
<polygon fill="midnightblue" stroke="midnightblue" points="932.99,-501.49 925.4,-508.88 935.94,-507.84 932.99,-501.49"/>
</g>
<!-- Node13 -->
<g id="node13" class="node">
<title>Node13</title>
<g id="a_node13"><a xlink:href="node__state_8h.html" target="_top" xlink:title=" ">
<polygon fill="white" stroke="black" points="588.5,-174 588.5,-193 712.5,-193 712.5,-174 588.5,-174"/>
<text text-anchor="middle" x="650.5" y="-181" font-family="Helvetica,sans-Serif" font-size="10.00">src/node/node_state.h</text>
</a>
</g>
</g>
<!-- Node9&#45;&gt;Node13 -->
<g id="edge30" class="edge">
<title>Node9&#45;&gt;Node13</title>
<path fill="none" stroke="midnightblue" d="M907.64,-499.21C923.45,-448.3 959.22,-304.17 883.5,-235 858.86,-212.49 772.82,-198.3 712.5,-190.88"/>
<polygon fill="midnightblue" stroke="midnightblue" points="904.27,-498.25 904.54,-508.84 910.94,-500.4 904.27,-498.25"/>
</g>
<!-- Node15 -->
<g id="node15" class="node">
<title>Node15</title>
<g id="a_node15"><a xlink:href="node__client_8h.html" target="_top" xlink:title=" ">
<polygon fill="white" stroke="black" points="773.5,-442 773.5,-461 899.5,-461 899.5,-442 773.5,-442"/>
<text text-anchor="middle" x="836.5" y="-449" font-family="Helvetica,sans-Serif" font-size="10.00">src/node/node_client.h</text>
</a>
</g>
</g>
<!-- Node9&#45;&gt;Node15 -->
<g id="edge17" class="edge">
<title>Node9&#45;&gt;Node15</title>
<path fill="none" stroke="midnightblue" d="M885.5,-501.5C872.75,-488.75 855.39,-471.39 845.13,-461.13"/>
<polygon fill="midnightblue" stroke="midnightblue" points="883.19,-504.14 892.73,-508.73 888.14,-499.19 883.19,-504.14"/>
</g>
<!-- Node22 -->
<g id="node22" class="node">
<title>Node22</title>
<g id="a_node22"><a xlink:href="resharing_8h.html" target="_top" xlink:title=" ">
<polygon fill="white" stroke="black" points="592.5,-241 592.5,-260 708.5,-260 708.5,-241 592.5,-241"/>
<text text-anchor="middle" x="650.5" y="-248" font-family="Helvetica,sans-Serif" font-size="10.00">src/node/resharing.h</text>
</a>
</g>
</g>
<!-- Node9&#45;&gt;Node22 -->
<g id="edge31" class="edge">
<title>Node9&#45;&gt;Node22</title>
<path fill="none" stroke="midnightblue" d="M818.01,-511.81C743.66,-501.8 638.92,-474.44 587.5,-400 579.67,-388.66 581.97,-381.62 587.5,-369 596.96,-347.39 614.05,-353.04 626.5,-333 641.29,-309.19 647.35,-275.83 649.49,-260.21"/>
<polygon fill="midnightblue" stroke="midnightblue" points="817.93,-515.33 828.29,-513.11 818.81,-508.39 817.93,-515.33"/>
</g>
<!-- Node11 -->
<g id="node11" class="node">
<title>Node11</title>
<g id="a_node11"><a xlink:href="enclave_2main_8cpp.html" target="_top" xlink:title=" ">
<polygon fill="white" stroke="black" points="281.5,-0.5 281.5,-19.5 401.5,-19.5 401.5,-0.5 281.5,-0.5"/>
<text text-anchor="middle" x="341.5" y="-7.5" font-family="Helvetica,sans-Serif" font-size="10.00">src/enclave/main.cpp</text>
</a>
</g>
</g>
<!-- Node10&#45;&gt;Node11 -->
<g id="edge11" class="edge">
<title>Node10&#45;&gt;Node11</title>
<path fill="none" stroke="midnightblue" d="M341.5,-45.8C341.5,-36.91 341.5,-26.78 341.5,-19.75"/>
<polygon fill="midnightblue" stroke="midnightblue" points="338,-46.08 341.5,-56.08 345,-46.08 338,-46.08"/>
</g>
<!-- Node12&#45;&gt;Node13 -->
<g id="edge13" class="edge">
<title>Node12&#45;&gt;Node13</title>
<path fill="none" stroke="midnightblue" d="M947.95,-239.12C878.37,-226.34 761.56,-204.89 696.97,-193.03"/>
<polygon fill="midnightblue" stroke="midnightblue" points="947.39,-242.57 957.86,-240.94 948.65,-235.69 947.39,-242.57"/>
</g>
<!-- Node13&#45;&gt;Node10 -->
<g id="edge14" class="edge">
<title>Node13&#45;&gt;Node10</title>
<path fill="none" stroke="midnightblue" d="M635.6,-166.32C619.62,-150.01 592.72,-125.39 564.5,-112 513.11,-87.63 448.98,-76.43 402.7,-71.31"/>
<polygon fill="midnightblue" stroke="midnightblue" points="633.47,-169.17 642.91,-173.99 638.54,-164.34 633.47,-169.17"/>
</g>
<!-- Node14 -->
<g id="node14" class="node">
<title>Node14</title>
<g id="a_node14"><a xlink:href="gov__effects_8h.html" target="_top" xlink:title=" ">
<polygon fill="white" stroke="black" points="411.5,-112.5 411.5,-131.5 555.5,-131.5 555.5,-112.5 411.5,-112.5"/>
<text text-anchor="middle" x="483.5" y="-119.5" font-family="Helvetica,sans-Serif" font-size="10.00">src/node/rpc/gov_effects.h</text>
</a>
</g>
</g>
<!-- Node13&#45;&gt;Node14 -->
<g id="edge15" class="edge">
<title>Node13&#45;&gt;Node14</title>
<path fill="none" stroke="midnightblue" d="M617.05,-170.58C584.59,-159.02 536.13,-141.75 507.38,-131.51"/>
<polygon fill="midnightblue" stroke="midnightblue" points="615.98,-173.92 626.57,-173.98 618.33,-167.32 615.98,-173.92"/>
</g>
<!-- Node14&#45;&gt;Node10 -->
<g id="edge16" class="edge">
<title>Node14&#45;&gt;Node10</title>
<path fill="none" stroke="midnightblue" d="M451.34,-108.77C424.67,-98.63 387.43,-84.47 363.9,-75.52"/>
<polygon fill="midnightblue" stroke="midnightblue" points="450.41,-112.16 461,-112.44 452.9,-105.62 450.41,-112.16"/>
</g>
<!-- Node16 -->
<g id="node16" class="node">
<title>Node16</title>
<g id="a_node16"><a xlink:href="orc__requests_8h.html" target="_top" xlink:title=" ">
<polygon fill="white" stroke="black" points="597,-369.5 597,-399.5 716,-399.5 716,-369.5 597,-369.5"/>
<text text-anchor="start" x="605" y="-387.5" font-family="Helvetica,sans-Serif" font-size="10.00">src/consensus/aft/orc</text>
<text text-anchor="middle" x="656.5" y="-376.5" font-family="Helvetica,sans-Serif" font-size="10.00">_requests.h</text>
</a>
</g>
</g>
<!-- Node15&#45;&gt;Node16 -->
<g id="edge18" class="edge">
<title>Node15&#45;&gt;Node16</title>
<path fill="none" stroke="midnightblue" d="M802.84,-438.35C772.33,-427.33 727.37,-411.09 695.35,-399.53"/>
<polygon fill="midnightblue" stroke="midnightblue" points="802,-441.76 812.6,-441.87 804.38,-435.18 802,-441.76"/>
</g>
<!-- Node17 -->
<g id="node17" class="node">
<title>Node17</title>
<g id="a_node17"><a xlink:href="raft_8h.html" target="_top" xlink:title=" ">
<polygon fill="white" stroke="black" points="680,-308 680,-327 809,-327 809,-308 680,-308"/>
<text text-anchor="middle" x="744.5" y="-315" font-family="Helvetica,sans-Serif" font-size="10.00">src/consensus/aft/raft.h</text>
</a>
</g>
</g>
<!-- Node15&#45;&gt;Node17 -->
<g id="edge25" class="edge">
<title>Node15&#45;&gt;Node17</title>
<path fill="none" stroke="midnightblue" d="M807.55,-437.05C792.24,-428.51 774.41,-416.04 763.5,-400 747.89,-377.06 745,-342.98 744.53,-327.16"/>
<polygon fill="midnightblue" stroke="midnightblue" points="806.19,-440.29 816.67,-441.86 809.45,-434.1 806.19,-440.29"/>
</g>
<!-- Node20 -->
<g id="node20" class="node">
<title>Node20</title>
<g id="a_node20"><a xlink:href="http__node__client_8h.html" target="_top" xlink:title=" ">
<polygon fill="white" stroke="black" points="764.5,-235.5 764.5,-265.5 874.5,-265.5 874.5,-235.5 764.5,-235.5"/>
<text text-anchor="start" x="772.5" y="-253.5" font-family="Helvetica,sans-Serif" font-size="10.00">src/node/http_node</text>
<text text-anchor="middle" x="819.5" y="-242.5" font-family="Helvetica,sans-Serif" font-size="10.00">_client.h</text>
</a>
</g>
</g>
<!-- Node15&#45;&gt;Node20 -->
<g id="edge26" class="edge">
<title>Node15&#45;&gt;Node20</title>
<path fill="none" stroke="midnightblue" d="M868.18,-437.28C883.63,-429.01 900.73,-416.73 909.5,-400 915.9,-387.8 913.92,-382.05 909.5,-369 894.82,-325.68 857.04,-285.8 835.38,-265.51"/>
<polygon fill="midnightblue" stroke="midnightblue" points="866.26,-434.32 858.86,-441.91 869.37,-440.59 866.26,-434.32"/>
</g>
<!-- Node21 -->
<g id="node21" class="node">
<title>Node21</title>
<g id="a_node21"><a xlink:href="retired__nodes__cleanup_8h.html" target="_top" xlink:title=" ">
<polygon fill="white" stroke="black" points="772.5,-369.5 772.5,-399.5 900.5,-399.5 900.5,-369.5 772.5,-369.5"/>
<text text-anchor="start" x="780.5" y="-387.5" font-family="Helvetica,sans-Serif" font-size="10.00">src/node/retired_nodes</text>
<text text-anchor="middle" x="836.5" y="-376.5" font-family="Helvetica,sans-Serif" font-size="10.00">_cleanup.h</text>
</a>
</g>
</g>
<!-- Node15&#45;&gt;Node21 -->
<g id="edge28" class="edge">
<title>Node15&#45;&gt;Node21</title>
<path fill="none" stroke="midnightblue" d="M836.5,-431.41C836.5,-421.22 836.5,-408.9 836.5,-399.59"/>
<polygon fill="midnightblue" stroke="midnightblue" points="833,-431.73 836.5,-441.73 840,-431.73 833,-431.73"/>
</g>
<!-- Node16&#45;&gt;Node17 -->
<g id="edge19" class="edge">
<title>Node16&#45;&gt;Node17</title>
<path fill="none" stroke="midnightblue" d="M683.84,-363.31C700.36,-351.1 720.57,-336.18 732.98,-327.01"/>
<polygon fill="midnightblue" stroke="midnightblue" points="681.56,-360.64 675.59,-369.4 685.72,-366.27 681.56,-360.64"/>
</g>
<!-- Node18 -->
<g id="node18" class="node">
<title>Node18</title>
<g id="a_node18"><a xlink:href="node__frontend_8h.html" target="_top" xlink:title=" ">
<polygon fill="white" stroke="black" points="426.5,-308 426.5,-327 584.5,-327 584.5,-308 426.5,-308"/>
<text text-anchor="middle" x="505.5" y="-315" font-family="Helvetica,sans-Serif" font-size="10.00">src/node/rpc/node_frontend.h</text>
</a>
</g>
</g>
<!-- Node16&#45;&gt;Node18 -->
<g id="edge21" class="edge">
<title>Node16&#45;&gt;Node18</title>
<path fill="none" stroke="midnightblue" d="M614.21,-365.3C585.09,-352.76 547.74,-336.68 525.26,-327.01"/>
<polygon fill="midnightblue" stroke="midnightblue" points="613.17,-368.66 623.74,-369.4 615.93,-362.23 613.17,-368.66"/>
</g>
<!-- Node17&#45;&gt;Node13 -->
<g id="edge20" class="edge">
<title>Node17&#45;&gt;Node13</title>
<path fill="none" stroke="midnightblue" d="M741.61,-297.78C738.18,-280.25 731.12,-253.97 717.5,-235 704.25,-216.54 682.27,-201.82 667.12,-193.15"/>
<polygon fill="midnightblue" stroke="midnightblue" points="738.2,-298.63 743.37,-307.88 745.1,-297.43 738.2,-298.63"/>
</g>
<!-- Node18&#45;&gt;Node10 -->
<g id="edge22" class="edge">
<title>Node18&#45;&gt;Node10</title>
<path fill="none" stroke="midnightblue" d="M482.06,-302.46C468.35,-293.37 451.44,-280.54 439.5,-266 386.95,-202.02 353.54,-105.14 344.19,-75.75"/>
<polygon fill="midnightblue" stroke="midnightblue" points="480.22,-305.44 490.53,-307.88 483.99,-299.54 480.22,-305.44"/>
</g>
<!-- Node19 -->
<g id="node19" class="node">
<title>Node19</title>
<g id="a_node19"><a xlink:href="jwt__key__auto__refresh_8h.html" target="_top" xlink:title=" ">
<polygon fill="white" stroke="black" points="449,-235.5 449,-265.5 574,-265.5 574,-235.5 449,-235.5"/>
<text text-anchor="start" x="457" y="-253.5" font-family="Helvetica,sans-Serif" font-size="10.00">src/node/jwt_key_auto</text>
<text text-anchor="middle" x="511.5" y="-242.5" font-family="Helvetica,sans-Serif" font-size="10.00">_refresh.h</text>
</a>
</g>
</g>
<!-- Node18&#45;&gt;Node19 -->
<g id="edge23" class="edge">
<title>Node18&#45;&gt;Node19</title>
<path fill="none" stroke="midnightblue" d="M507.23,-297.74C508.18,-287.49 509.33,-275 510.2,-265.59"/>
<polygon fill="midnightblue" stroke="midnightblue" points="503.74,-297.45 506.31,-307.73 510.71,-298.1 503.74,-297.45"/>
</g>
<!-- Node19&#45;&gt;Node13 -->
<g id="edge24" class="edge">
<title>Node19&#45;&gt;Node13</title>
<path fill="none" stroke="midnightblue" d="M550.78,-231.13C577.53,-218.62 611.71,-202.64 632.31,-193.01"/>
<polygon fill="midnightblue" stroke="midnightblue" points="549.24,-227.99 541.66,-235.4 552.2,-234.33 549.24,-227.99"/>
</g>
<!-- Node20&#45;&gt;Node13 -->
<g id="edge27" class="edge">
<title>Node20&#45;&gt;Node13</title>
<path fill="none" stroke="midnightblue" d="M773.44,-231.78C740.67,-219.18 698.1,-202.81 672.62,-193.01"/>
<polygon fill="midnightblue" stroke="midnightblue" points="772.24,-235.07 782.83,-235.4 774.75,-228.54 772.24,-235.07"/>
</g>
<!-- Node21&#45;&gt;Node17 -->
<g id="edge29" class="edge">
<title>Node21&#45;&gt;Node17</title>
<path fill="none" stroke="midnightblue" d="M807.92,-363.31C790.64,-351.1 769.52,-336.18 756.54,-327.01"/>
<polygon fill="midnightblue" stroke="midnightblue" points="806.35,-366.48 816.54,-369.4 810.39,-360.77 806.35,-366.48"/>
</g>
<!-- Node22&#45;&gt;Node13 -->
<g id="edge32" class="edge">
<title>Node22&#45;&gt;Node13</title>
<path fill="none" stroke="midnightblue" d="M650.5,-230.54C650.5,-218.17 650.5,-202.62 650.5,-193.13"/>
<polygon fill="midnightblue" stroke="midnightblue" points="647,-230.73 650.5,-240.73 654,-230.73 647,-230.73"/>
</g>
<!-- Node24 -->
<g id="node24" class="node">
<title>Node24</title>
<g id="a_node24"><a xlink:href="jwt__auth_8cpp.html" target="_top" xlink:title=" ">
<polygon fill="white" stroke="black" points="597,-626.5 597,-656.5 752,-656.5 752,-626.5 597,-626.5"/>
<text text-anchor="start" x="605" y="-644.5" font-family="Helvetica,sans-Serif" font-size="10.00">src/endpoints/authentication</text>
<text text-anchor="middle" x="674.5" y="-633.5" font-family="Helvetica,sans-Serif" font-size="10.00">/jwt_auth.cpp</text>
</a>
</g>
</g>
<!-- Node23&#45;&gt;Node24 -->
<g id="edge34" class="edge">
<title>Node23&#45;&gt;Node24</title>
<path fill="none" stroke="midnightblue" d="M592.48,-688.54C609.49,-678.99 632.28,-666.2 649.52,-656.52"/>
<polygon fill="midnightblue" stroke="midnightblue" points="590.69,-685.53 583.69,-693.48 594.12,-691.63 590.69,-685.53"/>
</g>
<!-- Node25 -->
<g id="node25" class="node">
<title>Node25</title>
<g id="a_node25"><a xlink:href="frontend_8h.html" target="_top" xlink:title=" ">
<polygon fill="white" stroke="black" points="318,-375 318,-394 447,-394 447,-375 318,-375"/>
<text text-anchor="middle" x="382.5" y="-382" font-family="Helvetica,sans-Serif" font-size="10.00">src/node/rpc/frontend.h</text>
</a>
</g>
</g>
<!-- Node23&#45;&gt;Node25 -->
<g id="edge35" class="edge">
<title>Node23&#45;&gt;Node25</title>
<path fill="none" stroke="midnightblue" d="M565.01,-683.19C555.5,-636.43 525.26,-513.15 458.5,-436 442.33,-417.31 417.64,-402.65 400.83,-394.04"/>
<polygon fill="midnightblue" stroke="midnightblue" points="561.6,-683.98 566.95,-693.13 568.47,-682.64 561.6,-683.98"/>
</g>
<!-- Node25&#45;&gt;Node13 -->
<g id="edge39" class="edge">
<title>Node25&#45;&gt;Node13</title>
<path fill="none" stroke="midnightblue" d="M384.17,-364.84C388.03,-333.21 400.47,-269.2 439.5,-235 461.49,-215.73 534.41,-201.26 588.4,-192.85"/>
<polygon fill="midnightblue" stroke="midnightblue" points="380.68,-364.59 383.1,-374.91 387.64,-365.33 380.68,-364.59"/>
</g>
<!-- Node25&#45;&gt;Node18 -->
<g id="edge42" class="edge">
<title>Node25&#45;&gt;Node18</title>
<path fill="none" stroke="midnightblue" d="M407.85,-370.1C432.21,-357.23 468.3,-338.16 489.1,-327.17"/>
<polygon fill="midnightblue" stroke="midnightblue" points="406.04,-367.1 398.83,-374.87 409.31,-373.29 406.04,-367.1"/>
</g>
<!-- Node26 -->
<g id="node26" class="node">
<title>Node26</title>
<g id="a_node26"><a xlink:href="acme__challenge__frontend_8h.html" target="_top" xlink:title=" ">
<polygon fill="white" stroke="black" points="230.5,-302.5 230.5,-332.5 370.5,-332.5 370.5,-302.5 230.5,-302.5"/>
<text text-anchor="start" x="238.5" y="-320.5" font-family="Helvetica,sans-Serif" font-size="10.00">src/node/acme_challenge</text>
<text text-anchor="middle" x="300.5" y="-309.5" font-family="Helvetica,sans-Serif" font-size="10.00">_frontend.h</text>
</a>
</g>
</g>
<!-- Node25&#45;&gt;Node26 -->
<g id="edge36" class="edge">
<title>Node25&#45;&gt;Node26</title>
<path fill="none" stroke="midnightblue" d="M363.25,-368.24C349.64,-357.45 331.54,-343.1 318.27,-332.59"/>
<polygon fill="midnightblue" stroke="midnightblue" points="361.43,-371.26 371.44,-374.73 365.78,-365.78 361.43,-371.26"/>
</g>
<!-- Node27 -->
<g id="node27" class="node">
<title>Node27</title>
<g id="a_node27"><a xlink:href="member__frontend_8h.html" target="_top" xlink:title=" ">
<polygon fill="white" stroke="black" points="54.5,-168.5 54.5,-198.5 174.5,-198.5 174.5,-168.5 54.5,-168.5"/>
<text text-anchor="start" x="62.5" y="-186.5" font-family="Helvetica,sans-Serif" font-size="10.00">src/node/rpc/member</text>
<text text-anchor="middle" x="114.5" y="-175.5" font-family="Helvetica,sans-Serif" font-size="10.00">_frontend.h</text>
</a>
</g>
</g>
<!-- Node25&#45;&gt;Node27 -->
<g id="edge40" class="edge">
<title>Node25&#45;&gt;Node27</title>
<path fill="none" stroke="midnightblue" d="M307.62,-378.74C268.52,-372.87 221.99,-360.17 188.5,-333 144.43,-297.25 124.37,-228.58 117.46,-198.83"/>
<polygon fill="midnightblue" stroke="midnightblue" points="307.52,-382.26 317.9,-380.16 308.47,-375.33 307.52,-382.26"/>
</g>
<!-- Node28 -->
<g id="node28" class="node">
<title>Node28</title>
<g id="a_node28"><a xlink:href="user__frontend_8h.html" target="_top" xlink:title=" ">
<polygon fill="white" stroke="black" points="139,-112.5 139,-131.5 294,-131.5 294,-112.5 139,-112.5"/>
<text text-anchor="middle" x="216.5" y="-119.5" font-family="Helvetica,sans-Serif" font-size="10.00">src/node/rpc/user_frontend.h</text>
</a>
</g>
</g>
<!-- Node25&#45;&gt;Node28 -->
<g id="edge43" class="edge">
<title>Node25&#45;&gt;Node28</title>
<path fill="none" stroke="midnightblue" d="M307.51,-378.77C275.8,-372.65 241.61,-359.71 221.5,-333 173.9,-269.78 203.4,-162.85 213.5,-131.73"/>
<polygon fill="midnightblue" stroke="midnightblue" points="307.25,-382.28 317.7,-380.53 308.44,-375.38 307.25,-382.28"/>
</g>
<!-- Node26&#45;&gt;Node10 -->
<g id="edge37" class="edge">
<title>Node26&#45;&gt;Node10</title>
<path fill="none" stroke="midnightblue" d="M304.47,-292.36C313.31,-238.56 334.3,-110.81 340.03,-75.93"/>
<polygon fill="midnightblue" stroke="midnightblue" points="300.99,-291.94 302.82,-302.37 307.9,-293.07 300.99,-291.94"/>
</g>
<!-- Node26&#45;&gt;Node12 -->
<g id="edge38" class="edge">
<title>Node26&#45;&gt;Node12</title>
<path fill="none" stroke="midnightblue" d="M380.88,-306.04C393.14,-304.59 405.65,-303.19 417.5,-302 624.19,-281.22 676.77,-286.36 883.5,-266 901.08,-264.27 920.07,-262.12 937.67,-260.02"/>
<polygon fill="midnightblue" stroke="midnightblue" points="380.17,-302.6 370.66,-307.27 381.01,-309.55 380.17,-302.6"/>
</g>
<!-- Node27&#45;&gt;Node10 -->
<g id="edge41" class="edge">
<title>Node27&#45;&gt;Node10</title>
<path fill="none" stroke="midnightblue" d="M113.39,-157.93C114.07,-142.72 117.61,-123.89 129.5,-112 150.39,-91.12 225.39,-78.93 280.28,-72.62"/>
<polygon fill="midnightblue" stroke="midnightblue" points="109.89,-158.2 113.32,-168.22 116.88,-158.24 109.89,-158.2"/>
</g>
<!-- Node28&#45;&gt;Node10 -->
<g id="edge44" class="edge">
<title>Node28&#45;&gt;Node10</title>
<path fill="none" stroke="midnightblue" d="M245.74,-108.37C269.15,-98.26 301.34,-84.35 321.79,-75.52"/>
<polygon fill="midnightblue" stroke="midnightblue" points="244.1,-105.26 236.31,-112.44 246.87,-111.69 244.1,-105.26"/>
</g>
<!-- Node29&#45;&gt;Node8 -->
<g id="edge46" class="edge">
<title>Node29&#45;&gt;Node8</title>
<path fill="none" stroke="midnightblue" d="M521.67,-630.05C582.5,-618.52 679.21,-600.19 735.59,-589.51"/>
<polygon fill="midnightblue" stroke="midnightblue" points="520.66,-626.67 511.49,-631.98 521.97,-633.55 520.66,-626.67"/>
</g>
<!-- Node29&#45;&gt;Node19 -->
<g id="edge47" class="edge">
<title>Node29&#45;&gt;Node19</title>
<path fill="none" stroke="midnightblue" d="M481.73,-624.24C500.66,-602.26 530.5,-561.04 530.5,-519.5 530.5,-519.5 530.5,-519.5 530.5,-450.5 530.5,-391.24 579.07,-390.47 593.5,-333 596.86,-319.64 600.22,-314.03 593.5,-302 584.21,-285.36 566.93,-273.53 550.62,-265.52"/>
<polygon fill="midnightblue" stroke="midnightblue" points="478.92,-622.14 474.87,-631.93 484.14,-626.8 478.92,-622.14"/>
</g>
<!-- Node30 -->
<g id="node30" class="node">
<title>Node30</title>
<g id="a_node30"><a xlink:href="forwarder_8h.html" target="_top" xlink:title=" ">
<polygon fill="white" stroke="black" points="315.5,-442 315.5,-461 449.5,-461 449.5,-442 315.5,-442"/>
<text text-anchor="middle" x="382.5" y="-449" font-family="Helvetica,sans-Serif" font-size="10.00">src/node/rpc/forwarder.h</text>
</a>
</g>
</g>
<!-- Node29&#45;&gt;Node30 -->
<g id="edge48" class="edge">
<title>Node29&#45;&gt;Node30</title>
<path fill="none" stroke="midnightblue" d="M458.57,-622.76C440.99,-583.4 399.23,-489.94 386.35,-461.12"/>
<polygon fill="midnightblue" stroke="midnightblue" points="455.4,-624.23 462.67,-631.93 461.79,-621.38 455.4,-624.23"/>
</g>
<!-- Node30&#45;&gt;Node10 -->
<g id="edge49" class="edge">
<title>Node30&#45;&gt;Node10</title>
<path fill="none" stroke="midnightblue" d="M318.09,-440.2C215.52,-421.95 26.5,-379.98 26.5,-318.5 26.5,-318.5 26.5,-318.5 26.5,-182.5 26.5,-132.39 69.06,-133.14 114.5,-112 167.32,-87.42 233.13,-76.25 280.27,-71.18"/>
<polygon fill="midnightblue" stroke="midnightblue" points="317.59,-443.66 328.04,-441.94 318.8,-436.77 317.59,-443.66"/>
</g>
<!-- Node30&#45;&gt;Node25 -->
<g id="edge50" class="edge">
<title>Node30&#45;&gt;Node25</title>
<path fill="none" stroke="midnightblue" d="M382.5,-431.54C382.5,-419.17 382.5,-403.62 382.5,-394.13"/>
<polygon fill="midnightblue" stroke="midnightblue" points="379,-431.73 382.5,-441.73 386,-431.73 379,-431.73"/>
</g>
<!-- Node31&#45;&gt;Node3 -->
<g id="edge52" class="edge">
<title>Node31&#45;&gt;Node3</title>
<path fill="none" stroke="midnightblue" d="M318.06,-690.61C284.46,-680.9 236.03,-666.92 200.05,-656.52"/>
<polygon fill="midnightblue" stroke="midnightblue" points="317.41,-694.06 327.99,-693.48 319.35,-687.34 317.41,-694.06"/>
</g>
<!-- Node31&#45;&gt;Node29 -->
<g id="edge54" class="edge">
<title>Node31&#45;&gt;Node29</title>
<path fill="none" stroke="midnightblue" d="M382.13,-688.56C403.22,-677.04 432.96,-660.81 450.91,-651.01"/>
<polygon fill="midnightblue" stroke="midnightblue" points="380.22,-685.61 373.12,-693.48 383.57,-691.76 380.22,-685.61"/>
</g>
<!-- Node32 -->
<g id="node32" class="node">
<title>Node32</title>
<g id="a_node32"><a xlink:href="sig__auth_8cpp.html" target="_top" xlink:title=" ">
<polygon fill="white" stroke="black" points="220,-626.5 220,-656.5 375,-656.5 375,-626.5 220,-626.5"/>
<text text-anchor="start" x="228" y="-644.5" font-family="Helvetica,sans-Serif" font-size="10.00">src/endpoints/authentication</text>
<text text-anchor="middle" x="297.5" y="-633.5" font-family="Helvetica,sans-Serif" font-size="10.00">/sig_auth.cpp</text>
</a>
</g>
</g>
<!-- Node31&#45;&gt;Node32 -->
<g id="edge53" class="edge">
<title>Node31&#45;&gt;Node32</title>
<path fill="none" stroke="midnightblue" d="M341.74,-686.37C332.4,-677.11 320.68,-665.48 311.64,-656.52"/>
<polygon fill="midnightblue" stroke="midnightblue" points="339.34,-688.92 348.9,-693.48 344.27,-683.95 339.34,-688.92"/>
</g>
<!-- Node33&#45;&gt;Node12 -->
<g id="edge56" class="edge">
<title>Node33&#45;&gt;Node12</title>
<path fill="none" stroke="midnightblue" d="M1006.8,-560.12C1011.64,-518.95 1022.6,-417.97 1024.5,-333 1024.81,-319.23 1027.08,-315.53 1024.5,-302 1021.57,-286.62 1014.03,-269.95 1009.09,-260.13"/>
<polygon fill="midnightblue" stroke="midnightblue" points="1003.32,-559.74 1005.61,-570.08 1010.27,-560.57 1003.32,-559.74"/>
</g>
<!-- Node34&#45;&gt;Node2 -->
<g id="edge58" class="edge">
<title>Node34&#45;&gt;Node2</title>
<path fill="none" stroke="midnightblue" d="M556.39,-797.14C549.07,-787.74 540.26,-776.4 534.31,-768.75"/>
<polygon fill="midnightblue" stroke="midnightblue" points="553.66,-799.34 562.56,-805.08 559.19,-795.04 553.66,-799.34"/>
</g>
</g>
</svg>
        <g id="navigator" transform="translate(0 0)" fill="#404254">
                <rect fill="#f2f5e9" fill-opacity="0.5" stroke="#606060" stroke-width=".5" x="0" y="0" width="60" height="60"/>
                <use id="zoomplus" xlink:href="#zoomPlus" x="17" y="9" onmousedown="handleZoom(evt,'in')"/>
                <use id="zoomminus" xlink:href="#zoomMin" x="42" y="9" onmousedown="handleZoom(evt,'out')"/>
                <use id="reset" xlink:href="#resetDef" x="30" y="36" onmousedown="handleReset()"/>
                <g id="arrowUp" xlink:href="#dirArrow" transform="translate(30 24)" onmousedown="handlePan(0,-1)">
                  <use xlink:href="#rim" fill="#404040">
                        <set attributeName="fill" to="#808080" begin="arrowUp.mouseover" end="arrowUp.mouseout"/>
                  </use>
                  <path fill="none" stroke="white" stroke-width="1.5" d="M0,-3.0v7 M-2.5,-0.5L0,-3.0L2.5,-0.5"/>
                </g>
                <g id="arrowRight" xlink:href="#dirArrow" transform="rotate(90) translate(36 -43)" onmousedown="handlePan(1,0)">
                  <use xlink:href="#rim" fill="#404040">
                        <set attributeName="fill" to="#808080" begin="arrowRight.mouseover" end="arrowRight.mouseout"/>
                  </use>
                  <path fill="none" stroke="white" stroke-width="1.5" d="M0,-3.0v7 M-2.5,-0.5L0,-3.0L2.5,-0.5"/>
                </g>
                <g id="arrowDown" xlink:href="#dirArrow" transform="rotate(180) translate(-30 -48)" onmousedown="handlePan(0,1)">
                  <use xlink:href="#rim" fill="#404040">
                        <set attributeName="fill" to="#808080" begin="arrowDown.mouseover" end="arrowDown.mouseout"/>
                  </use>
                  <path fill="none" stroke="white" stroke-width="1.5" d="M0,-3.0v7 M-2.5,-0.5L0,-3.0L2.5,-0.5"/>
                </g>
                <g id="arrowLeft" xlink:href="#dirArrow" transform="rotate(270) translate(-36 17)" onmousedown="handlePan(-1,0)">
                  <use xlink:href="#rim" fill="#404040">
                        <set attributeName="fill" to="#808080" begin="arrowLeft.mouseover" end="arrowLeft.mouseout"/>
                  </use>
                  <path fill="none" stroke="white" stroke-width="1.5" d="M0,-3.0v7 M-2.5,-0.5L0,-3.0L2.5,-0.5"/>
                </g>
        </g>
        <svg viewBox="0 0 15 15" width="100%" height="30px" preserveAspectRatio="xMaxYMin meet">
         <g id="arrow_out" transform="scale(0.3 0.3)">
          <a xlink:href="tls__endpoint_8h__dep__incl_org.svg" target="_base">
           <rect id="button" ry="5" rx="5" y="6" x="6" height="38" width="38"
                fill="#f2f5e9" fill-opacity="0.5" stroke="#606060" stroke-width="1.0"/>
           <path id="arrow"
             d="M 11.500037,31.436501 C 11.940474,20.09759 22.043105,11.32322 32.158766,21.979434 L 37.068811,17.246167 C 37.068811,17.246167 37.088388,32 37.088388,32 L 22.160133,31.978069 C 22.160133,31.978069 26.997745,27.140456 26.997745,27.140456 C 18.528582,18.264221 13.291696,25.230495 11.500037,31.436501 z"
             style="fill:#404040;"/>
          </a>
         </g>
        </svg>
</svg>
