<?xml version="1.0" encoding="UTF-8" standalone="no"?>
<!DOCTYPE svg PUBLIC "-//W3C//DTD SVG 1.1//EN"
 "http://www.w3.org/Graphics/SVG/1.1/DTD/svg11.dtd">
<!-- Generated by graphviz version 2.43.0 (0)
 -->
<!-- Title: src/tls/ca.h Pages: 1 -->
<svg width="1335pt" height="1068pt"
 viewBox="0.00 0.00 1335.00 1068.00" xmlns="http://www.w3.org/2000/svg" xmlns:xlink="http://www.w3.org/1999/xlink">
<g id="graph0" class="graph" transform="scale(1 1) rotate(0) translate(4 1064)">
<title>src/tls/ca.h</title>
<polygon fill="white" stroke="transparent" points="-4,4 -4,-1064 1331,-1064 1331,4 -4,4"/>
<!-- Node1 -->
<g id="node1" class="node">
<title>Node1</title>
<g id="a_node1"><a xlink:title=" ">
<polygon fill="#bfbfbf" stroke="black" points="259,-1040.5 259,-1059.5 328,-1059.5 328,-1040.5 259,-1040.5"/>
<text text-anchor="middle" x="293.5" y="-1047.5" font-family="Helvetica,sans-Serif" font-size="10.00">src/tls/ca.h</text>
</a>
</g>
</g>
<!-- Node2 -->
<g id="node2" class="node">
<title>Node2</title>
<g id="a_node2"><a xlink:href="ccf__global_8cpp.html" target="_top" xlink:title=" ">
<polygon fill="white" stroke="black" points="64,-973.5 64,-1003.5 175,-1003.5 175,-973.5 64,-973.5"/>
<text text-anchor="start" x="72" y="-991.5" font-family="Helvetica,sans-Serif" font-size="10.00">src/apps/js_v8/tmpl</text>
<text text-anchor="middle" x="119.5" y="-980.5" font-family="Helvetica,sans-Serif" font-size="10.00">/ccf_global.cpp</text>
</a>
</g>
</g>
<!-- Node1&#45;&gt;Node2 -->
<g id="edge1" class="edge">
<title>Node1&#45;&gt;Node2</title>
<path fill="none" stroke="midnightblue" d="M259.08,-1037.23C230.75,-1027.54 190.51,-1013.78 160.51,-1003.52"/>
<polygon fill="midnightblue" stroke="midnightblue" points="257.98,-1040.55 268.57,-1040.48 260.24,-1033.93 257.98,-1040.55"/>
</g>
<!-- Node3 -->
<g id="node3" class="node">
<title>Node3</title>
<g id="a_node3"><a xlink:href="tls__client_8h.html" target="_top" xlink:title=" ">
<polygon fill="white" stroke="black" points="374.5,-917.5 374.5,-936.5 496.5,-936.5 496.5,-917.5 374.5,-917.5"/>
<text text-anchor="middle" x="435.5" y="-924.5" font-family="Helvetica,sans-Serif" font-size="10.00">src/clients/tls_client.h</text>
</a>
</g>
</g>
<!-- Node1&#45;&gt;Node3 -->
<g id="edge2" class="edge">
<title>Node1&#45;&gt;Node3</title>
<path fill="none" stroke="midnightblue" d="M335.83,-1037.15C355.44,-1030.02 378,-1019.3 394.5,-1004 415.39,-984.63 427.86,-952.15 432.89,-936.69"/>
<polygon fill="midnightblue" stroke="midnightblue" points="334.5,-1033.9 326.18,-1040.46 336.78,-1040.52 334.5,-1033.9"/>
</g>
<!-- Node9 -->
<g id="node9" class="node">
<title>Node9</title>
<g id="a_node9"><a xlink:href="js_2crypto_8cpp.html" target="_top" xlink:title=" ">
<polygon fill="white" stroke="black" points="193.5,-979 193.5,-998 289.5,-998 289.5,-979 193.5,-979"/>
<text text-anchor="middle" x="241.5" y="-986" font-family="Helvetica,sans-Serif" font-size="10.00">src/js/crypto.cpp</text>
</a>
</g>
</g>
<!-- Node1&#45;&gt;Node9 -->
<g id="edge9" class="edge">
<title>Node1&#45;&gt;Node9</title>
<path fill="none" stroke="midnightblue" d="M279.23,-1032.67C269.42,-1021.45 256.81,-1007.02 248.94,-998.01"/>
<polygon fill="midnightblue" stroke="midnightblue" points="276.83,-1035.25 286.05,-1040.48 282.1,-1030.64 276.83,-1035.25"/>
</g>
<!-- Node11 -->
<g id="node11" class="node">
<title>Node11</title>
<g id="a_node11"><a xlink:href="cert_8h.html" target="_top" xlink:title=" ">
<polygon fill="white" stroke="black" points="308,-979 308,-998 385,-998 385,-979 308,-979"/>
<text text-anchor="middle" x="346.5" y="-986" font-family="Helvetica,sans-Serif" font-size="10.00">src/tls/cert.h</text>
</a>
</g>
</g>
<!-- Node1&#45;&gt;Node11 -->
<g id="edge11" class="edge">
<title>Node1&#45;&gt;Node11</title>
<path fill="none" stroke="midnightblue" d="M307.75,-1033C317.79,-1021.74 330.82,-1007.1 338.92,-998.01"/>
<polygon fill="midnightblue" stroke="midnightblue" points="305.13,-1030.68 301.09,-1040.48 310.36,-1035.34 305.13,-1030.68"/>
</g>
<!-- Node4 -->
<g id="node4" class="node">
<title>Node4</title>
<g id="a_node4"><a xlink:href="rpc__tls__client_8h.html" target="_top" xlink:title=" ">
<polygon fill="white" stroke="black" points="1074,-626.5 1074,-656.5 1175,-656.5 1175,-626.5 1074,-626.5"/>
<text text-anchor="start" x="1082" y="-644.5" font-family="Helvetica,sans-Serif" font-size="10.00">src/clients/rpc_tls</text>
<text text-anchor="middle" x="1124.5" y="-633.5" font-family="Helvetica,sans-Serif" font-size="10.00">_client.h</text>
</a>
</g>
</g>
<!-- Node3&#45;&gt;Node4 -->
<g id="edge3" class="edge">
<title>Node3&#45;&gt;Node4</title>
<path fill="none" stroke="midnightblue" d="M506.74,-921.5C677.2,-909.79 1094.5,-875.07 1094.5,-816 1094.5,-816 1094.5,-816 1094.5,-758 1094.5,-720.5 1109.5,-678.29 1118.28,-656.78"/>
<polygon fill="midnightblue" stroke="midnightblue" points="506.35,-918.02 496.61,-922.19 506.82,-925 506.35,-918.02"/>
</g>
<!-- Node5 -->
<g id="node5" class="node">
<title>Node5</title>
<g id="a_node5"><a xlink:href="perf__client_8h.html" target="_top" xlink:title=" ">
<polygon fill="white" stroke="black" points="1087,-503.5 1087,-533.5 1198,-533.5 1198,-503.5 1087,-503.5"/>
<text text-anchor="start" x="1095" y="-521.5" font-family="Helvetica,sans-Serif" font-size="10.00">src/clients/perf/perf</text>
<text text-anchor="middle" x="1142.5" y="-510.5" font-family="Helvetica,sans-Serif" font-size="10.00">_client.h</text>
</a>
</g>
</g>
<!-- Node4&#45;&gt;Node5 -->
<g id="edge4" class="edge">
<title>Node4&#45;&gt;Node5</title>
<path fill="none" stroke="midnightblue" d="M1104.42,-618.35C1094.43,-604.55 1085.77,-586.37 1092.5,-570 1098.55,-555.28 1111.2,-542.57 1122.26,-533.59"/>
<polygon fill="midnightblue" stroke="midnightblue" points="1101.76,-620.62 1110.7,-626.32 1107.26,-616.3 1101.76,-620.62"/>
</g>
<!-- Node8 -->
<g id="node8" class="node">
<title>Node8</title>
<g id="a_node8"><a xlink:href="timing_8h.html" target="_top" xlink:title=" ">
<polygon fill="white" stroke="black" points="1101.5,-570.5 1101.5,-589.5 1233.5,-589.5 1233.5,-570.5 1101.5,-570.5"/>
<text text-anchor="middle" x="1167.5" y="-577.5" font-family="Helvetica,sans-Serif" font-size="10.00">src/clients/perf/timing.h</text>
</a>
</g>
</g>
<!-- Node4&#45;&gt;Node8 -->
<g id="edge7" class="edge">
<title>Node4&#45;&gt;Node8</title>
<path fill="none" stroke="midnightblue" d="M1140.69,-618.1C1147.85,-608.19 1155.86,-597.11 1161.24,-589.66"/>
<polygon fill="midnightblue" stroke="midnightblue" points="1137.71,-616.24 1134.69,-626.4 1143.38,-620.34 1137.71,-616.24"/>
</g>
<!-- Node6 -->
<g id="node6" class="node">
<title>Node6</title>
<g id="a_node6"><a xlink:href="tpcc__client_8cpp.html" target="_top" xlink:title=" ">
<polygon fill="white" stroke="black" points="1059.5,-436.5 1059.5,-466.5 1175.5,-466.5 1175.5,-436.5 1059.5,-436.5"/>
<text text-anchor="start" x="1067.5" y="-454.5" font-family="Helvetica,sans-Serif" font-size="10.00">src/apps/tpcc/clients</text>
<text text-anchor="middle" x="1117.5" y="-443.5" font-family="Helvetica,sans-Serif" font-size="10.00">/tpcc_client.cpp</text>
</a>
</g>
</g>
<!-- Node5&#45;&gt;Node6 -->
<g id="edge5" class="edge">
<title>Node5&#45;&gt;Node6</title>
<path fill="none" stroke="midnightblue" d="M1133.46,-493.99C1129.92,-484.8 1125.99,-474.58 1122.91,-466.58"/>
<polygon fill="midnightblue" stroke="midnightblue" points="1130.22,-495.32 1137.08,-503.4 1136.75,-492.81 1130.22,-495.32"/>
</g>
<!-- Node7 -->
<g id="node7" class="node">
<title>Node7</title>
<g id="a_node7"><a xlink:href="scenario__perf__client_8cpp.html" target="_top" xlink:title=" ">
<polygon fill="white" stroke="black" points="1194,-436.5 1194,-466.5 1327,-466.5 1327,-436.5 1194,-436.5"/>
<text text-anchor="start" x="1202" y="-454.5" font-family="Helvetica,sans-Serif" font-size="10.00">src/clients/perf/scenario</text>
<text text-anchor="middle" x="1260.5" y="-443.5" font-family="Helvetica,sans-Serif" font-size="10.00">_perf_client.cpp</text>
</a>
</g>
</g>
<!-- Node5&#45;&gt;Node7 -->
<g id="edge6" class="edge">
<title>Node5&#45;&gt;Node7</title>
<path fill="none" stroke="midnightblue" d="M1177.11,-498.44C1195.62,-488.24 1218.02,-475.9 1234.95,-466.58"/>
<polygon fill="midnightblue" stroke="midnightblue" points="1175.17,-495.51 1168.1,-503.4 1178.55,-501.64 1175.17,-495.51"/>
</g>
<!-- Node8&#45;&gt;Node5 -->
<g id="edge8" class="edge">
<title>Node8&#45;&gt;Node5</title>
<path fill="none" stroke="midnightblue" d="M1159.98,-561.1C1156.27,-552.27 1151.86,-541.77 1148.39,-533.52"/>
<polygon fill="midnightblue" stroke="midnightblue" points="1156.82,-562.61 1163.92,-570.48 1163.27,-559.9 1156.82,-562.61"/>
</g>
<!-- Node10 -->
<g id="node10" class="node">
<title>Node10</title>
<g id="a_node10"><a xlink:href="wrap_8cpp.html" target="_top" xlink:title=" ">
<polygon fill="white" stroke="black" points="95,-917.5 95,-936.5 184,-936.5 184,-917.5 95,-917.5"/>
<text text-anchor="middle" x="139.5" y="-924.5" font-family="Helvetica,sans-Serif" font-size="10.00">src/js/wrap.cpp</text>
</a>
</g>
</g>
<!-- Node9&#45;&gt;Node10 -->
<g id="edge10" class="edge">
<title>Node9&#45;&gt;Node10</title>
<path fill="none" stroke="midnightblue" d="M218.19,-973.9C198.46,-962.4 170.81,-946.27 154.09,-936.51"/>
<polygon fill="midnightblue" stroke="midnightblue" points="216.48,-976.96 226.89,-978.98 220.01,-970.91 216.48,-976.96"/>
</g>
<!-- Node11&#45;&gt;Node3 -->
<g id="edge12" class="edge">
<title>Node11&#45;&gt;Node3</title>
<path fill="none" stroke="midnightblue" d="M368.02,-973.11C385.14,-961.67 408.51,-946.05 422.77,-936.51"/>
<polygon fill="midnightblue" stroke="midnightblue" points="365.62,-970.51 359.25,-978.98 369.51,-976.33 365.62,-970.51"/>
</g>
<!-- Node12 -->
<g id="node12" class="node">
<title>Node12</title>
<g id="a_node12"><a xlink:href="rpc__sessions_8h.html" target="_top" xlink:title=" ">
<polygon fill="white" stroke="black" points="156.5,-509 156.5,-528 302.5,-528 302.5,-509 156.5,-509"/>
<text text-anchor="middle" x="229.5" y="-516" font-family="Helvetica,sans-Serif" font-size="10.00">src/enclave/rpc_sessions.h</text>
</a>
</g>
</g>
<!-- Node11&#45;&gt;Node12 -->
<g id="edge13" class="edge">
<title>Node11&#45;&gt;Node12</title>
<path fill="none" stroke="midnightblue" d="M345.74,-968.5C344.11,-935.09 339.32,-863.78 326.5,-805 303.04,-697.48 285.22,-673.74 248.5,-570 243.25,-555.16 236.71,-538.05 232.83,-528.04"/>
<polygon fill="midnightblue" stroke="midnightblue" points="342.25,-968.82 346.19,-978.66 349.24,-968.51 342.25,-968.82"/>
</g>
<!-- Node26 -->
<g id="node26" class="node">
<title>Node26</title>
<g id="a_node26"><a xlink:href="context_8h.html" target="_top" xlink:title=" ">
<polygon fill="white" stroke="black" points="202,-917.5 202,-936.5 297,-936.5 297,-917.5 202,-917.5"/>
<text text-anchor="middle" x="249.5" y="-924.5" font-family="Helvetica,sans-Serif" font-size="10.00">src/tls/context.h</text>
</a>
</g>
</g>
<!-- Node11&#45;&gt;Node26 -->
<g id="edge37" class="edge">
<title>Node11&#45;&gt;Node26</title>
<path fill="none" stroke="midnightblue" d="M324.07,-973.74C305.34,-962.25 279.21,-946.22 263.37,-936.51"/>
<polygon fill="midnightblue" stroke="midnightblue" points="322.25,-976.73 332.6,-978.98 325.91,-970.76 322.25,-976.73"/>
</g>
<!-- Node13 -->
<g id="node13" class="node">
<title>Node13</title>
<g id="a_node13"><a xlink:href="enclave_2enclave_8h.html" target="_top" xlink:title=" ">
<polygon fill="white" stroke="black" points="802.5,-56.5 802.5,-75.5 924.5,-75.5 924.5,-56.5 802.5,-56.5"/>
<text text-anchor="middle" x="863.5" y="-63.5" font-family="Helvetica,sans-Serif" font-size="10.00">src/enclave/enclave.h</text>
</a>
</g>
</g>
<!-- Node12&#45;&gt;Node13 -->
<g id="edge14" class="edge">
<title>Node12&#45;&gt;Node13</title>
<path fill="none" stroke="midnightblue" d="M160.69,-506.84C94.53,-492.21 4.5,-458.84 4.5,-385.5 4.5,-385.5 4.5,-385.5 4.5,-182.5 4.5,-101.9 606.17,-75.31 802.41,-68.78"/>
<polygon fill="midnightblue" stroke="midnightblue" points="160.17,-510.3 170.68,-508.94 161.62,-503.45 160.17,-510.3"/>
</g>
<!-- Node15 -->
<g id="node15" class="node">
<title>Node15</title>
<g id="a_node15"><a xlink:href="ccf__acme__client_8h.html" target="_top" xlink:title=" ">
<polygon fill="white" stroke="black" points="486,-241 486,-260 635,-260 635,-241 486,-241"/>
<text text-anchor="middle" x="560.5" y="-248" font-family="Helvetica,sans-Serif" font-size="10.00">src/node/ccf_acme_client.h</text>
</a>
</g>
</g>
<!-- Node12&#45;&gt;Node15 -->
<g id="edge16" class="edge">
<title>Node12&#45;&gt;Node15</title>
<path fill="none" stroke="midnightblue" d="M311.55,-507.06C347.06,-499.8 387.87,-487.55 420.5,-467 503.17,-414.92 546.85,-294.24 557.75,-260.44"/>
<polygon fill="midnightblue" stroke="midnightblue" points="310.84,-503.63 301.69,-508.98 312.17,-510.51 310.84,-503.63"/>
</g>
<!-- Node16 -->
<g id="node16" class="node">
<title>Node16</title>
<g id="a_node16"><a xlink:href="node__state_8h.html" target="_top" xlink:title=" ">
<polygon fill="white" stroke="black" points="423.5,-174 423.5,-193 547.5,-193 547.5,-174 423.5,-174"/>
<text text-anchor="middle" x="485.5" y="-181" font-family="Helvetica,sans-Serif" font-size="10.00">src/node/node_state.h</text>
</a>
</g>
</g>
<!-- Node12&#45;&gt;Node16 -->
<g id="edge34" class="edge">
<title>Node12&#45;&gt;Node16</title>
<path fill="none" stroke="midnightblue" d="M195.77,-505.06C151.81,-486.4 80.5,-446.71 80.5,-385.5 80.5,-385.5 80.5,-385.5 80.5,-316.5 80.5,-253.49 138.29,-259.11 196.5,-235 270.73,-204.25 363.22,-192.22 423.27,-187.52"/>
<polygon fill="midnightblue" stroke="midnightblue" points="194.65,-508.38 205.23,-508.93 197.3,-501.9 194.65,-508.38"/>
</g>
<!-- Node18 -->
<g id="node18" class="node">
<title>Node18</title>
<g id="a_node18"><a xlink:href="node__client_8h.html" target="_top" xlink:title=" ">
<polygon fill="white" stroke="black" points="166.5,-442 166.5,-461 292.5,-461 292.5,-442 166.5,-442"/>
<text text-anchor="middle" x="229.5" y="-449" font-family="Helvetica,sans-Serif" font-size="10.00">src/node/node_client.h</text>
</a>
</g>
</g>
<!-- Node12&#45;&gt;Node18 -->
<g id="edge21" class="edge">
<title>Node12&#45;&gt;Node18</title>
<path fill="none" stroke="midnightblue" d="M229.5,-498.54C229.5,-486.17 229.5,-470.62 229.5,-461.13"/>
<polygon fill="midnightblue" stroke="midnightblue" points="226,-498.73 229.5,-508.73 233,-498.73 226,-498.73"/>
</g>
<!-- Node25 -->
<g id="node25" class="node">
<title>Node25</title>
<g id="a_node25"><a xlink:href="resharing_8h.html" target="_top" xlink:title=" ">
<polygon fill="white" stroke="black" points="351.5,-241 351.5,-260 467.5,-260 467.5,-241 351.5,-241"/>
<text text-anchor="middle" x="409.5" y="-248" font-family="Helvetica,sans-Serif" font-size="10.00">src/node/resharing.h</text>
</a>
</g>
</g>
<!-- Node12&#45;&gt;Node25 -->
<g id="edge35" class="edge">
<title>Node12&#45;&gt;Node25</title>
<path fill="none" stroke="midnightblue" d="M284.98,-506.52C340.1,-492.34 421.71,-461.75 459.5,-400 489.04,-351.74 437.57,-283.87 417.23,-260.11"/>
<polygon fill="midnightblue" stroke="midnightblue" points="283.88,-503.19 275.01,-508.98 285.56,-509.99 283.88,-503.19"/>
</g>
<!-- Node14 -->
<g id="node14" class="node">
<title>Node14</title>
<g id="a_node14"><a xlink:href="enclave_2main_8cpp.html" target="_top" xlink:title=" ">
<polygon fill="white" stroke="black" points="803.5,-0.5 803.5,-19.5 923.5,-19.5 923.5,-0.5 803.5,-0.5"/>
<text text-anchor="middle" x="863.5" y="-7.5" font-family="Helvetica,sans-Serif" font-size="10.00">src/enclave/main.cpp</text>
</a>
</g>
</g>
<!-- Node13&#45;&gt;Node14 -->
<g id="edge15" class="edge">
<title>Node13&#45;&gt;Node14</title>
<path fill="none" stroke="midnightblue" d="M863.5,-45.8C863.5,-36.91 863.5,-26.78 863.5,-19.75"/>
<polygon fill="midnightblue" stroke="midnightblue" points="860,-46.08 863.5,-56.08 867,-46.08 860,-46.08"/>
</g>
<!-- Node15&#45;&gt;Node16 -->
<g id="edge17" class="edge">
<title>Node15&#45;&gt;Node16</title>
<path fill="none" stroke="midnightblue" d="M542.45,-233.86C527.71,-221.08 507.41,-203.49 495.45,-193.13"/>
<polygon fill="midnightblue" stroke="midnightblue" points="540.54,-236.83 550.39,-240.73 545.12,-231.54 540.54,-236.83"/>
</g>
<!-- Node16&#45;&gt;Node13 -->
<g id="edge18" class="edge">
<title>Node16&#45;&gt;Node13</title>
<path fill="none" stroke="midnightblue" d="M507.53,-168.48C533.7,-152.45 579.16,-126.55 621.5,-112 681.21,-91.48 752.61,-79.65 802.31,-73.33"/>
<polygon fill="midnightblue" stroke="midnightblue" points="505.45,-165.65 498.8,-173.9 509.14,-171.6 505.45,-165.65"/>
</g>
<!-- Node17 -->
<g id="node17" class="node">
<title>Node17</title>
<g id="a_node17"><a xlink:href="gov__effects_8h.html" target="_top" xlink:title=" ">
<polygon fill="white" stroke="black" points="630.5,-112.5 630.5,-131.5 774.5,-131.5 774.5,-112.5 630.5,-112.5"/>
<text text-anchor="middle" x="702.5" y="-119.5" font-family="Helvetica,sans-Serif" font-size="10.00">src/node/rpc/gov_effects.h</text>
</a>
</g>
</g>
<!-- Node16&#45;&gt;Node17 -->
<g id="edge19" class="edge">
<title>Node16&#45;&gt;Node17</title>
<path fill="none" stroke="midnightblue" d="M526.27,-171.32C568.42,-159.76 633.3,-141.97 671.47,-131.51"/>
<polygon fill="midnightblue" stroke="midnightblue" points="525.31,-167.96 516.59,-173.98 527.16,-174.71 525.31,-167.96"/>
</g>
<!-- Node17&#45;&gt;Node13 -->
<g id="edge20" class="edge">
<title>Node17&#45;&gt;Node13</title>
<path fill="none" stroke="midnightblue" d="M737.76,-109.17C768.08,-99 811.07,-84.59 838.11,-75.52"/>
<polygon fill="midnightblue" stroke="midnightblue" points="736.38,-105.95 728.01,-112.44 738.6,-112.58 736.38,-105.95"/>
</g>
<!-- Node19 -->
<g id="node19" class="node">
<title>Node19</title>
<g id="a_node19"><a xlink:href="orc__requests_8h.html" target="_top" xlink:title=" ">
<polygon fill="white" stroke="black" points="331,-369.5 331,-399.5 450,-399.5 450,-369.5 331,-369.5"/>
<text text-anchor="start" x="339" y="-387.5" font-family="Helvetica,sans-Serif" font-size="10.00">src/consensus/aft/orc</text>
<text text-anchor="middle" x="390.5" y="-376.5" font-family="Helvetica,sans-Serif" font-size="10.00">_requests.h</text>
</a>
</g>
</g>
<!-- Node18&#45;&gt;Node19 -->
<g id="edge22" class="edge">
<title>Node18&#45;&gt;Node19</title>
<path fill="none" stroke="midnightblue" d="M260.32,-438.06C287.59,-427.05 327.36,-410.99 355.75,-399.53"/>
<polygon fill="midnightblue" stroke="midnightblue" points="258.84,-434.88 250.88,-441.87 261.46,-441.37 258.84,-434.88"/>
</g>
<!-- Node20 -->
<g id="node20" class="node">
<title>Node20</title>
<g id="a_node20"><a xlink:href="raft_8h.html" target="_top" xlink:title=" ">
<polygon fill="white" stroke="black" points="136,-308 136,-327 265,-327 265,-308 136,-308"/>
<text text-anchor="middle" x="200.5" y="-315" font-family="Helvetica,sans-Serif" font-size="10.00">src/consensus/aft/raft.h</text>
</a>
</g>
</g>
<!-- Node18&#45;&gt;Node20 -->
<g id="edge29" class="edge">
<title>Node18&#45;&gt;Node20</title>
<path fill="none" stroke="midnightblue" d="M187.69,-438.44C168.87,-430.69 148.46,-418.51 137.5,-400 130.48,-388.14 131.54,-381.42 137.5,-369 146.78,-349.67 167.47,-335.4 182.62,-327.06"/>
<polygon fill="midnightblue" stroke="midnightblue" points="186.45,-441.71 197.04,-442 188.94,-435.17 186.45,-441.71"/>
</g>
<!-- Node23 -->
<g id="node23" class="node">
<title>Node23</title>
<g id="a_node23"><a xlink:href="http__node__client_8h.html" target="_top" xlink:title=" ">
<polygon fill="white" stroke="black" points="223.5,-235.5 223.5,-265.5 333.5,-265.5 333.5,-235.5 223.5,-235.5"/>
<text text-anchor="start" x="231.5" y="-253.5" font-family="Helvetica,sans-Serif" font-size="10.00">src/node/http_node</text>
<text text-anchor="middle" x="278.5" y="-242.5" font-family="Helvetica,sans-Serif" font-size="10.00">_client.h</text>
</a>
</g>
</g>
<!-- Node18&#45;&gt;Node23 -->
<g id="edge30" class="edge">
<title>Node18&#45;&gt;Node23</title>
<path fill="none" stroke="midnightblue" d="M252.06,-436.21C263.81,-427.37 277.04,-414.88 283.5,-400 303.32,-354.33 290.41,-293.12 282.86,-265.76"/>
<polygon fill="midnightblue" stroke="midnightblue" points="250.03,-433.35 243.88,-441.98 254.07,-439.07 250.03,-433.35"/>
</g>
<!-- Node24 -->
<g id="node24" class="node">
<title>Node24</title>
<g id="a_node24"><a xlink:href="retired__nodes__cleanup_8h.html" target="_top" xlink:title=" ">
<polygon fill="white" stroke="black" points="146.5,-369.5 146.5,-399.5 274.5,-399.5 274.5,-369.5 146.5,-369.5"/>
<text text-anchor="start" x="154.5" y="-387.5" font-family="Helvetica,sans-Serif" font-size="10.00">src/node/retired_nodes</text>
<text text-anchor="middle" x="210.5" y="-376.5" font-family="Helvetica,sans-Serif" font-size="10.00">_cleanup.h</text>
</a>
</g>
</g>
<!-- Node18&#45;&gt;Node24 -->
<g id="edge32" class="edge">
<title>Node18&#45;&gt;Node24</title>
<path fill="none" stroke="midnightblue" d="M224.11,-432.06C221.1,-421.75 217.4,-409.1 214.62,-399.59"/>
<polygon fill="midnightblue" stroke="midnightblue" points="220.77,-433.12 226.94,-441.73 227.49,-431.15 220.77,-433.12"/>
</g>
<!-- Node19&#45;&gt;Node20 -->
<g id="edge23" class="edge">
<title>Node19&#45;&gt;Node20</title>
<path fill="none" stroke="midnightblue" d="M339.66,-366.11C302.7,-353.46 254.26,-336.89 225.37,-327.01"/>
<polygon fill="midnightblue" stroke="midnightblue" points="338.68,-369.47 349.27,-369.4 340.94,-362.85 338.68,-369.47"/>
</g>
<!-- Node21 -->
<g id="node21" class="node">
<title>Node21</title>
<g id="a_node21"><a xlink:href="node__frontend_8h.html" target="_top" xlink:title=" ">
<polygon fill="white" stroke="black" points="620.5,-308 620.5,-327 778.5,-327 778.5,-308 620.5,-308"/>
<text text-anchor="middle" x="699.5" y="-315" font-family="Helvetica,sans-Serif" font-size="10.00">src/node/rpc/node_frontend.h</text>
</a>
</g>
</g>
<!-- Node19&#45;&gt;Node21 -->
<g id="edge25" class="edge">
<title>Node19&#45;&gt;Node21</title>
<path fill="none" stroke="midnightblue" d="M460.05,-368.87C521.26,-355.99 608.29,-337.69 658.83,-327.06"/>
<polygon fill="midnightblue" stroke="midnightblue" points="459.14,-365.48 450.08,-370.97 460.58,-372.33 459.14,-365.48"/>
</g>
<!-- Node20&#45;&gt;Node16 -->
<g id="edge24" class="edge">
<title>Node20&#45;&gt;Node16</title>
<path fill="none" stroke="midnightblue" d="M198.14,-297.84C196.92,-279.33 198.31,-251.42 214.5,-235 242.98,-206.12 352.55,-193.34 423.34,-188.01"/>
<polygon fill="midnightblue" stroke="midnightblue" points="194.67,-298.35 199.12,-307.96 201.64,-297.67 194.67,-298.35"/>
</g>
<!-- Node21&#45;&gt;Node13 -->
<g id="edge26" class="edge">
<title>Node21&#45;&gt;Node13</title>
<path fill="none" stroke="midnightblue" d="M733.24,-303.77C751.43,-295.43 773.04,-282.91 787.5,-266 839.41,-205.28 857.83,-105.35 862.32,-75.61"/>
<polygon fill="midnightblue" stroke="midnightblue" points="731.6,-300.67 723.83,-307.86 734.4,-307.08 731.6,-300.67"/>
</g>
<!-- Node22 -->
<g id="node22" class="node">
<title>Node22</title>
<g id="a_node22"><a xlink:href="jwt__key__auto__refresh_8h.html" target="_top" xlink:title=" ">
<polygon fill="white" stroke="black" points="653,-235.5 653,-265.5 778,-265.5 778,-235.5 653,-235.5"/>
<text text-anchor="start" x="661" y="-253.5" font-family="Helvetica,sans-Serif" font-size="10.00">src/node/jwt_key_auto</text>
<text text-anchor="middle" x="715.5" y="-242.5" font-family="Helvetica,sans-Serif" font-size="10.00">_refresh.h</text>
</a>
</g>
</g>
<!-- Node21&#45;&gt;Node22 -->
<g id="edge27" class="edge">
<title>Node21&#45;&gt;Node22</title>
<path fill="none" stroke="midnightblue" d="M704.12,-297.74C706.64,-287.49 709.72,-275 712.03,-265.59"/>
<polygon fill="midnightblue" stroke="midnightblue" points="700.65,-297.19 701.66,-307.73 707.45,-298.86 700.65,-297.19"/>
</g>
<!-- Node22&#45;&gt;Node16 -->
<g id="edge28" class="edge">
<title>Node22&#45;&gt;Node16</title>
<path fill="none" stroke="midnightblue" d="M656.23,-232.75C611.25,-220.04 551.26,-203.09 515.68,-193.03"/>
<polygon fill="midnightblue" stroke="midnightblue" points="655.3,-236.12 665.88,-235.48 657.21,-229.39 655.3,-236.12"/>
</g>
<!-- Node23&#45;&gt;Node16 -->
<g id="edge31" class="edge">
<title>Node23&#45;&gt;Node16</title>
<path fill="none" stroke="midnightblue" d="M332.86,-232.43C373.23,-219.75 426.58,-203 458.34,-193.03"/>
<polygon fill="midnightblue" stroke="midnightblue" points="331.65,-229.14 323.16,-235.48 333.75,-235.82 331.65,-229.14"/>
</g>
<!-- Node24&#45;&gt;Node20 -->
<g id="edge33" class="edge">
<title>Node24&#45;&gt;Node20</title>
<path fill="none" stroke="midnightblue" d="M206.77,-359.25C205.04,-348.02 203.1,-335.38 201.84,-327.19"/>
<polygon fill="midnightblue" stroke="midnightblue" points="203.35,-360.04 208.33,-369.4 210.27,-358.98 203.35,-360.04"/>
</g>
<!-- Node25&#45;&gt;Node16 -->
<g id="edge36" class="edge">
<title>Node25&#45;&gt;Node16</title>
<path fill="none" stroke="midnightblue" d="M427.37,-234.21C442.35,-221.41 463.18,-203.59 475.41,-193.13"/>
<polygon fill="midnightblue" stroke="midnightblue" points="425.07,-231.57 419.75,-240.73 429.62,-236.89 425.07,-231.57"/>
</g>
<!-- Node26&#45;&gt;Node12 -->
<g id="edge38" class="edge">
<title>Node26&#45;&gt;Node12</title>
<path fill="none" stroke="midnightblue" d="M231.85,-910.32C212.74,-892.04 183.39,-859.86 171.5,-825 168.63,-816.59 170.85,-813.86 171.5,-805 174.84,-759.74 186.5,-749.38 186.5,-704 186.5,-704 186.5,-704 186.5,-640.5 186.5,-596.13 212.48,-547.63 224.05,-528.23"/>
<polygon fill="midnightblue" stroke="midnightblue" points="229.62,-913.03 239.33,-917.27 234.38,-907.9 229.62,-913.03"/>
</g>
<!-- Node27 -->
<g id="node27" class="node">
<title>Node27</title>
<g id="a_node27"><a xlink:href="tls__endpoint_8h.html" target="_top" xlink:title=" ">
<polygon fill="white" stroke="black" points="449.5,-861.5 449.5,-880.5 593.5,-880.5 593.5,-861.5 449.5,-861.5"/>
<text text-anchor="middle" x="521.5" y="-868.5" font-family="Helvetica,sans-Serif" font-size="10.00">src/enclave/tls_endpoint.h</text>
</a>
</g>
</g>
<!-- Node26&#45;&gt;Node27 -->
<g id="edge39" class="edge">
<title>Node26&#45;&gt;Node27</title>
<path fill="none" stroke="midnightblue" d="M302.52,-915.47C353.93,-905.27 430.94,-889.98 478.6,-880.52"/>
<polygon fill="midnightblue" stroke="midnightblue" points="301.73,-912.06 292.6,-917.44 303.09,-918.93 301.73,-912.06"/>
</g>
<!-- Node42 -->
<g id="node42" class="node">
<title>Node42</title>
<g id="a_node42"><a xlink:href="client_8h.html" target="_top" xlink:title=" ">
<polygon fill="white" stroke="black" points="0,-570.5 0,-589.5 85,-589.5 85,-570.5 0,-570.5"/>
<text text-anchor="middle" x="42.5" y="-577.5" font-family="Helvetica,sans-Serif" font-size="10.00">src/tls/client.h</text>
</a>
</g>
</g>
<!-- Node26&#45;&gt;Node42 -->
<g id="edge70" class="edge">
<title>Node26&#45;&gt;Node42</title>
<path fill="none" stroke="midnightblue" d="M206.74,-914.62C181.61,-906.99 149.72,-895.66 123.5,-881 83.21,-858.48 42.5,-862.16 42.5,-816 42.5,-816 42.5,-816 42.5,-702 42.5,-659.78 42.5,-609.26 42.5,-589.51"/>
<polygon fill="midnightblue" stroke="midnightblue" points="205.79,-917.98 216.37,-917.46 207.77,-911.27 205.79,-917.98"/>
</g>
<!-- Node43 -->
<g id="node43" class="node">
<title>Node43</title>
<g id="a_node43"><a xlink:href="plaintext__server_8h.html" target="_top" xlink:title=" ">
<polygon fill="white" stroke="black" points="181,-805.5 181,-824.5 318,-824.5 318,-805.5 181,-805.5"/>
<text text-anchor="middle" x="249.5" y="-812.5" font-family="Helvetica,sans-Serif" font-size="10.00">src/tls/plaintext_server.h</text>
</a>
</g>
</g>
<!-- Node26&#45;&gt;Node43 -->
<g id="edge73" class="edge">
<title>Node26&#45;&gt;Node43</title>
<path fill="none" stroke="midnightblue" d="M249.5,-907.35C249.5,-883.25 249.5,-842.31 249.5,-824.59"/>
<polygon fill="midnightblue" stroke="midnightblue" points="246,-907.37 249.5,-917.37 253,-907.37 246,-907.37"/>
</g>
<!-- Node44 -->
<g id="node44" class="node">
<title>Node44</title>
<g id="a_node44"><a xlink:href="server_8h.html" target="_top" xlink:title=" ">
<polygon fill="white" stroke="black" points="70.5,-749.5 70.5,-768.5 158.5,-768.5 158.5,-749.5 70.5,-749.5"/>
<text text-anchor="middle" x="114.5" y="-756.5" font-family="Helvetica,sans-Serif" font-size="10.00">src/tls/server.h</text>
</a>
</g>
</g>
<!-- Node26&#45;&gt;Node44 -->
<g id="edge75" class="edge">
<title>Node26&#45;&gt;Node44</title>
<path fill="none" stroke="midnightblue" d="M192.39,-914.62C172.66,-907.96 152.1,-897.46 138.5,-881 110.67,-847.33 111.95,-790.48 113.62,-768.78"/>
<polygon fill="midnightblue" stroke="midnightblue" points="191.39,-917.98 201.98,-917.6 193.47,-911.29 191.39,-917.98"/>
</g>
<!-- Node28 -->
<g id="node28" class="node">
<title>Node28</title>
<g id="a_node28"><a xlink:href="http__parser_8h.html" target="_top" xlink:title=" ">
<polygon fill="white" stroke="black" points="545.5,-749.5 545.5,-768.5 665.5,-768.5 665.5,-749.5 545.5,-749.5"/>
<text text-anchor="middle" x="605.5" y="-756.5" font-family="Helvetica,sans-Serif" font-size="10.00">src/http/http_parser.h</text>
</a>
</g>
</g>
<!-- Node27&#45;&gt;Node28 -->
<g id="edge40" class="edge">
<title>Node27&#45;&gt;Node28</title>
<path fill="none" stroke="midnightblue" d="M523.99,-850.94C526.56,-837.13 531.63,-818.58 541.5,-805 553.31,-788.74 572.86,-776.24 587.25,-768.59"/>
<polygon fill="midnightblue" stroke="midnightblue" points="520.47,-850.78 522.38,-861.2 527.39,-851.87 520.47,-850.78"/>
</g>
<!-- Node41 -->
<g id="node41" class="node">
<title>Node41</title>
<g id="a_node41"><a xlink:href="http__proc_8h.html" target="_top" xlink:title=" ">
<polygon fill="white" stroke="black" points="550,-805.5 550,-824.5 661,-824.5 661,-805.5 550,-805.5"/>
<text text-anchor="middle" x="605.5" y="-812.5" font-family="Helvetica,sans-Serif" font-size="10.00">src/http/http_proc.h</text>
</a>
</g>
</g>
<!-- Node27&#45;&gt;Node41 -->
<g id="edge68" class="edge">
<title>Node27&#45;&gt;Node41</title>
<path fill="none" stroke="midnightblue" d="M543.43,-855.9C558.84,-846 578.95,-833.07 592.04,-824.65"/>
<polygon fill="midnightblue" stroke="midnightblue" points="541.52,-852.97 535,-861.32 545.3,-858.86 541.52,-852.97"/>
</g>
<!-- Node28&#45;&gt;Node4 -->
<g id="edge41" class="edge">
<title>Node28&#45;&gt;Node4</title>
<path fill="none" stroke="midnightblue" d="M672.02,-747.87C723.66,-739.62 796.92,-727.07 860.5,-713 936.69,-696.14 1023.97,-671.84 1076.63,-656.62"/>
<polygon fill="midnightblue" stroke="midnightblue" points="671.32,-744.44 661.99,-749.47 672.41,-751.36 671.32,-744.44"/>
</g>
<!-- Node29 -->
<g id="node29" class="node">
<title>Node29</title>
<g id="a_node29"><a xlink:href="http__endpoint_8h.html" target="_top" xlink:title=" ">
<polygon fill="white" stroke="black" points="338,-570.5 338,-589.5 471,-589.5 471,-570.5 338,-570.5"/>
<text text-anchor="middle" x="404.5" y="-577.5" font-family="Helvetica,sans-Serif" font-size="10.00">src/http/http_endpoint.h</text>
</a>
</g>
</g>
<!-- Node28&#45;&gt;Node29 -->
<g id="edge42" class="edge">
<title>Node28&#45;&gt;Node29</title>
<path fill="none" stroke="midnightblue" d="M550.08,-746.74C526.98,-739.93 501.04,-729.31 481.5,-713 439.33,-677.81 415.01,-613.23 407.25,-589.79"/>
<polygon fill="midnightblue" stroke="midnightblue" points="549.21,-750.13 559.78,-749.43 551.08,-743.39 549.21,-750.13"/>
</g>
<!-- Node30 -->
<g id="node30" class="node">
<title>Node30</title>
<g id="a_node30"><a xlink:href="http__jwt_8h.html" target="_top" xlink:title=" ">
<polygon fill="white" stroke="black" points="553,-693.5 553,-712.5 658,-712.5 658,-693.5 553,-693.5"/>
<text text-anchor="middle" x="605.5" y="-700.5" font-family="Helvetica,sans-Serif" font-size="10.00">src/http/http_jwt.h</text>
</a>
</g>
</g>
<!-- Node28&#45;&gt;Node30 -->
<g id="edge44" class="edge">
<title>Node28&#45;&gt;Node30</title>
<path fill="none" stroke="midnightblue" d="M605.5,-738.8C605.5,-729.91 605.5,-719.78 605.5,-712.75"/>
<polygon fill="midnightblue" stroke="midnightblue" points="602,-739.08 605.5,-749.08 609,-739.08 602,-739.08"/>
</g>
<!-- Node36 -->
<g id="node36" class="node">
<title>Node36</title>
<g id="a_node36"><a xlink:href="http__rpc__context_8h.html" target="_top" xlink:title=" ">
<polygon fill="white" stroke="black" points="697,-632 697,-651 844,-651 844,-632 697,-632"/>
<text text-anchor="middle" x="770.5" y="-639" font-family="Helvetica,sans-Serif" font-size="10.00">src/http/http_rpc_context.h</text>
</a>
</g>
</g>
<!-- Node28&#45;&gt;Node36 -->
<g id="edge56" class="edge">
<title>Node28&#45;&gt;Node36</title>
<path fill="none" stroke="midnightblue" d="M626.35,-743.41C661.08,-719.1 729.75,-671.03 757.95,-651.28"/>
<polygon fill="midnightblue" stroke="midnightblue" points="624.09,-740.72 617.9,-749.32 628.1,-746.45 624.09,-740.72"/>
</g>
<!-- Node38 -->
<g id="node38" class="node">
<title>Node38</title>
<g id="a_node38"><a xlink:href="http__sig_8h.html" target="_top" xlink:title=" ">
<polygon fill="white" stroke="black" points="747.5,-693.5 747.5,-712.5 851.5,-712.5 851.5,-693.5 747.5,-693.5"/>
<text text-anchor="middle" x="799.5" y="-700.5" font-family="Helvetica,sans-Serif" font-size="10.00">src/http/http_sig.h</text>
</a>
</g>
</g>
<!-- Node28&#45;&gt;Node38 -->
<g id="edge62" class="edge">
<title>Node28&#45;&gt;Node38</title>
<path fill="none" stroke="midnightblue" d="M646.1,-746.7C682.72,-736.51 735.76,-721.74 768.9,-712.52"/>
<polygon fill="midnightblue" stroke="midnightblue" points="644.94,-743.39 636.24,-749.44 646.81,-750.13 644.94,-743.39"/>
</g>
<!-- Node40 -->
<g id="node40" class="node">
<title>Node40</title>
<g id="a_node40"><a xlink:href="acme__client_8h.html" target="_top" xlink:title=" ">
<polygon fill="white" stroke="black" points="435,-509 435,-528 564,-528 564,-509 435,-509"/>
<text text-anchor="middle" x="499.5" y="-516" font-family="Helvetica,sans-Serif" font-size="10.00">src/node/acme_client.h</text>
</a>
</g>
</g>
<!-- Node28&#45;&gt;Node40 -->
<g id="edge66" class="edge">
<title>Node28&#45;&gt;Node40</title>
<path fill="none" stroke="midnightblue" d="M581.4,-743.94C569.25,-735.99 554.92,-725.2 544.5,-713 496.14,-656.33 497.35,-557.54 498.91,-528.05"/>
<polygon fill="midnightblue" stroke="midnightblue" points="579.84,-747.09 590.17,-749.45 583.56,-741.16 579.84,-747.09"/>
</g>
<!-- Node29&#45;&gt;Node12 -->
<g id="edge43" class="edge">
<title>Node29&#45;&gt;Node12</title>
<path fill="none" stroke="midnightblue" d="M369.89,-567.23C335.87,-555.67 284.78,-538.3 254.53,-528.01"/>
<polygon fill="midnightblue" stroke="midnightblue" points="368.83,-570.57 379.43,-570.48 371.09,-563.94 368.83,-570.57"/>
</g>
<!-- Node31 -->
<g id="node31" class="node">
<title>Node31</title>
<g id="a_node31"><a xlink:href="jwt__auth_8cpp.html" target="_top" xlink:title=" ">
<polygon fill="white" stroke="black" points="524,-626.5 524,-656.5 679,-656.5 679,-626.5 524,-626.5"/>
<text text-anchor="start" x="532" y="-644.5" font-family="Helvetica,sans-Serif" font-size="10.00">src/endpoints/authentication</text>
<text text-anchor="middle" x="601.5" y="-633.5" font-family="Helvetica,sans-Serif" font-size="10.00">/jwt_auth.cpp</text>
</a>
</g>
</g>
<!-- Node30&#45;&gt;Node31 -->
<g id="edge45" class="edge">
<title>Node30&#45;&gt;Node31</title>
<path fill="none" stroke="midnightblue" d="M604.24,-683.23C603.66,-674.59 602.98,-664.5 602.44,-656.52"/>
<polygon fill="midnightblue" stroke="midnightblue" points="600.76,-683.73 604.93,-693.48 607.75,-683.26 600.76,-683.73"/>
</g>
<!-- Node32 -->
<g id="node32" class="node">
<title>Node32</title>
<g id="a_node32"><a xlink:href="frontend_8h.html" target="_top" xlink:title=" ">
<polygon fill="white" stroke="black" points="900,-375 900,-394 1029,-394 1029,-375 900,-375"/>
<text text-anchor="middle" x="964.5" y="-382" font-family="Helvetica,sans-Serif" font-size="10.00">src/node/rpc/frontend.h</text>
</a>
</g>
</g>
<!-- Node30&#45;&gt;Node32 -->
<g id="edge46" class="edge">
<title>Node30&#45;&gt;Node32</title>
<path fill="none" stroke="midnightblue" d="M668.17,-698.27C732.65,-693.13 827.28,-681.56 853.5,-657 878.91,-633.2 872.5,-615.82 872.5,-581 872.5,-581 872.5,-581 872.5,-517.5 872.5,-480.31 870.58,-466.75 891.5,-436 904.67,-416.63 927.94,-402.46 944.67,-394.14"/>
<polygon fill="midnightblue" stroke="midnightblue" points="667.8,-694.78 658.09,-699.04 668.33,-701.76 667.8,-694.78"/>
</g>
<!-- Node32&#45;&gt;Node16 -->
<g id="edge50" class="edge">
<title>Node32&#45;&gt;Node16</title>
<path fill="none" stroke="midnightblue" d="M964.78,-364.62C964.06,-346.58 960.3,-319.59 945.5,-302 894.56,-241.45 661.28,-205.63 547.82,-191.51"/>
<polygon fill="midnightblue" stroke="midnightblue" points="961.28,-364.81 964.9,-374.77 968.28,-364.73 961.28,-364.81"/>
</g>
<!-- Node32&#45;&gt;Node21 -->
<g id="edge53" class="edge">
<title>Node32&#45;&gt;Node21</title>
<path fill="none" stroke="midnightblue" d="M919.59,-372.48C867.32,-359.66 782.1,-338.76 734.49,-327.08"/>
<polygon fill="midnightblue" stroke="midnightblue" points="919.04,-375.95 929.58,-374.94 920.71,-369.15 919.04,-375.95"/>
</g>
<!-- Node33 -->
<g id="node33" class="node">
<title>Node33</title>
<g id="a_node33"><a xlink:href="acme__challenge__frontend_8h.html" target="_top" xlink:title=" ">
<polygon fill="white" stroke="black" points="796.5,-302.5 796.5,-332.5 936.5,-332.5 936.5,-302.5 796.5,-302.5"/>
<text text-anchor="start" x="804.5" y="-320.5" font-family="Helvetica,sans-Serif" font-size="10.00">src/node/acme_challenge</text>
<text text-anchor="middle" x="866.5" y="-309.5" font-family="Helvetica,sans-Serif" font-size="10.00">_frontend.h</text>
</a>
</g>
</g>
<!-- Node32&#45;&gt;Node33 -->
<g id="edge47" class="edge">
<title>Node32&#45;&gt;Node33</title>
<path fill="none" stroke="midnightblue" d="M942.87,-369.15C926.47,-358.27 904.05,-343.4 887.74,-332.59"/>
<polygon fill="midnightblue" stroke="midnightblue" points="941.02,-372.12 951.28,-374.73 944.88,-366.29 941.02,-372.12"/>
</g>
<!-- Node34 -->
<g id="node34" class="node">
<title>Node34</title>
<g id="a_node34"><a xlink:href="member__frontend_8h.html" target="_top" xlink:title=" ">
<polygon fill="white" stroke="black" points="1030.5,-168.5 1030.5,-198.5 1150.5,-198.5 1150.5,-168.5 1030.5,-168.5"/>
<text text-anchor="start" x="1038.5" y="-186.5" font-family="Helvetica,sans-Serif" font-size="10.00">src/node/rpc/member</text>
<text text-anchor="middle" x="1090.5" y="-175.5" font-family="Helvetica,sans-Serif" font-size="10.00">_frontend.h</text>
</a>
</g>
</g>
<!-- Node32&#45;&gt;Node34 -->
<g id="edge51" class="edge">
<title>Node32&#45;&gt;Node34</title>
<path fill="none" stroke="midnightblue" d="M983.41,-367.97C994.03,-358.6 1007.01,-345.99 1016.5,-333 1049.3,-288.12 1074.71,-226.51 1085.22,-198.9"/>
<polygon fill="midnightblue" stroke="midnightblue" points="980.83,-365.57 975.52,-374.73 985.39,-370.88 980.83,-365.57"/>
</g>
<!-- Node35 -->
<g id="node35" class="node">
<title>Node35</title>
<g id="a_node35"><a xlink:href="user__frontend_8h.html" target="_top" xlink:title=" ">
<polygon fill="white" stroke="black" points="911,-112.5 911,-131.5 1066,-131.5 1066,-112.5 911,-112.5"/>
<text text-anchor="middle" x="988.5" y="-119.5" font-family="Helvetica,sans-Serif" font-size="10.00">src/node/rpc/user_frontend.h</text>
</a>
</g>
</g>
<!-- Node32&#45;&gt;Node35 -->
<g id="edge54" class="edge">
<title>Node32&#45;&gt;Node35</title>
<path fill="none" stroke="midnightblue" d="M966.23,-364.72C971.02,-312.77 984.3,-168.61 987.7,-131.7"/>
<polygon fill="midnightblue" stroke="midnightblue" points="962.73,-364.55 965.3,-374.83 969.7,-365.2 962.73,-364.55"/>
</g>
<!-- Node33&#45;&gt;Node13 -->
<g id="edge48" class="edge">
<title>Node33&#45;&gt;Node13</title>
<path fill="none" stroke="midnightblue" d="M866.21,-292.36C865.56,-238.56 864.03,-110.81 863.61,-75.93"/>
<polygon fill="midnightblue" stroke="midnightblue" points="862.71,-292.41 866.33,-302.37 869.71,-292.33 862.71,-292.41"/>
</g>
<!-- Node33&#45;&gt;Node15 -->
<g id="edge49" class="edge">
<title>Node33&#45;&gt;Node15</title>
<path fill="none" stroke="midnightblue" d="M790.64,-300.39C730.49,-287.61 648.79,-270.25 600.65,-260.03"/>
<polygon fill="midnightblue" stroke="midnightblue" points="789.97,-303.82 800.48,-302.48 791.42,-296.97 789.97,-303.82"/>
</g>
<!-- Node34&#45;&gt;Node13 -->
<g id="edge52" class="edge">
<title>Node34&#45;&gt;Node13</title>
<path fill="none" stroke="midnightblue" d="M1091.61,-157.93C1090.93,-142.72 1087.39,-123.89 1075.5,-112 1054.61,-91.12 979.61,-78.93 924.72,-72.62"/>
<polygon fill="midnightblue" stroke="midnightblue" points="1088.12,-158.24 1091.68,-168.22 1095.11,-158.2 1088.12,-158.24"/>
</g>
<!-- Node35&#45;&gt;Node13 -->
<g id="edge55" class="edge">
<title>Node35&#45;&gt;Node13</title>
<path fill="none" stroke="midnightblue" d="M959.26,-108.37C935.85,-98.26 903.66,-84.35 883.21,-75.52"/>
<polygon fill="midnightblue" stroke="midnightblue" points="958.13,-111.69 968.69,-112.44 960.9,-105.26 958.13,-111.69"/>
</g>
<!-- Node36&#45;&gt;Node22 -->
<g id="edge58" class="edge">
<title>Node36&#45;&gt;Node22</title>
<path fill="none" stroke="midnightblue" d="M720.24,-629.23C667.6,-614.1 592.5,-581.63 592.5,-519.5 592.5,-519.5 592.5,-519.5 592.5,-383.5 592.5,-346.31 588.29,-331.06 611.5,-302 625.09,-284.98 645.84,-273.32 665.24,-265.53"/>
<polygon fill="midnightblue" stroke="midnightblue" points="719.54,-632.66 730.11,-631.94 721.39,-625.91 719.54,-632.66"/>
</g>
<!-- Node36&#45;&gt;Node29 -->
<g id="edge57" class="edge">
<title>Node36&#45;&gt;Node29</title>
<path fill="none" stroke="midnightblue" d="M713.25,-630.24C704.95,-628.79 696.51,-627.34 688.5,-626 609.23,-612.71 517.34,-598.34 460.06,-589.5"/>
<polygon fill="midnightblue" stroke="midnightblue" points="712.81,-633.72 723.26,-632 714.02,-626.82 712.81,-633.72"/>
</g>
<!-- Node37 -->
<g id="node37" class="node">
<title>Node37</title>
<g id="a_node37"><a xlink:href="forwarder_8h.html" target="_top" xlink:title=" ">
<polygon fill="white" stroke="black" points="900.5,-442 900.5,-461 1034.5,-461 1034.5,-442 900.5,-442"/>
<text text-anchor="middle" x="967.5" y="-449" font-family="Helvetica,sans-Serif" font-size="10.00">src/node/rpc/forwarder.h</text>
</a>
</g>
</g>
<!-- Node36&#45;&gt;Node37 -->
<g id="edge59" class="edge">
<title>Node36&#45;&gt;Node37</title>
<path fill="none" stroke="midnightblue" d="M786.78,-624.96C826.56,-587 927.69,-490.49 958.47,-461.12"/>
<polygon fill="midnightblue" stroke="midnightblue" points="784.29,-622.5 779.48,-631.93 789.13,-627.56 784.29,-622.5"/>
</g>
<!-- Node37&#45;&gt;Node13 -->
<g id="edge60" class="edge">
<title>Node37&#45;&gt;Node13</title>
<path fill="none" stroke="midnightblue" d="M1027,-439.72C1089.41,-424.58 1178.5,-390.38 1178.5,-318.5 1178.5,-318.5 1178.5,-318.5 1178.5,-182.5 1178.5,-133.76 1138.49,-132.99 1094.5,-112 1040.66,-86.3 973.1,-75.28 924.98,-70.55"/>
<polygon fill="midnightblue" stroke="midnightblue" points="1026.19,-436.32 1017.24,-441.99 1027.77,-443.13 1026.19,-436.32"/>
</g>
<!-- Node37&#45;&gt;Node32 -->
<g id="edge61" class="edge">
<title>Node37&#45;&gt;Node32</title>
<path fill="none" stroke="midnightblue" d="M966.62,-431.54C966.05,-419.17 965.34,-403.62 964.9,-394.13"/>
<polygon fill="midnightblue" stroke="midnightblue" points="963.14,-431.91 967.1,-441.73 970.13,-431.58 963.14,-431.91"/>
</g>
<!-- Node38&#45;&gt;Node4 -->
<g id="edge63" class="edge">
<title>Node38&#45;&gt;Node4</title>
<path fill="none" stroke="midnightblue" d="M861.82,-692.78C915.88,-684.47 996.13,-671.37 1065.5,-657 1068.19,-656.44 1070.93,-655.85 1073.71,-655.23"/>
<polygon fill="midnightblue" stroke="midnightblue" points="861.06,-689.36 851.7,-694.33 862.11,-696.28 861.06,-689.36"/>
</g>
<!-- Node38&#45;&gt;Node36 -->
<g id="edge65" class="edge">
<title>Node38&#45;&gt;Node36</title>
<path fill="none" stroke="midnightblue" d="M790.89,-684.33C785.53,-673.33 778.87,-659.66 774.65,-651.01"/>
<polygon fill="midnightblue" stroke="midnightblue" points="787.82,-686.02 795.35,-693.48 794.11,-682.95 787.82,-686.02"/>
</g>
<!-- Node39 -->
<g id="node39" class="node">
<title>Node39</title>
<g id="a_node39"><a xlink:href="sig__auth_8cpp.html" target="_top" xlink:title=" ">
<polygon fill="white" stroke="black" points="901,-626.5 901,-656.5 1056,-656.5 1056,-626.5 901,-626.5"/>
<text text-anchor="start" x="909" y="-644.5" font-family="Helvetica,sans-Serif" font-size="10.00">src/endpoints/authentication</text>
<text text-anchor="middle" x="978.5" y="-633.5" font-family="Helvetica,sans-Serif" font-size="10.00">/sig_auth.cpp</text>
</a>
</g>
</g>
<!-- Node38&#45;&gt;Node39 -->
<g id="edge64" class="edge">
<title>Node38&#45;&gt;Node39</title>
<path fill="none" stroke="midnightblue" d="M834.91,-690.23C864.06,-680.54 905.45,-666.78 936.31,-656.52"/>
<polygon fill="midnightblue" stroke="midnightblue" points="833.53,-687 825.15,-693.48 835.74,-693.64 833.53,-687"/>
</g>
<!-- Node40&#45;&gt;Node15 -->
<g id="edge67" class="edge">
<title>Node40&#45;&gt;Node15</title>
<path fill="none" stroke="midnightblue" d="M512.45,-500.42C518.9,-491.03 526.23,-478.91 530.5,-467 558.05,-390.2 560.47,-289.58 560.55,-260.01"/>
<polygon fill="midnightblue" stroke="midnightblue" points="509.43,-498.61 506.43,-508.77 515.11,-502.71 509.43,-498.61"/>
</g>
<!-- Node41&#45;&gt;Node28 -->
<g id="edge69" class="edge">
<title>Node41&#45;&gt;Node28</title>
<path fill="none" stroke="midnightblue" d="M605.5,-794.8C605.5,-785.91 605.5,-775.78 605.5,-768.75"/>
<polygon fill="midnightblue" stroke="midnightblue" points="602,-795.08 605.5,-805.08 609,-795.08 602,-795.08"/>
</g>
<!-- Node42&#45;&gt;Node12 -->
<g id="edge71" class="edge">
<title>Node42&#45;&gt;Node12</title>
<path fill="none" stroke="midnightblue" d="M79.02,-567.38C115.37,-555.82 170.29,-538.34 202.76,-528.01"/>
<polygon fill="midnightblue" stroke="midnightblue" points="77.76,-564.11 69.29,-570.48 79.88,-570.78 77.76,-564.11"/>
</g>
<!-- Node42&#45;&gt;Node16 -->
<g id="edge72" class="edge">
<title>Node42&#45;&gt;Node16</title>
<path fill="none" stroke="midnightblue" d="M42.5,-560.3C42.5,-535.62 42.5,-490.8 42.5,-452.5 42.5,-452.5 42.5,-452.5 42.5,-316.5 42.5,-270.72 65.82,-257.84 105.5,-235 158.27,-204.61 329.78,-191.87 423.3,-187.06"/>
<polygon fill="midnightblue" stroke="midnightblue" points="39,-560.41 42.5,-570.41 46,-560.41 39,-560.41"/>
</g>
<!-- Node43&#45;&gt;Node12 -->
<g id="edge74" class="edge">
<title>Node43&#45;&gt;Node12</title>
<path fill="none" stroke="midnightblue" d="M245.99,-795.63C242.14,-773.85 236.5,-736.42 236.5,-704 236.5,-704 236.5,-704 236.5,-640.5 236.5,-598.42 232.23,-548.24 230.36,-528.3"/>
<polygon fill="midnightblue" stroke="midnightblue" points="242.55,-796.28 247.8,-805.48 249.43,-795.01 242.55,-796.28"/>
</g>
<!-- Node44&#45;&gt;Node12 -->
<g id="edge76" class="edge">
<title>Node44&#45;&gt;Node12</title>
<path fill="none" stroke="midnightblue" d="M116.88,-739.11C122.07,-703.53 136.92,-625.2 172.5,-570 183.82,-552.44 202.88,-537.32 215.81,-528.32"/>
<polygon fill="midnightblue" stroke="midnightblue" points="113.35,-739.06 115.47,-749.44 120.29,-740 113.35,-739.06"/>
</g>
</g>
</svg>
