<?xml version="1.0" encoding="UTF-8" standalone="no"?>
<!DOCTYPE svg PUBLIC "-//W3C//DTD SVG 1.1//EN"
 "http://www.w3.org/Graphics/SVG/1.1/DTD/svg11.dtd">
<!-- Generated by graphviz version 2.43.0 (0)
 -->
<!-- Title: src/tls/cert.h Pages: 1 -->
<!--zoomable 1001 -->
<svg id="main" version="1.1" xmlns="http://www.w3.org/2000/svg" xmlns:xlink="http://www.w3.org/1999/xlink" xml:space="preserve" onload="init(evt)">
<style type="text/css"><![CDATA[
.edge:hover path { stroke: red; }
.edge:hover polygon { stroke: red; fill: red; }
]]></style>
<script type="text/javascript"><![CDATA[
var edges = document.getElementsByTagName('g');
if (edges && edges.length) {
  for (var i=0;i<edges.length;i++) {
    if (edges[i].id.substr(0,4)=='edge') {
      edges[i].setAttribute('class','edge');
    }
  }
}
]]></script>
        <defs>
                <circle id="rim" cx="0" cy="0" r="7"/>
                <circle id="rim2" cx="0" cy="0" r="3.5"/>
                <g id="zoomPlus">
                        <use xlink:href="#rim" fill="#404040">
                                <set attributeName="fill" to="#808080" begin="zoomplus.mouseover" end="zoomplus.mouseout"/>
                        </use>
                        <path d="M-4,0h8M0,-4v8" fill="none" stroke="white" stroke-width="1.5" pointer-events="none"/>
                </g>
                <g id="zoomMin">
                        <use xlink:href="#rim" fill="#404040">
                                <set attributeName="fill" to="#808080" begin="zoomminus.mouseover" end="zoomminus.mouseout"/>
                        </use>
                        <path d="M-4,0h8" fill="none" stroke="white" stroke-width="1.5" pointer-events="none"/>
                </g>
                <g id="dirArrow">
                        <path fill="none" stroke="white" stroke-width="1.5" d="M0,-3.0v7 M-2.5,-0.5L0,-3.0L2.5,-0.5"/>
                </g>
               <g id="resetDef">
                       <use xlink:href="#rim2" fill="#404040">
                               <set attributeName="fill" to="#808080" begin="reset.mouseover" end="reset.mouseout"/>
                       </use>
               </g>
        </defs>

<script type="text/javascript">
var viewWidth = 1331;
var viewHeight = 1001;
var sectionId = 'dynsection-1';
</script>
<script xlink:href="svgpan.js"/>
<svg id="graph" class="graph">
<g id="viewport">
<title>src/tls/cert.h</title>
<polygon fill="white" stroke="transparent" points="-4,4 -4,-997 1327,-997 1327,4 -4,4"/>
<!-- Node1 -->
<g id="node1" class="node">
<title>Node1</title>
<g id="a_node1"><a xlink:title=" ">
<polygon fill="#bfbfbf" stroke="black" points="308,-973.5 308,-992.5 385,-992.5 385,-973.5 308,-973.5"/>
<text text-anchor="middle" x="346.5" y="-980.5" font-family="Helvetica,sans-Serif" font-size="10.00">src/tls/cert.h</text>
</a>
</g>
</g>
<!-- Node2 -->
<g id="node2" class="node">
<title>Node2</title>
<g id="a_node2"><a xlink:href="tls__client_8h.html" target="_top" xlink:title=" ">
<polygon fill="white" stroke="black" points="922.5,-805.5 922.5,-824.5 1044.5,-824.5 1044.5,-805.5 922.5,-805.5"/>
<text text-anchor="middle" x="983.5" y="-812.5" font-family="Helvetica,sans-Serif" font-size="10.00">src/clients/tls_client.h</text>
</a>
</g>
</g>
<!-- Node1&#45;&gt;Node2 -->
<g id="edge1" class="edge">
<title>Node1&#45;&gt;Node2</title>
<path fill="none" stroke="midnightblue" d="M389.3,-970.85C508.84,-939.69 844.5,-852.22 950.79,-824.52"/>
<polygon fill="midnightblue" stroke="midnightblue" points="388.2,-967.52 379.41,-973.42 389.97,-974.29 388.2,-967.52"/>
</g>
<!-- Node8 -->
<g id="node8" class="node">
<title>Node8</title>
<g id="a_node8"><a xlink:href="rpc__sessions_8h.html" target="_top" xlink:title=" ">
<polygon fill="white" stroke="black" points="147.5,-509 147.5,-528 293.5,-528 293.5,-509 147.5,-509"/>
<text text-anchor="middle" x="220.5" y="-516" font-family="Helvetica,sans-Serif" font-size="10.00">src/enclave/rpc_sessions.h</text>
</a>
</g>
</g>
<!-- Node1&#45;&gt;Node8 -->
<g id="edge8" class="edge">
<title>Node1&#45;&gt;Node8</title>
<path fill="none" stroke="midnightblue" d="M346.5,-963.25C346.5,-941.36 346.5,-904.05 346.5,-872 346.5,-872 346.5,-872 346.5,-814 346.5,-691.65 253.45,-562.09 227.27,-528.08"/>
<polygon fill="midnightblue" stroke="midnightblue" points="343,-963.44 346.5,-973.44 350,-963.44 343,-963.44"/>
</g>
<!-- Node22 -->
<g id="node22" class="node">
<title>Node22</title>
<g id="a_node22"><a xlink:href="context_8h.html" target="_top" xlink:title=" ">
<polygon fill="white" stroke="black" points="165,-917.5 165,-936.5 260,-936.5 260,-917.5 165,-917.5"/>
<text text-anchor="middle" x="212.5" y="-924.5" font-family="Helvetica,sans-Serif" font-size="10.00">src/tls/context.h</text>
</a>
</g>
</g>
<!-- Node1&#45;&gt;Node22 -->
<g id="edge32" class="edge">
<title>Node1&#45;&gt;Node22</title>
<path fill="none" stroke="midnightblue" d="M315.82,-969.64C290.68,-959.5 255.75,-945.43 233.63,-936.52"/>
<polygon fill="midnightblue" stroke="midnightblue" points="314.68,-972.95 325.27,-973.44 317.3,-966.46 314.68,-972.95"/>
</g>
<!-- Node3 -->
<g id="node3" class="node">
<title>Node3</title>
<g id="a_node3"><a xlink:href="rpc__tls__client_8h.html" target="_top" xlink:title=" ">
<polygon fill="white" stroke="black" points="1074,-626.5 1074,-656.5 1175,-656.5 1175,-626.5 1074,-626.5"/>
<text text-anchor="start" x="1082" y="-644.5" font-family="Helvetica,sans-Serif" font-size="10.00">src/clients/rpc_tls</text>
<text text-anchor="middle" x="1124.5" y="-633.5" font-family="Helvetica,sans-Serif" font-size="10.00">_client.h</text>
</a>
</g>
</g>
<!-- Node2&#45;&gt;Node3 -->
<g id="edge2" class="edge">
<title>Node2&#45;&gt;Node3</title>
<path fill="none" stroke="midnightblue" d="M997.23,-797.3C1024.9,-763.64 1086.92,-688.2 1112.81,-656.72"/>
<polygon fill="midnightblue" stroke="midnightblue" points="994.33,-795.31 990.69,-805.26 999.74,-799.76 994.33,-795.31"/>
</g>
<!-- Node4 -->
<g id="node4" class="node">
<title>Node4</title>
<g id="a_node4"><a xlink:href="perf__client_8h.html" target="_top" xlink:title=" ">
<polygon fill="white" stroke="black" points="1109,-503.5 1109,-533.5 1220,-533.5 1220,-503.5 1109,-503.5"/>
<text text-anchor="start" x="1117" y="-521.5" font-family="Helvetica,sans-Serif" font-size="10.00">src/clients/perf/perf</text>
<text text-anchor="middle" x="1164.5" y="-510.5" font-family="Helvetica,sans-Serif" font-size="10.00">_client.h</text>
</a>
</g>
</g>
<!-- Node3&#45;&gt;Node4 -->
<g id="edge3" class="edge">
<title>Node3&#45;&gt;Node4</title>
<path fill="none" stroke="midnightblue" d="M1105.94,-618.26C1096.53,-604.16 1088.61,-585.69 1096.5,-570 1104.49,-554.1 1120.12,-541.95 1134.38,-533.56"/>
<polygon fill="midnightblue" stroke="midnightblue" points="1103.15,-620.37 1111.86,-626.41 1108.81,-616.26 1103.15,-620.37"/>
</g>
<!-- Node7 -->
<g id="node7" class="node">
<title>Node7</title>
<g id="a_node7"><a xlink:href="timing_8h.html" target="_top" xlink:title=" ">
<polygon fill="white" stroke="black" points="1105.5,-570.5 1105.5,-589.5 1237.5,-589.5 1237.5,-570.5 1105.5,-570.5"/>
<text text-anchor="middle" x="1171.5" y="-577.5" font-family="Helvetica,sans-Serif" font-size="10.00">src/clients/perf/timing.h</text>
</a>
</g>
</g>
<!-- Node3&#45;&gt;Node7 -->
<g id="edge6" class="edge">
<title>Node3&#45;&gt;Node7</title>
<path fill="none" stroke="midnightblue" d="M1141.95,-618.4C1149.85,-608.41 1158.72,-597.18 1164.66,-589.66"/>
<polygon fill="midnightblue" stroke="midnightblue" points="1139.09,-616.38 1135.64,-626.4 1144.58,-620.72 1139.09,-616.38"/>
</g>
<!-- Node5 -->
<g id="node5" class="node">
<title>Node5</title>
<g id="a_node5"><a xlink:href="tpcc__client_8cpp.html" target="_top" xlink:title=" ">
<polygon fill="white" stroke="black" points="1055.5,-436.5 1055.5,-466.5 1171.5,-466.5 1171.5,-436.5 1055.5,-436.5"/>
<text text-anchor="start" x="1063.5" y="-454.5" font-family="Helvetica,sans-Serif" font-size="10.00">src/apps/tpcc/clients</text>
<text text-anchor="middle" x="1113.5" y="-443.5" font-family="Helvetica,sans-Serif" font-size="10.00">/tpcc_client.cpp</text>
</a>
</g>
</g>
<!-- Node4&#45;&gt;Node5 -->
<g id="edge4" class="edge">
<title>Node4&#45;&gt;Node5</title>
<path fill="none" stroke="midnightblue" d="M1147.2,-495.45C1139.71,-485.9 1131.16,-475 1124.54,-466.58"/>
<polygon fill="midnightblue" stroke="midnightblue" points="1144.51,-497.69 1153.43,-503.4 1150.01,-493.37 1144.51,-497.69"/>
</g>
<!-- Node6 -->
<g id="node6" class="node">
<title>Node6</title>
<g id="a_node6"><a xlink:href="scenario__perf__client_8cpp.html" target="_top" xlink:title=" ">
<polygon fill="white" stroke="black" points="1190,-436.5 1190,-466.5 1323,-466.5 1323,-436.5 1190,-436.5"/>
<text text-anchor="start" x="1198" y="-454.5" font-family="Helvetica,sans-Serif" font-size="10.00">src/clients/perf/scenario</text>
<text text-anchor="middle" x="1256.5" y="-443.5" font-family="Helvetica,sans-Serif" font-size="10.00">_perf_client.cpp</text>
</a>
</g>
</g>
<!-- Node4&#45;&gt;Node6 -->
<g id="edge5" class="edge">
<title>Node4&#45;&gt;Node6</title>
<path fill="none" stroke="midnightblue" d="M1192.88,-497.45C1207.03,-487.45 1223.81,-475.6 1236.58,-466.58"/>
<polygon fill="midnightblue" stroke="midnightblue" points="1190.61,-494.77 1184.46,-503.4 1194.65,-500.48 1190.61,-494.77"/>
</g>
<!-- Node7&#45;&gt;Node4 -->
<g id="edge7" class="edge">
<title>Node7&#45;&gt;Node4</title>
<path fill="none" stroke="midnightblue" d="M1169.33,-560.53C1168.3,-551.81 1167.1,-541.59 1166.15,-533.52"/>
<polygon fill="midnightblue" stroke="midnightblue" points="1165.85,-560.95 1170.5,-570.48 1172.8,-560.13 1165.85,-560.95"/>
</g>
<!-- Node9 -->
<g id="node9" class="node">
<title>Node9</title>
<g id="a_node9"><a xlink:href="enclave_2enclave_8h.html" target="_top" xlink:title=" ">
<polygon fill="white" stroke="black" points="802.5,-56.5 802.5,-75.5 924.5,-75.5 924.5,-56.5 802.5,-56.5"/>
<text text-anchor="middle" x="863.5" y="-63.5" font-family="Helvetica,sans-Serif" font-size="10.00">src/enclave/enclave.h</text>
</a>
</g>
</g>
<!-- Node8&#45;&gt;Node9 -->
<g id="edge9" class="edge">
<title>Node8&#45;&gt;Node9</title>
<path fill="none" stroke="midnightblue" d="M157.66,-506.72C93.89,-491.76 4.5,-457.88 4.5,-385.5 4.5,-385.5 4.5,-385.5 4.5,-182.5 4.5,-101.9 606.17,-75.31 802.41,-68.78"/>
<polygon fill="midnightblue" stroke="midnightblue" points="157.14,-510.19 167.66,-508.97 158.67,-503.36 157.14,-510.19"/>
</g>
<!-- Node11 -->
<g id="node11" class="node">
<title>Node11</title>
<g id="a_node11"><a xlink:href="ccf__acme__client_8h.html" target="_top" xlink:title=" ">
<polygon fill="white" stroke="black" points="486,-241 486,-260 635,-260 635,-241 486,-241"/>
<text text-anchor="middle" x="560.5" y="-248" font-family="Helvetica,sans-Serif" font-size="10.00">src/node/ccf_acme_client.h</text>
</a>
</g>
</g>
<!-- Node8&#45;&gt;Node11 -->
<g id="edge11" class="edge">
<title>Node8&#45;&gt;Node11</title>
<path fill="none" stroke="midnightblue" d="M303.7,-508.55C341.82,-501.56 386.25,-489.12 421.5,-467 504.09,-415.18 547.1,-294.31 557.8,-260.46"/>
<polygon fill="midnightblue" stroke="midnightblue" points="302.9,-505.14 293.65,-510.3 304.1,-512.04 302.9,-505.14"/>
</g>
<!-- Node12 -->
<g id="node12" class="node">
<title>Node12</title>
<g id="a_node12"><a xlink:href="node__state_8h.html" target="_top" xlink:title=" ">
<polygon fill="white" stroke="black" points="376.5,-174 376.5,-193 500.5,-193 500.5,-174 376.5,-174"/>
<text text-anchor="middle" x="438.5" y="-181" font-family="Helvetica,sans-Serif" font-size="10.00">src/node/node_state.h</text>
</a>
</g>
</g>
<!-- Node8&#45;&gt;Node12 -->
<g id="edge29" class="edge">
<title>Node8&#45;&gt;Node12</title>
<path fill="none" stroke="midnightblue" d="M189.26,-504.68C147.99,-485.44 80.5,-444.88 80.5,-385.5 80.5,-385.5 80.5,-385.5 80.5,-316.5 80.5,-253.49 138.69,-260.06 196.5,-235 254.68,-209.78 326.31,-196.85 376.49,-190.42"/>
<polygon fill="midnightblue" stroke="midnightblue" points="188.07,-507.99 198.62,-508.9 190.94,-501.61 188.07,-507.99"/>
</g>
<!-- Node14 -->
<g id="node14" class="node">
<title>Node14</title>
<g id="a_node14"><a xlink:href="node__client_8h.html" target="_top" xlink:title=" ">
<polygon fill="white" stroke="black" points="157.5,-442 157.5,-461 283.5,-461 283.5,-442 157.5,-442"/>
<text text-anchor="middle" x="220.5" y="-449" font-family="Helvetica,sans-Serif" font-size="10.00">src/node/node_client.h</text>
</a>
</g>
</g>
<!-- Node8&#45;&gt;Node14 -->
<g id="edge16" class="edge">
<title>Node8&#45;&gt;Node14</title>
<path fill="none" stroke="midnightblue" d="M220.5,-498.54C220.5,-486.17 220.5,-470.62 220.5,-461.13"/>
<polygon fill="midnightblue" stroke="midnightblue" points="217,-498.73 220.5,-508.73 224,-498.73 217,-498.73"/>
</g>
<!-- Node21 -->
<g id="node21" class="node">
<title>Node21</title>
<g id="a_node21"><a xlink:href="resharing_8h.html" target="_top" xlink:title=" ">
<polygon fill="white" stroke="black" points="351.5,-241 351.5,-260 467.5,-260 467.5,-241 351.5,-241"/>
<text text-anchor="middle" x="409.5" y="-248" font-family="Helvetica,sans-Serif" font-size="10.00">src/node/resharing.h</text>
</a>
</g>
</g>
<!-- Node8&#45;&gt;Node21 -->
<g id="edge30" class="edge">
<title>Node8&#45;&gt;Node21</title>
<path fill="none" stroke="midnightblue" d="M280.24,-506.67C337.41,-492.78 420.54,-462.57 459.5,-400 489.41,-351.97 437.71,-283.95 417.27,-260.14"/>
<polygon fill="midnightblue" stroke="midnightblue" points="279.18,-503.32 270.24,-508.99 280.77,-510.14 279.18,-503.32"/>
</g>
<!-- Node10 -->
<g id="node10" class="node">
<title>Node10</title>
<g id="a_node10"><a xlink:href="enclave_2main_8cpp.html" target="_top" xlink:title=" ">
<polygon fill="white" stroke="black" points="803.5,-0.5 803.5,-19.5 923.5,-19.5 923.5,-0.5 803.5,-0.5"/>
<text text-anchor="middle" x="863.5" y="-7.5" font-family="Helvetica,sans-Serif" font-size="10.00">src/enclave/main.cpp</text>
</a>
</g>
</g>
<!-- Node9&#45;&gt;Node10 -->
<g id="edge10" class="edge">
<title>Node9&#45;&gt;Node10</title>
<path fill="none" stroke="midnightblue" d="M863.5,-45.8C863.5,-36.91 863.5,-26.78 863.5,-19.75"/>
<polygon fill="midnightblue" stroke="midnightblue" points="860,-46.08 863.5,-56.08 867,-46.08 860,-46.08"/>
</g>
<!-- Node11&#45;&gt;Node12 -->
<g id="edge12" class="edge">
<title>Node11&#45;&gt;Node12</title>
<path fill="none" stroke="midnightblue" d="M535.36,-236.1C511.19,-223.23 475.4,-204.16 454.77,-193.17"/>
<polygon fill="midnightblue" stroke="midnightblue" points="533.83,-239.26 544.3,-240.87 537.12,-233.08 533.83,-239.26"/>
</g>
<!-- Node12&#45;&gt;Node9 -->
<g id="edge13" class="edge">
<title>Node12&#45;&gt;Node9</title>
<path fill="none" stroke="midnightblue" d="M456.17,-167.41C476.52,-150.92 511.66,-125.1 546.5,-112 631.44,-80.06 736.96,-70.56 802.27,-67.86"/>
<polygon fill="midnightblue" stroke="midnightblue" points="453.87,-164.77 448.39,-173.84 458.33,-170.17 453.87,-164.77"/>
</g>
<!-- Node13 -->
<g id="node13" class="node">
<title>Node13</title>
<g id="a_node13"><a xlink:href="gov__effects_8h.html" target="_top" xlink:title=" ">
<polygon fill="white" stroke="black" points="555.5,-112.5 555.5,-131.5 699.5,-131.5 699.5,-112.5 555.5,-112.5"/>
<text text-anchor="middle" x="627.5" y="-119.5" font-family="Helvetica,sans-Serif" font-size="10.00">src/node/rpc/gov_effects.h</text>
</a>
</g>
</g>
<!-- Node12&#45;&gt;Node13 -->
<g id="edge14" class="edge">
<title>Node12&#45;&gt;Node13</title>
<path fill="none" stroke="midnightblue" d="M475.41,-170.88C512.15,-159.32 567.65,-141.84 600.47,-131.51"/>
<polygon fill="midnightblue" stroke="midnightblue" points="474.07,-167.63 465.58,-173.98 476.17,-174.31 474.07,-167.63"/>
</g>
<!-- Node13&#45;&gt;Node9 -->
<g id="edge15" class="edge">
<title>Node13&#45;&gt;Node9</title>
<path fill="none" stroke="midnightblue" d="M674.91,-110.15C719.5,-99.95 785.35,-84.88 826.28,-75.52"/>
<polygon fill="midnightblue" stroke="midnightblue" points="673.86,-106.8 664.89,-112.44 675.42,-113.62 673.86,-106.8"/>
</g>
<!-- Node15 -->
<g id="node15" class="node">
<title>Node15</title>
<g id="a_node15"><a xlink:href="orc__requests_8h.html" target="_top" xlink:title=" ">
<polygon fill="white" stroke="black" points="331,-369.5 331,-399.5 450,-399.5 450,-369.5 331,-369.5"/>
<text text-anchor="start" x="339" y="-387.5" font-family="Helvetica,sans-Serif" font-size="10.00">src/consensus/aft/orc</text>
<text text-anchor="middle" x="390.5" y="-376.5" font-family="Helvetica,sans-Serif" font-size="10.00">_requests.h</text>
</a>
</g>
</g>
<!-- Node14&#45;&gt;Node15 -->
<g id="edge17" class="edge">
<title>Node14&#45;&gt;Node15</title>
<path fill="none" stroke="midnightblue" d="M252.66,-438.2C281.47,-427.19 323.7,-411.04 353.81,-399.53"/>
<polygon fill="midnightblue" stroke="midnightblue" points="251.17,-435.03 243.07,-441.87 253.67,-441.57 251.17,-435.03"/>
</g>
<!-- Node16 -->
<g id="node16" class="node">
<title>Node16</title>
<g id="a_node16"><a xlink:href="raft_8h.html" target="_top" xlink:title=" ">
<polygon fill="white" stroke="black" points="136,-308 136,-327 265,-327 265,-308 136,-308"/>
<text text-anchor="middle" x="200.5" y="-315" font-family="Helvetica,sans-Serif" font-size="10.00">src/consensus/aft/raft.h</text>
</a>
</g>
</g>
<!-- Node14&#45;&gt;Node16 -->
<g id="edge24" class="edge">
<title>Node14&#45;&gt;Node16</title>
<path fill="none" stroke="midnightblue" d="M183.79,-437.96C166.48,-429.98 147.47,-417.74 137.5,-400 130.75,-387.99 131.54,-381.42 137.5,-369 146.78,-349.67 167.47,-335.4 182.62,-327.06"/>
<polygon fill="midnightblue" stroke="midnightblue" points="182.6,-441.25 193.17,-441.96 185.35,-434.81 182.6,-441.25"/>
</g>
<!-- Node19 -->
<g id="node19" class="node">
<title>Node19</title>
<g id="a_node19"><a xlink:href="http__node__client_8h.html" target="_top" xlink:title=" ">
<polygon fill="white" stroke="black" points="223.5,-235.5 223.5,-265.5 333.5,-265.5 333.5,-235.5 223.5,-235.5"/>
<text text-anchor="start" x="231.5" y="-253.5" font-family="Helvetica,sans-Serif" font-size="10.00">src/node/http_node</text>
<text text-anchor="middle" x="278.5" y="-242.5" font-family="Helvetica,sans-Serif" font-size="10.00">_client.h</text>
</a>
</g>
</g>
<!-- Node14&#45;&gt;Node19 -->
<g id="edge25" class="edge">
<title>Node14&#45;&gt;Node19</title>
<path fill="none" stroke="midnightblue" d="M247.37,-436.63C260.89,-428.07 275.96,-415.71 283.5,-400 305.05,-355.12 291.26,-293.51 283.17,-265.9"/>
<polygon fill="midnightblue" stroke="midnightblue" points="245.21,-433.84 238.38,-441.94 248.77,-439.87 245.21,-433.84"/>
</g>
<!-- Node20 -->
<g id="node20" class="node">
<title>Node20</title>
<g id="a_node20"><a xlink:href="retired__nodes__cleanup_8h.html" target="_top" xlink:title=" ">
<polygon fill="white" stroke="black" points="146.5,-369.5 146.5,-399.5 274.5,-399.5 274.5,-369.5 146.5,-369.5"/>
<text text-anchor="start" x="154.5" y="-387.5" font-family="Helvetica,sans-Serif" font-size="10.00">src/node/retired_nodes</text>
<text text-anchor="middle" x="210.5" y="-376.5" font-family="Helvetica,sans-Serif" font-size="10.00">_cleanup.h</text>
</a>
</g>
</g>
<!-- Node14&#45;&gt;Node20 -->
<g id="edge27" class="edge">
<title>Node14&#45;&gt;Node20</title>
<path fill="none" stroke="midnightblue" d="M217.61,-431.74C216.04,-421.49 214.12,-409 212.67,-399.59"/>
<polygon fill="midnightblue" stroke="midnightblue" points="214.17,-432.38 219.15,-441.73 221.09,-431.32 214.17,-432.38"/>
</g>
<!-- Node15&#45;&gt;Node16 -->
<g id="edge18" class="edge">
<title>Node15&#45;&gt;Node16</title>
<path fill="none" stroke="midnightblue" d="M339.66,-366.11C302.7,-353.46 254.26,-336.89 225.37,-327.01"/>
<polygon fill="midnightblue" stroke="midnightblue" points="338.68,-369.47 349.27,-369.4 340.94,-362.85 338.68,-369.47"/>
</g>
<!-- Node17 -->
<g id="node17" class="node">
<title>Node17</title>
<g id="a_node17"><a xlink:href="node__frontend_8h.html" target="_top" xlink:title=" ">
<polygon fill="white" stroke="black" points="620.5,-308 620.5,-327 778.5,-327 778.5,-308 620.5,-308"/>
<text text-anchor="middle" x="699.5" y="-315" font-family="Helvetica,sans-Serif" font-size="10.00">src/node/rpc/node_frontend.h</text>
</a>
</g>
</g>
<!-- Node15&#45;&gt;Node17 -->
<g id="edge20" class="edge">
<title>Node15&#45;&gt;Node17</title>
<path fill="none" stroke="midnightblue" d="M460.05,-368.87C521.26,-355.99 608.29,-337.69 658.83,-327.06"/>
<polygon fill="midnightblue" stroke="midnightblue" points="459.14,-365.48 450.08,-370.97 460.58,-372.33 459.14,-365.48"/>
</g>
<!-- Node16&#45;&gt;Node12 -->
<g id="edge19" class="edge">
<title>Node16&#45;&gt;Node12</title>
<path fill="none" stroke="midnightblue" d="M198.25,-297.68C197.17,-279.27 198.7,-251.64 214.5,-235 236.39,-211.95 317.96,-198.02 376.34,-190.79"/>
<polygon fill="midnightblue" stroke="midnightblue" points="194.78,-298.13 199.16,-307.77 201.75,-297.5 194.78,-298.13"/>
</g>
<!-- Node17&#45;&gt;Node9 -->
<g id="edge21" class="edge">
<title>Node17&#45;&gt;Node9</title>
<path fill="none" stroke="midnightblue" d="M733.24,-303.77C751.43,-295.43 773.04,-282.91 787.5,-266 839.41,-205.28 857.83,-105.35 862.32,-75.61"/>
<polygon fill="midnightblue" stroke="midnightblue" points="731.6,-300.67 723.83,-307.86 734.4,-307.08 731.6,-300.67"/>
</g>
<!-- Node18 -->
<g id="node18" class="node">
<title>Node18</title>
<g id="a_node18"><a xlink:href="jwt__key__auto__refresh_8h.html" target="_top" xlink:title=" ">
<polygon fill="white" stroke="black" points="653,-235.5 653,-265.5 778,-265.5 778,-235.5 653,-235.5"/>
<text text-anchor="start" x="661" y="-253.5" font-family="Helvetica,sans-Serif" font-size="10.00">src/node/jwt_key_auto</text>
<text text-anchor="middle" x="715.5" y="-242.5" font-family="Helvetica,sans-Serif" font-size="10.00">_refresh.h</text>
</a>
</g>
</g>
<!-- Node17&#45;&gt;Node18 -->
<g id="edge22" class="edge">
<title>Node17&#45;&gt;Node18</title>
<path fill="none" stroke="midnightblue" d="M704.12,-297.74C706.64,-287.49 709.72,-275 712.03,-265.59"/>
<polygon fill="midnightblue" stroke="midnightblue" points="700.65,-297.19 701.66,-307.73 707.45,-298.86 700.65,-297.19"/>
</g>
<!-- Node18&#45;&gt;Node12 -->
<g id="edge23" class="edge">
<title>Node18&#45;&gt;Node12</title>
<path fill="none" stroke="midnightblue" d="M645.82,-233.15C591.46,-220.39 518.15,-203.19 474.85,-193.03"/>
<polygon fill="midnightblue" stroke="midnightblue" points="645.2,-236.6 655.74,-235.48 646.8,-229.78 645.2,-236.6"/>
</g>
<!-- Node19&#45;&gt;Node12 -->
<g id="edge26" class="edge">
<title>Node19&#45;&gt;Node12</title>
<path fill="none" stroke="midnightblue" d="M322.51,-231.62C353.48,-219.04 393.54,-202.77 417.56,-193.01"/>
<polygon fill="midnightblue" stroke="midnightblue" points="321.16,-228.39 313.22,-235.4 323.8,-234.87 321.16,-228.39"/>
</g>
<!-- Node20&#45;&gt;Node16 -->
<g id="edge28" class="edge">
<title>Node20&#45;&gt;Node16</title>
<path fill="none" stroke="midnightblue" d="M206.77,-359.25C205.04,-348.02 203.1,-335.38 201.84,-327.19"/>
<polygon fill="midnightblue" stroke="midnightblue" points="203.35,-360.04 208.33,-369.4 210.27,-358.98 203.35,-360.04"/>
</g>
<!-- Node21&#45;&gt;Node12 -->
<g id="edge31" class="edge">
<title>Node21&#45;&gt;Node12</title>
<path fill="none" stroke="midnightblue" d="M417.62,-231.29C423.19,-218.81 430.33,-202.81 434.65,-193.13"/>
<polygon fill="midnightblue" stroke="midnightblue" points="414.29,-230.18 413.41,-240.73 420.68,-233.03 414.29,-230.18"/>
</g>
<!-- Node22&#45;&gt;Node8 -->
<g id="edge33" class="edge">
<title>Node22&#45;&gt;Node8</title>
<path fill="none" stroke="midnightblue" d="M204.08,-907.85C187.56,-870.53 152.5,-782.13 152.5,-704 152.5,-704 152.5,-704 152.5,-640.5 152.5,-593.03 192.77,-546.97 211.33,-528.25"/>
<polygon fill="midnightblue" stroke="midnightblue" points="201.06,-909.68 208.38,-917.35 207.44,-906.79 201.06,-909.68"/>
</g>
<!-- Node23 -->
<g id="node23" class="node">
<title>Node23</title>
<g id="a_node23"><a xlink:href="tls__endpoint_8h.html" target="_top" xlink:title=" ">
<polygon fill="white" stroke="black" points="449.5,-861.5 449.5,-880.5 593.5,-880.5 593.5,-861.5 449.5,-861.5"/>
<text text-anchor="middle" x="521.5" y="-868.5" font-family="Helvetica,sans-Serif" font-size="10.00">src/enclave/tls_endpoint.h</text>
</a>
</g>
</g>
<!-- Node22&#45;&gt;Node23 -->
<g id="edge34" class="edge">
<title>Node22&#45;&gt;Node23</title>
<path fill="none" stroke="midnightblue" d="M270.28,-915.9C328.67,-905.7 417.91,-890.1 472.82,-880.51"/>
<polygon fill="midnightblue" stroke="midnightblue" points="269.35,-912.51 260.1,-917.68 270.56,-919.41 269.35,-912.51"/>
</g>
<!-- Node38 -->
<g id="node38" class="node">
<title>Node38</title>
<g id="a_node38"><a xlink:href="client_8h.html" target="_top" xlink:title=" ">
<polygon fill="white" stroke="black" points="0,-570.5 0,-589.5 85,-589.5 85,-570.5 0,-570.5"/>
<text text-anchor="middle" x="42.5" y="-577.5" font-family="Helvetica,sans-Serif" font-size="10.00">src/tls/client.h</text>
</a>
</g>
</g>
<!-- Node22&#45;&gt;Node38 -->
<g id="edge65" class="edge">
<title>Node22&#45;&gt;Node38</title>
<path fill="none" stroke="midnightblue" d="M154.95,-922.03C123.49,-916.94 86.05,-905.67 61.5,-881 40.27,-859.66 42.5,-846.1 42.5,-816 42.5,-816 42.5,-816 42.5,-702 42.5,-659.78 42.5,-609.26 42.5,-589.51"/>
<polygon fill="midnightblue" stroke="midnightblue" points="154.53,-925.5 164.93,-923.47 155.53,-918.57 154.53,-925.5"/>
</g>
<!-- Node39 -->
<g id="node39" class="node">
<title>Node39</title>
<g id="a_node39"><a xlink:href="plaintext__server_8h.html" target="_top" xlink:title=" ">
<polygon fill="white" stroke="black" points="181,-749.5 181,-768.5 318,-768.5 318,-749.5 181,-749.5"/>
<text text-anchor="middle" x="249.5" y="-756.5" font-family="Helvetica,sans-Serif" font-size="10.00">src/tls/plaintext_server.h</text>
</a>
</g>
</g>
<!-- Node22&#45;&gt;Node39 -->
<g id="edge68" class="edge">
<title>Node22&#45;&gt;Node39</title>
<path fill="none" stroke="midnightblue" d="M216.75,-906.93C224.78,-870.92 241.87,-794.23 247.59,-768.57"/>
<polygon fill="midnightblue" stroke="midnightblue" points="213.25,-906.55 214.49,-917.08 220.08,-908.08 213.25,-906.55"/>
</g>
<!-- Node40 -->
<g id="node40" class="node">
<title>Node40</title>
<g id="a_node40"><a xlink:href="server_8h.html" target="_top" xlink:title=" ">
<polygon fill="white" stroke="black" points="70.5,-861.5 70.5,-880.5 158.5,-880.5 158.5,-861.5 70.5,-861.5"/>
<text text-anchor="middle" x="114.5" y="-868.5" font-family="Helvetica,sans-Serif" font-size="10.00">src/tls/server.h</text>
</a>
</g>
</g>
<!-- Node22&#45;&gt;Node40 -->
<g id="edge70" class="edge">
<title>Node22&#45;&gt;Node40</title>
<path fill="none" stroke="midnightblue" d="M187.91,-912.45C169.82,-902.48 145.77,-889.23 130.21,-880.65"/>
<polygon fill="midnightblue" stroke="midnightblue" points="186.31,-915.56 196.75,-917.32 189.69,-909.43 186.31,-915.56"/>
</g>
<!-- Node24 -->
<g id="node24" class="node">
<title>Node24</title>
<g id="a_node24"><a xlink:href="http__parser_8h.html" target="_top" xlink:title=" ">
<polygon fill="white" stroke="black" points="545.5,-749.5 545.5,-768.5 665.5,-768.5 665.5,-749.5 545.5,-749.5"/>
<text text-anchor="middle" x="605.5" y="-756.5" font-family="Helvetica,sans-Serif" font-size="10.00">src/http/http_parser.h</text>
</a>
</g>
</g>
<!-- Node23&#45;&gt;Node24 -->
<g id="edge35" class="edge">
<title>Node23&#45;&gt;Node24</title>
<path fill="none" stroke="midnightblue" d="M523.99,-850.94C526.56,-837.13 531.63,-818.58 541.5,-805 553.31,-788.74 572.86,-776.24 587.25,-768.59"/>
<polygon fill="midnightblue" stroke="midnightblue" points="520.47,-850.78 522.38,-861.2 527.39,-851.87 520.47,-850.78"/>
</g>
<!-- Node37 -->
<g id="node37" class="node">
<title>Node37</title>
<g id="a_node37"><a xlink:href="http__proc_8h.html" target="_top" xlink:title=" ">
<polygon fill="white" stroke="black" points="550,-805.5 550,-824.5 661,-824.5 661,-805.5 550,-805.5"/>
<text text-anchor="middle" x="605.5" y="-812.5" font-family="Helvetica,sans-Serif" font-size="10.00">src/http/http_proc.h</text>
</a>
</g>
</g>
<!-- Node23&#45;&gt;Node37 -->
<g id="edge63" class="edge">
<title>Node23&#45;&gt;Node37</title>
<path fill="none" stroke="midnightblue" d="M543.43,-855.9C558.84,-846 578.95,-833.07 592.04,-824.65"/>
<polygon fill="midnightblue" stroke="midnightblue" points="541.52,-852.97 535,-861.32 545.3,-858.86 541.52,-852.97"/>
</g>
<!-- Node24&#45;&gt;Node3 -->
<g id="edge36" class="edge">
<title>Node24&#45;&gt;Node3</title>
<path fill="none" stroke="midnightblue" d="M672.02,-747.87C723.66,-739.62 796.92,-727.07 860.5,-713 936.69,-696.14 1023.97,-671.84 1076.63,-656.62"/>
<polygon fill="midnightblue" stroke="midnightblue" points="671.32,-744.44 661.99,-749.47 672.41,-751.36 671.32,-744.44"/>
</g>
<!-- Node25 -->
<g id="node25" class="node">
<title>Node25</title>
<g id="a_node25"><a xlink:href="http__endpoint_8h.html" target="_top" xlink:title=" ">
<polygon fill="white" stroke="black" points="338,-570.5 338,-589.5 471,-589.5 471,-570.5 338,-570.5"/>
<text text-anchor="middle" x="404.5" y="-577.5" font-family="Helvetica,sans-Serif" font-size="10.00">src/http/http_endpoint.h</text>
</a>
</g>
</g>
<!-- Node24&#45;&gt;Node25 -->
<g id="edge37" class="edge">
<title>Node24&#45;&gt;Node25</title>
<path fill="none" stroke="midnightblue" d="M550.08,-746.74C526.98,-739.93 501.04,-729.31 481.5,-713 439.33,-677.81 415.01,-613.23 407.25,-589.79"/>
<polygon fill="midnightblue" stroke="midnightblue" points="549.21,-750.13 559.78,-749.43 551.08,-743.39 549.21,-750.13"/>
</g>
<!-- Node26 -->
<g id="node26" class="node">
<title>Node26</title>
<g id="a_node26"><a xlink:href="http__jwt_8h.html" target="_top" xlink:title=" ">
<polygon fill="white" stroke="black" points="553,-693.5 553,-712.5 658,-712.5 658,-693.5 553,-693.5"/>
<text text-anchor="middle" x="605.5" y="-700.5" font-family="Helvetica,sans-Serif" font-size="10.00">src/http/http_jwt.h</text>
</a>
</g>
</g>
<!-- Node24&#45;&gt;Node26 -->
<g id="edge39" class="edge">
<title>Node24&#45;&gt;Node26</title>
<path fill="none" stroke="midnightblue" d="M605.5,-738.8C605.5,-729.91 605.5,-719.78 605.5,-712.75"/>
<polygon fill="midnightblue" stroke="midnightblue" points="602,-739.08 605.5,-749.08 609,-739.08 602,-739.08"/>
</g>
<!-- Node32 -->
<g id="node32" class="node">
<title>Node32</title>
<g id="a_node32"><a xlink:href="http__rpc__context_8h.html" target="_top" xlink:title=" ">
<polygon fill="white" stroke="black" points="697,-632 697,-651 844,-651 844,-632 697,-632"/>
<text text-anchor="middle" x="770.5" y="-639" font-family="Helvetica,sans-Serif" font-size="10.00">src/http/http_rpc_context.h</text>
</a>
</g>
</g>
<!-- Node24&#45;&gt;Node32 -->
<g id="edge51" class="edge">
<title>Node24&#45;&gt;Node32</title>
<path fill="none" stroke="midnightblue" d="M626.35,-743.41C661.08,-719.1 729.75,-671.03 757.95,-651.28"/>
<polygon fill="midnightblue" stroke="midnightblue" points="624.09,-740.72 617.9,-749.32 628.1,-746.45 624.09,-740.72"/>
</g>
<!-- Node34 -->
<g id="node34" class="node">
<title>Node34</title>
<g id="a_node34"><a xlink:href="http__sig_8h.html" target="_top" xlink:title=" ">
<polygon fill="white" stroke="black" points="747.5,-693.5 747.5,-712.5 851.5,-712.5 851.5,-693.5 747.5,-693.5"/>
<text text-anchor="middle" x="799.5" y="-700.5" font-family="Helvetica,sans-Serif" font-size="10.00">src/http/http_sig.h</text>
</a>
</g>
</g>
<!-- Node24&#45;&gt;Node34 -->
<g id="edge57" class="edge">
<title>Node24&#45;&gt;Node34</title>
<path fill="none" stroke="midnightblue" d="M646.1,-746.7C682.72,-736.51 735.76,-721.74 768.9,-712.52"/>
<polygon fill="midnightblue" stroke="midnightblue" points="644.94,-743.39 636.24,-749.44 646.81,-750.13 644.94,-743.39"/>
</g>
<!-- Node36 -->
<g id="node36" class="node">
<title>Node36</title>
<g id="a_node36"><a xlink:href="acme__client_8h.html" target="_top" xlink:title=" ">
<polygon fill="white" stroke="black" points="435,-509 435,-528 564,-528 564,-509 435,-509"/>
<text text-anchor="middle" x="499.5" y="-516" font-family="Helvetica,sans-Serif" font-size="10.00">src/node/acme_client.h</text>
</a>
</g>
</g>
<!-- Node24&#45;&gt;Node36 -->
<g id="edge61" class="edge">
<title>Node24&#45;&gt;Node36</title>
<path fill="none" stroke="midnightblue" d="M581.4,-743.94C569.25,-735.99 554.92,-725.2 544.5,-713 496.14,-656.33 497.35,-557.54 498.91,-528.05"/>
<polygon fill="midnightblue" stroke="midnightblue" points="579.84,-747.09 590.17,-749.45 583.56,-741.16 579.84,-747.09"/>
</g>
<!-- Node25&#45;&gt;Node8 -->
<g id="edge38" class="edge">
<title>Node25&#45;&gt;Node8</title>
<path fill="none" stroke="midnightblue" d="M368.57,-567.38C332.8,-555.82 278.76,-538.34 246.81,-528.01"/>
<polygon fill="midnightblue" stroke="midnightblue" points="367.55,-570.73 378.14,-570.48 369.7,-564.07 367.55,-570.73"/>
</g>
<!-- Node27 -->
<g id="node27" class="node">
<title>Node27</title>
<g id="a_node27"><a xlink:href="jwt__auth_8cpp.html" target="_top" xlink:title=" ">
<polygon fill="white" stroke="black" points="524,-626.5 524,-656.5 679,-656.5 679,-626.5 524,-626.5"/>
<text text-anchor="start" x="532" y="-644.5" font-family="Helvetica,sans-Serif" font-size="10.00">src/endpoints/authentication</text>
<text text-anchor="middle" x="601.5" y="-633.5" font-family="Helvetica,sans-Serif" font-size="10.00">/jwt_auth.cpp</text>
</a>
</g>
</g>
<!-- Node26&#45;&gt;Node27 -->
<g id="edge40" class="edge">
<title>Node26&#45;&gt;Node27</title>
<path fill="none" stroke="midnightblue" d="M604.24,-683.23C603.66,-674.59 602.98,-664.5 602.44,-656.52"/>
<polygon fill="midnightblue" stroke="midnightblue" points="600.76,-683.73 604.93,-693.48 607.75,-683.26 600.76,-683.73"/>
</g>
<!-- Node28 -->
<g id="node28" class="node">
<title>Node28</title>
<g id="a_node28"><a xlink:href="frontend_8h.html" target="_top" xlink:title=" ">
<polygon fill="white" stroke="black" points="900,-375 900,-394 1029,-394 1029,-375 900,-375"/>
<text text-anchor="middle" x="964.5" y="-382" font-family="Helvetica,sans-Serif" font-size="10.00">src/node/rpc/frontend.h</text>
</a>
</g>
</g>
<!-- Node26&#45;&gt;Node28 -->
<g id="edge41" class="edge">
<title>Node26&#45;&gt;Node28</title>
<path fill="none" stroke="midnightblue" d="M668.17,-698.27C732.65,-693.13 827.28,-681.56 853.5,-657 878.91,-633.2 872.5,-615.82 872.5,-581 872.5,-581 872.5,-581 872.5,-517.5 872.5,-480.31 870.58,-466.75 891.5,-436 904.67,-416.63 927.94,-402.46 944.67,-394.14"/>
<polygon fill="midnightblue" stroke="midnightblue" points="667.8,-694.78 658.09,-699.04 668.33,-701.76 667.8,-694.78"/>
</g>
<!-- Node28&#45;&gt;Node12 -->
<g id="edge45" class="edge">
<title>Node28&#45;&gt;Node12</title>
<path fill="none" stroke="midnightblue" d="M964.78,-364.62C964.06,-346.58 960.3,-319.59 945.5,-302 896.4,-243.63 860.96,-255.52 787.5,-235 689.32,-207.58 571.22,-194.46 500.65,-188.65"/>
<polygon fill="midnightblue" stroke="midnightblue" points="961.28,-364.81 964.9,-374.77 968.28,-364.73 961.28,-364.81"/>
</g>
<!-- Node28&#45;&gt;Node17 -->
<g id="edge48" class="edge">
<title>Node28&#45;&gt;Node17</title>
<path fill="none" stroke="midnightblue" d="M919.59,-372.48C867.32,-359.66 782.1,-338.76 734.49,-327.08"/>
<polygon fill="midnightblue" stroke="midnightblue" points="919.04,-375.95 929.58,-374.94 920.71,-369.15 919.04,-375.95"/>
</g>
<!-- Node29 -->
<g id="node29" class="node">
<title>Node29</title>
<g id="a_node29"><a xlink:href="acme__challenge__frontend_8h.html" target="_top" xlink:title=" ">
<polygon fill="white" stroke="black" points="796.5,-302.5 796.5,-332.5 936.5,-332.5 936.5,-302.5 796.5,-302.5"/>
<text text-anchor="start" x="804.5" y="-320.5" font-family="Helvetica,sans-Serif" font-size="10.00">src/node/acme_challenge</text>
<text text-anchor="middle" x="866.5" y="-309.5" font-family="Helvetica,sans-Serif" font-size="10.00">_frontend.h</text>
</a>
</g>
</g>
<!-- Node28&#45;&gt;Node29 -->
<g id="edge42" class="edge">
<title>Node28&#45;&gt;Node29</title>
<path fill="none" stroke="midnightblue" d="M942.87,-369.15C926.47,-358.27 904.05,-343.4 887.74,-332.59"/>
<polygon fill="midnightblue" stroke="midnightblue" points="941.02,-372.12 951.28,-374.73 944.88,-366.29 941.02,-372.12"/>
</g>
<!-- Node30 -->
<g id="node30" class="node">
<title>Node30</title>
<g id="a_node30"><a xlink:href="member__frontend_8h.html" target="_top" xlink:title=" ">
<polygon fill="white" stroke="black" points="1030.5,-168.5 1030.5,-198.5 1150.5,-198.5 1150.5,-168.5 1030.5,-168.5"/>
<text text-anchor="start" x="1038.5" y="-186.5" font-family="Helvetica,sans-Serif" font-size="10.00">src/node/rpc/member</text>
<text text-anchor="middle" x="1090.5" y="-175.5" font-family="Helvetica,sans-Serif" font-size="10.00">_frontend.h</text>
</a>
</g>
</g>
<!-- Node28&#45;&gt;Node30 -->
<g id="edge46" class="edge">
<title>Node28&#45;&gt;Node30</title>
<path fill="none" stroke="midnightblue" d="M983.41,-367.97C994.03,-358.6 1007.01,-345.99 1016.5,-333 1049.3,-288.12 1074.71,-226.51 1085.22,-198.9"/>
<polygon fill="midnightblue" stroke="midnightblue" points="980.83,-365.57 975.52,-374.73 985.39,-370.88 980.83,-365.57"/>
</g>
<!-- Node31 -->
<g id="node31" class="node">
<title>Node31</title>
<g id="a_node31"><a xlink:href="user__frontend_8h.html" target="_top" xlink:title=" ">
<polygon fill="white" stroke="black" points="911,-112.5 911,-131.5 1066,-131.5 1066,-112.5 911,-112.5"/>
<text text-anchor="middle" x="988.5" y="-119.5" font-family="Helvetica,sans-Serif" font-size="10.00">src/node/rpc/user_frontend.h</text>
</a>
</g>
</g>
<!-- Node28&#45;&gt;Node31 -->
<g id="edge49" class="edge">
<title>Node28&#45;&gt;Node31</title>
<path fill="none" stroke="midnightblue" d="M966.23,-364.72C971.02,-312.77 984.3,-168.61 987.7,-131.7"/>
<polygon fill="midnightblue" stroke="midnightblue" points="962.73,-364.55 965.3,-374.83 969.7,-365.2 962.73,-364.55"/>
</g>
<!-- Node29&#45;&gt;Node9 -->
<g id="edge43" class="edge">
<title>Node29&#45;&gt;Node9</title>
<path fill="none" stroke="midnightblue" d="M866.21,-292.36C865.56,-238.56 864.03,-110.81 863.61,-75.93"/>
<polygon fill="midnightblue" stroke="midnightblue" points="862.71,-292.41 866.33,-302.37 869.71,-292.33 862.71,-292.41"/>
</g>
<!-- Node29&#45;&gt;Node11 -->
<g id="edge44" class="edge">
<title>Node29&#45;&gt;Node11</title>
<path fill="none" stroke="midnightblue" d="M790.64,-300.39C730.49,-287.61 648.79,-270.25 600.65,-260.03"/>
<polygon fill="midnightblue" stroke="midnightblue" points="789.97,-303.82 800.48,-302.48 791.42,-296.97 789.97,-303.82"/>
</g>
<!-- Node30&#45;&gt;Node9 -->
<g id="edge47" class="edge">
<title>Node30&#45;&gt;Node9</title>
<path fill="none" stroke="midnightblue" d="M1091.61,-157.93C1090.93,-142.72 1087.39,-123.89 1075.5,-112 1054.61,-91.12 979.61,-78.93 924.72,-72.62"/>
<polygon fill="midnightblue" stroke="midnightblue" points="1088.12,-158.24 1091.68,-168.22 1095.11,-158.2 1088.12,-158.24"/>
</g>
<!-- Node31&#45;&gt;Node9 -->
<g id="edge50" class="edge">
<title>Node31&#45;&gt;Node9</title>
<path fill="none" stroke="midnightblue" d="M959.26,-108.37C935.85,-98.26 903.66,-84.35 883.21,-75.52"/>
<polygon fill="midnightblue" stroke="midnightblue" points="958.13,-111.69 968.69,-112.44 960.9,-105.26 958.13,-111.69"/>
</g>
<!-- Node32&#45;&gt;Node18 -->
<g id="edge53" class="edge">
<title>Node32&#45;&gt;Node18</title>
<path fill="none" stroke="midnightblue" d="M720.24,-629.23C667.6,-614.1 592.5,-581.63 592.5,-519.5 592.5,-519.5 592.5,-519.5 592.5,-383.5 592.5,-346.31 588.29,-331.06 611.5,-302 625.09,-284.98 645.84,-273.32 665.24,-265.53"/>
<polygon fill="midnightblue" stroke="midnightblue" points="719.54,-632.66 730.11,-631.94 721.39,-625.91 719.54,-632.66"/>
</g>
<!-- Node32&#45;&gt;Node25 -->
<g id="edge52" class="edge">
<title>Node32&#45;&gt;Node25</title>
<path fill="none" stroke="midnightblue" d="M713.25,-630.24C704.95,-628.79 696.51,-627.34 688.5,-626 609.23,-612.71 517.34,-598.34 460.06,-589.5"/>
<polygon fill="midnightblue" stroke="midnightblue" points="712.81,-633.72 723.26,-632 714.02,-626.82 712.81,-633.72"/>
</g>
<!-- Node33 -->
<g id="node33" class="node">
<title>Node33</title>
<g id="a_node33"><a xlink:href="forwarder_8h.html" target="_top" xlink:title=" ">
<polygon fill="white" stroke="black" points="900.5,-442 900.5,-461 1034.5,-461 1034.5,-442 900.5,-442"/>
<text text-anchor="middle" x="967.5" y="-449" font-family="Helvetica,sans-Serif" font-size="10.00">src/node/rpc/forwarder.h</text>
</a>
</g>
</g>
<!-- Node32&#45;&gt;Node33 -->
<g id="edge54" class="edge">
<title>Node32&#45;&gt;Node33</title>
<path fill="none" stroke="midnightblue" d="M786.78,-624.96C826.56,-587 927.69,-490.49 958.47,-461.12"/>
<polygon fill="midnightblue" stroke="midnightblue" points="784.29,-622.5 779.48,-631.93 789.13,-627.56 784.29,-622.5"/>
</g>
<!-- Node33&#45;&gt;Node9 -->
<g id="edge55" class="edge">
<title>Node33&#45;&gt;Node9</title>
<path fill="none" stroke="midnightblue" d="M1027,-439.72C1089.41,-424.58 1178.5,-390.38 1178.5,-318.5 1178.5,-318.5 1178.5,-318.5 1178.5,-182.5 1178.5,-133.76 1138.49,-132.99 1094.5,-112 1040.66,-86.3 973.1,-75.28 924.98,-70.55"/>
<polygon fill="midnightblue" stroke="midnightblue" points="1026.19,-436.32 1017.24,-441.99 1027.77,-443.13 1026.19,-436.32"/>
</g>
<!-- Node33&#45;&gt;Node28 -->
<g id="edge56" class="edge">
<title>Node33&#45;&gt;Node28</title>
<path fill="none" stroke="midnightblue" d="M966.62,-431.54C966.05,-419.17 965.34,-403.62 964.9,-394.13"/>
<polygon fill="midnightblue" stroke="midnightblue" points="963.14,-431.91 967.1,-441.73 970.13,-431.58 963.14,-431.91"/>
</g>
<!-- Node34&#45;&gt;Node3 -->
<g id="edge58" class="edge">
<title>Node34&#45;&gt;Node3</title>
<path fill="none" stroke="midnightblue" d="M861.82,-692.78C915.88,-684.47 996.13,-671.37 1065.5,-657 1068.19,-656.44 1070.93,-655.85 1073.71,-655.23"/>
<polygon fill="midnightblue" stroke="midnightblue" points="861.06,-689.36 851.7,-694.33 862.11,-696.28 861.06,-689.36"/>
</g>
<!-- Node34&#45;&gt;Node32 -->
<g id="edge60" class="edge">
<title>Node34&#45;&gt;Node32</title>
<path fill="none" stroke="midnightblue" d="M790.89,-684.33C785.53,-673.33 778.87,-659.66 774.65,-651.01"/>
<polygon fill="midnightblue" stroke="midnightblue" points="787.82,-686.02 795.35,-693.48 794.11,-682.95 787.82,-686.02"/>
</g>
<!-- Node35 -->
<g id="node35" class="node">
<title>Node35</title>
<g id="a_node35"><a xlink:href="sig__auth_8cpp.html" target="_top" xlink:title=" ">
<polygon fill="white" stroke="black" points="901,-626.5 901,-656.5 1056,-656.5 1056,-626.5 901,-626.5"/>
<text text-anchor="start" x="909" y="-644.5" font-family="Helvetica,sans-Serif" font-size="10.00">src/endpoints/authentication</text>
<text text-anchor="middle" x="978.5" y="-633.5" font-family="Helvetica,sans-Serif" font-size="10.00">/sig_auth.cpp</text>
</a>
</g>
</g>
<!-- Node34&#45;&gt;Node35 -->
<g id="edge59" class="edge">
<title>Node34&#45;&gt;Node35</title>
<path fill="none" stroke="midnightblue" d="M834.91,-690.23C864.06,-680.54 905.45,-666.78 936.31,-656.52"/>
<polygon fill="midnightblue" stroke="midnightblue" points="833.53,-687 825.15,-693.48 835.74,-693.64 833.53,-687"/>
</g>
<!-- Node36&#45;&gt;Node11 -->
<g id="edge62" class="edge">
<title>Node36&#45;&gt;Node11</title>
<path fill="none" stroke="midnightblue" d="M512.45,-500.42C518.9,-491.03 526.23,-478.91 530.5,-467 558.05,-390.2 560.47,-289.58 560.55,-260.01"/>
<polygon fill="midnightblue" stroke="midnightblue" points="509.43,-498.61 506.43,-508.77 515.11,-502.71 509.43,-498.61"/>
</g>
<!-- Node37&#45;&gt;Node24 -->
<g id="edge64" class="edge">
<title>Node37&#45;&gt;Node24</title>
<path fill="none" stroke="midnightblue" d="M605.5,-794.8C605.5,-785.91 605.5,-775.78 605.5,-768.75"/>
<polygon fill="midnightblue" stroke="midnightblue" points="602,-795.08 605.5,-805.08 609,-795.08 602,-795.08"/>
</g>
<!-- Node38&#45;&gt;Node8 -->
<g id="edge66" class="edge">
<title>Node38&#45;&gt;Node8</title>
<path fill="none" stroke="midnightblue" d="M77.71,-567.23C112.31,-555.67 164.27,-538.3 195.04,-528.01"/>
<polygon fill="midnightblue" stroke="midnightblue" points="76.38,-563.99 68,-570.48 78.6,-570.62 76.38,-563.99"/>
</g>
<!-- Node38&#45;&gt;Node12 -->
<g id="edge67" class="edge">
<title>Node38&#45;&gt;Node12</title>
<path fill="none" stroke="midnightblue" d="M42.5,-560.3C42.5,-535.62 42.5,-490.8 42.5,-452.5 42.5,-452.5 42.5,-452.5 42.5,-316.5 42.5,-270.72 66.04,-258.21 105.5,-235 150.23,-208.69 293.02,-194.59 376.39,-188.41"/>
<polygon fill="midnightblue" stroke="midnightblue" points="39,-560.41 42.5,-570.41 46,-560.41 39,-560.41"/>
</g>
<!-- Node39&#45;&gt;Node8 -->
<g id="edge69" class="edge">
<title>Node39&#45;&gt;Node8</title>
<path fill="none" stroke="midnightblue" d="M247.21,-739.17C241.3,-690.6 225.73,-562.49 221.55,-528.1"/>
<polygon fill="midnightblue" stroke="midnightblue" points="243.75,-739.72 248.43,-749.23 250.7,-738.88 243.75,-739.72"/>
</g>
<!-- Node40&#45;&gt;Node8 -->
<g id="edge71" class="edge">
<title>Node40&#45;&gt;Node8</title>
<path fill="none" stroke="midnightblue" d="M114.5,-851.25C114.5,-829.36 114.5,-792.05 114.5,-760 114.5,-760 114.5,-760 114.5,-640.5 114.5,-607.4 117.86,-595.87 138.5,-570 154.25,-550.27 179.95,-536.24 198.38,-528.06"/>
<polygon fill="midnightblue" stroke="midnightblue" points="111,-851.44 114.5,-861.44 118,-851.44 111,-851.44"/>
</g>
</g>
</svg>
        <g id="navigator" transform="translate(0 0)" fill="#404254">
                <rect fill="#f2f5e9" fill-opacity="0.5" stroke="#606060" stroke-width=".5" x="0" y="0" width="60" height="60"/>
                <use id="zoomplus" xlink:href="#zoomPlus" x="17" y="9" onmousedown="handleZoom(evt,'in')"/>
                <use id="zoomminus" xlink:href="#zoomMin" x="42" y="9" onmousedown="handleZoom(evt,'out')"/>
                <use id="reset" xlink:href="#resetDef" x="30" y="36" onmousedown="handleReset()"/>
                <g id="arrowUp" xlink:href="#dirArrow" transform="translate(30 24)" onmousedown="handlePan(0,-1)">
                  <use xlink:href="#rim" fill="#404040">
                        <set attributeName="fill" to="#808080" begin="arrowUp.mouseover" end="arrowUp.mouseout"/>
                  </use>
                  <path fill="none" stroke="white" stroke-width="1.5" d="M0,-3.0v7 M-2.5,-0.5L0,-3.0L2.5,-0.5"/>
                </g>
                <g id="arrowRight" xlink:href="#dirArrow" transform="rotate(90) translate(36 -43)" onmousedown="handlePan(1,0)">
                  <use xlink:href="#rim" fill="#404040">
                        <set attributeName="fill" to="#808080" begin="arrowRight.mouseover" end="arrowRight.mouseout"/>
                  </use>
                  <path fill="none" stroke="white" stroke-width="1.5" d="M0,-3.0v7 M-2.5,-0.5L0,-3.0L2.5,-0.5"/>
                </g>
                <g id="arrowDown" xlink:href="#dirArrow" transform="rotate(180) translate(-30 -48)" onmousedown="handlePan(0,1)">
                  <use xlink:href="#rim" fill="#404040">
                        <set attributeName="fill" to="#808080" begin="arrowDown.mouseover" end="arrowDown.mouseout"/>
                  </use>
                  <path fill="none" stroke="white" stroke-width="1.5" d="M0,-3.0v7 M-2.5,-0.5L0,-3.0L2.5,-0.5"/>
                </g>
                <g id="arrowLeft" xlink:href="#dirArrow" transform="rotate(270) translate(-36 17)" onmousedown="handlePan(-1,0)">
                  <use xlink:href="#rim" fill="#404040">
                        <set attributeName="fill" to="#808080" begin="arrowLeft.mouseover" end="arrowLeft.mouseout"/>
                  </use>
                  <path fill="none" stroke="white" stroke-width="1.5" d="M0,-3.0v7 M-2.5,-0.5L0,-3.0L2.5,-0.5"/>
                </g>
        </g>
        <svg viewBox="0 0 15 15" width="100%" height="30px" preserveAspectRatio="xMaxYMin meet">
         <g id="arrow_out" transform="scale(0.3 0.3)">
          <a xlink:href="cert_8h__dep__incl_org.svg" target="_base">
           <rect id="button" ry="5" rx="5" y="6" x="6" height="38" width="38"
                fill="#f2f5e9" fill-opacity="0.5" stroke="#606060" stroke-width="1.0"/>
           <path id="arrow"
             d="M 11.500037,31.436501 C 11.940474,20.09759 22.043105,11.32322 32.158766,21.979434 L 37.068811,17.246167 C 37.068811,17.246167 37.088388,32 37.088388,32 L 22.160133,31.978069 C 22.160133,31.978069 26.997745,27.140456 26.997745,27.140456 C 18.528582,18.264221 13.291696,25.230495 11.500037,31.436501 z"
             style="fill:#404040;"/>
          </a>
         </g>
        </svg>
</svg>
