<?xml version="1.0" encoding="UTF-8" standalone="no"?>
<!DOCTYPE svg PUBLIC "-//W3C//DTD SVG 1.1//EN"
 "http://www.w3.org/Graphics/SVG/1.1/DTD/svg11.dtd">
<!-- Generated by graphviz version 2.43.0 (0)
 -->
<!-- Title: src/tls/context.h Pages: 1 -->
<svg width="1368pt" height="945pt"
 viewBox="0.00 0.00 1368.00 945.00" xmlns="http://www.w3.org/2000/svg" xmlns:xlink="http://www.w3.org/1999/xlink">
<g id="graph0" class="graph" transform="scale(1 1) rotate(0) translate(4 941)">
<title>src/tls/context.h</title>
<polygon fill="white" stroke="transparent" points="-4,4 -4,-941 1364,-941 1364,4 -4,4"/>
<!-- Node1 -->
<g id="node1" class="node">
<title>Node1</title>
<g id="a_node1"><a xlink:title=" ">
<polygon fill="#bfbfbf" stroke="black" points="1126,-917.5 1126,-936.5 1221,-936.5 1221,-917.5 1126,-917.5"/>
<text text-anchor="middle" x="1173.5" y="-924.5" font-family="Helvetica,sans-Serif" font-size="10.00">src/tls/context.h</text>
</a>
</g>
</g>
<!-- Node2 -->
<g id="node2" class="node">
<title>Node2</title>
<g id="a_node2"><a xlink:href="rpc__sessions_8h.html" target="_top" xlink:title=" ">
<polygon fill="white" stroke="black" points="1118.5,-509 1118.5,-528 1264.5,-528 1264.5,-509 1118.5,-509"/>
<text text-anchor="middle" x="1191.5" y="-516" font-family="Helvetica,sans-Serif" font-size="10.00">src/enclave/rpc_sessions.h</text>
</a>
</g>
</g>
<!-- Node1&#45;&gt;Node2 -->
<g id="edge1" class="edge">
<title>Node1&#45;&gt;Node2</title>
<path fill="none" stroke="midnightblue" d="M1148.74,-912.21C1120.01,-894.17 1076.5,-859.65 1076.5,-816 1076.5,-816 1076.5,-816 1076.5,-640.5 1076.5,-585 1140.85,-544.83 1173.28,-528.1"/>
<polygon fill="midnightblue" stroke="midnightblue" points="1147.11,-915.32 1157.48,-917.48 1150.73,-909.32 1147.11,-915.32"/>
</g>
<!-- Node16 -->
<g id="node16" class="node">
<title>Node16</title>
<g id="a_node16"><a xlink:href="tls__endpoint_8h.html" target="_top" xlink:title=" ">
<polygon fill="white" stroke="black" points="776.5,-861.5 776.5,-880.5 920.5,-880.5 920.5,-861.5 776.5,-861.5"/>
<text text-anchor="middle" x="848.5" y="-868.5" font-family="Helvetica,sans-Serif" font-size="10.00">src/enclave/tls_endpoint.h</text>
</a>
</g>
</g>
<!-- Node1&#45;&gt;Node16 -->
<g id="edge25" class="edge">
<title>Node1&#45;&gt;Node16</title>
<path fill="none" stroke="midnightblue" d="M1115.99,-916.44C1054.68,-906.26 958.51,-890.28 899.72,-880.51"/>
<polygon fill="midnightblue" stroke="midnightblue" points="1115.46,-919.9 1125.89,-918.09 1116.6,-913 1115.46,-919.9"/>
</g>
<!-- Node36 -->
<g id="node36" class="node">
<title>Node36</title>
<g id="a_node36"><a xlink:href="client_8h.html" target="_top" xlink:title=" ">
<polygon fill="white" stroke="black" points="1275,-570.5 1275,-589.5 1360,-589.5 1360,-570.5 1275,-570.5"/>
<text text-anchor="middle" x="1317.5" y="-577.5" font-family="Helvetica,sans-Serif" font-size="10.00">src/tls/client.h</text>
</a>
</g>
</g>
<!-- Node1&#45;&gt;Node36 -->
<g id="edge61" class="edge">
<title>Node1&#45;&gt;Node36</title>
<path fill="none" stroke="midnightblue" d="M1214.33,-914.15C1256.91,-898.99 1317.5,-868.24 1317.5,-816 1317.5,-816 1317.5,-816 1317.5,-702 1317.5,-659.78 1317.5,-609.26 1317.5,-589.51"/>
<polygon fill="midnightblue" stroke="midnightblue" points="1213.09,-910.88 1204.75,-917.42 1215.34,-917.51 1213.09,-910.88"/>
</g>
<!-- Node37 -->
<g id="node37" class="node">
<title>Node37</title>
<g id="a_node37"><a xlink:href="plaintext__server_8h.html" target="_top" xlink:title=" ">
<polygon fill="white" stroke="black" points="1105,-805.5 1105,-824.5 1242,-824.5 1242,-805.5 1105,-805.5"/>
<text text-anchor="middle" x="1173.5" y="-812.5" font-family="Helvetica,sans-Serif" font-size="10.00">src/tls/plaintext_server.h</text>
</a>
</g>
</g>
<!-- Node1&#45;&gt;Node37 -->
<g id="edge64" class="edge">
<title>Node1&#45;&gt;Node37</title>
<path fill="none" stroke="midnightblue" d="M1173.5,-907.35C1173.5,-883.25 1173.5,-842.31 1173.5,-824.59"/>
<polygon fill="midnightblue" stroke="midnightblue" points="1170,-907.37 1173.5,-917.37 1177,-907.37 1170,-907.37"/>
</g>
<!-- Node38 -->
<g id="node38" class="node">
<title>Node38</title>
<g id="a_node38"><a xlink:href="server_8h.html" target="_top" xlink:title=" ">
<polygon fill="white" stroke="black" points="1201.5,-749.5 1201.5,-768.5 1289.5,-768.5 1289.5,-749.5 1201.5,-749.5"/>
<text text-anchor="middle" x="1245.5" y="-756.5" font-family="Helvetica,sans-Serif" font-size="10.00">src/tls/server.h</text>
</a>
</g>
</g>
<!-- Node1&#45;&gt;Node38 -->
<g id="edge66" class="edge">
<title>Node1&#45;&gt;Node38</title>
<path fill="none" stroke="midnightblue" d="M1190.63,-910.56C1209.5,-892.29 1238.71,-859.91 1250.5,-825 1257.02,-805.7 1251.9,-781.4 1248.28,-768.68"/>
<polygon fill="midnightblue" stroke="midnightblue" points="1188.15,-908.09 1183.27,-917.49 1192.95,-913.19 1188.15,-908.09"/>
</g>
<!-- Node3 -->
<g id="node3" class="node">
<title>Node3</title>
<g id="a_node3"><a xlink:href="enclave_2enclave_8h.html" target="_top" xlink:title=" ">
<polygon fill="white" stroke="black" points="481.5,-56.5 481.5,-75.5 603.5,-75.5 603.5,-56.5 481.5,-56.5"/>
<text text-anchor="middle" x="542.5" y="-63.5" font-family="Helvetica,sans-Serif" font-size="10.00">src/enclave/enclave.h</text>
</a>
</g>
</g>
<!-- Node2&#45;&gt;Node3 -->
<g id="edge2" class="edge">
<title>Node2&#45;&gt;Node3</title>
<path fill="none" stroke="midnightblue" d="M1212.37,-502.75C1223.75,-493.67 1237.17,-481.09 1245.5,-467 1297.98,-378.19 1318.62,-314.18 1252.5,-235 1168.88,-134.85 760.1,-87.1 603.6,-72.26"/>
<polygon fill="midnightblue" stroke="midnightblue" points="1210.02,-500.14 1204.18,-508.98 1214.26,-505.71 1210.02,-500.14"/>
</g>
<!-- Node5 -->
<g id="node5" class="node">
<title>Node5</title>
<g id="a_node5"><a xlink:href="ccf__acme__client_8h.html" target="_top" xlink:title=" ">
<polygon fill="white" stroke="black" points="738,-241 738,-260 887,-260 887,-241 738,-241"/>
<text text-anchor="middle" x="812.5" y="-248" font-family="Helvetica,sans-Serif" font-size="10.00">src/node/ccf_acme_client.h</text>
</a>
</g>
</g>
<!-- Node2&#45;&gt;Node5 -->
<g id="edge4" class="edge">
<title>Node2&#45;&gt;Node5</title>
<path fill="none" stroke="midnightblue" d="M1117.57,-507.39C1070.02,-499.52 1007.45,-486.59 954.5,-467 896.12,-445.4 866.63,-451.39 831.5,-400 800.84,-355.15 807.58,-284.56 811.09,-260.14"/>
<polygon fill="midnightblue" stroke="midnightblue" points="1117.04,-510.85 1127.48,-508.99 1118.16,-503.94 1117.04,-510.85"/>
</g>
<!-- Node6 -->
<g id="node6" class="node">
<title>Node6</title>
<g id="a_node6"><a xlink:href="node__state_8h.html" target="_top" xlink:title=" ">
<polygon fill="white" stroke="black" points="890.5,-174 890.5,-193 1014.5,-193 1014.5,-174 890.5,-174"/>
<text text-anchor="middle" x="952.5" y="-181" font-family="Helvetica,sans-Serif" font-size="10.00">src/node/node_state.h</text>
</a>
</g>
</g>
<!-- Node2&#45;&gt;Node6 -->
<g id="edge22" class="edge">
<title>Node2&#45;&gt;Node6</title>
<path fill="none" stroke="midnightblue" d="M1204.31,-500.35C1221.11,-476.1 1248.5,-429.79 1248.5,-385.5 1248.5,-385.5 1248.5,-385.5 1248.5,-316.5 1248.5,-279.2 1255.65,-260.57 1228.5,-235 1198.36,-206.61 1086.54,-193.66 1014.81,-188.16"/>
<polygon fill="midnightblue" stroke="midnightblue" points="1201.24,-498.62 1198.26,-508.79 1206.93,-502.7 1201.24,-498.62"/>
</g>
<!-- Node8 -->
<g id="node8" class="node">
<title>Node8</title>
<g id="a_node8"><a xlink:href="node__client_8h.html" target="_top" xlink:title=" ">
<polygon fill="white" stroke="black" points="963.5,-442 963.5,-461 1089.5,-461 1089.5,-442 963.5,-442"/>
<text text-anchor="middle" x="1026.5" y="-449" font-family="Helvetica,sans-Serif" font-size="10.00">src/node/node_client.h</text>
</a>
</g>
</g>
<!-- Node2&#45;&gt;Node8 -->
<g id="edge9" class="edge">
<title>Node2&#45;&gt;Node8</title>
<path fill="none" stroke="midnightblue" d="M1160.03,-505.1C1127.27,-492.2 1076.83,-472.33 1048.24,-461.06"/>
<polygon fill="midnightblue" stroke="midnightblue" points="1159,-508.46 1169.59,-508.87 1161.57,-501.95 1159,-508.46"/>
</g>
<!-- Node15 -->
<g id="node15" class="node">
<title>Node15</title>
<g id="a_node15"><a xlink:href="resharing_8h.html" target="_top" xlink:title=" ">
<polygon fill="white" stroke="black" points="1103.5,-241 1103.5,-260 1219.5,-260 1219.5,-241 1103.5,-241"/>
<text text-anchor="middle" x="1161.5" y="-248" font-family="Helvetica,sans-Serif" font-size="10.00">src/node/resharing.h</text>
</a>
</g>
</g>
<!-- Node2&#45;&gt;Node15 -->
<g id="edge23" class="edge">
<title>Node2&#45;&gt;Node15</title>
<path fill="none" stroke="midnightblue" d="M1193,-498.68C1194.91,-470.4 1197.32,-415.31 1191.5,-369 1186.28,-327.43 1171.05,-279.49 1164.52,-260.2"/>
<polygon fill="midnightblue" stroke="midnightblue" points="1189.5,-498.52 1192.26,-508.75 1196.48,-499.03 1189.5,-498.52"/>
</g>
<!-- Node4 -->
<g id="node4" class="node">
<title>Node4</title>
<g id="a_node4"><a xlink:href="enclave_2main_8cpp.html" target="_top" xlink:title=" ">
<polygon fill="white" stroke="black" points="482.5,-0.5 482.5,-19.5 602.5,-19.5 602.5,-0.5 482.5,-0.5"/>
<text text-anchor="middle" x="542.5" y="-7.5" font-family="Helvetica,sans-Serif" font-size="10.00">src/enclave/main.cpp</text>
</a>
</g>
</g>
<!-- Node3&#45;&gt;Node4 -->
<g id="edge3" class="edge">
<title>Node3&#45;&gt;Node4</title>
<path fill="none" stroke="midnightblue" d="M542.5,-45.8C542.5,-36.91 542.5,-26.78 542.5,-19.75"/>
<polygon fill="midnightblue" stroke="midnightblue" points="539,-46.08 542.5,-56.08 546,-46.08 539,-46.08"/>
</g>
<!-- Node5&#45;&gt;Node6 -->
<g id="edge5" class="edge">
<title>Node5&#45;&gt;Node6</title>
<path fill="none" stroke="midnightblue" d="M840.26,-236.61C867.99,-223.74 909.84,-204.31 933.83,-193.17"/>
<polygon fill="midnightblue" stroke="midnightblue" points="838.69,-233.48 831.09,-240.87 841.63,-239.83 838.69,-233.48"/>
</g>
<!-- Node6&#45;&gt;Node3 -->
<g id="edge6" class="edge">
<title>Node6&#45;&gt;Node3</title>
<path fill="none" stroke="midnightblue" d="M936.76,-166.46C919.45,-149.9 890.04,-124.72 859.5,-112 775.48,-76.99 669.25,-68.36 603.59,-66.68"/>
<polygon fill="midnightblue" stroke="midnightblue" points="934.64,-169.3 944.23,-173.81 939.55,-164.3 934.64,-169.3"/>
</g>
<!-- Node7 -->
<g id="node7" class="node">
<title>Node7</title>
<g id="a_node7"><a xlink:href="gov__effects_8h.html" target="_top" xlink:title=" ">
<polygon fill="white" stroke="black" points="706.5,-112.5 706.5,-131.5 850.5,-131.5 850.5,-112.5 706.5,-112.5"/>
<text text-anchor="middle" x="778.5" y="-119.5" font-family="Helvetica,sans-Serif" font-size="10.00">src/node/rpc/gov_effects.h</text>
</a>
</g>
</g>
<!-- Node6&#45;&gt;Node7 -->
<g id="edge7" class="edge">
<title>Node6&#45;&gt;Node7</title>
<path fill="none" stroke="midnightblue" d="M918.09,-170.73C884.26,-159.17 833.47,-141.8 803.38,-131.51"/>
<polygon fill="midnightblue" stroke="midnightblue" points="916.98,-174.05 927.57,-173.98 919.24,-167.43 916.98,-174.05"/>
</g>
<!-- Node7&#45;&gt;Node3 -->
<g id="edge8" class="edge">
<title>Node7&#45;&gt;Node3</title>
<path fill="none" stroke="midnightblue" d="M731.09,-110.15C686.5,-99.95 620.65,-84.88 579.72,-75.52"/>
<polygon fill="midnightblue" stroke="midnightblue" points="730.58,-113.62 741.11,-112.44 732.14,-106.8 730.58,-113.62"/>
</g>
<!-- Node9 -->
<g id="node9" class="node">
<title>Node9</title>
<g id="a_node9"><a xlink:href="orc__requests_8h.html" target="_top" xlink:title=" ">
<polygon fill="white" stroke="black" points="841,-369.5 841,-399.5 960,-399.5 960,-369.5 841,-369.5"/>
<text text-anchor="start" x="849" y="-387.5" font-family="Helvetica,sans-Serif" font-size="10.00">src/consensus/aft/orc</text>
<text text-anchor="middle" x="900.5" y="-376.5" font-family="Helvetica,sans-Serif" font-size="10.00">_requests.h</text>
</a>
</g>
</g>
<!-- Node8&#45;&gt;Node9 -->
<g id="edge10" class="edge">
<title>Node8&#45;&gt;Node9</title>
<path fill="none" stroke="midnightblue" d="M1000.71,-437.19C979.51,-426.26 949.56,-410.81 927.93,-399.65"/>
<polygon fill="midnightblue" stroke="midnightblue" points="999.28,-440.39 1009.77,-441.87 1002.49,-434.17 999.28,-440.39"/>
</g>
<!-- Node10 -->
<g id="node10" class="node">
<title>Node10</title>
<g id="a_node10"><a xlink:href="raft_8h.html" target="_top" xlink:title=" ">
<polygon fill="white" stroke="black" points="1017,-308 1017,-327 1146,-327 1146,-308 1017,-308"/>
<text text-anchor="middle" x="1081.5" y="-315" font-family="Helvetica,sans-Serif" font-size="10.00">src/consensus/aft/raft.h</text>
</a>
</g>
</g>
<!-- Node8&#45;&gt;Node10 -->
<g id="edge17" class="edge">
<title>Node8&#45;&gt;Node10</title>
<path fill="none" stroke="midnightblue" d="M1028.82,-431.29C1031.37,-414.33 1036.37,-389.23 1045.5,-369 1052.77,-352.91 1065.5,-336.71 1073.71,-327.14"/>
<polygon fill="midnightblue" stroke="midnightblue" points="1025.3,-431.19 1027.43,-441.57 1032.24,-432.13 1025.3,-431.19"/>
</g>
<!-- Node13 -->
<g id="node13" class="node">
<title>Node13</title>
<g id="a_node13"><a xlink:href="http__node__client_8h.html" target="_top" xlink:title=" ">
<polygon fill="white" stroke="black" points="919.5,-235.5 919.5,-265.5 1029.5,-265.5 1029.5,-235.5 919.5,-235.5"/>
<text text-anchor="start" x="927.5" y="-253.5" font-family="Helvetica,sans-Serif" font-size="10.00">src/node/http_node</text>
<text text-anchor="middle" x="974.5" y="-242.5" font-family="Helvetica,sans-Serif" font-size="10.00">_client.h</text>
</a>
</g>
</g>
<!-- Node8&#45;&gt;Node13 -->
<g id="edge18" class="edge">
<title>Node8&#45;&gt;Node13</title>
<path fill="none" stroke="midnightblue" d="M1021.69,-432.11C1011.39,-392.68 987.36,-300.72 978.17,-265.53"/>
<polygon fill="midnightblue" stroke="midnightblue" points="1018.35,-433.16 1024.27,-441.95 1025.12,-431.39 1018.35,-433.16"/>
</g>
<!-- Node14 -->
<g id="node14" class="node">
<title>Node14</title>
<g id="a_node14"><a xlink:href="retired__nodes__cleanup_8h.html" target="_top" xlink:title=" ">
<polygon fill="white" stroke="black" points="1054.5,-369.5 1054.5,-399.5 1182.5,-399.5 1182.5,-369.5 1054.5,-369.5"/>
<text text-anchor="start" x="1062.5" y="-387.5" font-family="Helvetica,sans-Serif" font-size="10.00">src/node/retired_nodes</text>
<text text-anchor="middle" x="1118.5" y="-376.5" font-family="Helvetica,sans-Serif" font-size="10.00">_cleanup.h</text>
</a>
</g>
</g>
<!-- Node8&#45;&gt;Node14 -->
<g id="edge20" class="edge">
<title>Node8&#45;&gt;Node14</title>
<path fill="none" stroke="midnightblue" d="M1047.24,-435.85C1062.59,-425 1083.39,-410.3 1098.56,-399.59"/>
<polygon fill="midnightblue" stroke="midnightblue" points="1045.06,-433.1 1038.91,-441.73 1049.09,-438.82 1045.06,-433.1"/>
</g>
<!-- Node9&#45;&gt;Node10 -->
<g id="edge11" class="edge">
<title>Node9&#45;&gt;Node10</title>
<path fill="none" stroke="midnightblue" d="M949.38,-365.95C984.54,-353.32 1030.4,-336.85 1057.81,-327.01"/>
<polygon fill="midnightblue" stroke="midnightblue" points="948,-362.72 939.77,-369.4 950.37,-369.31 948,-362.72"/>
</g>
<!-- Node11 -->
<g id="node11" class="node">
<title>Node11</title>
<g id="a_node11"><a xlink:href="node__frontend_8h.html" target="_top" xlink:title=" ">
<polygon fill="white" stroke="black" points="550.5,-308 550.5,-327 708.5,-327 708.5,-308 550.5,-308"/>
<text text-anchor="middle" x="629.5" y="-315" font-family="Helvetica,sans-Serif" font-size="10.00">src/node/rpc/node_frontend.h</text>
</a>
</g>
</g>
<!-- Node9&#45;&gt;Node11 -->
<g id="edge13" class="edge">
<title>Node9&#45;&gt;Node11</title>
<path fill="none" stroke="midnightblue" d="M832,-367.07C778.85,-354.32 707.34,-337.17 665.06,-327.03"/>
<polygon fill="midnightblue" stroke="midnightblue" points="831.49,-370.55 842.03,-369.48 833.12,-363.74 831.49,-370.55"/>
</g>
<!-- Node10&#45;&gt;Node6 -->
<g id="edge12" class="edge">
<title>Node10&#45;&gt;Node6</title>
<path fill="none" stroke="midnightblue" d="M1075.32,-298.44C1068.52,-280.63 1056.16,-253.48 1038.5,-235 1020.2,-215.85 993.05,-201.55 974.17,-193.15"/>
<polygon fill="midnightblue" stroke="midnightblue" points="1072.06,-299.72 1078.76,-307.93 1078.65,-297.34 1072.06,-299.72"/>
</g>
<!-- Node11&#45;&gt;Node3 -->
<g id="edge14" class="edge">
<title>Node11&#45;&gt;Node3</title>
<path fill="none" stroke="midnightblue" d="M612.19,-300.91C602.92,-291.65 592.1,-279.16 585.5,-266 551.6,-198.38 544.33,-104.75 542.85,-75.85"/>
<polygon fill="midnightblue" stroke="midnightblue" points="609.83,-303.5 619.47,-307.89 614.67,-298.44 609.83,-303.5"/>
</g>
<!-- Node12 -->
<g id="node12" class="node">
<title>Node12</title>
<g id="a_node12"><a xlink:href="jwt__key__auto__refresh_8h.html" target="_top" xlink:title=" ">
<polygon fill="white" stroke="black" points="595,-235.5 595,-265.5 720,-265.5 720,-235.5 595,-235.5"/>
<text text-anchor="start" x="603" y="-253.5" font-family="Helvetica,sans-Serif" font-size="10.00">src/node/jwt_key_auto</text>
<text text-anchor="middle" x="657.5" y="-242.5" font-family="Helvetica,sans-Serif" font-size="10.00">_refresh.h</text>
</a>
</g>
</g>
<!-- Node11&#45;&gt;Node12 -->
<g id="edge15" class="edge">
<title>Node11&#45;&gt;Node12</title>
<path fill="none" stroke="midnightblue" d="M637.3,-298.39C641.77,-288.02 647.29,-275.2 651.43,-265.59"/>
<polygon fill="midnightblue" stroke="midnightblue" points="634.02,-297.16 633.28,-307.73 640.45,-299.93 634.02,-297.16"/>
</g>
<!-- Node12&#45;&gt;Node6 -->
<g id="edge16" class="edge">
<title>Node12&#45;&gt;Node6</title>
<path fill="none" stroke="midnightblue" d="M729.9,-233.55C787.83,-220.78 866.86,-203.37 913.5,-193.09"/>
<polygon fill="midnightblue" stroke="midnightblue" points="729.07,-230.15 720.06,-235.72 730.58,-236.98 729.07,-230.15"/>
</g>
<!-- Node13&#45;&gt;Node6 -->
<g id="edge19" class="edge">
<title>Node13&#45;&gt;Node6</title>
<path fill="none" stroke="midnightblue" d="M966.41,-225.6C962.58,-214.28 958.24,-201.46 955.44,-193.19"/>
<polygon fill="midnightblue" stroke="midnightblue" points="963.21,-227.05 969.73,-235.4 969.84,-224.8 963.21,-227.05"/>
</g>
<!-- Node14&#45;&gt;Node10 -->
<g id="edge21" class="edge">
<title>Node14&#45;&gt;Node10</title>
<path fill="none" stroke="midnightblue" d="M1105.48,-360.63C1098.9,-349.07 1091.3,-335.71 1086.45,-327.19"/>
<polygon fill="midnightblue" stroke="midnightblue" points="1102.48,-362.44 1110.47,-369.4 1108.57,-358.97 1102.48,-362.44"/>
</g>
<!-- Node15&#45;&gt;Node6 -->
<g id="edge24" class="edge">
<title>Node15&#45;&gt;Node6</title>
<path fill="none" stroke="midnightblue" d="M1124.03,-237.85C1082.63,-224.97 1016.95,-204.55 980.04,-193.06"/>
<polygon fill="midnightblue" stroke="midnightblue" points="1123.16,-241.24 1133.75,-240.87 1125.24,-234.56 1123.16,-241.24"/>
</g>
<!-- Node17 -->
<g id="node17" class="node">
<title>Node17</title>
<g id="a_node17"><a xlink:href="http__parser_8h.html" target="_top" xlink:title=" ">
<polygon fill="white" stroke="black" points="704.5,-749.5 704.5,-768.5 824.5,-768.5 824.5,-749.5 704.5,-749.5"/>
<text text-anchor="middle" x="764.5" y="-756.5" font-family="Helvetica,sans-Serif" font-size="10.00">src/http/http_parser.h</text>
</a>
</g>
</g>
<!-- Node16&#45;&gt;Node17 -->
<g id="edge26" class="edge">
<title>Node16&#45;&gt;Node17</title>
<path fill="none" stroke="midnightblue" d="M846.01,-850.94C843.44,-837.13 838.37,-818.58 828.5,-805 816.69,-788.74 797.14,-776.24 782.75,-768.59"/>
<polygon fill="midnightblue" stroke="midnightblue" points="842.61,-851.87 847.62,-861.2 849.53,-850.78 842.61,-851.87"/>
</g>
<!-- Node35 -->
<g id="node35" class="node">
<title>Node35</title>
<g id="a_node35"><a xlink:href="http__proc_8h.html" target="_top" xlink:title=" ">
<polygon fill="white" stroke="black" points="709,-805.5 709,-824.5 820,-824.5 820,-805.5 709,-805.5"/>
<text text-anchor="middle" x="764.5" y="-812.5" font-family="Helvetica,sans-Serif" font-size="10.00">src/http/http_proc.h</text>
</a>
</g>
</g>
<!-- Node16&#45;&gt;Node35 -->
<g id="edge59" class="edge">
<title>Node16&#45;&gt;Node35</title>
<path fill="none" stroke="midnightblue" d="M826.57,-855.9C811.16,-846 791.05,-833.07 777.96,-824.65"/>
<polygon fill="midnightblue" stroke="midnightblue" points="824.7,-858.86 835,-861.32 828.48,-852.97 824.7,-858.86"/>
</g>
<!-- Node18 -->
<g id="node18" class="node">
<title>Node18</title>
<g id="a_node18"><a xlink:href="rpc__tls__client_8h.html" target="_top" xlink:title=" ">
<polygon fill="white" stroke="black" points="193,-626.5 193,-656.5 294,-656.5 294,-626.5 193,-626.5"/>
<text text-anchor="start" x="201" y="-644.5" font-family="Helvetica,sans-Serif" font-size="10.00">src/clients/rpc_tls</text>
<text text-anchor="middle" x="243.5" y="-633.5" font-family="Helvetica,sans-Serif" font-size="10.00">_client.h</text>
</a>
</g>
</g>
<!-- Node17&#45;&gt;Node18 -->
<g id="edge27" class="edge">
<title>Node17&#45;&gt;Node18</title>
<path fill="none" stroke="midnightblue" d="M694.29,-750.39C633.95,-743.13 544.86,-730.66 468.5,-713 401.9,-697.6 326.44,-672.29 282.02,-656.55"/>
<polygon fill="midnightblue" stroke="midnightblue" points="694.12,-753.9 704.46,-751.6 694.95,-746.95 694.12,-753.9"/>
</g>
<!-- Node23 -->
<g id="node23" class="node">
<title>Node23</title>
<g id="a_node23"><a xlink:href="http__endpoint_8h.html" target="_top" xlink:title=" ">
<polygon fill="white" stroke="black" points="901,-570.5 901,-589.5 1034,-589.5 1034,-570.5 901,-570.5"/>
<text text-anchor="middle" x="967.5" y="-577.5" font-family="Helvetica,sans-Serif" font-size="10.00">src/http/http_endpoint.h</text>
</a>
</g>
</g>
<!-- Node17&#45;&gt;Node23 -->
<g id="edge33" class="edge">
<title>Node17&#45;&gt;Node23</title>
<path fill="none" stroke="midnightblue" d="M817.52,-746.76C840.55,-739.9 866.72,-729.22 886.5,-713 929.53,-677.71 955.93,-613.18 964.46,-589.78"/>
<polygon fill="midnightblue" stroke="midnightblue" points="816.55,-743.4 807.87,-749.48 818.44,-750.14 816.55,-743.4"/>
</g>
<!-- Node24 -->
<g id="node24" class="node">
<title>Node24</title>
<g id="a_node24"><a xlink:href="http__jwt_8h.html" target="_top" xlink:title=" ">
<polygon fill="white" stroke="black" points="712,-693.5 712,-712.5 817,-712.5 817,-693.5 712,-693.5"/>
<text text-anchor="middle" x="764.5" y="-700.5" font-family="Helvetica,sans-Serif" font-size="10.00">src/http/http_jwt.h</text>
</a>
</g>
</g>
<!-- Node17&#45;&gt;Node24 -->
<g id="edge35" class="edge">
<title>Node17&#45;&gt;Node24</title>
<path fill="none" stroke="midnightblue" d="M764.5,-738.8C764.5,-729.91 764.5,-719.78 764.5,-712.75"/>
<polygon fill="midnightblue" stroke="midnightblue" points="761,-739.08 764.5,-749.08 768,-739.08 761,-739.08"/>
</g>
<!-- Node30 -->
<g id="node30" class="node">
<title>Node30</title>
<g id="a_node30"><a xlink:href="http__rpc__context_8h.html" target="_top" xlink:title=" ">
<polygon fill="white" stroke="black" points="524,-632 524,-651 671,-651 671,-632 524,-632"/>
<text text-anchor="middle" x="597.5" y="-639" font-family="Helvetica,sans-Serif" font-size="10.00">src/http/http_rpc_context.h</text>
</a>
</g>
</g>
<!-- Node17&#45;&gt;Node30 -->
<g id="edge47" class="edge">
<title>Node17&#45;&gt;Node30</title>
<path fill="none" stroke="midnightblue" d="M743.4,-743.41C708.25,-719.1 638.75,-671.03 610.2,-651.28"/>
<polygon fill="midnightblue" stroke="midnightblue" points="741.73,-746.51 751.95,-749.32 745.71,-740.75 741.73,-746.51"/>
</g>
<!-- Node32 -->
<g id="node32" class="node">
<title>Node32</title>
<g id="a_node32"><a xlink:href="http__sig_8h.html" target="_top" xlink:title=" ">
<polygon fill="white" stroke="black" points="477.5,-693.5 477.5,-712.5 581.5,-712.5 581.5,-693.5 477.5,-693.5"/>
<text text-anchor="middle" x="529.5" y="-700.5" font-family="Helvetica,sans-Serif" font-size="10.00">src/http/http_sig.h</text>
</a>
</g>
</g>
<!-- Node17&#45;&gt;Node32 -->
<g id="edge53" class="edge">
<title>Node17&#45;&gt;Node32</title>
<path fill="none" stroke="midnightblue" d="M717.29,-747.15C672.89,-736.95 607.31,-721.88 566.56,-712.52"/>
<polygon fill="midnightblue" stroke="midnightblue" points="716.73,-750.62 727.26,-749.44 718.3,-743.79 716.73,-750.62"/>
</g>
<!-- Node34 -->
<g id="node34" class="node">
<title>Node34</title>
<g id="a_node34"><a xlink:href="acme__client_8h.html" target="_top" xlink:title=" ">
<polygon fill="white" stroke="black" points="776,-509 776,-528 905,-528 905,-509 776,-509"/>
<text text-anchor="middle" x="840.5" y="-516" font-family="Helvetica,sans-Serif" font-size="10.00">src/node/acme_client.h</text>
</a>
</g>
</g>
<!-- Node17&#45;&gt;Node34 -->
<g id="edge57" class="edge">
<title>Node17&#45;&gt;Node34</title>
<path fill="none" stroke="midnightblue" d="M788.98,-743.91C801.12,-736 815.33,-725.27 825.5,-713 843.14,-691.73 846.35,-683.94 852.5,-657 863.39,-609.35 849.3,-550.33 843.13,-528.32"/>
<polygon fill="midnightblue" stroke="midnightblue" points="786.84,-741.12 780.2,-749.38 790.54,-747.06 786.84,-741.12"/>
</g>
<!-- Node19 -->
<g id="node19" class="node">
<title>Node19</title>
<g id="a_node19"><a xlink:href="perf__client_8h.html" target="_top" xlink:title=" ">
<polygon fill="white" stroke="black" points="144,-503.5 144,-533.5 255,-533.5 255,-503.5 144,-503.5"/>
<text text-anchor="start" x="152" y="-521.5" font-family="Helvetica,sans-Serif" font-size="10.00">src/clients/perf/perf</text>
<text text-anchor="middle" x="199.5" y="-510.5" font-family="Helvetica,sans-Serif" font-size="10.00">_client.h</text>
</a>
</g>
</g>
<!-- Node18&#45;&gt;Node19 -->
<g id="edge28" class="edge">
<title>Node18&#45;&gt;Node19</title>
<path fill="none" stroke="midnightblue" d="M206.55,-620.72C195.45,-612.76 184.61,-602.48 178.5,-590 169.41,-571.42 180.23,-548.12 189.41,-533.52"/>
<polygon fill="midnightblue" stroke="midnightblue" points="204.75,-623.72 215.02,-626.35 208.63,-617.9 204.75,-623.72"/>
</g>
<!-- Node22 -->
<g id="node22" class="node">
<title>Node22</title>
<g id="a_node22"><a xlink:href="timing_8h.html" target="_top" xlink:title=" ">
<polygon fill="white" stroke="black" points="187.5,-570.5 187.5,-589.5 319.5,-589.5 319.5,-570.5 187.5,-570.5"/>
<text text-anchor="middle" x="253.5" y="-577.5" font-family="Helvetica,sans-Serif" font-size="10.00">src/clients/perf/timing.h</text>
</a>
</g>
</g>
<!-- Node18&#45;&gt;Node22 -->
<g id="edge31" class="edge">
<title>Node18&#45;&gt;Node22</title>
<path fill="none" stroke="midnightblue" d="M247.57,-616.29C249.15,-606.86 250.87,-596.65 252.04,-589.66"/>
<polygon fill="midnightblue" stroke="midnightblue" points="244.08,-615.96 245.87,-626.4 250.98,-617.12 244.08,-615.96"/>
</g>
<!-- Node20 -->
<g id="node20" class="node">
<title>Node20</title>
<g id="a_node20"><a xlink:href="tpcc__client_8cpp.html" target="_top" xlink:title=" ">
<polygon fill="white" stroke="black" points="151.5,-436.5 151.5,-466.5 267.5,-466.5 267.5,-436.5 151.5,-436.5"/>
<text text-anchor="start" x="159.5" y="-454.5" font-family="Helvetica,sans-Serif" font-size="10.00">src/apps/tpcc/clients</text>
<text text-anchor="middle" x="209.5" y="-443.5" font-family="Helvetica,sans-Serif" font-size="10.00">/tpcc_client.cpp</text>
</a>
</g>
</g>
<!-- Node19&#45;&gt;Node20 -->
<g id="edge29" class="edge">
<title>Node19&#45;&gt;Node20</title>
<path fill="none" stroke="midnightblue" d="M203.21,-493.4C204.6,-484.37 206.13,-474.41 207.33,-466.58"/>
<polygon fill="midnightblue" stroke="midnightblue" points="199.73,-492.98 201.67,-503.4 206.65,-494.04 199.73,-492.98"/>
</g>
<!-- Node21 -->
<g id="node21" class="node">
<title>Node21</title>
<g id="a_node21"><a xlink:href="scenario__perf__client_8cpp.html" target="_top" xlink:title=" ">
<polygon fill="white" stroke="black" points="0,-436.5 0,-466.5 133,-466.5 133,-436.5 0,-436.5"/>
<text text-anchor="start" x="8" y="-454.5" font-family="Helvetica,sans-Serif" font-size="10.00">src/clients/perf/scenario</text>
<text text-anchor="middle" x="66.5" y="-443.5" font-family="Helvetica,sans-Serif" font-size="10.00">_perf_client.cpp</text>
</a>
</g>
</g>
<!-- Node19&#45;&gt;Node21 -->
<g id="edge30" class="edge">
<title>Node19&#45;&gt;Node21</title>
<path fill="none" stroke="midnightblue" d="M161.63,-498.99C140.55,-488.69 114.72,-476.07 95.3,-466.58"/>
<polygon fill="midnightblue" stroke="midnightblue" points="160.12,-502.15 170.64,-503.4 163.19,-495.86 160.12,-502.15"/>
</g>
<!-- Node22&#45;&gt;Node19 -->
<g id="edge32" class="edge">
<title>Node22&#45;&gt;Node19</title>
<path fill="none" stroke="midnightblue" d="M238.81,-562.81C230.49,-553.65 220.2,-542.3 212.23,-533.52"/>
<polygon fill="midnightblue" stroke="midnightblue" points="236.45,-565.42 245.76,-570.48 241.63,-560.72 236.45,-565.42"/>
</g>
<!-- Node23&#45;&gt;Node2 -->
<g id="edge34" class="edge">
<title>Node23&#45;&gt;Node2</title>
<path fill="none" stroke="midnightblue" d="M1009.3,-567.9C1052.81,-556.34 1119.99,-538.5 1159.47,-528.01"/>
<polygon fill="midnightblue" stroke="midnightblue" points="1008.36,-564.53 999.59,-570.48 1010.16,-571.29 1008.36,-564.53"/>
</g>
<!-- Node25 -->
<g id="node25" class="node">
<title>Node25</title>
<g id="a_node25"><a xlink:href="jwt__auth_8cpp.html" target="_top" xlink:title=" ">
<polygon fill="white" stroke="black" points="689,-626.5 689,-656.5 844,-656.5 844,-626.5 689,-626.5"/>
<text text-anchor="start" x="697" y="-644.5" font-family="Helvetica,sans-Serif" font-size="10.00">src/endpoints/authentication</text>
<text text-anchor="middle" x="766.5" y="-633.5" font-family="Helvetica,sans-Serif" font-size="10.00">/jwt_auth.cpp</text>
</a>
</g>
</g>
<!-- Node24&#45;&gt;Node25 -->
<g id="edge36" class="edge">
<title>Node24&#45;&gt;Node25</title>
<path fill="none" stroke="midnightblue" d="M765.13,-683.23C765.42,-674.59 765.76,-664.5 766.03,-656.52"/>
<polygon fill="midnightblue" stroke="midnightblue" points="761.62,-683.36 764.79,-693.48 768.62,-683.6 761.62,-683.36"/>
</g>
<!-- Node26 -->
<g id="node26" class="node">
<title>Node26</title>
<g id="a_node26"><a xlink:href="frontend_8h.html" target="_top" xlink:title=" ">
<polygon fill="white" stroke="black" points="308,-375 308,-394 437,-394 437,-375 308,-375"/>
<text text-anchor="middle" x="372.5" y="-382" font-family="Helvetica,sans-Serif" font-size="10.00">src/node/rpc/frontend.h</text>
</a>
</g>
</g>
<!-- Node24&#45;&gt;Node26 -->
<g id="edge37" class="edge">
<title>Node24&#45;&gt;Node26</title>
<path fill="none" stroke="midnightblue" d="M701.61,-698.35C636.61,-693.29 540.98,-681.77 514.5,-657 489.07,-633.22 495.5,-615.82 495.5,-581 495.5,-581 495.5,-581 495.5,-517.5 495.5,-456.42 424.13,-411.8 390.12,-394.01"/>
<polygon fill="midnightblue" stroke="midnightblue" points="701.54,-701.86 711.77,-699.11 702.06,-694.88 701.54,-701.86"/>
</g>
<!-- Node26&#45;&gt;Node6 -->
<g id="edge41" class="edge">
<title>Node26&#45;&gt;Node6</title>
<path fill="none" stroke="midnightblue" d="M369.78,-364.53C368.28,-346.43 369.08,-319.39 383.5,-302 447.65,-224.65 756.63,-196.53 890.47,-187.86"/>
<polygon fill="midnightblue" stroke="midnightblue" points="366.33,-365.18 370.94,-374.72 373.28,-364.39 366.33,-365.18"/>
</g>
<!-- Node26&#45;&gt;Node11 -->
<g id="edge44" class="edge">
<title>Node26&#45;&gt;Node11</title>
<path fill="none" stroke="midnightblue" d="M416.37,-372.4C467.09,-359.58 549.49,-338.74 595.56,-327.08"/>
<polygon fill="midnightblue" stroke="midnightblue" points="415.2,-369.09 406.36,-374.94 416.92,-375.88 415.2,-369.09"/>
</g>
<!-- Node27 -->
<g id="node27" class="node">
<title>Node27</title>
<g id="a_node27"><a xlink:href="acme__challenge__frontend_8h.html" target="_top" xlink:title=" ">
<polygon fill="white" stroke="black" points="392.5,-302.5 392.5,-332.5 532.5,-332.5 532.5,-302.5 392.5,-302.5"/>
<text text-anchor="start" x="400.5" y="-320.5" font-family="Helvetica,sans-Serif" font-size="10.00">src/node/acme_challenge</text>
<text text-anchor="middle" x="462.5" y="-309.5" font-family="Helvetica,sans-Serif" font-size="10.00">_frontend.h</text>
</a>
</g>
</g>
<!-- Node26&#45;&gt;Node27 -->
<g id="edge38" class="edge">
<title>Node26&#45;&gt;Node27</title>
<path fill="none" stroke="midnightblue" d="M392.79,-368.85C407.81,-358 428.16,-343.3 442.99,-332.59"/>
<polygon fill="midnightblue" stroke="midnightblue" points="390.7,-366.04 384.64,-374.73 394.79,-371.72 390.7,-366.04"/>
</g>
<!-- Node28 -->
<g id="node28" class="node">
<title>Node28</title>
<g id="a_node28"><a xlink:href="member__frontend_8h.html" target="_top" xlink:title=" ">
<polygon fill="white" stroke="black" points="228.5,-168.5 228.5,-198.5 348.5,-198.5 348.5,-168.5 228.5,-168.5"/>
<text text-anchor="start" x="236.5" y="-186.5" font-family="Helvetica,sans-Serif" font-size="10.00">src/node/rpc/member</text>
<text text-anchor="middle" x="288.5" y="-175.5" font-family="Helvetica,sans-Serif" font-size="10.00">_frontend.h</text>
</a>
</g>
</g>
<!-- Node26&#45;&gt;Node28 -->
<g id="edge42" class="edge">
<title>Node26&#45;&gt;Node28</title>
<path fill="none" stroke="midnightblue" d="M348.57,-369.36C335.8,-360.54 321.01,-348.01 312.5,-333 287.52,-288.92 286.62,-226.37 287.64,-198.66"/>
<polygon fill="midnightblue" stroke="midnightblue" points="346.7,-372.32 356.98,-374.86 350.53,-366.46 346.7,-372.32"/>
</g>
<!-- Node29 -->
<g id="node29" class="node">
<title>Node29</title>
<g id="a_node29"><a xlink:href="user__frontend_8h.html" target="_top" xlink:title=" ">
<polygon fill="white" stroke="black" points="333,-112.5 333,-131.5 488,-131.5 488,-112.5 333,-112.5"/>
<text text-anchor="middle" x="410.5" y="-119.5" font-family="Helvetica,sans-Serif" font-size="10.00">src/node/rpc/user_frontend.h</text>
</a>
</g>
</g>
<!-- Node26&#45;&gt;Node29 -->
<g id="edge45" class="edge">
<title>Node26&#45;&gt;Node29</title>
<path fill="none" stroke="midnightblue" d="M370.23,-365C369.17,-355.46 368.02,-343.63 367.5,-333 366.82,-319.24 365.88,-315.68 367.5,-302 375.39,-235.35 399.27,-157.6 407.6,-131.81"/>
<polygon fill="midnightblue" stroke="midnightblue" points="366.75,-365.42 371.39,-374.94 373.7,-364.6 366.75,-365.42"/>
</g>
<!-- Node27&#45;&gt;Node3 -->
<g id="edge39" class="edge">
<title>Node27&#45;&gt;Node3</title>
<path fill="none" stroke="midnightblue" d="M470.13,-292.69C487.32,-239.09 528.43,-110.88 539.64,-75.93"/>
<polygon fill="midnightblue" stroke="midnightblue" points="466.75,-291.78 467.03,-302.37 473.42,-293.92 466.75,-291.78"/>
</g>
<!-- Node27&#45;&gt;Node5 -->
<g id="edge40" class="edge">
<title>Node27&#45;&gt;Node5</title>
<path fill="none" stroke="midnightblue" d="M542.93,-301.56C612.28,-288.68 709.96,-270.54 766.71,-260"/>
<polygon fill="midnightblue" stroke="midnightblue" points="542.1,-298.16 532.91,-303.42 543.38,-305.04 542.1,-298.16"/>
</g>
<!-- Node28&#45;&gt;Node3 -->
<g id="edge43" class="edge">
<title>Node28&#45;&gt;Node3</title>
<path fill="none" stroke="midnightblue" d="M294.51,-158.47C299.65,-142.9 308.63,-123.45 323.5,-112 347.79,-93.29 425.52,-80.53 481.47,-73.51"/>
<polygon fill="midnightblue" stroke="midnightblue" points="291.03,-157.91 291.54,-168.49 297.74,-159.9 291.03,-157.91"/>
</g>
<!-- Node29&#45;&gt;Node3 -->
<g id="edge46" class="edge">
<title>Node29&#45;&gt;Node3</title>
<path fill="none" stroke="midnightblue" d="M440.72,-108.64C465.49,-98.5 499.9,-84.43 521.68,-75.52"/>
<polygon fill="midnightblue" stroke="midnightblue" points="439.35,-105.42 431.42,-112.44 442,-111.9 439.35,-105.42"/>
</g>
<!-- Node30&#45;&gt;Node12 -->
<g id="edge49" class="edge">
<title>Node30&#45;&gt;Node12</title>
<path fill="none" stroke="midnightblue" d="M631.77,-628.08C672.93,-610.7 736.5,-574.89 736.5,-519.5 736.5,-519.5 736.5,-519.5 736.5,-383.5 736.5,-346.31 736.94,-333.71 717.5,-302 708.39,-287.14 693.39,-274.52 680.67,-265.61"/>
<polygon fill="midnightblue" stroke="midnightblue" points="630.3,-624.9 622.35,-631.91 632.93,-631.39 630.3,-624.9"/>
</g>
<!-- Node30&#45;&gt;Node23 -->
<g id="edge48" class="edge">
<title>Node30&#45;&gt;Node23</title>
<path fill="none" stroke="midnightblue" d="M654.75,-630.23C663.05,-628.78 671.49,-627.33 679.5,-626 759.75,-612.64 852.77,-598.31 910.89,-589.5"/>
<polygon fill="midnightblue" stroke="midnightblue" points="653.98,-626.81 644.74,-631.98 655.19,-633.7 653.98,-626.81"/>
</g>
<!-- Node31 -->
<g id="node31" class="node">
<title>Node31</title>
<g id="a_node31"><a xlink:href="forwarder_8h.html" target="_top" xlink:title=" ">
<polygon fill="white" stroke="black" points="305.5,-442 305.5,-461 439.5,-461 439.5,-442 305.5,-442"/>
<text text-anchor="middle" x="372.5" y="-449" font-family="Helvetica,sans-Serif" font-size="10.00">src/node/rpc/forwarder.h</text>
</a>
</g>
</g>
<!-- Node30&#45;&gt;Node31 -->
<g id="edge50" class="edge">
<title>Node30&#45;&gt;Node31</title>
<path fill="none" stroke="midnightblue" d="M579.47,-625.43C534.44,-587.81 418.12,-490.62 382.81,-461.12"/>
<polygon fill="midnightblue" stroke="midnightblue" points="577.33,-628.21 587.25,-631.93 581.82,-622.84 577.33,-628.21"/>
</g>
<!-- Node31&#45;&gt;Node3 -->
<g id="edge51" class="edge">
<title>Node31&#45;&gt;Node3</title>
<path fill="none" stroke="midnightblue" d="M331.19,-438.82C280.3,-421.6 200.5,-384.14 200.5,-318.5 200.5,-318.5 200.5,-318.5 200.5,-182.5 200.5,-168.22 166.67,-167.77 303.5,-112 361.27,-88.45 431.97,-77.1 481.43,-71.7"/>
<polygon fill="midnightblue" stroke="midnightblue" points="330.36,-442.23 340.95,-441.99 332.53,-435.57 330.36,-442.23"/>
</g>
<!-- Node31&#45;&gt;Node26 -->
<g id="edge52" class="edge">
<title>Node31&#45;&gt;Node26</title>
<path fill="none" stroke="midnightblue" d="M372.5,-431.54C372.5,-419.17 372.5,-403.62 372.5,-394.13"/>
<polygon fill="midnightblue" stroke="midnightblue" points="369,-431.73 372.5,-441.73 376,-431.73 369,-431.73"/>
</g>
<!-- Node32&#45;&gt;Node18 -->
<g id="edge54" class="edge">
<title>Node32&#45;&gt;Node18</title>
<path fill="none" stroke="midnightblue" d="M473.21,-691.58C427.19,-682.88 360.48,-669.86 302.5,-657 299.82,-656.41 297.08,-655.78 294.31,-655.14"/>
<polygon fill="midnightblue" stroke="midnightblue" points="472.81,-695.06 483.29,-693.47 474.11,-688.18 472.81,-695.06"/>
</g>
<!-- Node32&#45;&gt;Node30 -->
<g id="edge56" class="edge">
<title>Node32&#45;&gt;Node30</title>
<path fill="none" stroke="midnightblue" d="M547.04,-686.65C560.01,-675.31 577.18,-660.28 587.78,-651.01"/>
<polygon fill="midnightblue" stroke="midnightblue" points="544.46,-684.26 539.24,-693.48 549.07,-689.52 544.46,-684.26"/>
</g>
<!-- Node33 -->
<g id="node33" class="node">
<title>Node33</title>
<g id="a_node33"><a xlink:href="sig__auth_8cpp.html" target="_top" xlink:title=" ">
<polygon fill="white" stroke="black" points="312,-626.5 312,-656.5 467,-656.5 467,-626.5 312,-626.5"/>
<text text-anchor="start" x="320" y="-644.5" font-family="Helvetica,sans-Serif" font-size="10.00">src/endpoints/authentication</text>
<text text-anchor="middle" x="389.5" y="-633.5" font-family="Helvetica,sans-Serif" font-size="10.00">/sig_auth.cpp</text>
</a>
</g>
</g>
<!-- Node32&#45;&gt;Node33 -->
<g id="edge55" class="edge">
<title>Node32&#45;&gt;Node33</title>
<path fill="none" stroke="midnightblue" d="M500,-689.46C477.32,-679.82 446,-666.51 422.5,-656.52"/>
<polygon fill="midnightblue" stroke="midnightblue" points="498.87,-692.78 509.44,-693.48 501.61,-686.34 498.87,-692.78"/>
</g>
<!-- Node34&#45;&gt;Node5 -->
<g id="edge58" class="edge">
<title>Node34&#45;&gt;Node5</title>
<path fill="none" stroke="midnightblue" d="M822.3,-501.62C813.27,-492.51 803.3,-480.27 798.5,-467 770.97,-390.84 799.86,-289.78 809.56,-260.06"/>
<polygon fill="midnightblue" stroke="midnightblue" points="820.16,-504.42 829.83,-508.76 824.98,-499.34 820.16,-504.42"/>
</g>
<!-- Node35&#45;&gt;Node17 -->
<g id="edge60" class="edge">
<title>Node35&#45;&gt;Node17</title>
<path fill="none" stroke="midnightblue" d="M764.5,-794.8C764.5,-785.91 764.5,-775.78 764.5,-768.75"/>
<polygon fill="midnightblue" stroke="midnightblue" points="761,-795.08 764.5,-805.08 768,-795.08 761,-795.08"/>
</g>
<!-- Node36&#45;&gt;Node2 -->
<g id="edge62" class="edge">
<title>Node36&#45;&gt;Node2</title>
<path fill="none" stroke="midnightblue" d="M1290.34,-566.17C1265.89,-554.63 1230.65,-537.99 1209.52,-528.01"/>
<polygon fill="midnightblue" stroke="midnightblue" points="1288.91,-569.37 1299.45,-570.48 1291.9,-563.04 1288.91,-569.37"/>
</g>
<!-- Node36&#45;&gt;Node6 -->
<g id="edge63" class="edge">
<title>Node36&#45;&gt;Node6</title>
<path fill="none" stroke="midnightblue" d="M1319.18,-560.32C1321.25,-535.65 1324.5,-490.86 1324.5,-452.5 1324.5,-452.5 1324.5,-452.5 1324.5,-383.5 1324.5,-310.15 1311.2,-278.98 1252.5,-235 1215.89,-207.57 1091.43,-194.13 1014.8,-188.32"/>
<polygon fill="midnightblue" stroke="midnightblue" points="1315.68,-560.15 1318.3,-570.42 1322.66,-560.76 1315.68,-560.15"/>
</g>
<!-- Node37&#45;&gt;Node2 -->
<g id="edge65" class="edge">
<title>Node37&#45;&gt;Node2</title>
<path fill="none" stroke="midnightblue" d="M1173.5,-795.25C1173.5,-773.36 1173.5,-736.05 1173.5,-704 1173.5,-704 1173.5,-704 1173.5,-640.5 1173.5,-598.02 1184.49,-548.06 1189.29,-528.24"/>
<polygon fill="midnightblue" stroke="midnightblue" points="1170,-795.44 1173.5,-805.44 1177,-795.44 1170,-795.44"/>
</g>
<!-- Node38&#45;&gt;Node2 -->
<g id="edge67" class="edge">
<title>Node38&#45;&gt;Node2</title>
<path fill="none" stroke="midnightblue" d="M1241.24,-739.17C1230.24,-690.6 1201.23,-562.49 1193.45,-528.1"/>
<polygon fill="midnightblue" stroke="midnightblue" points="1237.89,-740.25 1243.51,-749.23 1244.72,-738.7 1237.89,-740.25"/>
</g>
</g>
</svg>
