<?xml version="1.0" encoding="UTF-8" standalone="no"?>
<!DOCTYPE svg PUBLIC "-//W3C//DTD SVG 1.1//EN"
 "http://www.w3.org/Graphics/SVG/1.1/DTD/svg11.dtd">
<!-- Generated by graphviz version 2.43.0 (0)
 -->
<!-- Title: src/enclave/forwarder_types.h Pages: 1 -->
<!--zoomable 777 -->
<svg id="main" version="1.1" xmlns="http://www.w3.org/2000/svg" xmlns:xlink="http://www.w3.org/1999/xlink" xml:space="preserve" onload="init(evt)">
<style type="text/css"><![CDATA[
.edge:hover path { stroke: red; }
.edge:hover polygon { stroke: red; fill: red; }
]]></style>
<script type="text/javascript"><![CDATA[
var edges = document.getElementsByTagName('g');
if (edges && edges.length) {
  for (var i=0;i<edges.length;i++) {
    if (edges[i].id.substr(0,4)=='edge') {
      edges[i].setAttribute('class','edge');
    }
  }
}
]]></script>
        <defs>
                <circle id="rim" cx="0" cy="0" r="7"/>
                <circle id="rim2" cx="0" cy="0" r="3.5"/>
                <g id="zoomPlus">
                        <use xlink:href="#rim" fill="#404040">
                                <set attributeName="fill" to="#808080" begin="zoomplus.mouseover" end="zoomplus.mouseout"/>
                        </use>
                        <path d="M-4,0h8M0,-4v8" fill="none" stroke="white" stroke-width="1.5" pointer-events="none"/>
                </g>
                <g id="zoomMin">
                        <use xlink:href="#rim" fill="#404040">
                                <set attributeName="fill" to="#808080" begin="zoomminus.mouseover" end="zoomminus.mouseout"/>
                        </use>
                        <path d="M-4,0h8" fill="none" stroke="white" stroke-width="1.5" pointer-events="none"/>
                </g>
                <g id="dirArrow">
                        <path fill="none" stroke="white" stroke-width="1.5" d="M0,-3.0v7 M-2.5,-0.5L0,-3.0L2.5,-0.5"/>
                </g>
               <g id="resetDef">
                       <use xlink:href="#rim2" fill="#404040">
                               <set attributeName="fill" to="#808080" begin="reset.mouseover" end="reset.mouseout"/>
                       </use>
               </g>
        </defs>

<script type="text/javascript">
var viewWidth = 1841;
var viewHeight = 777;
var sectionId = 'dynsection-1';
</script>
<script xlink:href="svgpan.js"/>
<svg id="graph" class="graph">
<g id="viewport">
<title>src/enclave/forwarder_types.h</title>
<polygon fill="white" stroke="transparent" points="-4,4 -4,-773 1836.5,-773 1836.5,4 -4,4"/>
<!-- Node1 -->
<g id="node1" class="node">
<title>Node1</title>
<g id="a_node1"><a xlink:title=" ">
<polygon fill="#bfbfbf" stroke="black" points="1238.5,-738.5 1238.5,-768.5 1360.5,-768.5 1360.5,-738.5 1238.5,-738.5"/>
<text text-anchor="start" x="1246.5" y="-756.5" font-family="Helvetica,sans-Serif" font-size="10.00">src/enclave/forwarder</text>
<text text-anchor="middle" x="1299.5" y="-745.5" font-family="Helvetica,sans-Serif" font-size="10.00">_types.h</text>
</a>
</g>
</g>
<!-- Node2 -->
<g id="node2" class="node">
<title>Node2</title>
<g id="a_node2"><a xlink:href="rpc__handler_8h.html" target="_top" xlink:title=" ">
<polygon fill="white" stroke="black" points="1229.5,-682.5 1229.5,-701.5 1369.5,-701.5 1369.5,-682.5 1229.5,-682.5"/>
<text text-anchor="middle" x="1299.5" y="-689.5" font-family="Helvetica,sans-Serif" font-size="10.00">src/enclave/rpc_handler.h</text>
</a>
</g>
</g>
<!-- Node1&#45;&gt;Node2 -->
<g id="edge1" class="edge">
<title>Node1&#45;&gt;Node2</title>
<path fill="none" stroke="midnightblue" d="M1299.5,-728.29C1299.5,-718.86 1299.5,-708.65 1299.5,-701.66"/>
<polygon fill="midnightblue" stroke="midnightblue" points="1296,-728.4 1299.5,-738.4 1303,-728.4 1296,-728.4"/>
</g>
<!-- Node23 -->
<g id="node23" class="node">
<title>Node23</title>
<g id="a_node23"><a xlink:href="rpc__sessions_8h.html" target="_top" xlink:title=" ">
<polygon fill="white" stroke="black" points="1112.5,-509 1112.5,-528 1258.5,-528 1258.5,-509 1112.5,-509"/>
<text text-anchor="middle" x="1185.5" y="-516" font-family="Helvetica,sans-Serif" font-size="10.00">src/enclave/rpc_sessions.h</text>
</a>
</g>
</g>
<!-- Node1&#45;&gt;Node23 -->
<g id="edge61" class="edge">
<title>Node1&#45;&gt;Node23</title>
<path fill="none" stroke="midnightblue" d="M1256.06,-733.31C1242.76,-725.42 1229.33,-715.03 1220.5,-702 1181.76,-644.85 1183.33,-555.72 1184.89,-528.01"/>
<polygon fill="midnightblue" stroke="midnightblue" points="1254.74,-736.58 1265.18,-738.37 1258.13,-730.46 1254.74,-736.58"/>
</g>
<!-- Node25 -->
<g id="node25" class="node">
<title>Node25</title>
<g id="a_node25"><a xlink:href="forwarder_8h.html" target="_top" xlink:title=" ">
<polygon fill="white" stroke="black" points="1526.5,-442 1526.5,-461 1660.5,-461 1660.5,-442 1526.5,-442"/>
<text text-anchor="middle" x="1593.5" y="-449" font-family="Helvetica,sans-Serif" font-size="10.00">src/node/rpc/forwarder.h</text>
</a>
</g>
</g>
<!-- Node1&#45;&gt;Node25 -->
<g id="edge62" class="edge">
<title>Node1&#45;&gt;Node25</title>
<path fill="none" stroke="midnightblue" d="M1370.69,-750.6C1507.67,-744.99 1794.5,-722.98 1794.5,-637 1794.5,-637 1794.5,-637 1794.5,-579 1794.5,-507.26 1701.64,-474.6 1642.16,-461.04"/>
<polygon fill="midnightblue" stroke="midnightblue" points="1370.55,-747.1 1360.69,-750.99 1370.82,-754.09 1370.55,-747.1"/>
</g>
<!-- Node3 -->
<g id="node3" class="node">
<title>Node3</title>
<g id="a_node3"><a xlink:href="raft__types_8h.html" target="_top" xlink:title=" ">
<polygon fill="white" stroke="black" points="357.5,-503.5 357.5,-533.5 477.5,-533.5 477.5,-503.5 357.5,-503.5"/>
<text text-anchor="start" x="365.5" y="-521.5" font-family="Helvetica,sans-Serif" font-size="10.00">src/consensus/aft/raft</text>
<text text-anchor="middle" x="417.5" y="-510.5" font-family="Helvetica,sans-Serif" font-size="10.00">_types.h</text>
</a>
</g>
</g>
<!-- Node2&#45;&gt;Node3 -->
<g id="edge2" class="edge">
<title>Node2&#45;&gt;Node3</title>
<path fill="none" stroke="midnightblue" d="M1245.5,-680.5C1089.86,-650.24 641.06,-562.97 477.8,-531.22"/>
<polygon fill="midnightblue" stroke="midnightblue" points="1245.28,-684.02 1255.76,-682.5 1246.61,-677.15 1245.28,-684.02"/>
</g>
<!-- Node21 -->
<g id="node21" class="node">
<title>Node21</title>
<g id="a_node21"><a xlink:href="rpc__map_8h.html" target="_top" xlink:title=" ">
<polygon fill="white" stroke="black" points="1526.5,-626.5 1526.5,-645.5 1652.5,-645.5 1652.5,-626.5 1526.5,-626.5"/>
<text text-anchor="middle" x="1589.5" y="-633.5" font-family="Helvetica,sans-Serif" font-size="10.00">src/enclave/rpc_map.h</text>
</a>
</g>
</g>
<!-- Node2&#45;&gt;Node21 -->
<g id="edge31" class="edge">
<title>Node2&#45;&gt;Node21</title>
<path fill="none" stroke="midnightblue" d="M1355.35,-680.6C1410.15,-670.4 1492.73,-655.02 1543.76,-645.52"/>
<polygon fill="midnightblue" stroke="midnightblue" points="1354.64,-677.17 1345.45,-682.44 1355.92,-684.05 1354.64,-677.17"/>
</g>
<!-- Node2&#45;&gt;Node23 -->
<g id="edge53" class="edge">
<title>Node2&#45;&gt;Node23</title>
<path fill="none" stroke="midnightblue" d="M1300.41,-672.27C1300.71,-646.73 1297.75,-600.67 1275.5,-570 1260.35,-549.12 1233.77,-535.75 1213.41,-528.05"/>
<polygon fill="midnightblue" stroke="midnightblue" points="1296.91,-672.33 1300.11,-682.43 1303.91,-672.54 1296.91,-672.33"/>
</g>
<!-- Node26 -->
<g id="node26" class="node">
<title>Node26</title>
<g id="a_node26"><a xlink:href="frontend_8h.html" target="_top" xlink:title=" ">
<polygon fill="white" stroke="black" points="1529,-375 1529,-394 1658,-394 1658,-375 1529,-375"/>
<text text-anchor="middle" x="1593.5" y="-382" font-family="Helvetica,sans-Serif" font-size="10.00">src/node/rpc/frontend.h</text>
</a>
</g>
</g>
<!-- Node2&#45;&gt;Node26 -->
<g id="edge60" class="edge">
<title>Node2&#45;&gt;Node26</title>
<path fill="none" stroke="midnightblue" d="M1371.7,-680.33C1427.58,-667.49 1495.5,-639.8 1495.5,-581 1495.5,-581 1495.5,-581 1495.5,-517.5 1495.5,-479.98 1495.58,-466.45 1517.5,-436 1531.57,-416.46 1555.72,-402.32 1573.03,-394.06"/>
<polygon fill="midnightblue" stroke="midnightblue" points="1370.81,-676.94 1361.78,-682.48 1372.3,-683.78 1370.81,-676.94"/>
</g>
<!-- Node30 -->
<g id="node30" class="node">
<title>Node30</title>
<g id="a_node30"><a xlink:href="node__to__node_8h.html" target="_top" xlink:title=" ">
<polygon fill="white" stroke="black" points="956.5,-509 956.5,-528 1094.5,-528 1094.5,-509 956.5,-509"/>
<text text-anchor="middle" x="1025.5" y="-516" font-family="Helvetica,sans-Serif" font-size="10.00">src/node/node_to_node.h</text>
</a>
</g>
</g>
<!-- Node2&#45;&gt;Node30 -->
<g id="edge54" class="edge">
<title>Node2&#45;&gt;Node30</title>
<path fill="none" stroke="midnightblue" d="M1295.22,-672.39C1288.04,-645.53 1270.97,-596.27 1237.5,-570 1224.33,-559.66 1128.03,-539.48 1069.84,-528.01"/>
<polygon fill="midnightblue" stroke="midnightblue" points="1291.9,-673.53 1297.71,-682.39 1298.69,-671.84 1291.9,-673.53"/>
</g>
<!-- Node4 -->
<g id="node4" class="node">
<title>Node4</title>
<g id="a_node4"><a xlink:href="request__message_8h.html" target="_top" xlink:title=" ">
<polygon fill="white" stroke="black" points="173,-436.5 173,-466.5 298,-466.5 298,-436.5 173,-436.5"/>
<text text-anchor="start" x="181" y="-454.5" font-family="Helvetica,sans-Serif" font-size="10.00">src/consensus/aft/impl</text>
<text text-anchor="middle" x="235.5" y="-443.5" font-family="Helvetica,sans-Serif" font-size="10.00">/request_message.h</text>
</a>
</g>
</g>
<!-- Node3&#45;&gt;Node4 -->
<g id="edge3" class="edge">
<title>Node3&#45;&gt;Node4</title>
<path fill="none" stroke="midnightblue" d="M368.37,-499.96C339.06,-489.48 302.32,-476.37 274.91,-466.58"/>
<polygon fill="midnightblue" stroke="midnightblue" points="367.41,-503.33 378.01,-503.4 369.77,-496.74 367.41,-503.33"/>
</g>
<!-- Node5 -->
<g id="node5" class="node">
<title>Node5</title>
<g id="a_node5"><a xlink:href="state_8h.html" target="_top" xlink:title=" ">
<polygon fill="white" stroke="black" points="355,-436.5 355,-466.5 480,-466.5 480,-436.5 355,-436.5"/>
<text text-anchor="start" x="363" y="-454.5" font-family="Helvetica,sans-Serif" font-size="10.00">src/consensus/aft/impl</text>
<text text-anchor="middle" x="417.5" y="-443.5" font-family="Helvetica,sans-Serif" font-size="10.00">/state.h</text>
</a>
</g>
</g>
<!-- Node3&#45;&gt;Node5 -->
<g id="edge4" class="edge">
<title>Node3&#45;&gt;Node5</title>
<path fill="none" stroke="midnightblue" d="M417.5,-493.11C417.5,-484.15 417.5,-474.32 417.5,-466.58"/>
<polygon fill="midnightblue" stroke="midnightblue" points="414,-493.4 417.5,-503.4 421,-493.4 414,-493.4"/>
</g>
<!-- Node6 -->
<g id="node6" class="node">
<title>Node6</title>
<g id="a_node6"><a xlink:href="raft_8h.html" target="_top" xlink:title=" ">
<polygon fill="white" stroke="black" points="574,-308 574,-327 703,-327 703,-308 574,-308"/>
<text text-anchor="middle" x="638.5" y="-315" font-family="Helvetica,sans-Serif" font-size="10.00">src/consensus/aft/raft.h</text>
</a>
</g>
</g>
<!-- Node3&#45;&gt;Node6 -->
<g id="edge13" class="edge">
<title>Node3&#45;&gt;Node6</title>
<path fill="none" stroke="midnightblue" d="M376.68,-498.04C364.75,-490.18 353.14,-479.87 346.5,-467 323.4,-422.22 360.25,-394.85 403.5,-369 455.53,-337.9 524.17,-325.83 573.82,-321.22"/>
<polygon fill="midnightblue" stroke="midnightblue" points="374.99,-501.12 385.35,-503.34 378.64,-495.14 374.99,-501.12"/>
</g>
<!-- Node12 -->
<g id="node12" class="node">
<title>Node12</title>
<g id="a_node12"><a xlink:href="node__connections_8h.html" target="_top" xlink:title=" ">
<polygon fill="white" stroke="black" points="0,-442 0,-461 155,-461 155,-442 0,-442"/>
<text text-anchor="middle" x="77.5" y="-449" font-family="Helvetica,sans-Serif" font-size="10.00">src/host/node_connections.h</text>
</a>
</g>
</g>
<!-- Node3&#45;&gt;Node12 -->
<g id="edge14" class="edge">
<title>Node3&#45;&gt;Node12</title>
<path fill="none" stroke="midnightblue" d="M347.35,-504.09C279.69,-491.15 179.36,-471.97 122.01,-461.01"/>
<polygon fill="midnightblue" stroke="midnightblue" points="347.02,-507.59 357.5,-506.03 348.33,-500.71 347.02,-507.59"/>
</g>
<!-- Node14 -->
<g id="node14" class="node">
<title>Node14</title>
<g id="a_node14"><a xlink:href="node__client_8h.html" target="_top" xlink:title=" ">
<polygon fill="white" stroke="black" points="773.5,-442 773.5,-461 899.5,-461 899.5,-442 773.5,-442"/>
<text text-anchor="middle" x="836.5" y="-449" font-family="Helvetica,sans-Serif" font-size="10.00">src/node/node_client.h</text>
</a>
</g>
</g>
<!-- Node3&#45;&gt;Node14 -->
<g id="edge16" class="edge">
<title>Node3&#45;&gt;Node14</title>
<path fill="none" stroke="midnightblue" d="M487.6,-506.63C570.31,-493.79 706.12,-472.73 781.58,-461.02"/>
<polygon fill="midnightblue" stroke="midnightblue" points="486.88,-503.2 477.53,-508.19 487.95,-510.11 486.88,-503.2"/>
</g>
<!-- Node20 -->
<g id="node20" class="node">
<title>Node20</title>
<g id="a_node20"><a xlink:href="resharing__tracker_8h.html" target="_top" xlink:title=" ">
<polygon fill="white" stroke="black" points="498,-436.5 498,-466.5 605,-466.5 605,-436.5 498,-436.5"/>
<text text-anchor="start" x="506" y="-454.5" font-family="Helvetica,sans-Serif" font-size="10.00">src/node/resharing</text>
<text text-anchor="middle" x="551.5" y="-443.5" font-family="Helvetica,sans-Serif" font-size="10.00">_tracker.h</text>
</a>
</g>
</g>
<!-- Node3&#45;&gt;Node20 -->
<g id="edge28" class="edge">
<title>Node3&#45;&gt;Node20</title>
<path fill="none" stroke="midnightblue" d="M455.65,-498.99C476.89,-488.69 502.91,-476.07 522.48,-466.58"/>
<polygon fill="midnightblue" stroke="midnightblue" points="454.05,-495.88 446.58,-503.4 457.1,-502.18 454.05,-495.88"/>
</g>
<!-- Node5&#45;&gt;Node6 -->
<g id="edge5" class="edge">
<title>Node5&#45;&gt;Node6</title>
<path fill="none" stroke="midnightblue" d="M410.2,-426.48C406.38,-408.71 404.8,-384.92 417.5,-369 436.79,-344.8 515.77,-331.28 573.83,-324.44"/>
<polygon fill="midnightblue" stroke="midnightblue" points="406.86,-427.54 412.69,-436.39 413.65,-425.84 406.86,-427.54"/>
</g>
<!-- Node11 -->
<g id="node11" class="node">
<title>Node11</title>
<g id="a_node11"><a xlink:href="resharing_8h.html" target="_top" xlink:title=" ">
<polygon fill="white" stroke="black" points="426.5,-375 426.5,-394 542.5,-394 542.5,-375 426.5,-375"/>
<text text-anchor="middle" x="484.5" y="-382" font-family="Helvetica,sans-Serif" font-size="10.00">src/node/resharing.h</text>
</a>
</g>
</g>
<!-- Node5&#45;&gt;Node11 -->
<g id="edge11" class="edge">
<title>Node5&#45;&gt;Node11</title>
<path fill="none" stroke="midnightblue" d="M439.32,-429.34C451.62,-417.4 466.32,-403.14 475.54,-394.19"/>
<polygon fill="midnightblue" stroke="midnightblue" points="436.78,-426.92 432.04,-436.4 441.65,-431.94 436.78,-426.92"/>
</g>
<!-- Node7 -->
<g id="node7" class="node">
<title>Node7</title>
<g id="a_node7"><a xlink:href="node__state_8h.html" target="_top" xlink:title=" ">
<polygon fill="white" stroke="black" points="1020.5,-174 1020.5,-193 1144.5,-193 1144.5,-174 1020.5,-174"/>
<text text-anchor="middle" x="1082.5" y="-181" font-family="Helvetica,sans-Serif" font-size="10.00">src/node/node_state.h</text>
</a>
</g>
</g>
<!-- Node6&#45;&gt;Node7 -->
<g id="edge6" class="edge">
<title>Node6&#45;&gt;Node7</title>
<path fill="none" stroke="midnightblue" d="M654.45,-300.8C674.72,-281.87 711.63,-250.65 749.5,-235 838.8,-198.09 951.57,-187.79 1020.3,-185.12"/>
<polygon fill="midnightblue" stroke="midnightblue" points="651.88,-298.42 647.06,-307.86 656.72,-303.48 651.88,-298.42"/>
</g>
<!-- Node8 -->
<g id="node8" class="node">
<title>Node8</title>
<g id="a_node8"><a xlink:href="enclave_2enclave_8h.html" target="_top" xlink:title=" ">
<polygon fill="white" stroke="black" points="1483.5,-56.5 1483.5,-75.5 1605.5,-75.5 1605.5,-56.5 1483.5,-56.5"/>
<text text-anchor="middle" x="1544.5" y="-63.5" font-family="Helvetica,sans-Serif" font-size="10.00">src/enclave/enclave.h</text>
</a>
</g>
</g>
<!-- Node7&#45;&gt;Node8 -->
<g id="edge7" class="edge">
<title>Node7&#45;&gt;Node8</title>
<path fill="none" stroke="midnightblue" d="M1103.28,-168.12C1128.08,-151.72 1171.38,-125.44 1212.5,-112 1303.87,-82.15 1415.61,-72.08 1483.36,-68.7"/>
<polygon fill="midnightblue" stroke="midnightblue" points="1101.07,-165.39 1094.72,-173.88 1104.97,-171.2 1101.07,-165.39"/>
</g>
<!-- Node10 -->
<g id="node10" class="node">
<title>Node10</title>
<g id="a_node10"><a xlink:href="gov__effects_8h.html" target="_top" xlink:title=" ">
<polygon fill="white" stroke="black" points="1221.5,-112.5 1221.5,-131.5 1365.5,-131.5 1365.5,-112.5 1221.5,-112.5"/>
<text text-anchor="middle" x="1293.5" y="-119.5" font-family="Helvetica,sans-Serif" font-size="10.00">src/node/rpc/gov_effects.h</text>
</a>
</g>
</g>
<!-- Node7&#45;&gt;Node10 -->
<g id="edge9" class="edge">
<title>Node7&#45;&gt;Node10</title>
<path fill="none" stroke="midnightblue" d="M1122.4,-171.25C1163.39,-159.69 1226.3,-141.95 1263.32,-131.51"/>
<polygon fill="midnightblue" stroke="midnightblue" points="1121.41,-167.89 1112.73,-173.98 1123.31,-174.63 1121.41,-167.89"/>
</g>
<!-- Node9 -->
<g id="node9" class="node">
<title>Node9</title>
<g id="a_node9"><a xlink:href="enclave_2main_8cpp.html" target="_top" xlink:title=" ">
<polygon fill="white" stroke="black" points="1484.5,-0.5 1484.5,-19.5 1604.5,-19.5 1604.5,-0.5 1484.5,-0.5"/>
<text text-anchor="middle" x="1544.5" y="-7.5" font-family="Helvetica,sans-Serif" font-size="10.00">src/enclave/main.cpp</text>
</a>
</g>
</g>
<!-- Node8&#45;&gt;Node9 -->
<g id="edge8" class="edge">
<title>Node8&#45;&gt;Node9</title>
<path fill="none" stroke="midnightblue" d="M1544.5,-45.8C1544.5,-36.91 1544.5,-26.78 1544.5,-19.75"/>
<polygon fill="midnightblue" stroke="midnightblue" points="1541,-46.08 1544.5,-56.08 1548,-46.08 1541,-46.08"/>
</g>
<!-- Node10&#45;&gt;Node8 -->
<g id="edge10" class="edge">
<title>Node10&#45;&gt;Node8</title>
<path fill="none" stroke="midnightblue" d="M1343.32,-110.28C1390.75,-100.08 1461.2,-84.92 1504.91,-75.52"/>
<polygon fill="midnightblue" stroke="midnightblue" points="1342.31,-106.92 1333.27,-112.44 1343.78,-113.76 1342.31,-106.92"/>
</g>
<!-- Node11&#45;&gt;Node7 -->
<g id="edge12" class="edge">
<title>Node11&#45;&gt;Node7</title>
<path fill="none" stroke="midnightblue" d="M498.12,-367.06C513.29,-349.45 539.15,-321.43 565.5,-302 617.18,-263.89 632.27,-254.32 693.5,-235 805.21,-199.75 942.41,-189.07 1020.42,-185.86"/>
<polygon fill="midnightblue" stroke="midnightblue" points="495.37,-364.89 491.58,-374.78 500.72,-369.41 495.37,-364.89"/>
</g>
<!-- Node13 -->
<g id="node13" class="node">
<title>Node13</title>
<g id="a_node13"><a xlink:href="host_2main_8cpp.html" target="_top" xlink:title=" ">
<polygon fill="white" stroke="black" points="26,-375 26,-394 129,-394 129,-375 26,-375"/>
<text text-anchor="middle" x="77.5" y="-382" font-family="Helvetica,sans-Serif" font-size="10.00">src/host/main.cpp</text>
</a>
</g>
</g>
<!-- Node12&#45;&gt;Node13 -->
<g id="edge15" class="edge">
<title>Node12&#45;&gt;Node13</title>
<path fill="none" stroke="midnightblue" d="M77.5,-431.54C77.5,-419.17 77.5,-403.62 77.5,-394.13"/>
<polygon fill="midnightblue" stroke="midnightblue" points="74,-431.73 77.5,-441.73 81,-431.73 74,-431.73"/>
</g>
<!-- Node14&#45;&gt;Node6 -->
<g id="edge23" class="edge">
<title>Node14&#45;&gt;Node6</title>
<path fill="none" stroke="midnightblue" d="M826.84,-432.81C816.03,-414.52 796.93,-386.27 773.5,-369 744.9,-347.91 706.49,-334.68 677.96,-327.08"/>
<polygon fill="midnightblue" stroke="midnightblue" points="823.85,-434.63 831.84,-441.59 829.93,-431.17 823.85,-434.63"/>
</g>
<!-- Node15 -->
<g id="node15" class="node">
<title>Node15</title>
<g id="a_node15"><a xlink:href="orc__requests_8h.html" target="_top" xlink:title=" ">
<polygon fill="white" stroke="black" points="821,-369.5 821,-399.5 940,-399.5 940,-369.5 821,-369.5"/>
<text text-anchor="start" x="829" y="-387.5" font-family="Helvetica,sans-Serif" font-size="10.00">src/consensus/aft/orc</text>
<text text-anchor="middle" x="880.5" y="-376.5" font-family="Helvetica,sans-Serif" font-size="10.00">_requests.h</text>
</a>
</g>
</g>
<!-- Node14&#45;&gt;Node15 -->
<g id="edge17" class="edge">
<title>Node14&#45;&gt;Node15</title>
<path fill="none" stroke="midnightblue" d="M848.11,-433.35C855.23,-422.82 864.25,-409.5 870.96,-399.59"/>
<polygon fill="midnightblue" stroke="midnightblue" points="845.14,-431.49 842.43,-441.73 850.94,-435.41 845.14,-431.49"/>
</g>
<!-- Node18 -->
<g id="node18" class="node">
<title>Node18</title>
<g id="a_node18"><a xlink:href="http__node__client_8h.html" target="_top" xlink:title=" ">
<polygon fill="white" stroke="black" points="758.5,-235.5 758.5,-265.5 868.5,-265.5 868.5,-235.5 758.5,-235.5"/>
<text text-anchor="start" x="766.5" y="-253.5" font-family="Helvetica,sans-Serif" font-size="10.00">src/node/http_node</text>
<text text-anchor="middle" x="813.5" y="-242.5" font-family="Helvetica,sans-Serif" font-size="10.00">_client.h</text>
</a>
</g>
</g>
<!-- Node14&#45;&gt;Node18 -->
<g id="edge24" class="edge">
<title>Node14&#45;&gt;Node18</title>
<path fill="none" stroke="midnightblue" d="M893.5,-438.9C914.8,-431.49 936.88,-419.47 949.5,-400 957,-388.44 955.23,-381.53 949.5,-369 927.23,-320.34 873.77,-284.14 840.89,-265.55"/>
<polygon fill="midnightblue" stroke="midnightblue" points="892.26,-435.62 883.8,-441.98 894.39,-442.29 892.26,-435.62"/>
</g>
<!-- Node19 -->
<g id="node19" class="node">
<title>Node19</title>
<g id="a_node19"><a xlink:href="retired__nodes__cleanup_8h.html" target="_top" xlink:title=" ">
<polygon fill="white" stroke="black" points="636.5,-369.5 636.5,-399.5 764.5,-399.5 764.5,-369.5 636.5,-369.5"/>
<text text-anchor="start" x="644.5" y="-387.5" font-family="Helvetica,sans-Serif" font-size="10.00">src/node/retired_nodes</text>
<text text-anchor="middle" x="700.5" y="-376.5" font-family="Helvetica,sans-Serif" font-size="10.00">_cleanup.h</text>
</a>
</g>
</g>
<!-- Node14&#45;&gt;Node19 -->
<g id="edge26" class="edge">
<title>Node14&#45;&gt;Node19</title>
<path fill="none" stroke="midnightblue" d="M809.25,-437.47C786.25,-426.49 753.42,-410.79 729.85,-399.53"/>
<polygon fill="midnightblue" stroke="midnightblue" points="807.91,-440.71 818.44,-441.87 810.93,-434.4 807.91,-440.71"/>
</g>
<!-- Node15&#45;&gt;Node6 -->
<g id="edge18" class="edge">
<title>Node15&#45;&gt;Node6</title>
<path fill="none" stroke="midnightblue" d="M818.44,-366.83C771.08,-354.11 707.77,-337.11 670.25,-327.03"/>
<polygon fill="midnightblue" stroke="midnightblue" points="817.72,-370.26 828.29,-369.48 819.54,-363.5 817.72,-370.26"/>
</g>
<!-- Node16 -->
<g id="node16" class="node">
<title>Node16</title>
<g id="a_node16"><a xlink:href="node__frontend_8h.html" target="_top" xlink:title=" ">
<polygon fill="white" stroke="black" points="1212.5,-308 1212.5,-327 1370.5,-327 1370.5,-308 1212.5,-308"/>
<text text-anchor="middle" x="1291.5" y="-315" font-family="Helvetica,sans-Serif" font-size="10.00">src/node/rpc/node_frontend.h</text>
</a>
</g>
</g>
<!-- Node15&#45;&gt;Node16 -->
<g id="edge19" class="edge">
<title>Node15&#45;&gt;Node16</title>
<path fill="none" stroke="midnightblue" d="M950.39,-372.45C1031.61,-359.6 1163.87,-338.69 1237.56,-327.03"/>
<polygon fill="midnightblue" stroke="midnightblue" points="949.59,-369.03 940.26,-374.05 950.69,-375.94 949.59,-369.03"/>
</g>
<!-- Node16&#45;&gt;Node8 -->
<g id="edge20" class="edge">
<title>Node16&#45;&gt;Node8</title>
<path fill="none" stroke="midnightblue" d="M1338.4,-305C1362.49,-297.2 1391.01,-284.8 1411.5,-266 1468.48,-213.71 1444.43,-172.58 1492.5,-112 1504.08,-97.41 1520.85,-83.89 1532.19,-75.56"/>
<polygon fill="midnightblue" stroke="midnightblue" points="1337.26,-301.69 1328.73,-307.97 1339.31,-308.38 1337.26,-301.69"/>
</g>
<!-- Node17 -->
<g id="node17" class="node">
<title>Node17</title>
<g id="a_node17"><a xlink:href="jwt__key__auto__refresh_8h.html" target="_top" xlink:title=" ">
<polygon fill="white" stroke="black" points="1277,-235.5 1277,-265.5 1402,-265.5 1402,-235.5 1277,-235.5"/>
<text text-anchor="start" x="1285" y="-253.5" font-family="Helvetica,sans-Serif" font-size="10.00">src/node/jwt_key_auto</text>
<text text-anchor="middle" x="1339.5" y="-242.5" font-family="Helvetica,sans-Serif" font-size="10.00">_refresh.h</text>
</a>
</g>
</g>
<!-- Node16&#45;&gt;Node17 -->
<g id="edge21" class="edge">
<title>Node16&#45;&gt;Node17</title>
<path fill="none" stroke="midnightblue" d="M1303.93,-299.67C1311.74,-289.09 1321.7,-275.6 1329.1,-265.59"/>
<polygon fill="midnightblue" stroke="midnightblue" points="1301.1,-297.61 1297.97,-307.73 1306.73,-301.77 1301.1,-297.61"/>
</g>
<!-- Node17&#45;&gt;Node7 -->
<g id="edge22" class="edge">
<title>Node17&#45;&gt;Node7</title>
<path fill="none" stroke="midnightblue" d="M1274.22,-232.99C1223.86,-220.25 1156.23,-203.15 1116.22,-193.03"/>
<polygon fill="midnightblue" stroke="midnightblue" points="1273.5,-236.42 1284.05,-235.48 1275.21,-229.63 1273.5,-236.42"/>
</g>
<!-- Node18&#45;&gt;Node7 -->
<g id="edge25" class="edge">
<title>Node18&#45;&gt;Node7</title>
<path fill="none" stroke="midnightblue" d="M878.58,-233.78C931.59,-220.97 1004.43,-203.36 1047.18,-193.03"/>
<polygon fill="midnightblue" stroke="midnightblue" points="877.48,-230.44 868.59,-236.19 879.13,-237.24 877.48,-230.44"/>
</g>
<!-- Node19&#45;&gt;Node6 -->
<g id="edge27" class="edge">
<title>Node19&#45;&gt;Node6</title>
<path fill="none" stroke="midnightblue" d="M679.99,-362C668.67,-350.13 655.24,-336.05 646.79,-327.19"/>
<polygon fill="midnightblue" stroke="midnightblue" points="677.61,-364.58 687.05,-369.4 682.68,-359.74 677.61,-364.58"/>
</g>
<!-- Node20&#45;&gt;Node6 -->
<g id="edge29" class="edge">
<title>Node20&#45;&gt;Node6</title>
<path fill="none" stroke="midnightblue" d="M561.97,-427.3C569.95,-410.53 581.72,-387.64 594.5,-369 605.29,-353.27 620.31,-336.97 629.72,-327.28"/>
<polygon fill="midnightblue" stroke="midnightblue" points="558.78,-425.84 557.73,-436.39 565.13,-428.8 558.78,-425.84"/>
</g>
<!-- Node20&#45;&gt;Node11 -->
<g id="edge30" class="edge">
<title>Node20&#45;&gt;Node11</title>
<path fill="none" stroke="midnightblue" d="M529.68,-429.34C517.38,-417.4 502.68,-403.14 493.46,-394.19"/>
<polygon fill="midnightblue" stroke="midnightblue" points="527.35,-431.94 536.96,-436.4 532.22,-426.92 527.35,-431.94"/>
</g>
<!-- Node21&#45;&gt;Node8 -->
<g id="edge32" class="edge">
<title>Node21&#45;&gt;Node8</title>
<path fill="none" stroke="midnightblue" d="M1633.96,-623.57C1704.09,-602.56 1832.5,-550.69 1832.5,-452.5 1832.5,-452.5 1832.5,-452.5 1832.5,-182.5 1832.5,-147.32 1824.77,-132.95 1796.5,-112 1766.95,-90.11 1670.29,-77.71 1605.63,-71.69"/>
<polygon fill="midnightblue" stroke="midnightblue" points="1632.68,-620.3 1624.06,-626.45 1634.64,-627.02 1632.68,-620.3"/>
</g>
<!-- Node22 -->
<g id="node22" class="node">
<title>Node22</title>
<g id="a_node22"><a xlink:href="http__endpoint_8h.html" target="_top" xlink:title=" ">
<polygon fill="white" stroke="black" points="1329,-570.5 1329,-589.5 1462,-589.5 1462,-570.5 1329,-570.5"/>
<text text-anchor="middle" x="1395.5" y="-577.5" font-family="Helvetica,sans-Serif" font-size="10.00">src/http/http_endpoint.h</text>
</a>
</g>
</g>
<!-- Node21&#45;&gt;Node22 -->
<g id="edge33" class="edge">
<title>Node21&#45;&gt;Node22</title>
<path fill="none" stroke="midnightblue" d="M1548.9,-623.7C1512.28,-613.51 1459.24,-598.74 1426.1,-589.52"/>
<polygon fill="midnightblue" stroke="midnightblue" points="1548.19,-627.13 1558.76,-626.44 1550.06,-620.39 1548.19,-627.13"/>
</g>
<!-- Node21&#45;&gt;Node25 -->
<g id="edge41" class="edge">
<title>Node21&#45;&gt;Node25</title>
<path fill="none" stroke="midnightblue" d="M1589.92,-615.72C1590.78,-576.56 1592.7,-489.09 1593.31,-461.21"/>
<polygon fill="midnightblue" stroke="midnightblue" points="1586.41,-616.12 1589.69,-626.2 1593.41,-616.28 1586.41,-616.12"/>
</g>
<!-- Node22&#45;&gt;Node23 -->
<g id="edge34" class="edge">
<title>Node22&#45;&gt;Node23</title>
<path fill="none" stroke="midnightblue" d="M1355.53,-567.68C1314.73,-556.11 1252.31,-538.43 1215.53,-528.01"/>
<polygon fill="midnightblue" stroke="midnightblue" points="1354.84,-571.12 1365.41,-570.48 1356.74,-564.38 1354.84,-571.12"/>
</g>
<!-- Node23&#45;&gt;Node7 -->
<g id="edge39" class="edge">
<title>Node23&#45;&gt;Node7</title>
<path fill="none" stroke="midnightblue" d="M1163.3,-503.09C1133.03,-481.48 1082.5,-437.62 1082.5,-385.5 1082.5,-385.5 1082.5,-385.5 1082.5,-316.5 1082.5,-269.98 1082.5,-214.24 1082.5,-193.15"/>
<polygon fill="midnightblue" stroke="midnightblue" points="1161.39,-506.02 1171.61,-508.82 1165.37,-500.26 1161.39,-506.02"/>
</g>
<!-- Node23&#45;&gt;Node8 -->
<g id="edge35" class="edge">
<title>Node23&#45;&gt;Node8</title>
<path fill="none" stroke="midnightblue" d="M1204.64,-502.62C1250.19,-466.4 1366.49,-369.04 1437.5,-266 1485.14,-196.88 1527.9,-104.26 1540.65,-75.73"/>
<polygon fill="midnightblue" stroke="midnightblue" points="1202.43,-499.9 1196.75,-508.84 1206.77,-505.4 1202.43,-499.9"/>
</g>
<!-- Node23&#45;&gt;Node11 -->
<g id="edge40" class="edge">
<title>Node23&#45;&gt;Node11</title>
<path fill="none" stroke="midnightblue" d="M1130.46,-507.23C1121.47,-505.7 1112.24,-504.23 1103.5,-503 953.48,-481.8 913.16,-496.29 764.5,-467 667.88,-447.97 556.45,-410.81 508.49,-394.06"/>
<polygon fill="midnightblue" stroke="midnightblue" points="1130.03,-510.7 1140.48,-508.96 1131.22,-503.81 1130.03,-510.7"/>
</g>
<!-- Node23&#45;&gt;Node14 -->
<g id="edge38" class="edge">
<title>Node23&#45;&gt;Node14</title>
<path fill="none" stroke="midnightblue" d="M1129.32,-507.04C1060.68,-494.25 945.86,-472.87 882.31,-461.03"/>
<polygon fill="midnightblue" stroke="midnightblue" points="1129.04,-510.55 1139.52,-508.94 1130.33,-503.66 1129.04,-510.55"/>
</g>
<!-- Node24 -->
<g id="node24" class="node">
<title>Node24</title>
<g id="a_node24"><a xlink:href="ccf__acme__client_8h.html" target="_top" xlink:title=" ">
<polygon fill="white" stroke="black" points="1110,-241 1110,-260 1259,-260 1259,-241 1110,-241"/>
<text text-anchor="middle" x="1184.5" y="-248" font-family="Helvetica,sans-Serif" font-size="10.00">src/node/ccf_acme_client.h</text>
</a>
</g>
</g>
<!-- Node23&#45;&gt;Node24 -->
<g id="edge36" class="edge">
<title>Node23&#45;&gt;Node24</title>
<path fill="none" stroke="midnightblue" d="M1185.43,-498.69C1185.23,-445.87 1184.67,-297.56 1184.53,-260.15"/>
<polygon fill="midnightblue" stroke="midnightblue" points="1181.93,-498.96 1185.47,-508.95 1188.93,-498.94 1181.93,-498.96"/>
</g>
<!-- Node24&#45;&gt;Node7 -->
<g id="edge37" class="edge">
<title>Node24&#45;&gt;Node7</title>
<path fill="none" stroke="midnightblue" d="M1162.17,-235.27C1141.98,-222.4 1112.91,-203.88 1096.04,-193.13"/>
<polygon fill="midnightblue" stroke="midnightblue" points="1160.43,-238.31 1170.74,-240.73 1164.19,-232.41 1160.43,-238.31"/>
</g>
<!-- Node25&#45;&gt;Node8 -->
<g id="edge42" class="edge">
<title>Node25&#45;&gt;Node8</title>
<path fill="none" stroke="midnightblue" d="M1648.14,-439.37C1707.66,-423.68 1794.5,-388.75 1794.5,-318.5 1794.5,-318.5 1794.5,-318.5 1794.5,-182.5 1794.5,-150.05 1799.24,-134.12 1775.5,-112 1751.32,-89.48 1665.48,-77.45 1605.55,-71.65"/>
<polygon fill="midnightblue" stroke="midnightblue" points="1646.95,-436.06 1638.11,-441.9 1648.66,-442.85 1646.95,-436.06"/>
</g>
<!-- Node25&#45;&gt;Node26 -->
<g id="edge43" class="edge">
<title>Node25&#45;&gt;Node26</title>
<path fill="none" stroke="midnightblue" d="M1593.5,-431.54C1593.5,-419.17 1593.5,-403.62 1593.5,-394.13"/>
<polygon fill="midnightblue" stroke="midnightblue" points="1590,-431.73 1593.5,-441.73 1597,-431.73 1590,-431.73"/>
</g>
<!-- Node26&#45;&gt;Node7 -->
<g id="edge47" class="edge">
<title>Node26&#45;&gt;Node7</title>
<path fill="none" stroke="midnightblue" d="M1594.09,-364.6C1593.66,-346.54 1590.28,-319.54 1575.5,-302 1524.77,-241.79 1487.38,-256.01 1411.5,-235 1320.44,-209.79 1211.5,-196.18 1144.66,-189.64"/>
<polygon fill="midnightblue" stroke="midnightblue" points="1590.59,-364.74 1594.05,-374.75 1597.59,-364.77 1590.59,-364.74"/>
</g>
<!-- Node26&#45;&gt;Node16 -->
<g id="edge50" class="edge">
<title>Node26&#45;&gt;Node16</title>
<path fill="none" stroke="midnightblue" d="M1543.8,-372.8C1484.37,-360.01 1386.09,-338.86 1331.38,-327.08"/>
<polygon fill="midnightblue" stroke="midnightblue" points="1543.2,-376.25 1553.71,-374.94 1544.67,-369.41 1543.2,-376.25"/>
</g>
<!-- Node27 -->
<g id="node27" class="node">
<title>Node27</title>
<g id="a_node27"><a xlink:href="acme__challenge__frontend_8h.html" target="_top" xlink:title=" ">
<polygon fill="white" stroke="black" points="1426.5,-302.5 1426.5,-332.5 1566.5,-332.5 1566.5,-302.5 1426.5,-302.5"/>
<text text-anchor="start" x="1434.5" y="-320.5" font-family="Helvetica,sans-Serif" font-size="10.00">src/node/acme_challenge</text>
<text text-anchor="middle" x="1496.5" y="-309.5" font-family="Helvetica,sans-Serif" font-size="10.00">_frontend.h</text>
</a>
</g>
</g>
<!-- Node26&#45;&gt;Node27 -->
<g id="edge44" class="edge">
<title>Node26&#45;&gt;Node27</title>
<path fill="none" stroke="midnightblue" d="M1572.09,-369.15C1555.86,-358.27 1533.66,-343.4 1517.53,-332.59"/>
<polygon fill="midnightblue" stroke="midnightblue" points="1570.16,-372.07 1580.42,-374.73 1574.06,-366.26 1570.16,-372.07"/>
</g>
<!-- Node28 -->
<g id="node28" class="node">
<title>Node28</title>
<g id="a_node28"><a xlink:href="member__frontend_8h.html" target="_top" xlink:title=" ">
<polygon fill="white" stroke="black" points="1572.5,-168.5 1572.5,-198.5 1692.5,-198.5 1692.5,-168.5 1572.5,-168.5"/>
<text text-anchor="start" x="1580.5" y="-186.5" font-family="Helvetica,sans-Serif" font-size="10.00">src/node/rpc/member</text>
<text text-anchor="middle" x="1632.5" y="-175.5" font-family="Helvetica,sans-Serif" font-size="10.00">_frontend.h</text>
</a>
</g>
</g>
<!-- Node26&#45;&gt;Node28 -->
<g id="edge48" class="edge">
<title>Node26&#45;&gt;Node28</title>
<path fill="none" stroke="midnightblue" d="M1599.59,-365.09C1602.57,-355.58 1606.04,-343.75 1608.5,-333 1619.66,-284.12 1627.58,-225.03 1630.84,-198.54"/>
<polygon fill="midnightblue" stroke="midnightblue" points="1596.24,-364.06 1596.51,-374.65 1602.91,-366.21 1596.24,-364.06"/>
</g>
<!-- Node29 -->
<g id="node29" class="node">
<title>Node29</title>
<g id="a_node29"><a xlink:href="user__frontend_8h.html" target="_top" xlink:title=" ">
<polygon fill="white" stroke="black" points="1611,-112.5 1611,-131.5 1766,-131.5 1766,-112.5 1611,-112.5"/>
<text text-anchor="middle" x="1688.5" y="-119.5" font-family="Helvetica,sans-Serif" font-size="10.00">src/node/rpc/user_frontend.h</text>
</a>
</g>
</g>
<!-- Node26&#45;&gt;Node29 -->
<g id="edge51" class="edge">
<title>Node26&#45;&gt;Node29</title>
<path fill="none" stroke="midnightblue" d="M1607.66,-366.74C1632.61,-335.95 1683.49,-267.27 1701.5,-199 1707.85,-174.93 1698.11,-145.71 1692.31,-131.54"/>
<polygon fill="midnightblue" stroke="midnightblue" points="1604.75,-364.77 1601.08,-374.71 1610.15,-369.22 1604.75,-364.77"/>
</g>
<!-- Node27&#45;&gt;Node8 -->
<g id="edge45" class="edge">
<title>Node27&#45;&gt;Node8</title>
<path fill="none" stroke="midnightblue" d="M1509.47,-293.28C1513.62,-284.91 1517.82,-275.25 1520.5,-266 1541.21,-194.47 1544.07,-103.47 1544.45,-75.54"/>
<polygon fill="midnightblue" stroke="midnightblue" points="1506.23,-291.92 1504.72,-302.4 1512.44,-295.15 1506.23,-291.92"/>
</g>
<!-- Node27&#45;&gt;Node24 -->
<g id="edge46" class="edge">
<title>Node27&#45;&gt;Node24</title>
<path fill="none" stroke="midnightblue" d="M1419.16,-300.39C1357.82,-287.61 1274.52,-270.25 1225.44,-260.03"/>
<polygon fill="midnightblue" stroke="midnightblue" points="1418.68,-303.86 1429.18,-302.48 1420.11,-297.01 1418.68,-303.86"/>
</g>
<!-- Node28&#45;&gt;Node8 -->
<g id="edge49" class="edge">
<title>Node28&#45;&gt;Node8</title>
<path fill="none" stroke="midnightblue" d="M1615.55,-160.26C1595.96,-134.54 1564.65,-93.45 1551.11,-75.67"/>
<polygon fill="midnightblue" stroke="midnightblue" points="1612.86,-162.5 1621.71,-168.34 1618.43,-158.26 1612.86,-162.5"/>
</g>
<!-- Node29&#45;&gt;Node8 -->
<g id="edge52" class="edge">
<title>Node29&#45;&gt;Node8</title>
<path fill="none" stroke="midnightblue" d="M1656.25,-108.91C1629.18,-98.75 1591.18,-84.51 1567.21,-75.52"/>
<polygon fill="midnightblue" stroke="midnightblue" points="1655.09,-112.21 1665.68,-112.44 1657.55,-105.66 1655.09,-112.21"/>
</g>
<!-- Node30&#45;&gt;Node6 -->
<g id="edge55" class="edge">
<title>Node30&#45;&gt;Node6</title>
<path fill="none" stroke="midnightblue" d="M952.2,-507.44C847,-491.21 662.05,-455.36 627.5,-400 613.06,-376.87 626.29,-342.88 633.94,-327.12"/>
<polygon fill="midnightblue" stroke="midnightblue" points="951.71,-510.9 962.12,-508.95 952.76,-503.98 951.71,-510.9"/>
</g>
<!-- Node30&#45;&gt;Node7 -->
<g id="edge56" class="edge">
<title>Node30&#45;&gt;Node7</title>
<path fill="none" stroke="midnightblue" d="M1018.58,-499.37C1007.75,-471.25 985.93,-415.5 965.5,-369 945.11,-322.59 927.66,-315.45 916.5,-266 913.47,-252.56 908.3,-246.07 916.5,-235 940.26,-202.93 983.9,-190.53 1020.47,-186.03"/>
<polygon fill="midnightblue" stroke="midnightblue" points="1015.32,-500.64 1022.16,-508.72 1021.85,-498.13 1015.32,-500.64"/>
</g>
<!-- Node30&#45;&gt;Node25 -->
<g id="edge59" class="edge">
<title>Node30&#45;&gt;Node25</title>
<path fill="none" stroke="midnightblue" d="M1077.81,-507.17C1086.38,-505.66 1095.17,-504.2 1103.5,-503 1253.95,-481.3 1431.71,-465.39 1526.32,-457.69"/>
<polygon fill="midnightblue" stroke="midnightblue" points="1077.12,-503.74 1067.9,-508.97 1078.37,-510.63 1077.12,-503.74"/>
</g>
<!-- Node31 -->
<g id="node31" class="node">
<title>Node31</title>
<g id="a_node31"><a xlink:href="node__to__node__channel__manager_8h.html" target="_top" xlink:title=" ">
<polygon fill="white" stroke="black" points="925,-235.5 925,-265.5 1054,-265.5 1054,-235.5 925,-235.5"/>
<text text-anchor="start" x="933" y="-253.5" font-family="Helvetica,sans-Serif" font-size="10.00">src/node/node_to_node</text>
<text text-anchor="middle" x="989.5" y="-242.5" font-family="Helvetica,sans-Serif" font-size="10.00">_channel_manager.h</text>
</a>
</g>
</g>
<!-- Node30&#45;&gt;Node31 -->
<g id="edge57" class="edge">
<title>Node30&#45;&gt;Node31</title>
<path fill="none" stroke="midnightblue" d="M1028.31,-498.45C1033.25,-460.25 1041.13,-371.94 1020.5,-302 1016.54,-288.58 1008.04,-275.17 1000.94,-265.54"/>
<polygon fill="midnightblue" stroke="midnightblue" points="1024.81,-498.24 1026.91,-508.63 1031.74,-499.2 1024.81,-498.24"/>
</g>
<!-- Node31&#45;&gt;Node7 -->
<g id="edge58" class="edge">
<title>Node31&#45;&gt;Node7</title>
<path fill="none" stroke="midnightblue" d="M1017.91,-229.64C1035.46,-217.37 1057.09,-202.26 1070.33,-193.01"/>
<polygon fill="midnightblue" stroke="midnightblue" points="1015.87,-226.8 1009.68,-235.4 1019.88,-232.54 1015.87,-226.8"/>
</g>
</g>
</svg>
        <g id="navigator" transform="translate(0 0)" fill="#404254">
                <rect fill="#f2f5e9" fill-opacity="0.5" stroke="#606060" stroke-width=".5" x="0" y="0" width="60" height="60"/>
                <use id="zoomplus" xlink:href="#zoomPlus" x="17" y="9" onmousedown="handleZoom(evt,'in')"/>
                <use id="zoomminus" xlink:href="#zoomMin" x="42" y="9" onmousedown="handleZoom(evt,'out')"/>
                <use id="reset" xlink:href="#resetDef" x="30" y="36" onmousedown="handleReset()"/>
                <g id="arrowUp" xlink:href="#dirArrow" transform="translate(30 24)" onmousedown="handlePan(0,-1)">
                  <use xlink:href="#rim" fill="#404040">
                        <set attributeName="fill" to="#808080" begin="arrowUp.mouseover" end="arrowUp.mouseout"/>
                  </use>
                  <path fill="none" stroke="white" stroke-width="1.5" d="M0,-3.0v7 M-2.5,-0.5L0,-3.0L2.5,-0.5"/>
                </g>
                <g id="arrowRight" xlink:href="#dirArrow" transform="rotate(90) translate(36 -43)" onmousedown="handlePan(1,0)">
                  <use xlink:href="#rim" fill="#404040">
                        <set attributeName="fill" to="#808080" begin="arrowRight.mouseover" end="arrowRight.mouseout"/>
                  </use>
                  <path fill="none" stroke="white" stroke-width="1.5" d="M0,-3.0v7 M-2.5,-0.5L0,-3.0L2.5,-0.5"/>
                </g>
                <g id="arrowDown" xlink:href="#dirArrow" transform="rotate(180) translate(-30 -48)" onmousedown="handlePan(0,1)">
                  <use xlink:href="#rim" fill="#404040">
                        <set attributeName="fill" to="#808080" begin="arrowDown.mouseover" end="arrowDown.mouseout"/>
                  </use>
                  <path fill="none" stroke="white" stroke-width="1.5" d="M0,-3.0v7 M-2.5,-0.5L0,-3.0L2.5,-0.5"/>
                </g>
                <g id="arrowLeft" xlink:href="#dirArrow" transform="rotate(270) translate(-36 17)" onmousedown="handlePan(-1,0)">
                  <use xlink:href="#rim" fill="#404040">
                        <set attributeName="fill" to="#808080" begin="arrowLeft.mouseover" end="arrowLeft.mouseout"/>
                  </use>
                  <path fill="none" stroke="white" stroke-width="1.5" d="M0,-3.0v7 M-2.5,-0.5L0,-3.0L2.5,-0.5"/>
                </g>
        </g>
        <svg viewBox="0 0 15 15" width="100%" height="30px" preserveAspectRatio="xMaxYMin meet">
         <g id="arrow_out" transform="scale(0.3 0.3)">
          <a xlink:href="forwarder__types_8h__dep__incl_org.svg" target="_base">
           <rect id="button" ry="5" rx="5" y="6" x="6" height="38" width="38"
                fill="#f2f5e9" fill-opacity="0.5" stroke="#606060" stroke-width="1.0"/>
           <path id="arrow"
             d="M 11.500037,31.436501 C 11.940474,20.09759 22.043105,11.32322 32.158766,21.979434 L 37.068811,17.246167 C 37.068811,17.246167 37.088388,32 37.088388,32 L 22.160133,31.978069 C 22.160133,31.978069 26.997745,27.140456 26.997745,27.140456 C 18.528582,18.264221 13.291696,25.230495 11.500037,31.436501 z"
             style="fill:#404040;"/>
          </a>
         </g>
        </svg>
</svg>
