<?xml version="1.0" encoding="UTF-8" standalone="no"?>
<!DOCTYPE svg PUBLIC "-//W3C//DTD SVG 1.1//EN"
 "http://www.w3.org/Graphics/SVG/1.1/DTD/svg11.dtd">
<!-- Generated by graphviz version 2.43.0 (0)
 -->
<!-- Title: src/crypto/hmac.h Pages: 1 -->
<!--zoomable 699 -->
<svg id="main" version="1.1" xmlns="http://www.w3.org/2000/svg" xmlns:xlink="http://www.w3.org/1999/xlink" xml:space="preserve" onload="init(evt)">
<style type="text/css"><![CDATA[
.edge:hover path { stroke: red; }
.edge:hover polygon { stroke: red; fill: red; }
]]></style>
<script type="text/javascript"><![CDATA[
var edges = document.getElementsByTagName('g');
if (edges && edges.length) {
  for (var i=0;i<edges.length;i++) {
    if (edges[i].id.substr(0,4)=='edge') {
      edges[i].setAttribute('class','edge');
    }
  }
}
]]></script>
        <defs>
                <circle id="rim" cx="0" cy="0" r="7"/>
                <circle id="rim2" cx="0" cy="0" r="3.5"/>
                <g id="zoomPlus">
                        <use xlink:href="#rim" fill="#404040">
                                <set attributeName="fill" to="#808080" begin="zoomplus.mouseover" end="zoomplus.mouseout"/>
                        </use>
                        <path d="M-4,0h8M0,-4v8" fill="none" stroke="white" stroke-width="1.5" pointer-events="none"/>
                </g>
                <g id="zoomMin">
                        <use xlink:href="#rim" fill="#404040">
                                <set attributeName="fill" to="#808080" begin="zoomminus.mouseover" end="zoomminus.mouseout"/>
                        </use>
                        <path d="M-4,0h8" fill="none" stroke="white" stroke-width="1.5" pointer-events="none"/>
                </g>
                <g id="dirArrow">
                        <path fill="none" stroke="white" stroke-width="1.5" d="M0,-3.0v7 M-2.5,-0.5L0,-3.0L2.5,-0.5"/>
                </g>
               <g id="resetDef">
                       <use xlink:href="#rim2" fill="#404040">
                               <set attributeName="fill" to="#808080" begin="reset.mouseover" end="reset.mouseout"/>
                       </use>
               </g>
        </defs>

<script type="text/javascript">
var viewWidth = 2583;
var viewHeight = 699;
var sectionId = 'dynsection-1';
</script>
<script xlink:href="svgpan.js"/>
<svg id="graph" class="graph">
<g id="viewport">
<title>src/crypto/hmac.h</title>
<polygon fill="white" stroke="transparent" points="-4,4 -4,-695 2579,-695 2579,4 -4,4"/>
<!-- Node1 -->
<g id="node1" class="node">
<title>Node1</title>
<g id="a_node1"><a xlink:title=" ">
<polygon fill="#bfbfbf" stroke="black" points="546,-671.5 546,-690.5 650,-690.5 650,-671.5 546,-671.5"/>
<text text-anchor="middle" x="598" y="-678.5" font-family="Helvetica,sans-Serif" font-size="10.00">src/crypto/hmac.h</text>
</a>
</g>
</g>
<!-- Node2 -->
<g id="node2" class="node">
<title>Node2</title>
<g id="a_node2"><a xlink:href="hmac_8cpp.html" target="_top" xlink:title=" ">
<polygon fill="white" stroke="black" points="454.5,-615.5 454.5,-634.5 569.5,-634.5 569.5,-615.5 454.5,-615.5"/>
<text text-anchor="middle" x="512" y="-622.5" font-family="Helvetica,sans-Serif" font-size="10.00">src/crypto/hmac.cpp</text>
</a>
</g>
</g>
<!-- Node1&#45;&gt;Node2 -->
<g id="edge1" class="edge">
<title>Node1&#45;&gt;Node2</title>
<path fill="none" stroke="midnightblue" d="M575.55,-665.9C559.78,-656 539.19,-643.07 525.78,-634.65"/>
<polygon fill="midnightblue" stroke="midnightblue" points="573.85,-668.97 584.18,-671.32 577.57,-663.04 573.85,-668.97"/>
</g>
<!-- Node3 -->
<g id="node3" class="node">
<title>Node3</title>
<g id="a_node3"><a xlink:href="kv_2encryptor_8h.html" target="_top" xlink:title=" ">
<polygon fill="white" stroke="black" points="670,-375 670,-394 774,-394 774,-375 670,-375"/>
<text text-anchor="middle" x="722" y="-382" font-family="Helvetica,sans-Serif" font-size="10.00">src/kv/encryptor.h</text>
</a>
</g>
</g>
<!-- Node1&#45;&gt;Node3 -->
<g id="edge2" class="edge">
<title>Node1&#45;&gt;Node3</title>
<path fill="none" stroke="midnightblue" d="M598,-661.25C598,-639.36 598,-602.05 598,-570 598,-570 598,-570 598,-506.5 598,-449.35 666.3,-410.38 701.52,-394.08"/>
<polygon fill="midnightblue" stroke="midnightblue" points="594.5,-661.44 598,-671.44 601.5,-661.44 594.5,-661.44"/>
</g>
<!-- Node13 -->
<g id="node13" class="node">
<title>Node13</title>
<g id="a_node13"><a xlink:href="ledger__secret_8h.html" target="_top" xlink:title=" ">
<polygon fill="white" stroke="black" points="1044,-615.5 1044,-634.5 1180,-634.5 1180,-615.5 1044,-615.5"/>
<text text-anchor="middle" x="1112" y="-622.5" font-family="Helvetica,sans-Serif" font-size="10.00">src/node/ledger_secret.h</text>
</a>
</g>
</g>
<!-- Node1&#45;&gt;Node13 -->
<g id="edge17" class="edge">
<title>Node1&#45;&gt;Node13</title>
<path fill="none" stroke="midnightblue" d="M660.35,-673.45C757.34,-663.26 943.6,-643.69 1043.96,-633.15"/>
<polygon fill="midnightblue" stroke="midnightblue" points="659.69,-670 650.11,-674.53 660.42,-676.96 659.69,-670"/>
</g>
<!-- Node4 -->
<g id="node4" class="node">
<title>Node4</title>
<g id="a_node4"><a xlink:href="node_2encryptor_8h.html" target="_top" xlink:title=" ">
<polygon fill="white" stroke="black" points="664,-308 664,-327 780,-327 780,-308 664,-308"/>
<text text-anchor="middle" x="722" y="-315" font-family="Helvetica,sans-Serif" font-size="10.00">src/node/encryptor.h</text>
</a>
</g>
</g>
<!-- Node3&#45;&gt;Node4 -->
<g id="edge3" class="edge">
<title>Node3&#45;&gt;Node4</title>
<path fill="none" stroke="midnightblue" d="M722,-364.54C722,-352.17 722,-336.62 722,-327.13"/>
<polygon fill="midnightblue" stroke="midnightblue" points="718.5,-364.73 722,-374.73 725.5,-364.73 718.5,-364.73"/>
</g>
<!-- Node11 -->
<g id="node11" class="node">
<title>Node11</title>
<g id="a_node11"><a xlink:href="share__manager_8h.html" target="_top" xlink:title=" ">
<polygon fill="white" stroke="black" points="1458.5,-308 1458.5,-327 1603.5,-327 1603.5,-308 1458.5,-308"/>
<text text-anchor="middle" x="1531" y="-315" font-family="Helvetica,sans-Serif" font-size="10.00">src/node/share_manager.h</text>
</a>
</g>
</g>
<!-- Node3&#45;&gt;Node11 -->
<g id="edge13" class="edge">
<title>Node3&#45;&gt;Node11</title>
<path fill="none" stroke="midnightblue" d="M784.46,-379.88C905.37,-372.66 1179.78,-355.23 1410,-333 1427.69,-331.29 1446.8,-329.14 1464.49,-327.03"/>
<polygon fill="midnightblue" stroke="midnightblue" points="784.06,-376.4 774.29,-380.49 784.48,-383.39 784.06,-376.4"/>
</g>
<!-- Node5 -->
<g id="node5" class="node">
<title>Node5</title>
<g id="a_node5"><a xlink:href="historical__queries_8h.html" target="_top" xlink:title=" ">
<polygon fill="white" stroke="black" points="0,-235.5 0,-265.5 106,-265.5 106,-235.5 0,-235.5"/>
<text text-anchor="start" x="8" y="-253.5" font-family="Helvetica,sans-Serif" font-size="10.00">src/node/historical</text>
<text text-anchor="middle" x="53" y="-242.5" font-family="Helvetica,sans-Serif" font-size="10.00">_queries.h</text>
</a>
</g>
</g>
<!-- Node4&#45;&gt;Node5 -->
<g id="edge4" class="edge">
<title>Node4&#45;&gt;Node5</title>
<path fill="none" stroke="midnightblue" d="M674.35,-305.99C666.25,-304.46 657.91,-303.06 650,-302 413.79,-270.41 350.69,-301.25 115,-266 112.16,-265.57 109.25,-265.09 106.33,-264.55"/>
<polygon fill="midnightblue" stroke="midnightblue" points="673.93,-309.47 684.42,-307.96 675.28,-302.6 673.93,-309.47"/>
</g>
<!-- Node9 -->
<g id="node9" class="node">
<title>Node9</title>
<g id="a_node9"><a xlink:href="node__state_8h.html" target="_top" xlink:title=" ">
<polygon fill="white" stroke="black" points="1368,-179.5 1368,-198.5 1492,-198.5 1492,-179.5 1368,-179.5"/>
<text text-anchor="middle" x="1430" y="-186.5" font-family="Helvetica,sans-Serif" font-size="10.00">src/node/node_state.h</text>
</a>
</g>
</g>
<!-- Node4&#45;&gt;Node9 -->
<g id="edge9" class="edge">
<title>Node4&#45;&gt;Node9</title>
<path fill="none" stroke="midnightblue" d="M707.8,-299.72C694.24,-281.59 678.15,-252.91 695,-235 717.91,-210.64 1194.43,-196.04 1367.71,-191.52"/>
<polygon fill="midnightblue" stroke="midnightblue" points="705.15,-302.01 714.1,-307.67 710.64,-297.66 705.15,-302.01"/>
</g>
<!-- Node6 -->
<g id="node6" class="node">
<title>Node6</title>
<g id="a_node6"><a xlink:href="enclave_2enclave_8h.html" target="_top" xlink:title=" ">
<polygon fill="white" stroke="black" points="1125,-56.5 1125,-75.5 1247,-75.5 1247,-56.5 1125,-56.5"/>
<text text-anchor="middle" x="1186" y="-63.5" font-family="Helvetica,sans-Serif" font-size="10.00">src/enclave/enclave.h</text>
</a>
</g>
</g>
<!-- Node5&#45;&gt;Node6 -->
<g id="edge5" class="edge">
<title>Node5&#45;&gt;Node6</title>
<path fill="none" stroke="midnightblue" d="M110.9,-232.63C163.79,-217.53 244.29,-195.32 315,-179 468.05,-143.68 506.43,-133.64 662,-112 828.63,-88.82 1026.84,-75.7 1124.86,-70.16"/>
<polygon fill="midnightblue" stroke="midnightblue" points="109.68,-229.34 101.03,-235.46 111.6,-236.07 109.68,-229.34"/>
</g>
<!-- Node8 -->
<g id="node8" class="node">
<title>Node8</title>
<g id="a_node8"><a xlink:href="historical__transaction__fetcher_8h.html" target="_top" xlink:title=" ">
<polygon fill="white" stroke="black" points="671.5,-112.5 671.5,-142.5 796.5,-142.5 796.5,-112.5 671.5,-112.5"/>
<text text-anchor="start" x="679.5" y="-130.5" font-family="Helvetica,sans-Serif" font-size="10.00">src/indexing/historical</text>
<text text-anchor="middle" x="734" y="-119.5" font-family="Helvetica,sans-Serif" font-size="10.00">_transaction_fetcher.h</text>
</a>
</g>
</g>
<!-- Node5&#45;&gt;Node8 -->
<g id="edge7" class="edge">
<title>Node5&#45;&gt;Node8</title>
<path fill="none" stroke="midnightblue" d="M115.99,-234.86C325.04,-192.73 561.14,-155.04 671.39,-138.01"/>
<polygon fill="midnightblue" stroke="midnightblue" points="115.16,-231.46 106.05,-236.87 116.55,-238.32 115.16,-231.46"/>
</g>
<!-- Node7 -->
<g id="node7" class="node">
<title>Node7</title>
<g id="a_node7"><a xlink:href="enclave_2main_8cpp.html" target="_top" xlink:title=" ">
<polygon fill="white" stroke="black" points="1126,-0.5 1126,-19.5 1246,-19.5 1246,-0.5 1126,-0.5"/>
<text text-anchor="middle" x="1186" y="-7.5" font-family="Helvetica,sans-Serif" font-size="10.00">src/enclave/main.cpp</text>
</a>
</g>
</g>
<!-- Node6&#45;&gt;Node7 -->
<g id="edge6" class="edge">
<title>Node6&#45;&gt;Node7</title>
<path fill="none" stroke="midnightblue" d="M1186,-45.8C1186,-36.91 1186,-26.78 1186,-19.75"/>
<polygon fill="midnightblue" stroke="midnightblue" points="1182.5,-46.08 1186,-56.08 1189.5,-46.08 1182.5,-46.08"/>
</g>
<!-- Node8&#45;&gt;Node6 -->
<g id="edge8" class="edge">
<title>Node8&#45;&gt;Node6</title>
<path fill="none" stroke="midnightblue" d="M806.78,-116.92C895,-105.31 1042.1,-85.94 1124.77,-75.06"/>
<polygon fill="midnightblue" stroke="midnightblue" points="806.31,-113.45 796.85,-118.23 807.22,-120.39 806.31,-113.45"/>
</g>
<!-- Node9&#45;&gt;Node6 -->
<g id="edge10" class="edge">
<title>Node9&#45;&gt;Node6</title>
<path fill="none" stroke="midnightblue" d="M1403.62,-174.92C1353.49,-150.06 1245.68,-96.6 1203.47,-75.66"/>
<polygon fill="midnightblue" stroke="midnightblue" points="1402.33,-178.18 1412.84,-179.49 1405.44,-171.91 1402.33,-178.18"/>
</g>
<!-- Node10 -->
<g id="node10" class="node">
<title>Node10</title>
<g id="a_node10"><a xlink:href="gov__effects_8h.html" target="_top" xlink:title=" ">
<polygon fill="white" stroke="black" points="1350,-118 1350,-137 1494,-137 1494,-118 1350,-118"/>
<text text-anchor="middle" x="1422" y="-125" font-family="Helvetica,sans-Serif" font-size="10.00">src/node/rpc/gov_effects.h</text>
</a>
</g>
</g>
<!-- Node9&#45;&gt;Node10 -->
<g id="edge11" class="edge">
<title>Node9&#45;&gt;Node10</title>
<path fill="none" stroke="midnightblue" d="M1427.49,-169.32C1426.03,-158.5 1424.27,-145.4 1423.14,-137.01"/>
<polygon fill="midnightblue" stroke="midnightblue" points="1424.05,-170.03 1428.85,-179.48 1430.99,-169.1 1424.05,-170.03"/>
</g>
<!-- Node10&#45;&gt;Node6 -->
<g id="edge12" class="edge">
<title>Node10&#45;&gt;Node6</title>
<path fill="none" stroke="midnightblue" d="M1378.24,-115.47C1332.42,-103.91 1261.43,-86.02 1219.75,-75.51"/>
<polygon fill="midnightblue" stroke="midnightblue" points="1377.63,-118.92 1388.19,-117.98 1379.35,-112.14 1377.63,-118.92"/>
</g>
<!-- Node11&#45;&gt;Node9 -->
<g id="edge14" class="edge">
<title>Node11&#45;&gt;Node9</title>
<path fill="none" stroke="midnightblue" d="M1517.81,-299.97C1496.12,-272.82 1453.69,-219.67 1436.99,-198.76"/>
<polygon fill="midnightblue" stroke="midnightblue" points="1515.08,-302.17 1524.06,-307.81 1520.55,-297.81 1515.08,-302.17"/>
</g>
<!-- Node12 -->
<g id="node12" class="node">
<title>Node12</title>
<g id="a_node12"><a xlink:href="member__frontend_8h.html" target="_top" xlink:title=" ">
<polygon fill="white" stroke="black" points="1957,-235.5 1957,-265.5 2077,-265.5 2077,-235.5 1957,-235.5"/>
<text text-anchor="start" x="1965" y="-253.5" font-family="Helvetica,sans-Serif" font-size="10.00">src/node/rpc/member</text>
<text text-anchor="middle" x="2017" y="-242.5" font-family="Helvetica,sans-Serif" font-size="10.00">_frontend.h</text>
</a>
</g>
</g>
<!-- Node11&#45;&gt;Node12 -->
<g id="edge15" class="edge">
<title>Node11&#45;&gt;Node12</title>
<path fill="none" stroke="midnightblue" d="M1585.98,-306.22C1594.67,-304.72 1603.57,-303.26 1612,-302 1743.94,-282.24 1777.67,-282.96 1910,-266 1925.15,-264.06 1941.5,-261.88 1956.75,-259.82"/>
<polygon fill="midnightblue" stroke="midnightblue" points="1585.16,-302.81 1575.91,-307.99 1586.37,-309.71 1585.16,-302.81"/>
</g>
<!-- Node12&#45;&gt;Node6 -->
<g id="edge16" class="edge">
<title>Node12&#45;&gt;Node6</title>
<path fill="none" stroke="midnightblue" d="M2011.63,-225.18C2003.13,-193.1 1983.24,-137.69 1943,-112 1884.99,-74.96 1416.6,-68.41 1247.01,-67.25"/>
<polygon fill="midnightblue" stroke="midnightblue" points="2008.29,-226.23 2014.09,-235.09 2015.08,-224.54 2008.29,-226.23"/>
</g>
<!-- Node14 -->
<g id="node14" class="node">
<title>Node14</title>
<g id="a_node14"><a xlink:href="ledger__secrets_8h.html" target="_top" xlink:title=" ">
<polygon fill="white" stroke="black" points="1460.5,-559.5 1460.5,-578.5 1601.5,-578.5 1601.5,-559.5 1460.5,-559.5"/>
<text text-anchor="middle" x="1531" y="-566.5" font-family="Helvetica,sans-Serif" font-size="10.00">src/node/ledger_secrets.h</text>
</a>
</g>
</g>
<!-- Node13&#45;&gt;Node14 -->
<g id="edge18" class="edge">
<title>Node13&#45;&gt;Node14</title>
<path fill="none" stroke="midnightblue" d="M1188.78,-614.1C1267.9,-603.91 1389.96,-588.18 1464.92,-578.52"/>
<polygon fill="midnightblue" stroke="midnightblue" points="1187.86,-610.69 1178.39,-615.44 1188.76,-617.64 1187.86,-610.69"/>
</g>
<!-- Node14&#45;&gt;Node4 -->
<g id="edge19" class="edge">
<title>Node14&#45;&gt;Node4</title>
<path fill="none" stroke="midnightblue" d="M1493.37,-556.39C1354.26,-513.49 870.93,-364.43 749.73,-327.05"/>
<polygon fill="midnightblue" stroke="midnightblue" points="1492.57,-559.81 1503.15,-559.41 1494.63,-553.12 1492.57,-559.81"/>
</g>
<!-- Node14&#45;&gt;Node5 -->
<g id="edge20" class="edge">
<title>Node14&#45;&gt;Node5</title>
<path fill="none" stroke="midnightblue" d="M1450.2,-565.5C1230.05,-557.61 636,-528.75 636,-447 636,-447 636,-447 636,-383.5 636,-264.81 230.67,-292.57 115,-266 112.09,-265.33 109.11,-264.64 106.09,-263.95"/>
<polygon fill="midnightblue" stroke="midnightblue" points="1450.28,-569 1460.4,-565.86 1450.53,-562.01 1450.28,-569"/>
</g>
<!-- Node14&#45;&gt;Node11 -->
<g id="edge71" class="edge">
<title>Node14&#45;&gt;Node11</title>
<path fill="none" stroke="midnightblue" d="M1531,-549.34C1531,-499.14 1531,-362.6 1531,-327.05"/>
<polygon fill="midnightblue" stroke="midnightblue" points="1527.5,-549.41 1531,-559.41 1534.5,-549.41 1527.5,-549.41"/>
</g>
<!-- Node15 -->
<g id="node15" class="node">
<title>Node15</title>
<g id="a_node15"><a xlink:href="network__state_8h.html" target="_top" xlink:title=" ">
<polygon fill="white" stroke="black" points="1314,-375 1314,-394 1454,-394 1454,-375 1314,-375"/>
<text text-anchor="middle" x="1384" y="-382" font-family="Helvetica,sans-Serif" font-size="10.00">src/node/network_state.h</text>
</a>
</g>
</g>
<!-- Node14&#45;&gt;Node15 -->
<g id="edge21" class="edge">
<title>Node14&#45;&gt;Node15</title>
<path fill="none" stroke="midnightblue" d="M1517.45,-551.18C1486.99,-513.36 1413.96,-422.69 1391.02,-394.21"/>
<polygon fill="midnightblue" stroke="midnightblue" points="1514.91,-553.61 1523.91,-559.2 1520.36,-549.21 1514.91,-553.61"/>
</g>
<!-- Node29 -->
<g id="node29" class="node">
<title>Node29</title>
<g id="a_node29"><a xlink:href="secret__broadcast_8h.html" target="_top" xlink:title=" ">
<polygon fill="white" stroke="black" points="1621.5,-308 1621.5,-327 1774.5,-327 1774.5,-308 1621.5,-308"/>
<text text-anchor="middle" x="1698" y="-315" font-family="Helvetica,sans-Serif" font-size="10.00">src/node/secret_broadcast.h</text>
</a>
</g>
</g>
<!-- Node14&#45;&gt;Node29 -->
<g id="edge70" class="edge">
<title>Node14&#45;&gt;Node29</title>
<path fill="none" stroke="midnightblue" d="M1542.45,-550.9C1575.16,-502.02 1668.23,-362.97 1692.28,-327.05"/>
<polygon fill="midnightblue" stroke="midnightblue" points="1539.4,-549.15 1536.75,-559.41 1545.22,-553.05 1539.4,-549.15"/>
</g>
<!-- Node31 -->
<g id="node31" class="node">
<title>Node31</title>
<g id="a_node31"><a xlink:href="call__types_8h.html" target="_top" xlink:title=" ">
<polygon fill="white" stroke="black" points="2005.5,-436.5 2005.5,-455.5 2142.5,-455.5 2142.5,-436.5 2005.5,-436.5"/>
<text text-anchor="middle" x="2074" y="-443.5" font-family="Helvetica,sans-Serif" font-size="10.00">src/node/rpc/call_types.h</text>
</a>
</g>
</g>
<!-- Node14&#45;&gt;Node31 -->
<g id="edge54" class="edge">
<title>Node14&#45;&gt;Node31</title>
<path fill="none" stroke="midnightblue" d="M1611.86,-563.21C1714.17,-556.46 1884.26,-542.72 1944,-523 1991.91,-507.19 2041.47,-472.02 2062.96,-455.67"/>
<polygon fill="midnightblue" stroke="midnightblue" points="1611.62,-559.72 1601.87,-563.86 1612.07,-566.7 1611.62,-559.72"/>
</g>
<!-- Node36 -->
<g id="node36" class="node">
<title>Node36</title>
<g id="a_node36"><a xlink:href="node__call__types_8h.html" target="_top" xlink:title=" ">
<polygon fill="white" stroke="black" points="1809.5,-492.5 1809.5,-522.5 1934.5,-522.5 1934.5,-492.5 1809.5,-492.5"/>
<text text-anchor="start" x="1817.5" y="-510.5" font-family="Helvetica,sans-Serif" font-size="10.00">src/node/rpc/node_call</text>
<text text-anchor="middle" x="1872" y="-499.5" font-family="Helvetica,sans-Serif" font-size="10.00">_types.h</text>
</a>
</g>
</g>
<!-- Node14&#45;&gt;Node36 -->
<g id="edge68" class="edge">
<title>Node14&#45;&gt;Node36</title>
<path fill="none" stroke="midnightblue" d="M1589.76,-557.75C1651.01,-547.06 1746.66,-530.37 1809.33,-519.43"/>
<polygon fill="midnightblue" stroke="midnightblue" points="1589.11,-554.31 1579.86,-559.48 1590.31,-561.2 1589.11,-554.31"/>
</g>
<!-- Node37 -->
<g id="node37" class="node">
<title>Node37</title>
<g id="a_node37"><a xlink:href="genesis__gen_8h.html" target="_top" xlink:title=" ">
<polygon fill="white" stroke="black" points="1715,-369.5 1715,-399.5 1825,-399.5 1825,-369.5 1715,-369.5"/>
<text text-anchor="start" x="1723" y="-387.5" font-family="Helvetica,sans-Serif" font-size="10.00">src/service/genesis</text>
<text text-anchor="middle" x="1770" y="-376.5" font-family="Helvetica,sans-Serif" font-size="10.00">_gen.h</text>
</a>
</g>
</g>
<!-- Node14&#45;&gt;Node37 -->
<g id="edge72" class="edge">
<title>Node14&#45;&gt;Node37</title>
<path fill="none" stroke="midnightblue" d="M1574.56,-556.47C1597.41,-549.15 1625.11,-538.16 1647,-523 1698.09,-487.63 1742.38,-426.91 1760.84,-399.57"/>
<polygon fill="midnightblue" stroke="midnightblue" points="1573.3,-553.2 1564.78,-559.49 1575.36,-559.89 1573.3,-553.2"/>
</g>
<!-- Node15&#45;&gt;Node6 -->
<g id="edge22" class="edge">
<title>Node15&#45;&gt;Node6</title>
<path fill="none" stroke="midnightblue" d="M1303.65,-373.62C1225.07,-363.25 1115.07,-346.62 1100,-333 1024.99,-265.2 986.44,-193.71 1046,-112 1064.05,-87.24 1095.94,-75.81 1124.73,-70.65"/>
<polygon fill="midnightblue" stroke="midnightblue" points="1303.66,-377.15 1314.03,-374.97 1304.57,-370.21 1303.66,-377.15"/>
</g>
<!-- Node15&#45;&gt;Node9 -->
<g id="edge42" class="edge">
<title>Node15&#45;&gt;Node9</title>
<path fill="none" stroke="midnightblue" d="M1394.76,-366.18C1400.17,-356.71 1406.33,-344.58 1410,-333 1425.62,-283.78 1429.05,-221.18 1429.8,-198.6"/>
<polygon fill="midnightblue" stroke="midnightblue" points="1391.65,-364.57 1389.55,-374.95 1397.67,-368.15 1391.65,-364.57"/>
</g>
<!-- Node15&#45;&gt;Node11 -->
<g id="edge51" class="edge">
<title>Node15&#45;&gt;Node11</title>
<path fill="none" stroke="midnightblue" d="M1412.76,-370.78C1441.88,-357.91 1486.1,-338.35 1511.4,-327.17"/>
<polygon fill="midnightblue" stroke="midnightblue" points="1411.25,-367.62 1403.52,-374.87 1414.08,-374.03 1411.25,-367.62"/>
</g>
<!-- Node16 -->
<g id="node16" class="node">
<title>Node16</title>
<g id="a_node16"><a xlink:href="wrap_8h.html" target="_top" xlink:title=" ">
<polygon fill="white" stroke="black" points="798,-308 798,-327 876,-327 876,-308 798,-308"/>
<text text-anchor="middle" x="837" y="-315" font-family="Helvetica,sans-Serif" font-size="10.00">src/js/wrap.h</text>
</a>
</g>
</g>
<!-- Node15&#45;&gt;Node16 -->
<g id="edge23" class="edge">
<title>Node15&#45;&gt;Node16</title>
<path fill="none" stroke="midnightblue" d="M1303.73,-373.96C1184.53,-359.8 965.24,-333.74 876.16,-323.15"/>
<polygon fill="midnightblue" stroke="midnightblue" points="1303.54,-377.46 1313.89,-375.17 1304.37,-370.51 1303.54,-377.46"/>
</g>
<!-- Node24 -->
<g id="node24" class="node">
<title>Node24</title>
<g id="a_node24"><a xlink:href="acme__challenge__frontend_8h.html" target="_top" xlink:title=" ">
<polygon fill="white" stroke="black" points="1116,-302.5 1116,-332.5 1256,-332.5 1256,-302.5 1116,-302.5"/>
<text text-anchor="start" x="1124" y="-320.5" font-family="Helvetica,sans-Serif" font-size="10.00">src/node/acme_challenge</text>
<text text-anchor="middle" x="1186" y="-309.5" font-family="Helvetica,sans-Serif" font-size="10.00">_frontend.h</text>
</a>
</g>
</g>
<!-- Node15&#45;&gt;Node24 -->
<g id="edge38" class="edge">
<title>Node15&#45;&gt;Node24</title>
<path fill="none" stroke="midnightblue" d="M1347.85,-371.63C1314.28,-360.61 1264.27,-344.19 1228.73,-332.53"/>
<polygon fill="midnightblue" stroke="midnightblue" points="1347.11,-375.07 1357.71,-374.87 1349.3,-368.42 1347.11,-375.07"/>
</g>
<!-- Node26 -->
<g id="node26" class="node">
<title>Node26</title>
<g id="a_node26"><a xlink:href="node__frontend_8h.html" target="_top" xlink:title=" ">
<polygon fill="white" stroke="black" points="1831,-308 1831,-327 1989,-327 1989,-308 1831,-308"/>
<text text-anchor="middle" x="1910" y="-315" font-family="Helvetica,sans-Serif" font-size="10.00">src/node/rpc/node_frontend.h</text>
</a>
</g>
</g>
<!-- Node15&#45;&gt;Node26 -->
<g id="edge43" class="edge">
<title>Node15&#45;&gt;Node26</title>
<path fill="none" stroke="midnightblue" d="M1463.04,-373.73C1565.71,-361.05 1743.32,-339.1 1840.88,-327.04"/>
<polygon fill="midnightblue" stroke="midnightblue" points="1462.53,-370.27 1453.04,-374.97 1463.39,-377.22 1462.53,-370.27"/>
</g>
<!-- Node28 -->
<g id="node28" class="node">
<title>Node28</title>
<g id="a_node28"><a xlink:href="user__frontend_8h.html" target="_top" xlink:title=" ">
<polygon fill="white" stroke="black" points="1055.5,-118 1055.5,-137 1210.5,-137 1210.5,-118 1055.5,-118"/>
<text text-anchor="middle" x="1133" y="-125" font-family="Helvetica,sans-Serif" font-size="10.00">src/node/rpc/user_frontend.h</text>
</a>
</g>
</g>
<!-- Node15&#45;&gt;Node28 -->
<g id="edge47" class="edge">
<title>Node15&#45;&gt;Node28</title>
<path fill="none" stroke="midnightblue" d="M1303.61,-379.96C1230.93,-374.88 1131.67,-362.58 1107,-333 1094.22,-317.68 1123.43,-173.87 1131.18,-137.05"/>
<polygon fill="midnightblue" stroke="midnightblue" points="1303.46,-383.46 1313.67,-380.63 1303.93,-376.48 1303.46,-383.46"/>
</g>
<!-- Node15&#45;&gt;Node29 -->
<g id="edge49" class="edge">
<title>Node15&#45;&gt;Node29</title>
<path fill="none" stroke="midnightblue" d="M1435.29,-372.88C1497.04,-360.1 1599.54,-338.88 1656.54,-327.08"/>
<polygon fill="midnightblue" stroke="midnightblue" points="1434.46,-369.48 1425.37,-374.94 1435.87,-376.34 1434.46,-369.48"/>
</g>
<!-- Node30 -->
<g id="node30" class="node">
<title>Node30</title>
<g id="a_node30"><a xlink:href="snapshotter_8h.html" target="_top" xlink:title=" ">
<polygon fill="white" stroke="black" points="1274.5,-308 1274.5,-327 1401.5,-327 1401.5,-308 1274.5,-308"/>
<text text-anchor="middle" x="1338" y="-315" font-family="Helvetica,sans-Serif" font-size="10.00">src/node/snapshotter.h</text>
</a>
</g>
</g>
<!-- Node15&#45;&gt;Node30 -->
<g id="edge52" class="edge">
<title>Node15&#45;&gt;Node30</title>
<path fill="none" stroke="midnightblue" d="M1371.9,-366.4C1362.96,-353.77 1351.17,-337.1 1344.11,-327.13"/>
<polygon fill="midnightblue" stroke="midnightblue" points="1369.16,-368.59 1377.8,-374.73 1374.88,-364.55 1369.16,-368.59"/>
</g>
<!-- Node16&#45;&gt;Node6 -->
<g id="edge25" class="edge">
<title>Node16&#45;&gt;Node6</title>
<path fill="none" stroke="midnightblue" d="M885.95,-305.22C909.49,-297.6 936.53,-285.3 955,-266 1005.56,-213.15 958.62,-160.91 1013,-112 1043.46,-84.6 1088.5,-73.5 1124.99,-69.16"/>
<polygon fill="midnightblue" stroke="midnightblue" points="884.66,-301.95 876.11,-308.21 886.69,-308.65 884.66,-301.95"/>
</g>
<!-- Node16&#45;&gt;Node9 -->
<g id="edge36" class="edge">
<title>Node16&#45;&gt;Node9</title>
<path fill="none" stroke="midnightblue" d="M884.26,-305.76C954.39,-289.89 1090.21,-259.42 1206,-235 1268.49,-221.82 1340.97,-207.42 1386.17,-198.55"/>
<polygon fill="midnightblue" stroke="midnightblue" points="883.38,-302.37 874.4,-307.99 884.93,-309.2 883.38,-302.37"/>
</g>
<!-- Node16&#45;&gt;Node12 -->
<g id="edge37" class="edge">
<title>Node16&#45;&gt;Node12</title>
<path fill="none" stroke="midnightblue" d="M886.36,-313.72C940.49,-310.7 1029.92,-305.8 1107,-302 1463.81,-284.42 1554.19,-298.02 1910,-266 1925.22,-264.63 1941.59,-262.66 1956.84,-260.62"/>
<polygon fill="midnightblue" stroke="midnightblue" points="886.13,-310.22 876.34,-314.28 886.52,-317.21 886.13,-310.22"/>
</g>
<!-- Node17 -->
<g id="node17" class="node">
<title>Node17</title>
<g id="a_node17"><a xlink:href="js__generic__base_8cpp.html" target="_top" xlink:title=" ">
<polygon fill="white" stroke="black" points="290,-235.5 290,-265.5 408,-265.5 408,-235.5 290,-235.5"/>
<text text-anchor="start" x="298" y="-253.5" font-family="Helvetica,sans-Serif" font-size="10.00">src/apps/js_generic</text>
<text text-anchor="middle" x="349" y="-242.5" font-family="Helvetica,sans-Serif" font-size="10.00">/js_generic_base.cpp</text>
</a>
</g>
</g>
<!-- Node16&#45;&gt;Node17 -->
<g id="edge24" class="edge">
<title>Node16&#45;&gt;Node17</title>
<path fill="none" stroke="midnightblue" d="M801.94,-305.05C797.61,-303.89 793.23,-302.83 789,-302 626.04,-269.83 581.16,-291.36 417,-266 414.14,-265.56 411.21,-265.07 408.26,-264.55"/>
<polygon fill="midnightblue" stroke="midnightblue" points="801.25,-308.49 811.83,-307.88 803.18,-301.76 801.25,-308.49"/>
</g>
<!-- Node18 -->
<g id="node18" class="node">
<title>Node18</title>
<g id="a_node18"><a xlink:href="js_2consensus_8cpp.html" target="_top" xlink:title=" ">
<polygon fill="white" stroke="black" points="426,-241 426,-260 542,-260 542,-241 426,-241"/>
<text text-anchor="middle" x="484" y="-248" font-family="Helvetica,sans-Serif" font-size="10.00">src/js/consensus.cpp</text>
</a>
</g>
</g>
<!-- Node16&#45;&gt;Node18 -->
<g id="edge26" class="edge">
<title>Node16&#45;&gt;Node18</title>
<path fill="none" stroke="midnightblue" d="M801.6,-305.19C797.38,-304.02 793.11,-302.93 789,-302 684.64,-278.47 656.22,-285.32 551,-266 541.4,-264.24 531.08,-262.12 521.48,-260.05"/>
<polygon fill="midnightblue" stroke="midnightblue" points="800.69,-308.57 811.27,-307.99 802.64,-301.84 800.69,-308.57"/>
</g>
<!-- Node19 -->
<g id="node19" class="node">
<title>Node19</title>
<g id="a_node19"><a xlink:href="wrap_8cpp.html" target="_top" xlink:title=" ">
<polygon fill="white" stroke="black" points="499.5,-179.5 499.5,-198.5 588.5,-198.5 588.5,-179.5 499.5,-179.5"/>
<text text-anchor="middle" x="544" y="-186.5" font-family="Helvetica,sans-Serif" font-size="10.00">src/js/wrap.cpp</text>
</a>
</g>
</g>
<!-- Node16&#45;&gt;Node19 -->
<g id="edge35" class="edge">
<title>Node16&#45;&gt;Node19</title>
<path fill="none" stroke="midnightblue" d="M802.63,-305.12C798.08,-303.91 793.45,-302.82 789,-302 733.35,-291.75 319.57,-307.4 281,-266 216.93,-197.23 408.78,-189.36 499.4,-189.33"/>
<polygon fill="midnightblue" stroke="midnightblue" points="801.77,-308.51 812.35,-307.91 803.7,-301.78 801.77,-308.51"/>
</g>
<!-- Node20 -->
<g id="node20" class="node">
<title>Node20</title>
<g id="a_node20"><a xlink:href="conv_8cpp.html" target="_top" xlink:title=" ">
<polygon fill="white" stroke="black" points="560,-241 560,-260 648,-260 648,-241 560,-241"/>
<text text-anchor="middle" x="604" y="-248" font-family="Helvetica,sans-Serif" font-size="10.00">src/js/conv.cpp</text>
</a>
</g>
</g>
<!-- Node16&#45;&gt;Node20 -->
<g id="edge28" class="edge">
<title>Node16&#45;&gt;Node20</title>
<path fill="none" stroke="midnightblue" d="M799.35,-305.02C795.86,-303.99 792.36,-302.97 789,-302 735.72,-286.68 673.49,-269.93 636.49,-260.09"/>
<polygon fill="midnightblue" stroke="midnightblue" points="798.53,-308.43 809.12,-307.94 800.54,-301.72 798.53,-308.43"/>
</g>
<!-- Node21 -->
<g id="node21" class="node">
<title>Node21</title>
<g id="a_node21"><a xlink:href="js_2crypto_8cpp.html" target="_top" xlink:title=" ">
<polygon fill="white" stroke="black" points="704,-241 704,-260 800,-260 800,-241 704,-241"/>
<text text-anchor="middle" x="752" y="-248" font-family="Helvetica,sans-Serif" font-size="10.00">src/js/crypto.cpp</text>
</a>
</g>
</g>
<!-- Node16&#45;&gt;Node21 -->
<g id="edge30" class="edge">
<title>Node16&#45;&gt;Node21</title>
<path fill="none" stroke="midnightblue" d="M817.47,-301.57C800.7,-288.74 777.09,-270.69 763.28,-260.13"/>
<polygon fill="midnightblue" stroke="midnightblue" points="815.47,-304.44 825.54,-307.73 819.72,-298.88 815.47,-304.44"/>
</g>
<!-- Node22 -->
<g id="node22" class="node">
<title>Node22</title>
<g id="a_node22"><a xlink:href="js_2historical_8cpp.html" target="_top" xlink:title=" ">
<polygon fill="white" stroke="black" points="124,-241 124,-260 234,-260 234,-241 124,-241"/>
<text text-anchor="middle" x="179" y="-248" font-family="Helvetica,sans-Serif" font-size="10.00">src/js/historical.cpp</text>
</a>
</g>
</g>
<!-- Node16&#45;&gt;Node22 -->
<g id="edge32" class="edge">
<title>Node16&#45;&gt;Node22</title>
<path fill="none" stroke="midnightblue" d="M802.63,-305.1C798.08,-303.89 793.46,-302.81 789,-302 551.91,-258.88 486.73,-298.86 248,-266 237.21,-264.51 225.58,-262.31 215,-260.06"/>
<polygon fill="midnightblue" stroke="midnightblue" points="801.77,-308.49 812.35,-307.88 803.7,-301.76 801.77,-308.49"/>
</g>
<!-- Node23 -->
<g id="node23" class="node">
<title>Node23</title>
<g id="a_node23"><a xlink:href="openenclave_8cpp.html" target="_top" xlink:title=" ">
<polygon fill="white" stroke="black" points="818,-241 818,-260 946,-260 946,-241 818,-241"/>
<text text-anchor="middle" x="882" y="-248" font-family="Helvetica,sans-Serif" font-size="10.00">src/js/openenclave.cpp</text>
</a>
</g>
</g>
<!-- Node16&#45;&gt;Node23 -->
<g id="edge34" class="edge">
<title>Node16&#45;&gt;Node23</title>
<path fill="none" stroke="midnightblue" d="M848.84,-299.4C857.58,-286.77 869.12,-270.1 876.03,-260.13"/>
<polygon fill="midnightblue" stroke="midnightblue" points="845.88,-297.52 843.07,-307.73 851.64,-301.5 845.88,-297.52"/>
</g>
<!-- Node18&#45;&gt;Node19 -->
<g id="edge27" class="edge">
<title>Node18&#45;&gt;Node19</title>
<path fill="none" stroke="midnightblue" d="M499.81,-233.82C511.21,-222.52 526.16,-207.69 535.42,-198.51"/>
<polygon fill="midnightblue" stroke="midnightblue" points="497.23,-231.45 492.6,-240.98 502.16,-236.42 497.23,-231.45"/>
</g>
<!-- Node20&#45;&gt;Node19 -->
<g id="edge29" class="edge">
<title>Node20&#45;&gt;Node19</title>
<path fill="none" stroke="midnightblue" d="M588.19,-233.82C576.79,-222.52 561.84,-207.69 552.58,-198.51"/>
<polygon fill="midnightblue" stroke="midnightblue" points="585.84,-236.42 595.4,-240.98 590.77,-231.45 585.84,-236.42"/>
</g>
<!-- Node21&#45;&gt;Node19 -->
<g id="edge31" class="edge">
<title>Node21&#45;&gt;Node19</title>
<path fill="none" stroke="midnightblue" d="M712.41,-238.18C672,-226.61 610.17,-208.93 573.75,-198.51"/>
<polygon fill="midnightblue" stroke="midnightblue" points="711.62,-241.59 722.2,-240.98 713.55,-234.86 711.62,-241.59"/>
</g>
<!-- Node22&#45;&gt;Node19 -->
<g id="edge33" class="edge">
<title>Node22&#45;&gt;Node19</title>
<path fill="none" stroke="midnightblue" d="M227.53,-238.94C234.39,-237.56 241.36,-236.2 248,-235 336.87,-218.92 441.46,-203.94 499.49,-195.97"/>
<polygon fill="midnightblue" stroke="midnightblue" points="226.7,-235.54 217.61,-240.99 228.11,-242.4 226.7,-235.54"/>
</g>
<!-- Node24&#45;&gt;Node6 -->
<g id="edge39" class="edge">
<title>Node24&#45;&gt;Node6</title>
<path fill="none" stroke="midnightblue" d="M1192.05,-292.49C1200.1,-259.19 1213.91,-196.99 1219,-143 1220.29,-129.28 1223.29,-125.09 1219,-112 1214.3,-97.64 1203.07,-84.07 1195.02,-75.66"/>
<polygon fill="midnightblue" stroke="midnightblue" points="1188.64,-291.69 1189.66,-302.24 1195.44,-293.36 1188.64,-291.69"/>
</g>
<!-- Node25 -->
<g id="node25" class="node">
<title>Node25</title>
<g id="a_node25"><a xlink:href="ccf__acme__client_8h.html" target="_top" xlink:title=" ">
<polygon fill="white" stroke="black" points="1215.5,-241 1215.5,-260 1364.5,-260 1364.5,-241 1215.5,-241"/>
<text text-anchor="middle" x="1290" y="-248" font-family="Helvetica,sans-Serif" font-size="10.00">src/node/ccf_acme_client.h</text>
</a>
</g>
</g>
<!-- Node24&#45;&gt;Node25 -->
<g id="edge40" class="edge">
<title>Node24&#45;&gt;Node25</title>
<path fill="none" stroke="midnightblue" d="M1217.24,-296.97C1236.96,-284.65 1261.45,-269.35 1276.39,-260.01"/>
<polygon fill="midnightblue" stroke="midnightblue" points="1215.19,-294.13 1208.57,-302.4 1218.9,-300.06 1215.19,-294.13"/>
</g>
<!-- Node25&#45;&gt;Node9 -->
<g id="edge41" class="edge">
<title>Node25&#45;&gt;Node9</title>
<path fill="none" stroke="midnightblue" d="M1319.46,-236.98C1346.65,-225.42 1386.29,-208.58 1409.98,-198.51"/>
<polygon fill="midnightblue" stroke="midnightblue" points="1317.89,-233.84 1310.06,-240.98 1320.63,-240.28 1317.89,-233.84"/>
</g>
<!-- Node26&#45;&gt;Node6 -->
<g id="edge44" class="edge">
<title>Node26&#45;&gt;Node6</title>
<path fill="none" stroke="midnightblue" d="M1915.78,-298.04C1920.16,-280.13 1923.41,-253.06 1910,-235 1797.35,-83.28 1687.53,-152.73 1503,-112 1415.07,-92.59 1311.48,-79.73 1247.27,-72.9"/>
<polygon fill="midnightblue" stroke="midnightblue" points="1912.36,-297.28 1913.04,-307.86 1919.1,-299.17 1912.36,-297.28"/>
</g>
<!-- Node27 -->
<g id="node27" class="node">
<title>Node27</title>
<g id="a_node27"><a xlink:href="jwt__key__auto__refresh_8h.html" target="_top" xlink:title=" ">
<polygon fill="white" stroke="black" points="1775.5,-235.5 1775.5,-265.5 1900.5,-265.5 1900.5,-235.5 1775.5,-235.5"/>
<text text-anchor="start" x="1783.5" y="-253.5" font-family="Helvetica,sans-Serif" font-size="10.00">src/node/jwt_key_auto</text>
<text text-anchor="middle" x="1838" y="-242.5" font-family="Helvetica,sans-Serif" font-size="10.00">_refresh.h</text>
</a>
</g>
</g>
<!-- Node26&#45;&gt;Node27 -->
<g id="edge45" class="edge">
<title>Node26&#45;&gt;Node27</title>
<path fill="none" stroke="midnightblue" d="M1892.75,-300.93C1880.84,-290.18 1865.14,-276 1853.61,-265.59"/>
<polygon fill="midnightblue" stroke="midnightblue" points="1890.52,-303.63 1900.29,-307.73 1895.21,-298.43 1890.52,-303.63"/>
</g>
<!-- Node27&#45;&gt;Node9 -->
<g id="edge46" class="edge">
<title>Node27&#45;&gt;Node9</title>
<path fill="none" stroke="midnightblue" d="M1765.45,-235.73C1763.95,-235.48 1762.47,-235.24 1761,-235 1667.54,-219.86 1558.68,-205.73 1492.06,-197.48"/>
<polygon fill="midnightblue" stroke="midnightblue" points="1764.98,-239.2 1775.43,-237.44 1766.17,-232.3 1764.98,-239.2"/>
</g>
<!-- Node28&#45;&gt;Node6 -->
<g id="edge48" class="edge">
<title>Node28&#45;&gt;Node6</title>
<path fill="none" stroke="midnightblue" d="M1147.25,-110.5C1157.29,-99.24 1170.32,-84.6 1178.42,-75.51"/>
<polygon fill="midnightblue" stroke="midnightblue" points="1144.63,-108.18 1140.59,-117.98 1149.86,-112.84 1144.63,-108.18"/>
</g>
<!-- Node29&#45;&gt;Node9 -->
<g id="edge50" class="edge">
<title>Node29&#45;&gt;Node9</title>
<path fill="none" stroke="midnightblue" d="M1670.46,-303.5C1615.65,-277.63 1494.25,-220.33 1448.2,-198.59"/>
<polygon fill="midnightblue" stroke="midnightblue" points="1669.04,-306.7 1679.58,-307.81 1672.03,-300.37 1669.04,-306.7"/>
</g>
<!-- Node30&#45;&gt;Node9 -->
<g id="edge53" class="edge">
<title>Node30&#45;&gt;Node9</title>
<path fill="none" stroke="midnightblue" d="M1350.28,-299.62C1370.11,-272.36 1408.49,-219.58 1423.63,-198.76"/>
<polygon fill="midnightblue" stroke="midnightblue" points="1347.37,-297.66 1344.32,-307.81 1353.04,-301.78 1347.37,-297.66"/>
</g>
<!-- Node31&#45;&gt;Node12 -->
<g id="edge60" class="edge">
<title>Node31&#45;&gt;Node12</title>
<path fill="none" stroke="midnightblue" d="M2068.58,-426.6C2057.26,-388.16 2031.3,-300.04 2021.16,-265.63"/>
<polygon fill="midnightblue" stroke="midnightblue" points="2065.29,-427.83 2071.48,-436.44 2072.01,-425.85 2065.29,-427.83"/>
</g>
<!-- Node31&#45;&gt;Node19 -->
<g id="edge57" class="edge">
<title>Node31&#45;&gt;Node19</title>
<path fill="none" stroke="midnightblue" d="M1995.21,-445.2C1855.39,-444.48 1555.06,-438.12 1305,-400 1183.2,-381.43 1140.25,-398.67 1036,-333 988.19,-302.88 1004.74,-261.82 955,-235 892.61,-201.35 681.86,-192.84 588.8,-190.7"/>
<polygon fill="midnightblue" stroke="midnightblue" points="1995.39,-448.7 2005.4,-445.24 1995.42,-441.7 1995.39,-448.7"/>
</g>
<!-- Node32 -->
<g id="node32" class="node">
<title>Node32</title>
<g id="a_node32"><a xlink:href="nobuiltins_8cpp.html" target="_top" xlink:title=" ">
<polygon fill="white" stroke="black" points="2293.5,-302.5 2293.5,-332.5 2428.5,-332.5 2428.5,-302.5 2293.5,-302.5"/>
<text text-anchor="start" x="2301.5" y="-320.5" font-family="Helvetica,sans-Serif" font-size="10.00">samples/apps/nobuiltins</text>
<text text-anchor="middle" x="2361" y="-309.5" font-family="Helvetica,sans-Serif" font-size="10.00">/nobuiltins.cpp</text>
</a>
</g>
</g>
<!-- Node31&#45;&gt;Node32 -->
<g id="edge55" class="edge">
<title>Node31&#45;&gt;Node32</title>
<path fill="none" stroke="midnightblue" d="M2152.65,-438.03C2192.12,-432.02 2239.57,-420.83 2278,-400 2309.07,-383.16 2336.45,-351.26 2350.66,-332.76"/>
<polygon fill="midnightblue" stroke="midnightblue" points="2151.94,-434.6 2142.54,-439.48 2152.93,-441.52 2151.94,-434.6"/>
</g>
<!-- Node33 -->
<g id="node33" class="node">
<title>Node33</title>
<g id="a_node33"><a xlink:href="common__endpoint__registry_8cpp.html" target="_top" xlink:title=" ">
<polygon fill="white" stroke="black" points="2447,-302.5 2447,-332.5 2575,-332.5 2575,-302.5 2447,-302.5"/>
<text text-anchor="start" x="2455" y="-320.5" font-family="Helvetica,sans-Serif" font-size="10.00">src/endpoints/common</text>
<text text-anchor="middle" x="2511" y="-309.5" font-family="Helvetica,sans-Serif" font-size="10.00">_endpoint_registry.cpp</text>
</a>
</g>
</g>
<!-- Node31&#45;&gt;Node33 -->
<g id="edge56" class="edge">
<title>Node31&#45;&gt;Node33</title>
<path fill="none" stroke="midnightblue" d="M2147.86,-434.97C2195.32,-427.57 2257.98,-415.99 2312,-400 2374.29,-381.56 2443.84,-350.54 2482,-332.55"/>
<polygon fill="midnightblue" stroke="midnightblue" points="2147.32,-431.51 2137.97,-436.49 2148.38,-438.43 2147.32,-431.51"/>
</g>
<!-- Node34 -->
<g id="node34" class="node">
<title>Node34</title>
<g id="a_node34"><a xlink:href="resharing_8h.html" target="_top" xlink:title=" ">
<polygon fill="white" stroke="black" points="2121,-308 2121,-327 2237,-327 2237,-308 2121,-308"/>
<text text-anchor="middle" x="2179" y="-315" font-family="Helvetica,sans-Serif" font-size="10.00">src/node/resharing.h</text>
</a>
</g>
</g>
<!-- Node31&#45;&gt;Node34 -->
<g id="edge58" class="edge">
<title>Node31&#45;&gt;Node34</title>
<path fill="none" stroke="midnightblue" d="M2080.34,-426.8C2086.63,-410.48 2097.44,-386.48 2112,-369 2126.82,-351.2 2149.08,-336.03 2163.81,-327.09"/>
<polygon fill="midnightblue" stroke="midnightblue" points="2077.03,-425.68 2076.86,-436.27 2083.6,-428.09 2077.03,-425.68"/>
</g>
<!-- Node35 -->
<g id="node35" class="node">
<title>Node35</title>
<g id="a_node35"><a xlink:href="serialization_8h.html" target="_top" xlink:title=" ">
<polygon fill="white" stroke="black" points="2121,-375 2121,-394 2269,-394 2269,-375 2121,-375"/>
<text text-anchor="middle" x="2195" y="-382" font-family="Helvetica,sans-Serif" font-size="10.00">src/node/rpc/serialization.h</text>
</a>
</g>
</g>
<!-- Node31&#45;&gt;Node35 -->
<g id="edge61" class="edge">
<title>Node31&#45;&gt;Node35</title>
<path fill="none" stroke="midnightblue" d="M2100.39,-432.02C2123.86,-420.48 2157.49,-403.94 2177.7,-394.01"/>
<polygon fill="midnightblue" stroke="midnightblue" points="2098.77,-428.92 2091.34,-436.48 2101.85,-435.2 2098.77,-428.92"/>
</g>
<!-- Node34&#45;&gt;Node9 -->
<g id="edge59" class="edge">
<title>Node34&#45;&gt;Node9</title>
<path fill="none" stroke="midnightblue" d="M2165.97,-299.82C2149.64,-280.34 2119.69,-249.01 2086,-235 1979.8,-190.84 1634.36,-188.32 1492.1,-189.25"/>
<polygon fill="midnightblue" stroke="midnightblue" points="2163.45,-302.27 2172.47,-307.83 2168.88,-297.86 2163.45,-302.27"/>
</g>
<!-- Node35&#45;&gt;Node9 -->
<g id="edge64" class="edge">
<title>Node35&#45;&gt;Node9</title>
<path fill="none" stroke="midnightblue" d="M2215.59,-368.49C2235.26,-352.22 2259.99,-325.46 2246,-302 2213.92,-248.2 2182.2,-252.32 2122,-235 2004.71,-201.25 1639.15,-192.73 1492.14,-190.65"/>
<polygon fill="midnightblue" stroke="midnightblue" points="2213.3,-365.84 2207.6,-374.77 2217.63,-371.34 2213.3,-365.84"/>
</g>
<!-- Node35&#45;&gt;Node12 -->
<g id="edge66" class="edge">
<title>Node35&#45;&gt;Node12</title>
<path fill="none" stroke="midnightblue" d="M2170.5,-370C2153.61,-360.35 2130.89,-346.71 2112,-333 2082.1,-311.3 2050.02,-282.48 2031.84,-265.57"/>
<polygon fill="midnightblue" stroke="midnightblue" points="2168.79,-373.05 2179.22,-374.92 2172.23,-366.95 2168.79,-373.05"/>
</g>
<!-- Node35&#45;&gt;Node26 -->
<g id="edge67" class="edge">
<title>Node35&#45;&gt;Node26</title>
<path fill="none" stroke="midnightblue" d="M2147.4,-372.64C2091.25,-359.84 1999.05,-338.81 1947.64,-327.08"/>
<polygon fill="midnightblue" stroke="midnightblue" points="2146.92,-376.12 2157.45,-374.94 2148.48,-369.3 2146.92,-376.12"/>
</g>
<!-- Node35&#45;&gt;Node32 -->
<g id="edge62" class="edge">
<title>Node35&#45;&gt;Node32</title>
<path fill="none" stroke="midnightblue" d="M2226.41,-371.2C2254.54,-360.19 2295.77,-344.04 2325.17,-332.53"/>
<polygon fill="midnightblue" stroke="midnightblue" points="2225.08,-367.96 2217.04,-374.87 2227.63,-374.48 2225.08,-367.96"/>
</g>
<!-- Node35&#45;&gt;Node33 -->
<g id="edge63" class="edge">
<title>Node35&#45;&gt;Node33</title>
<path fill="none" stroke="midnightblue" d="M2246.46,-372.91C2301.15,-361.67 2387.71,-343.86 2446.81,-331.7"/>
<polygon fill="midnightblue" stroke="midnightblue" points="2245.73,-369.49 2236.64,-374.94 2247.14,-376.35 2245.73,-369.49"/>
</g>
<!-- Node35&#45;&gt;Node34 -->
<g id="edge65" class="edge">
<title>Node35&#45;&gt;Node34</title>
<path fill="none" stroke="midnightblue" d="M2190.43,-364.91C2187.37,-352.49 2183.48,-336.72 2181.12,-327.13"/>
<polygon fill="midnightblue" stroke="midnightblue" points="2187.05,-365.86 2192.84,-374.73 2193.85,-364.19 2187.05,-365.86"/>
</g>
<!-- Node36&#45;&gt;Node31 -->
<g id="edge69" class="edge">
<title>Node36&#45;&gt;Node31</title>
<path fill="none" stroke="midnightblue" d="M1929.48,-489.57C1967.26,-478.44 2015.09,-464.35 2045.12,-455.51"/>
<polygon fill="midnightblue" stroke="midnightblue" points="1928.22,-486.29 1919.62,-492.47 1930.2,-493.01 1928.22,-486.29"/>
</g>
<!-- Node37&#45;&gt;Node9 -->
<g id="edge73" class="edge">
<title>Node37&#45;&gt;Node9</title>
<path fill="none" stroke="midnightblue" d="M1782.3,-359.85C1789.53,-342.31 1795.13,-318.65 1783,-302 1746.94,-252.5 1569.08,-214.65 1480.42,-198.52"/>
<polygon fill="midnightblue" stroke="midnightblue" points="1778.92,-358.82 1777.97,-369.37 1785.29,-361.71 1778.92,-358.82"/>
</g>
<!-- Node37&#45;&gt;Node11 -->
<g id="edge77" class="edge">
<title>Node37&#45;&gt;Node11</title>
<path fill="none" stroke="midnightblue" d="M1708.71,-366.83C1661.93,-354.11 1599.41,-337.11 1562.36,-327.03"/>
<polygon fill="midnightblue" stroke="midnightblue" points="1707.87,-370.23 1718.43,-369.48 1709.7,-363.47 1707.87,-370.23"/>
</g>
<!-- Node37&#45;&gt;Node12 -->
<g id="edge74" class="edge">
<title>Node37&#45;&gt;Node12</title>
<path fill="none" stroke="midnightblue" d="M1835.06,-376.81C1894.1,-369.41 1975.28,-355.47 1998,-333 2015.97,-315.22 2018.29,-283.96 2017.93,-265.76"/>
<polygon fill="midnightblue" stroke="midnightblue" points="1834.55,-373.35 1825.05,-378.03 1835.4,-380.3 1834.55,-373.35"/>
</g>
<!-- Node37&#45;&gt;Node26 -->
<g id="edge75" class="edge">
<title>Node37&#45;&gt;Node26</title>
<path fill="none" stroke="midnightblue" d="M1809.56,-365.13C1836.51,-352.62 1870.93,-336.64 1891.68,-327.01"/>
<polygon fill="midnightblue" stroke="midnightblue" points="1807.97,-362.01 1800.38,-369.4 1810.92,-368.36 1807.97,-362.01"/>
</g>
<!-- Node37&#45;&gt;Node29 -->
<g id="edge76" class="edge">
<title>Node37&#45;&gt;Node29</title>
<path fill="none" stroke="midnightblue" d="M1746.93,-362.67C1733.64,-350.67 1717.63,-336.22 1707.63,-327.19"/>
<polygon fill="midnightblue" stroke="midnightblue" points="1744.61,-365.29 1754.38,-369.4 1749.3,-360.1 1744.61,-365.29"/>
</g>
</g>
</svg>
        <g id="navigator" transform="translate(0 0)" fill="#404254">
                <rect fill="#f2f5e9" fill-opacity="0.5" stroke="#606060" stroke-width=".5" x="0" y="0" width="60" height="60"/>
                <use id="zoomplus" xlink:href="#zoomPlus" x="17" y="9" onmousedown="handleZoom(evt,'in')"/>
                <use id="zoomminus" xlink:href="#zoomMin" x="42" y="9" onmousedown="handleZoom(evt,'out')"/>
                <use id="reset" xlink:href="#resetDef" x="30" y="36" onmousedown="handleReset()"/>
                <g id="arrowUp" xlink:href="#dirArrow" transform="translate(30 24)" onmousedown="handlePan(0,-1)">
                  <use xlink:href="#rim" fill="#404040">
                        <set attributeName="fill" to="#808080" begin="arrowUp.mouseover" end="arrowUp.mouseout"/>
                  </use>
                  <path fill="none" stroke="white" stroke-width="1.5" d="M0,-3.0v7 M-2.5,-0.5L0,-3.0L2.5,-0.5"/>
                </g>
                <g id="arrowRight" xlink:href="#dirArrow" transform="rotate(90) translate(36 -43)" onmousedown="handlePan(1,0)">
                  <use xlink:href="#rim" fill="#404040">
                        <set attributeName="fill" to="#808080" begin="arrowRight.mouseover" end="arrowRight.mouseout"/>
                  </use>
                  <path fill="none" stroke="white" stroke-width="1.5" d="M0,-3.0v7 M-2.5,-0.5L0,-3.0L2.5,-0.5"/>
                </g>
                <g id="arrowDown" xlink:href="#dirArrow" transform="rotate(180) translate(-30 -48)" onmousedown="handlePan(0,1)">
                  <use xlink:href="#rim" fill="#404040">
                        <set attributeName="fill" to="#808080" begin="arrowDown.mouseover" end="arrowDown.mouseout"/>
                  </use>
                  <path fill="none" stroke="white" stroke-width="1.5" d="M0,-3.0v7 M-2.5,-0.5L0,-3.0L2.5,-0.5"/>
                </g>
                <g id="arrowLeft" xlink:href="#dirArrow" transform="rotate(270) translate(-36 17)" onmousedown="handlePan(-1,0)">
                  <use xlink:href="#rim" fill="#404040">
                        <set attributeName="fill" to="#808080" begin="arrowLeft.mouseover" end="arrowLeft.mouseout"/>
                  </use>
                  <path fill="none" stroke="white" stroke-width="1.5" d="M0,-3.0v7 M-2.5,-0.5L0,-3.0L2.5,-0.5"/>
                </g>
        </g>
        <svg viewBox="0 0 15 15" width="100%" height="30px" preserveAspectRatio="xMaxYMin meet">
         <g id="arrow_out" transform="scale(0.3 0.3)">
          <a xlink:href="hmac_8h__dep__incl_org.svg" target="_base">
           <rect id="button" ry="5" rx="5" y="6" x="6" height="38" width="38"
                fill="#f2f5e9" fill-opacity="0.5" stroke="#606060" stroke-width="1.0"/>
           <path id="arrow"
             d="M 11.500037,31.436501 C 11.940474,20.09759 22.043105,11.32322 32.158766,21.979434 L 37.068811,17.246167 C 37.068811,17.246167 37.088388,32 37.088388,32 L 22.160133,31.978069 C 22.160133,31.978069 26.997745,27.140456 26.997745,27.140456 C 18.528582,18.264221 13.291696,25.230495 11.500037,31.436501 z"
             style="fill:#404040;"/>
          </a>
         </g>
        </svg>
</svg>
