<?xml version="1.0" encoding="UTF-8" standalone="no"?>
<!DOCTYPE svg PUBLIC "-//W3C//DTD SVG 1.1//EN"
 "http://www.w3.org/Graphics/SVG/1.1/DTD/svg11.dtd">
<!-- Generated by graphviz version 2.43.0 (0)
 -->
<!-- Title: src/http/http_sig.h Pages: 1 -->
<!--zoomable 721 -->
<svg id="main" version="1.1" xmlns="http://www.w3.org/2000/svg" xmlns:xlink="http://www.w3.org/1999/xlink" xml:space="preserve" onload="init(evt)">
<style type="text/css"><![CDATA[
.edge:hover path { stroke: red; }
.edge:hover polygon { stroke: red; fill: red; }
]]></style>
<script type="text/javascript"><![CDATA[
var edges = document.getElementsByTagName('g');
if (edges && edges.length) {
  for (var i=0;i<edges.length;i++) {
    if (edges[i].id.substr(0,4)=='edge') {
      edges[i].setAttribute('class','edge');
    }
  }
}
]]></script>
        <defs>
                <circle id="rim" cx="0" cy="0" r="7"/>
                <circle id="rim2" cx="0" cy="0" r="3.5"/>
                <g id="zoomPlus">
                        <use xlink:href="#rim" fill="#404040">
                                <set attributeName="fill" to="#808080" begin="zoomplus.mouseover" end="zoomplus.mouseout"/>
                        </use>
                        <path d="M-4,0h8M0,-4v8" fill="none" stroke="white" stroke-width="1.5" pointer-events="none"/>
                </g>
                <g id="zoomMin">
                        <use xlink:href="#rim" fill="#404040">
                                <set attributeName="fill" to="#808080" begin="zoomminus.mouseover" end="zoomminus.mouseout"/>
                        </use>
                        <path d="M-4,0h8" fill="none" stroke="white" stroke-width="1.5" pointer-events="none"/>
                </g>
                <g id="dirArrow">
                        <path fill="none" stroke="white" stroke-width="1.5" d="M0,-3.0v7 M-2.5,-0.5L0,-3.0L2.5,-0.5"/>
                </g>
               <g id="resetDef">
                       <use xlink:href="#rim2" fill="#404040">
                               <set attributeName="fill" to="#808080" begin="reset.mouseover" end="reset.mouseout"/>
                       </use>
               </g>
        </defs>

<script type="text/javascript">
var viewWidth = 1074;
var viewHeight = 721;
var sectionId = 'dynsection-1';
</script>
<script xlink:href="svgpan.js"/>
<svg id="graph" class="graph">
<g id="viewport">
<title>src/http/http_sig.h</title>
<polygon fill="white" stroke="transparent" points="-4,4 -4,-717 1069.5,-717 1069.5,4 -4,4"/>
<!-- Node1 -->
<g id="node1" class="node">
<title>Node1</title>
<g id="a_node1"><a xlink:title=" ">
<polygon fill="#bfbfbf" stroke="black" points="366.5,-693.5 366.5,-712.5 470.5,-712.5 470.5,-693.5 366.5,-693.5"/>
<text text-anchor="middle" x="418.5" y="-700.5" font-family="Helvetica,sans-Serif" font-size="10.00">src/http/http_sig.h</text>
</a>
</g>
</g>
<!-- Node2 -->
<g id="node2" class="node">
<title>Node2</title>
<g id="a_node2"><a xlink:href="rpc__tls__client_8h.html" target="_top" xlink:title=" ">
<polygon fill="white" stroke="black" points="222,-626.5 222,-656.5 323,-656.5 323,-626.5 222,-626.5"/>
<text text-anchor="start" x="230" y="-644.5" font-family="Helvetica,sans-Serif" font-size="10.00">src/clients/rpc_tls</text>
<text text-anchor="middle" x="272.5" y="-633.5" font-family="Helvetica,sans-Serif" font-size="10.00">_client.h</text>
</a>
</g>
</g>
<!-- Node1&#45;&gt;Node2 -->
<g id="edge1" class="edge">
<title>Node1&#45;&gt;Node2</title>
<path fill="none" stroke="midnightblue" d="M388.05,-689.59C364.38,-679.94 331.53,-666.56 306.91,-656.52"/>
<polygon fill="midnightblue" stroke="midnightblue" points="387,-692.94 397.58,-693.48 389.64,-686.46 387,-692.94"/>
</g>
<!-- Node7 -->
<g id="node7" class="node">
<title>Node7</title>
<g id="a_node7"><a xlink:href="sig__auth_8cpp.html" target="_top" xlink:title=" ">
<polygon fill="white" stroke="black" points="341,-626.5 341,-656.5 496,-656.5 496,-626.5 341,-626.5"/>
<text text-anchor="start" x="349" y="-644.5" font-family="Helvetica,sans-Serif" font-size="10.00">src/endpoints/authentication</text>
<text text-anchor="middle" x="418.5" y="-633.5" font-family="Helvetica,sans-Serif" font-size="10.00">/sig_auth.cpp</text>
</a>
</g>
</g>
<!-- Node1&#45;&gt;Node7 -->
<g id="edge7" class="edge">
<title>Node1&#45;&gt;Node7</title>
<path fill="none" stroke="midnightblue" d="M418.5,-683.23C418.5,-674.59 418.5,-664.5 418.5,-656.52"/>
<polygon fill="midnightblue" stroke="midnightblue" points="415,-683.48 418.5,-693.48 422,-683.48 415,-683.48"/>
</g>
<!-- Node8 -->
<g id="node8" class="node">
<title>Node8</title>
<g id="a_node8"><a xlink:href="http__rpc__context_8h.html" target="_top" xlink:title=" ">
<polygon fill="white" stroke="black" points="514,-632 514,-651 661,-651 661,-632 514,-632"/>
<text text-anchor="middle" x="587.5" y="-639" font-family="Helvetica,sans-Serif" font-size="10.00">src/http/http_rpc_context.h</text>
</a>
</g>
</g>
<!-- Node1&#45;&gt;Node8 -->
<g id="edge8" class="edge">
<title>Node1&#45;&gt;Node8</title>
<path fill="none" stroke="midnightblue" d="M452.35,-690.08C485.2,-678.52 534.24,-661.25 563.33,-651.01"/>
<polygon fill="midnightblue" stroke="midnightblue" points="450.98,-686.85 442.71,-693.48 453.31,-693.46 450.98,-686.85"/>
</g>
<!-- Node3 -->
<g id="node3" class="node">
<title>Node3</title>
<g id="a_node3"><a xlink:href="perf__client_8h.html" target="_top" xlink:title=" ">
<polygon fill="white" stroke="black" points="150,-503.5 150,-533.5 261,-533.5 261,-503.5 150,-503.5"/>
<text text-anchor="start" x="158" y="-521.5" font-family="Helvetica,sans-Serif" font-size="10.00">src/clients/perf/perf</text>
<text text-anchor="middle" x="205.5" y="-510.5" font-family="Helvetica,sans-Serif" font-size="10.00">_client.h</text>
</a>
</g>
</g>
<!-- Node2&#45;&gt;Node3 -->
<g id="edge2" class="edge">
<title>Node2&#45;&gt;Node3</title>
<path fill="none" stroke="midnightblue" d="M231.68,-621.04C219.75,-613.18 208.14,-602.87 201.5,-590 192.34,-572.24 196.47,-548.52 200.67,-533.62"/>
<polygon fill="midnightblue" stroke="midnightblue" points="229.99,-624.12 240.35,-626.34 233.64,-618.14 229.99,-624.12"/>
</g>
<!-- Node6 -->
<g id="node6" class="node">
<title>Node6</title>
<g id="a_node6"><a xlink:href="timing_8h.html" target="_top" xlink:title=" ">
<polygon fill="white" stroke="black" points="210.5,-570.5 210.5,-589.5 342.5,-589.5 342.5,-570.5 210.5,-570.5"/>
<text text-anchor="middle" x="276.5" y="-577.5" font-family="Helvetica,sans-Serif" font-size="10.00">src/clients/perf/timing.h</text>
</a>
</g>
</g>
<!-- Node2&#45;&gt;Node6 -->
<g id="edge5" class="edge">
<title>Node2&#45;&gt;Node6</title>
<path fill="none" stroke="midnightblue" d="M274.13,-616.29C274.76,-606.86 275.45,-596.65 275.92,-589.66"/>
<polygon fill="midnightblue" stroke="midnightblue" points="270.63,-616.19 273.45,-626.4 277.61,-616.66 270.63,-616.19"/>
</g>
<!-- Node4 -->
<g id="node4" class="node">
<title>Node4</title>
<g id="a_node4"><a xlink:href="tpcc__client_8cpp.html" target="_top" xlink:title=" ">
<polygon fill="white" stroke="black" points="151.5,-436.5 151.5,-466.5 267.5,-466.5 267.5,-436.5 151.5,-436.5"/>
<text text-anchor="start" x="159.5" y="-454.5" font-family="Helvetica,sans-Serif" font-size="10.00">src/apps/tpcc/clients</text>
<text text-anchor="middle" x="209.5" y="-443.5" font-family="Helvetica,sans-Serif" font-size="10.00">/tpcc_client.cpp</text>
</a>
</g>
</g>
<!-- Node3&#45;&gt;Node4 -->
<g id="edge3" class="edge">
<title>Node3&#45;&gt;Node4</title>
<path fill="none" stroke="midnightblue" d="M206.98,-493.4C207.54,-484.37 208.15,-474.41 208.63,-466.58"/>
<polygon fill="midnightblue" stroke="midnightblue" points="203.49,-493.2 206.37,-503.4 210.48,-493.63 203.49,-493.2"/>
</g>
<!-- Node5 -->
<g id="node5" class="node">
<title>Node5</title>
<g id="a_node5"><a xlink:href="scenario__perf__client_8cpp.html" target="_top" xlink:title=" ">
<polygon fill="white" stroke="black" points="0,-436.5 0,-466.5 133,-466.5 133,-436.5 0,-436.5"/>
<text text-anchor="start" x="8" y="-454.5" font-family="Helvetica,sans-Serif" font-size="10.00">src/clients/perf/scenario</text>
<text text-anchor="middle" x="66.5" y="-443.5" font-family="Helvetica,sans-Serif" font-size="10.00">_perf_client.cpp</text>
</a>
</g>
</g>
<!-- Node3&#45;&gt;Node5 -->
<g id="edge4" class="edge">
<title>Node3&#45;&gt;Node5</title>
<path fill="none" stroke="midnightblue" d="M166.22,-499.13C144.13,-488.8 116.99,-476.11 96.6,-466.58"/>
<polygon fill="midnightblue" stroke="midnightblue" points="164.8,-502.33 175.34,-503.4 167.76,-495.99 164.8,-502.33"/>
</g>
<!-- Node6&#45;&gt;Node3 -->
<g id="edge6" class="edge">
<title>Node6&#45;&gt;Node3</title>
<path fill="none" stroke="midnightblue" d="M258.51,-563.92C247.36,-554.58 233.14,-542.66 222.23,-533.52"/>
<polygon fill="midnightblue" stroke="midnightblue" points="256.41,-566.73 266.33,-570.48 260.91,-561.37 256.41,-566.73"/>
</g>
<!-- Node9 -->
<g id="node9" class="node">
<title>Node9</title>
<g id="a_node9"><a xlink:href="http__endpoint_8h.html" target="_top" xlink:title=" ">
<polygon fill="white" stroke="black" points="767,-570.5 767,-589.5 900,-589.5 900,-570.5 767,-570.5"/>
<text text-anchor="middle" x="833.5" y="-577.5" font-family="Helvetica,sans-Serif" font-size="10.00">src/http/http_endpoint.h</text>
</a>
</g>
</g>
<!-- Node8&#45;&gt;Node9 -->
<g id="edge9" class="edge">
<title>Node8&#45;&gt;Node9</title>
<path fill="none" stroke="midnightblue" d="M632.51,-629.61C680.26,-618.07 754.69,-600.06 798.32,-589.51"/>
<polygon fill="midnightblue" stroke="midnightblue" points="631.64,-626.22 622.75,-631.98 633.29,-633.03 631.64,-626.22"/>
</g>
<!-- Node20 -->
<g id="node20" class="node">
<title>Node20</title>
<g id="a_node20"><a xlink:href="jwt__key__auto__refresh_8h.html" target="_top" xlink:title=" ">
<polygon fill="white" stroke="black" points="574,-235.5 574,-265.5 699,-265.5 699,-235.5 574,-235.5"/>
<text text-anchor="start" x="582" y="-253.5" font-family="Helvetica,sans-Serif" font-size="10.00">src/node/jwt_key_auto</text>
<text text-anchor="middle" x="636.5" y="-242.5" font-family="Helvetica,sans-Serif" font-size="10.00">_refresh.h</text>
</a>
</g>
</g>
<!-- Node8&#45;&gt;Node20 -->
<g id="edge34" class="edge">
<title>Node8&#45;&gt;Node20</title>
<path fill="none" stroke="midnightblue" d="M587.5,-621.94C587.5,-598.19 587.5,-555.79 587.5,-519.5 587.5,-519.5 587.5,-519.5 587.5,-450.5 587.5,-413.31 582.38,-397.31 606.5,-369 633.91,-336.84 670.95,-368.08 694.5,-333 710.57,-309.07 681.41,-281.9 658.92,-265.76"/>
<polygon fill="midnightblue" stroke="midnightblue" points="584,-621.99 587.5,-631.99 591,-621.99 584,-621.99"/>
</g>
<!-- Node24 -->
<g id="node24" class="node">
<title>Node24</title>
<g id="a_node24"><a xlink:href="forwarder_8h.html" target="_top" xlink:title=" ">
<polygon fill="white" stroke="black" points="296.5,-442 296.5,-461 430.5,-461 430.5,-442 296.5,-442"/>
<text text-anchor="middle" x="363.5" y="-449" font-family="Helvetica,sans-Serif" font-size="10.00">src/node/rpc/forwarder.h</text>
</a>
</g>
</g>
<!-- Node8&#45;&gt;Node24 -->
<g id="edge35" class="edge">
<title>Node8&#45;&gt;Node24</title>
<path fill="none" stroke="midnightblue" d="M569.55,-625.43C524.72,-587.81 408.92,-490.62 373.77,-461.12"/>
<polygon fill="midnightblue" stroke="midnightblue" points="567.38,-628.19 577.29,-631.93 571.88,-622.82 567.38,-628.19"/>
</g>
<!-- Node10 -->
<g id="node10" class="node">
<title>Node10</title>
<g id="a_node10"><a xlink:href="rpc__sessions_8h.html" target="_top" xlink:title=" ">
<polygon fill="white" stroke="black" points="866.5,-509 866.5,-528 1012.5,-528 1012.5,-509 866.5,-509"/>
<text text-anchor="middle" x="939.5" y="-516" font-family="Helvetica,sans-Serif" font-size="10.00">src/enclave/rpc_sessions.h</text>
</a>
</g>
</g>
<!-- Node9&#45;&gt;Node10 -->
<g id="edge10" class="edge">
<title>Node9&#45;&gt;Node10</title>
<path fill="none" stroke="midnightblue" d="M857.45,-565.56C877.96,-554.04 906.88,-537.81 924.34,-528.01"/>
<polygon fill="midnightblue" stroke="midnightblue" points="855.69,-562.53 848.69,-570.48 859.12,-568.63 855.69,-562.53"/>
</g>
<!-- Node11 -->
<g id="node11" class="node">
<title>Node11</title>
<g id="a_node11"><a xlink:href="enclave_2enclave_8h.html" target="_top" xlink:title=" ">
<polygon fill="white" stroke="black" points="378.5,-56.5 378.5,-75.5 500.5,-75.5 500.5,-56.5 378.5,-56.5"/>
<text text-anchor="middle" x="439.5" y="-63.5" font-family="Helvetica,sans-Serif" font-size="10.00">src/enclave/enclave.h</text>
</a>
</g>
</g>
<!-- Node10&#45;&gt;Node11 -->
<g id="edge11" class="edge">
<title>Node10&#45;&gt;Node11</title>
<path fill="none" stroke="midnightblue" d="M967.12,-504.1C1004.21,-483.94 1065.5,-442.06 1065.5,-385.5 1065.5,-385.5 1065.5,-385.5 1065.5,-182.5 1065.5,-125.45 658.18,-85.28 500.66,-71.89"/>
<polygon fill="midnightblue" stroke="midnightblue" points="965.05,-501.23 957.82,-508.97 968.3,-507.43 965.05,-501.23"/>
</g>
<!-- Node13 -->
<g id="node13" class="node">
<title>Node13</title>
<g id="a_node13"><a xlink:href="ccf__acme__client_8h.html" target="_top" xlink:title=" ">
<polygon fill="white" stroke="black" points="331,-241 331,-260 480,-260 480,-241 331,-241"/>
<text text-anchor="middle" x="405.5" y="-248" font-family="Helvetica,sans-Serif" font-size="10.00">src/node/ccf_acme_client.h</text>
</a>
</g>
</g>
<!-- Node10&#45;&gt;Node13 -->
<g id="edge13" class="edge">
<title>Node10&#45;&gt;Node13</title>
<path fill="none" stroke="midnightblue" d="M895.04,-506.36C829.5,-488.94 704.17,-451.82 606.5,-400 526.01,-357.3 442.32,-284.73 414.84,-260.03"/>
<polygon fill="midnightblue" stroke="midnightblue" points="894.47,-509.83 905.03,-508.98 896.25,-503.06 894.47,-509.83"/>
</g>
<!-- Node14 -->
<g id="node14" class="node">
<title>Node14</title>
<g id="a_node14"><a xlink:href="node__state_8h.html" target="_top" xlink:title=" ">
<polygon fill="white" stroke="black" points="645.5,-174 645.5,-193 769.5,-193 769.5,-174 645.5,-174"/>
<text text-anchor="middle" x="707.5" y="-181" font-family="Helvetica,sans-Serif" font-size="10.00">src/node/node_state.h</text>
</a>
</g>
</g>
<!-- Node10&#45;&gt;Node14 -->
<g id="edge31" class="edge">
<title>Node10&#45;&gt;Node14</title>
<path fill="none" stroke="midnightblue" d="M958.35,-502.45C984.2,-479.98 1027.5,-434.96 1027.5,-385.5 1027.5,-385.5 1027.5,-385.5 1027.5,-316.5 1027.5,-279.31 1035.61,-260.46 1008.5,-235 974.85,-203.4 847.55,-191.42 769.68,-186.99"/>
<polygon fill="midnightblue" stroke="midnightblue" points="956.04,-499.82 950.65,-508.93 960.55,-505.17 956.04,-499.82"/>
</g>
<!-- Node16 -->
<g id="node16" class="node">
<title>Node16</title>
<g id="a_node16"><a xlink:href="node__client_8h.html" target="_top" xlink:title=" ">
<polygon fill="white" stroke="black" points="831.5,-442 831.5,-461 957.5,-461 957.5,-442 831.5,-442"/>
<text text-anchor="middle" x="894.5" y="-449" font-family="Helvetica,sans-Serif" font-size="10.00">src/node/node_client.h</text>
</a>
</g>
</g>
<!-- Node10&#45;&gt;Node16 -->
<g id="edge18" class="edge">
<title>Node10&#45;&gt;Node16</title>
<path fill="none" stroke="midnightblue" d="M927.66,-500.4C918.92,-487.77 907.38,-471.1 900.47,-461.13"/>
<polygon fill="midnightblue" stroke="midnightblue" points="924.86,-502.5 933.43,-508.73 930.62,-498.52 924.86,-502.5"/>
</g>
<!-- Node23 -->
<g id="node23" class="node">
<title>Node23</title>
<g id="a_node23"><a xlink:href="resharing_8h.html" target="_top" xlink:title=" ">
<polygon fill="white" stroke="black" points="883.5,-241 883.5,-260 999.5,-260 999.5,-241 883.5,-241"/>
<text text-anchor="middle" x="941.5" y="-248" font-family="Helvetica,sans-Serif" font-size="10.00">src/node/resharing.h</text>
</a>
</g>
</g>
<!-- Node10&#45;&gt;Node23 -->
<g id="edge32" class="edge">
<title>Node10&#45;&gt;Node23</title>
<path fill="none" stroke="midnightblue" d="M951.57,-500.08C957.31,-490.73 963.56,-478.74 966.5,-467 986.18,-388.45 955.17,-289.84 944.73,-260.27"/>
<polygon fill="midnightblue" stroke="midnightblue" points="948.44,-498.46 945.92,-508.75 954.31,-502.28 948.44,-498.46"/>
</g>
<!-- Node12 -->
<g id="node12" class="node">
<title>Node12</title>
<g id="a_node12"><a xlink:href="enclave_2main_8cpp.html" target="_top" xlink:title=" ">
<polygon fill="white" stroke="black" points="379.5,-0.5 379.5,-19.5 499.5,-19.5 499.5,-0.5 379.5,-0.5"/>
<text text-anchor="middle" x="439.5" y="-7.5" font-family="Helvetica,sans-Serif" font-size="10.00">src/enclave/main.cpp</text>
</a>
</g>
</g>
<!-- Node11&#45;&gt;Node12 -->
<g id="edge12" class="edge">
<title>Node11&#45;&gt;Node12</title>
<path fill="none" stroke="midnightblue" d="M439.5,-45.8C439.5,-36.91 439.5,-26.78 439.5,-19.75"/>
<polygon fill="midnightblue" stroke="midnightblue" points="436,-46.08 439.5,-56.08 443,-46.08 436,-46.08"/>
</g>
<!-- Node13&#45;&gt;Node14 -->
<g id="edge14" class="edge">
<title>Node13&#45;&gt;Node14</title>
<path fill="none" stroke="midnightblue" d="M455.2,-238.8C514.63,-226.01 612.91,-204.86 667.62,-193.08"/>
<polygon fill="midnightblue" stroke="midnightblue" points="454.33,-235.41 445.29,-240.94 455.8,-242.25 454.33,-235.41"/>
</g>
<!-- Node14&#45;&gt;Node11 -->
<g id="edge15" class="edge">
<title>Node14&#45;&gt;Node11</title>
<path fill="none" stroke="midnightblue" d="M707.65,-163.27C706.69,-147.23 702.62,-124.98 688.5,-112 661.69,-87.37 565.22,-75.77 500.53,-70.65"/>
<polygon fill="midnightblue" stroke="midnightblue" points="704.16,-163.72 707.9,-173.63 711.16,-163.55 704.16,-163.72"/>
</g>
<!-- Node15 -->
<g id="node15" class="node">
<title>Node15</title>
<g id="a_node15"><a xlink:href="gov__effects_8h.html" target="_top" xlink:title=" ">
<polygon fill="white" stroke="black" points="535.5,-112.5 535.5,-131.5 679.5,-131.5 679.5,-112.5 535.5,-112.5"/>
<text text-anchor="middle" x="607.5" y="-119.5" font-family="Helvetica,sans-Serif" font-size="10.00">src/node/rpc/gov_effects.h</text>
</a>
</g>
</g>
<!-- Node14&#45;&gt;Node15 -->
<g id="edge16" class="edge">
<title>Node14&#45;&gt;Node15</title>
<path fill="none" stroke="midnightblue" d="M684.38,-168.74C665.06,-157.25 638.13,-141.22 621.8,-131.51"/>
<polygon fill="midnightblue" stroke="midnightblue" points="682.79,-171.87 693.17,-173.98 686.37,-165.85 682.79,-171.87"/>
</g>
<!-- Node15&#45;&gt;Node11 -->
<g id="edge17" class="edge">
<title>Node15&#45;&gt;Node11</title>
<path fill="none" stroke="midnightblue" d="M571.11,-109.3C539.46,-99.13 494.33,-84.62 466,-75.52"/>
<polygon fill="midnightblue" stroke="midnightblue" points="570.29,-112.72 580.88,-112.44 572.43,-106.05 570.29,-112.72"/>
</g>
<!-- Node17 -->
<g id="node17" class="node">
<title>Node17</title>
<g id="a_node17"><a xlink:href="orc__requests_8h.html" target="_top" xlink:title=" ">
<polygon fill="white" stroke="black" points="616,-369.5 616,-399.5 735,-399.5 735,-369.5 616,-369.5"/>
<text text-anchor="start" x="624" y="-387.5" font-family="Helvetica,sans-Serif" font-size="10.00">src/consensus/aft/orc</text>
<text text-anchor="middle" x="675.5" y="-376.5" font-family="Helvetica,sans-Serif" font-size="10.00">_requests.h</text>
</a>
</g>
</g>
<!-- Node16&#45;&gt;Node17 -->
<g id="edge19" class="edge">
<title>Node16&#45;&gt;Node17</title>
<path fill="none" stroke="midnightblue" d="M855.47,-438.92C818.34,-427.9 762.41,-411.29 722.76,-399.53"/>
<polygon fill="midnightblue" stroke="midnightblue" points="854.84,-442.38 865.42,-441.87 856.83,-435.67 854.84,-442.38"/>
</g>
<!-- Node18 -->
<g id="node18" class="node">
<title>Node18</title>
<g id="a_node18"><a xlink:href="raft_8h.html" target="_top" xlink:title=" ">
<polygon fill="white" stroke="black" points="749,-308 749,-327 878,-327 878,-308 749,-308"/>
<text text-anchor="middle" x="813.5" y="-315" font-family="Helvetica,sans-Serif" font-size="10.00">src/consensus/aft/raft.h</text>
</a>
</g>
</g>
<!-- Node16&#45;&gt;Node18 -->
<g id="edge26" class="edge">
<title>Node16&#45;&gt;Node18</title>
<path fill="none" stroke="midnightblue" d="M898.14,-431.92C900.55,-414.48 901.52,-388.27 890.5,-369 878.83,-348.6 855.17,-334.98 837.14,-327.08"/>
<polygon fill="midnightblue" stroke="midnightblue" points="894.66,-431.51 896.46,-441.95 901.56,-432.66 894.66,-431.51"/>
</g>
<!-- Node21 -->
<g id="node21" class="node">
<title>Node21</title>
<g id="a_node21"><a xlink:href="http__node__client_8h.html" target="_top" xlink:title=" ">
<polygon fill="white" stroke="black" points="755.5,-235.5 755.5,-265.5 865.5,-265.5 865.5,-235.5 755.5,-235.5"/>
<text text-anchor="start" x="763.5" y="-253.5" font-family="Helvetica,sans-Serif" font-size="10.00">src/node/http_node</text>
<text text-anchor="middle" x="810.5" y="-242.5" font-family="Helvetica,sans-Serif" font-size="10.00">_client.h</text>
</a>
</g>
</g>
<!-- Node16&#45;&gt;Node21 -->
<g id="edge27" class="edge">
<title>Node16&#45;&gt;Node21</title>
<path fill="none" stroke="midnightblue" d="M901.32,-432.23C904.49,-422.76 907.91,-410.92 909.5,-400 915.94,-355.73 913.84,-337.41 886.5,-302 874.49,-286.45 856.29,-274.12 840.71,-265.53"/>
<polygon fill="midnightblue" stroke="midnightblue" points="897.99,-431.14 897.95,-441.73 904.59,-433.48 897.99,-431.14"/>
</g>
<!-- Node22 -->
<g id="node22" class="node">
<title>Node22</title>
<g id="a_node22"><a xlink:href="retired__nodes__cleanup_8h.html" target="_top" xlink:title=" ">
<polygon fill="white" stroke="black" points="753.5,-369.5 753.5,-399.5 881.5,-399.5 881.5,-369.5 753.5,-369.5"/>
<text text-anchor="start" x="761.5" y="-387.5" font-family="Helvetica,sans-Serif" font-size="10.00">src/node/retired_nodes</text>
<text text-anchor="middle" x="817.5" y="-376.5" font-family="Helvetica,sans-Serif" font-size="10.00">_cleanup.h</text>
</a>
</g>
</g>
<!-- Node16&#45;&gt;Node22 -->
<g id="edge29" class="edge">
<title>Node16&#45;&gt;Node22</title>
<path fill="none" stroke="midnightblue" d="M876.42,-435.24C863.64,-424.45 846.64,-410.1 834.19,-399.59"/>
<polygon fill="midnightblue" stroke="midnightblue" points="874.22,-437.96 884.12,-441.73 878.73,-432.61 874.22,-437.96"/>
</g>
<!-- Node17&#45;&gt;Node18 -->
<g id="edge20" class="edge">
<title>Node17&#45;&gt;Node18</title>
<path fill="none" stroke="midnightblue" d="M714.5,-365.13C741.06,-352.62 774.99,-336.64 795.44,-327.01"/>
<polygon fill="midnightblue" stroke="midnightblue" points="713,-361.97 705.44,-369.4 715.98,-368.3 713,-361.97"/>
</g>
<!-- Node19 -->
<g id="node19" class="node">
<title>Node19</title>
<g id="a_node19"><a xlink:href="node__frontend_8h.html" target="_top" xlink:title=" ">
<polygon fill="white" stroke="black" points="527.5,-308 527.5,-327 685.5,-327 685.5,-308 527.5,-308"/>
<text text-anchor="middle" x="606.5" y="-315" font-family="Helvetica,sans-Serif" font-size="10.00">src/node/rpc/node_frontend.h</text>
</a>
</g>
</g>
<!-- Node17&#45;&gt;Node19 -->
<g id="edge22" class="edge">
<title>Node17&#45;&gt;Node19</title>
<path fill="none" stroke="midnightblue" d="M653.03,-362.34C640.36,-350.4 625.22,-336.14 615.73,-327.19"/>
<polygon fill="midnightblue" stroke="midnightblue" points="650.85,-365.09 660.53,-369.4 655.65,-359.99 650.85,-365.09"/>
</g>
<!-- Node18&#45;&gt;Node14 -->
<g id="edge21" class="edge">
<title>Node18&#45;&gt;Node14</title>
<path fill="none" stroke="midnightblue" d="M789.64,-302.58C775.69,-293.54 758.53,-280.71 746.5,-266 727.53,-242.81 715.16,-208.86 710.1,-193.11"/>
<polygon fill="midnightblue" stroke="midnightblue" points="787.91,-305.63 798.25,-307.96 791.62,-299.7 787.91,-305.63"/>
</g>
<!-- Node19&#45;&gt;Node11 -->
<g id="edge23" class="edge">
<title>Node19&#45;&gt;Node11</title>
<path fill="none" stroke="midnightblue" d="M592,-300.2C583.63,-290.52 573.09,-277.85 564.5,-266 513.25,-195.31 460.34,-103.75 444.35,-75.6"/>
<polygon fill="midnightblue" stroke="midnightblue" points="589.48,-302.63 598.7,-307.85 594.74,-298.02 589.48,-302.63"/>
</g>
<!-- Node19&#45;&gt;Node20 -->
<g id="edge24" class="edge">
<title>Node19&#45;&gt;Node20</title>
<path fill="none" stroke="midnightblue" d="M614.86,-298.39C619.64,-288.02 625.56,-275.2 630,-265.59"/>
<polygon fill="midnightblue" stroke="midnightblue" points="611.56,-297.19 610.55,-307.73 617.91,-300.12 611.56,-297.19"/>
</g>
<!-- Node20&#45;&gt;Node14 -->
<g id="edge25" class="edge">
<title>Node20&#45;&gt;Node14</title>
<path fill="none" stroke="midnightblue" d="M659.62,-228.34C672.65,-216.4 688.24,-202.14 698,-193.19"/>
<polygon fill="midnightblue" stroke="midnightblue" points="656.92,-226.06 651.91,-235.4 661.65,-231.22 656.92,-226.06"/>
</g>
<!-- Node21&#45;&gt;Node14 -->
<g id="edge28" class="edge">
<title>Node21&#45;&gt;Node14</title>
<path fill="none" stroke="midnightblue" d="M779.56,-229.97C760.03,-217.65 735.78,-202.35 720.98,-193.01"/>
<polygon fill="midnightblue" stroke="midnightblue" points="777.83,-233.02 788.15,-235.4 781.56,-227.1 777.83,-233.02"/>
</g>
<!-- Node22&#45;&gt;Node18 -->
<g id="edge30" class="edge">
<title>Node22&#45;&gt;Node18</title>
<path fill="none" stroke="midnightblue" d="M816.01,-359.25C815.32,-348.02 814.54,-335.38 814.04,-327.19"/>
<polygon fill="midnightblue" stroke="midnightblue" points="812.52,-359.63 816.63,-369.4 819.51,-359.2 812.52,-359.63"/>
</g>
<!-- Node23&#45;&gt;Node14 -->
<g id="edge33" class="edge">
<title>Node23&#45;&gt;Node14</title>
<path fill="none" stroke="midnightblue" d="M900.72,-238.17C854.45,-225.32 780.01,-204.64 738.33,-193.06"/>
<polygon fill="midnightblue" stroke="midnightblue" points="899.85,-241.56 910.43,-240.87 901.73,-234.82 899.85,-241.56"/>
</g>
<!-- Node24&#45;&gt;Node11 -->
<g id="edge36" class="edge">
<title>Node24&#45;&gt;Node11</title>
<path fill="none" stroke="midnightblue" d="M320.26,-439.26C243.06,-417.91 89.5,-369.1 89.5,-318.5 89.5,-318.5 89.5,-318.5 89.5,-182.5 89.5,-136.1 124.77,-132.28 166.5,-112 234.11,-79.14 321.09,-69.64 378.48,-67.22"/>
<polygon fill="midnightblue" stroke="midnightblue" points="319.61,-442.71 330.18,-441.97 321.45,-435.96 319.61,-442.71"/>
</g>
<!-- Node25 -->
<g id="node25" class="node">
<title>Node25</title>
<g id="a_node25"><a xlink:href="frontend_8h.html" target="_top" xlink:title=" ">
<polygon fill="white" stroke="black" points="299,-375 299,-394 428,-394 428,-375 299,-375"/>
<text text-anchor="middle" x="363.5" y="-382" font-family="Helvetica,sans-Serif" font-size="10.00">src/node/rpc/frontend.h</text>
</a>
</g>
</g>
<!-- Node24&#45;&gt;Node25 -->
<g id="edge37" class="edge">
<title>Node24&#45;&gt;Node25</title>
<path fill="none" stroke="midnightblue" d="M363.5,-431.54C363.5,-419.17 363.5,-403.62 363.5,-394.13"/>
<polygon fill="midnightblue" stroke="midnightblue" points="360,-431.73 363.5,-441.73 367,-431.73 360,-431.73"/>
</g>
<!-- Node25&#45;&gt;Node14 -->
<g id="edge41" class="edge">
<title>Node25&#45;&gt;Node14</title>
<path fill="none" stroke="midnightblue" d="M386.77,-369.54C402.74,-359.74 424.26,-346.1 442.5,-333 498.99,-292.43 503.74,-268.84 564.5,-235 599.58,-215.47 643.61,-201.28 673.48,-193.01"/>
<polygon fill="midnightblue" stroke="midnightblue" points="384.8,-366.64 378.08,-374.83 388.44,-372.62 384.8,-366.64"/>
</g>
<!-- Node25&#45;&gt;Node19 -->
<g id="edge44" class="edge">
<title>Node25&#45;&gt;Node19</title>
<path fill="none" stroke="midnightblue" d="M405.28,-372.32C453.27,-359.49 530.94,-338.71 574.41,-327.08"/>
<polygon fill="midnightblue" stroke="midnightblue" points="404.27,-368.97 395.52,-374.94 406.08,-375.73 404.27,-368.97"/>
</g>
<!-- Node26 -->
<g id="node26" class="node">
<title>Node26</title>
<g id="a_node26"><a xlink:href="acme__challenge__frontend_8h.html" target="_top" xlink:title=" ">
<polygon fill="white" stroke="black" points="293.5,-302.5 293.5,-332.5 433.5,-332.5 433.5,-302.5 293.5,-302.5"/>
<text text-anchor="start" x="301.5" y="-320.5" font-family="Helvetica,sans-Serif" font-size="10.00">src/node/acme_challenge</text>
<text text-anchor="middle" x="363.5" y="-309.5" font-family="Helvetica,sans-Serif" font-size="10.00">_frontend.h</text>
</a>
</g>
</g>
<!-- Node25&#45;&gt;Node26 -->
<g id="edge38" class="edge">
<title>Node25&#45;&gt;Node26</title>
<path fill="none" stroke="midnightblue" d="M363.5,-364.41C363.5,-354.22 363.5,-341.9 363.5,-332.59"/>
<polygon fill="midnightblue" stroke="midnightblue" points="360,-364.73 363.5,-374.73 367,-364.73 360,-364.73"/>
</g>
<!-- Node27 -->
<g id="node27" class="node">
<title>Node27</title>
<g id="a_node27"><a xlink:href="member__frontend_8h.html" target="_top" xlink:title=" ">
<polygon fill="white" stroke="black" points="117.5,-168.5 117.5,-198.5 237.5,-198.5 237.5,-168.5 117.5,-168.5"/>
<text text-anchor="start" x="125.5" y="-186.5" font-family="Helvetica,sans-Serif" font-size="10.00">src/node/rpc/member</text>
<text text-anchor="middle" x="177.5" y="-175.5" font-family="Helvetica,sans-Serif" font-size="10.00">_frontend.h</text>
</a>
</g>
</g>
<!-- Node25&#45;&gt;Node27 -->
<g id="edge42" class="edge">
<title>Node25&#45;&gt;Node27</title>
<path fill="none" stroke="midnightblue" d="M320.15,-371.72C297.49,-363.78 270.58,-351.36 251.5,-333 210.81,-293.86 189.05,-227.6 181.08,-198.7"/>
<polygon fill="midnightblue" stroke="midnightblue" points="319.3,-375.12 329.89,-374.95 321.5,-368.48 319.3,-375.12"/>
</g>
<!-- Node28 -->
<g id="node28" class="node">
<title>Node28</title>
<g id="a_node28"><a xlink:href="user__frontend_8h.html" target="_top" xlink:title=" ">
<polygon fill="white" stroke="black" points="188,-112.5 188,-131.5 343,-131.5 343,-112.5 188,-112.5"/>
<text text-anchor="middle" x="265.5" y="-119.5" font-family="Helvetica,sans-Serif" font-size="10.00">src/node/rpc/user_frontend.h</text>
</a>
</g>
</g>
<!-- Node25&#45;&gt;Node28 -->
<g id="edge45" class="edge">
<title>Node25&#45;&gt;Node28</title>
<path fill="none" stroke="midnightblue" d="M330.06,-370.6C313.51,-362.41 294.89,-350.09 284.5,-333 243.43,-265.43 258.14,-162.38 263.74,-131.83"/>
<polygon fill="midnightblue" stroke="midnightblue" points="328.94,-373.94 339.49,-374.95 331.88,-367.59 328.94,-373.94"/>
</g>
<!-- Node26&#45;&gt;Node11 -->
<g id="edge39" class="edge">
<title>Node26&#45;&gt;Node11</title>
<path fill="none" stroke="midnightblue" d="M340.04,-295.05C332.64,-286.78 325.38,-276.73 321.5,-266 316.82,-253.04 317.35,-248.14 321.5,-235 343.63,-164.99 406.55,-98.87 430.29,-75.71"/>
<polygon fill="midnightblue" stroke="midnightblue" points="337.64,-297.6 347.09,-302.4 342.69,-292.76 337.64,-297.6"/>
</g>
<!-- Node26&#45;&gt;Node13 -->
<g id="edge40" class="edge">
<title>Node26&#45;&gt;Node13</title>
<path fill="none" stroke="midnightblue" d="M378.05,-293.97C385.58,-282.33 394.32,-268.8 399.88,-260.19"/>
<polygon fill="midnightblue" stroke="midnightblue" points="375.1,-292.1 372.61,-302.4 380.98,-295.9 375.1,-292.1"/>
</g>
<!-- Node27&#45;&gt;Node11 -->
<g id="edge43" class="edge">
<title>Node27&#45;&gt;Node11</title>
<path fill="none" stroke="midnightblue" d="M170.73,-158.35C168.07,-143.31 167.81,-124.51 178.5,-112 203.74,-82.46 309.4,-72.31 378.3,-68.82"/>
<polygon fill="midnightblue" stroke="midnightblue" points="167.39,-159.48 172.96,-168.5 174.23,-157.98 167.39,-159.48"/>
</g>
<!-- Node28&#45;&gt;Node11 -->
<g id="edge46" class="edge">
<title>Node28&#45;&gt;Node11</title>
<path fill="none" stroke="midnightblue" d="M302.76,-109.44C335.57,-99.26 382.58,-84.66 412.06,-75.52"/>
<polygon fill="midnightblue" stroke="midnightblue" points="301.58,-106.14 293.07,-112.44 303.66,-112.82 301.58,-106.14"/>
</g>
</g>
</svg>
        <g id="navigator" transform="translate(0 0)" fill="#404254">
                <rect fill="#f2f5e9" fill-opacity="0.5" stroke="#606060" stroke-width=".5" x="0" y="0" width="60" height="60"/>
                <use id="zoomplus" xlink:href="#zoomPlus" x="17" y="9" onmousedown="handleZoom(evt,'in')"/>
                <use id="zoomminus" xlink:href="#zoomMin" x="42" y="9" onmousedown="handleZoom(evt,'out')"/>
                <use id="reset" xlink:href="#resetDef" x="30" y="36" onmousedown="handleReset()"/>
                <g id="arrowUp" xlink:href="#dirArrow" transform="translate(30 24)" onmousedown="handlePan(0,-1)">
                  <use xlink:href="#rim" fill="#404040">
                        <set attributeName="fill" to="#808080" begin="arrowUp.mouseover" end="arrowUp.mouseout"/>
                  </use>
                  <path fill="none" stroke="white" stroke-width="1.5" d="M0,-3.0v7 M-2.5,-0.5L0,-3.0L2.5,-0.5"/>
                </g>
                <g id="arrowRight" xlink:href="#dirArrow" transform="rotate(90) translate(36 -43)" onmousedown="handlePan(1,0)">
                  <use xlink:href="#rim" fill="#404040">
                        <set attributeName="fill" to="#808080" begin="arrowRight.mouseover" end="arrowRight.mouseout"/>
                  </use>
                  <path fill="none" stroke="white" stroke-width="1.5" d="M0,-3.0v7 M-2.5,-0.5L0,-3.0L2.5,-0.5"/>
                </g>
                <g id="arrowDown" xlink:href="#dirArrow" transform="rotate(180) translate(-30 -48)" onmousedown="handlePan(0,1)">
                  <use xlink:href="#rim" fill="#404040">
                        <set attributeName="fill" to="#808080" begin="arrowDown.mouseover" end="arrowDown.mouseout"/>
                  </use>
                  <path fill="none" stroke="white" stroke-width="1.5" d="M0,-3.0v7 M-2.5,-0.5L0,-3.0L2.5,-0.5"/>
                </g>
                <g id="arrowLeft" xlink:href="#dirArrow" transform="rotate(270) translate(-36 17)" onmousedown="handlePan(-1,0)">
                  <use xlink:href="#rim" fill="#404040">
                        <set attributeName="fill" to="#808080" begin="arrowLeft.mouseover" end="arrowLeft.mouseout"/>
                  </use>
                  <path fill="none" stroke="white" stroke-width="1.5" d="M0,-3.0v7 M-2.5,-0.5L0,-3.0L2.5,-0.5"/>
                </g>
        </g>
        <svg viewBox="0 0 15 15" width="100%" height="30px" preserveAspectRatio="xMaxYMin meet">
         <g id="arrow_out" transform="scale(0.3 0.3)">
          <a xlink:href="http__sig_8h__dep__incl_org.svg" target="_base">
           <rect id="button" ry="5" rx="5" y="6" x="6" height="38" width="38"
                fill="#f2f5e9" fill-opacity="0.5" stroke="#606060" stroke-width="1.0"/>
           <path id="arrow"
             d="M 11.500037,31.436501 C 11.940474,20.09759 22.043105,11.32322 32.158766,21.979434 L 37.068811,17.246167 C 37.068811,17.246167 37.088388,32 37.088388,32 L 22.160133,31.978069 C 22.160133,31.978069 26.997745,27.140456 26.997745,27.140456 C 18.528582,18.264221 13.291696,25.230495 11.500037,31.436501 z"
             style="fill:#404040;"/>
          </a>
         </g>
        </svg>
</svg>
