<?xml version="1.0" encoding="UTF-8" standalone="no"?>
<!DOCTYPE svg PUBLIC "-//W3C//DTD SVG 1.1//EN"
 "http://www.w3.org/Graphics/SVG/1.1/DTD/svg11.dtd">
<!-- Generated by graphviz version 2.43.0 (0)
 -->
<!-- Title: src/http/http_proc.h Pages: 1 -->
<svg width="1146pt" height="833pt"
 viewBox="0.00 0.00 1145.50 833.00" xmlns="http://www.w3.org/2000/svg" xmlns:xlink="http://www.w3.org/1999/xlink">
<g id="graph0" class="graph" transform="scale(1 1) rotate(0) translate(4 829)">
<title>src/http/http_proc.h</title>
<polygon fill="white" stroke="transparent" points="-4,4 -4,-829 1141.5,-829 1141.5,4 -4,4"/>
<!-- Node1 -->
<g id="node1" class="node">
<title>Node1</title>
<g id="a_node1"><a xlink:title=" ">
<polygon fill="#bfbfbf" stroke="black" points="503,-805.5 503,-824.5 614,-824.5 614,-805.5 503,-805.5"/>
<text text-anchor="middle" x="558.5" y="-812.5" font-family="Helvetica,sans-Serif" font-size="10.00">src/http/http_proc.h</text>
</a>
</g>
</g>
<!-- Node2 -->
<g id="node2" class="node">
<title>Node2</title>
<g id="a_node2"><a xlink:href="http__parser_8h.html" target="_top" xlink:title=" ">
<polygon fill="white" stroke="black" points="498.5,-749.5 498.5,-768.5 618.5,-768.5 618.5,-749.5 498.5,-749.5"/>
<text text-anchor="middle" x="558.5" y="-756.5" font-family="Helvetica,sans-Serif" font-size="10.00">src/http/http_parser.h</text>
</a>
</g>
</g>
<!-- Node1&#45;&gt;Node2 -->
<g id="edge1" class="edge">
<title>Node1&#45;&gt;Node2</title>
<path fill="none" stroke="midnightblue" d="M558.5,-794.8C558.5,-785.91 558.5,-775.78 558.5,-768.75"/>
<polygon fill="midnightblue" stroke="midnightblue" points="555,-795.08 558.5,-805.08 562,-795.08 555,-795.08"/>
</g>
<!-- Node3 -->
<g id="node3" class="node">
<title>Node3</title>
<g id="a_node3"><a xlink:href="rpc__tls__client_8h.html" target="_top" xlink:title=" ">
<polygon fill="white" stroke="black" points="132,-626.5 132,-656.5 233,-656.5 233,-626.5 132,-626.5"/>
<text text-anchor="start" x="140" y="-644.5" font-family="Helvetica,sans-Serif" font-size="10.00">src/clients/rpc_tls</text>
<text text-anchor="middle" x="182.5" y="-633.5" font-family="Helvetica,sans-Serif" font-size="10.00">_client.h</text>
</a>
</g>
</g>
<!-- Node2&#45;&gt;Node3 -->
<g id="edge2" class="edge">
<title>Node2&#45;&gt;Node3</title>
<path fill="none" stroke="midnightblue" d="M488.1,-749.15C441.7,-742.13 380.03,-730.55 327.5,-713 283.03,-698.14 234.68,-672.55 206.56,-656.62"/>
<polygon fill="midnightblue" stroke="midnightblue" points="487.65,-752.62 498.05,-750.62 488.67,-745.69 487.65,-752.62"/>
</g>
<!-- Node8 -->
<g id="node8" class="node">
<title>Node8</title>
<g id="a_node8"><a xlink:href="http__endpoint_8h.html" target="_top" xlink:title=" ">
<polygon fill="white" stroke="black" points="745,-570.5 745,-589.5 878,-589.5 878,-570.5 745,-570.5"/>
<text text-anchor="middle" x="811.5" y="-577.5" font-family="Helvetica,sans-Serif" font-size="10.00">src/http/http_endpoint.h</text>
</a>
</g>
</g>
<!-- Node2&#45;&gt;Node8 -->
<g id="edge8" class="edge">
<title>Node2&#45;&gt;Node8</title>
<path fill="none" stroke="midnightblue" d="M620.24,-747.2C673.52,-734.64 748.63,-708.64 792.5,-657 809.23,-637.31 811.59,-604.98 811.7,-589.62"/>
<polygon fill="midnightblue" stroke="midnightblue" points="619.2,-743.84 610.22,-749.46 620.75,-750.67 619.2,-743.84"/>
</g>
<!-- Node23 -->
<g id="node23" class="node">
<title>Node23</title>
<g id="a_node23"><a xlink:href="http__jwt_8h.html" target="_top" xlink:title=" ">
<polygon fill="white" stroke="black" points="547,-693.5 547,-712.5 652,-712.5 652,-693.5 547,-693.5"/>
<text text-anchor="middle" x="599.5" y="-700.5" font-family="Helvetica,sans-Serif" font-size="10.00">src/http/http_jwt.h</text>
</a>
</g>
</g>
<!-- Node2&#45;&gt;Node23 -->
<g id="edge33" class="edge">
<title>Node2&#45;&gt;Node23</title>
<path fill="none" stroke="midnightblue" d="M571.52,-740.86C578.62,-731.5 587.1,-720.33 592.86,-712.75"/>
<polygon fill="midnightblue" stroke="midnightblue" points="568.53,-739 565.27,-749.08 574.11,-743.24 568.53,-739"/>
</g>
<!-- Node29 -->
<g id="node29" class="node">
<title>Node29</title>
<g id="a_node29"><a xlink:href="http__rpc__context_8h.html" target="_top" xlink:title=" ">
<polygon fill="white" stroke="black" points="424,-632 424,-651 571,-651 571,-632 424,-632"/>
<text text-anchor="middle" x="497.5" y="-639" font-family="Helvetica,sans-Serif" font-size="10.00">src/http/http_rpc_context.h</text>
</a>
</g>
</g>
<!-- Node2&#45;&gt;Node29 -->
<g id="edge45" class="edge">
<title>Node2&#45;&gt;Node29</title>
<path fill="none" stroke="midnightblue" d="M549.09,-740.18C535.82,-715.06 512.12,-670.19 502.14,-651.28"/>
<polygon fill="midnightblue" stroke="midnightblue" points="546.15,-742.11 553.92,-749.32 552.34,-738.84 546.15,-742.11"/>
</g>
<!-- Node31 -->
<g id="node31" class="node">
<title>Node31</title>
<g id="a_node31"><a xlink:href="http__sig_8h.html" target="_top" xlink:title=" ">
<polygon fill="white" stroke="black" points="336.5,-693.5 336.5,-712.5 440.5,-712.5 440.5,-693.5 336.5,-693.5"/>
<text text-anchor="middle" x="388.5" y="-700.5" font-family="Helvetica,sans-Serif" font-size="10.00">src/http/http_sig.h</text>
</a>
</g>
</g>
<!-- Node2&#45;&gt;Node31 -->
<g id="edge51" class="edge">
<title>Node2&#45;&gt;Node31</title>
<path fill="none" stroke="midnightblue" d="M521.68,-746.3C489.65,-736.13 443.98,-721.62 415.31,-712.52"/>
<polygon fill="midnightblue" stroke="midnightblue" points="520.97,-749.75 531.56,-749.44 523.09,-743.08 520.97,-749.75"/>
</g>
<!-- Node33 -->
<g id="node33" class="node">
<title>Node33</title>
<g id="a_node33"><a xlink:href="acme__client_8h.html" target="_top" xlink:title=" ">
<polygon fill="white" stroke="black" points="972,-570.5 972,-589.5 1101,-589.5 1101,-570.5 972,-570.5"/>
<text text-anchor="middle" x="1036.5" y="-577.5" font-family="Helvetica,sans-Serif" font-size="10.00">src/node/acme_client.h</text>
</a>
</g>
</g>
<!-- Node2&#45;&gt;Node33 -->
<g id="edge55" class="edge">
<title>Node2&#45;&gt;Node33</title>
<path fill="none" stroke="midnightblue" d="M614.98,-747.44C652.74,-739.66 703.23,-727.87 746.5,-713 854.79,-675.78 977.56,-612.45 1020.6,-589.57"/>
<polygon fill="midnightblue" stroke="midnightblue" points="614.28,-744.01 605.18,-749.43 615.67,-750.87 614.28,-744.01"/>
</g>
<!-- Node4 -->
<g id="node4" class="node">
<title>Node4</title>
<g id="a_node4"><a xlink:href="perf__client_8h.html" target="_top" xlink:title=" ">
<polygon fill="white" stroke="black" points="93,-503.5 93,-533.5 204,-533.5 204,-503.5 93,-503.5"/>
<text text-anchor="start" x="101" y="-521.5" font-family="Helvetica,sans-Serif" font-size="10.00">src/clients/perf/perf</text>
<text text-anchor="middle" x="148.5" y="-510.5" font-family="Helvetica,sans-Serif" font-size="10.00">_client.h</text>
</a>
</g>
</g>
<!-- Node3&#45;&gt;Node4 -->
<g id="edge3" class="edge">
<title>Node3&#45;&gt;Node4</title>
<path fill="none" stroke="midnightblue" d="M182.93,-616.22C182.56,-602.4 181.05,-584.93 176.5,-570 172.53,-556.96 164.87,-543.52 158.57,-533.79"/>
<polygon fill="midnightblue" stroke="midnightblue" points="179.43,-616.43 183.01,-626.4 186.43,-616.37 179.43,-616.43"/>
</g>
<!-- Node7 -->
<g id="node7" class="node">
<title>Node7</title>
<g id="a_node7"><a xlink:href="timing_8h.html" target="_top" xlink:title=" ">
<polygon fill="white" stroke="black" points="35.5,-570.5 35.5,-589.5 167.5,-589.5 167.5,-570.5 35.5,-570.5"/>
<text text-anchor="middle" x="101.5" y="-577.5" font-family="Helvetica,sans-Serif" font-size="10.00">src/clients/perf/timing.h</text>
</a>
</g>
</g>
<!-- Node3&#45;&gt;Node7 -->
<g id="edge6" class="edge">
<title>Node3&#45;&gt;Node7</title>
<path fill="none" stroke="midnightblue" d="M154.85,-620.19C140.67,-609.77 124.14,-597.63 113.29,-589.66"/>
<polygon fill="midnightblue" stroke="midnightblue" points="153.17,-623.3 163.3,-626.4 157.32,-617.66 153.17,-623.3"/>
</g>
<!-- Node5 -->
<g id="node5" class="node">
<title>Node5</title>
<g id="a_node5"><a xlink:href="tpcc__client_8cpp.html" target="_top" xlink:title=" ">
<polygon fill="white" stroke="black" points="151.5,-436.5 151.5,-466.5 267.5,-466.5 267.5,-436.5 151.5,-436.5"/>
<text text-anchor="start" x="159.5" y="-454.5" font-family="Helvetica,sans-Serif" font-size="10.00">src/apps/tpcc/clients</text>
<text text-anchor="middle" x="209.5" y="-443.5" font-family="Helvetica,sans-Serif" font-size="10.00">/tpcc_client.cpp</text>
</a>
</g>
</g>
<!-- Node4&#45;&gt;Node5 -->
<g id="edge4" class="edge">
<title>Node4&#45;&gt;Node5</title>
<path fill="none" stroke="midnightblue" d="M168.65,-496.02C177.74,-486.34 188.22,-475.17 196.29,-466.58"/>
<polygon fill="midnightblue" stroke="midnightblue" points="166.03,-493.71 161.74,-503.4 171.13,-498.5 166.03,-493.71"/>
</g>
<!-- Node6 -->
<g id="node6" class="node">
<title>Node6</title>
<g id="a_node6"><a xlink:href="scenario__perf__client_8cpp.html" target="_top" xlink:title=" ">
<polygon fill="white" stroke="black" points="0,-436.5 0,-466.5 133,-466.5 133,-436.5 0,-436.5"/>
<text text-anchor="start" x="8" y="-454.5" font-family="Helvetica,sans-Serif" font-size="10.00">src/clients/perf/scenario</text>
<text text-anchor="middle" x="66.5" y="-443.5" font-family="Helvetica,sans-Serif" font-size="10.00">_perf_client.cpp</text>
</a>
</g>
</g>
<!-- Node4&#45;&gt;Node6 -->
<g id="edge5" class="edge">
<title>Node4&#45;&gt;Node6</title>
<path fill="none" stroke="midnightblue" d="M122.85,-497.17C110.31,-487.23 95.53,-475.51 84.26,-466.58"/>
<polygon fill="midnightblue" stroke="midnightblue" points="120.7,-499.93 130.71,-503.4 125.04,-494.44 120.7,-499.93"/>
</g>
<!-- Node7&#45;&gt;Node4 -->
<g id="edge7" class="edge">
<title>Node7&#45;&gt;Node4</title>
<path fill="none" stroke="midnightblue" d="M114.51,-562.53C121.71,-553.42 130.56,-542.21 137.42,-533.52"/>
<polygon fill="midnightblue" stroke="midnightblue" points="111.69,-560.46 108.23,-570.48 117.18,-564.8 111.69,-560.46"/>
</g>
<!-- Node9 -->
<g id="node9" class="node">
<title>Node9</title>
<g id="a_node9"><a xlink:href="rpc__sessions_8h.html" target="_top" xlink:title=" ">
<polygon fill="white" stroke="black" points="859.5,-509 859.5,-528 1005.5,-528 1005.5,-509 859.5,-509"/>
<text text-anchor="middle" x="932.5" y="-516" font-family="Helvetica,sans-Serif" font-size="10.00">src/enclave/rpc_sessions.h</text>
</a>
</g>
</g>
<!-- Node8&#45;&gt;Node9 -->
<g id="edge9" class="edge">
<title>Node8&#45;&gt;Node9</title>
<path fill="none" stroke="midnightblue" d="M837.89,-566.02C861.36,-554.48 894.99,-537.94 915.2,-528.01"/>
<polygon fill="midnightblue" stroke="midnightblue" points="836.27,-562.92 828.84,-570.48 839.35,-569.2 836.27,-562.92"/>
</g>
<!-- Node10 -->
<g id="node10" class="node">
<title>Node10</title>
<g id="a_node10"><a xlink:href="enclave_2enclave_8h.html" target="_top" xlink:title=" ">
<polygon fill="white" stroke="black" points="311.5,-56.5 311.5,-75.5 433.5,-75.5 433.5,-56.5 311.5,-56.5"/>
<text text-anchor="middle" x="372.5" y="-63.5" font-family="Helvetica,sans-Serif" font-size="10.00">src/enclave/enclave.h</text>
</a>
</g>
</g>
<!-- Node9&#45;&gt;Node10 -->
<g id="edge10" class="edge">
<title>Node9&#45;&gt;Node10</title>
<path fill="none" stroke="midnightblue" d="M969.92,-505.33C990.45,-497.14 1015.17,-484.58 1032.5,-467 1107.3,-391.13 1137.5,-358.04 1137.5,-251.5 1137.5,-251.5 1137.5,-251.5 1137.5,-182.5 1137.5,-111.48 615.34,-78.97 433.81,-69.82"/>
<polygon fill="midnightblue" stroke="midnightblue" points="968.64,-502.08 960.53,-508.9 971.12,-508.62 968.64,-502.08"/>
</g>
<!-- Node12 -->
<g id="node12" class="node">
<title>Node12</title>
<g id="a_node12"><a xlink:href="ccf__acme__client_8h.html" target="_top" xlink:title=" ">
<polygon fill="white" stroke="black" points="961,-241 961,-260 1110,-260 1110,-241 961,-241"/>
<text text-anchor="middle" x="1035.5" y="-248" font-family="Helvetica,sans-Serif" font-size="10.00">src/node/ccf_acme_client.h</text>
</a>
</g>
</g>
<!-- Node9&#45;&gt;Node12 -->
<g id="edge12" class="edge">
<title>Node9&#45;&gt;Node12</title>
<path fill="none" stroke="midnightblue" d="M965.8,-504.51C982.31,-496.3 1000.93,-483.99 1011.5,-467 1054.65,-397.64 1041.89,-291.02 1037,-260.15"/>
<polygon fill="midnightblue" stroke="midnightblue" points="963.99,-501.49 956.4,-508.88 966.94,-507.84 963.99,-501.49"/>
</g>
<!-- Node13 -->
<g id="node13" class="node">
<title>Node13</title>
<g id="a_node13"><a xlink:href="node__state_8h.html" target="_top" xlink:title=" ">
<polygon fill="white" stroke="black" points="619.5,-174 619.5,-193 743.5,-193 743.5,-174 619.5,-174"/>
<text text-anchor="middle" x="681.5" y="-181" font-family="Helvetica,sans-Serif" font-size="10.00">src/node/node_state.h</text>
</a>
</g>
</g>
<!-- Node9&#45;&gt;Node13 -->
<g id="edge30" class="edge">
<title>Node9&#45;&gt;Node13</title>
<path fill="none" stroke="midnightblue" d="M938.64,-499.21C954.45,-448.3 990.22,-304.17 914.5,-235 889.86,-212.49 803.82,-198.3 743.5,-190.88"/>
<polygon fill="midnightblue" stroke="midnightblue" points="935.27,-498.25 935.54,-508.84 941.94,-500.4 935.27,-498.25"/>
</g>
<!-- Node15 -->
<g id="node15" class="node">
<title>Node15</title>
<g id="a_node15"><a xlink:href="node__client_8h.html" target="_top" xlink:title=" ">
<polygon fill="white" stroke="black" points="804.5,-442 804.5,-461 930.5,-461 930.5,-442 804.5,-442"/>
<text text-anchor="middle" x="867.5" y="-449" font-family="Helvetica,sans-Serif" font-size="10.00">src/node/node_client.h</text>
</a>
</g>
</g>
<!-- Node9&#45;&gt;Node15 -->
<g id="edge17" class="edge">
<title>Node9&#45;&gt;Node15</title>
<path fill="none" stroke="midnightblue" d="M916.5,-501.5C903.75,-488.75 886.39,-471.39 876.13,-461.13"/>
<polygon fill="midnightblue" stroke="midnightblue" points="914.19,-504.14 923.73,-508.73 919.14,-499.19 914.19,-504.14"/>
</g>
<!-- Node22 -->
<g id="node22" class="node">
<title>Node22</title>
<g id="a_node22"><a xlink:href="resharing_8h.html" target="_top" xlink:title=" ">
<polygon fill="white" stroke="black" points="623.5,-241 623.5,-260 739.5,-260 739.5,-241 623.5,-241"/>
<text text-anchor="middle" x="681.5" y="-248" font-family="Helvetica,sans-Serif" font-size="10.00">src/node/resharing.h</text>
</a>
</g>
</g>
<!-- Node9&#45;&gt;Node22 -->
<g id="edge31" class="edge">
<title>Node9&#45;&gt;Node22</title>
<path fill="none" stroke="midnightblue" d="M849.01,-511.81C774.66,-501.8 669.92,-474.44 618.5,-400 610.67,-388.66 612.97,-381.62 618.5,-369 627.96,-347.39 645.05,-353.04 657.5,-333 672.29,-309.19 678.35,-275.83 680.49,-260.21"/>
<polygon fill="midnightblue" stroke="midnightblue" points="848.93,-515.33 859.29,-513.11 849.81,-508.39 848.93,-515.33"/>
</g>
<!-- Node11 -->
<g id="node11" class="node">
<title>Node11</title>
<g id="a_node11"><a xlink:href="enclave_2main_8cpp.html" target="_top" xlink:title=" ">
<polygon fill="white" stroke="black" points="312.5,-0.5 312.5,-19.5 432.5,-19.5 432.5,-0.5 312.5,-0.5"/>
<text text-anchor="middle" x="372.5" y="-7.5" font-family="Helvetica,sans-Serif" font-size="10.00">src/enclave/main.cpp</text>
</a>
</g>
</g>
<!-- Node10&#45;&gt;Node11 -->
<g id="edge11" class="edge">
<title>Node10&#45;&gt;Node11</title>
<path fill="none" stroke="midnightblue" d="M372.5,-45.8C372.5,-36.91 372.5,-26.78 372.5,-19.75"/>
<polygon fill="midnightblue" stroke="midnightblue" points="369,-46.08 372.5,-56.08 376,-46.08 369,-46.08"/>
</g>
<!-- Node12&#45;&gt;Node13 -->
<g id="edge13" class="edge">
<title>Node12&#45;&gt;Node13</title>
<path fill="none" stroke="midnightblue" d="M978.95,-239.12C909.37,-226.34 792.56,-204.89 727.97,-193.03"/>
<polygon fill="midnightblue" stroke="midnightblue" points="978.39,-242.57 988.86,-240.94 979.65,-235.69 978.39,-242.57"/>
</g>
<!-- Node13&#45;&gt;Node10 -->
<g id="edge14" class="edge">
<title>Node13&#45;&gt;Node10</title>
<path fill="none" stroke="midnightblue" d="M666.6,-166.32C650.62,-150.01 623.72,-125.39 595.5,-112 544.11,-87.63 479.98,-76.43 433.7,-71.31"/>
<polygon fill="midnightblue" stroke="midnightblue" points="664.47,-169.17 673.91,-173.99 669.54,-164.34 664.47,-169.17"/>
</g>
<!-- Node14 -->
<g id="node14" class="node">
<title>Node14</title>
<g id="a_node14"><a xlink:href="gov__effects_8h.html" target="_top" xlink:title=" ">
<polygon fill="white" stroke="black" points="442.5,-112.5 442.5,-131.5 586.5,-131.5 586.5,-112.5 442.5,-112.5"/>
<text text-anchor="middle" x="514.5" y="-119.5" font-family="Helvetica,sans-Serif" font-size="10.00">src/node/rpc/gov_effects.h</text>
</a>
</g>
</g>
<!-- Node13&#45;&gt;Node14 -->
<g id="edge15" class="edge">
<title>Node13&#45;&gt;Node14</title>
<path fill="none" stroke="midnightblue" d="M648.05,-170.58C615.59,-159.02 567.13,-141.75 538.38,-131.51"/>
<polygon fill="midnightblue" stroke="midnightblue" points="646.98,-173.92 657.57,-173.98 649.33,-167.32 646.98,-173.92"/>
</g>
<!-- Node14&#45;&gt;Node10 -->
<g id="edge16" class="edge">
<title>Node14&#45;&gt;Node10</title>
<path fill="none" stroke="midnightblue" d="M482.34,-108.77C455.67,-98.63 418.43,-84.47 394.9,-75.52"/>
<polygon fill="midnightblue" stroke="midnightblue" points="481.41,-112.16 492,-112.44 483.9,-105.62 481.41,-112.16"/>
</g>
<!-- Node16 -->
<g id="node16" class="node">
<title>Node16</title>
<g id="a_node16"><a xlink:href="orc__requests_8h.html" target="_top" xlink:title=" ">
<polygon fill="white" stroke="black" points="628,-369.5 628,-399.5 747,-399.5 747,-369.5 628,-369.5"/>
<text text-anchor="start" x="636" y="-387.5" font-family="Helvetica,sans-Serif" font-size="10.00">src/consensus/aft/orc</text>
<text text-anchor="middle" x="687.5" y="-376.5" font-family="Helvetica,sans-Serif" font-size="10.00">_requests.h</text>
</a>
</g>
</g>
<!-- Node15&#45;&gt;Node16 -->
<g id="edge18" class="edge">
<title>Node15&#45;&gt;Node16</title>
<path fill="none" stroke="midnightblue" d="M833.84,-438.35C803.33,-427.33 758.37,-411.09 726.35,-399.53"/>
<polygon fill="midnightblue" stroke="midnightblue" points="833,-441.76 843.6,-441.87 835.38,-435.18 833,-441.76"/>
</g>
<!-- Node17 -->
<g id="node17" class="node">
<title>Node17</title>
<g id="a_node17"><a xlink:href="raft_8h.html" target="_top" xlink:title=" ">
<polygon fill="white" stroke="black" points="710,-308 710,-327 839,-327 839,-308 710,-308"/>
<text text-anchor="middle" x="774.5" y="-315" font-family="Helvetica,sans-Serif" font-size="10.00">src/consensus/aft/raft.h</text>
</a>
</g>
</g>
<!-- Node15&#45;&gt;Node17 -->
<g id="edge25" class="edge">
<title>Node15&#45;&gt;Node17</title>
<path fill="none" stroke="midnightblue" d="M838.92,-437.17C823.57,-428.61 805.58,-416.08 794.5,-400 778.72,-377.08 775.35,-342.99 774.66,-327.16"/>
<polygon fill="midnightblue" stroke="midnightblue" points="837.57,-440.42 848.05,-441.98 840.84,-434.23 837.57,-440.42"/>
</g>
<!-- Node20 -->
<g id="node20" class="node">
<title>Node20</title>
<g id="a_node20"><a xlink:href="http__node__client_8h.html" target="_top" xlink:title=" ">
<polygon fill="white" stroke="black" points="795.5,-235.5 795.5,-265.5 905.5,-265.5 905.5,-235.5 795.5,-235.5"/>
<text text-anchor="start" x="803.5" y="-253.5" font-family="Helvetica,sans-Serif" font-size="10.00">src/node/http_node</text>
<text text-anchor="middle" x="850.5" y="-242.5" font-family="Helvetica,sans-Serif" font-size="10.00">_client.h</text>
</a>
</g>
</g>
<!-- Node15&#45;&gt;Node20 -->
<g id="edge26" class="edge">
<title>Node15&#45;&gt;Node20</title>
<path fill="none" stroke="midnightblue" d="M899.18,-437.28C914.63,-429.01 931.73,-416.73 940.5,-400 946.9,-387.8 944.92,-382.05 940.5,-369 925.82,-325.68 888.04,-285.8 866.38,-265.51"/>
<polygon fill="midnightblue" stroke="midnightblue" points="897.26,-434.32 889.86,-441.91 900.37,-440.59 897.26,-434.32"/>
</g>
<!-- Node21 -->
<g id="node21" class="node">
<title>Node21</title>
<g id="a_node21"><a xlink:href="retired__nodes__cleanup_8h.html" target="_top" xlink:title=" ">
<polygon fill="white" stroke="black" points="803.5,-369.5 803.5,-399.5 931.5,-399.5 931.5,-369.5 803.5,-369.5"/>
<text text-anchor="start" x="811.5" y="-387.5" font-family="Helvetica,sans-Serif" font-size="10.00">src/node/retired_nodes</text>
<text text-anchor="middle" x="867.5" y="-376.5" font-family="Helvetica,sans-Serif" font-size="10.00">_cleanup.h</text>
</a>
</g>
</g>
<!-- Node15&#45;&gt;Node21 -->
<g id="edge28" class="edge">
<title>Node15&#45;&gt;Node21</title>
<path fill="none" stroke="midnightblue" d="M867.5,-431.41C867.5,-421.22 867.5,-408.9 867.5,-399.59"/>
<polygon fill="midnightblue" stroke="midnightblue" points="864,-431.73 867.5,-441.73 871,-431.73 864,-431.73"/>
</g>
<!-- Node16&#45;&gt;Node17 -->
<g id="edge19" class="edge">
<title>Node16&#45;&gt;Node17</title>
<path fill="none" stroke="midnightblue" d="M714.48,-363.34C730.72,-351.21 750.56,-336.39 762.86,-327.19"/>
<polygon fill="midnightblue" stroke="midnightblue" points="712.29,-360.61 706.38,-369.4 716.48,-366.21 712.29,-360.61"/>
</g>
<!-- Node18 -->
<g id="node18" class="node">
<title>Node18</title>
<g id="a_node18"><a xlink:href="node__frontend_8h.html" target="_top" xlink:title=" ">
<polygon fill="white" stroke="black" points="457.5,-308 457.5,-327 615.5,-327 615.5,-308 457.5,-308"/>
<text text-anchor="middle" x="536.5" y="-315" font-family="Helvetica,sans-Serif" font-size="10.00">src/node/rpc/node_frontend.h</text>
</a>
</g>
</g>
<!-- Node16&#45;&gt;Node18 -->
<g id="edge21" class="edge">
<title>Node16&#45;&gt;Node18</title>
<path fill="none" stroke="midnightblue" d="M645.21,-365.3C616.09,-352.76 578.74,-336.68 556.26,-327.01"/>
<polygon fill="midnightblue" stroke="midnightblue" points="644.17,-368.66 654.74,-369.4 646.93,-362.23 644.17,-368.66"/>
</g>
<!-- Node17&#45;&gt;Node13 -->
<g id="edge20" class="edge">
<title>Node17&#45;&gt;Node13</title>
<path fill="none" stroke="midnightblue" d="M771.87,-297.79C768.68,-280.26 761.96,-253.98 748.5,-235 735.36,-216.46 713.35,-201.77 698.17,-193.11"/>
<polygon fill="midnightblue" stroke="midnightblue" points="768.45,-298.56 773.5,-307.88 775.37,-297.45 768.45,-298.56"/>
</g>
<!-- Node18&#45;&gt;Node10 -->
<g id="edge22" class="edge">
<title>Node18&#45;&gt;Node10</title>
<path fill="none" stroke="midnightblue" d="M513.06,-302.46C499.35,-293.37 482.44,-280.54 470.5,-266 417.95,-202.02 384.54,-105.14 375.19,-75.75"/>
<polygon fill="midnightblue" stroke="midnightblue" points="511.22,-305.44 521.53,-307.88 514.99,-299.54 511.22,-305.44"/>
</g>
<!-- Node19 -->
<g id="node19" class="node">
<title>Node19</title>
<g id="a_node19"><a xlink:href="jwt__key__auto__refresh_8h.html" target="_top" xlink:title=" ">
<polygon fill="white" stroke="black" points="480,-235.5 480,-265.5 605,-265.5 605,-235.5 480,-235.5"/>
<text text-anchor="start" x="488" y="-253.5" font-family="Helvetica,sans-Serif" font-size="10.00">src/node/jwt_key_auto</text>
<text text-anchor="middle" x="542.5" y="-242.5" font-family="Helvetica,sans-Serif" font-size="10.00">_refresh.h</text>
</a>
</g>
</g>
<!-- Node18&#45;&gt;Node19 -->
<g id="edge23" class="edge">
<title>Node18&#45;&gt;Node19</title>
<path fill="none" stroke="midnightblue" d="M538.23,-297.74C539.18,-287.49 540.33,-275 541.2,-265.59"/>
<polygon fill="midnightblue" stroke="midnightblue" points="534.74,-297.45 537.31,-307.73 541.71,-298.1 534.74,-297.45"/>
</g>
<!-- Node19&#45;&gt;Node13 -->
<g id="edge24" class="edge">
<title>Node19&#45;&gt;Node13</title>
<path fill="none" stroke="midnightblue" d="M581.78,-231.13C608.53,-218.62 642.71,-202.64 663.31,-193.01"/>
<polygon fill="midnightblue" stroke="midnightblue" points="580.24,-227.99 572.66,-235.4 583.2,-234.33 580.24,-227.99"/>
</g>
<!-- Node20&#45;&gt;Node13 -->
<g id="edge27" class="edge">
<title>Node20&#45;&gt;Node13</title>
<path fill="none" stroke="midnightblue" d="M804.44,-231.78C771.67,-219.18 729.1,-202.81 703.62,-193.01"/>
<polygon fill="midnightblue" stroke="midnightblue" points="803.24,-235.07 813.83,-235.4 805.75,-228.54 803.24,-235.07"/>
</g>
<!-- Node21&#45;&gt;Node17 -->
<g id="edge29" class="edge">
<title>Node21&#45;&gt;Node17</title>
<path fill="none" stroke="midnightblue" d="M839.09,-363.64C821.54,-351.37 799.91,-336.26 786.67,-327.01"/>
<polygon fill="midnightblue" stroke="midnightblue" points="837.12,-366.54 847.32,-369.4 841.13,-360.8 837.12,-366.54"/>
</g>
<!-- Node22&#45;&gt;Node13 -->
<g id="edge32" class="edge">
<title>Node22&#45;&gt;Node13</title>
<path fill="none" stroke="midnightblue" d="M681.5,-230.54C681.5,-218.17 681.5,-202.62 681.5,-193.13"/>
<polygon fill="midnightblue" stroke="midnightblue" points="678,-230.73 681.5,-240.73 685,-230.73 678,-230.73"/>
</g>
<!-- Node24 -->
<g id="node24" class="node">
<title>Node24</title>
<g id="a_node24"><a xlink:href="jwt__auth_8cpp.html" target="_top" xlink:title=" ">
<polygon fill="white" stroke="black" points="628,-626.5 628,-656.5 783,-656.5 783,-626.5 628,-626.5"/>
<text text-anchor="start" x="636" y="-644.5" font-family="Helvetica,sans-Serif" font-size="10.00">src/endpoints/authentication</text>
<text text-anchor="middle" x="705.5" y="-633.5" font-family="Helvetica,sans-Serif" font-size="10.00">/jwt_auth.cpp</text>
</a>
</g>
</g>
<!-- Node23&#45;&gt;Node24 -->
<g id="edge34" class="edge">
<title>Node23&#45;&gt;Node24</title>
<path fill="none" stroke="midnightblue" d="M623.48,-688.54C640.49,-678.99 663.28,-666.2 680.52,-656.52"/>
<polygon fill="midnightblue" stroke="midnightblue" points="621.69,-685.53 614.69,-693.48 625.12,-691.63 621.69,-685.53"/>
</g>
<!-- Node25 -->
<g id="node25" class="node">
<title>Node25</title>
<g id="a_node25"><a xlink:href="frontend_8h.html" target="_top" xlink:title=" ">
<polygon fill="white" stroke="black" points="315,-375 315,-394 444,-394 444,-375 315,-375"/>
<text text-anchor="middle" x="379.5" y="-382" font-family="Helvetica,sans-Serif" font-size="10.00">src/node/rpc/frontend.h</text>
</a>
</g>
</g>
<!-- Node23&#45;&gt;Node25 -->
<g id="edge35" class="edge">
<title>Node23&#45;&gt;Node25</title>
<path fill="none" stroke="midnightblue" d="M596.3,-683.22C593.22,-667.48 587.79,-644.66 579.5,-626 538.59,-533.84 526.51,-507.6 455.5,-436 437.76,-418.12 412.74,-402.97 396.33,-394.05"/>
<polygon fill="midnightblue" stroke="midnightblue" points="592.9,-684.06 598.14,-693.26 599.78,-682.8 592.9,-684.06"/>
</g>
<!-- Node25&#45;&gt;Node13 -->
<g id="edge39" class="edge">
<title>Node25&#45;&gt;Node13</title>
<path fill="none" stroke="midnightblue" d="M390.12,-366.21C396.11,-356.46 403.73,-344.05 410.5,-333 437.19,-289.46 429.18,-265.01 470.5,-235 513.93,-203.46 574.39,-191.38 619.46,-186.88"/>
<polygon fill="midnightblue" stroke="midnightblue" points="387.02,-364.57 384.77,-374.92 392.98,-368.23 387.02,-364.57"/>
</g>
<!-- Node25&#45;&gt;Node18 -->
<g id="edge42" class="edge">
<title>Node25&#45;&gt;Node18</title>
<path fill="none" stroke="midnightblue" d="M409.82,-370.95C440.9,-358.08 488.43,-338.4 515.57,-327.17"/>
<polygon fill="midnightblue" stroke="midnightblue" points="408.25,-367.81 400.35,-374.87 410.93,-374.28 408.25,-367.81"/>
</g>
<!-- Node26 -->
<g id="node26" class="node">
<title>Node26</title>
<g id="a_node26"><a xlink:href="acme__challenge__frontend_8h.html" target="_top" xlink:title=" ">
<polygon fill="white" stroke="black" points="261.5,-302.5 261.5,-332.5 401.5,-332.5 401.5,-302.5 261.5,-302.5"/>
<text text-anchor="start" x="269.5" y="-320.5" font-family="Helvetica,sans-Serif" font-size="10.00">src/node/acme_challenge</text>
<text text-anchor="middle" x="331.5" y="-309.5" font-family="Helvetica,sans-Serif" font-size="10.00">_frontend.h</text>
</a>
</g>
</g>
<!-- Node25&#45;&gt;Node26 -->
<g id="edge36" class="edge">
<title>Node25&#45;&gt;Node26</title>
<path fill="none" stroke="midnightblue" d="M367.07,-366.67C359.26,-356.09 349.3,-342.6 341.9,-332.59"/>
<polygon fill="midnightblue" stroke="midnightblue" points="364.27,-368.77 373.03,-374.73 369.9,-364.61 364.27,-368.77"/>
</g>
<!-- Node27 -->
<g id="node27" class="node">
<title>Node27</title>
<g id="a_node27"><a xlink:href="member__frontend_8h.html" target="_top" xlink:title=" ">
<polygon fill="white" stroke="black" points="85.5,-168.5 85.5,-198.5 205.5,-198.5 205.5,-168.5 85.5,-168.5"/>
<text text-anchor="start" x="93.5" y="-186.5" font-family="Helvetica,sans-Serif" font-size="10.00">src/node/rpc/member</text>
<text text-anchor="middle" x="145.5" y="-175.5" font-family="Helvetica,sans-Serif" font-size="10.00">_frontend.h</text>
</a>
</g>
</g>
<!-- Node25&#45;&gt;Node27 -->
<g id="edge40" class="edge">
<title>Node25&#45;&gt;Node27</title>
<path fill="none" stroke="midnightblue" d="M305.1,-372.92C275.79,-365.68 243.47,-353.49 219.5,-333 176.36,-296.14 155.79,-228.07 148.61,-198.65"/>
<polygon fill="midnightblue" stroke="midnightblue" points="304.37,-376.35 314.9,-375.2 305.95,-369.53 304.37,-376.35"/>
</g>
<!-- Node28 -->
<g id="node28" class="node">
<title>Node28</title>
<g id="a_node28"><a xlink:href="user__frontend_8h.html" target="_top" xlink:title=" ">
<polygon fill="white" stroke="black" points="170,-112.5 170,-131.5 325,-131.5 325,-112.5 170,-112.5"/>
<text text-anchor="middle" x="247.5" y="-119.5" font-family="Helvetica,sans-Serif" font-size="10.00">src/node/rpc/user_frontend.h</text>
</a>
</g>
</g>
<!-- Node25&#45;&gt;Node28 -->
<g id="edge43" class="edge">
<title>Node25&#45;&gt;Node28</title>
<path fill="none" stroke="midnightblue" d="M311.6,-372.12C289.07,-364.8 266.26,-352.77 252.5,-333 207.29,-268.05 235.13,-162.32 244.67,-131.61"/>
<polygon fill="midnightblue" stroke="midnightblue" points="310.62,-375.48 321.2,-374.98 312.62,-368.77 310.62,-375.48"/>
</g>
<!-- Node26&#45;&gt;Node10 -->
<g id="edge37" class="edge">
<title>Node26&#45;&gt;Node10</title>
<path fill="none" stroke="midnightblue" d="M335.47,-292.36C344.31,-238.56 365.3,-110.81 371.03,-75.93"/>
<polygon fill="midnightblue" stroke="midnightblue" points="331.99,-291.94 333.82,-302.37 338.9,-293.07 331.99,-291.94"/>
</g>
<!-- Node26&#45;&gt;Node12 -->
<g id="edge38" class="edge">
<title>Node26&#45;&gt;Node12</title>
<path fill="none" stroke="midnightblue" d="M411.88,-306.04C424.14,-304.59 436.65,-303.19 448.5,-302 655.19,-281.22 707.77,-286.36 914.5,-266 932.08,-264.27 951.07,-262.12 968.67,-260.02"/>
<polygon fill="midnightblue" stroke="midnightblue" points="411.17,-302.6 401.66,-307.27 412.01,-309.55 411.17,-302.6"/>
</g>
<!-- Node27&#45;&gt;Node10 -->
<g id="edge41" class="edge">
<title>Node27&#45;&gt;Node10</title>
<path fill="none" stroke="midnightblue" d="M144.39,-157.93C145.07,-142.72 148.61,-123.89 160.5,-112 181.39,-91.12 256.39,-78.93 311.28,-72.62"/>
<polygon fill="midnightblue" stroke="midnightblue" points="140.89,-158.2 144.32,-168.22 147.88,-158.24 140.89,-158.2"/>
</g>
<!-- Node28&#45;&gt;Node10 -->
<g id="edge44" class="edge">
<title>Node28&#45;&gt;Node10</title>
<path fill="none" stroke="midnightblue" d="M276.74,-108.37C300.15,-98.26 332.34,-84.35 352.79,-75.52"/>
<polygon fill="midnightblue" stroke="midnightblue" points="275.1,-105.26 267.31,-112.44 277.87,-111.69 275.1,-105.26"/>
</g>
<!-- Node29&#45;&gt;Node8 -->
<g id="edge46" class="edge">
<title>Node29&#45;&gt;Node8</title>
<path fill="none" stroke="midnightblue" d="M552.67,-630.05C613.5,-618.52 710.21,-600.19 766.59,-589.51"/>
<polygon fill="midnightblue" stroke="midnightblue" points="551.66,-626.67 542.49,-631.98 552.97,-633.55 551.66,-626.67"/>
</g>
<!-- Node29&#45;&gt;Node19 -->
<g id="edge47" class="edge">
<title>Node29&#45;&gt;Node19</title>
<path fill="none" stroke="midnightblue" d="M512.73,-624.24C531.66,-602.26 561.5,-561.04 561.5,-519.5 561.5,-519.5 561.5,-519.5 561.5,-450.5 561.5,-391.24 610.07,-390.47 624.5,-333 627.86,-319.64 631.22,-314.03 624.5,-302 615.21,-285.36 597.93,-273.53 581.62,-265.52"/>
<polygon fill="midnightblue" stroke="midnightblue" points="509.92,-622.14 505.87,-631.93 515.14,-626.8 509.92,-622.14"/>
</g>
<!-- Node30 -->
<g id="node30" class="node">
<title>Node30</title>
<g id="a_node30"><a xlink:href="forwarder_8h.html" target="_top" xlink:title=" ">
<polygon fill="white" stroke="black" points="312.5,-442 312.5,-461 446.5,-461 446.5,-442 312.5,-442"/>
<text text-anchor="middle" x="379.5" y="-449" font-family="Helvetica,sans-Serif" font-size="10.00">src/node/rpc/forwarder.h</text>
</a>
</g>
</g>
<!-- Node29&#45;&gt;Node30 -->
<g id="edge48" class="edge">
<title>Node29&#45;&gt;Node30</title>
<path fill="none" stroke="midnightblue" d="M486.68,-623.26C462.16,-584.19 403.08,-490.06 384.91,-461.12"/>
<polygon fill="midnightblue" stroke="midnightblue" points="483.84,-625.32 492.12,-631.93 489.77,-621.6 483.84,-625.32"/>
</g>
<!-- Node30&#45;&gt;Node10 -->
<g id="edge49" class="edge">
<title>Node30&#45;&gt;Node10</title>
<path fill="none" stroke="midnightblue" d="M325.11,-439.89C233.3,-420.41 57.5,-375.64 57.5,-318.5 57.5,-318.5 57.5,-318.5 57.5,-182.5 57.5,-132.39 100.06,-133.14 145.5,-112 198.32,-87.42 264.13,-76.25 311.27,-71.18"/>
<polygon fill="midnightblue" stroke="midnightblue" points="324.56,-443.35 335.07,-441.97 325.99,-436.5 324.56,-443.35"/>
</g>
<!-- Node30&#45;&gt;Node25 -->
<g id="edge50" class="edge">
<title>Node30&#45;&gt;Node25</title>
<path fill="none" stroke="midnightblue" d="M379.5,-431.54C379.5,-419.17 379.5,-403.62 379.5,-394.13"/>
<polygon fill="midnightblue" stroke="midnightblue" points="376,-431.73 379.5,-441.73 383,-431.73 376,-431.73"/>
</g>
<!-- Node31&#45;&gt;Node3 -->
<g id="edge52" class="edge">
<title>Node31&#45;&gt;Node3</title>
<path fill="none" stroke="midnightblue" d="M349.06,-690.61C315.46,-680.9 267.03,-666.92 231.05,-656.52"/>
<polygon fill="midnightblue" stroke="midnightblue" points="348.41,-694.06 358.99,-693.48 350.35,-687.34 348.41,-694.06"/>
</g>
<!-- Node31&#45;&gt;Node29 -->
<g id="edge54" class="edge">
<title>Node31&#45;&gt;Node29</title>
<path fill="none" stroke="midnightblue" d="M413.13,-688.56C434.22,-677.04 463.96,-660.81 481.91,-651.01"/>
<polygon fill="midnightblue" stroke="midnightblue" points="411.22,-685.61 404.12,-693.48 414.57,-691.76 411.22,-685.61"/>
</g>
<!-- Node32 -->
<g id="node32" class="node">
<title>Node32</title>
<g id="a_node32"><a xlink:href="sig__auth_8cpp.html" target="_top" xlink:title=" ">
<polygon fill="white" stroke="black" points="251,-626.5 251,-656.5 406,-656.5 406,-626.5 251,-626.5"/>
<text text-anchor="start" x="259" y="-644.5" font-family="Helvetica,sans-Serif" font-size="10.00">src/endpoints/authentication</text>
<text text-anchor="middle" x="328.5" y="-633.5" font-family="Helvetica,sans-Serif" font-size="10.00">/sig_auth.cpp</text>
</a>
</g>
</g>
<!-- Node31&#45;&gt;Node32 -->
<g id="edge53" class="edge">
<title>Node31&#45;&gt;Node32</title>
<path fill="none" stroke="midnightblue" d="M372.74,-686.37C363.4,-677.11 351.68,-665.48 342.64,-656.52"/>
<polygon fill="midnightblue" stroke="midnightblue" points="370.34,-688.92 379.9,-693.48 375.27,-683.95 370.34,-688.92"/>
</g>
<!-- Node33&#45;&gt;Node12 -->
<g id="edge56" class="edge">
<title>Node33&#45;&gt;Node12</title>
<path fill="none" stroke="midnightblue" d="M1038.67,-560.12C1043.24,-518.94 1053.6,-417.94 1055.5,-333 1055.81,-319.23 1058.08,-315.53 1055.5,-302 1052.57,-286.62 1045.03,-269.95 1040.09,-260.13"/>
<polygon fill="midnightblue" stroke="midnightblue" points="1035.19,-559.75 1037.54,-570.08 1042.14,-560.54 1035.19,-559.75"/>
</g>
</g>
</svg>
