<?xml version="1.0" encoding="UTF-8" standalone="no"?>
<!DOCTYPE svg PUBLIC "-//W3C//DTD SVG 1.1//EN"
 "http://www.w3.org/Graphics/SVG/1.1/DTD/svg11.dtd">
<!-- Generated by graphviz version 2.43.0 (0)
 -->
<!-- Title: src/http/http_builder.h Pages: 1 -->
<svg width="1258pt" height="900pt"
 viewBox="0.00 0.00 1258.00 900.00" xmlns="http://www.w3.org/2000/svg" xmlns:xlink="http://www.w3.org/1999/xlink">
<g id="graph0" class="graph" transform="scale(1 1) rotate(0) translate(4 896)">
<title>src/http/http_builder.h</title>
<polygon fill="white" stroke="transparent" points="-4,4 -4,-896 1254,-896 1254,4 -4,4"/>
<!-- Node1 -->
<g id="node1" class="node">
<title>Node1</title>
<g id="a_node1"><a xlink:title=" ">
<polygon fill="#bfbfbf" stroke="black" points="452.5,-872.5 452.5,-891.5 575.5,-891.5 575.5,-872.5 452.5,-872.5"/>
<text text-anchor="middle" x="514" y="-879.5" font-family="Helvetica,sans-Serif" font-size="10.00">src/http/http_builder.h</text>
</a>
</g>
</g>
<!-- Node2 -->
<g id="node2" class="node">
<title>Node2</title>
<g id="a_node2"><a xlink:href="rpc__tls__client_8h.html" target="_top" xlink:title=" ">
<polygon fill="white" stroke="black" points="193.5,-626.5 193.5,-656.5 294.5,-656.5 294.5,-626.5 193.5,-626.5"/>
<text text-anchor="start" x="201.5" y="-644.5" font-family="Helvetica,sans-Serif" font-size="10.00">src/clients/rpc_tls</text>
<text text-anchor="middle" x="244" y="-633.5" font-family="Helvetica,sans-Serif" font-size="10.00">_client.h</text>
</a>
</g>
</g>
<!-- Node1&#45;&gt;Node2 -->
<g id="edge1" class="edge">
<title>Node1&#45;&gt;Node2</title>
<path fill="none" stroke="midnightblue" d="M442.23,-872.81C391.27,-865.63 328.58,-853.57 309,-836 254.93,-787.48 245.78,-692.58 244.27,-656.7"/>
<polygon fill="midnightblue" stroke="midnightblue" points="441.86,-876.3 452.25,-874.19 442.81,-869.36 441.86,-876.3"/>
</g>
<!-- Node7 -->
<g id="node7" class="node">
<title>Node7</title>
<g id="a_node7"><a xlink:href="client__endpoint_8h.html" target="_top" xlink:title=" ">
<polygon fill="white" stroke="black" points="806,-749.5 806,-779.5 908,-779.5 908,-749.5 806,-749.5"/>
<text text-anchor="start" x="814" y="-767.5" font-family="Helvetica,sans-Serif" font-size="10.00">src/enclave/client</text>
<text text-anchor="middle" x="857" y="-756.5" font-family="Helvetica,sans-Serif" font-size="10.00">_endpoint.h</text>
</a>
</g>
</g>
<!-- Node1&#45;&gt;Node7 -->
<g id="edge7" class="edge">
<title>Node1&#45;&gt;Node7</title>
<path fill="none" stroke="midnightblue" d="M553.84,-869.62C583.96,-860.86 626.25,-848.22 663,-836 718.09,-817.69 781.14,-794.32 820.02,-779.63"/>
<polygon fill="midnightblue" stroke="midnightblue" points="552.75,-866.29 544.12,-872.43 554.7,-873.01 552.75,-866.29"/>
</g>
<!-- Node19 -->
<g id="node19" class="node">
<title>Node19</title>
<g id="a_node19"><a xlink:href="jwt__key__auto__refresh_8h.html" target="_top" xlink:title=" ">
<polygon fill="white" stroke="black" points="442.5,-235.5 442.5,-265.5 567.5,-265.5 567.5,-235.5 442.5,-235.5"/>
<text text-anchor="start" x="450.5" y="-253.5" font-family="Helvetica,sans-Serif" font-size="10.00">src/node/jwt_key_auto</text>
<text text-anchor="middle" x="505" y="-242.5" font-family="Helvetica,sans-Serif" font-size="10.00">_refresh.h</text>
</a>
</g>
</g>
<!-- Node1&#45;&gt;Node19 -->
<g id="edge62" class="edge">
<title>Node1&#45;&gt;Node19</title>
<path fill="none" stroke="midnightblue" d="M451.72,-870.16C395.98,-856.47 323,-826.82 323,-765.5 323,-765.5 323,-765.5 323,-702 323,-582.64 403.99,-575.83 453,-467 485.24,-395.41 499.12,-301.07 503.43,-265.7"/>
<polygon fill="midnightblue" stroke="midnightblue" points="451.02,-873.59 461.56,-872.46 452.61,-866.78 451.02,-873.59"/>
</g>
<!-- Node23 -->
<g id="node23" class="node">
<title>Node23</title>
<g id="a_node23"><a xlink:href="http__parser_8h.html" target="_top" xlink:title=" ">
<polygon fill="white" stroke="black" points="538,-755 538,-774 658,-774 658,-755 538,-755"/>
<text text-anchor="middle" x="598" y="-762" font-family="Helvetica,sans-Serif" font-size="10.00">src/http/http_parser.h</text>
</a>
</g>
</g>
<!-- Node1&#45;&gt;Node23 -->
<g id="edge33" class="edge">
<title>Node1&#45;&gt;Node23</title>
<path fill="none" stroke="midnightblue" d="M516.72,-862.09C519.39,-848.37 524.51,-829.85 534,-816 546.56,-797.67 567.78,-782.83 582.32,-774.09"/>
<polygon fill="midnightblue" stroke="midnightblue" points="513.21,-861.85 515,-872.29 520.11,-863.01 513.21,-861.85"/>
</g>
<!-- Node35 -->
<g id="node35" class="node">
<title>Node35</title>
<g id="a_node35"><a xlink:href="http__proc_8h.html" target="_top" xlink:title=" ">
<polygon fill="white" stroke="black" points="542.5,-816.5 542.5,-835.5 653.5,-835.5 653.5,-816.5 542.5,-816.5"/>
<text text-anchor="middle" x="598" y="-823.5" font-family="Helvetica,sans-Serif" font-size="10.00">src/http/http_proc.h</text>
</a>
</g>
</g>
<!-- Node1&#45;&gt;Node35 -->
<g id="edge60" class="edge">
<title>Node1&#45;&gt;Node35</title>
<path fill="none" stroke="midnightblue" d="M535.93,-866.9C551.34,-857 571.45,-844.07 584.54,-835.65"/>
<polygon fill="midnightblue" stroke="midnightblue" points="534.02,-863.97 527.5,-872.32 537.8,-869.86 534.02,-863.97"/>
</g>
<!-- Node3 -->
<g id="node3" class="node">
<title>Node3</title>
<g id="a_node3"><a xlink:href="perf__client_8h.html" target="_top" xlink:title=" ">
<polygon fill="white" stroke="black" points="135.5,-503.5 135.5,-533.5 246.5,-533.5 246.5,-503.5 135.5,-503.5"/>
<text text-anchor="start" x="143.5" y="-521.5" font-family="Helvetica,sans-Serif" font-size="10.00">src/clients/perf/perf</text>
<text text-anchor="middle" x="191" y="-510.5" font-family="Helvetica,sans-Serif" font-size="10.00">_client.h</text>
</a>
</g>
</g>
<!-- Node2&#45;&gt;Node3 -->
<g id="edge2" class="edge">
<title>Node2&#45;&gt;Node3</title>
<path fill="none" stroke="midnightblue" d="M245.3,-615.98C245.15,-601.96 243.4,-584.36 237,-570 230.63,-555.7 218.6,-542.72 208.44,-533.5"/>
<polygon fill="midnightblue" stroke="midnightblue" points="241.8,-616.27 245.14,-626.33 248.8,-616.38 241.8,-616.27"/>
</g>
<!-- Node6 -->
<g id="node6" class="node">
<title>Node6</title>
<g id="a_node6"><a xlink:href="timing_8h.html" target="_top" xlink:title=" ">
<polygon fill="white" stroke="black" points="96,-570.5 96,-589.5 228,-589.5 228,-570.5 96,-570.5"/>
<text text-anchor="middle" x="162" y="-577.5" font-family="Helvetica,sans-Serif" font-size="10.00">src/clients/perf/timing.h</text>
</a>
</g>
</g>
<!-- Node2&#45;&gt;Node6 -->
<g id="edge5" class="edge">
<title>Node2&#45;&gt;Node6</title>
<path fill="none" stroke="midnightblue" d="M216.41,-620.48C201.97,-610 185.03,-597.71 173.93,-589.66"/>
<polygon fill="midnightblue" stroke="midnightblue" points="214.42,-623.36 224.57,-626.4 218.53,-617.69 214.42,-623.36"/>
</g>
<!-- Node4 -->
<g id="node4" class="node">
<title>Node4</title>
<g id="a_node4"><a xlink:href="tpcc__client_8cpp.html" target="_top" xlink:title=" ">
<polygon fill="white" stroke="black" points="0,-436.5 0,-466.5 116,-466.5 116,-436.5 0,-436.5"/>
<text text-anchor="start" x="8" y="-454.5" font-family="Helvetica,sans-Serif" font-size="10.00">src/apps/tpcc/clients</text>
<text text-anchor="middle" x="58" y="-443.5" font-family="Helvetica,sans-Serif" font-size="10.00">/tpcc_client.cpp</text>
</a>
</g>
</g>
<!-- Node3&#45;&gt;Node4 -->
<g id="edge3" class="edge">
<title>Node3&#45;&gt;Node4</title>
<path fill="none" stroke="midnightblue" d="M153.13,-498.99C132.05,-488.69 106.22,-476.07 86.8,-466.58"/>
<polygon fill="midnightblue" stroke="midnightblue" points="151.62,-502.15 162.14,-503.4 154.69,-495.86 151.62,-502.15"/>
</g>
<!-- Node5 -->
<g id="node5" class="node">
<title>Node5</title>
<g id="a_node5"><a xlink:href="scenario__perf__client_8cpp.html" target="_top" xlink:title=" ">
<polygon fill="white" stroke="black" points="134.5,-436.5 134.5,-466.5 267.5,-466.5 267.5,-436.5 134.5,-436.5"/>
<text text-anchor="start" x="142.5" y="-454.5" font-family="Helvetica,sans-Serif" font-size="10.00">src/clients/perf/scenario</text>
<text text-anchor="middle" x="201" y="-443.5" font-family="Helvetica,sans-Serif" font-size="10.00">_perf_client.cpp</text>
</a>
</g>
</g>
<!-- Node3&#45;&gt;Node5 -->
<g id="edge4" class="edge">
<title>Node3&#45;&gt;Node5</title>
<path fill="none" stroke="midnightblue" d="M194.71,-493.4C196.1,-484.37 197.63,-474.41 198.83,-466.58"/>
<polygon fill="midnightblue" stroke="midnightblue" points="191.23,-492.98 193.17,-503.4 198.15,-494.04 191.23,-492.98"/>
</g>
<!-- Node6&#45;&gt;Node3 -->
<g id="edge6" class="edge">
<title>Node6&#45;&gt;Node3</title>
<path fill="none" stroke="midnightblue" d="M170.58,-561.39C174.92,-552.5 180.1,-541.86 184.17,-533.52"/>
<polygon fill="midnightblue" stroke="midnightblue" points="167.39,-559.95 166.15,-570.48 173.68,-563.02 167.39,-559.95"/>
</g>
<!-- Node8 -->
<g id="node8" class="node">
<title>Node8</title>
<g id="a_node8"><a xlink:href="http__endpoint_8h.html" target="_top" xlink:title=" ">
<polygon fill="white" stroke="black" points="902.5,-570.5 902.5,-589.5 1035.5,-589.5 1035.5,-570.5 902.5,-570.5"/>
<text text-anchor="middle" x="969" y="-577.5" font-family="Helvetica,sans-Serif" font-size="10.00">src/http/http_endpoint.h</text>
</a>
</g>
</g>
<!-- Node7&#45;&gt;Node8 -->
<g id="edge8" class="edge">
<title>Node7&#45;&gt;Node8</title>
<path fill="none" stroke="midnightblue" d="M917.52,-748.21C935.44,-740.62 953.15,-729.42 964,-713 990.04,-673.58 977.41,-612.13 971.48,-589.63"/>
<polygon fill="midnightblue" stroke="midnightblue" points="916.21,-744.97 908.16,-751.86 918.75,-751.49 916.21,-744.97"/>
</g>
<!-- Node9 -->
<g id="node9" class="node">
<title>Node9</title>
<g id="a_node9"><a xlink:href="rpc__sessions_8h.html" target="_top" xlink:title=" ">
<polygon fill="white" stroke="black" points="933,-509 933,-528 1079,-528 1079,-509 933,-509"/>
<text text-anchor="middle" x="1006" y="-516" font-family="Helvetica,sans-Serif" font-size="10.00">src/enclave/rpc_sessions.h</text>
</a>
</g>
</g>
<!-- Node8&#45;&gt;Node9 -->
<g id="edge9" class="edge">
<title>Node8&#45;&gt;Node9</title>
<path fill="none" stroke="midnightblue" d="M979.78,-561.67C986.66,-550.61 995.27,-536.75 1000.71,-528.01"/>
<polygon fill="midnightblue" stroke="midnightblue" points="976.61,-560.13 974.3,-570.48 982.55,-563.83 976.61,-560.13"/>
</g>
<!-- Node10 -->
<g id="node10" class="node">
<title>Node10</title>
<g id="a_node10"><a xlink:href="enclave_2enclave_8h.html" target="_top" xlink:title=" ">
<polygon fill="white" stroke="black" points="425,-56.5 425,-75.5 547,-75.5 547,-56.5 425,-56.5"/>
<text text-anchor="middle" x="486" y="-63.5" font-family="Helvetica,sans-Serif" font-size="10.00">src/enclave/enclave.h</text>
</a>
</g>
</g>
<!-- Node9&#45;&gt;Node10 -->
<g id="edge10" class="edge">
<title>Node9&#45;&gt;Node10</title>
<path fill="none" stroke="midnightblue" d="M1089.05,-507.12C1159.77,-493.08 1250,-460.48 1250,-385.5 1250,-385.5 1250,-385.5 1250,-182.5 1250,-111.57 728.52,-79.01 547.23,-69.83"/>
<polygon fill="midnightblue" stroke="midnightblue" points="1088.38,-503.68 1079.21,-508.98 1089.68,-510.56 1088.38,-503.68"/>
</g>
<!-- Node12 -->
<g id="node12" class="node">
<title>Node12</title>
<g id="a_node12"><a xlink:href="ccf__acme__client_8h.html" target="_top" xlink:title=" ">
<polygon fill="white" stroke="black" points="641.5,-241 641.5,-260 790.5,-260 790.5,-241 641.5,-241"/>
<text text-anchor="middle" x="716" y="-248" font-family="Helvetica,sans-Serif" font-size="10.00">src/node/ccf_acme_client.h</text>
</a>
</g>
</g>
<!-- Node9&#45;&gt;Node12 -->
<g id="edge12" class="edge">
<title>Node9&#45;&gt;Node12</title>
<path fill="none" stroke="midnightblue" d="M944.29,-506.49C915.53,-499.01 882.18,-486.76 857,-467 788.62,-413.33 800.58,-374.08 752,-302 742.01,-287.18 729.84,-270.34 722.52,-260.34"/>
<polygon fill="midnightblue" stroke="midnightblue" points="943.7,-509.95 954.25,-508.94 945.38,-503.15 943.7,-509.95"/>
</g>
<!-- Node13 -->
<g id="node13" class="node">
<title>Node13</title>
<g id="a_node13"><a xlink:href="node__state_8h.html" target="_top" xlink:title=" ">
<polygon fill="white" stroke="black" points="672,-174 672,-193 796,-193 796,-174 672,-174"/>
<text text-anchor="middle" x="734" y="-181" font-family="Helvetica,sans-Serif" font-size="10.00">src/node/node_state.h</text>
</a>
</g>
</g>
<!-- Node9&#45;&gt;Node13 -->
<g id="edge30" class="edge">
<title>Node9&#45;&gt;Node13</title>
<path fill="none" stroke="midnightblue" d="M1062.91,-506.57C1123.89,-491.17 1212,-456.62 1212,-385.5 1212,-385.5 1212,-385.5 1212,-316.5 1212,-276.53 1206.43,-258.36 1174,-235 1114.97,-192.47 902.76,-185.22 796.1,-184.33"/>
<polygon fill="midnightblue" stroke="midnightblue" points="1061.9,-503.21 1053,-508.97 1063.54,-510.02 1061.9,-503.21"/>
</g>
<!-- Node15 -->
<g id="node15" class="node">
<title>Node15</title>
<g id="a_node15"><a xlink:href="node__client_8h.html" target="_top" xlink:title=" ">
<polygon fill="white" stroke="black" points="981,-442 981,-461 1107,-461 1107,-442 981,-442"/>
<text text-anchor="middle" x="1044" y="-449" font-family="Helvetica,sans-Serif" font-size="10.00">src/node/node_client.h</text>
</a>
</g>
</g>
<!-- Node9&#45;&gt;Node15 -->
<g id="edge17" class="edge">
<title>Node9&#45;&gt;Node15</title>
<path fill="none" stroke="midnightblue" d="M1016.21,-500.03C1023.57,-487.45 1033.18,-471.01 1038.96,-461.13"/>
<polygon fill="midnightblue" stroke="midnightblue" points="1013.15,-498.33 1011.12,-508.73 1019.19,-501.87 1013.15,-498.33"/>
</g>
<!-- Node22 -->
<g id="node22" class="node">
<title>Node22</title>
<g id="a_node22"><a xlink:href="resharing_8h.html" target="_top" xlink:title=" ">
<polygon fill="white" stroke="black" points="808,-241 808,-260 924,-260 924,-241 808,-241"/>
<text text-anchor="middle" x="866" y="-248" font-family="Helvetica,sans-Serif" font-size="10.00">src/node/resharing.h</text>
</a>
</g>
</g>
<!-- Node9&#45;&gt;Node22 -->
<g id="edge31" class="edge">
<title>Node9&#45;&gt;Node22</title>
<path fill="none" stroke="midnightblue" d="M971.11,-505.27C929.76,-488.66 862.84,-454.63 834,-400 808.39,-351.49 845.52,-283.78 860.35,-260.09"/>
<polygon fill="midnightblue" stroke="midnightblue" points="969.94,-508.57 980.53,-508.93 972.48,-502.05 969.94,-508.57"/>
</g>
<!-- Node11 -->
<g id="node11" class="node">
<title>Node11</title>
<g id="a_node11"><a xlink:href="enclave_2main_8cpp.html" target="_top" xlink:title=" ">
<polygon fill="white" stroke="black" points="426,-0.5 426,-19.5 546,-19.5 546,-0.5 426,-0.5"/>
<text text-anchor="middle" x="486" y="-7.5" font-family="Helvetica,sans-Serif" font-size="10.00">src/enclave/main.cpp</text>
</a>
</g>
</g>
<!-- Node10&#45;&gt;Node11 -->
<g id="edge11" class="edge">
<title>Node10&#45;&gt;Node11</title>
<path fill="none" stroke="midnightblue" d="M486,-45.8C486,-36.91 486,-26.78 486,-19.75"/>
<polygon fill="midnightblue" stroke="midnightblue" points="482.5,-46.08 486,-56.08 489.5,-46.08 482.5,-46.08"/>
</g>
<!-- Node12&#45;&gt;Node13 -->
<g id="edge13" class="edge">
<title>Node12&#45;&gt;Node13</title>
<path fill="none" stroke="midnightblue" d="M721.15,-230.91C724.59,-218.49 728.96,-202.72 731.61,-193.13"/>
<polygon fill="midnightblue" stroke="midnightblue" points="717.72,-230.16 718.43,-240.73 724.47,-232.03 717.72,-230.16"/>
</g>
<!-- Node13&#45;&gt;Node10 -->
<g id="edge14" class="edge">
<title>Node13&#45;&gt;Node10</title>
<path fill="none" stroke="midnightblue" d="M712.17,-168.58C687.85,-153.44 647.08,-129.12 610,-112 577.77,-97.12 539.11,-83.76 513.62,-75.54"/>
<polygon fill="midnightblue" stroke="midnightblue" points="710.31,-171.55 720.64,-173.9 714.03,-165.62 710.31,-171.55"/>
</g>
<!-- Node14 -->
<g id="node14" class="node">
<title>Node14</title>
<g id="a_node14"><a xlink:href="gov__effects_8h.html" target="_top" xlink:title=" ">
<polygon fill="white" stroke="black" points="662,-112.5 662,-131.5 806,-131.5 806,-112.5 662,-112.5"/>
<text text-anchor="middle" x="734" y="-119.5" font-family="Helvetica,sans-Serif" font-size="10.00">src/node/rpc/gov_effects.h</text>
</a>
</g>
</g>
<!-- Node13&#45;&gt;Node14 -->
<g id="edge15" class="edge">
<title>Node13&#45;&gt;Node14</title>
<path fill="none" stroke="midnightblue" d="M734,-163.82C734,-153 734,-139.9 734,-131.51"/>
<polygon fill="midnightblue" stroke="midnightblue" points="730.5,-163.98 734,-173.98 737.5,-163.98 730.5,-163.98"/>
</g>
<!-- Node14&#45;&gt;Node10 -->
<g id="edge16" class="edge">
<title>Node14&#45;&gt;Node10</title>
<path fill="none" stroke="midnightblue" d="M684.77,-110.28C637.91,-100.08 568.3,-84.92 525.11,-75.52"/>
<polygon fill="midnightblue" stroke="midnightblue" points="684.19,-113.74 694.7,-112.44 685.68,-106.9 684.19,-113.74"/>
</g>
<!-- Node16 -->
<g id="node16" class="node">
<title>Node16</title>
<g id="a_node16"><a xlink:href="orc__requests_8h.html" target="_top" xlink:title=" ">
<polygon fill="white" stroke="black" points="842.5,-369.5 842.5,-399.5 961.5,-399.5 961.5,-369.5 842.5,-369.5"/>
<text text-anchor="start" x="850.5" y="-387.5" font-family="Helvetica,sans-Serif" font-size="10.00">src/consensus/aft/orc</text>
<text text-anchor="middle" x="902" y="-376.5" font-family="Helvetica,sans-Serif" font-size="10.00">_requests.h</text>
</a>
</g>
</g>
<!-- Node15&#45;&gt;Node16 -->
<g id="edge18" class="edge">
<title>Node15&#45;&gt;Node16</title>
<path fill="none" stroke="midnightblue" d="M1015.86,-437.62C991.84,-426.63 957.36,-410.84 932.65,-399.53"/>
<polygon fill="midnightblue" stroke="midnightblue" points="1014.59,-440.89 1025.14,-441.87 1017.51,-434.52 1014.59,-440.89"/>
</g>
<!-- Node17 -->
<g id="node17" class="node">
<title>Node17</title>
<g id="a_node17"><a xlink:href="raft_8h.html" target="_top" xlink:title=" ">
<polygon fill="white" stroke="black" points="942.5,-308 942.5,-327 1071.5,-327 1071.5,-308 942.5,-308"/>
<text text-anchor="middle" x="1007" y="-315" font-family="Helvetica,sans-Serif" font-size="10.00">src/consensus/aft/raft.h</text>
</a>
</g>
</g>
<!-- Node15&#45;&gt;Node17 -->
<g id="edge25" class="edge">
<title>Node15&#45;&gt;Node17</title>
<path fill="none" stroke="midnightblue" d="M1075.68,-437.28C1091.13,-429.01 1108.23,-416.73 1117,-400 1123.4,-387.8 1124.44,-380.6 1117,-369 1102.65,-346.62 1075.62,-334.03 1051.95,-327.02"/>
<polygon fill="midnightblue" stroke="midnightblue" points="1073.76,-434.32 1066.36,-441.91 1076.87,-440.59 1073.76,-434.32"/>
</g>
<!-- Node20 -->
<g id="node20" class="node">
<title>Node20</title>
<g id="a_node20"><a xlink:href="http__node__client_8h.html" target="_top" xlink:title=" ">
<polygon fill="white" stroke="black" points="1055,-235.5 1055,-265.5 1165,-265.5 1165,-235.5 1055,-235.5"/>
<text text-anchor="start" x="1063" y="-253.5" font-family="Helvetica,sans-Serif" font-size="10.00">src/node/http_node</text>
<text text-anchor="middle" x="1110" y="-242.5" font-family="Helvetica,sans-Serif" font-size="10.00">_client.h</text>
</a>
</g>
</g>
<!-- Node15&#45;&gt;Node20 -->
<g id="edge26" class="edge">
<title>Node15&#45;&gt;Node20</title>
<path fill="none" stroke="midnightblue" d="M1084.34,-438.16C1102.59,-430.34 1122.42,-418.17 1133,-400 1158.47,-356.26 1132.13,-293.53 1117.88,-265.72"/>
<polygon fill="midnightblue" stroke="midnightblue" points="1083,-434.93 1074.99,-441.87 1085.58,-441.44 1083,-434.93"/>
</g>
<!-- Node21 -->
<g id="node21" class="node">
<title>Node21</title>
<g id="a_node21"><a xlink:href="retired__nodes__cleanup_8h.html" target="_top" xlink:title=" ">
<polygon fill="white" stroke="black" points="980,-369.5 980,-399.5 1108,-399.5 1108,-369.5 980,-369.5"/>
<text text-anchor="start" x="988" y="-387.5" font-family="Helvetica,sans-Serif" font-size="10.00">src/node/retired_nodes</text>
<text text-anchor="middle" x="1044" y="-376.5" font-family="Helvetica,sans-Serif" font-size="10.00">_cleanup.h</text>
</a>
</g>
</g>
<!-- Node15&#45;&gt;Node21 -->
<g id="edge28" class="edge">
<title>Node15&#45;&gt;Node21</title>
<path fill="none" stroke="midnightblue" d="M1044,-431.41C1044,-421.22 1044,-408.9 1044,-399.59"/>
<polygon fill="midnightblue" stroke="midnightblue" points="1040.5,-431.73 1044,-441.73 1047.5,-431.73 1040.5,-431.73"/>
</g>
<!-- Node16&#45;&gt;Node17 -->
<g id="edge19" class="edge">
<title>Node16&#45;&gt;Node17</title>
<path fill="none" stroke="midnightblue" d="M933.54,-363.97C953.45,-351.65 978.17,-336.35 993.26,-327.01"/>
<polygon fill="midnightblue" stroke="midnightblue" points="931.44,-361.16 924.78,-369.4 935.13,-367.11 931.44,-361.16"/>
</g>
<!-- Node18 -->
<g id="node18" class="node">
<title>Node18</title>
<g id="a_node18"><a xlink:href="node__frontend_8h.html" target="_top" xlink:title=" ">
<polygon fill="white" stroke="black" points="318,-308 318,-327 476,-327 476,-308 318,-308"/>
<text text-anchor="middle" x="397" y="-315" font-family="Helvetica,sans-Serif" font-size="10.00">src/node/rpc/node_frontend.h</text>
</a>
</g>
</g>
<!-- Node16&#45;&gt;Node18 -->
<g id="edge21" class="edge">
<title>Node16&#45;&gt;Node18</title>
<path fill="none" stroke="midnightblue" d="M832.03,-374.49C734.45,-361.93 558.76,-339.32 463.23,-327.02"/>
<polygon fill="midnightblue" stroke="midnightblue" points="831.72,-377.98 842.09,-375.79 832.62,-371.04 831.72,-377.98"/>
</g>
<!-- Node17&#45;&gt;Node13 -->
<g id="edge20" class="edge">
<title>Node17&#45;&gt;Node13</title>
<path fill="none" stroke="midnightblue" d="M996.07,-299.41C983.22,-280.74 960.19,-251.34 933,-235 891.3,-209.94 837.49,-197.25 796.34,-190.86"/>
<polygon fill="midnightblue" stroke="midnightblue" points="993.22,-301.45 1001.67,-307.83 999.05,-297.57 993.22,-301.45"/>
</g>
<!-- Node18&#45;&gt;Node10 -->
<g id="edge22" class="edge">
<title>Node18&#45;&gt;Node10</title>
<path fill="none" stroke="midnightblue" d="M403.43,-298.47C421.15,-248.79 470.22,-111.25 482.95,-75.55"/>
<polygon fill="midnightblue" stroke="midnightblue" points="400.13,-297.32 400.06,-307.91 406.72,-299.67 400.13,-297.32"/>
</g>
<!-- Node18&#45;&gt;Node19 -->
<g id="edge23" class="edge">
<title>Node18&#45;&gt;Node19</title>
<path fill="none" stroke="midnightblue" d="M420.34,-302.45C438.45,-291.55 463.46,-276.5 481.59,-265.59"/>
<polygon fill="midnightblue" stroke="midnightblue" points="418.33,-299.58 411.57,-307.73 421.94,-305.58 418.33,-299.58"/>
</g>
<!-- Node19&#45;&gt;Node13 -->
<g id="edge24" class="edge">
<title>Node19&#45;&gt;Node13</title>
<path fill="none" stroke="midnightblue" d="M564.29,-232.67C609.05,-219.97 668.6,-203.06 703.95,-193.03"/>
<polygon fill="midnightblue" stroke="midnightblue" points="563.07,-229.38 554.41,-235.48 564.98,-236.11 563.07,-229.38"/>
</g>
<!-- Node20&#45;&gt;Node13 -->
<g id="edge27" class="edge">
<title>Node20&#45;&gt;Node13</title>
<path fill="none" stroke="midnightblue" d="M1044.73,-238.22C970.28,-225.35 850.23,-204.59 783.23,-193.01"/>
<polygon fill="midnightblue" stroke="midnightblue" points="1044.47,-241.72 1054.92,-239.98 1045.67,-234.83 1044.47,-241.72"/>
</g>
<!-- Node21&#45;&gt;Node17 -->
<g id="edge29" class="edge">
<title>Node21&#45;&gt;Node17</title>
<path fill="none" stroke="midnightblue" d="M1030.98,-360.63C1024.4,-349.07 1016.8,-335.71 1011.95,-327.19"/>
<polygon fill="midnightblue" stroke="midnightblue" points="1027.98,-362.44 1035.97,-369.4 1034.07,-358.97 1027.98,-362.44"/>
</g>
<!-- Node22&#45;&gt;Node13 -->
<g id="edge32" class="edge">
<title>Node22&#45;&gt;Node13</title>
<path fill="none" stroke="midnightblue" d="M839.49,-236.44C813.34,-223.57 774.12,-204.26 751.6,-193.17"/>
<polygon fill="midnightblue" stroke="midnightblue" points="837.95,-239.59 848.47,-240.87 841.05,-233.31 837.95,-239.59"/>
</g>
<!-- Node23&#45;&gt;Node2 -->
<g id="edge34" class="edge">
<title>Node23&#45;&gt;Node2</title>
<path fill="none" stroke="midnightblue" d="M551.11,-752.59C513.19,-743.34 458.62,-729.03 412,-713 362.8,-696.08 307.46,-671.79 274.19,-656.6"/>
<polygon fill="midnightblue" stroke="midnightblue" points="550.32,-756 560.86,-754.95 551.96,-749.2 550.32,-756"/>
</g>
<!-- Node23&#45;&gt;Node8 -->
<g id="edge35" class="edge">
<title>Node23&#45;&gt;Node8</title>
<path fill="none" stroke="midnightblue" d="M668.51,-761.75C723.29,-757.66 799.53,-745.85 858,-713 912.56,-682.34 952.02,-613.76 964.67,-589.61"/>
<polygon fill="midnightblue" stroke="midnightblue" points="667.94,-758.28 658.2,-762.44 668.41,-765.26 667.94,-758.28"/>
</g>
<!-- Node24 -->
<g id="node24" class="node">
<title>Node24</title>
<g id="a_node24"><a xlink:href="http__jwt_8h.html" target="_top" xlink:title=" ">
<polygon fill="white" stroke="black" points="647.5,-693.5 647.5,-712.5 752.5,-712.5 752.5,-693.5 647.5,-693.5"/>
<text text-anchor="middle" x="700" y="-700.5" font-family="Helvetica,sans-Serif" font-size="10.00">src/http/http_jwt.h</text>
</a>
</g>
</g>
<!-- Node23&#45;&gt;Node24 -->
<g id="edge36" class="edge">
<title>Node23&#45;&gt;Node24</title>
<path fill="none" stroke="midnightblue" d="M621.31,-749.9C641.04,-738.4 668.69,-722.27 685.41,-712.51"/>
<polygon fill="midnightblue" stroke="midnightblue" points="619.49,-746.91 612.61,-754.98 623.02,-752.96 619.49,-746.91"/>
</g>
<!-- Node30 -->
<g id="node30" class="node">
<title>Node30</title>
<g id="a_node30"><a xlink:href="http__rpc__context_8h.html" target="_top" xlink:title=" ">
<polygon fill="white" stroke="black" points="524.5,-632 524.5,-651 671.5,-651 671.5,-632 524.5,-632"/>
<text text-anchor="middle" x="598" y="-639" font-family="Helvetica,sans-Serif" font-size="10.00">src/http/http_rpc_context.h</text>
</a>
</g>
</g>
<!-- Node23&#45;&gt;Node30 -->
<g id="edge48" class="edge">
<title>Node23&#45;&gt;Node30</title>
<path fill="none" stroke="midnightblue" d="M598,-744.49C598,-717.85 598,-670.5 598,-651.12"/>
<polygon fill="midnightblue" stroke="midnightblue" points="594.5,-744.8 598,-754.8 601.5,-744.8 594.5,-744.8"/>
</g>
<!-- Node32 -->
<g id="node32" class="node">
<title>Node32</title>
<g id="a_node32"><a xlink:href="http__sig_8h.html" target="_top" xlink:title=" ">
<polygon fill="white" stroke="black" points="421,-693.5 421,-712.5 525,-712.5 525,-693.5 421,-693.5"/>
<text text-anchor="middle" x="473" y="-700.5" font-family="Helvetica,sans-Serif" font-size="10.00">src/http/http_sig.h</text>
</a>
</g>
</g>
<!-- Node23&#45;&gt;Node32 -->
<g id="edge54" class="edge">
<title>Node23&#45;&gt;Node32</title>
<path fill="none" stroke="midnightblue" d="M571.06,-750.67C546.8,-739.13 511.84,-722.49 490.88,-712.51"/>
<polygon fill="midnightblue" stroke="midnightblue" points="569.56,-753.84 580.09,-754.98 572.57,-747.52 569.56,-753.84"/>
</g>
<!-- Node34 -->
<g id="node34" class="node">
<title>Node34</title>
<g id="a_node34"><a xlink:href="acme__client_8h.html" target="_top" xlink:title=" ">
<polygon fill="white" stroke="black" points="732.5,-570.5 732.5,-589.5 861.5,-589.5 861.5,-570.5 732.5,-570.5"/>
<text text-anchor="middle" x="797" y="-577.5" font-family="Helvetica,sans-Serif" font-size="10.00">src/node/acme_client.h</text>
</a>
</g>
</g>
<!-- Node23&#45;&gt;Node34 -->
<g id="edge58" class="edge">
<title>Node23&#45;&gt;Node34</title>
<path fill="none" stroke="midnightblue" d="M668.42,-760.75C739.14,-753.72 844.4,-730.63 893,-657 900.59,-645.5 900.39,-637.63 893,-626 880.95,-607.05 858.59,-595.94 838.47,-589.5"/>
<polygon fill="midnightblue" stroke="midnightblue" points="667.89,-757.28 658.24,-761.67 668.52,-764.25 667.89,-757.28"/>
</g>
<!-- Node25 -->
<g id="node25" class="node">
<title>Node25</title>
<g id="a_node25"><a xlink:href="jwt__auth_8cpp.html" target="_top" xlink:title=" ">
<polygon fill="white" stroke="black" points="728.5,-626.5 728.5,-656.5 883.5,-656.5 883.5,-626.5 728.5,-626.5"/>
<text text-anchor="start" x="736.5" y="-644.5" font-family="Helvetica,sans-Serif" font-size="10.00">src/endpoints/authentication</text>
<text text-anchor="middle" x="806" y="-633.5" font-family="Helvetica,sans-Serif" font-size="10.00">/jwt_auth.cpp</text>
</a>
</g>
</g>
<!-- Node24&#45;&gt;Node25 -->
<g id="edge37" class="edge">
<title>Node24&#45;&gt;Node25</title>
<path fill="none" stroke="midnightblue" d="M723.98,-688.54C740.99,-678.99 763.78,-666.2 781.02,-656.52"/>
<polygon fill="midnightblue" stroke="midnightblue" points="722.19,-685.53 715.19,-693.48 725.62,-691.63 722.19,-685.53"/>
</g>
<!-- Node26 -->
<g id="node26" class="node">
<title>Node26</title>
<g id="a_node26"><a xlink:href="frontend_8h.html" target="_top" xlink:title=" ">
<polygon fill="white" stroke="black" points="312.5,-375 312.5,-394 441.5,-394 441.5,-375 312.5,-375"/>
<text text-anchor="middle" x="377" y="-382" font-family="Helvetica,sans-Serif" font-size="10.00">src/node/rpc/frontend.h</text>
</a>
</g>
</g>
<!-- Node24&#45;&gt;Node26 -->
<g id="edge38" class="edge">
<title>Node24&#45;&gt;Node26</title>
<path fill="none" stroke="midnightblue" d="M700,-683.44C700,-659.69 700,-617.29 700,-581 700,-581 700,-581 700,-517.5 700,-458.06 510.18,-412.18 421.57,-394"/>
<polygon fill="midnightblue" stroke="midnightblue" points="696.5,-683.49 700,-693.49 703.5,-683.49 696.5,-683.49"/>
</g>
<!-- Node26&#45;&gt;Node13 -->
<g id="edge42" class="edge">
<title>Node26&#45;&gt;Node13</title>
<path fill="none" stroke="midnightblue" d="M347.89,-370.03C333.37,-361.62 317.18,-349.27 309,-333 302.81,-320.69 301.94,-313.83 309,-302 341.08,-248.2 373.75,-255.35 433,-235 512.81,-207.59 609.8,-194.74 671.72,-188.94"/>
<polygon fill="midnightblue" stroke="midnightblue" points="346.64,-373.33 357.1,-374.99 349.96,-367.17 346.64,-373.33"/>
</g>
<!-- Node26&#45;&gt;Node18 -->
<g id="edge45" class="edge">
<title>Node26&#45;&gt;Node18</title>
<path fill="none" stroke="midnightblue" d="M382.72,-364.91C386.54,-352.49 391.39,-336.72 394.35,-327.13"/>
<polygon fill="midnightblue" stroke="midnightblue" points="379.29,-364.15 379.7,-374.73 385.98,-366.21 379.29,-364.15"/>
</g>
<!-- Node27 -->
<g id="node27" class="node">
<title>Node27</title>
<g id="a_node27"><a xlink:href="acme__challenge__frontend_8h.html" target="_top" xlink:title=" ">
<polygon fill="white" stroke="black" points="570,-302.5 570,-332.5 710,-332.5 710,-302.5 570,-302.5"/>
<text text-anchor="start" x="578" y="-320.5" font-family="Helvetica,sans-Serif" font-size="10.00">src/node/acme_challenge</text>
<text text-anchor="middle" x="640" y="-309.5" font-family="Helvetica,sans-Serif" font-size="10.00">_frontend.h</text>
</a>
</g>
</g>
<!-- Node26&#45;&gt;Node27 -->
<g id="edge39" class="edge">
<title>Node26&#45;&gt;Node27</title>
<path fill="none" stroke="midnightblue" d="M421.6,-372.48C466.12,-361.47 534.7,-344.52 583.11,-332.56"/>
<polygon fill="midnightblue" stroke="midnightblue" points="420.52,-369.14 411.65,-374.94 422.2,-375.93 420.52,-369.14"/>
</g>
<!-- Node28 -->
<g id="node28" class="node">
<title>Node28</title>
<g id="a_node28"><a xlink:href="member__frontend_8h.html" target="_top" xlink:title=" ">
<polygon fill="white" stroke="black" points="104,-168.5 104,-198.5 224,-198.5 224,-168.5 104,-168.5"/>
<text text-anchor="start" x="112" y="-186.5" font-family="Helvetica,sans-Serif" font-size="10.00">src/node/rpc/member</text>
<text text-anchor="middle" x="164" y="-175.5" font-family="Helvetica,sans-Serif" font-size="10.00">_frontend.h</text>
</a>
</g>
</g>
<!-- Node26&#45;&gt;Node28 -->
<g id="edge43" class="edge">
<title>Node26&#45;&gt;Node28</title>
<path fill="none" stroke="midnightblue" d="M317.54,-372.46C290.73,-365.01 260.18,-352.79 238,-333 195.66,-295.22 174.66,-227.65 167.23,-198.51"/>
<polygon fill="midnightblue" stroke="midnightblue" points="316.67,-375.85 327.23,-374.99 318.44,-369.07 316.67,-375.85"/>
</g>
<!-- Node29 -->
<g id="node29" class="node">
<title>Node29</title>
<g id="a_node29"><a xlink:href="user__frontend_8h.html" target="_top" xlink:title=" ">
<polygon fill="white" stroke="black" points="192.5,-112.5 192.5,-131.5 347.5,-131.5 347.5,-112.5 192.5,-112.5"/>
<text text-anchor="middle" x="270" y="-119.5" font-family="Helvetica,sans-Serif" font-size="10.00">src/node/rpc/user_frontend.h</text>
</a>
</g>
</g>
<!-- Node26&#45;&gt;Node29 -->
<g id="edge46" class="edge">
<title>Node26&#45;&gt;Node29</title>
<path fill="none" stroke="midnightblue" d="M345.83,-370.41C329.85,-362.06 311.57,-349.66 301,-333 258.35,-265.79 265.6,-162.49 268.91,-131.86"/>
<polygon fill="midnightblue" stroke="midnightblue" points="344.38,-373.59 354.9,-374.85 347.46,-367.31 344.38,-373.59"/>
</g>
<!-- Node27&#45;&gt;Node10 -->
<g id="edge40" class="edge">
<title>Node27&#45;&gt;Node10</title>
<path fill="none" stroke="midnightblue" d="M625.92,-293.69C593.21,-240.7 513.22,-111.1 491.51,-75.93"/>
<polygon fill="midnightblue" stroke="midnightblue" points="623.05,-295.7 631.28,-302.37 629,-292.02 623.05,-295.7"/>
</g>
<!-- Node27&#45;&gt;Node12 -->
<g id="edge41" class="edge">
<title>Node27&#45;&gt;Node12</title>
<path fill="none" stroke="midnightblue" d="M664.35,-295.67C678.39,-283.67 695.28,-269.22 705.83,-260.19"/>
<polygon fill="midnightblue" stroke="midnightblue" points="661.82,-293.24 656.49,-302.4 666.37,-298.56 661.82,-293.24"/>
</g>
<!-- Node28&#45;&gt;Node10 -->
<g id="edge44" class="edge">
<title>Node28&#45;&gt;Node10</title>
<path fill="none" stroke="midnightblue" d="M164.15,-157.83C165.62,-142.42 170.2,-123.4 183,-112 217.8,-81.01 346.95,-71.36 424.97,-68.36"/>
<polygon fill="midnightblue" stroke="midnightblue" points="160.63,-158.07 163.55,-168.26 167.62,-158.47 160.63,-158.07"/>
</g>
<!-- Node29&#45;&gt;Node10 -->
<g id="edge47" class="edge">
<title>Node29&#45;&gt;Node10</title>
<path fill="none" stroke="midnightblue" d="M314.16,-109.96C354.96,-99.76 414.71,-84.82 451.93,-75.52"/>
<polygon fill="midnightblue" stroke="midnightblue" points="313.08,-106.62 304.23,-112.44 314.78,-113.41 313.08,-106.62"/>
</g>
<!-- Node30&#45;&gt;Node8 -->
<g id="edge49" class="edge">
<title>Node30&#45;&gt;Node8</title>
<path fill="none" stroke="midnightblue" d="M661.41,-630.33C733.17,-618.82 848.77,-600.28 915.94,-589.51"/>
<polygon fill="midnightblue" stroke="midnightblue" points="660.47,-626.94 651.16,-631.98 661.58,-633.85 660.47,-626.94"/>
</g>
<!-- Node30&#45;&gt;Node19 -->
<g id="edge50" class="edge">
<title>Node30&#45;&gt;Node19</title>
<path fill="none" stroke="midnightblue" d="M584.45,-623.62C567.88,-601.21 542,-559.78 542,-519.5 542,-519.5 542,-519.5 542,-383.5 542,-339.23 522.47,-289.61 511.79,-265.78"/>
<polygon fill="midnightblue" stroke="midnightblue" points="581.82,-625.93 590.68,-631.74 587.37,-621.67 581.82,-625.93"/>
</g>
<!-- Node31 -->
<g id="node31" class="node">
<title>Node31</title>
<g id="a_node31"><a xlink:href="forwarder_8h.html" target="_top" xlink:title=" ">
<polygon fill="white" stroke="black" points="310,-442 310,-461 444,-461 444,-442 310,-442"/>
<text text-anchor="middle" x="377" y="-449" font-family="Helvetica,sans-Serif" font-size="10.00">src/node/rpc/forwarder.h</text>
</a>
</g>
</g>
<!-- Node30&#45;&gt;Node31 -->
<g id="edge51" class="edge">
<title>Node30&#45;&gt;Node31</title>
<path fill="none" stroke="midnightblue" d="M576.76,-626.12C562.64,-616.33 543.84,-602.86 528,-590 471.57,-544.2 408.69,-483.58 385.87,-461.24"/>
<polygon fill="midnightblue" stroke="midnightblue" points="575.07,-629.2 585.29,-631.98 579.03,-623.43 575.07,-629.2"/>
</g>
<!-- Node31&#45;&gt;Node10 -->
<g id="edge52" class="edge">
<title>Node31&#45;&gt;Node10</title>
<path fill="none" stroke="midnightblue" d="M327.65,-439.6C242.27,-419.29 76,-372.78 76,-318.5 76,-318.5 76,-318.5 76,-182.5 76,-131.34 119.87,-131.91 167,-112 251.5,-76.31 358.65,-67.88 424.75,-66.43"/>
<polygon fill="midnightblue" stroke="midnightblue" points="327.11,-443.07 337.65,-441.94 328.71,-436.25 327.11,-443.07"/>
</g>
<!-- Node31&#45;&gt;Node26 -->
<g id="edge53" class="edge">
<title>Node31&#45;&gt;Node26</title>
<path fill="none" stroke="midnightblue" d="M377,-431.54C377,-419.17 377,-403.62 377,-394.13"/>
<polygon fill="midnightblue" stroke="midnightblue" points="373.5,-431.73 377,-441.73 380.5,-431.73 373.5,-431.73"/>
</g>
<!-- Node32&#45;&gt;Node2 -->
<g id="edge55" class="edge">
<title>Node32&#45;&gt;Node2</title>
<path fill="none" stroke="midnightblue" d="M430.37,-690.92C392.02,-680.96 335.61,-666.3 294.91,-655.73"/>
<polygon fill="midnightblue" stroke="midnightblue" points="429.63,-694.35 440.19,-693.48 431.39,-687.57 429.63,-694.35"/>
</g>
<!-- Node32&#45;&gt;Node30 -->
<g id="edge57" class="edge">
<title>Node32&#45;&gt;Node30</title>
<path fill="none" stroke="midnightblue" d="M499.94,-689.17C524.2,-677.63 559.16,-660.99 580.12,-651.01"/>
<polygon fill="midnightblue" stroke="midnightblue" points="498.43,-686.02 490.91,-693.48 501.44,-692.34 498.43,-686.02"/>
</g>
<!-- Node33 -->
<g id="node33" class="node">
<title>Node33</title>
<g id="a_node33"><a xlink:href="sig__auth_8cpp.html" target="_top" xlink:title=" ">
<polygon fill="white" stroke="black" points="351.5,-626.5 351.5,-656.5 506.5,-656.5 506.5,-626.5 351.5,-626.5"/>
<text text-anchor="start" x="359.5" y="-644.5" font-family="Helvetica,sans-Serif" font-size="10.00">src/endpoints/authentication</text>
<text text-anchor="middle" x="429" y="-633.5" font-family="Helvetica,sans-Serif" font-size="10.00">/sig_auth.cpp</text>
</a>
</g>
</g>
<!-- Node32&#45;&gt;Node33 -->
<g id="edge56" class="edge">
<title>Node32&#45;&gt;Node33</title>
<path fill="none" stroke="midnightblue" d="M460.61,-685.25C453.91,-676.19 445.73,-665.12 439.37,-656.52"/>
<polygon fill="midnightblue" stroke="midnightblue" points="457.94,-687.52 466.7,-693.48 463.56,-683.35 457.94,-687.52"/>
</g>
<!-- Node34&#45;&gt;Node12 -->
<g id="edge59" class="edge">
<title>Node34&#45;&gt;Node12</title>
<path fill="none" stroke="midnightblue" d="M783.48,-562.38C766.07,-539.23 738,-495.29 738,-452.5 738,-452.5 738,-452.5 738,-383.5 738,-336.34 724.17,-280.97 718.44,-260.07"/>
<polygon fill="midnightblue" stroke="midnightblue" points="780.86,-564.71 789.77,-570.45 786.38,-560.41 780.86,-564.71"/>
</g>
<!-- Node35&#45;&gt;Node23 -->
<g id="edge61" class="edge">
<title>Node35&#45;&gt;Node23</title>
<path fill="none" stroke="midnightblue" d="M598,-806.32C598,-795.5 598,-782.4 598,-774.01"/>
<polygon fill="midnightblue" stroke="midnightblue" points="594.5,-806.48 598,-816.48 601.5,-806.48 594.5,-806.48"/>
</g>
</g>
</svg>
