<?xml version="1.0" encoding="UTF-8" standalone="no"?>
<!DOCTYPE svg PUBLIC "-//W3C//DTD SVG 1.1//EN"
 "http://www.w3.org/Graphics/SVG/1.1/DTD/svg11.dtd">
<!-- Generated by graphviz version 2.43.0 (0)
 -->
<!-- Title: include/ccf/node_startup_state.h Pages: 1 -->
<!--zoomable 676 -->
<svg id="main" version="1.1" xmlns="http://www.w3.org/2000/svg" xmlns:xlink="http://www.w3.org/1999/xlink" xml:space="preserve" onload="init(evt)">
<style type="text/css"><![CDATA[
.edge:hover path { stroke: red; }
.edge:hover polygon { stroke: red; fill: red; }
]]></style>
<script type="text/javascript"><![CDATA[
var edges = document.getElementsByTagName('g');
if (edges && edges.length) {
  for (var i=0;i<edges.length;i++) {
    if (edges[i].id.substr(0,4)=='edge') {
      edges[i].setAttribute('class','edge');
    }
  }
}
]]></script>
        <defs>
                <circle id="rim" cx="0" cy="0" r="7"/>
                <circle id="rim2" cx="0" cy="0" r="3.5"/>
                <g id="zoomPlus">
                        <use xlink:href="#rim" fill="#404040">
                                <set attributeName="fill" to="#808080" begin="zoomplus.mouseover" end="zoomplus.mouseout"/>
                        </use>
                        <path d="M-4,0h8M0,-4v8" fill="none" stroke="white" stroke-width="1.5" pointer-events="none"/>
                </g>
                <g id="zoomMin">
                        <use xlink:href="#rim" fill="#404040">
                                <set attributeName="fill" to="#808080" begin="zoomminus.mouseover" end="zoomminus.mouseout"/>
                        </use>
                        <path d="M-4,0h8" fill="none" stroke="white" stroke-width="1.5" pointer-events="none"/>
                </g>
                <g id="dirArrow">
                        <path fill="none" stroke="white" stroke-width="1.5" d="M0,-3.0v7 M-2.5,-0.5L0,-3.0L2.5,-0.5"/>
                </g>
               <g id="resetDef">
                       <use xlink:href="#rim2" fill="#404040">
                               <set attributeName="fill" to="#808080" begin="reset.mouseover" end="reset.mouseout"/>
                       </use>
               </g>
        </defs>

<script type="text/javascript">
var viewWidth = 1962;
var viewHeight = 676;
var sectionId = 'dynsection-1';
</script>
<script xlink:href="svgpan.js"/>
<svg id="graph" class="graph">
<g id="viewport">
<title>include/ccf/node_startup_state.h</title>
<polygon fill="white" stroke="transparent" points="-4,4 -4,-672 1958,-672 1958,4 -4,4"/>
<!-- Node1 -->
<g id="node1" class="node">
<title>Node1</title>
<g id="a_node1"><a xlink:title=" ">
<polygon fill="#bfbfbf" stroke="black" points="389,-637.5 389,-667.5 525,-667.5 525,-637.5 389,-637.5"/>
<text text-anchor="start" x="397" y="-655.5" font-family="Helvetica,sans-Serif" font-size="10.00">include/ccf/node_startup</text>
<text text-anchor="middle" x="457" y="-644.5" font-family="Helvetica,sans-Serif" font-size="10.00">_state.h</text>
</a>
</g>
</g>
<!-- Node2 -->
<g id="node2" class="node">
<title>Node2</title>
<g id="a_node2"><a xlink:href="node__call__types_8h.html" target="_top" xlink:title=" ">
<polygon fill="white" stroke="black" points="394.5,-570.5 394.5,-600.5 519.5,-600.5 519.5,-570.5 394.5,-570.5"/>
<text text-anchor="start" x="402.5" y="-588.5" font-family="Helvetica,sans-Serif" font-size="10.00">src/node/rpc/node_call</text>
<text text-anchor="middle" x="457" y="-577.5" font-family="Helvetica,sans-Serif" font-size="10.00">_types.h</text>
</a>
</g>
</g>
<!-- Node1&#45;&gt;Node2 -->
<g id="edge1" class="edge">
<title>Node1&#45;&gt;Node2</title>
<path fill="none" stroke="midnightblue" d="M457,-627.11C457,-618.15 457,-608.32 457,-600.58"/>
<polygon fill="midnightblue" stroke="midnightblue" points="453.5,-627.4 457,-637.4 460.5,-627.4 453.5,-627.4"/>
</g>
<!-- Node16 -->
<g id="node16" class="node">
<title>Node16</title>
<g id="a_node16"><a xlink:href="node__interface_8h.html" target="_top" xlink:title=" ">
<polygon fill="white" stroke="black" points="647.5,-514.5 647.5,-533.5 808.5,-533.5 808.5,-514.5 647.5,-514.5"/>
<text text-anchor="middle" x="728" y="-521.5" font-family="Helvetica,sans-Serif" font-size="10.00">src/node/rpc/node_interface.h</text>
</a>
</g>
</g>
<!-- Node1&#45;&gt;Node16 -->
<g id="edge24" class="edge">
<title>Node1&#45;&gt;Node16</title>
<path fill="none" stroke="midnightblue" d="M496.1,-633.25C555.41,-605.57 665.82,-554.03 709.51,-533.63"/>
<polygon fill="midnightblue" stroke="midnightblue" points="494.62,-630.08 487.04,-637.48 497.58,-636.42 494.62,-630.08"/>
</g>
<!-- Node34 -->
<g id="node34" class="node">
<title>Node34</title>
<g id="a_node34"><a xlink:href="node__operation__interface_8h.html" target="_top" xlink:title=" ">
<polygon fill="white" stroke="black" points="218.5,-570.5 218.5,-600.5 373.5,-600.5 373.5,-570.5 218.5,-570.5"/>
<text text-anchor="start" x="226.5" y="-588.5" font-family="Helvetica,sans-Serif" font-size="10.00">src/node/rpc/node_operation</text>
<text text-anchor="middle" x="296" y="-577.5" font-family="Helvetica,sans-Serif" font-size="10.00">_interface.h</text>
</a>
</g>
</g>
<!-- Node1&#45;&gt;Node34 -->
<g id="edge63" class="edge">
<title>Node1&#45;&gt;Node34</title>
<path fill="none" stroke="midnightblue" d="M412.52,-633.54C386.76,-623.14 354.8,-610.24 330.87,-600.58"/>
<polygon fill="midnightblue" stroke="midnightblue" points="411.48,-636.9 422.07,-637.4 414.1,-630.41 411.48,-636.9"/>
</g>
<!-- Node3 -->
<g id="node3" class="node">
<title>Node3</title>
<g id="a_node3"><a xlink:href="call__types_8h.html" target="_top" xlink:title=" ">
<polygon fill="white" stroke="black" points="388.5,-453 388.5,-472 525.5,-472 525.5,-453 388.5,-453"/>
<text text-anchor="middle" x="457" y="-460" font-family="Helvetica,sans-Serif" font-size="10.00">src/node/rpc/call_types.h</text>
</a>
</g>
</g>
<!-- Node2&#45;&gt;Node3 -->
<g id="edge2" class="edge">
<title>Node2&#45;&gt;Node3</title>
<path fill="none" stroke="midnightblue" d="M457,-559.84C457,-532.56 457,-490.08 457,-472.05"/>
<polygon fill="midnightblue" stroke="midnightblue" points="453.5,-560.14 457,-570.14 460.5,-560.14 453.5,-560.14"/>
</g>
<!-- Node4 -->
<g id="node4" class="node">
<title>Node4</title>
<g id="a_node4"><a xlink:href="nobuiltins_8cpp.html" target="_top" xlink:title=" ">
<polygon fill="white" stroke="black" points="28.5,-313.5 28.5,-343.5 163.5,-343.5 163.5,-313.5 28.5,-313.5"/>
<text text-anchor="start" x="36.5" y="-331.5" font-family="Helvetica,sans-Serif" font-size="10.00">samples/apps/nobuiltins</text>
<text text-anchor="middle" x="96" y="-320.5" font-family="Helvetica,sans-Serif" font-size="10.00">/nobuiltins.cpp</text>
</a>
</g>
</g>
<!-- Node3&#45;&gt;Node4 -->
<g id="edge3" class="edge">
<title>Node3&#45;&gt;Node4</title>
<path fill="none" stroke="midnightblue" d="M407.06,-450.81C355.39,-439.48 278.37,-421.78 250,-411 200.94,-392.36 147.64,-361.55 118.39,-343.63"/>
<polygon fill="midnightblue" stroke="midnightblue" points="406.52,-454.27 417.03,-452.98 408.01,-447.43 406.52,-454.27"/>
</g>
<!-- Node5 -->
<g id="node5" class="node">
<title>Node5</title>
<g id="a_node5"><a xlink:href="common__endpoint__registry_8cpp.html" target="_top" xlink:title=" ">
<polygon fill="white" stroke="black" points="182,-313.5 182,-343.5 310,-343.5 310,-313.5 182,-313.5"/>
<text text-anchor="start" x="190" y="-331.5" font-family="Helvetica,sans-Serif" font-size="10.00">src/endpoints/common</text>
<text text-anchor="middle" x="246" y="-320.5" font-family="Helvetica,sans-Serif" font-size="10.00">_endpoint_registry.cpp</text>
</a>
</g>
</g>
<!-- Node3&#45;&gt;Node5 -->
<g id="edge4" class="edge">
<title>Node3&#45;&gt;Node5</title>
<path fill="none" stroke="midnightblue" d="M408.12,-450.7C356.74,-438.94 281.97,-420.56 272,-411 253.34,-393.12 248.04,-361.89 246.55,-343.72"/>
<polygon fill="midnightblue" stroke="midnightblue" points="407.53,-454.15 418.06,-452.95 409.08,-447.32 407.53,-454.15"/>
</g>
<!-- Node6 -->
<g id="node6" class="node">
<title>Node6</title>
<g id="a_node6"><a xlink:href="wrap_8cpp.html" target="_top" xlink:title=" ">
<polygon fill="white" stroke="black" points="1383.5,-319 1383.5,-338 1472.5,-338 1472.5,-319 1383.5,-319"/>
<text text-anchor="middle" x="1428" y="-326" font-family="Helvetica,sans-Serif" font-size="10.00">src/js/wrap.cpp</text>
</a>
</g>
</g>
<!-- Node3&#45;&gt;Node6 -->
<g id="edge5" class="edge">
<title>Node3&#45;&gt;Node6</title>
<path fill="none" stroke="midnightblue" d="M531.88,-451.47C586.58,-443.19 662.2,-429.74 727,-411 762.83,-400.63 768.67,-388.49 805,-380 915.29,-354.22 1259.96,-336.91 1383.44,-331.39"/>
<polygon fill="midnightblue" stroke="midnightblue" points="531.29,-448.02 521.92,-452.96 532.33,-454.95 531.29,-448.02"/>
</g>
<!-- Node7 -->
<g id="node7" class="node">
<title>Node7</title>
<g id="a_node7"><a xlink:href="resharing_8h.html" target="_top" xlink:title=" ">
<polygon fill="white" stroke="black" points="366,-319 366,-338 482,-338 482,-319 366,-319"/>
<text text-anchor="middle" x="424" y="-326" font-family="Helvetica,sans-Serif" font-size="10.00">src/node/resharing.h</text>
</a>
</g>
</g>
<!-- Node3&#45;&gt;Node7 -->
<g id="edge6" class="edge">
<title>Node3&#45;&gt;Node7</title>
<path fill="none" stroke="midnightblue" d="M452.9,-442.92C449.19,-426.36 443.48,-401.5 438,-380 434.22,-365.19 429.37,-348.07 426.49,-338.05"/>
<polygon fill="midnightblue" stroke="midnightblue" points="449.53,-443.9 455.12,-452.91 456.36,-442.38 449.53,-443.9"/>
</g>
<!-- Node12 -->
<g id="node12" class="node">
<title>Node12</title>
<g id="a_node12"><a xlink:href="member__frontend_8h.html" target="_top" xlink:title=" ">
<polygon fill="white" stroke="black" points="500,-313.5 500,-343.5 620,-343.5 620,-313.5 500,-313.5"/>
<text text-anchor="start" x="508" y="-331.5" font-family="Helvetica,sans-Serif" font-size="10.00">src/node/rpc/member</text>
<text text-anchor="middle" x="560" y="-320.5" font-family="Helvetica,sans-Serif" font-size="10.00">_frontend.h</text>
</a>
</g>
</g>
<!-- Node3&#45;&gt;Node12 -->
<g id="edge12" class="edge">
<title>Node3&#45;&gt;Node12</title>
<path fill="none" stroke="midnightblue" d="M470.16,-444.64C490.62,-418.42 529.7,-368.33 548.85,-343.78"/>
<polygon fill="midnightblue" stroke="midnightblue" points="467.15,-442.8 463.76,-452.84 472.67,-447.11 467.15,-442.8"/>
</g>
<!-- Node13 -->
<g id="node13" class="node">
<title>Node13</title>
<g id="a_node13"><a xlink:href="serialization_8h.html" target="_top" xlink:title=" ">
<polygon fill="white" stroke="black" points="281,-386 281,-405 429,-405 429,-386 281,-386"/>
<text text-anchor="middle" x="355" y="-393" font-family="Helvetica,sans-Serif" font-size="10.00">src/node/rpc/serialization.h</text>
</a>
</g>
</g>
<!-- Node3&#45;&gt;Node13 -->
<g id="edge14" class="edge">
<title>Node3&#45;&gt;Node13</title>
<path fill="none" stroke="midnightblue" d="M434.67,-447.27C414.48,-434.4 385.41,-415.88 368.54,-405.13"/>
<polygon fill="midnightblue" stroke="midnightblue" points="432.93,-450.31 443.24,-452.73 436.69,-444.41 432.93,-450.31"/>
</g>
<!-- Node8 -->
<g id="node8" class="node">
<title>Node8</title>
<g id="a_node8"><a xlink:href="node__state_8h.html" target="_top" xlink:title=" ">
<polygon fill="white" stroke="black" points="639,-185 639,-204 763,-204 763,-185 639,-185"/>
<text text-anchor="middle" x="701" y="-192" font-family="Helvetica,sans-Serif" font-size="10.00">src/node/node_state.h</text>
</a>
</g>
</g>
<!-- Node7&#45;&gt;Node8 -->
<g id="edge7" class="edge">
<title>Node7&#45;&gt;Node8</title>
<path fill="none" stroke="midnightblue" d="M451.21,-314.53C507.6,-287.66 635.89,-226.53 683.12,-204.02"/>
<polygon fill="midnightblue" stroke="midnightblue" points="449.7,-311.38 442.17,-318.84 452.71,-317.7 449.7,-311.38"/>
</g>
<!-- Node9 -->
<g id="node9" class="node">
<title>Node9</title>
<g id="a_node9"><a xlink:href="enclave_2enclave_8h.html" target="_top" xlink:title=" ">
<polygon fill="white" stroke="black" points="959,-56.5 959,-75.5 1081,-75.5 1081,-56.5 959,-56.5"/>
<text text-anchor="middle" x="1020" y="-63.5" font-family="Helvetica,sans-Serif" font-size="10.00">src/enclave/enclave.h</text>
</a>
</g>
</g>
<!-- Node8&#45;&gt;Node9 -->
<g id="edge8" class="edge">
<title>Node8&#45;&gt;Node9</title>
<path fill="none" stroke="midnightblue" d="M719,-178.21C745.45,-155.84 792.72,-116.38 802,-112 851.79,-88.48 913.7,-77.2 958.81,-71.82"/>
<polygon fill="midnightblue" stroke="midnightblue" points="716.58,-175.66 711.21,-184.8 721.11,-181.01 716.58,-175.66"/>
</g>
<!-- Node11 -->
<g id="node11" class="node">
<title>Node11</title>
<g id="a_node11"><a xlink:href="gov__effects_8h.html" target="_top" xlink:title=" ">
<polygon fill="white" stroke="black" points="606,-118 606,-137 750,-137 750,-118 606,-118"/>
<text text-anchor="middle" x="678" y="-125" font-family="Helvetica,sans-Serif" font-size="10.00">src/node/rpc/gov_effects.h</text>
</a>
</g>
</g>
<!-- Node8&#45;&gt;Node11 -->
<g id="edge10" class="edge">
<title>Node8&#45;&gt;Node11</title>
<path fill="none" stroke="midnightblue" d="M694.56,-175.29C690.14,-162.81 684.48,-146.81 681.05,-137.13"/>
<polygon fill="midnightblue" stroke="midnightblue" points="691.26,-176.47 697.9,-184.73 697.86,-174.14 691.26,-176.47"/>
</g>
<!-- Node10 -->
<g id="node10" class="node">
<title>Node10</title>
<g id="a_node10"><a xlink:href="enclave_2main_8cpp.html" target="_top" xlink:title=" ">
<polygon fill="white" stroke="black" points="960,-0.5 960,-19.5 1080,-19.5 1080,-0.5 960,-0.5"/>
<text text-anchor="middle" x="1020" y="-7.5" font-family="Helvetica,sans-Serif" font-size="10.00">src/enclave/main.cpp</text>
</a>
</g>
</g>
<!-- Node9&#45;&gt;Node10 -->
<g id="edge9" class="edge">
<title>Node9&#45;&gt;Node10</title>
<path fill="none" stroke="midnightblue" d="M1020,-45.8C1020,-36.91 1020,-26.78 1020,-19.75"/>
<polygon fill="midnightblue" stroke="midnightblue" points="1016.5,-46.08 1020,-56.08 1023.5,-46.08 1016.5,-46.08"/>
</g>
<!-- Node11&#45;&gt;Node9 -->
<g id="edge11" class="edge">
<title>Node11&#45;&gt;Node9</title>
<path fill="none" stroke="midnightblue" d="M736.86,-116.26C803.04,-104.75 909.29,-86.26 971.09,-75.51"/>
<polygon fill="midnightblue" stroke="midnightblue" points="736.25,-112.81 727,-117.98 737.45,-119.71 736.25,-112.81"/>
</g>
<!-- Node12&#45;&gt;Node9 -->
<g id="edge13" class="edge">
<title>Node12&#45;&gt;Node9</title>
<path fill="none" stroke="midnightblue" d="M555.83,-303.29C549.62,-258.31 543.8,-161.9 597,-112 622.86,-87.75 847.87,-74.56 958.75,-69.48"/>
<polygon fill="midnightblue" stroke="midnightblue" points="552.39,-303.94 557.34,-313.31 559.31,-302.9 552.39,-303.94"/>
</g>
<!-- Node13&#45;&gt;Node4 -->
<g id="edge15" class="edge">
<title>Node13&#45;&gt;Node4</title>
<path fill="none" stroke="midnightblue" d="M311.08,-383.48C267.24,-372.47 199.7,-355.52 152.02,-343.56"/>
<polygon fill="midnightblue" stroke="midnightblue" points="310.32,-386.9 320.87,-385.94 312.03,-380.11 310.32,-386.9"/>
</g>
<!-- Node13&#45;&gt;Node5 -->
<g id="edge16" class="edge">
<title>Node13&#45;&gt;Node5</title>
<path fill="none" stroke="midnightblue" d="M331.7,-380.6C313.39,-369.69 288.01,-354.55 269.63,-343.59"/>
<polygon fill="midnightblue" stroke="midnightblue" points="329.92,-383.62 340.3,-385.73 333.5,-377.61 329.92,-383.62"/>
</g>
<!-- Node13&#45;&gt;Node7 -->
<g id="edge18" class="edge">
<title>Node13&#45;&gt;Node7</title>
<path fill="none" stroke="midnightblue" d="M371.61,-378.86C385.17,-366.08 403.84,-348.49 414.84,-338.13"/>
<polygon fill="midnightblue" stroke="midnightblue" points="369.18,-376.33 364.31,-385.73 373.98,-381.42 369.18,-376.33"/>
</g>
<!-- Node13&#45;&gt;Node8 -->
<g id="edge17" class="edge">
<title>Node13&#45;&gt;Node8</title>
<path fill="none" stroke="midnightblue" d="M350.05,-376.18C346.38,-358.36 344,-331.37 357,-313 420.88,-222.72 558.51,-200.98 638.98,-196.25"/>
<polygon fill="midnightblue" stroke="midnightblue" points="346.65,-377.01 352.37,-385.92 353.45,-375.39 346.65,-377.01"/>
</g>
<!-- Node13&#45;&gt;Node12 -->
<g id="edge19" class="edge">
<title>Node13&#45;&gt;Node12</title>
<path fill="none" stroke="midnightblue" d="M391.98,-382.77C426.74,-371.75 478.81,-355.24 515.76,-343.53"/>
<polygon fill="midnightblue" stroke="midnightblue" points="390.7,-379.51 382.22,-385.87 392.81,-386.18 390.7,-379.51"/>
</g>
<!-- Node14 -->
<g id="node14" class="node">
<title>Node14</title>
<g id="a_node14"><a xlink:href="node__frontend_8h.html" target="_top" xlink:title=" ">
<polygon fill="white" stroke="black" points="676,-319 676,-338 834,-338 834,-319 676,-319"/>
<text text-anchor="middle" x="755" y="-326" font-family="Helvetica,sans-Serif" font-size="10.00">src/node/rpc/node_frontend.h</text>
</a>
</g>
</g>
<!-- Node13&#45;&gt;Node14 -->
<g id="edge20" class="edge">
<title>Node13&#45;&gt;Node14</title>
<path fill="none" stroke="midnightblue" d="M417.94,-384.27C496.44,-371.52 629.21,-349.94 702.5,-338.03"/>
<polygon fill="midnightblue" stroke="midnightblue" points="417.01,-380.88 407.7,-385.94 418.14,-387.79 417.01,-380.88"/>
</g>
<!-- Node14&#45;&gt;Node9 -->
<g id="edge21" class="edge">
<title>Node14&#45;&gt;Node9</title>
<path fill="none" stroke="midnightblue" d="M770.35,-311.62C786.37,-295.11 812.27,-268.57 835,-246 901.6,-179.88 983.42,-101.79 1010.68,-75.86"/>
<polygon fill="midnightblue" stroke="midnightblue" points="767.78,-309.24 763.34,-318.86 772.81,-314.12 767.78,-309.24"/>
</g>
<!-- Node15 -->
<g id="node15" class="node">
<title>Node15</title>
<g id="a_node15"><a xlink:href="jwt__key__auto__refresh_8h.html" target="_top" xlink:title=" ">
<polygon fill="white" stroke="black" points="662.5,-246.5 662.5,-276.5 787.5,-276.5 787.5,-246.5 662.5,-246.5"/>
<text text-anchor="start" x="670.5" y="-264.5" font-family="Helvetica,sans-Serif" font-size="10.00">src/node/jwt_key_auto</text>
<text text-anchor="middle" x="725" y="-253.5" font-family="Helvetica,sans-Serif" font-size="10.00">_refresh.h</text>
</a>
</g>
</g>
<!-- Node14&#45;&gt;Node15 -->
<g id="edge22" class="edge">
<title>Node14&#45;&gt;Node15</title>
<path fill="none" stroke="midnightblue" d="M746.64,-309.39C741.86,-299.02 735.94,-286.2 731.5,-276.59"/>
<polygon fill="midnightblue" stroke="midnightblue" points="743.59,-311.12 750.95,-318.73 749.94,-308.19 743.59,-311.12"/>
</g>
<!-- Node15&#45;&gt;Node8 -->
<g id="edge23" class="edge">
<title>Node15&#45;&gt;Node8</title>
<path fill="none" stroke="midnightblue" d="M716.3,-236.94C712.09,-225.54 707.29,-212.55 704.21,-204.19"/>
<polygon fill="midnightblue" stroke="midnightblue" points="713.05,-238.23 719.79,-246.4 719.61,-235.8 713.05,-238.23"/>
</g>
<!-- Node16&#45;&gt;Node6 -->
<g id="edge25" class="edge">
<title>Node16&#45;&gt;Node6</title>
<path fill="none" stroke="midnightblue" d="M819.15,-521.26C1081.79,-515.29 1825.97,-491.37 1897,-411 1906.12,-400.68 1906.21,-390.25 1897,-380 1868.92,-348.74 1584.39,-335.14 1472.68,-330.98"/>
<polygon fill="midnightblue" stroke="midnightblue" points="818.81,-517.76 808.89,-521.49 818.96,-524.76 818.81,-517.76"/>
</g>
<!-- Node16&#45;&gt;Node12 -->
<g id="edge56" class="edge">
<title>Node16&#45;&gt;Node12</title>
<path fill="none" stroke="midnightblue" d="M641.33,-511.54C620.59,-504.86 600.33,-494.38 586,-478 552.23,-439.39 554.93,-372.85 558.05,-343.78"/>
<polygon fill="midnightblue" stroke="midnightblue" points="640.61,-514.98 651.19,-514.44 642.58,-508.26 640.61,-514.98"/>
</g>
<!-- Node16&#45;&gt;Node14 -->
<g id="edge60" class="edge">
<title>Node16&#45;&gt;Node14</title>
<path fill="none" stroke="midnightblue" d="M742.5,-506.4C748.55,-498.39 754.88,-488.3 758,-478 773.47,-426.91 761.96,-361.35 756.99,-338.12"/>
<polygon fill="midnightblue" stroke="midnightblue" points="739.77,-504.2 736.21,-514.18 745.22,-508.6 739.77,-504.2"/>
</g>
<!-- Node17 -->
<g id="node17" class="node">
<title>Node17</title>
<g id="a_node17"><a xlink:href="wrap_8h.html" target="_top" xlink:title=" ">
<polygon fill="white" stroke="black" points="1269,-453 1269,-472 1347,-472 1347,-453 1269,-453"/>
<text text-anchor="middle" x="1308" y="-460" font-family="Helvetica,sans-Serif" font-size="10.00">src/js/wrap.h</text>
</a>
</g>
</g>
<!-- Node16&#45;&gt;Node17 -->
<g id="edge26" class="edge">
<title>Node16&#45;&gt;Node17</title>
<path fill="none" stroke="midnightblue" d="M818.88,-513.68C947.57,-500.47 1177.44,-476.89 1268.9,-467.51"/>
<polygon fill="midnightblue" stroke="midnightblue" points="818.24,-510.22 808.65,-514.73 818.95,-517.19 818.24,-510.22"/>
</g>
<!-- Node24 -->
<g id="node24" class="node">
<title>Node24</title>
<g id="a_node24"><a xlink:href="historical__queries_8h.html" target="_top" xlink:title=" ">
<polygon fill="white" stroke="black" points="1818,-179.5 1818,-209.5 1924,-209.5 1924,-179.5 1818,-179.5"/>
<text text-anchor="start" x="1826" y="-197.5" font-family="Helvetica,sans-Serif" font-size="10.00">src/node/historical</text>
<text text-anchor="middle" x="1871" y="-186.5" font-family="Helvetica,sans-Serif" font-size="10.00">_queries.h</text>
</a>
</g>
</g>
<!-- Node16&#45;&gt;Node24 -->
<g id="edge41" class="edge">
<title>Node16&#45;&gt;Node24</title>
<path fill="none" stroke="midnightblue" d="M819.19,-523.14C1103.36,-522.38 1954,-510.57 1954,-396.5 1954,-396.5 1954,-396.5 1954,-327.5 1954,-278.23 1912.05,-232.3 1887.8,-209.86"/>
<polygon fill="midnightblue" stroke="midnightblue" points="818.91,-519.64 808.92,-523.16 818.92,-526.64 818.91,-519.64"/>
</g>
<!-- Node26 -->
<g id="node26" class="node">
<title>Node26</title>
<g id="a_node26"><a xlink:href="node__configuration__subsystem_8h.html" target="_top" xlink:title=" ">
<polygon fill="white" stroke="black" points="595,-447.5 595,-477.5 749,-477.5 749,-447.5 595,-447.5"/>
<text text-anchor="start" x="603" y="-465.5" font-family="Helvetica,sans-Serif" font-size="10.00">src/node/node_configuration</text>
<text text-anchor="middle" x="672" y="-454.5" font-family="Helvetica,sans-Serif" font-size="10.00">_subsystem.h</text>
</a>
</g>
</g>
<!-- Node16&#45;&gt;Node26 -->
<g id="edge45" class="edge">
<title>Node16&#45;&gt;Node26</title>
<path fill="none" stroke="midnightblue" d="M713.03,-507.09C704.36,-497.88 693.55,-486.39 685.2,-477.52"/>
<polygon fill="midnightblue" stroke="midnightblue" points="710.57,-509.59 719.98,-514.48 715.67,-504.79 710.57,-509.59"/>
</g>
<!-- Node31 -->
<g id="node31" class="node">
<title>Node31</title>
<g id="a_node31"><a xlink:href="network__identity__subsystem_8h.html" target="_top" xlink:title=" ">
<polygon fill="white" stroke="black" points="812.5,-447.5 812.5,-477.5 939.5,-477.5 939.5,-447.5 812.5,-447.5"/>
<text text-anchor="start" x="820.5" y="-465.5" font-family="Helvetica,sans-Serif" font-size="10.00">src/node/rpc/network</text>
<text text-anchor="middle" x="876" y="-454.5" font-family="Helvetica,sans-Serif" font-size="10.00">_identity_subsystem.h</text>
</a>
</g>
</g>
<!-- Node16&#45;&gt;Node31 -->
<g id="edge57" class="edge">
<title>Node16&#45;&gt;Node31</title>
<path fill="none" stroke="midnightblue" d="M758.55,-510.72C782.57,-501.06 816.05,-487.6 841.12,-477.52"/>
<polygon fill="midnightblue" stroke="midnightblue" points="757.18,-507.5 749.2,-514.48 759.79,-513.99 757.18,-507.5"/>
</g>
<!-- Node33 -->
<g id="node33" class="node">
<title>Node33</title>
<g id="a_node33"><a xlink:href="node__operation_8h.html" target="_top" xlink:title=" ">
<polygon fill="white" stroke="black" points="206,-453 206,-472 370,-472 370,-453 206,-453"/>
<text text-anchor="middle" x="288" y="-460" font-family="Helvetica,sans-Serif" font-size="10.00">src/node/rpc/node_operation.h</text>
</a>
</g>
</g>
<!-- Node16&#45;&gt;Node33 -->
<g id="edge61" class="edge">
<title>Node16&#45;&gt;Node33</title>
<path fill="none" stroke="midnightblue" d="M647.45,-513.23C576.86,-504.51 471.53,-491.13 380,-478 367.2,-476.16 353.41,-474.06 340.51,-472.03"/>
<polygon fill="midnightblue" stroke="midnightblue" points="647.25,-516.73 657.6,-514.48 648.11,-509.78 647.25,-516.73"/>
</g>
<!-- Node17&#45;&gt;Node6 -->
<g id="edge38" class="edge">
<title>Node17&#45;&gt;Node6</title>
<path fill="none" stroke="midnightblue" d="M1258.46,-459.1C1181.53,-453.61 1046.93,-435.91 1095,-380 1113.58,-358.38 1297.07,-340.4 1383.45,-333.05"/>
<polygon fill="midnightblue" stroke="midnightblue" points="1258.7,-462.62 1268.91,-459.8 1259.16,-455.64 1258.7,-462.62"/>
</g>
<!-- Node17&#45;&gt;Node8 -->
<g id="edge39" class="edge">
<title>Node17&#45;&gt;Node8</title>
<path fill="none" stroke="midnightblue" d="M1258.47,-455.68C1199.96,-447.93 1107.13,-432.65 1080,-411 1016.6,-360.4 1066.69,-294.94 1002,-246 965.34,-218.27 840.12,-204.93 763.21,-199.21"/>
<polygon fill="midnightblue" stroke="midnightblue" points="1258.25,-459.18 1268.62,-456.99 1259.15,-452.23 1258.25,-459.18"/>
</g>
<!-- Node17&#45;&gt;Node9 -->
<g id="edge28" class="edge">
<title>Node17&#45;&gt;Node9</title>
<path fill="none" stroke="midnightblue" d="M1357.55,-462.31C1455.75,-462.85 1670.17,-458.42 1723,-411 1750.68,-386.16 1742,-366.69 1742,-329.5 1742,-329.5 1742,-329.5 1742,-193.5 1742,-126.65 1255.58,-84.32 1081.25,-71.29"/>
<polygon fill="midnightblue" stroke="midnightblue" points="1357.32,-458.81 1347.29,-462.23 1357.26,-465.81 1357.32,-458.81"/>
</g>
<!-- Node17&#45;&gt;Node12 -->
<g id="edge40" class="edge">
<title>Node17&#45;&gt;Node12</title>
<path fill="none" stroke="midnightblue" d="M1258.69,-455.62C1201.55,-448.14 1104.86,-433.44 1024,-411 986.86,-400.69 980.37,-389.45 943,-380 823.07,-349.68 789.63,-360.31 667,-344 651.86,-341.99 635.51,-339.78 620.26,-337.72"/>
<polygon fill="midnightblue" stroke="midnightblue" points="1258.53,-459.13 1268.89,-456.93 1259.42,-452.18 1258.53,-459.13"/>
</g>
<!-- Node18 -->
<g id="node18" class="node">
<title>Node18</title>
<g id="a_node18"><a xlink:href="js__generic__base_8cpp.html" target="_top" xlink:title=" ">
<polygon fill="white" stroke="black" points="1770,-380.5 1770,-410.5 1888,-410.5 1888,-380.5 1770,-380.5"/>
<text text-anchor="start" x="1778" y="-398.5" font-family="Helvetica,sans-Serif" font-size="10.00">src/apps/js_generic</text>
<text text-anchor="middle" x="1829" y="-387.5" font-family="Helvetica,sans-Serif" font-size="10.00">/js_generic_base.cpp</text>
</a>
</g>
</g>
<!-- Node17&#45;&gt;Node18 -->
<g id="edge27" class="edge">
<title>Node17&#45;&gt;Node18</title>
<path fill="none" stroke="midnightblue" d="M1357.21,-457.31C1439.87,-449.98 1611.74,-433.42 1756,-411 1760.47,-410.31 1765.08,-409.53 1769.71,-408.71"/>
<polygon fill="midnightblue" stroke="midnightblue" points="1356.75,-453.84 1347.1,-458.2 1357.37,-460.81 1356.75,-453.84"/>
</g>
<!-- Node19 -->
<g id="node19" class="node">
<title>Node19</title>
<g id="a_node19"><a xlink:href="js_2consensus_8cpp.html" target="_top" xlink:title=" ">
<polygon fill="white" stroke="black" points="1250,-386 1250,-405 1366,-405 1366,-386 1250,-386"/>
<text text-anchor="middle" x="1308" y="-393" font-family="Helvetica,sans-Serif" font-size="10.00">src/js/consensus.cpp</text>
</a>
</g>
</g>
<!-- Node17&#45;&gt;Node19 -->
<g id="edge29" class="edge">
<title>Node17&#45;&gt;Node19</title>
<path fill="none" stroke="midnightblue" d="M1308,-442.54C1308,-430.17 1308,-414.62 1308,-405.13"/>
<polygon fill="midnightblue" stroke="midnightblue" points="1304.5,-442.73 1308,-452.73 1311.5,-442.73 1304.5,-442.73"/>
</g>
<!-- Node20 -->
<g id="node20" class="node">
<title>Node20</title>
<g id="a_node20"><a xlink:href="conv_8cpp.html" target="_top" xlink:title=" ">
<polygon fill="white" stroke="black" points="1384,-386 1384,-405 1472,-405 1472,-386 1384,-386"/>
<text text-anchor="middle" x="1428" y="-393" font-family="Helvetica,sans-Serif" font-size="10.00">src/js/conv.cpp</text>
</a>
</g>
</g>
<!-- Node17&#45;&gt;Node20 -->
<g id="edge31" class="edge">
<title>Node17&#45;&gt;Node20</title>
<path fill="none" stroke="midnightblue" d="M1333,-447.96C1356.79,-435.07 1391.87,-416.07 1412.07,-405.13"/>
<polygon fill="midnightblue" stroke="midnightblue" points="1331.31,-444.89 1324.18,-452.73 1334.64,-451.05 1331.31,-444.89"/>
</g>
<!-- Node21 -->
<g id="node21" class="node">
<title>Node21</title>
<g id="a_node21"><a xlink:href="js_2crypto_8cpp.html" target="_top" xlink:title=" ">
<polygon fill="white" stroke="black" points="1490,-386 1490,-405 1586,-405 1586,-386 1490,-386"/>
<text text-anchor="middle" x="1538" y="-393" font-family="Helvetica,sans-Serif" font-size="10.00">src/js/crypto.cpp</text>
</a>
</g>
</g>
<!-- Node17&#45;&gt;Node21 -->
<g id="edge33" class="edge">
<title>Node17&#45;&gt;Node21</title>
<path fill="none" stroke="midnightblue" d="M1348.37,-450.09C1393.87,-437.23 1466.81,-416.62 1507.7,-405.06"/>
<polygon fill="midnightblue" stroke="midnightblue" points="1347.21,-446.78 1338.54,-452.87 1349.12,-453.52 1347.21,-446.78"/>
</g>
<!-- Node22 -->
<g id="node22" class="node">
<title>Node22</title>
<g id="a_node22"><a xlink:href="js_2historical_8cpp.html" target="_top" xlink:title=" ">
<polygon fill="white" stroke="black" points="1604,-386 1604,-405 1714,-405 1714,-386 1604,-386"/>
<text text-anchor="middle" x="1659" y="-393" font-family="Helvetica,sans-Serif" font-size="10.00">src/js/historical.cpp</text>
</a>
</g>
</g>
<!-- Node17&#45;&gt;Node22 -->
<g id="edge35" class="edge">
<title>Node17&#45;&gt;Node22</title>
<path fill="none" stroke="midnightblue" d="M1357.33,-453.57C1414.61,-444.19 1511.89,-427.72 1595,-411 1604.05,-409.18 1613.78,-407.06 1622.85,-405.01"/>
<polygon fill="midnightblue" stroke="midnightblue" points="1356.41,-450.17 1347.11,-455.24 1357.54,-457.08 1356.41,-450.17"/>
</g>
<!-- Node23 -->
<g id="node23" class="node">
<title>Node23</title>
<g id="a_node23"><a xlink:href="openenclave_8cpp.html" target="_top" xlink:title=" ">
<polygon fill="white" stroke="black" points="1104,-386 1104,-405 1232,-405 1232,-386 1104,-386"/>
<text text-anchor="middle" x="1168" y="-393" font-family="Helvetica,sans-Serif" font-size="10.00">src/js/openenclave.cpp</text>
</a>
</g>
</g>
<!-- Node17&#45;&gt;Node23 -->
<g id="edge37" class="edge">
<title>Node17&#45;&gt;Node23</title>
<path fill="none" stroke="midnightblue" d="M1280.24,-448.61C1252.51,-435.74 1210.66,-416.31 1186.67,-405.17"/>
<polygon fill="midnightblue" stroke="midnightblue" points="1278.87,-451.83 1289.41,-452.87 1281.81,-445.48 1278.87,-451.83"/>
</g>
<!-- Node19&#45;&gt;Node6 -->
<g id="edge30" class="edge">
<title>Node19&#45;&gt;Node6</title>
<path fill="none" stroke="midnightblue" d="M1333,-380.96C1356.79,-368.07 1391.87,-349.07 1412.07,-338.13"/>
<polygon fill="midnightblue" stroke="midnightblue" points="1331.31,-377.89 1324.18,-385.73 1334.64,-384.05 1331.31,-377.89"/>
</g>
<!-- Node20&#45;&gt;Node6 -->
<g id="edge32" class="edge">
<title>Node20&#45;&gt;Node6</title>
<path fill="none" stroke="midnightblue" d="M1428,-375.54C1428,-363.17 1428,-347.62 1428,-338.13"/>
<polygon fill="midnightblue" stroke="midnightblue" points="1424.5,-375.73 1428,-385.73 1431.5,-375.73 1424.5,-375.73"/>
</g>
<!-- Node21&#45;&gt;Node6 -->
<g id="edge34" class="edge">
<title>Node21&#45;&gt;Node6</title>
<path fill="none" stroke="midnightblue" d="M1514.5,-380.62C1492.71,-367.74 1460.96,-348.98 1442.6,-338.13"/>
<polygon fill="midnightblue" stroke="midnightblue" points="1512.78,-383.66 1523.16,-385.73 1516.34,-377.63 1512.78,-383.66"/>
</g>
<!-- Node22&#45;&gt;Node6 -->
<g id="edge36" class="edge">
<title>Node22&#45;&gt;Node6</title>
<path fill="none" stroke="midnightblue" d="M1618.45,-383.09C1572.76,-370.23 1499.5,-349.62 1458.43,-338.06"/>
<polygon fill="midnightblue" stroke="midnightblue" points="1617.75,-386.53 1628.32,-385.87 1619.65,-379.79 1617.75,-386.53"/>
</g>
<!-- Node24&#45;&gt;Node9 -->
<g id="edge42" class="edge">
<title>Node24&#45;&gt;Node9</title>
<path fill="none" stroke="midnightblue" d="M1842.95,-173.55C1809.11,-149.5 1756.62,-112.22 1756,-112 1632.24,-68.39 1234.73,-65.77 1081.26,-66.45"/>
<polygon fill="midnightblue" stroke="midnightblue" points="1840.93,-176.41 1851.11,-179.35 1844.99,-170.71 1840.93,-176.41"/>
</g>
<!-- Node25 -->
<g id="node25" class="node">
<title>Node25</title>
<g id="a_node25"><a xlink:href="historical__transaction__fetcher_8h.html" target="_top" xlink:title=" ">
<polygon fill="white" stroke="black" points="1808.5,-112.5 1808.5,-142.5 1933.5,-142.5 1933.5,-112.5 1808.5,-112.5"/>
<text text-anchor="start" x="1816.5" y="-130.5" font-family="Helvetica,sans-Serif" font-size="10.00">src/indexing/historical</text>
<text text-anchor="middle" x="1871" y="-119.5" font-family="Helvetica,sans-Serif" font-size="10.00">_transaction_fetcher.h</text>
</a>
</g>
</g>
<!-- Node24&#45;&gt;Node25 -->
<g id="edge43" class="edge">
<title>Node24&#45;&gt;Node25</title>
<path fill="none" stroke="midnightblue" d="M1871,-169.11C1871,-160.15 1871,-150.32 1871,-142.58"/>
<polygon fill="midnightblue" stroke="midnightblue" points="1867.5,-169.4 1871,-179.4 1874.5,-169.4 1867.5,-169.4"/>
</g>
<!-- Node25&#45;&gt;Node9 -->
<g id="edge44" class="edge">
<title>Node25&#45;&gt;Node9</title>
<path fill="none" stroke="midnightblue" d="M1798.47,-112.58C1796.97,-112.37 1795.48,-112.18 1794,-112 1530.14,-79.62 1212.73,-70.42 1081.45,-67.9"/>
<polygon fill="midnightblue" stroke="midnightblue" points="1798.09,-116.06 1808.49,-114.04 1799.1,-109.13 1798.09,-116.06"/>
</g>
<!-- Node27 -->
<g id="node27" class="node">
<title>Node27</title>
<g id="a_node27"><a xlink:href="frontend_8h.html" target="_top" xlink:title=" ">
<polygon fill="white" stroke="black" points="588.5,-386 588.5,-405 717.5,-405 717.5,-386 588.5,-386"/>
<text text-anchor="middle" x="653" y="-393" font-family="Helvetica,sans-Serif" font-size="10.00">src/node/rpc/frontend.h</text>
</a>
</g>
</g>
<!-- Node26&#45;&gt;Node27 -->
<g id="edge46" class="edge">
<title>Node26&#45;&gt;Node27</title>
<path fill="none" stroke="midnightblue" d="M665.01,-437.6C661.7,-426.28 657.96,-413.46 655.54,-405.19"/>
<polygon fill="midnightblue" stroke="midnightblue" points="661.71,-438.78 667.88,-447.4 668.43,-436.82 661.71,-438.78"/>
</g>
<!-- Node27&#45;&gt;Node8 -->
<g id="edge51" class="edge">
<title>Node27&#45;&gt;Node8</title>
<path fill="none" stroke="midnightblue" d="M648.93,-375.73C643.54,-346.73 636.61,-289.79 654,-246 660.99,-228.41 677.25,-213.3 688.68,-204.3"/>
<polygon fill="midnightblue" stroke="midnightblue" points="645.53,-376.6 650.93,-385.71 652.39,-375.22 645.53,-376.6"/>
</g>
<!-- Node27&#45;&gt;Node12 -->
<g id="edge52" class="edge">
<title>Node27&#45;&gt;Node12</title>
<path fill="none" stroke="midnightblue" d="M632.04,-379.85C616.52,-369 595.49,-354.3 580.16,-343.59"/>
<polygon fill="midnightblue" stroke="midnightblue" points="630.26,-382.87 640.46,-385.73 634.27,-377.14 630.26,-382.87"/>
</g>
<!-- Node27&#45;&gt;Node14 -->
<g id="edge53" class="edge">
<title>Node27&#45;&gt;Node14</title>
<path fill="none" stroke="midnightblue" d="M675.33,-380.27C695.52,-367.4 724.59,-348.88 741.46,-338.13"/>
<polygon fill="midnightblue" stroke="midnightblue" points="673.31,-377.41 666.76,-385.73 677.07,-383.31 673.31,-377.41"/>
</g>
<!-- Node28 -->
<g id="node28" class="node">
<title>Node28</title>
<g id="a_node28"><a xlink:href="acme__challenge__frontend_8h.html" target="_top" xlink:title=" ">
<polygon fill="white" stroke="black" points="852,-313.5 852,-343.5 992,-343.5 992,-313.5 852,-313.5"/>
<text text-anchor="start" x="860" y="-331.5" font-family="Helvetica,sans-Serif" font-size="10.00">src/node/acme_challenge</text>
<text text-anchor="middle" x="922" y="-320.5" font-family="Helvetica,sans-Serif" font-size="10.00">_frontend.h</text>
</a>
</g>
</g>
<!-- Node27&#45;&gt;Node28 -->
<g id="edge47" class="edge">
<title>Node27&#45;&gt;Node28</title>
<path fill="none" stroke="midnightblue" d="M698.33,-383.55C743.86,-372.55 814.19,-355.55 863.82,-343.56"/>
<polygon fill="midnightblue" stroke="midnightblue" points="697.34,-380.18 688.44,-385.94 698.99,-386.99 697.34,-380.18"/>
</g>
<!-- Node30 -->
<g id="node30" class="node">
<title>Node30</title>
<g id="a_node30"><a xlink:href="user__frontend_8h.html" target="_top" xlink:title=" ">
<polygon fill="white" stroke="black" points="1086.5,-252 1086.5,-271 1241.5,-271 1241.5,-252 1086.5,-252"/>
<text text-anchor="middle" x="1164" y="-259" font-family="Helvetica,sans-Serif" font-size="10.00">src/node/rpc/user_frontend.h</text>
</a>
</g>
</g>
<!-- Node27&#45;&gt;Node30 -->
<g id="edge54" class="edge">
<title>Node27&#45;&gt;Node30</title>
<path fill="none" stroke="midnightblue" d="M707.21,-384.19C715.5,-382.72 723.97,-381.27 732,-380 851.13,-361.11 885.71,-379.46 1001,-344 1059.97,-325.87 1123.68,-288.07 1150.69,-271.09"/>
<polygon fill="midnightblue" stroke="midnightblue" points="706.44,-380.77 697.22,-385.99 707.69,-387.66 706.44,-380.77"/>
</g>
<!-- Node28&#45;&gt;Node9 -->
<g id="edge48" class="edge">
<title>Node28&#45;&gt;Node9</title>
<path fill="none" stroke="midnightblue" d="M967.82,-308.33C980.99,-300.56 993.95,-290.22 1002,-277 1043.08,-209.48 1027.65,-106.4 1021.83,-75.83"/>
<polygon fill="midnightblue" stroke="midnightblue" points="965.81,-305.44 958.72,-313.31 969.18,-311.58 965.81,-305.44"/>
</g>
<!-- Node29 -->
<g id="node29" class="node">
<title>Node29</title>
<g id="a_node29"><a xlink:href="ccf__acme__client_8h.html" target="_top" xlink:title=" ">
<polygon fill="white" stroke="black" points="843.5,-252 843.5,-271 992.5,-271 992.5,-252 843.5,-252"/>
<text text-anchor="middle" x="918" y="-259" font-family="Helvetica,sans-Serif" font-size="10.00">src/node/ccf_acme_client.h</text>
</a>
</g>
</g>
<!-- Node28&#45;&gt;Node29 -->
<g id="edge49" class="edge">
<title>Node28&#45;&gt;Node29</title>
<path fill="none" stroke="midnightblue" d="M920.51,-303.25C919.82,-292.02 919.04,-279.38 918.54,-271.19"/>
<polygon fill="midnightblue" stroke="midnightblue" points="917.02,-303.63 921.13,-313.4 924.01,-303.2 917.02,-303.63"/>
</g>
<!-- Node29&#45;&gt;Node8 -->
<g id="edge50" class="edge">
<title>Node29&#45;&gt;Node8</title>
<path fill="none" stroke="midnightblue" d="M879.37,-248.93C836.4,-236.06 768,-215.57 729.59,-204.06"/>
<polygon fill="midnightblue" stroke="midnightblue" points="878.6,-252.35 889.18,-251.87 880.61,-245.65 878.6,-252.35"/>
</g>
<!-- Node30&#45;&gt;Node9 -->
<g id="edge55" class="edge">
<title>Node30&#45;&gt;Node9</title>
<path fill="none" stroke="midnightblue" d="M1151.41,-243.58C1121.88,-203.9 1048.99,-105.95 1026.63,-75.91"/>
<polygon fill="midnightblue" stroke="midnightblue" points="1148.85,-246 1157.63,-251.94 1154.46,-241.82 1148.85,-246"/>
</g>
<!-- Node31&#45;&gt;Node9 -->
<g id="edge58" class="edge">
<title>Node31&#45;&gt;Node9</title>
<path fill="none" stroke="midnightblue" d="M918.71,-443.52C1012.93,-403.44 1231.79,-307.86 1251,-277 1311.15,-180.37 1117.17,-100.96 1045.52,-75.54"/>
<polygon fill="midnightblue" stroke="midnightblue" points="917.29,-440.32 909.46,-447.45 920.03,-446.76 917.29,-440.32"/>
</g>
<!-- Node32 -->
<g id="node32" class="node">
<title>Node32</title>
<g id="a_node32"><a xlink:href="historical__queries__adapter_8cpp.html" target="_top" xlink:title=" ">
<polygon fill="white" stroke="black" points="814,-380.5 814,-410.5 934,-410.5 934,-380.5 814,-380.5"/>
<text text-anchor="start" x="822" y="-398.5" font-family="Helvetica,sans-Serif" font-size="10.00">src/node/historical</text>
<text text-anchor="middle" x="874" y="-387.5" font-family="Helvetica,sans-Serif" font-size="10.00">_queries_adapter.cpp</text>
</a>
</g>
</g>
<!-- Node31&#45;&gt;Node32 -->
<g id="edge59" class="edge">
<title>Node31&#45;&gt;Node32</title>
<path fill="none" stroke="midnightblue" d="M875.25,-437.11C874.97,-428.15 874.67,-418.32 874.43,-410.58"/>
<polygon fill="midnightblue" stroke="midnightblue" points="871.76,-437.51 875.57,-447.4 878.76,-437.29 871.76,-437.51"/>
</g>
<!-- Node33&#45;&gt;Node9 -->
<g id="edge62" class="edge">
<title>Node33&#45;&gt;Node9</title>
<path fill="none" stroke="midnightblue" d="M195.73,-456.73C111.48,-446.8 0,-417.1 0,-329.5 0,-329.5 0,-329.5 0,-193.5 0,-96.31 738.81,-72.92 958.87,-68.11"/>
<polygon fill="midnightblue" stroke="midnightblue" points="195.53,-460.23 205.86,-457.84 196.3,-453.27 195.53,-460.23"/>
</g>
<!-- Node34&#45;&gt;Node12 -->
<g id="edge64" class="edge">
<title>Node34&#45;&gt;Node12</title>
<path fill="none" stroke="midnightblue" d="M264.47,-564.81C228.24,-539.48 176.31,-493.23 197,-447 253.56,-320.63 354.91,-369.47 491,-344 493.89,-343.46 496.84,-342.89 499.82,-342.31"/>
<polygon fill="midnightblue" stroke="midnightblue" points="262.59,-567.76 272.83,-570.48 266.52,-561.97 262.59,-567.76"/>
</g>
<!-- Node34&#45;&gt;Node16 -->
<g id="edge65" class="edge">
<title>Node34&#45;&gt;Node16</title>
<path fill="none" stroke="midnightblue" d="M383.7,-570.34C384.47,-570.22 385.24,-570.11 386,-570 480.36,-556.19 589.67,-542.15 658.81,-533.51"/>
<polygon fill="midnightblue" stroke="midnightblue" points="382.91,-566.92 373.54,-571.86 383.95,-573.84 382.91,-566.92"/>
</g>
<!-- Node34&#45;&gt;Node33 -->
<g id="edge66" class="edge">
<title>Node34&#45;&gt;Node33</title>
<path fill="none" stroke="midnightblue" d="M294.37,-559.84C292.57,-532.56 289.76,-490.08 288.57,-472.05"/>
<polygon fill="midnightblue" stroke="midnightblue" points="290.9,-560.4 295.05,-570.14 297.88,-559.94 290.9,-560.4"/>
</g>
</g>
</svg>
        <g id="navigator" transform="translate(0 0)" fill="#404254">
                <rect fill="#f2f5e9" fill-opacity="0.5" stroke="#606060" stroke-width=".5" x="0" y="0" width="60" height="60"/>
                <use id="zoomplus" xlink:href="#zoomPlus" x="17" y="9" onmousedown="handleZoom(evt,'in')"/>
                <use id="zoomminus" xlink:href="#zoomMin" x="42" y="9" onmousedown="handleZoom(evt,'out')"/>
                <use id="reset" xlink:href="#resetDef" x="30" y="36" onmousedown="handleReset()"/>
                <g id="arrowUp" xlink:href="#dirArrow" transform="translate(30 24)" onmousedown="handlePan(0,-1)">
                  <use xlink:href="#rim" fill="#404040">
                        <set attributeName="fill" to="#808080" begin="arrowUp.mouseover" end="arrowUp.mouseout"/>
                  </use>
                  <path fill="none" stroke="white" stroke-width="1.5" d="M0,-3.0v7 M-2.5,-0.5L0,-3.0L2.5,-0.5"/>
                </g>
                <g id="arrowRight" xlink:href="#dirArrow" transform="rotate(90) translate(36 -43)" onmousedown="handlePan(1,0)">
                  <use xlink:href="#rim" fill="#404040">
                        <set attributeName="fill" to="#808080" begin="arrowRight.mouseover" end="arrowRight.mouseout"/>
                  </use>
                  <path fill="none" stroke="white" stroke-width="1.5" d="M0,-3.0v7 M-2.5,-0.5L0,-3.0L2.5,-0.5"/>
                </g>
                <g id="arrowDown" xlink:href="#dirArrow" transform="rotate(180) translate(-30 -48)" onmousedown="handlePan(0,1)">
                  <use xlink:href="#rim" fill="#404040">
                        <set attributeName="fill" to="#808080" begin="arrowDown.mouseover" end="arrowDown.mouseout"/>
                  </use>
                  <path fill="none" stroke="white" stroke-width="1.5" d="M0,-3.0v7 M-2.5,-0.5L0,-3.0L2.5,-0.5"/>
                </g>
                <g id="arrowLeft" xlink:href="#dirArrow" transform="rotate(270) translate(-36 17)" onmousedown="handlePan(-1,0)">
                  <use xlink:href="#rim" fill="#404040">
                        <set attributeName="fill" to="#808080" begin="arrowLeft.mouseover" end="arrowLeft.mouseout"/>
                  </use>
                  <path fill="none" stroke="white" stroke-width="1.5" d="M0,-3.0v7 M-2.5,-0.5L0,-3.0L2.5,-0.5"/>
                </g>
        </g>
        <svg viewBox="0 0 15 15" width="100%" height="30px" preserveAspectRatio="xMaxYMin meet">
         <g id="arrow_out" transform="scale(0.3 0.3)">
          <a xlink:href="node__startup__state_8h__dep__incl_org.svg" target="_base">
           <rect id="button" ry="5" rx="5" y="6" x="6" height="38" width="38"
                fill="#f2f5e9" fill-opacity="0.5" stroke="#606060" stroke-width="1.0"/>
           <path id="arrow"
             d="M 11.500037,31.436501 C 11.940474,20.09759 22.043105,11.32322 32.158766,21.979434 L 37.068811,17.246167 C 37.068811,17.246167 37.088388,32 37.088388,32 L 22.160133,31.978069 C 22.160133,31.978069 26.997745,27.140456 26.997745,27.140456 C 18.528582,18.264221 13.291696,25.230495 11.500037,31.436501 z"
             style="fill:#404040;"/>
          </a>
         </g>
        </svg>
</svg>
