<?xml version="1.0" encoding="UTF-8" standalone="no"?>
<!DOCTYPE svg PUBLIC "-//W3C//DTD SVG 1.1//EN"
 "http://www.w3.org/Graphics/SVG/1.1/DTD/svg11.dtd">
<!-- Generated by graphviz version 2.43.0 (0)
 -->
<!-- Title: src/ds/pending_io.h Pages: 1 -->
<svg width="893pt" height="610pt"
 viewBox="0.00 0.00 892.50 610.00" xmlns="http://www.w3.org/2000/svg" xmlns:xlink="http://www.w3.org/1999/xlink">
<g id="graph0" class="graph" transform="scale(1 1) rotate(0) translate(4 606)">
<title>src/ds/pending_io.h</title>
<polygon fill="white" stroke="transparent" points="-4,4 -4,-606 888.5,-606 888.5,4 -4,4"/>
<!-- Node1 -->
<g id="node1" class="node">
<title>Node1</title>
<g id="a_node1"><a xlink:title=" ">
<polygon fill="#bfbfbf" stroke="black" points="200.5,-582.5 200.5,-601.5 310.5,-601.5 310.5,-582.5 200.5,-582.5"/>
<text text-anchor="middle" x="255.5" y="-589.5" font-family="Helvetica,sans-Serif" font-size="10.00">src/ds/pending_io.h</text>
</a>
</g>
</g>
<!-- Node2 -->
<g id="node2" class="node">
<title>Node2</title>
<g id="a_node2"><a xlink:href="tcp_8h.html" target="_top" xlink:title=" ">
<polygon fill="white" stroke="black" points="112.5,-526.5 112.5,-545.5 194.5,-545.5 194.5,-526.5 112.5,-526.5"/>
<text text-anchor="middle" x="153.5" y="-533.5" font-family="Helvetica,sans-Serif" font-size="10.00">src/host/tcp.h</text>
</a>
</g>
</g>
<!-- Node1&#45;&gt;Node2 -->
<g id="edge1" class="edge">
<title>Node1&#45;&gt;Node2</title>
<path fill="none" stroke="midnightblue" d="M230.17,-577.59C211.31,-567.61 186.12,-554.27 169.85,-545.65"/>
<polygon fill="midnightblue" stroke="midnightblue" points="228.64,-580.74 239.11,-582.32 231.91,-574.55 228.64,-580.74"/>
</g>
<!-- Node6 -->
<g id="node6" class="node">
<title>Node6</title>
<g id="a_node6"><a xlink:href="udp_8h.html" target="_top" xlink:title=" ">
<polygon fill="white" stroke="black" points="213,-526.5 213,-545.5 298,-545.5 298,-526.5 213,-526.5"/>
<text text-anchor="middle" x="255.5" y="-533.5" font-family="Helvetica,sans-Serif" font-size="10.00">src/host/udp.h</text>
</a>
</g>
</g>
<!-- Node1&#45;&gt;Node6 -->
<g id="edge6" class="edge">
<title>Node1&#45;&gt;Node6</title>
<path fill="none" stroke="midnightblue" d="M255.5,-571.8C255.5,-562.91 255.5,-552.78 255.5,-545.75"/>
<polygon fill="midnightblue" stroke="midnightblue" points="252,-572.08 255.5,-582.08 259,-572.08 252,-572.08"/>
</g>
<!-- Node7 -->
<g id="node7" class="node">
<title>Node7</title>
<g id="a_node7"><a xlink:href="quic__endpoint_8h.html" target="_top" xlink:title=" ">
<polygon fill="white" stroke="black" points="334.5,-526.5 334.5,-545.5 468.5,-545.5 468.5,-526.5 334.5,-526.5"/>
<text text-anchor="middle" x="401.5" y="-533.5" font-family="Helvetica,sans-Serif" font-size="10.00">src/quic/quic_endpoint.h</text>
</a>
</g>
</g>
<!-- Node1&#45;&gt;Node7 -->
<g id="edge8" class="edge">
<title>Node1&#45;&gt;Node7</title>
<path fill="none" stroke="midnightblue" d="M288.2,-578.91C315.65,-568.75 354.17,-554.51 378.47,-545.52"/>
<polygon fill="midnightblue" stroke="midnightblue" points="286.8,-575.69 278.63,-582.44 289.23,-582.26 286.8,-575.69"/>
</g>
<!-- Node3 -->
<g id="node3" class="node">
<title>Node3</title>
<g id="a_node3"><a xlink:href="node__connections_8h.html" target="_top" xlink:title=" ">
<polygon fill="white" stroke="black" points="0,-470.5 0,-489.5 155,-489.5 155,-470.5 0,-470.5"/>
<text text-anchor="middle" x="77.5" y="-477.5" font-family="Helvetica,sans-Serif" font-size="10.00">src/host/node_connections.h</text>
</a>
</g>
</g>
<!-- Node2&#45;&gt;Node3 -->
<g id="edge2" class="edge">
<title>Node2&#45;&gt;Node3</title>
<path fill="none" stroke="midnightblue" d="M132.92,-520.38C119.19,-510.62 101.57,-498.11 89.93,-489.83"/>
<polygon fill="midnightblue" stroke="midnightblue" points="131.11,-523.38 141.29,-526.32 135.16,-517.68 131.11,-523.38"/>
</g>
<!-- Node5 -->
<g id="node5" class="node">
<title>Node5</title>
<g id="a_node5"><a xlink:href="rpc__connections_8h.html" target="_top" xlink:title=" ">
<polygon fill="white" stroke="black" points="173.5,-470.5 173.5,-489.5 319.5,-489.5 319.5,-470.5 173.5,-470.5"/>
<text text-anchor="middle" x="246.5" y="-477.5" font-family="Helvetica,sans-Serif" font-size="10.00">src/host/rpc_connections.h</text>
</a>
</g>
</g>
<!-- Node2&#45;&gt;Node5 -->
<g id="edge4" class="edge">
<title>Node2&#45;&gt;Node5</title>
<path fill="none" stroke="midnightblue" d="M177.31,-521.18C194.42,-511.24 216.97,-498.15 231.6,-489.65"/>
<polygon fill="midnightblue" stroke="midnightblue" points="175.33,-518.28 168.44,-526.32 178.85,-524.33 175.33,-518.28"/>
</g>
<!-- Node4 -->
<g id="node4" class="node">
<title>Node4</title>
<g id="a_node4"><a xlink:href="host_2main_8cpp.html" target="_top" xlink:title=" ">
<polygon fill="white" stroke="black" points="67,-414.5 67,-433.5 170,-433.5 170,-414.5 67,-414.5"/>
<text text-anchor="middle" x="118.5" y="-421.5" font-family="Helvetica,sans-Serif" font-size="10.00">src/host/main.cpp</text>
</a>
</g>
</g>
<!-- Node3&#45;&gt;Node4 -->
<g id="edge3" class="edge">
<title>Node3&#45;&gt;Node4</title>
<path fill="none" stroke="midnightblue" d="M90.52,-461.86C97.62,-452.5 106.1,-441.33 111.86,-433.75"/>
<polygon fill="midnightblue" stroke="midnightblue" points="87.53,-460 84.27,-470.08 93.11,-464.24 87.53,-460"/>
</g>
<!-- Node5&#45;&gt;Node4 -->
<g id="edge5" class="edge">
<title>Node5&#45;&gt;Node4</title>
<path fill="none" stroke="midnightblue" d="M216.88,-466.5C192.88,-456.38 159.72,-442.39 138.69,-433.52"/>
<polygon fill="midnightblue" stroke="midnightblue" points="215.64,-469.78 226.22,-470.44 218.36,-463.33 215.64,-469.78"/>
</g>
<!-- Node6&#45;&gt;Node5 -->
<g id="edge7" class="edge">
<title>Node6&#45;&gt;Node5</title>
<path fill="none" stroke="midnightblue" d="M252.35,-516.1C250.86,-507.14 249.14,-496.86 247.96,-489.75"/>
<polygon fill="midnightblue" stroke="midnightblue" points="248.92,-516.79 254.01,-526.08 255.82,-515.64 248.92,-516.79"/>
</g>
<!-- Node8 -->
<g id="node8" class="node">
<title>Node8</title>
<g id="a_node8"><a xlink:href="rpc__sessions_8h.html" target="_top" xlink:title=" ">
<polygon fill="white" stroke="black" points="337.5,-470.5 337.5,-489.5 483.5,-489.5 483.5,-470.5 337.5,-470.5"/>
<text text-anchor="middle" x="410.5" y="-477.5" font-family="Helvetica,sans-Serif" font-size="10.00">src/enclave/rpc_sessions.h</text>
</a>
</g>
</g>
<!-- Node7&#45;&gt;Node8 -->
<g id="edge9" class="edge">
<title>Node7&#45;&gt;Node8</title>
<path fill="none" stroke="midnightblue" d="M404.65,-516.1C406.14,-507.14 407.86,-496.86 409.04,-489.75"/>
<polygon fill="midnightblue" stroke="midnightblue" points="401.18,-515.64 402.99,-526.08 408.08,-516.79 401.18,-515.64"/>
</g>
<!-- Node9 -->
<g id="node9" class="node">
<title>Node9</title>
<g id="a_node9"><a xlink:href="enclave_2enclave_8h.html" target="_top" xlink:title=" ">
<polygon fill="white" stroke="black" points="635.5,-56.5 635.5,-75.5 757.5,-75.5 757.5,-56.5 635.5,-56.5"/>
<text text-anchor="middle" x="696.5" y="-63.5" font-family="Helvetica,sans-Serif" font-size="10.00">src/enclave/enclave.h</text>
</a>
</g>
</g>
<!-- Node8&#45;&gt;Node9 -->
<g id="edge10" class="edge">
<title>Node8&#45;&gt;Node9</title>
<path fill="none" stroke="midnightblue" d="M493.91,-475.69C629.92,-467.98 884.5,-442.95 884.5,-363.5 884.5,-363.5 884.5,-363.5 884.5,-177 884.5,-115.27 808.05,-87.54 752.65,-75.54"/>
<polygon fill="midnightblue" stroke="midnightblue" points="493.32,-472.21 483.52,-476.25 493.7,-479.2 493.32,-472.21"/>
</g>
<!-- Node11 -->
<g id="node11" class="node">
<title>Node11</title>
<g id="a_node11"><a xlink:href="ccf__acme__client_8h.html" target="_top" xlink:title=" ">
<polygon fill="white" stroke="black" points="304,-230 304,-249 453,-249 453,-230 304,-230"/>
<text text-anchor="middle" x="378.5" y="-237" font-family="Helvetica,sans-Serif" font-size="10.00">src/node/ccf_acme_client.h</text>
</a>
</g>
</g>
<!-- Node8&#45;&gt;Node11 -->
<g id="edge12" class="edge">
<title>Node8&#45;&gt;Node11</title>
<path fill="none" stroke="midnightblue" d="M409.53,-460C407.58,-425.92 402.41,-352.25 391.5,-291 388.86,-276.2 384.18,-259.36 381.21,-249.35"/>
<polygon fill="midnightblue" stroke="midnightblue" points="406.05,-460.52 410.09,-470.32 413.04,-460.14 406.05,-460.52"/>
</g>
<!-- Node12 -->
<g id="node12" class="node">
<title>Node12</title>
<g id="a_node12"><a xlink:href="node__state_8h.html" target="_top" xlink:title=" ">
<polygon fill="white" stroke="black" points="467.5,-168.5 467.5,-187.5 591.5,-187.5 591.5,-168.5 467.5,-168.5"/>
<text text-anchor="middle" x="529.5" y="-175.5" font-family="Helvetica,sans-Serif" font-size="10.00">src/node/node_state.h</text>
</a>
</g>
</g>
<!-- Node8&#45;&gt;Node12 -->
<g id="edge30" class="edge">
<title>Node8&#45;&gt;Node12</title>
<path fill="none" stroke="midnightblue" d="M359.45,-467.72C308.74,-453.15 238.5,-422.34 238.5,-363.5 238.5,-363.5 238.5,-363.5 238.5,-300 238.5,-201.65 381.97,-181.76 467.43,-178.63"/>
<polygon fill="midnightblue" stroke="midnightblue" points="358.73,-471.15 369.3,-470.42 360.58,-464.4 358.73,-471.15"/>
</g>
<!-- Node14 -->
<g id="node14" class="node">
<title>Node14</title>
<g id="a_node14"><a xlink:href="node__client_8h.html" target="_top" xlink:title=" ">
<polygon fill="white" stroke="black" points="548.5,-414.5 548.5,-433.5 674.5,-433.5 674.5,-414.5 548.5,-414.5"/>
<text text-anchor="middle" x="611.5" y="-421.5" font-family="Helvetica,sans-Serif" font-size="10.00">src/node/node_client.h</text>
</a>
</g>
</g>
<!-- Node8&#45;&gt;Node14 -->
<g id="edge17" class="edge">
<title>Node8&#45;&gt;Node14</title>
<path fill="none" stroke="midnightblue" d="M452.08,-467.83C490.03,-457.63 545.31,-442.78 579.8,-433.52"/>
<polygon fill="midnightblue" stroke="midnightblue" points="451.1,-464.47 442.35,-470.44 452.91,-471.23 451.1,-464.47"/>
</g>
<!-- Node21 -->
<g id="node21" class="node">
<title>Node21</title>
<g id="a_node21"><a xlink:href="resharing_8h.html" target="_top" xlink:title=" ">
<polygon fill="white" stroke="black" points="266.5,-291.5 266.5,-310.5 382.5,-310.5 382.5,-291.5 266.5,-291.5"/>
<text text-anchor="middle" x="324.5" y="-298.5" font-family="Helvetica,sans-Serif" font-size="10.00">src/node/resharing.h</text>
</a>
</g>
</g>
<!-- Node8&#45;&gt;Node21 -->
<g id="edge31" class="edge">
<title>Node8&#45;&gt;Node21</title>
<path fill="none" stroke="midnightblue" d="M401.91,-461.32C383.8,-424.05 342.28,-338.6 328.81,-310.87"/>
<polygon fill="midnightblue" stroke="midnightblue" points="398.83,-463 406.35,-470.46 405.13,-459.94 398.83,-463"/>
</g>
<!-- Node10 -->
<g id="node10" class="node">
<title>Node10</title>
<g id="a_node10"><a xlink:href="enclave_2main_8cpp.html" target="_top" xlink:title=" ">
<polygon fill="white" stroke="black" points="636.5,-0.5 636.5,-19.5 756.5,-19.5 756.5,-0.5 636.5,-0.5"/>
<text text-anchor="middle" x="696.5" y="-7.5" font-family="Helvetica,sans-Serif" font-size="10.00">src/enclave/main.cpp</text>
</a>
</g>
</g>
<!-- Node9&#45;&gt;Node10 -->
<g id="edge11" class="edge">
<title>Node9&#45;&gt;Node10</title>
<path fill="none" stroke="midnightblue" d="M696.5,-45.8C696.5,-36.91 696.5,-26.78 696.5,-19.75"/>
<polygon fill="midnightblue" stroke="midnightblue" points="693,-46.08 696.5,-56.08 700,-46.08 693,-46.08"/>
</g>
<!-- Node11&#45;&gt;Node12 -->
<g id="edge13" class="edge">
<title>Node11&#45;&gt;Node12</title>
<path fill="none" stroke="midnightblue" d="M409.51,-226.28C438.85,-214.72 482.13,-197.66 507.91,-187.51"/>
<polygon fill="midnightblue" stroke="midnightblue" points="408.16,-223.05 400.13,-229.98 410.72,-229.57 408.16,-223.05"/>
</g>
<!-- Node12&#45;&gt;Node9 -->
<g id="edge14" class="edge">
<title>Node12&#45;&gt;Node9</title>
<path fill="none" stroke="midnightblue" d="M535.5,-158.62C541.12,-144.09 550.87,-124.27 565.5,-112 588.07,-93.07 619.04,-81.95 645.19,-75.5"/>
<polygon fill="midnightblue" stroke="midnightblue" points="532.19,-157.49 532.13,-168.09 538.78,-159.84 532.19,-157.49"/>
</g>
<!-- Node13 -->
<g id="node13" class="node">
<title>Node13</title>
<g id="a_node13"><a xlink:href="gov__effects_8h.html" target="_top" xlink:title=" ">
<polygon fill="white" stroke="black" points="574.5,-112.5 574.5,-131.5 718.5,-131.5 718.5,-112.5 574.5,-112.5"/>
<text text-anchor="middle" x="646.5" y="-119.5" font-family="Helvetica,sans-Serif" font-size="10.00">src/node/rpc/gov_effects.h</text>
</a>
</g>
</g>
<!-- Node12&#45;&gt;Node13 -->
<g id="edge15" class="edge">
<title>Node12&#45;&gt;Node13</title>
<path fill="none" stroke="midnightblue" d="M557.16,-164.23C579.05,-154.13 609,-140.31 628.05,-131.52"/>
<polygon fill="midnightblue" stroke="midnightblue" points="555.65,-161.08 548.04,-168.44 558.59,-167.43 555.65,-161.08"/>
</g>
<!-- Node13&#45;&gt;Node9 -->
<g id="edge16" class="edge">
<title>Node13&#45;&gt;Node9</title>
<path fill="none" stroke="midnightblue" d="M661.58,-104.72C670.39,-95.2 681.17,-83.56 688.4,-75.75"/>
<polygon fill="midnightblue" stroke="midnightblue" points="658.98,-102.37 654.76,-112.08 664.12,-107.12 658.98,-102.37"/>
</g>
<!-- Node15 -->
<g id="node15" class="node">
<title>Node15</title>
<g id="a_node15"><a xlink:href="orc__requests_8h.html" target="_top" xlink:title=" ">
<polygon fill="white" stroke="black" points="552,-347.5 552,-377.5 671,-377.5 671,-347.5 552,-347.5"/>
<text text-anchor="start" x="560" y="-365.5" font-family="Helvetica,sans-Serif" font-size="10.00">src/consensus/aft/orc</text>
<text text-anchor="middle" x="611.5" y="-354.5" font-family="Helvetica,sans-Serif" font-size="10.00">_requests.h</text>
</a>
</g>
</g>
<!-- Node14&#45;&gt;Node15 -->
<g id="edge18" class="edge">
<title>Node14&#45;&gt;Node15</title>
<path fill="none" stroke="midnightblue" d="M611.5,-404.23C611.5,-395.59 611.5,-385.5 611.5,-377.52"/>
<polygon fill="midnightblue" stroke="midnightblue" points="608,-404.48 611.5,-414.48 615,-404.48 608,-404.48"/>
</g>
<!-- Node16 -->
<g id="node16" class="node">
<title>Node16</title>
<g id="a_node16"><a xlink:href="raft_8h.html" target="_top" xlink:title=" ">
<polygon fill="white" stroke="black" points="727,-291.5 727,-310.5 856,-310.5 856,-291.5 727,-291.5"/>
<text text-anchor="middle" x="791.5" y="-298.5" font-family="Helvetica,sans-Serif" font-size="10.00">src/consensus/aft/raft.h</text>
</a>
</g>
</g>
<!-- Node14&#45;&gt;Node16 -->
<g id="edge25" class="edge">
<title>Node14&#45;&gt;Node16</title>
<path fill="none" stroke="midnightblue" d="M684.73,-417.4C739.81,-411.49 808.73,-399.87 826.5,-378 843.72,-356.8 816.77,-325.75 801.24,-310.75"/>
<polygon fill="midnightblue" stroke="midnightblue" points="684.21,-413.94 674.62,-418.44 684.93,-420.9 684.21,-413.94"/>
</g>
<!-- Node19 -->
<g id="node19" class="node">
<title>Node19</title>
<g id="a_node19"><a xlink:href="http__node__client_8h.html" target="_top" xlink:title=" ">
<polygon fill="white" stroke="black" points="471.5,-224.5 471.5,-254.5 581.5,-254.5 581.5,-224.5 471.5,-224.5"/>
<text text-anchor="start" x="479.5" y="-242.5" font-family="Helvetica,sans-Serif" font-size="10.00">src/node/http_node</text>
<text text-anchor="middle" x="526.5" y="-231.5" font-family="Helvetica,sans-Serif" font-size="10.00">_client.h</text>
</a>
</g>
</g>
<!-- Node14&#45;&gt;Node19 -->
<g id="edge26" class="edge">
<title>Node14&#45;&gt;Node19</title>
<path fill="none" stroke="midnightblue" d="M580.56,-409.91C566.97,-402.54 552.16,-391.98 543.5,-378 519.18,-338.74 521.78,-281.03 524.6,-254.62"/>
<polygon fill="midnightblue" stroke="midnightblue" points="579.17,-413.13 589.68,-414.5 582.32,-406.88 579.17,-413.13"/>
</g>
<!-- Node20 -->
<g id="node20" class="node">
<title>Node20</title>
<g id="a_node20"><a xlink:href="retired__nodes__cleanup_8h.html" target="_top" xlink:title=" ">
<polygon fill="white" stroke="black" points="689.5,-347.5 689.5,-377.5 817.5,-377.5 817.5,-347.5 689.5,-347.5"/>
<text text-anchor="start" x="697.5" y="-365.5" font-family="Helvetica,sans-Serif" font-size="10.00">src/node/retired_nodes</text>
<text text-anchor="middle" x="753.5" y="-354.5" font-family="Helvetica,sans-Serif" font-size="10.00">_cleanup.h</text>
</a>
</g>
</g>
<!-- Node14&#45;&gt;Node20 -->
<g id="edge28" class="edge">
<title>Node14&#45;&gt;Node20</title>
<path fill="none" stroke="midnightblue" d="M641.12,-410.59C664.14,-400.94 696.09,-387.56 720.03,-377.52"/>
<polygon fill="midnightblue" stroke="midnightblue" points="639.72,-407.38 631.85,-414.48 642.42,-413.84 639.72,-407.38"/>
</g>
<!-- Node15&#45;&gt;Node16 -->
<g id="edge19" class="edge">
<title>Node15&#45;&gt;Node16</title>
<path fill="none" stroke="midnightblue" d="M663.78,-344.22C697.2,-333.17 739.08,-319.33 765.57,-310.57"/>
<polygon fill="midnightblue" stroke="midnightblue" points="662.55,-340.94 654.16,-347.4 664.75,-347.58 662.55,-340.94"/>
</g>
<!-- Node17 -->
<g id="node17" class="node">
<title>Node17</title>
<g id="a_node17"><a xlink:href="node__frontend_8h.html" target="_top" xlink:title=" ">
<polygon fill="white" stroke="black" points="550.5,-291.5 550.5,-310.5 708.5,-310.5 708.5,-291.5 550.5,-291.5"/>
<text text-anchor="middle" x="629.5" y="-298.5" font-family="Helvetica,sans-Serif" font-size="10.00">src/node/rpc/node_frontend.h</text>
</a>
</g>
</g>
<!-- Node15&#45;&gt;Node17 -->
<g id="edge21" class="edge">
<title>Node15&#45;&gt;Node17</title>
<path fill="none" stroke="midnightblue" d="M618.73,-337.59C621.61,-328.08 624.74,-317.73 626.88,-310.66"/>
<polygon fill="midnightblue" stroke="midnightblue" points="615.31,-336.81 615.77,-347.4 622.01,-338.84 615.31,-336.81"/>
</g>
<!-- Node16&#45;&gt;Node12 -->
<g id="edge20" class="edge">
<title>Node16&#45;&gt;Node12</title>
<path fill="none" stroke="midnightblue" d="M782.92,-282.14C773.51,-264.56 756.76,-238.32 734.5,-224 691.75,-196.5 634.72,-185.61 591.66,-181.39"/>
<polygon fill="midnightblue" stroke="midnightblue" points="779.94,-284.01 787.59,-291.34 786.18,-280.84 779.94,-284.01"/>
</g>
<!-- Node17&#45;&gt;Node9 -->
<g id="edge22" class="edge">
<title>Node17&#45;&gt;Node9</title>
<path fill="none" stroke="midnightblue" d="M688.19,-288.17C706.11,-281.51 723.86,-271.14 734.5,-255 746.82,-236.32 761.89,-211.48 727.5,-112 722.6,-97.83 711.94,-84.01 704.5,-75.51"/>
<polygon fill="midnightblue" stroke="midnightblue" points="686.64,-285 678.27,-291.5 688.87,-291.63 686.64,-285"/>
</g>
<!-- Node18 -->
<g id="node18" class="node">
<title>Node18</title>
<g id="a_node18"><a xlink:href="jwt__key__auto__refresh_8h.html" target="_top" xlink:title=" ">
<polygon fill="white" stroke="black" points="600,-224.5 600,-254.5 725,-254.5 725,-224.5 600,-224.5"/>
<text text-anchor="start" x="608" y="-242.5" font-family="Helvetica,sans-Serif" font-size="10.00">src/node/jwt_key_auto</text>
<text text-anchor="middle" x="662.5" y="-231.5" font-family="Helvetica,sans-Serif" font-size="10.00">_refresh.h</text>
</a>
</g>
</g>
<!-- Node17&#45;&gt;Node18 -->
<g id="edge23" class="edge">
<title>Node17&#45;&gt;Node18</title>
<path fill="none" stroke="midnightblue" d="M639.11,-282.68C644.07,-273.73 650.05,-262.94 654.72,-254.52"/>
<polygon fill="midnightblue" stroke="midnightblue" points="636.02,-281.03 634.23,-291.48 642.14,-284.43 636.02,-281.03"/>
</g>
<!-- Node18&#45;&gt;Node12 -->
<g id="edge24" class="edge">
<title>Node18&#45;&gt;Node12</title>
<path fill="none" stroke="midnightblue" d="M621.66,-220.23C597.44,-209.39 567.86,-196.16 548.85,-187.66"/>
<polygon fill="midnightblue" stroke="midnightblue" points="620.42,-223.51 630.98,-224.4 623.28,-217.12 620.42,-223.51"/>
</g>
<!-- Node19&#45;&gt;Node12 -->
<g id="edge27" class="edge">
<title>Node19&#45;&gt;Node12</title>
<path fill="none" stroke="midnightblue" d="M527.72,-214.29C528.2,-204.86 528.71,-194.65 529.06,-187.66"/>
<polygon fill="midnightblue" stroke="midnightblue" points="524.22,-214.24 527.21,-224.4 531.21,-214.59 524.22,-214.24"/>
</g>
<!-- Node20&#45;&gt;Node16 -->
<g id="edge29" class="edge">
<title>Node20&#45;&gt;Node16</title>
<path fill="none" stroke="midnightblue" d="M768,-338.8C774.28,-328.96 781.26,-318.03 785.97,-310.66"/>
<polygon fill="midnightblue" stroke="midnightblue" points="764.94,-337.09 762.51,-347.4 770.84,-340.86 764.94,-337.09"/>
</g>
<!-- Node21&#45;&gt;Node12 -->
<g id="edge32" class="edge">
<title>Node21&#45;&gt;Node12</title>
<path fill="none" stroke="midnightblue" d="M309.28,-283.33C296.05,-266.78 281.1,-241.43 295.5,-224 316.91,-198.09 405.42,-186.94 467.22,-182.25"/>
<polygon fill="midnightblue" stroke="midnightblue" points="306.73,-285.74 315.87,-291.09 312.06,-281.21 306.73,-285.74"/>
</g>
</g>
</svg>
