<?xml version="1.0" encoding="UTF-8" standalone="no"?>
<!DOCTYPE svg PUBLIC "-//W3C//DTD SVG 1.1//EN"
 "http://www.w3.org/Graphics/SVG/1.1/DTD/svg11.dtd">
<!-- Generated by graphviz version 2.43.0 (0)
 -->
<!-- Title: src/enclave/rpc_map.h Pages: 1 -->
<!--zoomable 632 -->
<svg id="main" version="1.1" xmlns="http://www.w3.org/2000/svg" xmlns:xlink="http://www.w3.org/1999/xlink" xml:space="preserve" onload="init(evt)">
<style type="text/css"><![CDATA[
.edge:hover path { stroke: red; }
.edge:hover polygon { stroke: red; fill: red; }
]]></style>
<script type="text/javascript"><![CDATA[
var edges = document.getElementsByTagName('g');
if (edges && edges.length) {
  for (var i=0;i<edges.length;i++) {
    if (edges[i].id.substr(0,4)=='edge') {
      edges[i].setAttribute('class','edge');
    }
  }
}
]]></script>
        <defs>
                <circle id="rim" cx="0" cy="0" r="7"/>
                <circle id="rim2" cx="0" cy="0" r="3.5"/>
                <g id="zoomPlus">
                        <use xlink:href="#rim" fill="#404040">
                                <set attributeName="fill" to="#808080" begin="zoomplus.mouseover" end="zoomplus.mouseout"/>
                        </use>
                        <path d="M-4,0h8M0,-4v8" fill="none" stroke="white" stroke-width="1.5" pointer-events="none"/>
                </g>
                <g id="zoomMin">
                        <use xlink:href="#rim" fill="#404040">
                                <set attributeName="fill" to="#808080" begin="zoomminus.mouseover" end="zoomminus.mouseout"/>
                        </use>
                        <path d="M-4,0h8" fill="none" stroke="white" stroke-width="1.5" pointer-events="none"/>
                </g>
                <g id="dirArrow">
                        <path fill="none" stroke="white" stroke-width="1.5" d="M0,-3.0v7 M-2.5,-0.5L0,-3.0L2.5,-0.5"/>
                </g>
               <g id="resetDef">
                       <use xlink:href="#rim2" fill="#404040">
                               <set attributeName="fill" to="#808080" begin="reset.mouseover" end="reset.mouseout"/>
                       </use>
               </g>
        </defs>

<script type="text/javascript">
var viewWidth = 1039;
var viewHeight = 632;
var sectionId = 'dynsection-1';
</script>
<script xlink:href="svgpan.js"/>
<svg id="graph" class="graph">
<g id="viewport">
<title>src/enclave/rpc_map.h</title>
<polygon fill="white" stroke="transparent" points="-4,4 -4,-628 1035.44,-628 1035.44,4 -4,4"/>
<!-- Node1 -->
<g id="node1" class="node">
<title>Node1</title>
<g id="a_node1"><a xlink:title=" ">
<polygon fill="#bfbfbf" stroke="black" points="237,-604.5 237,-623.5 363,-623.5 363,-604.5 237,-604.5"/>
<text text-anchor="middle" x="300" y="-611.5" font-family="Helvetica,sans-Serif" font-size="10.00">src/enclave/rpc_map.h</text>
</a>
</g>
</g>
<!-- Node2 -->
<g id="node2" class="node">
<title>Node2</title>
<g id="a_node2"><a xlink:href="enclave_2enclave_8h.html" target="_top" xlink:title=" ">
<polygon fill="white" stroke="black" points="497,-56.5 497,-75.5 619,-75.5 619,-56.5 497,-56.5"/>
<text text-anchor="middle" x="558" y="-63.5" font-family="Helvetica,sans-Serif" font-size="10.00">src/enclave/enclave.h</text>
</a>
</g>
</g>
<!-- Node1&#45;&gt;Node2 -->
<g id="edge1" class="edge">
<title>Node1&#45;&gt;Node2</title>
<path fill="none" stroke="midnightblue" d="M235.4,-602.7C147.23,-586.78 0,-552.74 0,-503 0,-503 0,-503 0,-182.5 0,-135.44 35.86,-130.81 79,-112 152.5,-79.95 385.19,-70.66 496.94,-68.02"/>
<polygon fill="midnightblue" stroke="midnightblue" points="234.87,-606.16 245.32,-604.46 236.09,-599.26 234.87,-606.16"/>
</g>
<!-- Node4 -->
<g id="node4" class="node">
<title>Node4</title>
<g id="a_node4"><a xlink:href="http__endpoint_8h.html" target="_top" xlink:title=" ">
<polygon fill="white" stroke="black" points="233.5,-548.5 233.5,-567.5 366.5,-567.5 366.5,-548.5 233.5,-548.5"/>
<text text-anchor="middle" x="300" y="-555.5" font-family="Helvetica,sans-Serif" font-size="10.00">src/http/http_endpoint.h</text>
</a>
</g>
</g>
<!-- Node1&#45;&gt;Node4 -->
<g id="edge3" class="edge">
<title>Node1&#45;&gt;Node4</title>
<path fill="none" stroke="midnightblue" d="M300,-593.8C300,-584.91 300,-574.78 300,-567.75"/>
<polygon fill="midnightblue" stroke="midnightblue" points="296.5,-594.08 300,-604.08 303.5,-594.08 296.5,-594.08"/>
</g>
<!-- Node17 -->
<g id="node17" class="node">
<title>Node17</title>
<g id="a_node17"><a xlink:href="forwarder_8h.html" target="_top" xlink:title=" ">
<polygon fill="white" stroke="black" points="753,-436.5 753,-455.5 887,-455.5 887,-436.5 753,-436.5"/>
<text text-anchor="middle" x="820" y="-443.5" font-family="Helvetica,sans-Serif" font-size="10.00">src/node/rpc/forwarder.h</text>
</a>
</g>
</g>
<!-- Node1&#45;&gt;Node17 -->
<g id="edge27" class="edge">
<title>Node1&#45;&gt;Node17</title>
<path fill="none" stroke="midnightblue" d="M336.42,-601.37C435.27,-569.82 706.97,-483.08 793.3,-455.52"/>
<polygon fill="midnightblue" stroke="midnightblue" points="335.32,-598.05 326.86,-604.42 337.45,-604.72 335.32,-598.05"/>
</g>
<!-- Node3 -->
<g id="node3" class="node">
<title>Node3</title>
<g id="a_node3"><a xlink:href="enclave_2main_8cpp.html" target="_top" xlink:title=" ">
<polygon fill="white" stroke="black" points="498,-0.5 498,-19.5 618,-19.5 618,-0.5 498,-0.5"/>
<text text-anchor="middle" x="558" y="-7.5" font-family="Helvetica,sans-Serif" font-size="10.00">src/enclave/main.cpp</text>
</a>
</g>
</g>
<!-- Node2&#45;&gt;Node3 -->
<g id="edge2" class="edge">
<title>Node2&#45;&gt;Node3</title>
<path fill="none" stroke="midnightblue" d="M558,-45.8C558,-36.91 558,-26.78 558,-19.75"/>
<polygon fill="midnightblue" stroke="midnightblue" points="554.5,-46.08 558,-56.08 561.5,-46.08 554.5,-46.08"/>
</g>
<!-- Node5 -->
<g id="node5" class="node">
<title>Node5</title>
<g id="a_node5"><a xlink:href="rpc__sessions_8h.html" target="_top" xlink:title=" ">
<polygon fill="white" stroke="black" points="227,-492.5 227,-511.5 373,-511.5 373,-492.5 227,-492.5"/>
<text text-anchor="middle" x="300" y="-499.5" font-family="Helvetica,sans-Serif" font-size="10.00">src/enclave/rpc_sessions.h</text>
</a>
</g>
</g>
<!-- Node4&#45;&gt;Node5 -->
<g id="edge4" class="edge">
<title>Node4&#45;&gt;Node5</title>
<path fill="none" stroke="midnightblue" d="M300,-537.8C300,-528.91 300,-518.78 300,-511.75"/>
<polygon fill="midnightblue" stroke="midnightblue" points="296.5,-538.08 300,-548.08 303.5,-538.08 296.5,-538.08"/>
</g>
<!-- Node5&#45;&gt;Node2 -->
<g id="edge5" class="edge">
<title>Node5&#45;&gt;Node2</title>
<path fill="none" stroke="midnightblue" d="M216.5,-497.95C139.81,-490.14 38,-464.83 38,-385.5 38,-385.5 38,-385.5 38,-182.5 38,-89.44 359.36,-71.32 496.82,-67.82"/>
<polygon fill="midnightblue" stroke="midnightblue" points="216.39,-501.45 226.67,-498.9 217.04,-494.48 216.39,-501.45"/>
</g>
<!-- Node6 -->
<g id="node6" class="node">
<title>Node6</title>
<g id="a_node6"><a xlink:href="ccf__acme__client_8h.html" target="_top" xlink:title=" ">
<polygon fill="white" stroke="black" points="585.5,-241 585.5,-260 734.5,-260 734.5,-241 585.5,-241"/>
<text text-anchor="middle" x="660" y="-248" font-family="Helvetica,sans-Serif" font-size="10.00">src/node/ccf_acme_client.h</text>
</a>
</g>
</g>
<!-- Node5&#45;&gt;Node6 -->
<g id="edge6" class="edge">
<title>Node5&#45;&gt;Node6</title>
<path fill="none" stroke="midnightblue" d="M383.32,-493.8C445.41,-487.02 523.8,-475.01 550,-456 621.13,-404.39 650.88,-292.38 658.15,-260.27"/>
<polygon fill="midnightblue" stroke="midnightblue" points="382.69,-490.35 373.12,-494.89 383.43,-497.31 382.69,-490.35"/>
</g>
<!-- Node7 -->
<g id="node7" class="node">
<title>Node7</title>
<g id="a_node7"><a xlink:href="node__state_8h.html" target="_top" xlink:title=" ">
<polygon fill="white" stroke="black" points="367,-174 367,-193 491,-193 491,-174 367,-174"/>
<text text-anchor="middle" x="429" y="-181" font-family="Helvetica,sans-Serif" font-size="10.00">src/node/node_state.h</text>
</a>
</g>
</g>
<!-- Node5&#45;&gt;Node7 -->
<g id="edge24" class="edge">
<title>Node5&#45;&gt;Node7</title>
<path fill="none" stroke="midnightblue" d="M349.42,-489.67C396.24,-476.29 464.9,-449.34 503,-400 547.82,-341.95 542.21,-295.66 501,-235 487.87,-215.68 464.72,-201.41 448.21,-193.06"/>
<polygon fill="midnightblue" stroke="midnightblue" points="348.2,-486.37 339.49,-492.4 350.06,-493.12 348.2,-486.37"/>
</g>
<!-- Node9 -->
<g id="node9" class="node">
<title>Node9</title>
<g id="a_node9"><a xlink:href="node__client_8h.html" target="_top" xlink:title=" ">
<polygon fill="white" stroke="black" points="237,-436.5 237,-455.5 363,-455.5 363,-436.5 237,-436.5"/>
<text text-anchor="middle" x="300" y="-443.5" font-family="Helvetica,sans-Serif" font-size="10.00">src/node/node_client.h</text>
</a>
</g>
</g>
<!-- Node5&#45;&gt;Node9 -->
<g id="edge11" class="edge">
<title>Node5&#45;&gt;Node9</title>
<path fill="none" stroke="midnightblue" d="M300,-481.8C300,-472.91 300,-462.78 300,-455.75"/>
<polygon fill="midnightblue" stroke="midnightblue" points="296.5,-482.08 300,-492.08 303.5,-482.08 296.5,-482.08"/>
</g>
<!-- Node16 -->
<g id="node16" class="node">
<title>Node16</title>
<g id="a_node16"><a xlink:href="resharing_8h.html" target="_top" xlink:title=" ">
<polygon fill="white" stroke="black" points="66,-241 66,-260 182,-260 182,-241 66,-241"/>
<text text-anchor="middle" x="124" y="-248" font-family="Helvetica,sans-Serif" font-size="10.00">src/node/resharing.h</text>
</a>
</g>
</g>
<!-- Node5&#45;&gt;Node16 -->
<g id="edge25" class="edge">
<title>Node5&#45;&gt;Node16</title>
<path fill="none" stroke="midnightblue" d="M273.47,-487.41C244.04,-470.89 197.48,-440.15 173,-400 143.6,-351.79 129.63,-283.89 125.42,-260.12"/>
<polygon fill="midnightblue" stroke="midnightblue" points="271.92,-490.55 282.37,-492.27 275.27,-484.41 271.92,-490.55"/>
</g>
<!-- Node6&#45;&gt;Node7 -->
<g id="edge7" class="edge">
<title>Node6&#45;&gt;Node7</title>
<path fill="none" stroke="midnightblue" d="M619.45,-238.09C573.76,-225.23 500.5,-204.62 459.43,-193.06"/>
<polygon fill="midnightblue" stroke="midnightblue" points="618.75,-241.53 629.32,-240.87 620.65,-234.79 618.75,-241.53"/>
</g>
<!-- Node7&#45;&gt;Node2 -->
<g id="edge8" class="edge">
<title>Node7&#45;&gt;Node2</title>
<path fill="none" stroke="midnightblue" d="M451.77,-168.54C466.48,-159.05 485.66,-145.76 501,-132 521.33,-113.76 541.56,-88.6 551.56,-75.58"/>
<polygon fill="midnightblue" stroke="midnightblue" points="449.84,-165.62 443.27,-173.93 453.59,-171.53 449.84,-165.62"/>
</g>
<!-- Node8 -->
<g id="node8" class="node">
<title>Node8</title>
<g id="a_node8"><a xlink:href="gov__effects_8h.html" target="_top" xlink:title=" ">
<polygon fill="white" stroke="black" points="348,-112.5 348,-131.5 492,-131.5 492,-112.5 348,-112.5"/>
<text text-anchor="middle" x="420" y="-119.5" font-family="Helvetica,sans-Serif" font-size="10.00">src/node/rpc/gov_effects.h</text>
</a>
</g>
</g>
<!-- Node7&#45;&gt;Node8 -->
<g id="edge9" class="edge">
<title>Node7&#45;&gt;Node8</title>
<path fill="none" stroke="midnightblue" d="M426.17,-163.82C424.54,-153 422.56,-139.9 421.29,-131.51"/>
<polygon fill="midnightblue" stroke="midnightblue" points="422.75,-164.61 427.71,-173.98 429.68,-163.56 422.75,-164.61"/>
</g>
<!-- Node8&#45;&gt;Node2 -->
<g id="edge10" class="edge">
<title>Node8&#45;&gt;Node2</title>
<path fill="none" stroke="midnightblue" d="M451.25,-108.77C477.17,-98.63 513.36,-84.47 536.24,-75.52"/>
<polygon fill="midnightblue" stroke="midnightblue" points="449.9,-105.54 441.87,-112.44 452.45,-112.06 449.9,-105.54"/>
</g>
<!-- Node10 -->
<g id="node10" class="node">
<title>Node10</title>
<g id="a_node10"><a xlink:href="orc__requests_8h.html" target="_top" xlink:title=" ">
<polygon fill="white" stroke="black" points="374.5,-369.5 374.5,-399.5 493.5,-399.5 493.5,-369.5 374.5,-369.5"/>
<text text-anchor="start" x="382.5" y="-387.5" font-family="Helvetica,sans-Serif" font-size="10.00">src/consensus/aft/orc</text>
<text text-anchor="middle" x="434" y="-376.5" font-family="Helvetica,sans-Serif" font-size="10.00">_requests.h</text>
</a>
</g>
</g>
<!-- Node9&#45;&gt;Node10 -->
<g id="edge12" class="edge">
<title>Node9&#45;&gt;Node10</title>
<path fill="none" stroke="midnightblue" d="M328.53,-432.33C350.21,-422.7 380.02,-409.47 402.42,-399.52"/>
<polygon fill="midnightblue" stroke="midnightblue" points="326.92,-429.22 319.2,-436.48 329.76,-435.62 326.92,-429.22"/>
</g>
<!-- Node11 -->
<g id="node11" class="node">
<title>Node11</title>
<g id="a_node11"><a xlink:href="raft_8h.html" target="_top" xlink:title=" ">
<polygon fill="white" stroke="black" points="202.5,-308 202.5,-327 331.5,-327 331.5,-308 202.5,-308"/>
<text text-anchor="middle" x="267" y="-315" font-family="Helvetica,sans-Serif" font-size="10.00">src/consensus/aft/raft.h</text>
</a>
</g>
</g>
<!-- Node9&#45;&gt;Node11 -->
<g id="edge19" class="edge">
<title>Node9&#45;&gt;Node11</title>
<path fill="none" stroke="midnightblue" d="M313.47,-428.18C324.25,-412.54 336.19,-388.74 327,-369 318.15,-349.99 298.24,-335.58 283.77,-327.11"/>
<polygon fill="midnightblue" stroke="midnightblue" points="310.55,-426.24 307.42,-436.36 316.18,-430.4 310.55,-426.24"/>
</g>
<!-- Node14 -->
<g id="node14" class="node">
<title>Node14</title>
<g id="a_node14"><a xlink:href="http__node__client_8h.html" target="_top" xlink:title=" ">
<polygon fill="white" stroke="black" points="200,-235.5 200,-265.5 310,-265.5 310,-235.5 200,-235.5"/>
<text text-anchor="start" x="208" y="-253.5" font-family="Helvetica,sans-Serif" font-size="10.00">src/node/http_node</text>
<text text-anchor="middle" x="255" y="-242.5" font-family="Helvetica,sans-Serif" font-size="10.00">_client.h</text>
</a>
</g>
</g>
<!-- Node9&#45;&gt;Node14 -->
<g id="edge20" class="edge">
<title>Node9&#45;&gt;Node14</title>
<path fill="none" stroke="midnightblue" d="M228.67,-433.27C210.13,-426.64 192.23,-416.25 181,-400 168.61,-382.07 184.22,-316.91 193,-302 201.88,-286.93 217.03,-274.46 230.14,-265.68"/>
<polygon fill="midnightblue" stroke="midnightblue" points="227.8,-436.67 238.4,-436.42 229.96,-430.01 227.8,-436.67"/>
</g>
<!-- Node15 -->
<g id="node15" class="node">
<title>Node15</title>
<g id="a_node15"><a xlink:href="retired__nodes__cleanup_8h.html" target="_top" xlink:title=" ">
<polygon fill="white" stroke="black" points="190,-369.5 190,-399.5 318,-399.5 318,-369.5 190,-369.5"/>
<text text-anchor="start" x="198" y="-387.5" font-family="Helvetica,sans-Serif" font-size="10.00">src/node/retired_nodes</text>
<text text-anchor="middle" x="254" y="-376.5" font-family="Helvetica,sans-Serif" font-size="10.00">_cleanup.h</text>
</a>
</g>
</g>
<!-- Node9&#45;&gt;Node15 -->
<g id="edge22" class="edge">
<title>Node9&#45;&gt;Node15</title>
<path fill="none" stroke="midnightblue" d="M287.27,-428.53C280.22,-419.42 271.56,-408.21 264.84,-399.52"/>
<polygon fill="midnightblue" stroke="midnightblue" points="284.52,-430.7 293.41,-436.48 290.06,-426.42 284.52,-430.7"/>
</g>
<!-- Node10&#45;&gt;Node11 -->
<g id="edge13" class="edge">
<title>Node10&#45;&gt;Node11</title>
<path fill="none" stroke="midnightblue" d="M388.07,-365.62C355.74,-353.04 313.93,-336.77 288.86,-327.01"/>
<polygon fill="midnightblue" stroke="midnightblue" points="387.17,-369.03 397.76,-369.4 389.71,-362.51 387.17,-369.03"/>
</g>
<!-- Node12 -->
<g id="node12" class="node">
<title>Node12</title>
<g id="a_node12"><a xlink:href="node__frontend_8h.html" target="_top" xlink:title=" ">
<polygon fill="white" stroke="black" points="350,-308 350,-327 508,-327 508,-308 350,-308"/>
<text text-anchor="middle" x="429" y="-315" font-family="Helvetica,sans-Serif" font-size="10.00">src/node/rpc/node_frontend.h</text>
</a>
</g>
</g>
<!-- Node10&#45;&gt;Node12 -->
<g id="edge15" class="edge">
<title>Node10&#45;&gt;Node12</title>
<path fill="none" stroke="midnightblue" d="M432.13,-359.25C431.27,-348.02 430.3,-335.38 429.67,-327.19"/>
<polygon fill="midnightblue" stroke="midnightblue" points="428.66,-359.69 432.92,-369.4 435.64,-359.16 428.66,-359.69"/>
</g>
<!-- Node11&#45;&gt;Node7 -->
<g id="edge14" class="edge">
<title>Node11&#45;&gt;Node7</title>
<path fill="none" stroke="midnightblue" d="M283.32,-300.87C301.16,-284.02 330.85,-256.7 358,-235 377.61,-219.32 401.64,-202.74 416.12,-193.02"/>
<polygon fill="midnightblue" stroke="midnightblue" points="280.84,-298.39 276,-307.82 285.66,-303.47 280.84,-298.39"/>
</g>
<!-- Node12&#45;&gt;Node2 -->
<g id="edge16" class="edge">
<title>Node12&#45;&gt;Node2</title>
<path fill="none" stroke="midnightblue" d="M456.66,-303.09C471.79,-294.45 489.7,-281.86 501,-266 545.83,-203.07 555.57,-105.48 557.53,-75.84"/>
<polygon fill="midnightblue" stroke="midnightblue" points="454.81,-300.12 447.68,-307.96 458.14,-306.27 454.81,-300.12"/>
</g>
<!-- Node13 -->
<g id="node13" class="node">
<title>Node13</title>
<g id="a_node13"><a xlink:href="jwt__key__auto__refresh_8h.html" target="_top" xlink:title=" ">
<polygon fill="white" stroke="black" points="366.5,-235.5 366.5,-265.5 491.5,-265.5 491.5,-235.5 366.5,-235.5"/>
<text text-anchor="start" x="374.5" y="-253.5" font-family="Helvetica,sans-Serif" font-size="10.00">src/node/jwt_key_auto</text>
<text text-anchor="middle" x="429" y="-242.5" font-family="Helvetica,sans-Serif" font-size="10.00">_refresh.h</text>
</a>
</g>
</g>
<!-- Node12&#45;&gt;Node13 -->
<g id="edge17" class="edge">
<title>Node12&#45;&gt;Node13</title>
<path fill="none" stroke="midnightblue" d="M429,-297.41C429,-287.22 429,-274.9 429,-265.59"/>
<polygon fill="midnightblue" stroke="midnightblue" points="425.5,-297.73 429,-307.73 432.5,-297.73 425.5,-297.73"/>
</g>
<!-- Node13&#45;&gt;Node7 -->
<g id="edge18" class="edge">
<title>Node13&#45;&gt;Node7</title>
<path fill="none" stroke="midnightblue" d="M429,-225.25C429,-214.02 429,-201.38 429,-193.19"/>
<polygon fill="midnightblue" stroke="midnightblue" points="425.5,-225.4 429,-235.4 432.5,-225.4 425.5,-225.4"/>
</g>
<!-- Node14&#45;&gt;Node7 -->
<g id="edge21" class="edge">
<title>Node14&#45;&gt;Node7</title>
<path fill="none" stroke="midnightblue" d="M302.42,-231.78C336.16,-219.18 379.99,-202.81 406.23,-193.01"/>
<polygon fill="midnightblue" stroke="midnightblue" points="300.9,-228.62 292.76,-235.4 303.35,-235.18 300.9,-228.62"/>
</g>
<!-- Node15&#45;&gt;Node11 -->
<g id="edge23" class="edge">
<title>Node15&#45;&gt;Node11</title>
<path fill="none" stroke="midnightblue" d="M258.85,-359.25C261.1,-348.02 263.62,-335.38 265.26,-327.19"/>
<polygon fill="midnightblue" stroke="midnightblue" points="255.35,-358.9 256.82,-369.4 262.21,-360.28 255.35,-358.9"/>
</g>
<!-- Node16&#45;&gt;Node7 -->
<g id="edge26" class="edge">
<title>Node16&#45;&gt;Node7</title>
<path fill="none" stroke="midnightblue" d="M173.27,-238.81C179.24,-237.52 185.26,-236.23 191,-235 260.39,-220.13 341.2,-203.03 388.56,-193.03"/>
<polygon fill="midnightblue" stroke="midnightblue" points="172.35,-235.43 163.32,-240.96 173.83,-242.27 172.35,-235.43"/>
</g>
<!-- Node17&#45;&gt;Node2 -->
<g id="edge28" class="edge">
<title>Node17&#45;&gt;Node2</title>
<path fill="none" stroke="midnightblue" d="M884.17,-434.24C945.92,-419.79 1030,-387.44 1030,-318.5 1030,-318.5 1030,-318.5 1030,-182.5 1030,-150.05 1035.75,-132.99 1011,-112 981.73,-87.18 736.06,-74.12 619.25,-69.26"/>
<polygon fill="midnightblue" stroke="midnightblue" points="883.08,-430.9 874.08,-436.49 884.6,-437.73 883.08,-430.9"/>
</g>
<!-- Node18 -->
<g id="node18" class="node">
<title>Node18</title>
<g id="a_node18"><a xlink:href="frontend_8h.html" target="_top" xlink:title=" ">
<polygon fill="white" stroke="black" points="755.5,-375 755.5,-394 884.5,-394 884.5,-375 755.5,-375"/>
<text text-anchor="middle" x="820" y="-382" font-family="Helvetica,sans-Serif" font-size="10.00">src/node/rpc/frontend.h</text>
</a>
</g>
</g>
<!-- Node17&#45;&gt;Node18 -->
<g id="edge29" class="edge">
<title>Node17&#45;&gt;Node18</title>
<path fill="none" stroke="midnightblue" d="M820,-426.32C820,-415.5 820,-402.4 820,-394.01"/>
<polygon fill="midnightblue" stroke="midnightblue" points="816.5,-426.48 820,-436.48 823.5,-426.48 816.5,-426.48"/>
</g>
<!-- Node18&#45;&gt;Node7 -->
<g id="edge33" class="edge">
<title>Node18&#45;&gt;Node7</title>
<path fill="none" stroke="midnightblue" d="M785.24,-370.64C768.69,-362.54 750.48,-350.31 741,-333 720.07,-294.78 772.27,-268.16 744,-235 712.16,-197.64 573.4,-187.81 491.05,-185.29"/>
<polygon fill="midnightblue" stroke="midnightblue" points="784.16,-373.99 794.72,-374.93 787.05,-367.61 784.16,-373.99"/>
</g>
<!-- Node18&#45;&gt;Node12 -->
<g id="edge36" class="edge">
<title>Node18&#45;&gt;Node12</title>
<path fill="none" stroke="midnightblue" d="M758.48,-373.27C681.75,-360.52 551.96,-338.94 480.32,-327.03"/>
<polygon fill="midnightblue" stroke="midnightblue" points="758.04,-376.75 768.48,-374.94 759.19,-369.84 758.04,-376.75"/>
</g>
<!-- Node19 -->
<g id="node19" class="node">
<title>Node19</title>
<g id="a_node19"><a xlink:href="acme__challenge__frontend_8h.html" target="_top" xlink:title=" ">
<polygon fill="white" stroke="black" points="750,-302.5 750,-332.5 890,-332.5 890,-302.5 750,-302.5"/>
<text text-anchor="start" x="758" y="-320.5" font-family="Helvetica,sans-Serif" font-size="10.00">src/node/acme_challenge</text>
<text text-anchor="middle" x="820" y="-309.5" font-family="Helvetica,sans-Serif" font-size="10.00">_frontend.h</text>
</a>
</g>
</g>
<!-- Node18&#45;&gt;Node19 -->
<g id="edge30" class="edge">
<title>Node18&#45;&gt;Node19</title>
<path fill="none" stroke="midnightblue" d="M820,-364.41C820,-354.22 820,-341.9 820,-332.59"/>
<polygon fill="midnightblue" stroke="midnightblue" points="816.5,-364.73 820,-374.73 823.5,-364.73 816.5,-364.73"/>
</g>
<!-- Node20 -->
<g id="node20" class="node">
<title>Node20</title>
<g id="a_node20"><a xlink:href="member__frontend_8h.html" target="_top" xlink:title=" ">
<polygon fill="white" stroke="black" points="808,-168.5 808,-198.5 928,-198.5 928,-168.5 808,-168.5"/>
<text text-anchor="start" x="816" y="-186.5" font-family="Helvetica,sans-Serif" font-size="10.00">src/node/rpc/member</text>
<text text-anchor="middle" x="868" y="-175.5" font-family="Helvetica,sans-Serif" font-size="10.00">_frontend.h</text>
</a>
</g>
</g>
<!-- Node18&#45;&gt;Node20 -->
<g id="edge34" class="edge">
<title>Node18&#45;&gt;Node20</title>
<path fill="none" stroke="midnightblue" d="M854.76,-370.64C871.31,-362.54 889.52,-350.31 899,-333 923.54,-288.19 893.08,-226.01 876.89,-198.53"/>
<polygon fill="midnightblue" stroke="midnightblue" points="852.95,-367.61 845.28,-374.93 855.84,-373.99 852.95,-367.61"/>
</g>
<!-- Node21 -->
<g id="node21" class="node">
<title>Node21</title>
<g id="a_node21"><a xlink:href="user__frontend_8h.html" target="_top" xlink:title=" ">
<polygon fill="white" stroke="black" points="846.5,-112.5 846.5,-131.5 1001.5,-131.5 1001.5,-112.5 846.5,-112.5"/>
<text text-anchor="middle" x="924" y="-119.5" font-family="Helvetica,sans-Serif" font-size="10.00">src/node/rpc/user_frontend.h</text>
</a>
</g>
</g>
<!-- Node18&#45;&gt;Node21 -->
<g id="edge37" class="edge">
<title>Node18&#45;&gt;Node21</title>
<path fill="none" stroke="midnightblue" d="M862.11,-371.48C881.83,-363.69 903.83,-351.46 917,-333 959.89,-272.86 947.35,-241.14 937,-168 935.18,-155.12 930.55,-140.76 927.34,-131.8"/>
<polygon fill="midnightblue" stroke="midnightblue" points="860.84,-368.22 852.66,-374.96 863.26,-374.79 860.84,-368.22"/>
</g>
<!-- Node19&#45;&gt;Node2 -->
<g id="edge31" class="edge">
<title>Node19&#45;&gt;Node2</title>
<path fill="none" stroke="midnightblue" d="M806.07,-293.66C795.14,-276.61 778.98,-253.22 762,-235 697.56,-165.86 604.73,-99.21 570.93,-75.81"/>
<polygon fill="midnightblue" stroke="midnightblue" points="803.29,-295.8 811.58,-302.4 809.21,-292.07 803.29,-295.8"/>
</g>
<!-- Node19&#45;&gt;Node6 -->
<g id="edge32" class="edge">
<title>Node19&#45;&gt;Node6</title>
<path fill="none" stroke="midnightblue" d="M775.99,-298.62C745.02,-286.04 704.96,-269.77 680.94,-260.01"/>
<polygon fill="midnightblue" stroke="midnightblue" points="774.7,-301.87 785.28,-302.4 777.34,-295.39 774.7,-301.87"/>
</g>
<!-- Node20&#45;&gt;Node2 -->
<g id="edge35" class="edge">
<title>Node20&#45;&gt;Node2</title>
<path fill="none" stroke="midnightblue" d="M850.93,-160.5C837.27,-144.5 816.71,-123.67 794,-112 739.1,-83.78 668.8,-73.15 619.25,-69.2"/>
<polygon fill="midnightblue" stroke="midnightblue" points="848.34,-162.87 857.41,-168.36 853.74,-158.42 848.34,-162.87"/>
</g>
<!-- Node21&#45;&gt;Node2 -->
<g id="edge38" class="edge">
<title>Node21&#45;&gt;Node2</title>
<path fill="none" stroke="midnightblue" d="M856.08,-110.98C786.95,-100.78 680.93,-85.14 615.72,-75.52"/>
<polygon fill="midnightblue" stroke="midnightblue" points="855.6,-114.45 866.01,-112.44 856.62,-107.52 855.6,-114.45"/>
</g>
</g>
</svg>
        <g id="navigator" transform="translate(0 0)" fill="#404254">
                <rect fill="#f2f5e9" fill-opacity="0.5" stroke="#606060" stroke-width=".5" x="0" y="0" width="60" height="60"/>
                <use id="zoomplus" xlink:href="#zoomPlus" x="17" y="9" onmousedown="handleZoom(evt,'in')"/>
                <use id="zoomminus" xlink:href="#zoomMin" x="42" y="9" onmousedown="handleZoom(evt,'out')"/>
                <use id="reset" xlink:href="#resetDef" x="30" y="36" onmousedown="handleReset()"/>
                <g id="arrowUp" xlink:href="#dirArrow" transform="translate(30 24)" onmousedown="handlePan(0,-1)">
                  <use xlink:href="#rim" fill="#404040">
                        <set attributeName="fill" to="#808080" begin="arrowUp.mouseover" end="arrowUp.mouseout"/>
                  </use>
                  <path fill="none" stroke="white" stroke-width="1.5" d="M0,-3.0v7 M-2.5,-0.5L0,-3.0L2.5,-0.5"/>
                </g>
                <g id="arrowRight" xlink:href="#dirArrow" transform="rotate(90) translate(36 -43)" onmousedown="handlePan(1,0)">
                  <use xlink:href="#rim" fill="#404040">
                        <set attributeName="fill" to="#808080" begin="arrowRight.mouseover" end="arrowRight.mouseout"/>
                  </use>
                  <path fill="none" stroke="white" stroke-width="1.5" d="M0,-3.0v7 M-2.5,-0.5L0,-3.0L2.5,-0.5"/>
                </g>
                <g id="arrowDown" xlink:href="#dirArrow" transform="rotate(180) translate(-30 -48)" onmousedown="handlePan(0,1)">
                  <use xlink:href="#rim" fill="#404040">
                        <set attributeName="fill" to="#808080" begin="arrowDown.mouseover" end="arrowDown.mouseout"/>
                  </use>
                  <path fill="none" stroke="white" stroke-width="1.5" d="M0,-3.0v7 M-2.5,-0.5L0,-3.0L2.5,-0.5"/>
                </g>
                <g id="arrowLeft" xlink:href="#dirArrow" transform="rotate(270) translate(-36 17)" onmousedown="handlePan(-1,0)">
                  <use xlink:href="#rim" fill="#404040">
                        <set attributeName="fill" to="#808080" begin="arrowLeft.mouseover" end="arrowLeft.mouseout"/>
                  </use>
                  <path fill="none" stroke="white" stroke-width="1.5" d="M0,-3.0v7 M-2.5,-0.5L0,-3.0L2.5,-0.5"/>
                </g>
        </g>
        <svg viewBox="0 0 15 15" width="100%" height="30px" preserveAspectRatio="xMaxYMin meet">
         <g id="arrow_out" transform="scale(0.3 0.3)">
          <a xlink:href="rpc__map_8h__dep__incl_org.svg" target="_base">
           <rect id="button" ry="5" rx="5" y="6" x="6" height="38" width="38"
                fill="#f2f5e9" fill-opacity="0.5" stroke="#606060" stroke-width="1.0"/>
           <path id="arrow"
             d="M 11.500037,31.436501 C 11.940474,20.09759 22.043105,11.32322 32.158766,21.979434 L 37.068811,17.246167 C 37.068811,17.246167 37.088388,32 37.088388,32 L 22.160133,31.978069 C 22.160133,31.978069 26.997745,27.140456 26.997745,27.140456 C 18.528582,18.264221 13.291696,25.230495 11.500037,31.436501 z"
             style="fill:#404040;"/>
          </a>
         </g>
        </svg>
</svg>
