<?xml version="1.0" encoding="UTF-8" standalone="no"?>
<!DOCTYPE svg PUBLIC "-//W3C//DTD SVG 1.1//EN"
 "http://www.w3.org/Graphics/SVG/1.1/DTD/svg11.dtd">
<!-- Generated by graphviz version 2.43.0 (0)
 -->
<!-- Title: include/ccf/service/tables/service.h Pages: 1 -->
<!--zoomable 598 -->
<svg id="main" version="1.1" xmlns="http://www.w3.org/2000/svg" xmlns:xlink="http://www.w3.org/1999/xlink" xml:space="preserve" onload="init(evt)">
<style type="text/css"><![CDATA[
.edge:hover path { stroke: red; }
.edge:hover polygon { stroke: red; fill: red; }
]]></style>
<script type="text/javascript"><![CDATA[
var edges = document.getElementsByTagName('g');
if (edges && edges.length) {
  for (var i=0;i<edges.length;i++) {
    if (edges[i].id.substr(0,4)=='edge') {
      edges[i].setAttribute('class','edge');
    }
  }
}
]]></script>
        <defs>
                <circle id="rim" cx="0" cy="0" r="7"/>
                <circle id="rim2" cx="0" cy="0" r="3.5"/>
                <g id="zoomPlus">
                        <use xlink:href="#rim" fill="#404040">
                                <set attributeName="fill" to="#808080" begin="zoomplus.mouseover" end="zoomplus.mouseout"/>
                        </use>
                        <path d="M-4,0h8M0,-4v8" fill="none" stroke="white" stroke-width="1.5" pointer-events="none"/>
                </g>
                <g id="zoomMin">
                        <use xlink:href="#rim" fill="#404040">
                                <set attributeName="fill" to="#808080" begin="zoomminus.mouseover" end="zoomminus.mouseout"/>
                        </use>
                        <path d="M-4,0h8" fill="none" stroke="white" stroke-width="1.5" pointer-events="none"/>
                </g>
                <g id="dirArrow">
                        <path fill="none" stroke="white" stroke-width="1.5" d="M0,-3.0v7 M-2.5,-0.5L0,-3.0L2.5,-0.5"/>
                </g>
               <g id="resetDef">
                       <use xlink:href="#rim2" fill="#404040">
                               <set attributeName="fill" to="#808080" begin="reset.mouseover" end="reset.mouseout"/>
                       </use>
               </g>
        </defs>

<script type="text/javascript">
var viewWidth = 2592;
var viewHeight = 598;
var sectionId = 'dynsection-1';
</script>
<script xlink:href="svgpan.js"/>
<svg id="graph" class="graph">
<g id="viewport">
<title>include/ccf/service/tables/service.h</title>
<polygon fill="white" stroke="transparent" points="-4,4 -4,-594 2588,-594 2588,4 -4,4"/>
<!-- Node1 -->
<g id="node1" class="node">
<title>Node1</title>
<g id="a_node1"><a xlink:title=" ">
<polygon fill="#bfbfbf" stroke="black" points="1508.5,-559.5 1508.5,-589.5 1615.5,-589.5 1615.5,-559.5 1508.5,-559.5"/>
<text text-anchor="start" x="1516.5" y="-577.5" font-family="Helvetica,sans-Serif" font-size="10.00">include/ccf/service</text>
<text text-anchor="middle" x="1562" y="-566.5" font-family="Helvetica,sans-Serif" font-size="10.00">/tables/service.h</text>
</a>
</g>
</g>
<!-- Node2 -->
<g id="node2" class="node">
<title>Node2</title>
<g id="a_node2"><a xlink:href="historical__queries__adapter_8cpp.html" target="_top" xlink:title=" ">
<polygon fill="white" stroke="black" points="1376,-492.5 1376,-522.5 1496,-522.5 1496,-492.5 1376,-492.5"/>
<text text-anchor="start" x="1384" y="-510.5" font-family="Helvetica,sans-Serif" font-size="10.00">src/node/historical</text>
<text text-anchor="middle" x="1436" y="-499.5" font-family="Helvetica,sans-Serif" font-size="10.00">_queries_adapter.cpp</text>
</a>
</g>
</g>
<!-- Node1&#45;&gt;Node2 -->
<g id="edge1" class="edge">
<title>Node1&#45;&gt;Node2</title>
<path fill="none" stroke="midnightblue" d="M1525.58,-554.71C1505.71,-544.46 1481.52,-531.98 1463.29,-522.58"/>
<polygon fill="midnightblue" stroke="midnightblue" points="1524.17,-557.92 1534.66,-559.4 1527.38,-551.7 1524.17,-557.92"/>
</g>
<!-- Node3 -->
<g id="node3" class="node">
<title>Node3</title>
<g id="a_node3"><a xlink:href="node__state_8h.html" target="_top" xlink:title=" ">
<polygon fill="white" stroke="black" points="1347,-168.5 1347,-187.5 1471,-187.5 1471,-168.5 1347,-168.5"/>
<text text-anchor="middle" x="1409" y="-175.5" font-family="Helvetica,sans-Serif" font-size="10.00">src/node/node_state.h</text>
</a>
</g>
</g>
<!-- Node1&#45;&gt;Node3 -->
<g id="edge2" class="edge">
<title>Node1&#45;&gt;Node3</title>
<path fill="none" stroke="midnightblue" d="M1562,-548.99C1562,-522.49 1562,-479 1562,-441.5 1562,-441.5 1562,-441.5 1562,-305.5 1562,-241.05 1480.36,-203.26 1436.35,-187.57"/>
<polygon fill="midnightblue" stroke="midnightblue" points="1558.5,-549.24 1562,-559.24 1565.5,-549.24 1558.5,-549.24"/>
</g>
<!-- Node7 -->
<g id="node7" class="node">
<title>Node7</title>
<g id="a_node7"><a xlink:href="frontend_8h.html" target="_top" xlink:title=" ">
<polygon fill="white" stroke="black" points="1717.5,-364 1717.5,-383 1846.5,-383 1846.5,-364 1717.5,-364"/>
<text text-anchor="middle" x="1782" y="-371" font-family="Helvetica,sans-Serif" font-size="10.00">src/node/rpc/frontend.h</text>
</a>
</g>
</g>
<!-- Node1&#45;&gt;Node7 -->
<g id="edge7" class="edge">
<title>Node1&#45;&gt;Node7</title>
<path fill="none" stroke="midnightblue" d="M1585.48,-552.26C1633.13,-509.16 1739.45,-412.99 1772.2,-383.36"/>
<polygon fill="midnightblue" stroke="midnightblue" points="1582.89,-549.88 1577.82,-559.19 1587.59,-555.08 1582.89,-549.88"/>
</g>
<!-- Node14 -->
<g id="node14" class="node">
<title>Node14</title>
<g id="a_node14"><a xlink:href="node__call__types_8h.html" target="_top" xlink:title=" ">
<polygon fill="white" stroke="black" points="1849.5,-492.5 1849.5,-522.5 1974.5,-522.5 1974.5,-492.5 1849.5,-492.5"/>
<text text-anchor="start" x="1857.5" y="-510.5" font-family="Helvetica,sans-Serif" font-size="10.00">src/node/rpc/node_call</text>
<text text-anchor="middle" x="1912" y="-499.5" font-family="Helvetica,sans-Serif" font-size="10.00">_types.h</text>
</a>
</g>
</g>
<!-- Node1&#45;&gt;Node14 -->
<g id="edge21" class="edge">
<title>Node1&#45;&gt;Node14</title>
<path fill="none" stroke="midnightblue" d="M1625.43,-561.72C1688.93,-549.93 1786.05,-531.89 1849.3,-520.15"/>
<polygon fill="midnightblue" stroke="midnightblue" points="1624.73,-558.29 1615.54,-563.56 1626.01,-565.17 1624.73,-558.29"/>
</g>
<!-- Node21 -->
<g id="node21" class="node">
<title>Node21</title>
<g id="a_node21"><a xlink:href="network__tables_8h.html" target="_top" xlink:title=" ">
<polygon fill="white" stroke="black" points="1094,-425.5 1094,-455.5 1206,-455.5 1206,-425.5 1094,-425.5"/>
<text text-anchor="start" x="1102" y="-443.5" font-family="Helvetica,sans-Serif" font-size="10.00">src/service/network</text>
<text text-anchor="middle" x="1150" y="-432.5" font-family="Helvetica,sans-Serif" font-size="10.00">_tables.h</text>
</a>
</g>
</g>
<!-- Node1&#45;&gt;Node21 -->
<g id="edge36" class="edge">
<title>Node1&#45;&gt;Node21</title>
<path fill="none" stroke="midnightblue" d="M1552.1,-550.08C1542.82,-531.17 1527.05,-505.55 1505,-492 1456.07,-461.94 1293.28,-448.98 1206.16,-444.08"/>
<polygon fill="midnightblue" stroke="midnightblue" points="1548.98,-551.66 1556.37,-559.26 1555.33,-548.71 1548.98,-551.66"/>
</g>
<!-- Node4 -->
<g id="node4" class="node">
<title>Node4</title>
<g id="a_node4"><a xlink:href="enclave_2enclave_8h.html" target="_top" xlink:title=" ">
<polygon fill="white" stroke="black" points="1348,-56.5 1348,-75.5 1470,-75.5 1470,-56.5 1348,-56.5"/>
<text text-anchor="middle" x="1409" y="-63.5" font-family="Helvetica,sans-Serif" font-size="10.00">src/enclave/enclave.h</text>
</a>
</g>
</g>
<!-- Node3&#45;&gt;Node4 -->
<g id="edge3" class="edge">
<title>Node3&#45;&gt;Node4</title>
<path fill="none" stroke="midnightblue" d="M1393.45,-160.6C1383.22,-147.77 1372.63,-129.27 1378,-112 1382.4,-97.87 1392.95,-84.25 1400.52,-75.77"/>
<polygon fill="midnightblue" stroke="midnightblue" points="1391.09,-163.22 1400.28,-168.49 1396.38,-158.64 1391.09,-163.22"/>
</g>
<!-- Node6 -->
<g id="node6" class="node">
<title>Node6</title>
<g id="a_node6"><a xlink:href="gov__effects_8h.html" target="_top" xlink:title=" ">
<polygon fill="white" stroke="black" points="1387,-112.5 1387,-131.5 1531,-131.5 1531,-112.5 1387,-112.5"/>
<text text-anchor="middle" x="1459" y="-119.5" font-family="Helvetica,sans-Serif" font-size="10.00">src/node/rpc/gov_effects.h</text>
</a>
</g>
</g>
<!-- Node3&#45;&gt;Node6 -->
<g id="edge5" class="edge">
<title>Node3&#45;&gt;Node6</title>
<path fill="none" stroke="midnightblue" d="M1424.08,-160.72C1432.89,-151.2 1443.67,-139.56 1450.9,-131.75"/>
<polygon fill="midnightblue" stroke="midnightblue" points="1421.48,-158.37 1417.26,-168.08 1426.62,-163.12 1421.48,-158.37"/>
</g>
<!-- Node5 -->
<g id="node5" class="node">
<title>Node5</title>
<g id="a_node5"><a xlink:href="enclave_2main_8cpp.html" target="_top" xlink:title=" ">
<polygon fill="white" stroke="black" points="1349,-0.5 1349,-19.5 1469,-19.5 1469,-0.5 1349,-0.5"/>
<text text-anchor="middle" x="1409" y="-7.5" font-family="Helvetica,sans-Serif" font-size="10.00">src/enclave/main.cpp</text>
</a>
</g>
</g>
<!-- Node4&#45;&gt;Node5 -->
<g id="edge4" class="edge">
<title>Node4&#45;&gt;Node5</title>
<path fill="none" stroke="midnightblue" d="M1409,-45.8C1409,-36.91 1409,-26.78 1409,-19.75"/>
<polygon fill="midnightblue" stroke="midnightblue" points="1405.5,-46.08 1409,-56.08 1412.5,-46.08 1405.5,-46.08"/>
</g>
<!-- Node6&#45;&gt;Node4 -->
<g id="edge6" class="edge">
<title>Node6&#45;&gt;Node4</title>
<path fill="none" stroke="midnightblue" d="M1443.92,-104.72C1435.11,-95.2 1424.33,-83.56 1417.1,-75.75"/>
<polygon fill="midnightblue" stroke="midnightblue" points="1441.38,-107.12 1450.74,-112.08 1446.52,-102.37 1441.38,-107.12"/>
</g>
<!-- Node7&#45;&gt;Node3 -->
<g id="edge12" class="edge">
<title>Node7&#45;&gt;Node3</title>
<path fill="none" stroke="midnightblue" d="M1845.65,-361.83C1897.3,-350.25 1957.52,-328.22 1931,-291 1904.53,-253.86 1781.36,-234.6 1737,-224 1645.73,-202.2 1537.49,-189.91 1471.03,-183.86"/>
<polygon fill="midnightblue" stroke="midnightblue" points="1844.84,-358.43 1835.8,-363.95 1846.31,-365.27 1844.84,-358.43"/>
</g>
<!-- Node8 -->
<g id="node8" class="node">
<title>Node8</title>
<g id="a_node8"><a xlink:href="acme__challenge__frontend_8h.html" target="_top" xlink:title=" ">
<polygon fill="white" stroke="black" points="982,-291.5 982,-321.5 1122,-321.5 1122,-291.5 982,-291.5"/>
<text text-anchor="start" x="990" y="-309.5" font-family="Helvetica,sans-Serif" font-size="10.00">src/node/acme_challenge</text>
<text text-anchor="middle" x="1052" y="-298.5" font-family="Helvetica,sans-Serif" font-size="10.00">_frontend.h</text>
</a>
</g>
</g>
<!-- Node7&#45;&gt;Node8 -->
<g id="edge8" class="edge">
<title>Node7&#45;&gt;Node8</title>
<path fill="none" stroke="midnightblue" d="M1707.35,-367.34C1591.83,-359.14 1362.84,-341.99 1169,-322 1153.83,-320.44 1137.58,-318.55 1122.17,-316.67"/>
<polygon fill="midnightblue" stroke="midnightblue" points="1707.27,-370.85 1717.49,-368.06 1707.77,-363.86 1707.27,-370.85"/>
</g>
<!-- Node10 -->
<g id="node10" class="node">
<title>Node10</title>
<g id="a_node10"><a xlink:href="member__frontend_8h.html" target="_top" xlink:title=" ">
<polygon fill="white" stroke="black" points="1890,-224.5 1890,-254.5 2010,-254.5 2010,-224.5 1890,-224.5"/>
<text text-anchor="start" x="1898" y="-242.5" font-family="Helvetica,sans-Serif" font-size="10.00">src/node/rpc/member</text>
<text text-anchor="middle" x="1950" y="-231.5" font-family="Helvetica,sans-Serif" font-size="10.00">_frontend.h</text>
</a>
</g>
</g>
<!-- Node7&#45;&gt;Node10 -->
<g id="edge13" class="edge">
<title>Node7&#45;&gt;Node10</title>
<path fill="none" stroke="midnightblue" d="M1856.66,-365.25C1913.12,-358.04 1983.92,-344.7 2002,-322 2019.67,-299.81 1991.35,-271.4 1970.06,-254.65"/>
<polygon fill="midnightblue" stroke="midnightblue" points="1856.15,-361.78 1846.66,-366.48 1857.01,-368.73 1856.15,-361.78"/>
</g>
<!-- Node11 -->
<g id="node11" class="node">
<title>Node11</title>
<g id="a_node11"><a xlink:href="node__frontend_8h.html" target="_top" xlink:title=" ">
<polygon fill="white" stroke="black" points="1764,-297 1764,-316 1922,-316 1922,-297 1764,-297"/>
<text text-anchor="middle" x="1843" y="-304" font-family="Helvetica,sans-Serif" font-size="10.00">src/node/rpc/node_frontend.h</text>
</a>
</g>
</g>
<!-- Node7&#45;&gt;Node11 -->
<g id="edge15" class="edge">
<title>Node7&#45;&gt;Node11</title>
<path fill="none" stroke="midnightblue" d="M1797.36,-356.13C1809.29,-343.42 1825.36,-326.3 1834.9,-316.13"/>
<polygon fill="midnightblue" stroke="midnightblue" points="1794.52,-354.05 1790.23,-363.73 1799.62,-358.84 1794.52,-354.05"/>
</g>
<!-- Node13 -->
<g id="node13" class="node">
<title>Node13</title>
<g id="a_node13"><a xlink:href="user__frontend_8h.html" target="_top" xlink:title=" ">
<polygon fill="white" stroke="black" points="1590.5,-297 1590.5,-316 1745.5,-316 1745.5,-297 1590.5,-297"/>
<text text-anchor="middle" x="1668" y="-304" font-family="Helvetica,sans-Serif" font-size="10.00">src/node/rpc/user_frontend.h</text>
</a>
</g>
</g>
<!-- Node7&#45;&gt;Node13 -->
<g id="edge19" class="edge">
<title>Node7&#45;&gt;Node13</title>
<path fill="none" stroke="midnightblue" d="M1757.65,-358.62C1735.06,-345.74 1702.16,-326.98 1683.13,-316.13"/>
<polygon fill="midnightblue" stroke="midnightblue" points="1756.2,-361.82 1766.63,-363.73 1759.67,-355.74 1756.2,-361.82"/>
</g>
<!-- Node8&#45;&gt;Node4 -->
<g id="edge9" class="edge">
<title>Node8&#45;&gt;Node4</title>
<path fill="none" stroke="midnightblue" d="M1028.77,-284.07C1013.27,-267.12 997.94,-243.19 1011,-224 1087.16,-112.08 1256.6,-79.95 1347.9,-70.72"/>
<polygon fill="midnightblue" stroke="midnightblue" points="1026.32,-286.58 1035.79,-291.33 1031.35,-281.71 1026.32,-286.58"/>
</g>
<!-- Node9 -->
<g id="node9" class="node">
<title>Node9</title>
<g id="a_node9"><a xlink:href="ccf__acme__client_8h.html" target="_top" xlink:title=" ">
<polygon fill="white" stroke="black" points="1165.5,-230 1165.5,-249 1314.5,-249 1314.5,-230 1165.5,-230"/>
<text text-anchor="middle" x="1240" y="-237" font-family="Helvetica,sans-Serif" font-size="10.00">src/node/ccf_acme_client.h</text>
</a>
</g>
</g>
<!-- Node8&#45;&gt;Node9 -->
<g id="edge10" class="edge">
<title>Node8&#45;&gt;Node9</title>
<path fill="none" stroke="midnightblue" d="M1102.3,-288.11C1138.88,-275.46 1186.8,-258.89 1215.4,-249.01"/>
<polygon fill="midnightblue" stroke="midnightblue" points="1101.1,-284.82 1092.79,-291.4 1103.39,-291.44 1101.1,-284.82"/>
</g>
<!-- Node9&#45;&gt;Node3 -->
<g id="edge11" class="edge">
<title>Node9&#45;&gt;Node3</title>
<path fill="none" stroke="midnightblue" d="M1273.85,-226.58C1306.7,-215.02 1355.74,-197.75 1384.83,-187.51"/>
<polygon fill="midnightblue" stroke="midnightblue" points="1272.48,-223.35 1264.21,-229.98 1274.81,-229.96 1272.48,-223.35"/>
</g>
<!-- Node10&#45;&gt;Node4 -->
<g id="edge14" class="edge">
<title>Node10&#45;&gt;Node4</title>
<path fill="none" stroke="midnightblue" d="M1940.24,-215.26C1926.45,-185.67 1898.27,-135.54 1857,-112 1792.5,-75.2 1576.96,-68.24 1470.12,-67.09"/>
<polygon fill="midnightblue" stroke="midnightblue" points="1937.07,-216.76 1944.36,-224.45 1943.46,-213.89 1937.07,-216.76"/>
</g>
<!-- Node11&#45;&gt;Node4 -->
<g id="edge16" class="edge">
<title>Node11&#45;&gt;Node4</title>
<path fill="none" stroke="midnightblue" d="M1830.85,-288.36C1801.54,-248.62 1722.41,-150.63 1629,-112 1577.66,-90.77 1515.31,-79.23 1470.12,-73.17"/>
<polygon fill="midnightblue" stroke="midnightblue" points="1828.22,-290.69 1836.92,-296.73 1833.89,-286.58 1828.22,-290.69"/>
</g>
<!-- Node12 -->
<g id="node12" class="node">
<title>Node12</title>
<g id="a_node12"><a xlink:href="jwt__key__auto__refresh_8h.html" target="_top" xlink:title=" ">
<polygon fill="white" stroke="black" points="1602.5,-224.5 1602.5,-254.5 1727.5,-254.5 1727.5,-224.5 1602.5,-224.5"/>
<text text-anchor="start" x="1610.5" y="-242.5" font-family="Helvetica,sans-Serif" font-size="10.00">src/node/jwt_key_auto</text>
<text text-anchor="middle" x="1665" y="-231.5" font-family="Helvetica,sans-Serif" font-size="10.00">_refresh.h</text>
</a>
</g>
</g>
<!-- Node11&#45;&gt;Node12 -->
<g id="edge17" class="edge">
<title>Node11&#45;&gt;Node12</title>
<path fill="none" stroke="midnightblue" d="M1809.72,-293.35C1779.55,-282.33 1735.08,-266.09 1703.42,-254.53"/>
<polygon fill="midnightblue" stroke="midnightblue" points="1808.77,-296.73 1819.36,-296.87 1811.17,-290.15 1808.77,-296.73"/>
</g>
<!-- Node12&#45;&gt;Node3 -->
<g id="edge18" class="edge">
<title>Node12&#45;&gt;Node3</title>
<path fill="none" stroke="midnightblue" d="M1594.89,-222.2C1546.6,-210.98 1484.39,-196.52 1445.6,-187.51"/>
<polygon fill="midnightblue" stroke="midnightblue" points="1594.12,-225.62 1604.66,-224.47 1595.71,-218.8 1594.12,-225.62"/>
</g>
<!-- Node13&#45;&gt;Node4 -->
<g id="edge20" class="edge">
<title>Node13&#45;&gt;Node4</title>
<path fill="none" stroke="midnightblue" d="M1697.4,-292.2C1712.16,-283.82 1728.66,-271.44 1737,-255 1743.23,-242.71 1743.93,-235.91 1737,-224 1681.44,-128.51 1548.57,-90.2 1470.05,-75.53"/>
<polygon fill="midnightblue" stroke="midnightblue" points="1695.71,-289.14 1688.51,-296.91 1698.99,-295.32 1695.71,-289.14"/>
</g>
<!-- Node15 -->
<g id="node15" class="node">
<title>Node15</title>
<g id="a_node15"><a xlink:href="call__types_8h.html" target="_top" xlink:title=" ">
<polygon fill="white" stroke="black" points="2065.5,-431 2065.5,-450 2202.5,-450 2202.5,-431 2065.5,-431"/>
<text text-anchor="middle" x="2134" y="-438" font-family="Helvetica,sans-Serif" font-size="10.00">src/node/rpc/call_types.h</text>
</a>
</g>
</g>
<!-- Node14&#45;&gt;Node15 -->
<g id="edge22" class="edge">
<title>Node14&#45;&gt;Node15</title>
<path fill="none" stroke="midnightblue" d="M1969.75,-489.59C2013.11,-476.9 2070.67,-460.04 2104.87,-450.03"/>
<polygon fill="midnightblue" stroke="midnightblue" points="1968.51,-486.31 1959.9,-492.48 1970.48,-493.02 1968.51,-486.31"/>
</g>
<!-- Node15&#45;&gt;Node10 -->
<g id="edge28" class="edge">
<title>Node15&#45;&gt;Node10</title>
<path fill="none" stroke="midnightblue" d="M2122.76,-422.21C2103.44,-393.19 2061.75,-333.7 2018,-291 2003.9,-277.24 1985.93,-264.05 1972,-254.6"/>
<polygon fill="midnightblue" stroke="midnightblue" points="2120.01,-424.38 2128.43,-430.81 2125.85,-420.53 2120.01,-424.38"/>
</g>
<!-- Node16 -->
<g id="node16" class="node">
<title>Node16</title>
<g id="a_node16"><a xlink:href="nobuiltins_8cpp.html" target="_top" xlink:title=" ">
<polygon fill="white" stroke="black" points="2302.5,-291.5 2302.5,-321.5 2437.5,-321.5 2437.5,-291.5 2302.5,-291.5"/>
<text text-anchor="start" x="2310.5" y="-309.5" font-family="Helvetica,sans-Serif" font-size="10.00">samples/apps/nobuiltins</text>
<text text-anchor="middle" x="2370" y="-298.5" font-family="Helvetica,sans-Serif" font-size="10.00">/nobuiltins.cpp</text>
</a>
</g>
</g>
<!-- Node15&#45;&gt;Node16 -->
<g id="edge23" class="edge">
<title>Node15&#45;&gt;Node16</title>
<path fill="none" stroke="midnightblue" d="M2212.87,-431.14C2248.04,-424.28 2288.35,-411.77 2319,-389 2342.45,-371.58 2357.67,-339.89 2364.96,-321.58"/>
<polygon fill="midnightblue" stroke="midnightblue" points="2211.83,-427.77 2202.62,-433.01 2213.09,-434.66 2211.83,-427.77"/>
</g>
<!-- Node17 -->
<g id="node17" class="node">
<title>Node17</title>
<g id="a_node17"><a xlink:href="common__endpoint__registry_8cpp.html" target="_top" xlink:title=" ">
<polygon fill="white" stroke="black" points="2456,-291.5 2456,-321.5 2584,-321.5 2584,-291.5 2456,-291.5"/>
<text text-anchor="start" x="2464" y="-309.5" font-family="Helvetica,sans-Serif" font-size="10.00">src/endpoints/common</text>
<text text-anchor="middle" x="2520" y="-298.5" font-family="Helvetica,sans-Serif" font-size="10.00">_endpoint_registry.cpp</text>
</a>
</g>
</g>
<!-- Node15&#45;&gt;Node17 -->
<g id="edge24" class="edge">
<title>Node15&#45;&gt;Node17</title>
<path fill="none" stroke="midnightblue" d="M2191.98,-429.02C2235.12,-420.42 2295.07,-406.78 2346,-389 2400.48,-369.98 2460.79,-339.44 2494.17,-321.65"/>
<polygon fill="midnightblue" stroke="midnightblue" points="2191.09,-425.63 2181.95,-430.99 2192.44,-432.49 2191.09,-425.63"/>
</g>
<!-- Node18 -->
<g id="node18" class="node">
<title>Node18</title>
<g id="a_node18"><a xlink:href="wrap_8cpp.html" target="_top" xlink:title=" ">
<polygon fill="white" stroke="black" points="327.5,-168.5 327.5,-187.5 416.5,-187.5 416.5,-168.5 327.5,-168.5"/>
<text text-anchor="middle" x="372" y="-175.5" font-family="Helvetica,sans-Serif" font-size="10.00">src/js/wrap.cpp</text>
</a>
</g>
</g>
<!-- Node15&#45;&gt;Node18 -->
<g id="edge25" class="edge">
<title>Node15&#45;&gt;Node18</title>
<path fill="none" stroke="midnightblue" d="M2054.92,-440.1C1808.77,-441.42 1067.06,-440.98 973,-389 894.98,-345.89 935.94,-269 859,-224 784.7,-180.55 522.62,-177.7 416.8,-178.39"/>
<polygon fill="midnightblue" stroke="midnightblue" points="2055.24,-443.6 2065.22,-440.04 2055.2,-436.6 2055.24,-443.6"/>
</g>
<!-- Node19 -->
<g id="node19" class="node">
<title>Node19</title>
<g id="a_node19"><a xlink:href="resharing_8h.html" target="_top" xlink:title=" ">
<polygon fill="white" stroke="black" points="2130,-297 2130,-316 2246,-316 2246,-297 2130,-297"/>
<text text-anchor="middle" x="2188" y="-304" font-family="Helvetica,sans-Serif" font-size="10.00">src/node/resharing.h</text>
</a>
</g>
</g>
<!-- Node15&#45;&gt;Node19 -->
<g id="edge26" class="edge">
<title>Node15&#45;&gt;Node19</title>
<path fill="none" stroke="midnightblue" d="M2136.39,-420.32C2138.98,-403.38 2144,-378.29 2153,-358 2160.09,-342.01 2172.46,-325.78 2180.44,-316.18"/>
<polygon fill="midnightblue" stroke="midnightblue" points="2132.87,-420.2 2134.97,-430.59 2139.8,-421.16 2132.87,-420.2"/>
</g>
<!-- Node20 -->
<g id="node20" class="node">
<title>Node20</title>
<g id="a_node20"><a xlink:href="serialization_8h.html" target="_top" xlink:title=" ">
<polygon fill="white" stroke="black" points="2162,-364 2162,-383 2310,-383 2310,-364 2162,-364"/>
<text text-anchor="middle" x="2236" y="-371" font-family="Helvetica,sans-Serif" font-size="10.00">src/node/rpc/serialization.h</text>
</a>
</g>
</g>
<!-- Node15&#45;&gt;Node20 -->
<g id="edge29" class="edge">
<title>Node15&#45;&gt;Node20</title>
<path fill="none" stroke="midnightblue" d="M2156.33,-425.27C2176.52,-412.4 2205.59,-393.88 2222.46,-383.13"/>
<polygon fill="midnightblue" stroke="midnightblue" points="2154.31,-422.41 2147.76,-430.73 2158.07,-428.31 2154.31,-422.41"/>
</g>
<!-- Node19&#45;&gt;Node3 -->
<g id="edge27" class="edge">
<title>Node19&#45;&gt;Node3</title>
<path fill="none" stroke="midnightblue" d="M2165.89,-291.47C2134.58,-272.39 2074.89,-238.96 2019,-224 1916.93,-196.68 1604.95,-184.64 1471.08,-180.64"/>
<polygon fill="midnightblue" stroke="midnightblue" points="2164.32,-294.61 2174.66,-296.89 2168,-288.65 2164.32,-294.61"/>
</g>
<!-- Node20&#45;&gt;Node3 -->
<g id="edge32" class="edge">
<title>Node20&#45;&gt;Node3</title>
<path fill="none" stroke="midnightblue" d="M2247.42,-355.13C2257.42,-337.51 2268.43,-310.18 2255,-291 2205.09,-219.71 2156.15,-242.02 2071,-224 1957.53,-199.99 1612.95,-185.91 1471.06,-180.99"/>
<polygon fill="midnightblue" stroke="midnightblue" points="2244.35,-353.44 2242.13,-363.8 2250.33,-357.09 2244.35,-353.44"/>
</g>
<!-- Node20&#45;&gt;Node10 -->
<g id="edge34" class="edge">
<title>Node20&#45;&gt;Node10</title>
<path fill="none" stroke="midnightblue" d="M2203.33,-360.29C2179.81,-351 2147.67,-337.24 2121,-322 2100.55,-310.31 2098.67,-302.3 2078,-291 2050.96,-276.22 2018.67,-263.51 1993.28,-254.54"/>
<polygon fill="midnightblue" stroke="midnightblue" points="2202.25,-363.63 2212.84,-363.99 2204.79,-357.11 2202.25,-363.63"/>
</g>
<!-- Node20&#45;&gt;Node11 -->
<g id="edge35" class="edge">
<title>Node20&#45;&gt;Node11</title>
<path fill="none" stroke="midnightblue" d="M2174.16,-362.27C2097.04,-349.52 1966.59,-327.94 1894.58,-316.03"/>
<polygon fill="midnightblue" stroke="midnightblue" points="2173.78,-365.76 2184.22,-363.94 2174.92,-358.85 2173.78,-365.76"/>
</g>
<!-- Node20&#45;&gt;Node16 -->
<g id="edge30" class="edge">
<title>Node20&#45;&gt;Node16</title>
<path fill="none" stroke="midnightblue" d="M2262.85,-359.47C2285.51,-348.49 2317.86,-332.79 2341.08,-321.53"/>
<polygon fill="midnightblue" stroke="midnightblue" points="2261.26,-356.35 2253.79,-363.87 2264.32,-362.65 2261.26,-356.35"/>
</g>
<!-- Node20&#45;&gt;Node17 -->
<g id="edge31" class="edge">
<title>Node20&#45;&gt;Node17</title>
<path fill="none" stroke="midnightblue" d="M2283.25,-361.69C2331.3,-350.69 2405.96,-333.6 2458.57,-321.56"/>
<polygon fill="midnightblue" stroke="midnightblue" points="2282.39,-358.29 2273.42,-363.94 2283.95,-365.12 2282.39,-358.29"/>
</g>
<!-- Node20&#45;&gt;Node19 -->
<g id="edge33" class="edge">
<title>Node20&#45;&gt;Node19</title>
<path fill="none" stroke="midnightblue" d="M2223.38,-355.4C2214.05,-342.77 2201.74,-326.1 2194.37,-316.13"/>
<polygon fill="midnightblue" stroke="midnightblue" points="2220.77,-357.77 2229.53,-363.73 2226.4,-353.61 2220.77,-357.77"/>
</g>
<!-- Node21&#45;&gt;Node9 -->
<g id="edge38" class="edge">
<title>Node21&#45;&gt;Node9</title>
<path fill="none" stroke="midnightblue" d="M1147.4,-414.84C1145.34,-383.69 1145.91,-329.52 1169,-291 1180.74,-271.41 1203.33,-257.36 1219.89,-249.13"/>
<polygon fill="midnightblue" stroke="midnightblue" points="1143.94,-415.52 1148.24,-425.2 1150.92,-414.95 1143.94,-415.52"/>
</g>
<!-- Node22 -->
<g id="node22" class="node">
<title>Node22</title>
<g id="a_node22"><a xlink:href="kv__module__loader_8cpp.html" target="_top" xlink:title=" ">
<polygon fill="white" stroke="black" points="706.5,-358.5 706.5,-388.5 849.5,-388.5 849.5,-358.5 706.5,-358.5"/>
<text text-anchor="start" x="714.5" y="-376.5" font-family="Helvetica,sans-Serif" font-size="10.00">src/apps/js_v8/kv_module</text>
<text text-anchor="middle" x="778" y="-365.5" font-family="Helvetica,sans-Serif" font-size="10.00">_loader.cpp</text>
</a>
</g>
</g>
<!-- Node21&#45;&gt;Node22 -->
<g id="edge37" class="edge">
<title>Node21&#45;&gt;Node22</title>
<path fill="none" stroke="midnightblue" d="M1084.05,-427.98C1018.2,-416.47 917.31,-398.84 849.55,-387"/>
<polygon fill="midnightblue" stroke="midnightblue" points="1083.45,-431.42 1093.91,-429.7 1084.66,-424.53 1083.45,-431.42"/>
</g>
<!-- Node23 -->
<g id="node23" class="node">
<title>Node23</title>
<g id="a_node23"><a xlink:href="network__state_8h.html" target="_top" xlink:title=" ">
<polygon fill="white" stroke="black" points="982,-364 982,-383 1122,-383 1122,-364 982,-364"/>
<text text-anchor="middle" x="1052" y="-371" font-family="Helvetica,sans-Serif" font-size="10.00">src/node/network_state.h</text>
</a>
</g>
</g>
<!-- Node21&#45;&gt;Node23 -->
<g id="edge39" class="edge">
<title>Node21&#45;&gt;Node23</title>
<path fill="none" stroke="midnightblue" d="M1120.31,-419.81C1101.77,-407.51 1078.84,-392.3 1064.83,-383.01"/>
<polygon fill="midnightblue" stroke="midnightblue" points="1118.47,-422.79 1128.74,-425.4 1122.34,-416.95 1118.47,-422.79"/>
</g>
<!-- Node34 -->
<g id="node34" class="node">
<title>Node34</title>
<g id="a_node34"><a xlink:href="genesis__gen_8h.html" target="_top" xlink:title=" ">
<polygon fill="white" stroke="black" points="1355,-358.5 1355,-388.5 1465,-388.5 1465,-358.5 1355,-358.5"/>
<text text-anchor="start" x="1363" y="-376.5" font-family="Helvetica,sans-Serif" font-size="10.00">src/service/genesis</text>
<text text-anchor="middle" x="1410" y="-365.5" font-family="Helvetica,sans-Serif" font-size="10.00">_gen.h</text>
</a>
</g>
</g>
<!-- Node21&#45;&gt;Node34 -->
<g id="edge67" class="edge">
<title>Node21&#45;&gt;Node34</title>
<path fill="none" stroke="midnightblue" d="M1215.9,-423.03C1258.86,-412.29 1314.28,-398.43 1354.9,-388.28"/>
<polygon fill="midnightblue" stroke="midnightblue" points="1214.95,-419.66 1206.1,-425.48 1216.65,-426.45 1214.95,-419.66"/>
</g>
<!-- Node23&#45;&gt;Node3 -->
<g id="edge57" class="edge">
<title>Node23&#45;&gt;Node3</title>
<path fill="none" stroke="midnightblue" d="M1012.49,-360.22C994.33,-352.37 974.52,-340.17 964,-322 939.79,-280.2 969.46,-248.66 1011,-224 1066.31,-191.16 1249.53,-182.28 1346.9,-179.89"/>
<polygon fill="midnightblue" stroke="midnightblue" points="1011.2,-363.47 1021.78,-363.94 1013.8,-356.97 1011.2,-363.47"/>
</g>
<!-- Node23&#45;&gt;Node4 -->
<g id="edge40" class="edge">
<title>Node23&#45;&gt;Node4</title>
<path fill="none" stroke="midnightblue" d="M971.45,-366.62C725.35,-348.11 0,-289.41 0,-240.5 0,-240.5 0,-240.5 0,-177 0,-108.38 1076.36,-75.68 1347.55,-68.53"/>
<polygon fill="midnightblue" stroke="midnightblue" points="971.52,-370.13 981.75,-367.39 972.04,-363.15 971.52,-370.13"/>
</g>
<!-- Node23&#45;&gt;Node8 -->
<g id="edge56" class="edge">
<title>Node23&#45;&gt;Node8</title>
<path fill="none" stroke="midnightblue" d="M1052,-353.41C1052,-343.22 1052,-330.9 1052,-321.59"/>
<polygon fill="midnightblue" stroke="midnightblue" points="1048.5,-353.73 1052,-363.73 1055.5,-353.73 1048.5,-353.73"/>
</g>
<!-- Node23&#45;&gt;Node11 -->
<g id="edge58" class="edge">
<title>Node23&#45;&gt;Node11</title>
<path fill="none" stroke="midnightblue" d="M1132.37,-369.12C1263.2,-363.09 1530.2,-348.54 1755,-322 1768.38,-320.42 1782.83,-318.24 1796.07,-316.05"/>
<polygon fill="midnightblue" stroke="midnightblue" points="1131.88,-365.64 1122.05,-369.6 1132.2,-372.64 1131.88,-365.64"/>
</g>
<!-- Node23&#45;&gt;Node13 -->
<g id="edge59" class="edge">
<title>Node23&#45;&gt;Node13</title>
<path fill="none" stroke="midnightblue" d="M1132.25,-364.52C1229.33,-354.81 1397.69,-337.74 1542,-322 1559.29,-320.11 1577.91,-318.01 1595.39,-316"/>
<polygon fill="midnightblue" stroke="midnightblue" points="1131.82,-361.05 1122.22,-365.53 1132.52,-368.02 1131.82,-361.05"/>
</g>
<!-- Node24 -->
<g id="node24" class="node">
<title>Node24</title>
<g id="a_node24"><a xlink:href="wrap_8h.html" target="_top" xlink:title=" ">
<polygon fill="white" stroke="black" points="582,-297 582,-316 660,-316 660,-297 582,-297"/>
<text text-anchor="middle" x="621" y="-304" font-family="Helvetica,sans-Serif" font-size="10.00">src/js/wrap.h</text>
</a>
</g>
</g>
<!-- Node23&#45;&gt;Node24 -->
<g id="edge41" class="edge">
<title>Node23&#45;&gt;Node24</title>
<path fill="none" stroke="midnightblue" d="M985.26,-362.44C894.14,-348.69 733.71,-324.5 660.02,-313.38"/>
<polygon fill="midnightblue" stroke="midnightblue" points="984.8,-365.91 995.21,-363.94 985.84,-358.98 984.8,-365.91"/>
</g>
<!-- Node31 -->
<g id="node31" class="node">
<title>Node31</title>
<g id="a_node31"><a xlink:href="secret__broadcast_8h.html" target="_top" xlink:title=" ">
<polygon fill="white" stroke="black" points="1178.5,-297 1178.5,-316 1331.5,-316 1331.5,-297 1178.5,-297"/>
<text text-anchor="middle" x="1255" y="-304" font-family="Helvetica,sans-Serif" font-size="10.00">src/node/secret_broadcast.h</text>
</a>
</g>
</g>
<!-- Node23&#45;&gt;Node31 -->
<g id="edge60" class="edge">
<title>Node23&#45;&gt;Node31</title>
<path fill="none" stroke="midnightblue" d="M1088.65,-360.77C1128.87,-347.89 1192.47,-327.52 1228.25,-316.06"/>
<polygon fill="midnightblue" stroke="midnightblue" points="1087.41,-357.49 1078.96,-363.87 1089.55,-364.15 1087.41,-357.49"/>
</g>
<!-- Node32 -->
<g id="node32" class="node">
<title>Node32</title>
<g id="a_node32"><a xlink:href="share__manager_8h.html" target="_top" xlink:title=" ">
<polygon fill="white" stroke="black" points="1388.5,-297 1388.5,-316 1533.5,-316 1533.5,-297 1388.5,-297"/>
<text text-anchor="middle" x="1461" y="-304" font-family="Helvetica,sans-Serif" font-size="10.00">src/node/share_manager.h</text>
</a>
</g>
</g>
<!-- Node23&#45;&gt;Node32 -->
<g id="edge62" class="edge">
<title>Node23&#45;&gt;Node32</title>
<path fill="none" stroke="midnightblue" d="M1115.86,-362.35C1196.06,-349.6 1332.23,-327.96 1407.32,-316.03"/>
<polygon fill="midnightblue" stroke="midnightblue" points="1115.22,-358.91 1105.89,-363.94 1116.32,-365.82 1115.22,-358.91"/>
</g>
<!-- Node33 -->
<g id="node33" class="node">
<title>Node33</title>
<g id="a_node33"><a xlink:href="snapshotter_8h.html" target="_top" xlink:title=" ">
<polygon fill="white" stroke="black" points="1020.5,-230 1020.5,-249 1147.5,-249 1147.5,-230 1020.5,-230"/>
<text text-anchor="middle" x="1084" y="-237" font-family="Helvetica,sans-Serif" font-size="10.00">src/node/snapshotter.h</text>
</a>
</g>
</g>
<!-- Node23&#45;&gt;Node33 -->
<g id="edge65" class="edge">
<title>Node23&#45;&gt;Node33</title>
<path fill="none" stroke="midnightblue" d="M1017.24,-359.64C1000.69,-351.54 982.48,-339.31 973,-322 966.38,-309.92 965.54,-302.59 973,-291 987.38,-268.66 1014.34,-256.08 1038.09,-249.07"/>
<polygon fill="midnightblue" stroke="midnightblue" points="1016.16,-362.99 1026.72,-363.93 1019.05,-356.61 1016.16,-362.99"/>
</g>
<!-- Node24&#45;&gt;Node3 -->
<g id="edge54" class="edge">
<title>Node24&#45;&gt;Node3</title>
<path fill="none" stroke="midnightblue" d="M670.14,-297.39C718.66,-288.85 794.71,-274 859,-255 895.97,-244.08 902.47,-232.81 940,-224 1082.94,-190.44 1256.01,-181.82 1346.68,-179.66"/>
<polygon fill="midnightblue" stroke="midnightblue" points="669.47,-293.96 660.22,-299.12 670.67,-300.85 669.47,-293.96"/>
</g>
<!-- Node24&#45;&gt;Node4 -->
<g id="edge43" class="edge">
<title>Node24&#45;&gt;Node4</title>
<path fill="none" stroke="midnightblue" d="M639.97,-290.66C652.74,-280.64 669.93,-267.09 685,-255 702,-241.36 703.67,-234.07 723,-224 934.83,-113.64 1223.19,-80.28 1347.66,-70.67"/>
<polygon fill="midnightblue" stroke="midnightblue" points="637.63,-288.05 631.91,-296.98 641.94,-293.56 637.63,-288.05"/>
</g>
<!-- Node24&#45;&gt;Node10 -->
<g id="edge55" class="edge">
<title>Node24&#45;&gt;Node10</title>
<path fill="none" stroke="midnightblue" d="M670.32,-303.42C857.59,-295.49 1524.74,-267.03 1737,-255 1788.62,-252.08 1847.23,-248.03 1889.89,-244.96"/>
<polygon fill="midnightblue" stroke="midnightblue" points="670.06,-299.93 660.22,-303.85 670.36,-306.92 670.06,-299.93"/>
</g>
<!-- Node24&#45;&gt;Node18 -->
<g id="edge53" class="edge">
<title>Node24&#45;&gt;Node18</title>
<path fill="none" stroke="midnightblue" d="M571.43,-304.8C440.19,-302.43 91.4,-292.61 57,-255 47.7,-244.83 47.97,-234.41 57,-224 91.48,-184.25 249.07,-178.74 327.46,-178.52"/>
<polygon fill="midnightblue" stroke="midnightblue" points="571.54,-308.3 581.6,-304.97 571.66,-301.3 571.54,-308.3"/>
</g>
<!-- Node25 -->
<g id="node25" class="node">
<title>Node25</title>
<g id="a_node25"><a xlink:href="js__generic__base_8cpp.html" target="_top" xlink:title=" ">
<polygon fill="white" stroke="black" points="732,-224.5 732,-254.5 850,-254.5 850,-224.5 732,-224.5"/>
<text text-anchor="start" x="740" y="-242.5" font-family="Helvetica,sans-Serif" font-size="10.00">src/apps/js_generic</text>
<text text-anchor="middle" x="791" y="-231.5" font-family="Helvetica,sans-Serif" font-size="10.00">/js_generic_base.cpp</text>
</a>
</g>
</g>
<!-- Node24&#45;&gt;Node25 -->
<g id="edge42" class="edge">
<title>Node24&#45;&gt;Node25</title>
<path fill="none" stroke="midnightblue" d="M653.16,-293.2C681.97,-282.19 724.2,-266.04 754.31,-254.53"/>
<polygon fill="midnightblue" stroke="midnightblue" points="651.67,-290.03 643.57,-296.87 654.17,-296.57 651.67,-290.03"/>
</g>
<!-- Node26 -->
<g id="node26" class="node">
<title>Node26</title>
<g id="a_node26"><a xlink:href="js_2consensus_8cpp.html" target="_top" xlink:title=" ">
<polygon fill="white" stroke="black" points="66,-230 66,-249 182,-249 182,-230 66,-230"/>
<text text-anchor="middle" x="124" y="-237" font-family="Helvetica,sans-Serif" font-size="10.00">src/js/consensus.cpp</text>
</a>
</g>
</g>
<!-- Node24&#45;&gt;Node26 -->
<g id="edge44" class="edge">
<title>Node24&#45;&gt;Node26</title>
<path fill="none" stroke="midnightblue" d="M571.7,-301.27C491.55,-294.03 328.13,-277.84 191,-255 181.02,-253.34 170.28,-251.18 160.39,-249.04"/>
<polygon fill="midnightblue" stroke="midnightblue" points="571.71,-304.78 581.99,-302.19 572.34,-297.81 571.71,-304.78"/>
</g>
<!-- Node27 -->
<g id="node27" class="node">
<title>Node27</title>
<g id="a_node27"><a xlink:href="conv_8cpp.html" target="_top" xlink:title=" ">
<polygon fill="white" stroke="black" points="200,-230 200,-249 288,-249 288,-230 200,-230"/>
<text text-anchor="middle" x="244" y="-237" font-family="Helvetica,sans-Serif" font-size="10.00">src/js/conv.cpp</text>
</a>
</g>
</g>
<!-- Node24&#45;&gt;Node27 -->
<g id="edge46" class="edge">
<title>Node24&#45;&gt;Node27</title>
<path fill="none" stroke="midnightblue" d="M571.67,-299.57C507.87,-291.49 393.5,-275.65 297,-255 289.16,-253.32 280.76,-251.19 273.01,-249.07"/>
<polygon fill="midnightblue" stroke="midnightblue" points="571.48,-303.07 581.84,-300.84 572.35,-296.12 571.48,-303.07"/>
</g>
<!-- Node28 -->
<g id="node28" class="node">
<title>Node28</title>
<g id="a_node28"><a xlink:href="js_2crypto_8cpp.html" target="_top" xlink:title=" ">
<polygon fill="white" stroke="black" points="452,-230 452,-249 548,-249 548,-230 452,-230"/>
<text text-anchor="middle" x="500" y="-237" font-family="Helvetica,sans-Serif" font-size="10.00">src/js/crypto.cpp</text>
</a>
</g>
</g>
<!-- Node24&#45;&gt;Node28 -->
<g id="edge48" class="edge">
<title>Node24&#45;&gt;Node28</title>
<path fill="none" stroke="midnightblue" d="M595.79,-291.96C571.8,-279.07 536.44,-260.07 516.06,-249.13"/>
<polygon fill="midnightblue" stroke="midnightblue" points="594.22,-295.08 604.68,-296.73 597.53,-288.92 594.22,-295.08"/>
</g>
<!-- Node29 -->
<g id="node29" class="node">
<title>Node29</title>
<g id="a_node29"><a xlink:href="js_2historical_8cpp.html" target="_top" xlink:title=" ">
<polygon fill="white" stroke="black" points="566,-230 566,-249 676,-249 676,-230 566,-230"/>
<text text-anchor="middle" x="621" y="-237" font-family="Helvetica,sans-Serif" font-size="10.00">src/js/historical.cpp</text>
</a>
</g>
</g>
<!-- Node24&#45;&gt;Node29 -->
<g id="edge50" class="edge">
<title>Node24&#45;&gt;Node29</title>
<path fill="none" stroke="midnightblue" d="M621,-286.54C621,-274.17 621,-258.62 621,-249.13"/>
<polygon fill="midnightblue" stroke="midnightblue" points="617.5,-286.73 621,-296.73 624.5,-286.73 617.5,-286.73"/>
</g>
<!-- Node30 -->
<g id="node30" class="node">
<title>Node30</title>
<g id="a_node30"><a xlink:href="openenclave_8cpp.html" target="_top" xlink:title=" ">
<polygon fill="white" stroke="black" points="306,-230 306,-249 434,-249 434,-230 306,-230"/>
<text text-anchor="middle" x="370" y="-237" font-family="Helvetica,sans-Serif" font-size="10.00">src/js/openenclave.cpp</text>
</a>
</g>
</g>
<!-- Node24&#45;&gt;Node30 -->
<g id="edge52" class="edge">
<title>Node24&#45;&gt;Node30</title>
<path fill="none" stroke="midnightblue" d="M578.15,-294.4C528.62,-281.58 448.14,-260.74 403.15,-249.08"/>
<polygon fill="midnightblue" stroke="midnightblue" points="577.37,-297.82 587.93,-296.94 579.12,-291.04 577.37,-297.82"/>
</g>
<!-- Node26&#45;&gt;Node18 -->
<g id="edge45" class="edge">
<title>Node26&#45;&gt;Node18</title>
<path fill="none" stroke="midnightblue" d="M169.37,-227.61C217.51,-216.07 292.55,-198.06 336.53,-187.51"/>
<polygon fill="midnightblue" stroke="midnightblue" points="168.44,-224.24 159.53,-229.98 170.07,-231.05 168.44,-224.24"/>
</g>
<!-- Node27&#45;&gt;Node18 -->
<g id="edge47" class="edge">
<title>Node27&#45;&gt;Node18</title>
<path fill="none" stroke="midnightblue" d="M271.59,-225.67C296.43,-214.13 332.23,-197.49 353.69,-187.51"/>
<polygon fill="midnightblue" stroke="midnightblue" points="269.93,-222.59 262.34,-229.98 272.88,-228.93 269.93,-222.59"/>
</g>
<!-- Node28&#45;&gt;Node18 -->
<g id="edge49" class="edge">
<title>Node28&#45;&gt;Node18</title>
<path fill="none" stroke="midnightblue" d="M472.41,-225.67C447.57,-214.13 411.77,-197.49 390.31,-187.51"/>
<polygon fill="midnightblue" stroke="midnightblue" points="471.12,-228.93 481.66,-229.98 474.07,-222.59 471.12,-228.93"/>
</g>
<!-- Node29&#45;&gt;Node18 -->
<g id="edge51" class="edge">
<title>Node29&#45;&gt;Node18</title>
<path fill="none" stroke="midnightblue" d="M575.44,-227.61C527.11,-216.07 451.77,-198.06 407.61,-187.51"/>
<polygon fill="midnightblue" stroke="midnightblue" points="574.78,-231.06 585.32,-229.98 576.41,-224.25 574.78,-231.06"/>
</g>
<!-- Node31&#45;&gt;Node3 -->
<g id="edge61" class="edge">
<title>Node31&#45;&gt;Node3</title>
<path fill="none" stroke="midnightblue" d="M1275.52,-290.95C1289.2,-281.09 1307.45,-267.61 1323,-255 1351.79,-231.66 1384.14,-202.12 1399.68,-187.7"/>
<polygon fill="midnightblue" stroke="midnightblue" points="1273.37,-288.2 1267.27,-296.86 1277.44,-293.89 1273.37,-288.2"/>
</g>
<!-- Node32&#45;&gt;Node3 -->
<g id="edge63" class="edge">
<title>Node32&#45;&gt;Node3</title>
<path fill="none" stroke="midnightblue" d="M1453.62,-287.54C1442.29,-259.98 1421.05,-208.31 1412.6,-187.76"/>
<polygon fill="midnightblue" stroke="midnightblue" points="1450.39,-288.89 1457.43,-296.81 1456.86,-286.23 1450.39,-288.89"/>
</g>
<!-- Node32&#45;&gt;Node10 -->
<g id="edge64" class="edge">
<title>Node32&#45;&gt;Node10</title>
<path fill="none" stroke="midnightblue" d="M1535.21,-295.64C1632.28,-282.73 1800.48,-260.37 1889.96,-248.48"/>
<polygon fill="midnightblue" stroke="midnightblue" points="1534.63,-292.18 1525.18,-296.97 1535.55,-299.12 1534.63,-292.18"/>
</g>
<!-- Node33&#45;&gt;Node3 -->
<g id="edge66" class="edge">
<title>Node33&#45;&gt;Node3</title>
<path fill="none" stroke="midnightblue" d="M1135.46,-227.99C1142.36,-226.62 1149.35,-225.26 1156,-224 1226.35,-210.66 1307.93,-196.36 1359.01,-187.55"/>
<polygon fill="midnightblue" stroke="midnightblue" points="1134.59,-224.59 1125.47,-229.98 1135.96,-231.46 1134.59,-224.59"/>
</g>
<!-- Node34&#45;&gt;Node3 -->
<g id="edge68" class="edge">
<title>Node34&#45;&gt;Node3</title>
<path fill="none" stroke="midnightblue" d="M1392.59,-350.09C1387.12,-341.75 1381.79,-331.89 1379,-322 1364.87,-271.96 1392.61,-210.36 1404.22,-187.81"/>
<polygon fill="midnightblue" stroke="midnightblue" points="1389.86,-352.3 1398.46,-358.49 1395.6,-348.29 1389.86,-352.3"/>
</g>
<!-- Node34&#45;&gt;Node10 -->
<g id="edge69" class="edge">
<title>Node34&#45;&gt;Node10</title>
<path fill="none" stroke="midnightblue" d="M1475.16,-370.38C1607.33,-365.48 1897.35,-351.47 1931,-322 1950.13,-305.25 1951.98,-273.32 1951.24,-254.78"/>
<polygon fill="midnightblue" stroke="midnightblue" points="1475.02,-366.88 1465.16,-370.74 1475.28,-373.88 1475.02,-366.88"/>
</g>
<!-- Node34&#45;&gt;Node11 -->
<g id="edge70" class="edge">
<title>Node34&#45;&gt;Node11</title>
<path fill="none" stroke="midnightblue" d="M1474.93,-363.35C1544.32,-353.49 1657.51,-337.17 1755,-322 1767.09,-320.12 1780.09,-318.02 1792.3,-316.01"/>
<polygon fill="midnightblue" stroke="midnightblue" points="1474.43,-359.89 1465.02,-364.76 1475.41,-366.82 1474.43,-359.89"/>
</g>
<!-- Node34&#45;&gt;Node31 -->
<g id="edge71" class="edge">
<title>Node34&#45;&gt;Node31</title>
<path fill="none" stroke="midnightblue" d="M1366.98,-354.46C1337.03,-341.9 1298.46,-325.72 1275.29,-316.01"/>
<polygon fill="midnightblue" stroke="midnightblue" points="1365.79,-357.76 1376.37,-358.4 1368.5,-351.3 1365.79,-357.76"/>
</g>
<!-- Node34&#45;&gt;Node32 -->
<g id="edge72" class="edge">
<title>Node34&#45;&gt;Node32</title>
<path fill="none" stroke="midnightblue" d="M1427.41,-350.32C1436.6,-338.6 1447.36,-324.88 1454.18,-316.19"/>
<polygon fill="midnightblue" stroke="midnightblue" points="1424.49,-348.37 1421.07,-358.4 1429.99,-352.69 1424.49,-348.37"/>
</g>
</g>
</svg>
        <g id="navigator" transform="translate(0 0)" fill="#404254">
                <rect fill="#f2f5e9" fill-opacity="0.5" stroke="#606060" stroke-width=".5" x="0" y="0" width="60" height="60"/>
                <use id="zoomplus" xlink:href="#zoomPlus" x="17" y="9" onmousedown="handleZoom(evt,'in')"/>
                <use id="zoomminus" xlink:href="#zoomMin" x="42" y="9" onmousedown="handleZoom(evt,'out')"/>
                <use id="reset" xlink:href="#resetDef" x="30" y="36" onmousedown="handleReset()"/>
                <g id="arrowUp" xlink:href="#dirArrow" transform="translate(30 24)" onmousedown="handlePan(0,-1)">
                  <use xlink:href="#rim" fill="#404040">
                        <set attributeName="fill" to="#808080" begin="arrowUp.mouseover" end="arrowUp.mouseout"/>
                  </use>
                  <path fill="none" stroke="white" stroke-width="1.5" d="M0,-3.0v7 M-2.5,-0.5L0,-3.0L2.5,-0.5"/>
                </g>
                <g id="arrowRight" xlink:href="#dirArrow" transform="rotate(90) translate(36 -43)" onmousedown="handlePan(1,0)">
                  <use xlink:href="#rim" fill="#404040">
                        <set attributeName="fill" to="#808080" begin="arrowRight.mouseover" end="arrowRight.mouseout"/>
                  </use>
                  <path fill="none" stroke="white" stroke-width="1.5" d="M0,-3.0v7 M-2.5,-0.5L0,-3.0L2.5,-0.5"/>
                </g>
                <g id="arrowDown" xlink:href="#dirArrow" transform="rotate(180) translate(-30 -48)" onmousedown="handlePan(0,1)">
                  <use xlink:href="#rim" fill="#404040">
                        <set attributeName="fill" to="#808080" begin="arrowDown.mouseover" end="arrowDown.mouseout"/>
                  </use>
                  <path fill="none" stroke="white" stroke-width="1.5" d="M0,-3.0v7 M-2.5,-0.5L0,-3.0L2.5,-0.5"/>
                </g>
                <g id="arrowLeft" xlink:href="#dirArrow" transform="rotate(270) translate(-36 17)" onmousedown="handlePan(-1,0)">
                  <use xlink:href="#rim" fill="#404040">
                        <set attributeName="fill" to="#808080" begin="arrowLeft.mouseover" end="arrowLeft.mouseout"/>
                  </use>
                  <path fill="none" stroke="white" stroke-width="1.5" d="M0,-3.0v7 M-2.5,-0.5L0,-3.0L2.5,-0.5"/>
                </g>
        </g>
        <svg viewBox="0 0 15 15" width="100%" height="30px" preserveAspectRatio="xMaxYMin meet">
         <g id="arrow_out" transform="scale(0.3 0.3)">
          <a xlink:href="service_8h__dep__incl_org.svg" target="_base">
           <rect id="button" ry="5" rx="5" y="6" x="6" height="38" width="38"
                fill="#f2f5e9" fill-opacity="0.5" stroke="#606060" stroke-width="1.0"/>
           <path id="arrow"
             d="M 11.500037,31.436501 C 11.940474,20.09759 22.043105,11.32322 32.158766,21.979434 L 37.068811,17.246167 C 37.068811,17.246167 37.088388,32 37.088388,32 L 22.160133,31.978069 C 22.160133,31.978069 26.997745,27.140456 26.997745,27.140456 C 18.528582,18.264221 13.291696,25.230495 11.500037,31.436501 z"
             style="fill:#404040;"/>
          </a>
         </g>
        </svg>
</svg>
