<?xml version="1.0" encoding="UTF-8" standalone="no"?>
<!DOCTYPE svg PUBLIC "-//W3C//DTD SVG 1.1//EN"
 "http://www.w3.org/Graphics/SVG/1.1/DTD/svg11.dtd">
<!-- Generated by graphviz version 2.43.0 (0)
 -->
<!-- Title: src/node/session_metrics.h Pages: 1 -->
<svg width="2183pt" height="665pt"
 viewBox="0.00 0.00 2183.00 665.00" xmlns="http://www.w3.org/2000/svg" xmlns:xlink="http://www.w3.org/1999/xlink">
<g id="graph0" class="graph" transform="scale(1 1) rotate(0) translate(4 661)">
<title>src/node/session_metrics.h</title>
<polygon fill="white" stroke="transparent" points="-4,4 -4,-661 2179,-661 2179,4 -4,4"/>
<!-- Node1 -->
<g id="node1" class="node">
<title>Node1</title>
<g id="a_node1"><a xlink:title=" ">
<polygon fill="#bfbfbf" stroke="black" points="954.5,-637.5 954.5,-656.5 1103.5,-656.5 1103.5,-637.5 954.5,-637.5"/>
<text text-anchor="middle" x="1029" y="-644.5" font-family="Helvetica,sans-Serif" font-size="10.00">src/node/session_metrics.h</text>
</a>
</g>
</g>
<!-- Node2 -->
<g id="node2" class="node">
<title>Node2</title>
<g id="a_node2"><a xlink:href="rpc__sessions_8h.html" target="_top" xlink:title=" ">
<polygon fill="white" stroke="black" points="56,-514.5 56,-533.5 202,-533.5 202,-514.5 56,-514.5"/>
<text text-anchor="middle" x="129" y="-521.5" font-family="Helvetica,sans-Serif" font-size="10.00">src/enclave/rpc_sessions.h</text>
</a>
</g>
</g>
<!-- Node1&#45;&gt;Node2 -->
<g id="edge1" class="edge">
<title>Node1&#45;&gt;Node2</title>
<path fill="none" stroke="midnightblue" d="M944.43,-637.6C862.61,-629.24 735.15,-615.57 625,-601 461.99,-579.44 269.72,-548.36 179.95,-533.52"/>
<polygon fill="midnightblue" stroke="midnightblue" points="944.12,-641.09 954.43,-638.62 944.83,-634.13 944.12,-641.09"/>
</g>
<!-- Node11 -->
<g id="node11" class="node">
<title>Node11</title>
<g id="a_node11"><a xlink:href="node__frontend_8h.html" target="_top" xlink:title=" ">
<polygon fill="white" stroke="black" points="509,-319 509,-338 667,-338 667,-319 509,-319"/>
<text text-anchor="middle" x="588" y="-326" font-family="Helvetica,sans-Serif" font-size="10.00">src/node/rpc/node_frontend.h</text>
</a>
</g>
</g>
<!-- Node1&#45;&gt;Node11 -->
<g id="edge25" class="edge">
<title>Node1&#45;&gt;Node11</title>
<path fill="none" stroke="midnightblue" d="M944.09,-636.93C829.36,-622.27 639,-588.4 639,-525 639,-525 639,-525 639,-461.5 639,-411.87 607.25,-358.38 593.85,-338.02"/>
<polygon fill="midnightblue" stroke="midnightblue" points="943.91,-640.43 954.27,-638.2 944.78,-633.49 943.91,-640.43"/>
</g>
<!-- Node16 -->
<g id="node16" class="node">
<title>Node16</title>
<g id="a_node16"><a xlink:href="node__interface_8h.html" target="_top" xlink:title=" ">
<polygon fill="white" stroke="black" points="1485.5,-514.5 1485.5,-533.5 1646.5,-533.5 1646.5,-514.5 1485.5,-514.5"/>
<text text-anchor="middle" x="1566" y="-521.5" font-family="Helvetica,sans-Serif" font-size="10.00">src/node/rpc/node_interface.h</text>
</a>
</g>
</g>
<!-- Node1&#45;&gt;Node16 -->
<g id="edge26" class="edge">
<title>Node1&#45;&gt;Node16</title>
<path fill="none" stroke="midnightblue" d="M1076.79,-635.23C1182.07,-611.51 1432.28,-555.13 1527.92,-533.58"/>
<polygon fill="midnightblue" stroke="midnightblue" points="1075.75,-631.88 1066.76,-637.49 1077.29,-638.71 1075.75,-631.88"/>
</g>
<!-- Node35 -->
<g id="node35" class="node">
<title>Node35</title>
<g id="a_node35"><a xlink:href="node__operation__interface_8h.html" target="_top" xlink:title=" ">
<polygon fill="white" stroke="black" points="1638.5,-570.5 1638.5,-600.5 1793.5,-600.5 1793.5,-570.5 1638.5,-570.5"/>
<text text-anchor="start" x="1646.5" y="-588.5" font-family="Helvetica,sans-Serif" font-size="10.00">src/node/rpc/node_operation</text>
<text text-anchor="middle" x="1716" y="-577.5" font-family="Helvetica,sans-Serif" font-size="10.00">_interface.h</text>
</a>
</g>
</g>
<!-- Node1&#45;&gt;Node35 -->
<g id="edge65" class="edge">
<title>Node1&#45;&gt;Node35</title>
<path fill="none" stroke="midnightblue" d="M1113.75,-638.66C1248.19,-627.02 1508.39,-604.48 1638.29,-593.23"/>
<polygon fill="midnightblue" stroke="midnightblue" points="1113.16,-635.2 1103.5,-639.55 1113.77,-642.17 1113.16,-635.2"/>
</g>
<!-- Node3 -->
<g id="node3" class="node">
<title>Node3</title>
<g id="a_node3"><a xlink:href="enclave_2enclave_8h.html" target="_top" xlink:title=" ">
<polygon fill="white" stroke="black" points="1546,-56.5 1546,-75.5 1668,-75.5 1668,-56.5 1546,-56.5"/>
<text text-anchor="middle" x="1607" y="-63.5" font-family="Helvetica,sans-Serif" font-size="10.00">src/enclave/enclave.h</text>
</a>
</g>
</g>
<!-- Node2&#45;&gt;Node3 -->
<g id="edge2" class="edge">
<title>Node2&#45;&gt;Node3</title>
<path fill="none" stroke="midnightblue" d="M99.43,-510.01C61.35,-491.03 0,-451.88 0,-396.5 0,-396.5 0,-396.5 0,-193.5 0,-0.3 235.04,-133.85 427,-112 646.99,-86.96 1335.81,-72.14 1545.69,-68.12"/>
<polygon fill="midnightblue" stroke="midnightblue" points="98.03,-513.22 108.56,-514.4 101.06,-506.91 98.03,-513.22"/>
</g>
<!-- Node5 -->
<g id="node5" class="node">
<title>Node5</title>
<g id="a_node5"><a xlink:href="ccf__acme__client_8h.html" target="_top" xlink:title=" ">
<polygon fill="white" stroke="black" points="365.5,-252 365.5,-271 514.5,-271 514.5,-252 365.5,-252"/>
<text text-anchor="middle" x="440" y="-259" font-family="Helvetica,sans-Serif" font-size="10.00">src/node/ccf_acme_client.h</text>
</a>
</g>
</g>
<!-- Node2&#45;&gt;Node5 -->
<g id="edge4" class="edge">
<title>Node2&#45;&gt;Node5</title>
<path fill="none" stroke="midnightblue" d="M212.73,-520.78C291.53,-513.7 405.62,-489.45 462,-411 493.79,-366.77 459.01,-295.78 445.17,-271.21"/>
<polygon fill="midnightblue" stroke="midnightblue" points="212.02,-517.33 202.34,-521.64 212.59,-524.31 212.02,-517.33"/>
</g>
<!-- Node6 -->
<g id="node6" class="node">
<title>Node6</title>
<g id="a_node6"><a xlink:href="node__state_8h.html" target="_top" xlink:title=" ">
<polygon fill="white" stroke="black" points="432,-185 432,-204 556,-204 556,-185 432,-185"/>
<text text-anchor="middle" x="494" y="-192" font-family="Helvetica,sans-Serif" font-size="10.00">src/node/node_state.h</text>
</a>
</g>
</g>
<!-- Node2&#45;&gt;Node6 -->
<g id="edge22" class="edge">
<title>Node2&#45;&gt;Node6</title>
<path fill="none" stroke="midnightblue" d="M108.7,-508.25C81.88,-486.89 38,-444.59 38,-396.5 38,-396.5 38,-396.5 38,-327.5 38,-290.31 29.24,-270.76 57,-246 84.43,-221.53 317.7,-205.31 431.74,-198.76"/>
<polygon fill="midnightblue" stroke="midnightblue" points="106.67,-511.11 116.73,-514.43 110.94,-505.56 106.67,-511.11"/>
</g>
<!-- Node8 -->
<g id="node8" class="node">
<title>Node8</title>
<g id="a_node8"><a xlink:href="node__client_8h.html" target="_top" xlink:title=" ">
<polygon fill="white" stroke="black" points="111,-453 111,-472 237,-472 237,-453 111,-453"/>
<text text-anchor="middle" x="174" y="-460" font-family="Helvetica,sans-Serif" font-size="10.00">src/node/node_client.h</text>
</a>
</g>
</g>
<!-- Node2&#45;&gt;Node8 -->
<g id="edge9" class="edge">
<title>Node2&#45;&gt;Node8</title>
<path fill="none" stroke="midnightblue" d="M141.6,-506.34C150.05,-495.17 160.82,-480.93 167.56,-472.01"/>
<polygon fill="midnightblue" stroke="midnightblue" points="138.69,-504.39 135.45,-514.48 144.27,-508.61 138.69,-504.39"/>
</g>
<!-- Node15 -->
<g id="node15" class="node">
<title>Node15</title>
<g id="a_node15"><a xlink:href="resharing_8h.html" target="_top" xlink:title=" ">
<polygon fill="white" stroke="black" points="66,-252 66,-271 182,-271 182,-252 66,-252"/>
<text text-anchor="middle" x="124" y="-259" font-family="Helvetica,sans-Serif" font-size="10.00">src/node/resharing.h</text>
</a>
</g>
</g>
<!-- Node2&#45;&gt;Node15 -->
<g id="edge23" class="edge">
<title>Node2&#45;&gt;Node15</title>
<path fill="none" stroke="midnightblue" d="M115.97,-506.23C110.51,-498.17 104.79,-488.08 102,-478 80.42,-400.08 110.6,-301.04 120.83,-271.32"/>
<polygon fill="midnightblue" stroke="midnightblue" points="113.15,-508.31 121.85,-514.36 118.82,-504.21 113.15,-508.31"/>
</g>
<!-- Node4 -->
<g id="node4" class="node">
<title>Node4</title>
<g id="a_node4"><a xlink:href="enclave_2main_8cpp.html" target="_top" xlink:title=" ">
<polygon fill="white" stroke="black" points="1547,-0.5 1547,-19.5 1667,-19.5 1667,-0.5 1547,-0.5"/>
<text text-anchor="middle" x="1607" y="-7.5" font-family="Helvetica,sans-Serif" font-size="10.00">src/enclave/main.cpp</text>
</a>
</g>
</g>
<!-- Node3&#45;&gt;Node4 -->
<g id="edge3" class="edge">
<title>Node3&#45;&gt;Node4</title>
<path fill="none" stroke="midnightblue" d="M1607,-45.8C1607,-36.91 1607,-26.78 1607,-19.75"/>
<polygon fill="midnightblue" stroke="midnightblue" points="1603.5,-46.08 1607,-56.08 1610.5,-46.08 1603.5,-46.08"/>
</g>
<!-- Node5&#45;&gt;Node6 -->
<g id="edge5" class="edge">
<title>Node5&#45;&gt;Node6</title>
<path fill="none" stroke="midnightblue" d="M453.9,-243.77C464.43,-231.1 478.46,-214.2 486.83,-204.13"/>
<polygon fill="midnightblue" stroke="midnightblue" points="450.98,-241.81 447.28,-251.73 456.37,-246.28 450.98,-241.81"/>
</g>
<!-- Node6&#45;&gt;Node3 -->
<g id="edge6" class="edge">
<title>Node6&#45;&gt;Node3</title>
<path fill="none" stroke="midnightblue" d="M519.44,-180.39C560.83,-159.31 641.21,-119.49 672,-112 838.59,-71.46 1365.75,-67.18 1545.93,-66.92"/>
<polygon fill="midnightblue" stroke="midnightblue" points="517.83,-177.28 510.52,-184.95 521.02,-183.51 517.83,-177.28"/>
</g>
<!-- Node7 -->
<g id="node7" class="node">
<title>Node7</title>
<g id="a_node7"><a xlink:href="gov__effects_8h.html" target="_top" xlink:title=" ">
<polygon fill="white" stroke="black" points="436,-118 436,-137 580,-137 580,-118 436,-118"/>
<text text-anchor="middle" x="508" y="-125" font-family="Helvetica,sans-Serif" font-size="10.00">src/node/rpc/gov_effects.h</text>
</a>
</g>
</g>
<!-- Node6&#45;&gt;Node7 -->
<g id="edge7" class="edge">
<title>Node6&#45;&gt;Node7</title>
<path fill="none" stroke="midnightblue" d="M498,-174.91C500.68,-162.49 504.08,-146.72 506.14,-137.13"/>
<polygon fill="midnightblue" stroke="midnightblue" points="494.57,-174.22 495.89,-184.73 501.42,-175.69 494.57,-174.22"/>
</g>
<!-- Node7&#45;&gt;Node3 -->
<g id="edge8" class="edge">
<title>Node7&#45;&gt;Node3</title>
<path fill="none" stroke="midnightblue" d="M577.46,-116.68C591.83,-114.9 606.89,-113.23 621,-112 970.11,-81.69 1390.66,-71.09 1545.73,-68.05"/>
<polygon fill="midnightblue" stroke="midnightblue" points="576.62,-113.25 567.13,-117.98 577.49,-120.2 576.62,-113.25"/>
</g>
<!-- Node9 -->
<g id="node9" class="node">
<title>Node9</title>
<g id="a_node9"><a xlink:href="orc__requests_8h.html" target="_top" xlink:title=" ">
<polygon fill="white" stroke="black" points="333.5,-380.5 333.5,-410.5 452.5,-410.5 452.5,-380.5 333.5,-380.5"/>
<text text-anchor="start" x="341.5" y="-398.5" font-family="Helvetica,sans-Serif" font-size="10.00">src/consensus/aft/orc</text>
<text text-anchor="middle" x="393" y="-387.5" font-family="Helvetica,sans-Serif" font-size="10.00">_requests.h</text>
</a>
</g>
</g>
<!-- Node8&#45;&gt;Node9 -->
<g id="edge10" class="edge">
<title>Node8&#45;&gt;Node9</title>
<path fill="none" stroke="midnightblue" d="M213.03,-449.92C250.16,-438.9 306.09,-422.29 345.74,-410.53"/>
<polygon fill="midnightblue" stroke="midnightblue" points="211.67,-446.67 203.08,-452.87 213.66,-453.38 211.67,-446.67"/>
</g>
<!-- Node10 -->
<g id="node10" class="node">
<title>Node10</title>
<g id="a_node10"><a xlink:href="raft_8h.html" target="_top" xlink:title=" ">
<polygon fill="white" stroke="black" points="229.5,-319 229.5,-338 358.5,-338 358.5,-319 229.5,-319"/>
<text text-anchor="middle" x="294" y="-326" font-family="Helvetica,sans-Serif" font-size="10.00">src/consensus/aft/raft.h</text>
</a>
</g>
</g>
<!-- Node8&#45;&gt;Node10 -->
<g id="edge17" class="edge">
<title>Node8&#45;&gt;Node10</title>
<path fill="none" stroke="midnightblue" d="M169.73,-442.99C166.74,-425.23 165.26,-398.44 178,-380 193.48,-357.59 221.18,-345.04 245.63,-338.06"/>
<polygon fill="midnightblue" stroke="midnightblue" points="166.33,-443.84 171.73,-452.96 173.19,-442.47 166.33,-443.84"/>
</g>
<!-- Node13 -->
<g id="node13" class="node">
<title>Node13</title>
<g id="a_node13"><a xlink:href="http__node__client_8h.html" target="_top" xlink:title=" ">
<polygon fill="white" stroke="black" points="200,-246.5 200,-276.5 310,-276.5 310,-246.5 200,-246.5"/>
<text text-anchor="start" x="208" y="-264.5" font-family="Helvetica,sans-Serif" font-size="10.00">src/node/http_node</text>
<text text-anchor="middle" x="255" y="-253.5" font-family="Helvetica,sans-Serif" font-size="10.00">_client.h</text>
</a>
</g>
</g>
<!-- Node8&#45;&gt;Node13 -->
<g id="edge18" class="edge">
<title>Node8&#45;&gt;Node13</title>
<path fill="none" stroke="midnightblue" d="M167.14,-442.96C161.97,-426.12 156.89,-400.8 164,-380 178.78,-336.79 216.62,-297.16 238.57,-276.82"/>
<polygon fill="midnightblue" stroke="midnightblue" points="163.91,-444.32 170.42,-452.67 170.54,-442.08 163.91,-444.32"/>
</g>
<!-- Node14 -->
<g id="node14" class="node">
<title>Node14</title>
<g id="a_node14"><a xlink:href="retired__nodes__cleanup_8h.html" target="_top" xlink:title=" ">
<polygon fill="white" stroke="black" points="187,-380.5 187,-410.5 315,-410.5 315,-380.5 187,-380.5"/>
<text text-anchor="start" x="195" y="-398.5" font-family="Helvetica,sans-Serif" font-size="10.00">src/node/retired_nodes</text>
<text text-anchor="middle" x="251" y="-387.5" font-family="Helvetica,sans-Serif" font-size="10.00">_cleanup.h</text>
</a>
</g>
</g>
<!-- Node8&#45;&gt;Node14 -->
<g id="edge20" class="edge">
<title>Node8&#45;&gt;Node14</title>
<path fill="none" stroke="midnightblue" d="M192.08,-446.24C204.86,-435.45 221.86,-421.1 234.31,-410.59"/>
<polygon fill="midnightblue" stroke="midnightblue" points="189.77,-443.61 184.38,-452.73 194.28,-448.96 189.77,-443.61"/>
</g>
<!-- Node9&#45;&gt;Node10 -->
<g id="edge11" class="edge">
<title>Node9&#45;&gt;Node10</title>
<path fill="none" stroke="midnightblue" d="M363.01,-374.81C344.28,-362.51 321.12,-347.3 306.96,-338.01"/>
<polygon fill="midnightblue" stroke="midnightblue" points="361.24,-377.83 371.52,-380.4 365.08,-371.98 361.24,-377.83"/>
</g>
<!-- Node9&#45;&gt;Node11 -->
<g id="edge13" class="edge">
<title>Node9&#45;&gt;Node11</title>
<path fill="none" stroke="midnightblue" d="M445.18,-377.11C483.11,-364.46 532.82,-347.89 562.48,-338.01"/>
<polygon fill="midnightblue" stroke="midnightblue" points="443.69,-373.91 435.31,-380.4 445.91,-380.55 443.69,-373.91"/>
</g>
<!-- Node10&#45;&gt;Node6 -->
<g id="edge12" class="edge">
<title>Node10&#45;&gt;Node6</title>
<path fill="none" stroke="midnightblue" d="M303.65,-309.79C314.44,-291.48 333.53,-263.22 357,-246 385.92,-224.78 424.73,-211.59 453.65,-204.04"/>
<polygon fill="midnightblue" stroke="midnightblue" points="300.55,-308.15 298.65,-318.57 306.64,-311.61 300.55,-308.15"/>
</g>
<!-- Node11&#45;&gt;Node3 -->
<g id="edge14" class="edge">
<title>Node11&#45;&gt;Node3</title>
<path fill="none" stroke="midnightblue" d="M610.37,-313.18C682.89,-266.9 908.9,-123.62 946,-112 1056.86,-77.28 1404.32,-69.33 1545.97,-67.53"/>
<polygon fill="midnightblue" stroke="midnightblue" points="608.11,-310.48 601.57,-318.81 611.88,-316.38 608.11,-310.48"/>
</g>
<!-- Node12 -->
<g id="node12" class="node">
<title>Node12</title>
<g id="a_node12"><a xlink:href="jwt__key__auto__refresh_8h.html" target="_top" xlink:title=" ">
<polygon fill="white" stroke="black" points="532.5,-246.5 532.5,-276.5 657.5,-276.5 657.5,-246.5 532.5,-246.5"/>
<text text-anchor="start" x="540.5" y="-264.5" font-family="Helvetica,sans-Serif" font-size="10.00">src/node/jwt_key_auto</text>
<text text-anchor="middle" x="595" y="-253.5" font-family="Helvetica,sans-Serif" font-size="10.00">_refresh.h</text>
</a>
</g>
</g>
<!-- Node11&#45;&gt;Node12 -->
<g id="edge15" class="edge">
<title>Node11&#45;&gt;Node12</title>
<path fill="none" stroke="midnightblue" d="M590.02,-308.74C591.12,-298.49 592.47,-286 593.48,-276.59"/>
<polygon fill="midnightblue" stroke="midnightblue" points="586.53,-308.42 588.94,-318.73 593.49,-309.17 586.53,-308.42"/>
</g>
<!-- Node12&#45;&gt;Node6 -->
<g id="edge16" class="edge">
<title>Node12&#45;&gt;Node6</title>
<path fill="none" stroke="midnightblue" d="M564.66,-240.97C545.51,-228.65 521.73,-213.35 507.22,-204.01"/>
<polygon fill="midnightblue" stroke="midnightblue" points="562.78,-243.93 573.08,-246.4 566.57,-238.04 562.78,-243.93"/>
</g>
<!-- Node13&#45;&gt;Node6 -->
<g id="edge19" class="edge">
<title>Node13&#45;&gt;Node6</title>
<path fill="none" stroke="midnightblue" d="M316.29,-243.83C363.07,-231.11 425.59,-214.11 462.64,-204.03"/>
<polygon fill="midnightblue" stroke="midnightblue" points="315.3,-240.47 306.57,-246.48 317.13,-247.23 315.3,-240.47"/>
</g>
<!-- Node14&#45;&gt;Node10 -->
<g id="edge21" class="edge">
<title>Node14&#45;&gt;Node10</title>
<path fill="none" stroke="midnightblue" d="M265.9,-371.97C273.6,-360.33 282.56,-346.8 288.25,-338.19"/>
<polygon fill="midnightblue" stroke="midnightblue" points="262.93,-370.12 260.33,-380.4 268.77,-373.99 262.93,-370.12"/>
</g>
<!-- Node15&#45;&gt;Node6 -->
<g id="edge24" class="edge">
<title>Node15&#45;&gt;Node6</title>
<path fill="none" stroke="midnightblue" d="M171.83,-249.86C178.26,-248.51 184.79,-247.19 191,-246 276.9,-229.56 377.09,-213.46 438.01,-204.01"/>
<polygon fill="midnightblue" stroke="midnightblue" points="170.9,-246.48 161.85,-251.98 172.36,-253.32 170.9,-246.48"/>
</g>
<!-- Node16&#45;&gt;Node11 -->
<g id="edge62" class="edge">
<title>Node16&#45;&gt;Node11</title>
<path fill="none" stroke="midnightblue" d="M1475.05,-521.72C1275.68,-518.38 812.71,-507.52 748,-478 692.81,-452.83 698.17,-420.49 653,-380 635.55,-364.36 613.78,-348.03 600.39,-338.32"/>
<polygon fill="midnightblue" stroke="midnightblue" points="1475.15,-525.22 1485.21,-521.89 1475.27,-518.22 1475.15,-525.22"/>
</g>
<!-- Node17 -->
<g id="node17" class="node">
<title>Node17</title>
<g id="a_node17"><a xlink:href="wrap_8cpp.html" target="_top" xlink:title=" ">
<polygon fill="white" stroke="black" points="1199.5,-252 1199.5,-271 1288.5,-271 1288.5,-252 1199.5,-252"/>
<text text-anchor="middle" x="1244" y="-259" font-family="Helvetica,sans-Serif" font-size="10.00">src/js/wrap.cpp</text>
</a>
</g>
</g>
<!-- Node16&#45;&gt;Node17 -->
<g id="edge27" class="edge">
<title>Node16&#45;&gt;Node17</title>
<path fill="none" stroke="midnightblue" d="M1501.34,-512.8C1363.48,-489.6 1048.19,-428.27 986,-344 931.26,-269.82 1112.07,-261.48 1199.45,-261.62"/>
<polygon fill="midnightblue" stroke="midnightblue" points="1500.91,-516.28 1511.35,-514.47 1502.06,-509.37 1500.91,-516.28"/>
</g>
<!-- Node18 -->
<g id="node18" class="node">
<title>Node18</title>
<g id="a_node18"><a xlink:href="wrap_8h.html" target="_top" xlink:title=" ">
<polygon fill="white" stroke="black" points="1436,-386 1436,-405 1514,-405 1514,-386 1436,-386"/>
<text text-anchor="middle" x="1475" y="-393" font-family="Helvetica,sans-Serif" font-size="10.00">src/js/wrap.h</text>
</a>
</g>
</g>
<!-- Node16&#45;&gt;Node18 -->
<g id="edge28" class="edge">
<title>Node16&#45;&gt;Node18</title>
<path fill="none" stroke="midnightblue" d="M1553.86,-506.12C1534.24,-478.86 1496.28,-426.08 1481.3,-405.26"/>
<polygon fill="midnightblue" stroke="midnightblue" points="1551.06,-508.23 1559.75,-514.31 1556.75,-504.14 1551.06,-508.23"/>
</g>
<!-- Node25 -->
<g id="node25" class="node">
<title>Node25</title>
<g id="a_node25"><a xlink:href="member__frontend_8h.html" target="_top" xlink:title=" ">
<polygon fill="white" stroke="black" points="1835,-313.5 1835,-343.5 1955,-343.5 1955,-313.5 1835,-313.5"/>
<text text-anchor="start" x="1843" y="-331.5" font-family="Helvetica,sans-Serif" font-size="10.00">src/node/rpc/member</text>
<text text-anchor="middle" x="1895" y="-320.5" font-family="Helvetica,sans-Serif" font-size="10.00">_frontend.h</text>
</a>
</g>
</g>
<!-- Node16&#45;&gt;Node25 -->
<g id="edge58" class="edge">
<title>Node16&#45;&gt;Node25</title>
<path fill="none" stroke="midnightblue" d="M1574.38,-505.15C1589.76,-474.46 1625.5,-411.91 1675,-380 1681.82,-375.6 1772.04,-355.73 1834.8,-342.26"/>
<polygon fill="midnightblue" stroke="midnightblue" points="1571.18,-503.72 1569.96,-514.25 1577.48,-506.79 1571.18,-503.72"/>
</g>
<!-- Node26 -->
<g id="node26" class="node">
<title>Node26</title>
<g id="a_node26"><a xlink:href="historical__queries_8h.html" target="_top" xlink:title=" ">
<polygon fill="white" stroke="black" points="1965,-179.5 1965,-209.5 2071,-209.5 2071,-179.5 1965,-179.5"/>
<text text-anchor="start" x="1973" y="-197.5" font-family="Helvetica,sans-Serif" font-size="10.00">src/node/historical</text>
<text text-anchor="middle" x="2018" y="-186.5" font-family="Helvetica,sans-Serif" font-size="10.00">_queries.h</text>
</a>
</g>
</g>
<!-- Node16&#45;&gt;Node26 -->
<g id="edge44" class="edge">
<title>Node16&#45;&gt;Node26</title>
<path fill="none" stroke="midnightblue" d="M1656.96,-519.98C1744.8,-512.33 1876.32,-487.69 1959,-411 2018.15,-356.13 2020.13,-248.16 2018.79,-209.6"/>
<polygon fill="midnightblue" stroke="midnightblue" points="1656.42,-516.51 1646.74,-520.81 1656.99,-523.49 1656.42,-516.51"/>
</g>
<!-- Node28 -->
<g id="node28" class="node">
<title>Node28</title>
<g id="a_node28"><a xlink:href="node__configuration__subsystem_8h.html" target="_top" xlink:title=" ">
<polygon fill="white" stroke="black" points="757,-447.5 757,-477.5 911,-477.5 911,-447.5 757,-447.5"/>
<text text-anchor="start" x="765" y="-465.5" font-family="Helvetica,sans-Serif" font-size="10.00">src/node/node_configuration</text>
<text text-anchor="middle" x="834" y="-454.5" font-family="Helvetica,sans-Serif" font-size="10.00">_subsystem.h</text>
</a>
</g>
</g>
<!-- Node16&#45;&gt;Node28 -->
<g id="edge48" class="edge">
<title>Node16&#45;&gt;Node28</title>
<path fill="none" stroke="midnightblue" d="M1474.85,-517.68C1355.01,-510.37 1137.98,-496.05 953,-478 939.43,-476.68 925.02,-475.08 911.08,-473.44"/>
<polygon fill="midnightblue" stroke="midnightblue" points="1474.88,-521.19 1485.08,-518.3 1475.31,-514.2 1474.88,-521.19"/>
</g>
<!-- Node32 -->
<g id="node32" class="node">
<title>Node32</title>
<g id="a_node32"><a xlink:href="network__identity__subsystem_8h.html" target="_top" xlink:title=" ">
<polygon fill="white" stroke="black" points="1680.5,-447.5 1680.5,-477.5 1807.5,-477.5 1807.5,-447.5 1680.5,-447.5"/>
<text text-anchor="start" x="1688.5" y="-465.5" font-family="Helvetica,sans-Serif" font-size="10.00">src/node/rpc/network</text>
<text text-anchor="middle" x="1744" y="-454.5" font-family="Helvetica,sans-Serif" font-size="10.00">_identity_subsystem.h</text>
</a>
</g>
</g>
<!-- Node16&#45;&gt;Node32 -->
<g id="edge59" class="edge">
<title>Node16&#45;&gt;Node32</title>
<path fill="none" stroke="midnightblue" d="M1601.21,-511.23C1630.19,-501.54 1671.36,-487.78 1702.05,-477.52"/>
<polygon fill="midnightblue" stroke="midnightblue" points="1599.88,-507.99 1591.5,-514.48 1602.1,-514.62 1599.88,-507.99"/>
</g>
<!-- Node34 -->
<g id="node34" class="node">
<title>Node34</title>
<g id="a_node34"><a xlink:href="node__operation_8h.html" target="_top" xlink:title=" ">
<polygon fill="white" stroke="black" points="2011,-453 2011,-472 2175,-472 2175,-453 2011,-453"/>
<text text-anchor="middle" x="2093" y="-460" font-family="Helvetica,sans-Serif" font-size="10.00">src/node/rpc/node_operation.h</text>
</a>
</g>
</g>
<!-- Node16&#45;&gt;Node34 -->
<g id="edge63" class="edge">
<title>Node16&#45;&gt;Node34</title>
<path fill="none" stroke="midnightblue" d="M1651.73,-513.32C1753.28,-501.86 1920.85,-482.94 2017.63,-472.01"/>
<polygon fill="midnightblue" stroke="midnightblue" points="1651.05,-509.88 1641.51,-514.48 1651.84,-516.83 1651.05,-509.88"/>
</g>
<!-- Node18&#45;&gt;Node3 -->
<g id="edge30" class="edge">
<title>Node18&#45;&gt;Node3</title>
<path fill="none" stroke="midnightblue" d="M1524.04,-389.6C1607.25,-380.84 1768.97,-361.75 1788,-344 1815.19,-318.62 1807,-299.69 1807,-262.5 1807,-262.5 1807,-262.5 1807,-193.5 1807,-121.81 1714.07,-89.08 1654.9,-75.5"/>
<polygon fill="midnightblue" stroke="midnightblue" points="1523.64,-386.12 1514.05,-390.64 1524.36,-393.08 1523.64,-386.12"/>
</g>
<!-- Node18&#45;&gt;Node6 -->
<g id="edge41" class="edge">
<title>Node18&#45;&gt;Node6</title>
<path fill="none" stroke="midnightblue" d="M1425.83,-392.96C1337.06,-389.39 1144.52,-378.09 986,-344 850.93,-314.95 823.55,-284.95 691,-246 635.45,-229.67 570.22,-213.54 530.52,-204.05"/>
<polygon fill="midnightblue" stroke="midnightblue" points="1425.75,-396.46 1435.88,-393.35 1426.02,-389.46 1425.75,-396.46"/>
</g>
<!-- Node18&#45;&gt;Node17 -->
<g id="edge40" class="edge">
<title>Node18&#45;&gt;Node17</title>
<path fill="none" stroke="midnightblue" d="M1425.72,-394.28C1344.16,-392.74 1186.64,-384.47 1152,-344 1126.4,-314.09 1185.49,-284.96 1220.49,-271.02"/>
<polygon fill="midnightblue" stroke="midnightblue" points="1425.7,-397.78 1435.75,-394.44 1425.81,-390.78 1425.7,-397.78"/>
</g>
<!-- Node19 -->
<g id="node19" class="node">
<title>Node19</title>
<g id="a_node19"><a xlink:href="js__generic__base_8cpp.html" target="_top" xlink:title=" ">
<polygon fill="white" stroke="black" points="1161,-313.5 1161,-343.5 1279,-343.5 1279,-313.5 1161,-313.5"/>
<text text-anchor="start" x="1169" y="-331.5" font-family="Helvetica,sans-Serif" font-size="10.00">src/apps/js_generic</text>
<text text-anchor="middle" x="1220" y="-320.5" font-family="Helvetica,sans-Serif" font-size="10.00">/js_generic_base.cpp</text>
</a>
</g>
</g>
<!-- Node18&#45;&gt;Node19 -->
<g id="edge29" class="edge">
<title>Node18&#45;&gt;Node19</title>
<path fill="none" stroke="midnightblue" d="M1431.49,-383.41C1388.31,-372.4 1322,-355.5 1275.16,-343.56"/>
<polygon fill="midnightblue" stroke="midnightblue" points="1430.85,-386.86 1441.4,-385.94 1432.58,-380.07 1430.85,-386.86"/>
</g>
<!-- Node20 -->
<g id="node20" class="node">
<title>Node20</title>
<g id="a_node20"><a xlink:href="js_2consensus_8cpp.html" target="_top" xlink:title=" ">
<polygon fill="white" stroke="black" points="1297,-319 1297,-338 1413,-338 1413,-319 1297,-319"/>
<text text-anchor="middle" x="1355" y="-326" font-family="Helvetica,sans-Serif" font-size="10.00">src/js/consensus.cpp</text>
</a>
</g>
</g>
<!-- Node18&#45;&gt;Node20 -->
<g id="edge31" class="edge">
<title>Node18&#45;&gt;Node20</title>
<path fill="none" stroke="midnightblue" d="M1450,-380.96C1426.21,-368.07 1391.13,-349.07 1370.93,-338.13"/>
<polygon fill="midnightblue" stroke="midnightblue" points="1448.36,-384.05 1458.82,-385.73 1451.69,-377.89 1448.36,-384.05"/>
</g>
<!-- Node21 -->
<g id="node21" class="node">
<title>Node21</title>
<g id="a_node21"><a xlink:href="conv_8cpp.html" target="_top" xlink:title=" ">
<polygon fill="white" stroke="black" points="1431,-319 1431,-338 1519,-338 1519,-319 1431,-319"/>
<text text-anchor="middle" x="1475" y="-326" font-family="Helvetica,sans-Serif" font-size="10.00">src/js/conv.cpp</text>
</a>
</g>
</g>
<!-- Node18&#45;&gt;Node21 -->
<g id="edge33" class="edge">
<title>Node18&#45;&gt;Node21</title>
<path fill="none" stroke="midnightblue" d="M1475,-375.54C1475,-363.17 1475,-347.62 1475,-338.13"/>
<polygon fill="midnightblue" stroke="midnightblue" points="1471.5,-375.73 1475,-385.73 1478.5,-375.73 1471.5,-375.73"/>
</g>
<!-- Node22 -->
<g id="node22" class="node">
<title>Node22</title>
<g id="a_node22"><a xlink:href="js_2crypto_8cpp.html" target="_top" xlink:title=" ">
<polygon fill="white" stroke="black" points="1537,-319 1537,-338 1633,-338 1633,-319 1537,-319"/>
<text text-anchor="middle" x="1585" y="-326" font-family="Helvetica,sans-Serif" font-size="10.00">src/js/crypto.cpp</text>
</a>
</g>
</g>
<!-- Node18&#45;&gt;Node22 -->
<g id="edge35" class="edge">
<title>Node18&#45;&gt;Node22</title>
<path fill="none" stroke="midnightblue" d="M1498.5,-380.62C1520.29,-367.74 1552.04,-348.98 1570.4,-338.13"/>
<polygon fill="midnightblue" stroke="midnightblue" points="1496.66,-377.63 1489.84,-385.73 1500.22,-383.66 1496.66,-377.63"/>
</g>
<!-- Node23 -->
<g id="node23" class="node">
<title>Node23</title>
<g id="a_node23"><a xlink:href="js_2historical_8cpp.html" target="_top" xlink:title=" ">
<polygon fill="white" stroke="black" points="995,-319 995,-338 1105,-338 1105,-319 995,-319"/>
<text text-anchor="middle" x="1050" y="-326" font-family="Helvetica,sans-Serif" font-size="10.00">src/js/historical.cpp</text>
</a>
</g>
</g>
<!-- Node18&#45;&gt;Node23 -->
<g id="edge37" class="edge">
<title>Node18&#45;&gt;Node23</title>
<path fill="none" stroke="midnightblue" d="M1425.77,-388.56C1356.92,-380.02 1228.06,-363.17 1119,-344 1108.99,-342.24 1098.22,-340.1 1088.23,-338.01"/>
<polygon fill="midnightblue" stroke="midnightblue" points="1425.53,-392.06 1435.88,-389.81 1426.39,-385.11 1425.53,-392.06"/>
</g>
<!-- Node24 -->
<g id="node24" class="node">
<title>Node24</title>
<g id="a_node24"><a xlink:href="openenclave_8cpp.html" target="_top" xlink:title=" ">
<polygon fill="white" stroke="black" points="1651,-319 1651,-338 1779,-338 1779,-319 1651,-319"/>
<text text-anchor="middle" x="1715" y="-326" font-family="Helvetica,sans-Serif" font-size="10.00">src/js/openenclave.cpp</text>
</a>
</g>
</g>
<!-- Node18&#45;&gt;Node24 -->
<g id="edge39" class="edge">
<title>Node18&#45;&gt;Node24</title>
<path fill="none" stroke="midnightblue" d="M1516.53,-383.25C1563.96,-370.41 1640.54,-349.67 1683.38,-338.06"/>
<polygon fill="midnightblue" stroke="midnightblue" points="1515.61,-379.88 1506.87,-385.87 1517.44,-386.63 1515.61,-379.88"/>
</g>
<!-- Node18&#45;&gt;Node25 -->
<g id="edge42" class="edge">
<title>Node18&#45;&gt;Node25</title>
<path fill="none" stroke="midnightblue" d="M1524.04,-387.64C1605.4,-376.21 1764.91,-353.58 1821,-344 1825.52,-343.23 1830.18,-342.4 1834.87,-341.54"/>
<polygon fill="midnightblue" stroke="midnightblue" points="1523.46,-384.19 1514.04,-389.05 1524.43,-391.12 1523.46,-384.19"/>
</g>
<!-- Node20&#45;&gt;Node17 -->
<g id="edge32" class="edge">
<title>Node20&#45;&gt;Node17</title>
<path fill="none" stroke="midnightblue" d="M1331.29,-313.62C1309.3,-300.74 1277.26,-281.98 1258.73,-271.13"/>
<polygon fill="midnightblue" stroke="midnightblue" points="1329.63,-316.7 1340.03,-318.73 1333.17,-310.66 1329.63,-316.7"/>
</g>
<!-- Node21&#45;&gt;Node17 -->
<g id="edge34" class="edge">
<title>Node21&#45;&gt;Node17</title>
<path fill="none" stroke="midnightblue" d="M1434.45,-316.09C1388.76,-303.23 1315.5,-282.62 1274.43,-271.06"/>
<polygon fill="midnightblue" stroke="midnightblue" points="1433.75,-319.53 1444.32,-318.87 1435.65,-312.79 1433.75,-319.53"/>
</g>
<!-- Node22&#45;&gt;Node17 -->
<g id="edge36" class="edge">
<title>Node22&#45;&gt;Node17</title>
<path fill="none" stroke="midnightblue" d="M1543.36,-316.53C1538.2,-315.28 1532.99,-314.08 1528,-313 1444.05,-294.88 1345.12,-278.38 1288.96,-269.45"/>
<polygon fill="midnightblue" stroke="midnightblue" points="1542.59,-319.95 1553.14,-318.96 1544.28,-313.15 1542.59,-319.95"/>
</g>
<!-- Node23&#45;&gt;Node17 -->
<g id="edge38" class="edge">
<title>Node23&#45;&gt;Node17</title>
<path fill="none" stroke="midnightblue" d="M1085.51,-315.6C1123.98,-302.71 1184.39,-282.47 1218.44,-271.06"/>
<polygon fill="midnightblue" stroke="midnightblue" points="1084.13,-312.37 1075.76,-318.87 1086.36,-319.01 1084.13,-312.37"/>
</g>
<!-- Node25&#45;&gt;Node3 -->
<g id="edge43" class="edge">
<title>Node25&#45;&gt;Node3</title>
<path fill="none" stroke="midnightblue" d="M1894.12,-303.37C1891.1,-258.52 1877.96,-162.33 1821,-112 1798.67,-92.27 1723.24,-79.81 1668.24,-73.13"/>
<polygon fill="midnightblue" stroke="midnightblue" points="1890.62,-303.57 1894.67,-313.36 1897.61,-303.18 1890.62,-303.57"/>
</g>
<!-- Node26&#45;&gt;Node3 -->
<g id="edge45" class="edge">
<title>Node26&#45;&gt;Node3</title>
<path fill="none" stroke="midnightblue" d="M1989.95,-173.56C1956.11,-149.51 1903.61,-112.25 1903,-112 1825.88,-80.87 1729.54,-71.07 1668.12,-68.1"/>
<polygon fill="midnightblue" stroke="midnightblue" points="1987.93,-176.42 1998.11,-179.36 1991.99,-170.72 1987.93,-176.42"/>
</g>
<!-- Node27 -->
<g id="node27" class="node">
<title>Node27</title>
<g id="a_node27"><a xlink:href="historical__transaction__fetcher_8h.html" target="_top" xlink:title=" ">
<polygon fill="white" stroke="black" points="1955.5,-112.5 1955.5,-142.5 2080.5,-142.5 2080.5,-112.5 1955.5,-112.5"/>
<text text-anchor="start" x="1963.5" y="-130.5" font-family="Helvetica,sans-Serif" font-size="10.00">src/indexing/historical</text>
<text text-anchor="middle" x="2018" y="-119.5" font-family="Helvetica,sans-Serif" font-size="10.00">_transaction_fetcher.h</text>
</a>
</g>
</g>
<!-- Node26&#45;&gt;Node27 -->
<g id="edge46" class="edge">
<title>Node26&#45;&gt;Node27</title>
<path fill="none" stroke="midnightblue" d="M2018,-169.11C2018,-160.15 2018,-150.32 2018,-142.58"/>
<polygon fill="midnightblue" stroke="midnightblue" points="2014.5,-169.4 2018,-179.4 2021.5,-169.4 2014.5,-169.4"/>
</g>
<!-- Node27&#45;&gt;Node3 -->
<g id="edge47" class="edge">
<title>Node27&#45;&gt;Node3</title>
<path fill="none" stroke="midnightblue" d="M1945.45,-112.73C1943.95,-112.48 1942.47,-112.24 1941,-112 1845.98,-96.66 1735.17,-82.46 1668.09,-74.26"/>
<polygon fill="midnightblue" stroke="midnightblue" points="1944.99,-116.2 1955.43,-114.44 1946.17,-109.3 1944.99,-116.2"/>
</g>
<!-- Node29 -->
<g id="node29" class="node">
<title>Node29</title>
<g id="a_node29"><a xlink:href="frontend_8h.html" target="_top" xlink:title=" ">
<polygon fill="white" stroke="black" points="756.5,-386 756.5,-405 885.5,-405 885.5,-386 756.5,-386"/>
<text text-anchor="middle" x="821" y="-393" font-family="Helvetica,sans-Serif" font-size="10.00">src/node/rpc/frontend.h</text>
</a>
</g>
</g>
<!-- Node28&#45;&gt;Node29 -->
<g id="edge49" class="edge">
<title>Node28&#45;&gt;Node29</title>
<path fill="none" stroke="midnightblue" d="M829.15,-437.25C826.9,-426.02 824.38,-413.38 822.74,-405.19"/>
<polygon fill="midnightblue" stroke="midnightblue" points="825.79,-438.28 831.18,-447.4 832.65,-436.9 825.79,-438.28"/>
</g>
<!-- Node29&#45;&gt;Node6 -->
<g id="edge53" class="edge">
<title>Node29&#45;&gt;Node6</title>
<path fill="none" stroke="midnightblue" d="M779.86,-382.56C758.1,-374.54 732.19,-362.08 714,-344 679.74,-309.95 703.83,-277.26 667,-246 636.11,-219.78 592.2,-207.16 556.35,-201.1"/>
<polygon fill="midnightblue" stroke="midnightblue" points="778.93,-385.94 789.53,-385.93 781.24,-379.33 778.93,-385.94"/>
</g>
<!-- Node29&#45;&gt;Node11 -->
<g id="edge55" class="edge">
<title>Node29&#45;&gt;Node11</title>
<path fill="none" stroke="midnightblue" d="M780.39,-383.17C734.32,-370.32 660.2,-349.64 618.7,-338.06"/>
<polygon fill="midnightblue" stroke="midnightblue" points="779.49,-386.55 790.06,-385.87 781.37,-379.81 779.49,-386.55"/>
</g>
<!-- Node29&#45;&gt;Node25 -->
<g id="edge54" class="edge">
<title>Node29&#45;&gt;Node25</title>
<path fill="none" stroke="midnightblue" d="M896.02,-392.69C1058.77,-388.3 1456.34,-375.08 1788,-344 1803.21,-342.57 1819.58,-340.59 1834.83,-338.54"/>
<polygon fill="midnightblue" stroke="midnightblue" points="895.54,-389.2 885.64,-392.97 895.73,-396.2 895.54,-389.2"/>
</g>
<!-- Node30 -->
<g id="node30" class="node">
<title>Node30</title>
<g id="a_node30"><a xlink:href="acme__challenge__frontend_8h.html" target="_top" xlink:title=" ">
<polygon fill="white" stroke="black" points="723,-313.5 723,-343.5 863,-343.5 863,-313.5 723,-313.5"/>
<text text-anchor="start" x="731" y="-331.5" font-family="Helvetica,sans-Serif" font-size="10.00">src/node/acme_challenge</text>
<text text-anchor="middle" x="793" y="-320.5" font-family="Helvetica,sans-Serif" font-size="10.00">_frontend.h</text>
</a>
</g>
</g>
<!-- Node29&#45;&gt;Node30 -->
<g id="edge50" class="edge">
<title>Node29&#45;&gt;Node30</title>
<path fill="none" stroke="midnightblue" d="M813.2,-376.39C808.73,-366.02 803.21,-353.2 799.07,-343.59"/>
<polygon fill="midnightblue" stroke="midnightblue" points="810.05,-377.93 817.22,-385.73 816.48,-375.16 810.05,-377.93"/>
</g>
<!-- Node31 -->
<g id="node31" class="node">
<title>Node31</title>
<g id="a_node31"><a xlink:href="user__frontend_8h.html" target="_top" xlink:title=" ">
<polygon fill="white" stroke="black" points="875.5,-185 875.5,-204 1030.5,-204 1030.5,-185 875.5,-185"/>
<text text-anchor="middle" x="953" y="-192" font-family="Helvetica,sans-Serif" font-size="10.00">src/node/rpc/user_frontend.h</text>
</a>
</g>
</g>
<!-- Node29&#45;&gt;Node31 -->
<g id="edge56" class="edge">
<title>Node29&#45;&gt;Node31</title>
<path fill="none" stroke="midnightblue" d="M838.97,-379.12C849.38,-369.65 862.31,-356.89 872,-344 908.72,-295.18 939.24,-227.66 949.4,-204.06"/>
<polygon fill="midnightblue" stroke="midnightblue" points="836.43,-376.7 831.27,-385.95 841.07,-381.93 836.43,-376.7"/>
</g>
<!-- Node30&#45;&gt;Node3 -->
<g id="edge51" class="edge">
<title>Node30&#45;&gt;Node3</title>
<path fill="none" stroke="midnightblue" d="M797.95,-303.55C806.18,-270.12 825.99,-210.1 867,-179 973.7,-98.08 1388.32,-74.86 1545.83,-68.88"/>
<polygon fill="midnightblue" stroke="midnightblue" points="794.52,-302.86 795.68,-313.39 801.34,-304.44 794.52,-302.86"/>
</g>
<!-- Node30&#45;&gt;Node5 -->
<g id="edge52" class="edge">
<title>Node30&#45;&gt;Node5</title>
<path fill="none" stroke="midnightblue" d="M712.74,-312.72C642.83,-299.85 543.91,-281.63 486.41,-271.05"/>
<polygon fill="midnightblue" stroke="midnightblue" points="712.37,-316.21 722.84,-314.58 713.64,-309.33 712.37,-316.21"/>
</g>
<!-- Node31&#45;&gt;Node3 -->
<g id="edge57" class="edge">
<title>Node31&#45;&gt;Node3</title>
<path fill="none" stroke="midnightblue" d="M1007.04,-183.05C1133.52,-158.58 1446.87,-97.97 1562.88,-75.53"/>
<polygon fill="midnightblue" stroke="midnightblue" points="1006.34,-179.62 997.18,-184.95 1007.66,-186.49 1006.34,-179.62"/>
</g>
<!-- Node32&#45;&gt;Node3 -->
<g id="edge60" class="edge">
<title>Node32&#45;&gt;Node3</title>
<path fill="none" stroke="midnightblue" d="M1817.6,-445.7C1888.84,-425.96 1983.44,-385.59 1964,-313 1937.31,-213.37 1932.19,-171.59 1848,-112 1819.69,-91.96 1729.72,-79.19 1668.1,-72.57"/>
<polygon fill="midnightblue" stroke="midnightblue" points="1816.47,-442.38 1807.71,-448.35 1818.28,-449.14 1816.47,-442.38"/>
</g>
<!-- Node33 -->
<g id="node33" class="node">
<title>Node33</title>
<g id="a_node33"><a xlink:href="historical__queries__adapter_8cpp.html" target="_top" xlink:title=" ">
<polygon fill="white" stroke="black" points="1684,-380.5 1684,-410.5 1804,-410.5 1804,-380.5 1684,-380.5"/>
<text text-anchor="start" x="1692" y="-398.5" font-family="Helvetica,sans-Serif" font-size="10.00">src/node/historical</text>
<text text-anchor="middle" x="1744" y="-387.5" font-family="Helvetica,sans-Serif" font-size="10.00">_queries_adapter.cpp</text>
</a>
</g>
</g>
<!-- Node32&#45;&gt;Node33 -->
<g id="edge61" class="edge">
<title>Node32&#45;&gt;Node33</title>
<path fill="none" stroke="midnightblue" d="M1744,-437.11C1744,-428.15 1744,-418.32 1744,-410.58"/>
<polygon fill="midnightblue" stroke="midnightblue" points="1740.5,-437.4 1744,-447.4 1747.5,-437.4 1740.5,-437.4"/>
</g>
<!-- Node34&#45;&gt;Node3 -->
<g id="edge64" class="edge">
<title>Node34&#45;&gt;Node3</title>
<path fill="none" stroke="midnightblue" d="M2096.71,-442.8C2101.43,-417.3 2109,-370.14 2109,-329.5 2109,-329.5 2109,-329.5 2109,-193.5 2109,-156.31 2118.03,-136.45 2090,-112 2058.82,-84.8 1790.94,-72.84 1668.09,-68.76"/>
<polygon fill="midnightblue" stroke="midnightblue" points="2093.22,-442.41 2094.77,-452.9 2100.09,-443.73 2093.22,-442.41"/>
</g>
<!-- Node35&#45;&gt;Node16 -->
<g id="edge67" class="edge">
<title>Node35&#45;&gt;Node16</title>
<path fill="none" stroke="midnightblue" d="M1671.02,-566.66C1643.51,-555.75 1609.54,-542.27 1587.83,-533.66"/>
<polygon fill="midnightblue" stroke="midnightblue" points="1669.87,-569.97 1680.45,-570.4 1672.45,-563.46 1669.87,-569.97"/>
</g>
<!-- Node35&#45;&gt;Node25 -->
<g id="edge66" class="edge">
<title>Node35&#45;&gt;Node25</title>
<path fill="none" stroke="midnightblue" d="M1739.29,-563.53C1761.11,-543.11 1793.75,-510.48 1817,-478 1849.71,-432.3 1877.43,-371.1 1889.1,-343.75"/>
<polygon fill="midnightblue" stroke="midnightblue" points="1736.74,-561.12 1731.78,-570.48 1741.49,-566.26 1736.74,-561.12"/>
</g>
<!-- Node35&#45;&gt;Node34 -->
<g id="edge68" class="edge">
<title>Node35&#45;&gt;Node34</title>
<path fill="none" stroke="midnightblue" d="M1803.61,-579.03C1860.58,-573.03 1935.45,-560.43 1997,-534 2033.1,-518.5 2068.5,-487.17 2084.35,-472.05"/>
<polygon fill="midnightblue" stroke="midnightblue" points="1803.14,-575.56 1793.54,-580.05 1803.84,-582.53 1803.14,-575.56"/>
</g>
</g>
</svg>
