<?xml version="1.0" encoding="UTF-8" standalone="no"?>
<!DOCTYPE svg PUBLIC "-//W3C//DTD SVG 1.1//EN"
 "http://www.w3.org/Graphics/SVG/1.1/DTD/svg11.dtd">
<!-- Generated by graphviz version 2.43.0 (0)
 -->
<!-- Title: src/enclave/endpoint.h Pages: 1 -->
<svg width="1206pt" height="945pt"
 viewBox="0.00 0.00 1206.00 945.00" xmlns="http://www.w3.org/2000/svg" xmlns:xlink="http://www.w3.org/1999/xlink">
<g id="graph0" class="graph" transform="scale(1 1) rotate(0) translate(4 941)">
<title>src/enclave/endpoint.h</title>
<polygon fill="white" stroke="transparent" points="-4,4 -4,-941 1202,-941 1202,4 -4,4"/>
<!-- Node1 -->
<g id="node1" class="node">
<title>Node1</title>
<g id="a_node1"><a xlink:title=" ">
<polygon fill="#bfbfbf" stroke="black" points="624.5,-917.5 624.5,-936.5 751.5,-936.5 751.5,-917.5 624.5,-917.5"/>
<text text-anchor="middle" x="688" y="-924.5" font-family="Helvetica,sans-Serif" font-size="10.00">src/enclave/endpoint.h</text>
</a>
</g>
</g>
<!-- Node2 -->
<g id="node2" class="node">
<title>Node2</title>
<g id="a_node2"><a xlink:href="tls__endpoint_8h.html" target="_top" xlink:title=" ">
<polygon fill="white" stroke="black" points="566,-861.5 566,-880.5 710,-880.5 710,-861.5 566,-861.5"/>
<text text-anchor="middle" x="638" y="-868.5" font-family="Helvetica,sans-Serif" font-size="10.00">src/enclave/tls_endpoint.h</text>
</a>
</g>
</g>
<!-- Node1&#45;&gt;Node2 -->
<g id="edge1" class="edge">
<title>Node1&#45;&gt;Node2</title>
<path fill="none" stroke="midnightblue" d="M672.92,-909.72C664.11,-900.2 653.33,-888.56 646.1,-880.75"/>
<polygon fill="midnightblue" stroke="midnightblue" points="670.38,-912.12 679.74,-917.08 675.52,-907.37 670.38,-912.12"/>
</g>
<!-- Node36 -->
<g id="node36" class="node">
<title>Node36</title>
<g id="a_node36"><a xlink:href="quic__endpoint_8h.html" target="_top" xlink:title=" ">
<polygon fill="white" stroke="black" points="723,-805.5 723,-824.5 857,-824.5 857,-805.5 723,-805.5"/>
<text text-anchor="middle" x="790" y="-812.5" font-family="Helvetica,sans-Serif" font-size="10.00">src/quic/quic_endpoint.h</text>
</a>
</g>
</g>
<!-- Node1&#45;&gt;Node36 -->
<g id="edge60" class="edge">
<title>Node1&#45;&gt;Node36</title>
<path fill="none" stroke="midnightblue" d="M702.93,-909.9C724.86,-886.25 765.01,-842.95 782.03,-824.59"/>
<polygon fill="midnightblue" stroke="midnightblue" points="700.24,-907.66 696,-917.37 705.37,-912.42 700.24,-907.66"/>
</g>
<!-- Node3 -->
<g id="node3" class="node">
<title>Node3</title>
<g id="a_node3"><a xlink:href="http__parser_8h.html" target="_top" xlink:title=" ">
<polygon fill="white" stroke="black" points="494,-749.5 494,-768.5 614,-768.5 614,-749.5 494,-749.5"/>
<text text-anchor="middle" x="554" y="-756.5" font-family="Helvetica,sans-Serif" font-size="10.00">src/http/http_parser.h</text>
</a>
</g>
</g>
<!-- Node2&#45;&gt;Node3 -->
<g id="edge2" class="edge">
<title>Node2&#45;&gt;Node3</title>
<path fill="none" stroke="midnightblue" d="M610.05,-856.38C597.1,-848.77 582.5,-838.17 573,-825 560.48,-807.65 556.16,-782.11 554.71,-768.8"/>
<polygon fill="midnightblue" stroke="midnightblue" points="608.66,-859.6 619.1,-861.37 612.04,-853.47 608.66,-859.6"/>
</g>
<!-- Node35 -->
<g id="node35" class="node">
<title>Node35</title>
<g id="a_node35"><a xlink:href="http__proc_8h.html" target="_top" xlink:title=" ">
<polygon fill="white" stroke="black" points="582.5,-805.5 582.5,-824.5 693.5,-824.5 693.5,-805.5 582.5,-805.5"/>
<text text-anchor="middle" x="638" y="-812.5" font-family="Helvetica,sans-Serif" font-size="10.00">src/http/http_proc.h</text>
</a>
</g>
</g>
<!-- Node2&#45;&gt;Node35 -->
<g id="edge58" class="edge">
<title>Node2&#45;&gt;Node35</title>
<path fill="none" stroke="midnightblue" d="M638,-850.8C638,-841.91 638,-831.78 638,-824.75"/>
<polygon fill="midnightblue" stroke="midnightblue" points="634.5,-851.08 638,-861.08 641.5,-851.08 634.5,-851.08"/>
</g>
<!-- Node4 -->
<g id="node4" class="node">
<title>Node4</title>
<g id="a_node4"><a xlink:href="rpc__tls__client_8h.html" target="_top" xlink:title=" ">
<polygon fill="white" stroke="black" points="52.5,-626.5 52.5,-656.5 153.5,-656.5 153.5,-626.5 52.5,-626.5"/>
<text text-anchor="start" x="60.5" y="-644.5" font-family="Helvetica,sans-Serif" font-size="10.00">src/clients/rpc_tls</text>
<text text-anchor="middle" x="103" y="-633.5" font-family="Helvetica,sans-Serif" font-size="10.00">_client.h</text>
</a>
</g>
</g>
<!-- Node3&#45;&gt;Node4 -->
<g id="edge3" class="edge">
<title>Node3&#45;&gt;Node4</title>
<path fill="none" stroke="midnightblue" d="M490.88,-747.77C444.19,-739.71 379.23,-727.43 323,-713 258.71,-696.5 185.59,-671.87 141.94,-656.52"/>
<polygon fill="midnightblue" stroke="midnightblue" points="490.4,-751.24 500.85,-749.48 491.58,-744.34 490.4,-751.24"/>
</g>
<!-- Node9 -->
<g id="node9" class="node">
<title>Node9</title>
<g id="a_node9"><a xlink:href="http__endpoint_8h.html" target="_top" xlink:title=" ">
<polygon fill="white" stroke="black" points="665.5,-570.5 665.5,-589.5 798.5,-589.5 798.5,-570.5 665.5,-570.5"/>
<text text-anchor="middle" x="732" y="-577.5" font-family="Helvetica,sans-Serif" font-size="10.00">src/http/http_endpoint.h</text>
</a>
</g>
</g>
<!-- Node3&#45;&gt;Node9 -->
<g id="edge9" class="edge">
<title>Node3&#45;&gt;Node9</title>
<path fill="none" stroke="midnightblue" d="M587.12,-745.5C623.26,-730.14 680.19,-700.65 712,-657 727.1,-636.27 730.81,-605 731.71,-589.85"/>
<polygon fill="midnightblue" stroke="midnightblue" points="585.43,-742.41 577.51,-749.45 588.09,-748.88 585.43,-742.41"/>
</g>
<!-- Node24 -->
<g id="node24" class="node">
<title>Node24</title>
<g id="a_node24"><a xlink:href="http__jwt_8h.html" target="_top" xlink:title=" ">
<polygon fill="white" stroke="black" points="501.5,-693.5 501.5,-712.5 606.5,-712.5 606.5,-693.5 501.5,-693.5"/>
<text text-anchor="middle" x="554" y="-700.5" font-family="Helvetica,sans-Serif" font-size="10.00">src/http/http_jwt.h</text>
</a>
</g>
</g>
<!-- Node3&#45;&gt;Node24 -->
<g id="edge34" class="edge">
<title>Node3&#45;&gt;Node24</title>
<path fill="none" stroke="midnightblue" d="M554,-738.8C554,-729.91 554,-719.78 554,-712.75"/>
<polygon fill="midnightblue" stroke="midnightblue" points="550.5,-739.08 554,-749.08 557.5,-739.08 550.5,-739.08"/>
</g>
<!-- Node30 -->
<g id="node30" class="node">
<title>Node30</title>
<g id="a_node30"><a xlink:href="http__rpc__context_8h.html" target="_top" xlink:title=" ">
<polygon fill="white" stroke="black" points="344.5,-632 344.5,-651 491.5,-651 491.5,-632 344.5,-632"/>
<text text-anchor="middle" x="418" y="-639" font-family="Helvetica,sans-Serif" font-size="10.00">src/http/http_rpc_context.h</text>
</a>
</g>
</g>
<!-- Node3&#45;&gt;Node30 -->
<g id="edge46" class="edge">
<title>Node3&#45;&gt;Node30</title>
<path fill="none" stroke="midnightblue" d="M532.56,-743.5C520.37,-734.99 504.99,-723.82 492,-713 466.91,-692.1 439.66,-664.83 426.31,-651.13"/>
<polygon fill="midnightblue" stroke="midnightblue" points="530.58,-746.38 540.8,-749.18 534.55,-740.62 530.58,-746.38"/>
</g>
<!-- Node32 -->
<g id="node32" class="node">
<title>Node32</title>
<g id="a_node32"><a xlink:href="http__sig_8h.html" target="_top" xlink:title=" ">
<polygon fill="white" stroke="black" points="332,-693.5 332,-712.5 436,-712.5 436,-693.5 332,-693.5"/>
<text text-anchor="middle" x="384" y="-700.5" font-family="Helvetica,sans-Serif" font-size="10.00">src/http/http_sig.h</text>
</a>
</g>
</g>
<!-- Node3&#45;&gt;Node32 -->
<g id="edge52" class="edge">
<title>Node3&#45;&gt;Node32</title>
<path fill="none" stroke="midnightblue" d="M517.18,-746.3C485.15,-736.13 439.48,-721.62 410.81,-712.52"/>
<polygon fill="midnightblue" stroke="midnightblue" points="516.47,-749.75 527.06,-749.44 518.59,-743.08 516.47,-749.75"/>
</g>
<!-- Node34 -->
<g id="node34" class="node">
<title>Node34</title>
<g id="a_node34"><a xlink:href="acme__client_8h.html" target="_top" xlink:title=" ">
<polygon fill="white" stroke="black" points="994.5,-570.5 994.5,-589.5 1123.5,-589.5 1123.5,-570.5 994.5,-570.5"/>
<text text-anchor="middle" x="1059" y="-577.5" font-family="Helvetica,sans-Serif" font-size="10.00">src/node/acme_client.h</text>
</a>
</g>
</g>
<!-- Node3&#45;&gt;Node34 -->
<g id="edge56" class="edge">
<title>Node3&#45;&gt;Node34</title>
<path fill="none" stroke="midnightblue" d="M587.8,-746.15C683.04,-712.77 952.03,-618.49 1034.59,-589.55"/>
<polygon fill="midnightblue" stroke="midnightblue" points="586.64,-742.85 578.36,-749.46 588.95,-749.46 586.64,-742.85"/>
</g>
<!-- Node5 -->
<g id="node5" class="node">
<title>Node5</title>
<g id="a_node5"><a xlink:href="perf__client_8h.html" target="_top" xlink:title=" ">
<polygon fill="white" stroke="black" points="33.5,-503.5 33.5,-533.5 144.5,-533.5 144.5,-503.5 33.5,-503.5"/>
<text text-anchor="start" x="41.5" y="-521.5" font-family="Helvetica,sans-Serif" font-size="10.00">src/clients/perf/perf</text>
<text text-anchor="middle" x="89" y="-510.5" font-family="Helvetica,sans-Serif" font-size="10.00">_client.h</text>
</a>
</g>
</g>
<!-- Node4&#45;&gt;Node5 -->
<g id="edge4" class="edge">
<title>Node4&#45;&gt;Node5</title>
<path fill="none" stroke="midnightblue" d="M126.12,-618.82C137.81,-605.14 148.15,-586.91 141,-570 134.73,-555.16 121.73,-542.54 110.3,-533.62"/>
<polygon fill="midnightblue" stroke="midnightblue" points="123.42,-616.59 119.2,-626.31 128.56,-621.34 123.42,-616.59"/>
</g>
<!-- Node8 -->
<g id="node8" class="node">
<title>Node8</title>
<g id="a_node8"><a xlink:href="timing_8h.html" target="_top" xlink:title=" ">
<polygon fill="white" stroke="black" points="0,-570.5 0,-589.5 132,-589.5 132,-570.5 0,-570.5"/>
<text text-anchor="middle" x="66" y="-577.5" font-family="Helvetica,sans-Serif" font-size="10.00">src/clients/perf/timing.h</text>
</a>
</g>
</g>
<!-- Node4&#45;&gt;Node8 -->
<g id="edge7" class="edge">
<title>Node4&#45;&gt;Node8</title>
<path fill="none" stroke="midnightblue" d="M88.89,-617.8C82.77,-607.96 75.97,-597.03 71.38,-589.66"/>
<polygon fill="midnightblue" stroke="midnightblue" points="85.98,-619.76 94.23,-626.4 91.92,-616.06 85.98,-619.76"/>
</g>
<!-- Node6 -->
<g id="node6" class="node">
<title>Node6</title>
<g id="a_node6"><a xlink:href="tpcc__client_8cpp.html" target="_top" xlink:title=" ">
<polygon fill="white" stroke="black" points="2,-436.5 2,-466.5 118,-466.5 118,-436.5 2,-436.5"/>
<text text-anchor="start" x="10" y="-454.5" font-family="Helvetica,sans-Serif" font-size="10.00">src/apps/tpcc/clients</text>
<text text-anchor="middle" x="60" y="-443.5" font-family="Helvetica,sans-Serif" font-size="10.00">/tpcc_client.cpp</text>
</a>
</g>
</g>
<!-- Node5&#45;&gt;Node6 -->
<g id="edge5" class="edge">
<title>Node5&#45;&gt;Node6</title>
<path fill="none" stroke="midnightblue" d="M78.51,-493.99C74.41,-484.8 69.85,-474.58 66.28,-466.58"/>
<polygon fill="midnightblue" stroke="midnightblue" points="75.44,-495.69 82.71,-503.4 81.83,-492.84 75.44,-495.69"/>
</g>
<!-- Node7 -->
<g id="node7" class="node">
<title>Node7</title>
<g id="a_node7"><a xlink:href="scenario__perf__client_8cpp.html" target="_top" xlink:title=" ">
<polygon fill="white" stroke="black" points="136.5,-436.5 136.5,-466.5 269.5,-466.5 269.5,-436.5 136.5,-436.5"/>
<text text-anchor="start" x="144.5" y="-454.5" font-family="Helvetica,sans-Serif" font-size="10.00">src/clients/perf/scenario</text>
<text text-anchor="middle" x="203" y="-443.5" font-family="Helvetica,sans-Serif" font-size="10.00">_perf_client.cpp</text>
</a>
</g>
</g>
<!-- Node5&#45;&gt;Node7 -->
<g id="edge6" class="edge">
<title>Node5&#45;&gt;Node7</title>
<path fill="none" stroke="midnightblue" d="M122.68,-498.3C140.52,-488.12 162.04,-475.85 178.31,-466.58"/>
<polygon fill="midnightblue" stroke="midnightblue" points="120.69,-495.4 113.74,-503.4 124.16,-501.48 120.69,-495.4"/>
</g>
<!-- Node8&#45;&gt;Node5 -->
<g id="edge8" class="edge">
<title>Node8&#45;&gt;Node5</title>
<path fill="none" stroke="midnightblue" d="M72.92,-561.1C76.33,-552.27 80.39,-541.77 83.58,-533.52"/>
<polygon fill="midnightblue" stroke="midnightblue" points="69.64,-559.89 69.3,-570.48 76.17,-562.41 69.64,-559.89"/>
</g>
<!-- Node10 -->
<g id="node10" class="node">
<title>Node10</title>
<g id="a_node10"><a xlink:href="rpc__sessions_8h.html" target="_top" xlink:title=" ">
<polygon fill="white" stroke="black" points="883,-509 883,-528 1029,-528 1029,-509 883,-509"/>
<text text-anchor="middle" x="956" y="-516" font-family="Helvetica,sans-Serif" font-size="10.00">src/enclave/rpc_sessions.h</text>
</a>
</g>
</g>
<!-- Node9&#45;&gt;Node10 -->
<g id="edge10" class="edge">
<title>Node9&#45;&gt;Node10</title>
<path fill="none" stroke="midnightblue" d="M773.8,-567.9C817.31,-556.34 884.49,-538.5 923.97,-528.01"/>
<polygon fill="midnightblue" stroke="midnightblue" points="772.86,-564.53 764.09,-570.48 774.66,-571.29 772.86,-564.53"/>
</g>
<!-- Node11 -->
<g id="node11" class="node">
<title>Node11</title>
<g id="a_node11"><a xlink:href="enclave_2enclave_8h.html" target="_top" xlink:title=" ">
<polygon fill="white" stroke="black" points="413,-56.5 413,-75.5 535,-75.5 535,-56.5 413,-56.5"/>
<text text-anchor="middle" x="474" y="-63.5" font-family="Helvetica,sans-Serif" font-size="10.00">src/enclave/enclave.h</text>
</a>
</g>
</g>
<!-- Node10&#45;&gt;Node11 -->
<g id="edge11" class="edge">
<title>Node10&#45;&gt;Node11</title>
<path fill="none" stroke="midnightblue" d="M1037.83,-507.01C1108.05,-492.87 1198,-460.19 1198,-385.5 1198,-385.5 1198,-385.5 1198,-182.5 1198,-115.6 709.65,-80.68 535.1,-70.34"/>
<polygon fill="midnightblue" stroke="midnightblue" points="1036.79,-503.64 1027.63,-508.96 1038.11,-510.52 1036.79,-503.64"/>
</g>
<!-- Node13 -->
<g id="node13" class="node">
<title>Node13</title>
<g id="a_node13"><a xlink:href="ccf__acme__client_8h.html" target="_top" xlink:title=" ">
<polygon fill="white" stroke="black" points="1021.5,-241 1021.5,-260 1170.5,-260 1170.5,-241 1021.5,-241"/>
<text text-anchor="middle" x="1096" y="-248" font-family="Helvetica,sans-Serif" font-size="10.00">src/node/ccf_acme_client.h</text>
</a>
</g>
</g>
<!-- Node10&#45;&gt;Node13 -->
<g id="edge13" class="edge">
<title>Node10&#45;&gt;Node13</title>
<path fill="none" stroke="midnightblue" d="M974.97,-502.51C985.78,-493.2 998.92,-480.47 1008,-467 1052.22,-401.36 1044.92,-375.21 1075,-302 1081.06,-287.25 1088.21,-270.11 1092.41,-260.07"/>
<polygon fill="midnightblue" stroke="midnightblue" points="972.72,-499.83 967.28,-508.91 977.2,-505.21 972.72,-499.83"/>
</g>
<!-- Node14 -->
<g id="node14" class="node">
<title>Node14</title>
<g id="a_node14"><a xlink:href="node__state_8h.html" target="_top" xlink:title=" ">
<polygon fill="white" stroke="black" points="650,-174 650,-193 774,-193 774,-174 650,-174"/>
<text text-anchor="middle" x="712" y="-181" font-family="Helvetica,sans-Serif" font-size="10.00">src/node/node_state.h</text>
</a>
</g>
</g>
<!-- Node10&#45;&gt;Node14 -->
<g id="edge31" class="edge">
<title>Node10&#45;&gt;Node14</title>
<path fill="none" stroke="midnightblue" d="M964.67,-499.5C975.89,-474.52 994,-427.65 994,-385.5 994,-385.5 994,-385.5 994,-316.5 994,-279.31 1001.81,-260.78 975,-235 946.89,-207.97 842.69,-194.68 774.19,-188.73"/>
<polygon fill="midnightblue" stroke="midnightblue" points="961.39,-498.24 960.36,-508.79 967.74,-501.19 961.39,-498.24"/>
</g>
<!-- Node16 -->
<g id="node16" class="node">
<title>Node16</title>
<g id="a_node16"><a xlink:href="node__client_8h.html" target="_top" xlink:title=" ">
<polygon fill="white" stroke="black" points="763,-442 763,-461 889,-461 889,-442 763,-442"/>
<text text-anchor="middle" x="826" y="-449" font-family="Helvetica,sans-Serif" font-size="10.00">src/node/node_client.h</text>
</a>
</g>
</g>
<!-- Node10&#45;&gt;Node16 -->
<g id="edge18" class="edge">
<title>Node10&#45;&gt;Node16</title>
<path fill="none" stroke="midnightblue" d="M929.55,-504.27C903.8,-491.4 865.42,-472.21 843.33,-461.17"/>
<polygon fill="midnightblue" stroke="midnightblue" points="928.23,-507.53 938.74,-508.87 931.36,-501.27 928.23,-507.53"/>
</g>
<!-- Node23 -->
<g id="node23" class="node">
<title>Node23</title>
<g id="a_node23"><a xlink:href="resharing_8h.html" target="_top" xlink:title=" ">
<polygon fill="white" stroke="black" points="850,-241 850,-260 966,-260 966,-241 850,-241"/>
<text text-anchor="middle" x="908" y="-248" font-family="Helvetica,sans-Serif" font-size="10.00">src/node/resharing.h</text>
</a>
</g>
</g>
<!-- Node10&#45;&gt;Node23 -->
<g id="edge32" class="edge">
<title>Node10&#45;&gt;Node23</title>
<path fill="none" stroke="midnightblue" d="M952.67,-499.02C943.19,-446.49 916.32,-297.63 909.56,-260.15"/>
<polygon fill="midnightblue" stroke="midnightblue" points="949.24,-499.73 954.46,-508.95 956.13,-498.49 949.24,-499.73"/>
</g>
<!-- Node12 -->
<g id="node12" class="node">
<title>Node12</title>
<g id="a_node12"><a xlink:href="enclave_2main_8cpp.html" target="_top" xlink:title=" ">
<polygon fill="white" stroke="black" points="414,-0.5 414,-19.5 534,-19.5 534,-0.5 414,-0.5"/>
<text text-anchor="middle" x="474" y="-7.5" font-family="Helvetica,sans-Serif" font-size="10.00">src/enclave/main.cpp</text>
</a>
</g>
</g>
<!-- Node11&#45;&gt;Node12 -->
<g id="edge12" class="edge">
<title>Node11&#45;&gt;Node12</title>
<path fill="none" stroke="midnightblue" d="M474,-45.8C474,-36.91 474,-26.78 474,-19.75"/>
<polygon fill="midnightblue" stroke="midnightblue" points="470.5,-46.08 474,-56.08 477.5,-46.08 470.5,-46.08"/>
</g>
<!-- Node13&#45;&gt;Node14 -->
<g id="edge14" class="edge">
<title>Node13&#45;&gt;Node14</title>
<path fill="none" stroke="midnightblue" d="M1035.12,-239.19C959.7,-226.43 832.61,-204.92 762.4,-193.03"/>
<polygon fill="midnightblue" stroke="midnightblue" points="1034.96,-242.72 1045.4,-240.94 1036.13,-235.82 1034.96,-242.72"/>
</g>
<!-- Node14&#45;&gt;Node11 -->
<g id="edge15" class="edge">
<title>Node14&#45;&gt;Node11</title>
<path fill="none" stroke="midnightblue" d="M712.07,-163.36C711.06,-147.37 706.96,-125.14 693,-112 670.56,-90.88 591.74,-78.65 535.09,-72.41"/>
<polygon fill="midnightblue" stroke="midnightblue" points="708.58,-163.78 712.36,-173.68 715.58,-163.58 708.58,-163.78"/>
</g>
<!-- Node15 -->
<g id="node15" class="node">
<title>Node15</title>
<g id="a_node15"><a xlink:href="gov__effects_8h.html" target="_top" xlink:title=" ">
<polygon fill="white" stroke="black" points="540,-112.5 540,-131.5 684,-131.5 684,-112.5 540,-112.5"/>
<text text-anchor="middle" x="612" y="-119.5" font-family="Helvetica,sans-Serif" font-size="10.00">src/node/rpc/gov_effects.h</text>
</a>
</g>
</g>
<!-- Node14&#45;&gt;Node15 -->
<g id="edge16" class="edge">
<title>Node14&#45;&gt;Node15</title>
<path fill="none" stroke="midnightblue" d="M688.88,-168.74C669.56,-157.25 642.63,-141.22 626.3,-131.51"/>
<polygon fill="midnightblue" stroke="midnightblue" points="687.29,-171.87 697.67,-173.98 690.87,-165.85 687.29,-171.87"/>
</g>
<!-- Node15&#45;&gt;Node11 -->
<g id="edge17" class="edge">
<title>Node15&#45;&gt;Node11</title>
<path fill="none" stroke="midnightblue" d="M580.75,-108.77C554.83,-98.63 518.64,-84.47 495.76,-75.52"/>
<polygon fill="midnightblue" stroke="midnightblue" points="579.55,-112.06 590.13,-112.44 582.1,-105.54 579.55,-112.06"/>
</g>
<!-- Node17 -->
<g id="node17" class="node">
<title>Node17</title>
<g id="a_node17"><a xlink:href="orc__requests_8h.html" target="_top" xlink:title=" ">
<polygon fill="white" stroke="black" points="586.5,-369.5 586.5,-399.5 705.5,-399.5 705.5,-369.5 586.5,-369.5"/>
<text text-anchor="start" x="594.5" y="-387.5" font-family="Helvetica,sans-Serif" font-size="10.00">src/consensus/aft/orc</text>
<text text-anchor="middle" x="646" y="-376.5" font-family="Helvetica,sans-Serif" font-size="10.00">_requests.h</text>
</a>
</g>
</g>
<!-- Node16&#45;&gt;Node17 -->
<g id="edge19" class="edge">
<title>Node16&#45;&gt;Node17</title>
<path fill="none" stroke="midnightblue" d="M792.34,-438.35C761.83,-427.33 716.87,-411.09 684.85,-399.53"/>
<polygon fill="midnightblue" stroke="midnightblue" points="791.5,-441.76 802.1,-441.87 793.88,-435.18 791.5,-441.76"/>
</g>
<!-- Node18 -->
<g id="node18" class="node">
<title>Node18</title>
<g id="a_node18"><a xlink:href="raft_8h.html" target="_top" xlink:title=" ">
<polygon fill="white" stroke="black" points="716.5,-308 716.5,-327 845.5,-327 845.5,-308 716.5,-308"/>
<text text-anchor="middle" x="781" y="-315" font-family="Helvetica,sans-Serif" font-size="10.00">src/consensus/aft/raft.h</text>
</a>
</g>
</g>
<!-- Node16&#45;&gt;Node18 -->
<g id="edge26" class="edge">
<title>Node16&#45;&gt;Node18</title>
<path fill="none" stroke="midnightblue" d="M794.32,-437.28C778.87,-429.01 761.77,-416.73 753,-400 739.94,-375.09 761.16,-342.81 773.36,-327.42"/>
<polygon fill="midnightblue" stroke="midnightblue" points="793.13,-440.59 803.64,-441.91 796.24,-434.32 793.13,-440.59"/>
</g>
<!-- Node21 -->
<g id="node21" class="node">
<title>Node21</title>
<g id="a_node21"><a xlink:href="http__node__client_8h.html" target="_top" xlink:title=" ">
<polygon fill="white" stroke="black" points="722,-235.5 722,-265.5 832,-265.5 832,-235.5 722,-235.5"/>
<text text-anchor="start" x="730" y="-253.5" font-family="Helvetica,sans-Serif" font-size="10.00">src/node/http_node</text>
<text text-anchor="middle" x="777" y="-242.5" font-family="Helvetica,sans-Serif" font-size="10.00">_client.h</text>
</a>
</g>
</g>
<!-- Node16&#45;&gt;Node21 -->
<g id="edge27" class="edge">
<title>Node16&#45;&gt;Node21</title>
<path fill="none" stroke="midnightblue" d="M857.68,-437.28C873.13,-429.01 890.23,-416.73 899,-400 905.4,-387.8 902.95,-382.2 899,-369 888.79,-334.87 880.27,-327.11 855,-302 840.24,-287.33 820.55,-274.62 804.64,-265.62"/>
<polygon fill="midnightblue" stroke="midnightblue" points="855.76,-434.32 848.36,-441.91 858.87,-440.59 855.76,-434.32"/>
</g>
<!-- Node22 -->
<g id="node22" class="node">
<title>Node22</title>
<g id="a_node22"><a xlink:href="retired__nodes__cleanup_8h.html" target="_top" xlink:title=" ">
<polygon fill="white" stroke="black" points="762,-369.5 762,-399.5 890,-399.5 890,-369.5 762,-369.5"/>
<text text-anchor="start" x="770" y="-387.5" font-family="Helvetica,sans-Serif" font-size="10.00">src/node/retired_nodes</text>
<text text-anchor="middle" x="826" y="-376.5" font-family="Helvetica,sans-Serif" font-size="10.00">_cleanup.h</text>
</a>
</g>
</g>
<!-- Node16&#45;&gt;Node22 -->
<g id="edge29" class="edge">
<title>Node16&#45;&gt;Node22</title>
<path fill="none" stroke="midnightblue" d="M826,-431.41C826,-421.22 826,-408.9 826,-399.59"/>
<polygon fill="midnightblue" stroke="midnightblue" points="822.5,-431.73 826,-441.73 829.5,-431.73 822.5,-431.73"/>
</g>
<!-- Node17&#45;&gt;Node18 -->
<g id="edge20" class="edge">
<title>Node17&#45;&gt;Node18</title>
<path fill="none" stroke="midnightblue" d="M684.49,-364.97C710.42,-352.48 743.41,-336.6 763.33,-327.01"/>
<polygon fill="midnightblue" stroke="midnightblue" points="682.78,-361.9 675.29,-369.4 685.82,-368.21 682.78,-361.9"/>
</g>
<!-- Node19 -->
<g id="node19" class="node">
<title>Node19</title>
<g id="a_node19"><a xlink:href="node__frontend_8h.html" target="_top" xlink:title=" ">
<polygon fill="white" stroke="black" points="502,-308 502,-327 660,-327 660,-308 502,-308"/>
<text text-anchor="middle" x="581" y="-315" font-family="Helvetica,sans-Serif" font-size="10.00">src/node/rpc/node_frontend.h</text>
</a>
</g>
</g>
<!-- Node17&#45;&gt;Node19 -->
<g id="edge22" class="edge">
<title>Node17&#45;&gt;Node19</title>
<path fill="none" stroke="midnightblue" d="M624.5,-362C612.63,-350.13 598.55,-336.05 589.69,-327.19"/>
<polygon fill="midnightblue" stroke="midnightblue" points="622.35,-364.8 631.9,-369.4 627.3,-359.85 622.35,-364.8"/>
</g>
<!-- Node18&#45;&gt;Node14 -->
<g id="edge21" class="edge">
<title>Node18&#45;&gt;Node14</title>
<path fill="none" stroke="midnightblue" d="M751.97,-302.99C737.47,-294.57 721.28,-282.22 713,-266 700.77,-242.06 706.14,-208.76 709.73,-193.18"/>
<polygon fill="midnightblue" stroke="midnightblue" points="750.7,-306.28 761.16,-307.96 754.03,-300.13 750.7,-306.28"/>
</g>
<!-- Node19&#45;&gt;Node11 -->
<g id="edge23" class="edge">
<title>Node19&#45;&gt;Node11</title>
<path fill="none" stroke="midnightblue" d="M561.55,-301.09C551.14,-291.91 538.87,-279.44 531,-266 491.96,-199.32 478.29,-104.28 474.91,-75.55"/>
<polygon fill="midnightblue" stroke="midnightblue" points="559.49,-303.93 569.39,-307.71 564.01,-298.58 559.49,-303.93"/>
</g>
<!-- Node20 -->
<g id="node20" class="node">
<title>Node20</title>
<g id="a_node20"><a xlink:href="jwt__key__auto__refresh_8h.html" target="_top" xlink:title=" ">
<polygon fill="white" stroke="black" points="540.5,-235.5 540.5,-265.5 665.5,-265.5 665.5,-235.5 540.5,-235.5"/>
<text text-anchor="start" x="548.5" y="-253.5" font-family="Helvetica,sans-Serif" font-size="10.00">src/node/jwt_key_auto</text>
<text text-anchor="middle" x="603" y="-242.5" font-family="Helvetica,sans-Serif" font-size="10.00">_refresh.h</text>
</a>
</g>
</g>
<!-- Node19&#45;&gt;Node20 -->
<g id="edge24" class="edge">
<title>Node19&#45;&gt;Node20</title>
<path fill="none" stroke="midnightblue" d="M587.24,-298.06C590.73,-287.75 595.01,-275.1 598.23,-265.59"/>
<polygon fill="midnightblue" stroke="midnightblue" points="583.86,-297.14 583.97,-307.73 590.49,-299.38 583.86,-297.14"/>
</g>
<!-- Node20&#45;&gt;Node14 -->
<g id="edge25" class="edge">
<title>Node20&#45;&gt;Node14</title>
<path fill="none" stroke="midnightblue" d="M635.46,-230.14C656.18,-217.79 682,-202.39 697.73,-193.01"/>
<polygon fill="midnightblue" stroke="midnightblue" points="633.45,-227.27 626.65,-235.4 637.03,-233.28 633.45,-227.27"/>
</g>
<!-- Node21&#45;&gt;Node14 -->
<g id="edge28" class="edge">
<title>Node21&#45;&gt;Node14</title>
<path fill="none" stroke="midnightblue" d="M755.5,-228C743.63,-216.13 729.55,-202.05 720.69,-193.19"/>
<polygon fill="midnightblue" stroke="midnightblue" points="753.35,-230.8 762.9,-235.4 758.3,-225.85 753.35,-230.8"/>
</g>
<!-- Node22&#45;&gt;Node18 -->
<g id="edge30" class="edge">
<title>Node22&#45;&gt;Node18</title>
<path fill="none" stroke="midnightblue" d="M810.41,-360.97C802.35,-349.33 792.98,-335.8 787.02,-327.19"/>
<polygon fill="midnightblue" stroke="midnightblue" points="807.67,-363.17 816.24,-369.4 813.42,-359.18 807.67,-363.17"/>
</g>
<!-- Node23&#45;&gt;Node14 -->
<g id="edge33" class="edge">
<title>Node23&#45;&gt;Node14</title>
<path fill="none" stroke="midnightblue" d="M872.12,-237.6C833.26,-224.71 772.23,-204.47 737.82,-193.06"/>
<polygon fill="midnightblue" stroke="midnightblue" points="871.38,-241.04 881.97,-240.87 873.58,-234.4 871.38,-241.04"/>
</g>
<!-- Node25 -->
<g id="node25" class="node">
<title>Node25</title>
<g id="a_node25"><a xlink:href="jwt__auth_8cpp.html" target="_top" xlink:title=" ">
<polygon fill="white" stroke="black" points="548.5,-626.5 548.5,-656.5 703.5,-656.5 703.5,-626.5 548.5,-626.5"/>
<text text-anchor="start" x="556.5" y="-644.5" font-family="Helvetica,sans-Serif" font-size="10.00">src/endpoints/authentication</text>
<text text-anchor="middle" x="626" y="-633.5" font-family="Helvetica,sans-Serif" font-size="10.00">/jwt_auth.cpp</text>
</a>
</g>
</g>
<!-- Node24&#45;&gt;Node25 -->
<g id="edge35" class="edge">
<title>Node24&#45;&gt;Node25</title>
<path fill="none" stroke="midnightblue" d="M572.25,-686.92C583.55,-677.58 597.97,-665.66 609.03,-656.52"/>
<polygon fill="midnightblue" stroke="midnightblue" points="569.79,-684.41 564.32,-693.48 574.25,-689.8 569.79,-684.41"/>
</g>
<!-- Node26 -->
<g id="node26" class="node">
<title>Node26</title>
<g id="a_node26"><a xlink:href="frontend_8h.html" target="_top" xlink:title=" ">
<polygon fill="white" stroke="black" points="322.5,-375 322.5,-394 451.5,-394 451.5,-375 322.5,-375"/>
<text text-anchor="middle" x="387" y="-382" font-family="Helvetica,sans-Serif" font-size="10.00">src/node/rpc/frontend.h</text>
</a>
</g>
</g>
<!-- Node24&#45;&gt;Node26 -->
<g id="edge36" class="edge">
<title>Node24&#45;&gt;Node26</title>
<path fill="none" stroke="midnightblue" d="M545.67,-684.17C535.61,-660.95 520,-618.84 520,-581 520,-581 520,-581 520,-517.5 520,-454.55 444.01,-411.35 406.91,-394.01"/>
<polygon fill="midnightblue" stroke="midnightblue" points="542.54,-685.74 549.83,-693.43 548.93,-682.87 542.54,-685.74"/>
</g>
<!-- Node26&#45;&gt;Node14 -->
<g id="edge40" class="edge">
<title>Node26&#45;&gt;Node14</title>
<path fill="none" stroke="midnightblue" d="M409.11,-369.36C423.03,-359.92 440.95,-346.76 455,-333 494.38,-294.43 485.25,-265.74 531,-235 566.34,-211.26 612.68,-198.6 649.63,-191.89"/>
<polygon fill="midnightblue" stroke="midnightblue" points="407.02,-366.54 400.62,-374.99 410.89,-372.38 407.02,-366.54"/>
</g>
<!-- Node26&#45;&gt;Node19 -->
<g id="edge43" class="edge">
<title>Node26&#45;&gt;Node19</title>
<path fill="none" stroke="midnightblue" d="M422.51,-371.6C460.98,-358.71 521.39,-338.47 555.44,-327.06"/>
<polygon fill="midnightblue" stroke="midnightblue" points="421.13,-368.37 412.76,-374.87 423.36,-375.01 421.13,-368.37"/>
</g>
<!-- Node27 -->
<g id="node27" class="node">
<title>Node27</title>
<g id="a_node27"><a xlink:href="acme__challenge__frontend_8h.html" target="_top" xlink:title=" ">
<polygon fill="white" stroke="black" points="306,-302.5 306,-332.5 446,-332.5 446,-302.5 306,-302.5"/>
<text text-anchor="start" x="314" y="-320.5" font-family="Helvetica,sans-Serif" font-size="10.00">src/node/acme_challenge</text>
<text text-anchor="middle" x="376" y="-309.5" font-family="Helvetica,sans-Serif" font-size="10.00">_frontend.h</text>
</a>
</g>
</g>
<!-- Node26&#45;&gt;Node27 -->
<g id="edge37" class="edge">
<title>Node26&#45;&gt;Node27</title>
<path fill="none" stroke="midnightblue" d="M383.82,-364.74C382.09,-354.49 379.98,-342 378.38,-332.59"/>
<polygon fill="midnightblue" stroke="midnightblue" points="380.4,-365.46 385.52,-374.73 387.3,-364.29 380.4,-365.46"/>
</g>
<!-- Node28 -->
<g id="node28" class="node">
<title>Node28</title>
<g id="a_node28"><a xlink:href="member__frontend_8h.html" target="_top" xlink:title=" ">
<polygon fill="white" stroke="black" points="164,-168.5 164,-198.5 284,-198.5 284,-168.5 164,-168.5"/>
<text text-anchor="start" x="172" y="-186.5" font-family="Helvetica,sans-Serif" font-size="10.00">src/node/rpc/member</text>
<text text-anchor="middle" x="224" y="-175.5" font-family="Helvetica,sans-Serif" font-size="10.00">_frontend.h</text>
</a>
</g>
</g>
<!-- Node26&#45;&gt;Node28 -->
<g id="edge41" class="edge">
<title>Node26&#45;&gt;Node28</title>
<path fill="none" stroke="midnightblue" d="M330.84,-372.14C307.2,-364.69 281.23,-352.56 264,-333 229.41,-293.73 224.34,-227.54 223.86,-198.68"/>
<polygon fill="midnightblue" stroke="midnightblue" points="329.87,-375.5 340.45,-374.96 331.84,-368.79 329.87,-375.5"/>
</g>
<!-- Node29 -->
<g id="node29" class="node">
<title>Node29</title>
<g id="a_node29"><a xlink:href="user__frontend_8h.html" target="_top" xlink:title=" ">
<polygon fill="white" stroke="black" points="252.5,-112.5 252.5,-131.5 407.5,-131.5 407.5,-112.5 252.5,-112.5"/>
<text text-anchor="middle" x="330" y="-119.5" font-family="Helvetica,sans-Serif" font-size="10.00">src/node/rpc/user_frontend.h</text>
</a>
</g>
</g>
<!-- Node26&#45;&gt;Node29 -->
<g id="edge44" class="edge">
<title>Node26&#45;&gt;Node29</title>
<path fill="none" stroke="midnightblue" d="M346.22,-371.27C327.76,-363.47 307.72,-351.3 297,-333 256.72,-264.21 307.91,-162 324.88,-131.74"/>
<polygon fill="midnightblue" stroke="midnightblue" points="345.08,-374.59 355.67,-374.96 347.63,-368.07 345.08,-374.59"/>
</g>
<!-- Node27&#45;&gt;Node11 -->
<g id="edge38" class="edge">
<title>Node27&#45;&gt;Node11</title>
<path fill="none" stroke="midnightblue" d="M385.22,-293.03C406.19,-239.63 456.74,-110.95 470.49,-75.93"/>
<polygon fill="midnightblue" stroke="midnightblue" points="381.95,-291.78 381.55,-302.37 388.46,-294.34 381.95,-291.78"/>
</g>
<!-- Node27&#45;&gt;Node13 -->
<g id="edge39" class="edge">
<title>Node27&#45;&gt;Node13</title>
<path fill="none" stroke="midnightblue" d="M456.38,-306.01C468.63,-304.57 481.15,-303.18 493,-302 706.77,-280.78 761.19,-286.79 975,-266 992.69,-264.28 1011.8,-262.13 1029.49,-260.01"/>
<polygon fill="midnightblue" stroke="midnightblue" points="455.67,-302.57 446.16,-307.24 456.5,-309.52 455.67,-302.57"/>
</g>
<!-- Node28&#45;&gt;Node11 -->
<g id="edge42" class="edge">
<title>Node28&#45;&gt;Node11</title>
<path fill="none" stroke="midnightblue" d="M224.32,-158.02C225.87,-142.68 230.46,-123.68 243,-112 267.18,-89.48 353.02,-77.45 412.95,-71.65"/>
<polygon fill="midnightblue" stroke="midnightblue" points="220.81,-158.18 223.67,-168.38 227.79,-158.62 220.81,-158.18"/>
</g>
<!-- Node29&#45;&gt;Node11 -->
<g id="edge45" class="edge">
<title>Node29&#45;&gt;Node11</title>
<path fill="none" stroke="midnightblue" d="M362.25,-108.91C389.32,-98.75 427.32,-84.51 451.29,-75.52"/>
<polygon fill="midnightblue" stroke="midnightblue" points="360.95,-105.66 352.82,-112.44 363.41,-112.21 360.95,-105.66"/>
</g>
<!-- Node30&#45;&gt;Node9 -->
<g id="edge47" class="edge">
<title>Node30&#45;&gt;Node9</title>
<path fill="none" stroke="midnightblue" d="M473.17,-630.05C534,-618.52 630.71,-600.19 687.09,-589.51"/>
<polygon fill="midnightblue" stroke="midnightblue" points="472.16,-626.67 462.99,-631.98 473.47,-633.55 472.16,-626.67"/>
</g>
<!-- Node30&#45;&gt;Node20 -->
<g id="edge48" class="edge">
<title>Node30&#45;&gt;Node20</title>
<path fill="none" stroke="midnightblue" d="M452.52,-628.15C493.98,-610.85 558,-575.12 558,-519.5 558,-519.5 558,-519.5 558,-450.5 558,-413.31 552.66,-397.12 577,-369 605.73,-335.8 644.25,-369.27 669,-333 676.77,-321.62 675.1,-314.35 669,-302 661.2,-286.22 645.85,-274.01 631.91,-265.55"/>
<polygon fill="midnightblue" stroke="midnightblue" points="451.01,-624.99 443.03,-631.96 453.61,-631.49 451.01,-624.99"/>
</g>
<!-- Node31 -->
<g id="node31" class="node">
<title>Node31</title>
<g id="a_node31"><a xlink:href="forwarder_8h.html" target="_top" xlink:title=" ">
<polygon fill="white" stroke="black" points="320,-442 320,-461 454,-461 454,-442 320,-442"/>
<text text-anchor="middle" x="387" y="-449" font-family="Helvetica,sans-Serif" font-size="10.00">src/node/rpc/forwarder.h</text>
</a>
</g>
</g>
<!-- Node30&#45;&gt;Node31 -->
<g id="edge49" class="edge">
<title>Node30&#45;&gt;Node31</title>
<path fill="none" stroke="midnightblue" d="M414.95,-622C408.39,-582.21 393.14,-489.76 388.42,-461.12"/>
<polygon fill="midnightblue" stroke="midnightblue" points="411.51,-622.64 416.59,-631.93 418.41,-621.5 411.51,-622.64"/>
</g>
<!-- Node31&#45;&gt;Node11 -->
<g id="edge50" class="edge">
<title>Node31&#45;&gt;Node11</title>
<path fill="none" stroke="midnightblue" d="M309.52,-442.3C235.78,-429.7 136,-397.97 136,-318.5 136,-318.5 136,-318.5 136,-182.5 136,-131.34 180.28,-132.85 227,-112 286.81,-85.31 361.49,-74.45 412.99,-70.03"/>
<polygon fill="midnightblue" stroke="midnightblue" points="309.31,-445.81 319.74,-443.96 310.42,-438.9 309.31,-445.81"/>
</g>
<!-- Node31&#45;&gt;Node26 -->
<g id="edge51" class="edge">
<title>Node31&#45;&gt;Node26</title>
<path fill="none" stroke="midnightblue" d="M387,-431.54C387,-419.17 387,-403.62 387,-394.13"/>
<polygon fill="midnightblue" stroke="midnightblue" points="383.5,-431.73 387,-441.73 390.5,-431.73 383.5,-431.73"/>
</g>
<!-- Node32&#45;&gt;Node4 -->
<g id="edge53" class="edge">
<title>Node32&#45;&gt;Node4</title>
<path fill="none" stroke="midnightblue" d="M329.39,-691.58C284.37,-682.83 218.9,-669.75 162,-657 159.32,-656.4 156.58,-655.77 153.82,-655.13"/>
<polygon fill="midnightblue" stroke="midnightblue" points="328.76,-695.02 339.24,-693.49 330.09,-688.15 328.76,-695.02"/>
</g>
<!-- Node32&#45;&gt;Node30 -->
<g id="edge55" class="edge">
<title>Node32&#45;&gt;Node30</title>
<path fill="none" stroke="midnightblue" d="M393.9,-684.67C400.22,-673.61 408.14,-659.75 413.14,-651.01"/>
<polygon fill="midnightblue" stroke="midnightblue" points="390.79,-683.06 388.87,-693.48 396.87,-686.53 390.79,-683.06"/>
</g>
<!-- Node33 -->
<g id="node33" class="node">
<title>Node33</title>
<g id="a_node33"><a xlink:href="sig__auth_8cpp.html" target="_top" xlink:title=" ">
<polygon fill="white" stroke="black" points="171.5,-626.5 171.5,-656.5 326.5,-656.5 326.5,-626.5 171.5,-626.5"/>
<text text-anchor="start" x="179.5" y="-644.5" font-family="Helvetica,sans-Serif" font-size="10.00">src/endpoints/authentication</text>
<text text-anchor="middle" x="249" y="-633.5" font-family="Helvetica,sans-Serif" font-size="10.00">/sig_auth.cpp</text>
</a>
</g>
</g>
<!-- Node32&#45;&gt;Node33 -->
<g id="edge54" class="edge">
<title>Node32&#45;&gt;Node33</title>
<path fill="none" stroke="midnightblue" d="M355.25,-689.33C333.41,-679.7 303.38,-666.47 280.82,-656.52"/>
<polygon fill="midnightblue" stroke="midnightblue" points="354.1,-692.64 364.66,-693.48 356.92,-686.24 354.1,-692.64"/>
</g>
<!-- Node34&#45;&gt;Node13 -->
<g id="edge57" class="edge">
<title>Node34&#45;&gt;Node13</title>
<path fill="none" stroke="midnightblue" d="M1066.22,-560.59C1075.09,-536.25 1089,-491.84 1089,-452.5 1089,-452.5 1089,-452.5 1089,-383.5 1089,-336.91 1093.4,-281.21 1095.22,-260.14"/>
<polygon fill="midnightblue" stroke="midnightblue" points="1062.82,-559.68 1062.56,-570.27 1069.37,-562.16 1062.82,-559.68"/>
</g>
<!-- Node35&#45;&gt;Node3 -->
<g id="edge59" class="edge">
<title>Node35&#45;&gt;Node3</title>
<path fill="none" stroke="midnightblue" d="M616.07,-799.9C600.66,-790 580.55,-777.07 567.46,-768.65"/>
<polygon fill="midnightblue" stroke="midnightblue" points="614.2,-802.86 624.5,-805.32 617.98,-796.97 614.2,-802.86"/>
</g>
<!-- Node36&#45;&gt;Node10 -->
<g id="edge61" class="edge">
<title>Node36&#45;&gt;Node10</title>
<path fill="none" stroke="midnightblue" d="M815.47,-799.99C844.51,-781.94 888,-747.62 888,-704 888,-704 888,-704 888,-640.5 888,-593.03 928.27,-546.97 946.83,-528.25"/>
<polygon fill="midnightblue" stroke="midnightblue" points="813.42,-797.14 806.62,-805.27 817,-803.15 813.42,-797.14"/>
</g>
</g>
</svg>
