<?xml version="1.0" encoding="UTF-8" standalone="no"?>
<!DOCTYPE svg PUBLIC "-//W3C//DTD SVG 1.1//EN"
 "http://www.w3.org/Graphics/SVG/1.1/DTD/svg11.dtd">
<!-- Generated by graphviz version 2.43.0 (0)
 -->
<!-- Title: src/tls/tls.h Pages: 1 -->
<svg width="1300pt" height="1001pt"
 viewBox="0.00 0.00 1299.50 1001.00" xmlns="http://www.w3.org/2000/svg" xmlns:xlink="http://www.w3.org/1999/xlink">
<g id="graph0" class="graph" transform="scale(1 1) rotate(0) translate(4 997)">
<title>src/tls/tls.h</title>
<polygon fill="white" stroke="transparent" points="-4,4 -4,-997 1295.5,-997 1295.5,4 -4,4"/>
<!-- Node1 -->
<g id="node1" class="node">
<title>Node1</title>
<g id="a_node1"><a xlink:title=" ">
<polygon fill="#bfbfbf" stroke="black" points="1021,-973.5 1021,-992.5 1091,-992.5 1091,-973.5 1021,-973.5"/>
<text text-anchor="middle" x="1056" y="-980.5" font-family="Helvetica,sans-Serif" font-size="10.00">src/tls/tls.h</text>
</a>
</g>
</g>
<!-- Node2 -->
<g id="node2" class="node">
<title>Node2</title>
<g id="a_node2"><a xlink:href="tls__endpoint_8h.html" target="_top" xlink:title=" ">
<polygon fill="white" stroke="black" points="865,-861.5 865,-880.5 1009,-880.5 1009,-861.5 865,-861.5"/>
<text text-anchor="middle" x="937" y="-868.5" font-family="Helvetica,sans-Serif" font-size="10.00">src/enclave/tls_endpoint.h</text>
</a>
</g>
</g>
<!-- Node1&#45;&gt;Node2 -->
<g id="edge1" class="edge">
<title>Node1&#45;&gt;Node2</title>
<path fill="none" stroke="midnightblue" d="M1039.24,-966.51C1013.82,-943.01 966.33,-899.11 946.29,-880.59"/>
<polygon fill="midnightblue" stroke="midnightblue" points="1036.94,-969.15 1046.66,-973.37 1041.69,-964.01 1036.94,-969.15"/>
</g>
<!-- Node36 -->
<g id="node36" class="node">
<title>Node36</title>
<g id="a_node36"><a xlink:href="context_8h.html" target="_top" xlink:title=" ">
<polygon fill="white" stroke="black" points="1058.5,-917.5 1058.5,-936.5 1153.5,-936.5 1153.5,-917.5 1058.5,-917.5"/>
<text text-anchor="middle" x="1106" y="-924.5" font-family="Helvetica,sans-Serif" font-size="10.00">src/tls/context.h</text>
</a>
</g>
</g>
<!-- Node1&#45;&gt;Node36 -->
<g id="edge60" class="edge">
<title>Node1&#45;&gt;Node36</title>
<path fill="none" stroke="midnightblue" d="M1071.08,-965.72C1079.89,-956.2 1090.67,-944.56 1097.9,-936.75"/>
<polygon fill="midnightblue" stroke="midnightblue" points="1068.48,-963.37 1064.26,-973.08 1073.62,-968.12 1068.48,-963.37"/>
</g>
<!-- Node3 -->
<g id="node3" class="node">
<title>Node3</title>
<g id="a_node3"><a xlink:href="http__parser_8h.html" target="_top" xlink:title=" ">
<polygon fill="white" stroke="black" points="747,-749.5 747,-768.5 867,-768.5 867,-749.5 747,-749.5"/>
<text text-anchor="middle" x="807" y="-756.5" font-family="Helvetica,sans-Serif" font-size="10.00">src/http/http_parser.h</text>
</a>
</g>
</g>
<!-- Node2&#45;&gt;Node3 -->
<g id="edge2" class="edge">
<title>Node2&#45;&gt;Node3</title>
<path fill="none" stroke="midnightblue" d="M883.23,-858.41C863.2,-851.66 841.77,-841.16 827,-825 812.34,-808.96 808.42,-782.4 807.38,-768.73"/>
<polygon fill="midnightblue" stroke="midnightblue" points="882.33,-861.79 892.92,-861.43 884.41,-855.11 882.33,-861.79"/>
</g>
<!-- Node35 -->
<g id="node35" class="node">
<title>Node35</title>
<g id="a_node35"><a xlink:href="http__proc_8h.html" target="_top" xlink:title=" ">
<polygon fill="white" stroke="black" points="836.5,-805.5 836.5,-824.5 947.5,-824.5 947.5,-805.5 836.5,-805.5"/>
<text text-anchor="middle" x="892" y="-812.5" font-family="Helvetica,sans-Serif" font-size="10.00">src/http/http_proc.h</text>
</a>
</g>
</g>
<!-- Node2&#45;&gt;Node35 -->
<g id="edge58" class="edge">
<title>Node2&#45;&gt;Node35</title>
<path fill="none" stroke="midnightblue" d="M922.95,-853.14C915.11,-843.74 905.67,-832.4 899.29,-824.75"/>
<polygon fill="midnightblue" stroke="midnightblue" points="920.48,-855.64 929.57,-861.08 925.86,-851.16 920.48,-855.64"/>
</g>
<!-- Node4 -->
<g id="node4" class="node">
<title>Node4</title>
<g id="a_node4"><a xlink:href="rpc__tls__client_8h.html" target="_top" xlink:title=" ">
<polygon fill="white" stroke="black" points="164.5,-626.5 164.5,-656.5 265.5,-656.5 265.5,-626.5 164.5,-626.5"/>
<text text-anchor="start" x="172.5" y="-644.5" font-family="Helvetica,sans-Serif" font-size="10.00">src/clients/rpc_tls</text>
<text text-anchor="middle" x="215" y="-633.5" font-family="Helvetica,sans-Serif" font-size="10.00">_client.h</text>
</a>
</g>
</g>
<!-- Node3&#45;&gt;Node4 -->
<g id="edge3" class="edge">
<title>Node3&#45;&gt;Node4</title>
<path fill="none" stroke="midnightblue" d="M736.51,-753.18C662.15,-747.21 541.87,-735.01 440,-713 372.78,-698.47 296.89,-672.65 252.65,-656.62"/>
<polygon fill="midnightblue" stroke="midnightblue" points="736.44,-756.68 746.69,-753.98 736.99,-749.71 736.44,-756.68"/>
</g>
<!-- Node9 -->
<g id="node9" class="node">
<title>Node9</title>
<g id="a_node9"><a xlink:href="http__endpoint_8h.html" target="_top" xlink:title=" ">
<polygon fill="white" stroke="black" points="872.5,-570.5 872.5,-589.5 1005.5,-589.5 1005.5,-570.5 872.5,-570.5"/>
<text text-anchor="middle" x="939" y="-577.5" font-family="Helvetica,sans-Serif" font-size="10.00">src/http/http_endpoint.h</text>
</a>
</g>
</g>
<!-- Node3&#45;&gt;Node9 -->
<g id="edge9" class="edge">
<title>Node3&#45;&gt;Node9</title>
<path fill="none" stroke="midnightblue" d="M826.7,-742.96C836.74,-734.74 848.74,-724.02 858,-713 893.47,-670.81 924.07,-611.55 934.86,-589.61"/>
<polygon fill="midnightblue" stroke="midnightblue" points="824.48,-740.25 818.84,-749.22 828.84,-745.73 824.48,-740.25"/>
</g>
<!-- Node24 -->
<g id="node24" class="node">
<title>Node24</title>
<g id="a_node24"><a xlink:href="http__jwt_8h.html" target="_top" xlink:title=" ">
<polygon fill="white" stroke="black" points="672.5,-693.5 672.5,-712.5 777.5,-712.5 777.5,-693.5 672.5,-693.5"/>
<text text-anchor="middle" x="725" y="-700.5" font-family="Helvetica,sans-Serif" font-size="10.00">src/http/http_jwt.h</text>
</a>
</g>
</g>
<!-- Node3&#45;&gt;Node24 -->
<g id="edge34" class="edge">
<title>Node3&#45;&gt;Node24</title>
<path fill="none" stroke="midnightblue" d="M785.17,-743.62C770.19,-733.76 750.8,-720.99 738.14,-712.65"/>
<polygon fill="midnightblue" stroke="midnightblue" points="783.55,-746.75 793.83,-749.32 787.4,-740.9 783.55,-746.75"/>
</g>
<!-- Node30 -->
<g id="node30" class="node">
<title>Node30</title>
<g id="a_node30"><a xlink:href="http__rpc__context_8h.html" target="_top" xlink:title=" ">
<polygon fill="white" stroke="black" points="495.5,-632 495.5,-651 642.5,-651 642.5,-632 495.5,-632"/>
<text text-anchor="middle" x="569" y="-639" font-family="Helvetica,sans-Serif" font-size="10.00">src/http/http_rpc_context.h</text>
</a>
</g>
</g>
<!-- Node3&#45;&gt;Node30 -->
<g id="edge46" class="edge">
<title>Node3&#45;&gt;Node30</title>
<path fill="none" stroke="midnightblue" d="M805.85,-739.46C803.93,-724.81 798.94,-704.9 786,-693 773.54,-681.55 676.71,-662.15 616.68,-651.03"/>
<polygon fill="midnightblue" stroke="midnightblue" points="802.36,-739.8 806.79,-749.43 809.33,-739.14 802.36,-739.8"/>
</g>
<!-- Node32 -->
<g id="node32" class="node">
<title>Node32</title>
<g id="a_node32"><a xlink:href="http__sig_8h.html" target="_top" xlink:title=" ">
<polygon fill="white" stroke="black" points="449,-693.5 449,-712.5 553,-712.5 553,-693.5 449,-693.5"/>
<text text-anchor="middle" x="501" y="-700.5" font-family="Helvetica,sans-Serif" font-size="10.00">src/http/http_sig.h</text>
</a>
</g>
</g>
<!-- Node3&#45;&gt;Node32 -->
<g id="edge52" class="edge">
<title>Node3&#45;&gt;Node32</title>
<path fill="none" stroke="midnightblue" d="M748.43,-747.66C690.6,-737.46 603.22,-722.04 549.26,-712.52"/>
<polygon fill="midnightblue" stroke="midnightblue" points="748.06,-751.15 758.51,-749.44 749.27,-744.26 748.06,-751.15"/>
</g>
<!-- Node34 -->
<g id="node34" class="node">
<title>Node34</title>
<g id="a_node34"><a xlink:href="acme__client_8h.html" target="_top" xlink:title=" ">
<polygon fill="white" stroke="black" points="734.5,-509 734.5,-528 863.5,-528 863.5,-509 734.5,-509"/>
<text text-anchor="middle" x="799" y="-516" font-family="Helvetica,sans-Serif" font-size="10.00">src/node/acme_client.h</text>
</a>
</g>
</g>
<!-- Node3&#45;&gt;Node34 -->
<g id="edge56" class="edge">
<title>Node3&#45;&gt;Node34</title>
<path fill="none" stroke="midnightblue" d="M811.09,-739.42C815.3,-719.24 821.57,-686.02 824,-657 825.15,-643.27 825.58,-639.69 824,-626 819.72,-589.02 807.34,-546.24 801.77,-528.21"/>
<polygon fill="midnightblue" stroke="midnightblue" points="807.62,-738.9 808.94,-749.41 814.46,-740.37 807.62,-738.9"/>
</g>
<!-- Node5 -->
<g id="node5" class="node">
<title>Node5</title>
<g id="a_node5"><a xlink:href="perf__client_8h.html" target="_top" xlink:title=" ">
<polygon fill="white" stroke="black" points="138.5,-503.5 138.5,-533.5 249.5,-533.5 249.5,-503.5 138.5,-503.5"/>
<text text-anchor="start" x="146.5" y="-521.5" font-family="Helvetica,sans-Serif" font-size="10.00">src/clients/perf/perf</text>
<text text-anchor="middle" x="194" y="-510.5" font-family="Helvetica,sans-Serif" font-size="10.00">_client.h</text>
</a>
</g>
</g>
<!-- Node4&#45;&gt;Node5 -->
<g id="edge4" class="edge">
<title>Node4&#45;&gt;Node5</title>
<path fill="none" stroke="midnightblue" d="M233.09,-618C241.97,-604.14 249.49,-586.02 243,-570 237.08,-555.4 224.68,-542.69 213.84,-533.67"/>
<polygon fill="midnightblue" stroke="midnightblue" points="230.06,-616.23 227.2,-626.43 235.8,-620.24 230.06,-616.23"/>
</g>
<!-- Node8 -->
<g id="node8" class="node">
<title>Node8</title>
<g id="a_node8"><a xlink:href="timing_8h.html" target="_top" xlink:title=" ">
<polygon fill="white" stroke="black" points="102,-570.5 102,-589.5 234,-589.5 234,-570.5 102,-570.5"/>
<text text-anchor="middle" x="168" y="-577.5" font-family="Helvetica,sans-Serif" font-size="10.00">src/clients/perf/timing.h</text>
</a>
</g>
</g>
<!-- Node4&#45;&gt;Node8 -->
<g id="edge7" class="edge">
<title>Node4&#45;&gt;Node8</title>
<path fill="none" stroke="midnightblue" d="M197.55,-618.4C189.65,-608.41 180.78,-597.18 174.84,-589.66"/>
<polygon fill="midnightblue" stroke="midnightblue" points="194.92,-620.72 203.86,-626.4 200.41,-616.38 194.92,-620.72"/>
</g>
<!-- Node6 -->
<g id="node6" class="node">
<title>Node6</title>
<g id="a_node6"><a xlink:href="tpcc__client_8cpp.html" target="_top" xlink:title=" ">
<polygon fill="white" stroke="black" points="0,-436.5 0,-466.5 116,-466.5 116,-436.5 0,-436.5"/>
<text text-anchor="start" x="8" y="-454.5" font-family="Helvetica,sans-Serif" font-size="10.00">src/apps/tpcc/clients</text>
<text text-anchor="middle" x="58" y="-443.5" font-family="Helvetica,sans-Serif" font-size="10.00">/tpcc_client.cpp</text>
</a>
</g>
</g>
<!-- Node5&#45;&gt;Node6 -->
<g id="edge5" class="edge">
<title>Node5&#45;&gt;Node6</title>
<path fill="none" stroke="midnightblue" d="M155.28,-498.99C133.72,-488.69 107.31,-476.07 87.45,-466.58"/>
<polygon fill="midnightblue" stroke="midnightblue" points="153.96,-502.24 164.49,-503.4 156.98,-495.93 153.96,-502.24"/>
</g>
<!-- Node7 -->
<g id="node7" class="node">
<title>Node7</title>
<g id="a_node7"><a xlink:href="scenario__perf__client_8cpp.html" target="_top" xlink:title=" ">
<polygon fill="white" stroke="black" points="134.5,-436.5 134.5,-466.5 267.5,-466.5 267.5,-436.5 134.5,-436.5"/>
<text text-anchor="start" x="142.5" y="-454.5" font-family="Helvetica,sans-Serif" font-size="10.00">src/clients/perf/scenario</text>
<text text-anchor="middle" x="201" y="-443.5" font-family="Helvetica,sans-Serif" font-size="10.00">_perf_client.cpp</text>
</a>
</g>
</g>
<!-- Node5&#45;&gt;Node7 -->
<g id="edge6" class="edge">
<title>Node5&#45;&gt;Node7</title>
<path fill="none" stroke="midnightblue" d="M196.6,-493.4C197.57,-484.37 198.64,-474.41 199.48,-466.58"/>
<polygon fill="midnightblue" stroke="midnightblue" points="193.11,-493.08 195.52,-503.4 200.07,-493.83 193.11,-493.08"/>
</g>
<!-- Node8&#45;&gt;Node5 -->
<g id="edge8" class="edge">
<title>Node8&#45;&gt;Node5</title>
<path fill="none" stroke="midnightblue" d="M175.82,-561.1C179.68,-552.27 184.27,-541.77 187.87,-533.52"/>
<polygon fill="midnightblue" stroke="midnightblue" points="172.52,-559.91 171.73,-570.48 178.94,-562.71 172.52,-559.91"/>
</g>
<!-- Node10 -->
<g id="node10" class="node">
<title>Node10</title>
<g id="a_node10"><a xlink:href="rpc__sessions_8h.html" target="_top" xlink:title=" ">
<polygon fill="white" stroke="black" points="1065,-509 1065,-528 1211,-528 1211,-509 1065,-509"/>
<text text-anchor="middle" x="1138" y="-516" font-family="Helvetica,sans-Serif" font-size="10.00">src/enclave/rpc_sessions.h</text>
</a>
</g>
</g>
<!-- Node9&#45;&gt;Node10 -->
<g id="edge10" class="edge">
<title>Node9&#45;&gt;Node10</title>
<path fill="none" stroke="midnightblue" d="M977.37,-567.53C1016.04,-555.96 1074.84,-538.38 1109.54,-528.01"/>
<polygon fill="midnightblue" stroke="midnightblue" points="976.09,-564.26 967.51,-570.48 978.1,-570.96 976.09,-564.26"/>
</g>
<!-- Node11 -->
<g id="node11" class="node">
<title>Node11</title>
<g id="a_node11"><a xlink:href="enclave_2enclave_8h.html" target="_top" xlink:title=" ">
<polygon fill="white" stroke="black" points="424,-56.5 424,-75.5 546,-75.5 546,-56.5 424,-56.5"/>
<text text-anchor="middle" x="485" y="-63.5" font-family="Helvetica,sans-Serif" font-size="10.00">src/enclave/enclave.h</text>
</a>
</g>
</g>
<!-- Node10&#45;&gt;Node11 -->
<g id="edge11" class="edge">
<title>Node10&#45;&gt;Node11</title>
<path fill="none" stroke="midnightblue" d="M1158.47,-502.68C1169.64,-493.57 1182.82,-480.99 1191,-467 1243.05,-377.97 1265.5,-310.27 1195,-235 1105.92,-139.89 701.4,-89.14 546.03,-72.88"/>
<polygon fill="midnightblue" stroke="midnightblue" points="1156.18,-500.02 1150.44,-508.93 1160.48,-505.55 1156.18,-500.02"/>
</g>
<!-- Node13 -->
<g id="node13" class="node">
<title>Node13</title>
<g id="a_node13"><a xlink:href="ccf__acme__client_8h.html" target="_top" xlink:title=" ">
<polygon fill="white" stroke="black" points="684.5,-241 684.5,-260 833.5,-260 833.5,-241 684.5,-241"/>
<text text-anchor="middle" x="759" y="-248" font-family="Helvetica,sans-Serif" font-size="10.00">src/node/ccf_acme_client.h</text>
</a>
</g>
</g>
<!-- Node10&#45;&gt;Node13 -->
<g id="edge13" class="edge">
<title>Node10&#45;&gt;Node13</title>
<path fill="none" stroke="midnightblue" d="M1064.07,-507.39C1016.52,-499.52 953.95,-486.59 901,-467 842.62,-445.4 813.13,-451.39 778,-400 747.34,-355.15 754.08,-284.56 757.59,-260.14"/>
<polygon fill="midnightblue" stroke="midnightblue" points="1063.54,-510.85 1073.98,-508.99 1064.66,-503.94 1063.54,-510.85"/>
</g>
<!-- Node14 -->
<g id="node14" class="node">
<title>Node14</title>
<g id="a_node14"><a xlink:href="node__state_8h.html" target="_top" xlink:title=" ">
<polygon fill="white" stroke="black" points="778,-174 778,-193 902,-193 902,-174 778,-174"/>
<text text-anchor="middle" x="840" y="-181" font-family="Helvetica,sans-Serif" font-size="10.00">src/node/node_state.h</text>
</a>
</g>
</g>
<!-- Node10&#45;&gt;Node14 -->
<g id="edge31" class="edge">
<title>Node10&#45;&gt;Node14</title>
<path fill="none" stroke="midnightblue" d="M1150.81,-500.35C1167.61,-476.1 1195,-429.79 1195,-385.5 1195,-385.5 1195,-385.5 1195,-316.5 1195,-278.74 1199.44,-259.84 1171,-235 1131.98,-200.92 986.82,-189.82 902.25,-186.21"/>
<polygon fill="midnightblue" stroke="midnightblue" points="1147.74,-498.62 1144.76,-508.79 1153.43,-502.7 1147.74,-498.62"/>
</g>
<!-- Node16 -->
<g id="node16" class="node">
<title>Node16</title>
<g id="a_node16"><a xlink:href="node__client_8h.html" target="_top" xlink:title=" ">
<polygon fill="white" stroke="black" points="910,-442 910,-461 1036,-461 1036,-442 910,-442"/>
<text text-anchor="middle" x="973" y="-449" font-family="Helvetica,sans-Serif" font-size="10.00">src/node/node_client.h</text>
</a>
</g>
</g>
<!-- Node10&#45;&gt;Node16 -->
<g id="edge18" class="edge">
<title>Node10&#45;&gt;Node16</title>
<path fill="none" stroke="midnightblue" d="M1106.53,-505.1C1073.77,-492.2 1023.33,-472.33 994.74,-461.06"/>
<polygon fill="midnightblue" stroke="midnightblue" points="1105.5,-508.46 1116.09,-508.87 1108.07,-501.95 1105.5,-508.46"/>
</g>
<!-- Node23 -->
<g id="node23" class="node">
<title>Node23</title>
<g id="a_node23"><a xlink:href="resharing_8h.html" target="_top" xlink:title=" ">
<polygon fill="white" stroke="black" points="1046,-241 1046,-260 1162,-260 1162,-241 1046,-241"/>
<text text-anchor="middle" x="1104" y="-248" font-family="Helvetica,sans-Serif" font-size="10.00">src/node/resharing.h</text>
</a>
</g>
</g>
<!-- Node10&#45;&gt;Node23 -->
<g id="edge32" class="edge">
<title>Node10&#45;&gt;Node23</title>
<path fill="none" stroke="midnightblue" d="M1139.68,-498.65C1141.84,-470.34 1144.55,-415.22 1138,-369 1132.07,-327.16 1114.81,-279.37 1107.42,-260.16"/>
<polygon fill="midnightblue" stroke="midnightblue" points="1136.19,-498.48 1138.85,-508.74 1143.16,-499.06 1136.19,-498.48"/>
</g>
<!-- Node12 -->
<g id="node12" class="node">
<title>Node12</title>
<g id="a_node12"><a xlink:href="enclave_2main_8cpp.html" target="_top" xlink:title=" ">
<polygon fill="white" stroke="black" points="425,-0.5 425,-19.5 545,-19.5 545,-0.5 425,-0.5"/>
<text text-anchor="middle" x="485" y="-7.5" font-family="Helvetica,sans-Serif" font-size="10.00">src/enclave/main.cpp</text>
</a>
</g>
</g>
<!-- Node11&#45;&gt;Node12 -->
<g id="edge12" class="edge">
<title>Node11&#45;&gt;Node12</title>
<path fill="none" stroke="midnightblue" d="M485,-45.8C485,-36.91 485,-26.78 485,-19.75"/>
<polygon fill="midnightblue" stroke="midnightblue" points="481.5,-46.08 485,-56.08 488.5,-46.08 481.5,-46.08"/>
</g>
<!-- Node13&#45;&gt;Node14 -->
<g id="edge14" class="edge">
<title>Node13&#45;&gt;Node14</title>
<path fill="none" stroke="midnightblue" d="M778.05,-234.21C794.01,-221.41 816.21,-203.59 829.25,-193.13"/>
<polygon fill="midnightblue" stroke="midnightblue" points="775.53,-231.75 769.92,-240.73 779.91,-237.2 775.53,-231.75"/>
</g>
<!-- Node14&#45;&gt;Node11 -->
<g id="edge15" class="edge">
<title>Node14&#45;&gt;Node11</title>
<path fill="none" stroke="midnightblue" d="M819.64,-168.01C796.06,-151.92 755.49,-126.31 717,-112 661.05,-91.19 593.75,-79.5 546.08,-73.28"/>
<polygon fill="midnightblue" stroke="midnightblue" points="817.88,-171.05 828.09,-173.87 821.87,-165.3 817.88,-171.05"/>
</g>
<!-- Node15 -->
<g id="node15" class="node">
<title>Node15</title>
<g id="a_node15"><a xlink:href="gov__effects_8h.html" target="_top" xlink:title=" ">
<polygon fill="white" stroke="black" points="564,-112.5 564,-131.5 708,-131.5 708,-112.5 564,-112.5"/>
<text text-anchor="middle" x="636" y="-119.5" font-family="Helvetica,sans-Serif" font-size="10.00">src/node/rpc/gov_effects.h</text>
</a>
</g>
</g>
<!-- Node14&#45;&gt;Node15 -->
<g id="edge16" class="edge">
<title>Node14&#45;&gt;Node15</title>
<path fill="none" stroke="midnightblue" d="M800.92,-171.1C761.28,-159.54 700.82,-141.91 665.17,-131.51"/>
<polygon fill="midnightblue" stroke="midnightblue" points="800.19,-174.54 810.77,-173.98 802.15,-167.82 800.19,-174.54"/>
</g>
<!-- Node15&#45;&gt;Node11 -->
<g id="edge17" class="edge">
<title>Node15&#45;&gt;Node11</title>
<path fill="none" stroke="midnightblue" d="M602.55,-109.04C574.14,-98.88 534.06,-84.55 508.81,-75.52"/>
<polygon fill="midnightblue" stroke="midnightblue" points="601.48,-112.37 612.07,-112.44 603.84,-105.78 601.48,-112.37"/>
</g>
<!-- Node17 -->
<g id="node17" class="node">
<title>Node17</title>
<g id="a_node17"><a xlink:href="orc__requests_8h.html" target="_top" xlink:title=" ">
<polygon fill="white" stroke="black" points="787.5,-369.5 787.5,-399.5 906.5,-399.5 906.5,-369.5 787.5,-369.5"/>
<text text-anchor="start" x="795.5" y="-387.5" font-family="Helvetica,sans-Serif" font-size="10.00">src/consensus/aft/orc</text>
<text text-anchor="middle" x="847" y="-376.5" font-family="Helvetica,sans-Serif" font-size="10.00">_requests.h</text>
</a>
</g>
</g>
<!-- Node16&#45;&gt;Node17 -->
<g id="edge19" class="edge">
<title>Node16&#45;&gt;Node17</title>
<path fill="none" stroke="midnightblue" d="M947.21,-437.19C926.01,-426.26 896.06,-410.81 874.43,-399.65"/>
<polygon fill="midnightblue" stroke="midnightblue" points="945.78,-440.39 956.27,-441.87 948.99,-434.17 945.78,-440.39"/>
</g>
<!-- Node18 -->
<g id="node18" class="node">
<title>Node18</title>
<g id="a_node18"><a xlink:href="raft_8h.html" target="_top" xlink:title=" ">
<polygon fill="white" stroke="black" points="963.5,-308 963.5,-327 1092.5,-327 1092.5,-308 963.5,-308"/>
<text text-anchor="middle" x="1028" y="-315" font-family="Helvetica,sans-Serif" font-size="10.00">src/consensus/aft/raft.h</text>
</a>
</g>
</g>
<!-- Node16&#45;&gt;Node18 -->
<g id="edge26" class="edge">
<title>Node16&#45;&gt;Node18</title>
<path fill="none" stroke="midnightblue" d="M975.32,-431.29C977.87,-414.33 982.87,-389.23 992,-369 999.27,-352.91 1012,-336.71 1020.21,-327.14"/>
<polygon fill="midnightblue" stroke="midnightblue" points="971.8,-431.19 973.93,-441.57 978.74,-432.13 971.8,-431.19"/>
</g>
<!-- Node21 -->
<g id="node21" class="node">
<title>Node21</title>
<g id="a_node21"><a xlink:href="http__node__client_8h.html" target="_top" xlink:title=" ">
<polygon fill="white" stroke="black" points="866,-235.5 866,-265.5 976,-265.5 976,-235.5 866,-235.5"/>
<text text-anchor="start" x="874" y="-253.5" font-family="Helvetica,sans-Serif" font-size="10.00">src/node/http_node</text>
<text text-anchor="middle" x="921" y="-242.5" font-family="Helvetica,sans-Serif" font-size="10.00">_client.h</text>
</a>
</g>
</g>
<!-- Node16&#45;&gt;Node21 -->
<g id="edge27" class="edge">
<title>Node16&#45;&gt;Node21</title>
<path fill="none" stroke="midnightblue" d="M968.19,-432.11C957.89,-392.68 933.86,-300.72 924.67,-265.53"/>
<polygon fill="midnightblue" stroke="midnightblue" points="964.85,-433.16 970.77,-441.95 971.62,-431.39 964.85,-433.16"/>
</g>
<!-- Node22 -->
<g id="node22" class="node">
<title>Node22</title>
<g id="a_node22"><a xlink:href="retired__nodes__cleanup_8h.html" target="_top" xlink:title=" ">
<polygon fill="white" stroke="black" points="1001,-369.5 1001,-399.5 1129,-399.5 1129,-369.5 1001,-369.5"/>
<text text-anchor="start" x="1009" y="-387.5" font-family="Helvetica,sans-Serif" font-size="10.00">src/node/retired_nodes</text>
<text text-anchor="middle" x="1065" y="-376.5" font-family="Helvetica,sans-Serif" font-size="10.00">_cleanup.h</text>
</a>
</g>
</g>
<!-- Node16&#45;&gt;Node22 -->
<g id="edge29" class="edge">
<title>Node16&#45;&gt;Node22</title>
<path fill="none" stroke="midnightblue" d="M993.74,-435.85C1009.09,-425 1029.89,-410.3 1045.06,-399.59"/>
<polygon fill="midnightblue" stroke="midnightblue" points="991.56,-433.1 985.41,-441.73 995.59,-438.82 991.56,-433.1"/>
</g>
<!-- Node17&#45;&gt;Node18 -->
<g id="edge20" class="edge">
<title>Node17&#45;&gt;Node18</title>
<path fill="none" stroke="midnightblue" d="M895.88,-365.95C931.04,-353.32 976.9,-336.85 1004.31,-327.01"/>
<polygon fill="midnightblue" stroke="midnightblue" points="894.5,-362.72 886.27,-369.4 896.87,-369.31 894.5,-362.72"/>
</g>
<!-- Node19 -->
<g id="node19" class="node">
<title>Node19</title>
<g id="a_node19"><a xlink:href="node__frontend_8h.html" target="_top" xlink:title=" ">
<polygon fill="white" stroke="black" points="497,-308 497,-327 655,-327 655,-308 497,-308"/>
<text text-anchor="middle" x="576" y="-315" font-family="Helvetica,sans-Serif" font-size="10.00">src/node/rpc/node_frontend.h</text>
</a>
</g>
</g>
<!-- Node17&#45;&gt;Node19 -->
<g id="edge22" class="edge">
<title>Node17&#45;&gt;Node19</title>
<path fill="none" stroke="midnightblue" d="M778.5,-367.07C725.35,-354.32 653.84,-337.17 611.56,-327.03"/>
<polygon fill="midnightblue" stroke="midnightblue" points="777.99,-370.55 788.53,-369.48 779.62,-363.74 777.99,-370.55"/>
</g>
<!-- Node18&#45;&gt;Node14 -->
<g id="edge21" class="edge">
<title>Node18&#45;&gt;Node14</title>
<path fill="none" stroke="midnightblue" d="M1022.74,-298.21C1016.55,-279.82 1004.57,-251.83 985,-235 959.13,-212.75 922.88,-200.13 893.1,-193.06"/>
<polygon fill="midnightblue" stroke="midnightblue" points="1019.4,-299.28 1025.72,-307.78 1026.08,-297.19 1019.4,-299.28"/>
</g>
<!-- Node19&#45;&gt;Node11 -->
<g id="edge23" class="edge">
<title>Node19&#45;&gt;Node11</title>
<path fill="none" stroke="midnightblue" d="M558.78,-300.87C549.55,-291.58 538.72,-279.09 532,-266 497.3,-198.42 487.77,-104.77 485.58,-75.85"/>
<polygon fill="midnightblue" stroke="midnightblue" points="556.41,-303.44 566.04,-307.85 561.26,-298.39 556.41,-303.44"/>
</g>
<!-- Node20 -->
<g id="node20" class="node">
<title>Node20</title>
<g id="a_node20"><a xlink:href="jwt__key__auto__refresh_8h.html" target="_top" xlink:title=" ">
<polygon fill="white" stroke="black" points="541.5,-235.5 541.5,-265.5 666.5,-265.5 666.5,-235.5 541.5,-235.5"/>
<text text-anchor="start" x="549.5" y="-253.5" font-family="Helvetica,sans-Serif" font-size="10.00">src/node/jwt_key_auto</text>
<text text-anchor="middle" x="604" y="-242.5" font-family="Helvetica,sans-Serif" font-size="10.00">_refresh.h</text>
</a>
</g>
</g>
<!-- Node19&#45;&gt;Node20 -->
<g id="edge24" class="edge">
<title>Node19&#45;&gt;Node20</title>
<path fill="none" stroke="midnightblue" d="M583.8,-298.39C588.27,-288.02 593.79,-275.2 597.93,-265.59"/>
<polygon fill="midnightblue" stroke="midnightblue" points="580.52,-297.16 579.78,-307.73 586.95,-299.93 580.52,-297.16"/>
</g>
<!-- Node20&#45;&gt;Node14 -->
<g id="edge25" class="edge">
<title>Node20&#45;&gt;Node14</title>
<path fill="none" stroke="midnightblue" d="M664.81,-232.75C710.97,-220.04 772.52,-203.09 809.03,-193.03"/>
<polygon fill="midnightblue" stroke="midnightblue" points="663.63,-229.45 654.92,-235.48 665.49,-236.19 663.63,-229.45"/>
</g>
<!-- Node21&#45;&gt;Node14 -->
<g id="edge28" class="edge">
<title>Node21&#45;&gt;Node14</title>
<path fill="none" stroke="midnightblue" d="M895.46,-229.01C880.43,-216.94 862.19,-202.3 850.83,-193.19"/>
<polygon fill="midnightblue" stroke="midnightblue" points="893.43,-231.87 903.42,-235.4 897.82,-226.41 893.43,-231.87"/>
</g>
<!-- Node22&#45;&gt;Node18 -->
<g id="edge30" class="edge">
<title>Node22&#45;&gt;Node18</title>
<path fill="none" stroke="midnightblue" d="M1051.98,-360.63C1045.4,-349.07 1037.8,-335.71 1032.95,-327.19"/>
<polygon fill="midnightblue" stroke="midnightblue" points="1048.98,-362.44 1056.97,-369.4 1055.07,-358.97 1048.98,-362.44"/>
</g>
<!-- Node23&#45;&gt;Node14 -->
<g id="edge33" class="edge">
<title>Node23&#45;&gt;Node14</title>
<path fill="none" stroke="midnightblue" d="M1059.26,-238.48C1007.18,-225.66 922.29,-204.76 874.86,-193.08"/>
<polygon fill="midnightblue" stroke="midnightblue" points="1058.67,-241.94 1069.22,-240.94 1060.34,-235.15 1058.67,-241.94"/>
</g>
<!-- Node25 -->
<g id="node25" class="node">
<title>Node25</title>
<g id="a_node25"><a xlink:href="jwt__auth_8cpp.html" target="_top" xlink:title=" ">
<polygon fill="white" stroke="black" points="660.5,-626.5 660.5,-656.5 815.5,-656.5 815.5,-626.5 660.5,-626.5"/>
<text text-anchor="start" x="668.5" y="-644.5" font-family="Helvetica,sans-Serif" font-size="10.00">src/endpoints/authentication</text>
<text text-anchor="middle" x="738" y="-633.5" font-family="Helvetica,sans-Serif" font-size="10.00">/jwt_auth.cpp</text>
</a>
</g>
</g>
<!-- Node24&#45;&gt;Node25 -->
<g id="edge35" class="edge">
<title>Node24&#45;&gt;Node25</title>
<path fill="none" stroke="midnightblue" d="M729.04,-683.53C730.94,-674.81 733.17,-664.59 734.94,-656.52"/>
<polygon fill="midnightblue" stroke="midnightblue" points="725.58,-682.96 726.86,-693.48 732.42,-684.45 725.58,-682.96"/>
</g>
<!-- Node26 -->
<g id="node26" class="node">
<title>Node26</title>
<g id="a_node26"><a xlink:href="frontend_8h.html" target="_top" xlink:title=" ">
<polygon fill="white" stroke="black" points="301.5,-375 301.5,-394 430.5,-394 430.5,-375 301.5,-375"/>
<text text-anchor="middle" x="366" y="-382" font-family="Helvetica,sans-Serif" font-size="10.00">src/node/rpc/frontend.h</text>
</a>
</g>
</g>
<!-- Node24&#45;&gt;Node26 -->
<g id="edge36" class="edge">
<title>Node24&#45;&gt;Node26</title>
<path fill="none" stroke="midnightblue" d="M662.31,-697.77C600.22,-692.28 510.92,-680.49 486,-657 460.67,-633.12 467,-615.82 467,-581 467,-581 467,-581 467,-517.5 467,-479.61 464.66,-466.37 442,-436 427.51,-416.57 403.19,-402.33 385.97,-394.01"/>
<polygon fill="midnightblue" stroke="midnightblue" points="662.15,-701.26 672.41,-698.62 662.74,-694.29 662.15,-701.26"/>
</g>
<!-- Node26&#45;&gt;Node14 -->
<g id="edge40" class="edge">
<title>Node26&#45;&gt;Node14</title>
<path fill="none" stroke="midnightblue" d="M349.44,-367.23C333.94,-349.99 315.22,-322.48 330,-302 382.12,-229.8 653.38,-199.28 777.68,-188.94"/>
<polygon fill="midnightblue" stroke="midnightblue" points="347.2,-369.96 356.63,-374.79 352.27,-365.13 347.2,-369.96"/>
</g>
<!-- Node26&#45;&gt;Node19 -->
<g id="edge43" class="edge">
<title>Node26&#45;&gt;Node19</title>
<path fill="none" stroke="midnightblue" d="M403.65,-371.85C445.24,-358.97 511.24,-338.55 548.33,-327.06"/>
<polygon fill="midnightblue" stroke="midnightblue" points="402.4,-368.57 393.89,-374.87 404.47,-375.26 402.4,-368.57"/>
</g>
<!-- Node27 -->
<g id="node27" class="node">
<title>Node27</title>
<g id="a_node27"><a xlink:href="acme__challenge__frontend_8h.html" target="_top" xlink:title=" ">
<polygon fill="white" stroke="black" points="339,-302.5 339,-332.5 479,-332.5 479,-302.5 339,-302.5"/>
<text text-anchor="start" x="347" y="-320.5" font-family="Helvetica,sans-Serif" font-size="10.00">src/node/acme_challenge</text>
<text text-anchor="middle" x="409" y="-309.5" font-family="Helvetica,sans-Serif" font-size="10.00">_frontend.h</text>
</a>
</g>
</g>
<!-- Node26&#45;&gt;Node27 -->
<g id="edge37" class="edge">
<title>Node26&#45;&gt;Node27</title>
<path fill="none" stroke="midnightblue" d="M377.34,-366.35C384.31,-355.82 393.12,-342.5 399.68,-332.59"/>
<polygon fill="midnightblue" stroke="midnightblue" points="374.4,-364.46 371.8,-374.73 380.24,-368.32 374.4,-364.46"/>
</g>
<!-- Node28 -->
<g id="node28" class="node">
<title>Node28</title>
<g id="a_node28"><a xlink:href="member__frontend_8h.html" target="_top" xlink:title=" ">
<polygon fill="white" stroke="black" points="175,-168.5 175,-198.5 295,-198.5 295,-168.5 175,-168.5"/>
<text text-anchor="start" x="183" y="-186.5" font-family="Helvetica,sans-Serif" font-size="10.00">src/node/rpc/member</text>
<text text-anchor="middle" x="235" y="-175.5" font-family="Helvetica,sans-Serif" font-size="10.00">_frontend.h</text>
</a>
</g>
</g>
<!-- Node26&#45;&gt;Node28 -->
<g id="edge41" class="edge">
<title>Node26&#45;&gt;Node28</title>
<path fill="none" stroke="midnightblue" d="M317.73,-371.75C296.55,-364.15 273.3,-352 259,-333 228.38,-292.31 230.48,-227.44 233.22,-198.84"/>
<polygon fill="midnightblue" stroke="midnightblue" points="316.68,-375.09 327.27,-374.93 318.89,-368.45 316.68,-375.09"/>
</g>
<!-- Node29 -->
<g id="node29" class="node">
<title>Node29</title>
<g id="a_node29"><a xlink:href="user__frontend_8h.html" target="_top" xlink:title=" ">
<polygon fill="white" stroke="black" points="272.5,-112.5 272.5,-131.5 427.5,-131.5 427.5,-112.5 272.5,-112.5"/>
<text text-anchor="middle" x="350" y="-119.5" font-family="Helvetica,sans-Serif" font-size="10.00">src/node/rpc/user_frontend.h</text>
</a>
</g>
</g>
<!-- Node26&#45;&gt;Node29 -->
<g id="edge44" class="edge">
<title>Node26&#45;&gt;Node29</title>
<path fill="none" stroke="midnightblue" d="M346.81,-368.14C337.08,-359.08 326.23,-346.72 321,-333 292.83,-259.05 332.43,-161.19 345.84,-131.74"/>
<polygon fill="midnightblue" stroke="midnightblue" points="344.75,-370.98 354.58,-374.93 349.36,-365.71 344.75,-370.98"/>
</g>
<!-- Node27&#45;&gt;Node11 -->
<g id="edge38" class="edge">
<title>Node27&#45;&gt;Node11</title>
<path fill="none" stroke="midnightblue" d="M416.25,-292.69C432.58,-239.09 471.63,-110.88 482.28,-75.93"/>
<polygon fill="midnightblue" stroke="midnightblue" points="412.87,-291.78 413.3,-302.37 419.57,-293.82 412.87,-291.78"/>
</g>
<!-- Node27&#45;&gt;Node13 -->
<g id="edge39" class="edge">
<title>Node27&#45;&gt;Node13</title>
<path fill="none" stroke="midnightblue" d="M489.43,-301.56C558.78,-288.68 656.46,-270.54 713.21,-260"/>
<polygon fill="midnightblue" stroke="midnightblue" points="488.6,-298.16 479.41,-303.42 489.88,-305.04 488.6,-298.16"/>
</g>
<!-- Node28&#45;&gt;Node11 -->
<g id="edge42" class="edge">
<title>Node28&#45;&gt;Node11</title>
<path fill="none" stroke="midnightblue" d="M238.59,-158.29C242.16,-142.81 249.21,-123.53 263,-112 286.98,-91.95 366.81,-79.44 423.87,-72.85"/>
<polygon fill="midnightblue" stroke="midnightblue" points="235.13,-157.78 236.63,-168.27 242,-159.13 235.13,-157.78"/>
</g>
<!-- Node29&#45;&gt;Node11 -->
<g id="edge45" class="edge">
<title>Node29&#45;&gt;Node11</title>
<path fill="none" stroke="midnightblue" d="M380.91,-108.64C406.24,-98.5 441.43,-84.43 463.71,-75.52"/>
<polygon fill="midnightblue" stroke="midnightblue" points="379.38,-105.48 371.39,-112.44 381.98,-111.98 379.38,-105.48"/>
</g>
<!-- Node30&#45;&gt;Node9 -->
<g id="edge47" class="edge">
<title>Node30&#45;&gt;Node9</title>
<path fill="none" stroke="midnightblue" d="M626.25,-630.23C634.55,-628.78 642.99,-627.33 651,-626 731.25,-612.64 824.27,-598.31 882.39,-589.5"/>
<polygon fill="midnightblue" stroke="midnightblue" points="625.48,-626.81 616.24,-631.98 626.69,-633.7 625.48,-626.81"/>
</g>
<!-- Node30&#45;&gt;Node20 -->
<g id="edge48" class="edge">
<title>Node30&#45;&gt;Node20</title>
<path fill="none" stroke="midnightblue" d="M595.73,-627.16C629.42,-608.22 683,-570.15 683,-519.5 683,-519.5 683,-519.5 683,-383.5 683,-346.31 683.44,-333.71 664,-302 654.89,-287.14 639.89,-274.52 627.17,-265.61"/>
<polygon fill="midnightblue" stroke="midnightblue" points="593.94,-624.14 586.81,-631.98 597.27,-630.3 593.94,-624.14"/>
</g>
<!-- Node31 -->
<g id="node31" class="node">
<title>Node31</title>
<g id="a_node31"><a xlink:href="forwarder_8h.html" target="_top" xlink:title=" ">
<polygon fill="white" stroke="black" points="299,-442 299,-461 433,-461 433,-442 299,-442"/>
<text text-anchor="middle" x="366" y="-449" font-family="Helvetica,sans-Serif" font-size="10.00">src/node/rpc/forwarder.h</text>
</a>
</g>
</g>
<!-- Node30&#45;&gt;Node31 -->
<g id="edge49" class="edge">
<title>Node30&#45;&gt;Node31</title>
<path fill="none" stroke="midnightblue" d="M552.22,-624.96C511.23,-587 407.03,-490.49 375.3,-461.12"/>
<polygon fill="midnightblue" stroke="midnightblue" points="550.03,-627.71 559.75,-631.93 554.79,-622.57 550.03,-627.71"/>
</g>
<!-- Node31&#45;&gt;Node11 -->
<g id="edge50" class="edge">
<title>Node31&#45;&gt;Node11</title>
<path fill="none" stroke="midnightblue" d="M301.17,-439.75C236.59,-424.89 147,-391.19 147,-318.5 147,-318.5 147,-318.5 147,-182.5 147,-170.32 117.75,-165.95 245,-112 302.86,-87.47 374.19,-76.26 423.99,-71.17"/>
<polygon fill="midnightblue" stroke="midnightblue" points="300.78,-443.25 311.3,-441.97 302.29,-436.41 300.78,-443.25"/>
</g>
<!-- Node31&#45;&gt;Node26 -->
<g id="edge51" class="edge">
<title>Node31&#45;&gt;Node26</title>
<path fill="none" stroke="midnightblue" d="M366,-431.54C366,-419.17 366,-403.62 366,-394.13"/>
<polygon fill="midnightblue" stroke="midnightblue" points="362.5,-431.73 366,-441.73 369.5,-431.73 362.5,-431.73"/>
</g>
<!-- Node32&#45;&gt;Node4 -->
<g id="edge53" class="edge">
<title>Node32&#45;&gt;Node4</title>
<path fill="none" stroke="midnightblue" d="M444.71,-691.58C398.69,-682.88 331.98,-669.86 274,-657 271.32,-656.41 268.58,-655.78 265.81,-655.14"/>
<polygon fill="midnightblue" stroke="midnightblue" points="444.31,-695.06 454.79,-693.47 445.61,-688.18 444.31,-695.06"/>
</g>
<!-- Node32&#45;&gt;Node30 -->
<g id="edge55" class="edge">
<title>Node32&#45;&gt;Node30</title>
<path fill="none" stroke="midnightblue" d="M518.54,-686.65C531.51,-675.31 548.68,-660.28 559.28,-651.01"/>
<polygon fill="midnightblue" stroke="midnightblue" points="515.96,-684.26 510.74,-693.48 520.57,-689.52 515.96,-684.26"/>
</g>
<!-- Node33 -->
<g id="node33" class="node">
<title>Node33</title>
<g id="a_node33"><a xlink:href="sig__auth_8cpp.html" target="_top" xlink:title=" ">
<polygon fill="white" stroke="black" points="283.5,-626.5 283.5,-656.5 438.5,-656.5 438.5,-626.5 283.5,-626.5"/>
<text text-anchor="start" x="291.5" y="-644.5" font-family="Helvetica,sans-Serif" font-size="10.00">src/endpoints/authentication</text>
<text text-anchor="middle" x="361" y="-633.5" font-family="Helvetica,sans-Serif" font-size="10.00">/sig_auth.cpp</text>
</a>
</g>
</g>
<!-- Node32&#45;&gt;Node33 -->
<g id="edge54" class="edge">
<title>Node32&#45;&gt;Node33</title>
<path fill="none" stroke="midnightblue" d="M471.5,-689.46C448.82,-679.82 417.5,-666.51 394,-656.52"/>
<polygon fill="midnightblue" stroke="midnightblue" points="470.37,-692.78 480.94,-693.48 473.11,-686.34 470.37,-692.78"/>
</g>
<!-- Node34&#45;&gt;Node13 -->
<g id="edge57" class="edge">
<title>Node34&#45;&gt;Node13</title>
<path fill="none" stroke="midnightblue" d="M776.44,-503.21C764.69,-494.37 751.46,-481.88 745,-467 712.76,-392.71 744.89,-290.37 755.72,-260.2"/>
<polygon fill="midnightblue" stroke="midnightblue" points="774.43,-506.07 784.62,-508.98 778.47,-500.35 774.43,-506.07"/>
</g>
<!-- Node35&#45;&gt;Node3 -->
<g id="edge59" class="edge">
<title>Node35&#45;&gt;Node3</title>
<path fill="none" stroke="midnightblue" d="M869.81,-799.9C854.22,-790 833.87,-777.07 820.62,-768.65"/>
<polygon fill="midnightblue" stroke="midnightblue" points="868.03,-802.92 878.34,-805.32 871.78,-797.01 868.03,-802.92"/>
</g>
<!-- Node36&#45;&gt;Node2 -->
<g id="edge62" class="edge">
<title>Node36&#45;&gt;Node2</title>
<path fill="none" stroke="midnightblue" d="M1069.4,-914.3C1037.55,-904.13 992.16,-889.62 963.65,-880.52"/>
<polygon fill="midnightblue" stroke="midnightblue" points="1068.63,-917.73 1079.22,-917.44 1070.76,-911.07 1068.63,-917.73"/>
</g>
<!-- Node36&#45;&gt;Node10 -->
<g id="edge61" class="edge">
<title>Node36&#45;&gt;Node10</title>
<path fill="none" stroke="midnightblue" d="M1124.49,-910.63C1145.82,-891.06 1178,-855.06 1178,-816 1178,-816 1178,-816 1178,-640.5 1178,-596.47 1153.83,-547.78 1143.07,-528.28"/>
<polygon fill="midnightblue" stroke="midnightblue" points="1122.12,-908.06 1116.94,-917.3 1126.75,-913.3 1122.12,-908.06"/>
</g>
<!-- Node37 -->
<g id="node37" class="node">
<title>Node37</title>
<g id="a_node37"><a xlink:href="client_8h.html" target="_top" xlink:title=" ">
<polygon fill="white" stroke="black" points="1206.5,-570.5 1206.5,-589.5 1291.5,-589.5 1291.5,-570.5 1206.5,-570.5"/>
<text text-anchor="middle" x="1249" y="-577.5" font-family="Helvetica,sans-Serif" font-size="10.00">src/tls/client.h</text>
</a>
</g>
</g>
<!-- Node36&#45;&gt;Node37 -->
<g id="edge63" class="edge">
<title>Node36&#45;&gt;Node37</title>
<path fill="none" stroke="midnightblue" d="M1139.83,-913.5C1177.15,-897.26 1232,-865.05 1232,-816 1232,-816 1232,-816 1232,-702 1232,-659.57 1242.38,-609.59 1246.92,-589.75"/>
<polygon fill="midnightblue" stroke="midnightblue" points="1138.18,-910.39 1130.29,-917.47 1140.87,-916.86 1138.18,-910.39"/>
</g>
<!-- Node38 -->
<g id="node38" class="node">
<title>Node38</title>
<g id="a_node38"><a xlink:href="plaintext__server_8h.html" target="_top" xlink:title=" ">
<polygon fill="white" stroke="black" points="965.5,-805.5 965.5,-824.5 1102.5,-824.5 1102.5,-805.5 965.5,-805.5"/>
<text text-anchor="middle" x="1034" y="-812.5" font-family="Helvetica,sans-Serif" font-size="10.00">src/tls/plaintext_server.h</text>
</a>
</g>
</g>
<!-- Node36&#45;&gt;Node38 -->
<g id="edge66" class="edge">
<title>Node36&#45;&gt;Node38</title>
<path fill="none" stroke="midnightblue" d="M1094.84,-908.96C1079.24,-885.12 1051.48,-842.71 1039.62,-824.59"/>
<polygon fill="midnightblue" stroke="midnightblue" points="1091.95,-910.92 1100.35,-917.37 1097.8,-907.08 1091.95,-910.92"/>
</g>
<!-- Node39 -->
<g id="node39" class="node">
<title>Node39</title>
<g id="a_node39"><a xlink:href="server_8h.html" target="_top" xlink:title=" ">
<polygon fill="white" stroke="black" points="1062,-749.5 1062,-768.5 1150,-768.5 1150,-749.5 1062,-749.5"/>
<text text-anchor="middle" x="1106" y="-756.5" font-family="Helvetica,sans-Serif" font-size="10.00">src/tls/server.h</text>
</a>
</g>
</g>
<!-- Node36&#45;&gt;Node39 -->
<g id="edge68" class="edge">
<title>Node36&#45;&gt;Node39</title>
<path fill="none" stroke="midnightblue" d="M1108.25,-907.43C1110.83,-883.67 1114.41,-841.25 1112,-805 1111.15,-792.26 1108.98,-777.62 1107.49,-768.59"/>
<polygon fill="midnightblue" stroke="midnightblue" points="1104.76,-907.15 1107.1,-917.49 1111.72,-907.95 1104.76,-907.15"/>
</g>
<!-- Node37&#45;&gt;Node10 -->
<g id="edge64" class="edge">
<title>Node37&#45;&gt;Node10</title>
<path fill="none" stroke="midnightblue" d="M1224.21,-565.71C1202.71,-554.19 1172.24,-537.86 1153.87,-528.01"/>
<polygon fill="midnightblue" stroke="midnightblue" points="1222.63,-568.84 1233.1,-570.48 1225.94,-562.67 1222.63,-568.84"/>
</g>
<!-- Node37&#45;&gt;Node14 -->
<g id="edge65" class="edge">
<title>Node37&#45;&gt;Node14</title>
<path fill="none" stroke="midnightblue" d="M1254.19,-560.81C1260.7,-536.39 1271,-491.55 1271,-452.5 1271,-452.5 1271,-452.5 1271,-383.5 1271,-309.36 1255.36,-278.05 1195,-235 1149.2,-202.33 991.1,-190.62 902.11,-186.56"/>
<polygon fill="midnightblue" stroke="midnightblue" points="1250.81,-559.93 1251.52,-570.5 1257.56,-561.79 1250.81,-559.93"/>
</g>
<!-- Node38&#45;&gt;Node10 -->
<g id="edge67" class="edge">
<title>Node38&#45;&gt;Node10</title>
<path fill="none" stroke="midnightblue" d="M1034,-795.25C1034,-773.36 1034,-736.05 1034,-704 1034,-704 1034,-704 1034,-640.5 1034,-587.04 1093.11,-545.41 1122.2,-528.16"/>
<polygon fill="midnightblue" stroke="midnightblue" points="1030.5,-795.44 1034,-805.44 1037.5,-795.44 1030.5,-795.44"/>
</g>
<!-- Node39&#45;&gt;Node10 -->
<g id="edge69" class="edge">
<title>Node39&#45;&gt;Node10</title>
<path fill="none" stroke="midnightblue" d="M1108.53,-739.17C1115.04,-690.6 1132.23,-562.49 1136.85,-528.1"/>
<polygon fill="midnightblue" stroke="midnightblue" points="1105.04,-738.85 1107.18,-749.23 1111.98,-739.78 1105.04,-738.85"/>
</g>
</g>
</svg>
